<?xml version="1.0" encoding="utf-8" standalone="no"?>
<!DOCTYPE svg PUBLIC "-//W3C//DTD SVG 1.1//EN"
  "http://www.w3.org/Graphics/SVG/1.1/DTD/svg11.dtd">
<svg xmlns:xlink="http://www.w3.org/1999/xlink" width="1728pt" height="576pt" viewBox="0 0 1728 576" xmlns="http://www.w3.org/2000/svg" version="1.1">
 <metadata>
  <rdf:RDF xmlns:dc="http://purl.org/dc/elements/1.1/" xmlns:cc="http://creativecommons.org/ns#" xmlns:rdf="http://www.w3.org/1999/02/22-rdf-syntax-ns#">
   <cc:Work>
    <dc:type rdf:resource="http://purl.org/dc/dcmitype/StillImage"/>
    <dc:date>2025-03-27T01:49:15.479760</dc:date>
    <dc:format>image/svg+xml</dc:format>
    <dc:creator>
     <cc:Agent>
      <dc:title>Matplotlib v3.10.1, https://matplotlib.org/</dc:title>
     </cc:Agent>
    </dc:creator>
   </cc:Work>
  </rdf:RDF>
 </metadata>
 <defs>
  <style type="text/css">*{stroke-linejoin: round; stroke-linecap: butt}</style>
 </defs>
 <g id="figure_1">
  <g id="patch_1">
   <path d="M 0 576 
L 1728 576 
L 1728 0 
L 0 0 
L 0 576 
z
" style="fill: none"/>
  </g>
  <g id="axes_1">
   <g id="patch_2">
    <path d="M 216 512.64 
L 1555.2 512.64 
L 1555.2 69.12 
L 216 69.12 
L 216 512.64 
z
" style="fill: none"/>
   </g>
   <g id="FillBetweenPolyCollection_1">
    <defs>
     <path id="m82d36123c0" d="M 276.872727 -431.722721 
L 276.872727 -373.481134 
L 412.145455 -365.780675 
L 547.418182 -342.786663 
L 682.690909 -319.850039 
L 817.963636 -312.914162 
L 953.236364 -291.736992 
L 1088.509091 -278.135557 
L 1223.781818 -255.797133 
L 1359.054545 -242.840455 
L 1494.327273 -214.56353 
L 1494.327273 -284.795845 
L 1494.327273 -284.795845 
L 1359.054545 -309.915386 
L 1223.781818 -321.874737 
L 1088.509091 -345.5065 
L 953.236364 -358.246733 
L 817.963636 -374.508518 
L 682.690909 -383.035886 
L 547.418182 -396.959779 
L 412.145455 -421.678534 
L 276.872727 -431.722721 
z
" style="stroke: #1f77b4; stroke-opacity: 0.2"/>
    </defs>
    <g clip-path="url(#p621445f2c0)">
     <use xlink:href="#m82d36123c0" x="0" y="576" style="fill: #1f77b4; fill-opacity: 0.2; stroke: #1f77b4; stroke-opacity: 0.2"/>
    </g>
   </g>
   <g id="FillBetweenPolyCollection_2">
    <defs>
     <path id="m40b22b009a" d="M 276.872727 -486.72 
L 276.872727 -460.218365 
L 412.145455 -399.483918 
L 547.418182 -383.536281 
L 682.690909 -345.577474 
L 817.963636 -327.314611 
L 953.236364 -308.28448 
L 1088.509091 -292.369469 
L 1223.781818 -263.965933 
L 1359.054545 -245.213451 
L 1494.327273 -224.0556 
L 1494.327273 -299.734505 
L 1494.327273 -299.734505 
L 1359.054545 -321.645782 
L 1223.781818 -330.867729 
L 1088.509091 -355.367814 
L 953.236364 -373.235118 
L 817.963636 -391.181542 
L 682.690909 -406.91675 
L 547.418182 -437.271492 
L 412.145455 -449.850837 
L 276.872727 -486.72 
z
" style="stroke: #ff7f0e; stroke-opacity: 0.2"/>
    </defs>
    <g clip-path="url(#p621445f2c0)">
     <use xlink:href="#m40b22b009a" x="0" y="576" style="fill: #ff7f0e; fill-opacity: 0.2; stroke: #ff7f0e; stroke-opacity: 0.2"/>
    </g>
   </g>
   <g id="FillBetweenPolyCollection_3">
    <defs>
     <path id="m0c8f7119e5" d="M 276.872727 -433.406621 
L 276.872727 -368.286641 
L 412.145455 -350.120666 
L 547.418182 -329.28252 
L 682.690909 -302.547177 
L 817.963636 -283.027688 
L 953.236364 -269.574285 
L 1088.509091 -244.42056 
L 1223.781818 -225.824647 
L 1359.054545 -205.105073 
L 1494.327273 -200.273734 
L 1494.327273 -275.100919 
L 1494.327273 -275.100919 
L 1359.054545 -277.370727 
L 1223.781818 -295.487026 
L 1088.509091 -312.089612 
L 953.236364 -345.343741 
L 817.963636 -353.009775 
L 682.690909 -372.723624 
L 547.418182 -394.554689 
L 412.145455 -410.486805 
L 276.872727 -433.406621 
z
" style="stroke: #2ca02c; stroke-opacity: 0.2"/>
    </defs>
    <g clip-path="url(#p621445f2c0)">
     <use xlink:href="#m0c8f7119e5" x="0" y="576" style="fill: #2ca02c; fill-opacity: 0.2; stroke: #2ca02c; stroke-opacity: 0.2"/>
    </g>
   </g>
   <g id="FillBetweenPolyCollection_4">
    <defs>
     <path id="m6ec31152d1" d="M 276.872727 -449.214032 
L 276.872727 -382.854818 
L 412.145455 -334.697457 
L 547.418182 -287.804331 
L 682.690909 -240.913985 
L 817.963636 -218.796041 
L 953.236364 -202.221517 
L 1088.509091 -182.563575 
L 1223.781818 -161.2904 
L 1359.054545 -159.546966 
L 1494.327273 -142.849197 
L 1494.327273 -205.875419 
L 1494.327273 -205.875419 
L 1359.054545 -232.966096 
L 1223.781818 -232.12616 
L 1088.509091 -256.350073 
L 953.236364 -278.789006 
L 817.963636 -299.346128 
L 682.690909 -321.520374 
L 547.418182 -373.689735 
L 412.145455 -412.696284 
L 276.872727 -449.214032 
z
" style="stroke: #d62728; stroke-opacity: 0.2"/>
    </defs>
    <g clip-path="url(#p621445f2c0)">
     <use xlink:href="#m6ec31152d1" x="0" y="576" style="fill: #d62728; fill-opacity: 0.2; stroke: #d62728; stroke-opacity: 0.2"/>
    </g>
   </g>
   <g id="FillBetweenPolyCollection_5">
    <defs>
     <path id="m53deb7a8f0" d="M 276.872727 -358.783449 
L 276.872727 -267.783778 
L 412.145455 -209.261458 
L 547.418182 -186.275125 
L 682.690909 -157.183581 
L 817.963636 -135.432618 
L 953.236364 -124.113916 
L 1088.509091 -116.274358 
L 1223.781818 -106.912111 
L 1359.054545 -104.435422 
L 1494.327273 -99.382614 
L 1494.327273 -147.291678 
L 1494.327273 -147.291678 
L 1359.054545 -155.189006 
L 1223.781818 -155.582545 
L 1088.509091 -174.911898 
L 953.236364 -182.669543 
L 817.963636 -200.607862 
L 682.690909 -228.158955 
L 547.418182 -270.966941 
L 412.145455 -298.560602 
L 276.872727 -358.783449 
z
" style="stroke: #9467bd; stroke-opacity: 0.2"/>
    </defs>
    <g clip-path="url(#p621445f2c0)">
     <use xlink:href="#m53deb7a8f0" x="0" y="576" style="fill: #9467bd; fill-opacity: 0.2; stroke: #9467bd; stroke-opacity: 0.2"/>
    </g>
   </g>
   <g id="FillBetweenPolyCollection_6">
    <defs>
     <path id="mc743e7c46e" d="M 276.872727 -330.498368 
L 276.872727 -228.868145 
L 412.145455 -188.313503 
L 547.418182 -158.63656 
L 682.690909 -126.906314 
L 817.963636 -109.698624 
L 953.236364 -101.261371 
L 1088.509091 -90.456285 
L 1223.781818 -88.36828 
L 1359.054545 -83.52 
L 1494.327273 -84.114526 
L 1494.327273 -127.21804 
L 1494.327273 -127.21804 
L 1359.054545 -128.4898 
L 1223.781818 -139.672793 
L 1088.509091 -143.240285 
L 953.236364 -160.358961 
L 817.963636 -177.992714 
L 682.690909 -205.794593 
L 547.418182 -248.241557 
L 412.145455 -288.711955 
L 276.872727 -330.498368 
z
" style="stroke: #8c564b; stroke-opacity: 0.2"/>
    </defs>
    <g clip-path="url(#p621445f2c0)">
     <use xlink:href="#mc743e7c46e" x="0" y="576" style="fill: #8c564b; fill-opacity: 0.2; stroke: #8c564b; stroke-opacity: 0.2"/>
    </g>
   </g>
   <g id="matplotlib.axis_1">
    <g id="xtick_1">
     <g id="line2d_1">
      <defs>
       <path id="mbe0060d3ee" d="M 0 0 
L 0 3.5 
" style="stroke: #000000; stroke-width: 0.8"/>
      </defs>
      <g>
       <use xlink:href="#mbe0060d3ee" x="412.145455" y="512.64" style="stroke: #000000; stroke-width: 0.8"/>
      </g>
     </g>
     <g id="text_1">
      <!-- 2 -->
      <g transform="translate(405.146705 536.356562) scale(0.22 -0.22)">
       <defs>
        <path id="DejaVuSans-32" d="M 1228 531 
L 3431 531 
L 3431 0 
L 469 0 
L 469 531 
Q 828 903 1448 1529 
Q 2069 2156 2228 2338 
Q 2531 2678 2651 2914 
Q 2772 3150 2772 3378 
Q 2772 3750 2511 3984 
Q 2250 4219 1831 4219 
Q 1534 4219 1204 4116 
Q 875 4013 500 3803 
L 500 4441 
Q 881 4594 1212 4672 
Q 1544 4750 1819 4750 
Q 2544 4750 2975 4387 
Q 3406 4025 3406 3419 
Q 3406 3131 3298 2873 
Q 3191 2616 2906 2266 
Q 2828 2175 2409 1742 
Q 1991 1309 1228 531 
z
" transform="scale(0.015625)"/>
       </defs>
       <use xlink:href="#DejaVuSans-32"/>
      </g>
     </g>
    </g>
    <g id="xtick_2">
     <g id="line2d_2">
      <g>
       <use xlink:href="#mbe0060d3ee" x="682.690909" y="512.64" style="stroke: #000000; stroke-width: 0.8"/>
      </g>
     </g>
     <g id="text_2">
      <!-- 4 -->
      <g transform="translate(675.692159 536.356562) scale(0.22 -0.22)">
       <defs>
        <path id="DejaVuSans-34" d="M 2419 4116 
L 825 1625 
L 2419 1625 
L 2419 4116 
z
M 2253 4666 
L 3047 4666 
L 3047 1625 
L 3713 1625 
L 3713 1100 
L 3047 1100 
L 3047 0 
L 2419 0 
L 2419 1100 
L 313 1100 
L 313 1709 
L 2253 4666 
z
" transform="scale(0.015625)"/>
       </defs>
       <use xlink:href="#DejaVuSans-34"/>
      </g>
     </g>
    </g>
    <g id="xtick_3">
     <g id="line2d_3">
      <g>
       <use xlink:href="#mbe0060d3ee" x="953.236364" y="512.64" style="stroke: #000000; stroke-width: 0.8"/>
      </g>
     </g>
     <g id="text_3">
      <!-- 6 -->
      <g transform="translate(946.237614 536.356562) scale(0.22 -0.22)">
       <defs>
        <path id="DejaVuSans-36" d="M 2113 2584 
Q 1688 2584 1439 2293 
Q 1191 2003 1191 1497 
Q 1191 994 1439 701 
Q 1688 409 2113 409 
Q 2538 409 2786 701 
Q 3034 994 3034 1497 
Q 3034 2003 2786 2293 
Q 2538 2584 2113 2584 
z
M 3366 4563 
L 3366 3988 
Q 3128 4100 2886 4159 
Q 2644 4219 2406 4219 
Q 1781 4219 1451 3797 
Q 1122 3375 1075 2522 
Q 1259 2794 1537 2939 
Q 1816 3084 2150 3084 
Q 2853 3084 3261 2657 
Q 3669 2231 3669 1497 
Q 3669 778 3244 343 
Q 2819 -91 2113 -91 
Q 1303 -91 875 529 
Q 447 1150 447 2328 
Q 447 3434 972 4092 
Q 1497 4750 2381 4750 
Q 2619 4750 2861 4703 
Q 3103 4656 3366 4563 
z
" transform="scale(0.015625)"/>
       </defs>
       <use xlink:href="#DejaVuSans-36"/>
      </g>
     </g>
    </g>
    <g id="xtick_4">
     <g id="line2d_4">
      <g>
       <use xlink:href="#mbe0060d3ee" x="1223.781818" y="512.64" style="stroke: #000000; stroke-width: 0.8"/>
      </g>
     </g>
     <g id="text_4">
      <!-- 8 -->
      <g transform="translate(1216.783068 536.356562) scale(0.22 -0.22)">
       <defs>
        <path id="DejaVuSans-38" d="M 2034 2216 
Q 1584 2216 1326 1975 
Q 1069 1734 1069 1313 
Q 1069 891 1326 650 
Q 1584 409 2034 409 
Q 2484 409 2743 651 
Q 3003 894 3003 1313 
Q 3003 1734 2745 1975 
Q 2488 2216 2034 2216 
z
M 1403 2484 
Q 997 2584 770 2862 
Q 544 3141 544 3541 
Q 544 4100 942 4425 
Q 1341 4750 2034 4750 
Q 2731 4750 3128 4425 
Q 3525 4100 3525 3541 
Q 3525 3141 3298 2862 
Q 3072 2584 2669 2484 
Q 3125 2378 3379 2068 
Q 3634 1759 3634 1313 
Q 3634 634 3220 271 
Q 2806 -91 2034 -91 
Q 1263 -91 848 271 
Q 434 634 434 1313 
Q 434 1759 690 2068 
Q 947 2378 1403 2484 
z
M 1172 3481 
Q 1172 3119 1398 2916 
Q 1625 2713 2034 2713 
Q 2441 2713 2670 2916 
Q 2900 3119 2900 3481 
Q 2900 3844 2670 4047 
Q 2441 4250 2034 4250 
Q 1625 4250 1398 4047 
Q 1172 3844 1172 3481 
z
" transform="scale(0.015625)"/>
       </defs>
       <use xlink:href="#DejaVuSans-38"/>
      </g>
     </g>
    </g>
    <g id="xtick_5">
     <g id="line2d_5">
      <g>
       <use xlink:href="#mbe0060d3ee" x="1494.327273" y="512.64" style="stroke: #000000; stroke-width: 0.8"/>
      </g>
     </g>
     <g id="text_5">
      <!-- 10 -->
      <g transform="translate(1480.329773 536.356562) scale(0.22 -0.22)">
       <defs>
        <path id="DejaVuSans-31" d="M 794 531 
L 1825 531 
L 1825 4091 
L 703 3866 
L 703 4441 
L 1819 4666 
L 2450 4666 
L 2450 531 
L 3481 531 
L 3481 0 
L 794 0 
L 794 531 
z
" transform="scale(0.015625)"/>
        <path id="DejaVuSans-30" d="M 2034 4250 
Q 1547 4250 1301 3770 
Q 1056 3291 1056 2328 
Q 1056 1369 1301 889 
Q 1547 409 2034 409 
Q 2525 409 2770 889 
Q 3016 1369 3016 2328 
Q 3016 3291 2770 3770 
Q 2525 4250 2034 4250 
z
M 2034 4750 
Q 2819 4750 3233 4129 
Q 3647 3509 3647 2328 
Q 3647 1150 3233 529 
Q 2819 -91 2034 -91 
Q 1250 -91 836 529 
Q 422 1150 422 2328 
Q 422 3509 836 4129 
Q 1250 4750 2034 4750 
z
" transform="scale(0.015625)"/>
       </defs>
       <use xlink:href="#DejaVuSans-31"/>
       <use xlink:href="#DejaVuSans-30" transform="translate(63.623047 0)"/>
      </g>
     </g>
    </g>
    <g id="text_6">
     <!-- Num_Experiments -->
     <g transform="translate(784.896719 561.648438) scale(0.22 -0.22)">
      <defs>
       <path id="DejaVuSans-4e" d="M 628 4666 
L 1478 4666 
L 3547 763 
L 3547 4666 
L 4159 4666 
L 4159 0 
L 3309 0 
L 1241 3903 
L 1241 0 
L 628 0 
L 628 4666 
z
" transform="scale(0.015625)"/>
       <path id="DejaVuSans-75" d="M 544 1381 
L 544 3500 
L 1119 3500 
L 1119 1403 
Q 1119 906 1312 657 
Q 1506 409 1894 409 
Q 2359 409 2629 706 
Q 2900 1003 2900 1516 
L 2900 3500 
L 3475 3500 
L 3475 0 
L 2900 0 
L 2900 538 
Q 2691 219 2414 64 
Q 2138 -91 1772 -91 
Q 1169 -91 856 284 
Q 544 659 544 1381 
z
M 1991 3584 
L 1991 3584 
z
" transform="scale(0.015625)"/>
       <path id="DejaVuSans-6d" d="M 3328 2828 
Q 3544 3216 3844 3400 
Q 4144 3584 4550 3584 
Q 5097 3584 5394 3201 
Q 5691 2819 5691 2113 
L 5691 0 
L 5113 0 
L 5113 2094 
Q 5113 2597 4934 2840 
Q 4756 3084 4391 3084 
Q 3944 3084 3684 2787 
Q 3425 2491 3425 1978 
L 3425 0 
L 2847 0 
L 2847 2094 
Q 2847 2600 2669 2842 
Q 2491 3084 2119 3084 
Q 1678 3084 1418 2786 
Q 1159 2488 1159 1978 
L 1159 0 
L 581 0 
L 581 3500 
L 1159 3500 
L 1159 2956 
Q 1356 3278 1631 3431 
Q 1906 3584 2284 3584 
Q 2666 3584 2933 3390 
Q 3200 3197 3328 2828 
z
" transform="scale(0.015625)"/>
       <path id="DejaVuSans-5f" d="M 3263 -1063 
L 3263 -1509 
L -63 -1509 
L -63 -1063 
L 3263 -1063 
z
" transform="scale(0.015625)"/>
       <path id="DejaVuSans-45" d="M 628 4666 
L 3578 4666 
L 3578 4134 
L 1259 4134 
L 1259 2753 
L 3481 2753 
L 3481 2222 
L 1259 2222 
L 1259 531 
L 3634 531 
L 3634 0 
L 628 0 
L 628 4666 
z
" transform="scale(0.015625)"/>
       <path id="DejaVuSans-78" d="M 3513 3500 
L 2247 1797 
L 3578 0 
L 2900 0 
L 1881 1375 
L 863 0 
L 184 0 
L 1544 1831 
L 300 3500 
L 978 3500 
L 1906 2253 
L 2834 3500 
L 3513 3500 
z
" transform="scale(0.015625)"/>
       <path id="DejaVuSans-70" d="M 1159 525 
L 1159 -1331 
L 581 -1331 
L 581 3500 
L 1159 3500 
L 1159 2969 
Q 1341 3281 1617 3432 
Q 1894 3584 2278 3584 
Q 2916 3584 3314 3078 
Q 3713 2572 3713 1747 
Q 3713 922 3314 415 
Q 2916 -91 2278 -91 
Q 1894 -91 1617 61 
Q 1341 213 1159 525 
z
M 3116 1747 
Q 3116 2381 2855 2742 
Q 2594 3103 2138 3103 
Q 1681 3103 1420 2742 
Q 1159 2381 1159 1747 
Q 1159 1113 1420 752 
Q 1681 391 2138 391 
Q 2594 391 2855 752 
Q 3116 1113 3116 1747 
z
" transform="scale(0.015625)"/>
       <path id="DejaVuSans-65" d="M 3597 1894 
L 3597 1613 
L 953 1613 
Q 991 1019 1311 708 
Q 1631 397 2203 397 
Q 2534 397 2845 478 
Q 3156 559 3463 722 
L 3463 178 
Q 3153 47 2828 -22 
Q 2503 -91 2169 -91 
Q 1331 -91 842 396 
Q 353 884 353 1716 
Q 353 2575 817 3079 
Q 1281 3584 2069 3584 
Q 2775 3584 3186 3129 
Q 3597 2675 3597 1894 
z
M 3022 2063 
Q 3016 2534 2758 2815 
Q 2500 3097 2075 3097 
Q 1594 3097 1305 2825 
Q 1016 2553 972 2059 
L 3022 2063 
z
" transform="scale(0.015625)"/>
       <path id="DejaVuSans-72" d="M 2631 2963 
Q 2534 3019 2420 3045 
Q 2306 3072 2169 3072 
Q 1681 3072 1420 2755 
Q 1159 2438 1159 1844 
L 1159 0 
L 581 0 
L 581 3500 
L 1159 3500 
L 1159 2956 
Q 1341 3275 1631 3429 
Q 1922 3584 2338 3584 
Q 2397 3584 2469 3576 
Q 2541 3569 2628 3553 
L 2631 2963 
z
" transform="scale(0.015625)"/>
       <path id="DejaVuSans-69" d="M 603 3500 
L 1178 3500 
L 1178 0 
L 603 0 
L 603 3500 
z
M 603 4863 
L 1178 4863 
L 1178 4134 
L 603 4134 
L 603 4863 
z
" transform="scale(0.015625)"/>
       <path id="DejaVuSans-6e" d="M 3513 2113 
L 3513 0 
L 2938 0 
L 2938 2094 
Q 2938 2591 2744 2837 
Q 2550 3084 2163 3084 
Q 1697 3084 1428 2787 
Q 1159 2491 1159 1978 
L 1159 0 
L 581 0 
L 581 3500 
L 1159 3500 
L 1159 2956 
Q 1366 3272 1645 3428 
Q 1925 3584 2291 3584 
Q 2894 3584 3203 3211 
Q 3513 2838 3513 2113 
z
" transform="scale(0.015625)"/>
       <path id="DejaVuSans-74" d="M 1172 4494 
L 1172 3500 
L 2356 3500 
L 2356 3053 
L 1172 3053 
L 1172 1153 
Q 1172 725 1289 603 
Q 1406 481 1766 481 
L 2356 481 
L 2356 0 
L 1766 0 
Q 1100 0 847 248 
Q 594 497 594 1153 
L 594 3053 
L 172 3053 
L 172 3500 
L 594 3500 
L 594 4494 
L 1172 4494 
z
" transform="scale(0.015625)"/>
       <path id="DejaVuSans-73" d="M 2834 3397 
L 2834 2853 
Q 2591 2978 2328 3040 
Q 2066 3103 1784 3103 
Q 1356 3103 1142 2972 
Q 928 2841 928 2578 
Q 928 2378 1081 2264 
Q 1234 2150 1697 2047 
L 1894 2003 
Q 2506 1872 2764 1633 
Q 3022 1394 3022 966 
Q 3022 478 2636 193 
Q 2250 -91 1575 -91 
Q 1294 -91 989 -36 
Q 684 19 347 128 
L 347 722 
Q 666 556 975 473 
Q 1284 391 1588 391 
Q 1994 391 2212 530 
Q 2431 669 2431 922 
Q 2431 1156 2273 1281 
Q 2116 1406 1581 1522 
L 1381 1569 
Q 847 1681 609 1914 
Q 372 2147 372 2553 
Q 372 3047 722 3315 
Q 1072 3584 1716 3584 
Q 2034 3584 2315 3537 
Q 2597 3491 2834 3397 
z
" transform="scale(0.015625)"/>
      </defs>
      <use xlink:href="#DejaVuSans-4e"/>
      <use xlink:href="#DejaVuSans-75" transform="translate(74.804688 0)"/>
      <use xlink:href="#DejaVuSans-6d" transform="translate(138.183594 0)"/>
      <use xlink:href="#DejaVuSans-5f" transform="translate(235.595703 0)"/>
      <use xlink:href="#DejaVuSans-45" transform="translate(285.595703 0)"/>
      <use xlink:href="#DejaVuSans-78" transform="translate(348.779297 0)"/>
      <use xlink:href="#DejaVuSans-70" transform="translate(407.958984 0)"/>
      <use xlink:href="#DejaVuSans-65" transform="translate(471.435547 0)"/>
      <use xlink:href="#DejaVuSans-72" transform="translate(532.958984 0)"/>
      <use xlink:href="#DejaVuSans-69" transform="translate(574.072266 0)"/>
      <use xlink:href="#DejaVuSans-6d" transform="translate(601.855469 0)"/>
      <use xlink:href="#DejaVuSans-65" transform="translate(699.267578 0)"/>
      <use xlink:href="#DejaVuSans-6e" transform="translate(760.791016 0)"/>
      <use xlink:href="#DejaVuSans-74" transform="translate(824.169922 0)"/>
      <use xlink:href="#DejaVuSans-73" transform="translate(863.378906 0)"/>
     </g>
    </g>
   </g>
   <g id="matplotlib.axis_2">
    <g id="ytick_1">
     <g id="line2d_6">
      <defs>
       <path id="m10ab467743" d="M 0 0 
L -3.5 0 
" style="stroke: #000000; stroke-width: 0.8"/>
      </defs>
      <g>
       <use xlink:href="#m10ab467743" x="216" y="498.934733" style="stroke: #000000; stroke-width: 0.8"/>
      </g>
     </g>
     <g id="text_7">
      <!-- −3.0 -->
      <g transform="translate(155.577812 507.293014) scale(0.22 -0.22)">
       <defs>
        <path id="DejaVuSans-2212" d="M 678 2272 
L 4684 2272 
L 4684 1741 
L 678 1741 
L 678 2272 
z
" transform="scale(0.015625)"/>
        <path id="DejaVuSans-33" d="M 2597 2516 
Q 3050 2419 3304 2112 
Q 3559 1806 3559 1356 
Q 3559 666 3084 287 
Q 2609 -91 1734 -91 
Q 1441 -91 1130 -33 
Q 819 25 488 141 
L 488 750 
Q 750 597 1062 519 
Q 1375 441 1716 441 
Q 2309 441 2620 675 
Q 2931 909 2931 1356 
Q 2931 1769 2642 2001 
Q 2353 2234 1838 2234 
L 1294 2234 
L 1294 2753 
L 1863 2753 
Q 2328 2753 2575 2939 
Q 2822 3125 2822 3475 
Q 2822 3834 2567 4026 
Q 2313 4219 1838 4219 
Q 1578 4219 1281 4162 
Q 984 4106 628 3988 
L 628 4550 
Q 988 4650 1302 4700 
Q 1616 4750 1894 4750 
Q 2613 4750 3031 4423 
Q 3450 4097 3450 3541 
Q 3450 3153 3228 2886 
Q 3006 2619 2597 2516 
z
" transform="scale(0.015625)"/>
        <path id="DejaVuSans-2e" d="M 684 794 
L 1344 794 
L 1344 0 
L 684 0 
L 684 794 
z
" transform="scale(0.015625)"/>
       </defs>
       <use xlink:href="#DejaVuSans-2212"/>
       <use xlink:href="#DejaVuSans-33" transform="translate(83.789062 0)"/>
       <use xlink:href="#DejaVuSans-2e" transform="translate(147.412109 0)"/>
       <use xlink:href="#DejaVuSans-30" transform="translate(179.199219 0)"/>
      </g>
     </g>
    </g>
    <g id="ytick_2">
     <g id="line2d_7">
      <g>
       <use xlink:href="#m10ab467743" x="216" y="428.452573" style="stroke: #000000; stroke-width: 0.8"/>
      </g>
     </g>
     <g id="text_8">
      <!-- −2.5 -->
      <g transform="translate(155.577812 436.810855) scale(0.22 -0.22)">
       <defs>
        <path id="DejaVuSans-35" d="M 691 4666 
L 3169 4666 
L 3169 4134 
L 1269 4134 
L 1269 2991 
Q 1406 3038 1543 3061 
Q 1681 3084 1819 3084 
Q 2600 3084 3056 2656 
Q 3513 2228 3513 1497 
Q 3513 744 3044 326 
Q 2575 -91 1722 -91 
Q 1428 -91 1123 -41 
Q 819 9 494 109 
L 494 744 
Q 775 591 1075 516 
Q 1375 441 1709 441 
Q 2250 441 2565 725 
Q 2881 1009 2881 1497 
Q 2881 1984 2565 2268 
Q 2250 2553 1709 2553 
Q 1456 2553 1204 2497 
Q 953 2441 691 2322 
L 691 4666 
z
" transform="scale(0.015625)"/>
       </defs>
       <use xlink:href="#DejaVuSans-2212"/>
       <use xlink:href="#DejaVuSans-32" transform="translate(83.789062 0)"/>
       <use xlink:href="#DejaVuSans-2e" transform="translate(147.412109 0)"/>
       <use xlink:href="#DejaVuSans-35" transform="translate(179.199219 0)"/>
      </g>
     </g>
    </g>
    <g id="ytick_3">
     <g id="line2d_8">
      <g>
       <use xlink:href="#m10ab467743" x="216" y="357.970413" style="stroke: #000000; stroke-width: 0.8"/>
      </g>
     </g>
     <g id="text_9">
      <!-- −2.0 -->
      <g transform="translate(155.577812 366.328695) scale(0.22 -0.22)">
       <use xlink:href="#DejaVuSans-2212"/>
       <use xlink:href="#DejaVuSans-32" transform="translate(83.789062 0)"/>
       <use xlink:href="#DejaVuSans-2e" transform="translate(147.412109 0)"/>
       <use xlink:href="#DejaVuSans-30" transform="translate(179.199219 0)"/>
      </g>
     </g>
    </g>
    <g id="ytick_4">
     <g id="line2d_9">
      <g>
       <use xlink:href="#m10ab467743" x="216" y="287.488253" style="stroke: #000000; stroke-width: 0.8"/>
      </g>
     </g>
     <g id="text_10">
      <!-- −1.5 -->
      <g transform="translate(155.577812 295.846535) scale(0.22 -0.22)">
       <use xlink:href="#DejaVuSans-2212"/>
       <use xlink:href="#DejaVuSans-31" transform="translate(83.789062 0)"/>
       <use xlink:href="#DejaVuSans-2e" transform="translate(147.412109 0)"/>
       <use xlink:href="#DejaVuSans-35" transform="translate(179.199219 0)"/>
      </g>
     </g>
    </g>
    <g id="ytick_5">
     <g id="line2d_10">
      <g>
       <use xlink:href="#m10ab467743" x="216" y="217.006093" style="stroke: #000000; stroke-width: 0.8"/>
      </g>
     </g>
     <g id="text_11">
      <!-- −1.0 -->
      <g transform="translate(155.577812 225.364375) scale(0.22 -0.22)">
       <use xlink:href="#DejaVuSans-2212"/>
       <use xlink:href="#DejaVuSans-31" transform="translate(83.789062 0)"/>
       <use xlink:href="#DejaVuSans-2e" transform="translate(147.412109 0)"/>
       <use xlink:href="#DejaVuSans-30" transform="translate(179.199219 0)"/>
      </g>
     </g>
    </g>
    <g id="ytick_6">
     <g id="line2d_11">
      <g>
       <use xlink:href="#m10ab467743" x="216" y="146.523934" style="stroke: #000000; stroke-width: 0.8"/>
      </g>
     </g>
     <g id="text_12">
      <!-- −0.5 -->
      <g transform="translate(155.577812 154.882215) scale(0.22 -0.22)">
       <use xlink:href="#DejaVuSans-2212"/>
       <use xlink:href="#DejaVuSans-30" transform="translate(83.789062 0)"/>
       <use xlink:href="#DejaVuSans-2e" transform="translate(147.412109 0)"/>
       <use xlink:href="#DejaVuSans-35" transform="translate(179.199219 0)"/>
      </g>
     </g>
    </g>
    <g id="ytick_7">
     <g id="line2d_12">
      <g>
       <use xlink:href="#m10ab467743" x="216" y="76.041774" style="stroke: #000000; stroke-width: 0.8"/>
      </g>
     </g>
     <g id="text_13">
      <!-- 0.0 -->
      <g transform="translate(174.013125 84.400055) scale(0.22 -0.22)">
       <use xlink:href="#DejaVuSans-30"/>
       <use xlink:href="#DejaVuSans-2e" transform="translate(63.623047 0)"/>
       <use xlink:href="#DejaVuSans-30" transform="translate(95.410156 0)"/>
      </g>
     </g>
    </g>
    <g id="text_14">
     <!-- Target_CumBest -->
     <g transform="translate(146.390625 380.143281) rotate(-90) scale(0.22 -0.22)">
      <defs>
       <path id="DejaVuSans-54" d="M -19 4666 
L 3928 4666 
L 3928 4134 
L 2272 4134 
L 2272 0 
L 1638 0 
L 1638 4134 
L -19 4134 
L -19 4666 
z
" transform="scale(0.015625)"/>
       <path id="DejaVuSans-61" d="M 2194 1759 
Q 1497 1759 1228 1600 
Q 959 1441 959 1056 
Q 959 750 1161 570 
Q 1363 391 1709 391 
Q 2188 391 2477 730 
Q 2766 1069 2766 1631 
L 2766 1759 
L 2194 1759 
z
M 3341 1997 
L 3341 0 
L 2766 0 
L 2766 531 
Q 2569 213 2275 61 
Q 1981 -91 1556 -91 
Q 1019 -91 701 211 
Q 384 513 384 1019 
Q 384 1609 779 1909 
Q 1175 2209 1959 2209 
L 2766 2209 
L 2766 2266 
Q 2766 2663 2505 2880 
Q 2244 3097 1772 3097 
Q 1472 3097 1187 3025 
Q 903 2953 641 2809 
L 641 3341 
Q 956 3463 1253 3523 
Q 1550 3584 1831 3584 
Q 2591 3584 2966 3190 
Q 3341 2797 3341 1997 
z
" transform="scale(0.015625)"/>
       <path id="DejaVuSans-67" d="M 2906 1791 
Q 2906 2416 2648 2759 
Q 2391 3103 1925 3103 
Q 1463 3103 1205 2759 
Q 947 2416 947 1791 
Q 947 1169 1205 825 
Q 1463 481 1925 481 
Q 2391 481 2648 825 
Q 2906 1169 2906 1791 
z
M 3481 434 
Q 3481 -459 3084 -895 
Q 2688 -1331 1869 -1331 
Q 1566 -1331 1297 -1286 
Q 1028 -1241 775 -1147 
L 775 -588 
Q 1028 -725 1275 -790 
Q 1522 -856 1778 -856 
Q 2344 -856 2625 -561 
Q 2906 -266 2906 331 
L 2906 616 
Q 2728 306 2450 153 
Q 2172 0 1784 0 
Q 1141 0 747 490 
Q 353 981 353 1791 
Q 353 2603 747 3093 
Q 1141 3584 1784 3584 
Q 2172 3584 2450 3431 
Q 2728 3278 2906 2969 
L 2906 3500 
L 3481 3500 
L 3481 434 
z
" transform="scale(0.015625)"/>
       <path id="DejaVuSans-43" d="M 4122 4306 
L 4122 3641 
Q 3803 3938 3442 4084 
Q 3081 4231 2675 4231 
Q 1875 4231 1450 3742 
Q 1025 3253 1025 2328 
Q 1025 1406 1450 917 
Q 1875 428 2675 428 
Q 3081 428 3442 575 
Q 3803 722 4122 1019 
L 4122 359 
Q 3791 134 3420 21 
Q 3050 -91 2638 -91 
Q 1578 -91 968 557 
Q 359 1206 359 2328 
Q 359 3453 968 4101 
Q 1578 4750 2638 4750 
Q 3056 4750 3426 4639 
Q 3797 4528 4122 4306 
z
" transform="scale(0.015625)"/>
       <path id="DejaVuSans-42" d="M 1259 2228 
L 1259 519 
L 2272 519 
Q 2781 519 3026 730 
Q 3272 941 3272 1375 
Q 3272 1813 3026 2020 
Q 2781 2228 2272 2228 
L 1259 2228 
z
M 1259 4147 
L 1259 2741 
L 2194 2741 
Q 2656 2741 2882 2914 
Q 3109 3088 3109 3444 
Q 3109 3797 2882 3972 
Q 2656 4147 2194 4147 
L 1259 4147 
z
M 628 4666 
L 2241 4666 
Q 2963 4666 3353 4366 
Q 3744 4066 3744 3513 
Q 3744 3084 3544 2831 
Q 3344 2578 2956 2516 
Q 3422 2416 3680 2098 
Q 3938 1781 3938 1306 
Q 3938 681 3513 340 
Q 3088 0 2303 0 
L 628 0 
L 628 4666 
z
" transform="scale(0.015625)"/>
      </defs>
      <use xlink:href="#DejaVuSans-54"/>
      <use xlink:href="#DejaVuSans-61" transform="translate(44.583984 0)"/>
      <use xlink:href="#DejaVuSans-72" transform="translate(105.863281 0)"/>
      <use xlink:href="#DejaVuSans-67" transform="translate(145.226562 0)"/>
      <use xlink:href="#DejaVuSans-65" transform="translate(208.703125 0)"/>
      <use xlink:href="#DejaVuSans-74" transform="translate(270.226562 0)"/>
      <use xlink:href="#DejaVuSans-5f" transform="translate(309.435547 0)"/>
      <use xlink:href="#DejaVuSans-43" transform="translate(359.435547 0)"/>
      <use xlink:href="#DejaVuSans-75" transform="translate(429.259766 0)"/>
      <use xlink:href="#DejaVuSans-6d" transform="translate(492.638672 0)"/>
      <use xlink:href="#DejaVuSans-42" transform="translate(590.050781 0)"/>
      <use xlink:href="#DejaVuSans-65" transform="translate(658.654297 0)"/>
      <use xlink:href="#DejaVuSans-73" transform="translate(720.177734 0)"/>
      <use xlink:href="#DejaVuSans-74" transform="translate(772.277344 0)"/>
     </g>
    </g>
   </g>
   <g id="line2d_13">
    <path d="M 276.872727 170.721272 
L 412.145455 180.615383 
L 547.418182 205.251495 
L 682.690909 222.841004 
L 817.963636 233.23298 
L 953.236364 248.852953 
L 1088.509091 265.763772 
L 1223.781818 288.044473 
L 1359.054545 301.592432 
L 1494.327273 326.805901 
" clip-path="url(#p621445f2c0)" style="fill: none; stroke: #1f77b4; stroke-width: 1.5; stroke-linecap: square"/>
    <defs>
     <path id="mbfad6cb22d" d="M 0 5 
C 1.326016 5 2.597899 4.473168 3.535534 3.535534 
C 4.473168 2.597899 5 1.326016 5 0 
C 5 -1.326016 4.473168 -2.597899 3.535534 -3.535534 
C 2.597899 -4.473168 1.326016 -5 0 -5 
C -1.326016 -5 -2.597899 -4.473168 -3.535534 -3.535534 
C -4.473168 -2.597899 -5 -1.326016 -5 0 
C -5 1.326016 -4.473168 2.597899 -3.535534 3.535534 
C -2.597899 4.473168 -1.326016 5 0 5 
z
" style="stroke: #ffffff; stroke-width: 0.75"/>
    </defs>
    <g clip-path="url(#p621445f2c0)">
     <use xlink:href="#mbfad6cb22d" x="276.872727" y="170.721272" style="fill: #1f77b4; stroke: #ffffff; stroke-width: 0.75"/>
     <use xlink:href="#mbfad6cb22d" x="412.145455" y="180.615383" style="fill: #1f77b4; stroke: #ffffff; stroke-width: 0.75"/>
     <use xlink:href="#mbfad6cb22d" x="547.418182" y="205.251495" style="fill: #1f77b4; stroke: #ffffff; stroke-width: 0.75"/>
     <use xlink:href="#mbfad6cb22d" x="682.690909" y="222.841004" style="fill: #1f77b4; stroke: #ffffff; stroke-width: 0.75"/>
     <use xlink:href="#mbfad6cb22d" x="817.963636" y="233.23298" style="fill: #1f77b4; stroke: #ffffff; stroke-width: 0.75"/>
     <use xlink:href="#mbfad6cb22d" x="953.236364" y="248.852953" style="fill: #1f77b4; stroke: #ffffff; stroke-width: 0.75"/>
     <use xlink:href="#mbfad6cb22d" x="1088.509091" y="265.763772" style="fill: #1f77b4; stroke: #ffffff; stroke-width: 0.75"/>
     <use xlink:href="#mbfad6cb22d" x="1223.781818" y="288.044473" style="fill: #1f77b4; stroke: #ffffff; stroke-width: 0.75"/>
     <use xlink:href="#mbfad6cb22d" x="1359.054545" y="301.592432" style="fill: #1f77b4; stroke: #ffffff; stroke-width: 0.75"/>
     <use xlink:href="#mbfad6cb22d" x="1494.327273" y="326.805901" style="fill: #1f77b4; stroke: #ffffff; stroke-width: 0.75"/>
    </g>
   </g>
   <g id="line2d_14">
    <path d="M 276.872727 99.671683 
L 412.145455 148.918322 
L 547.418182 164.456646 
L 682.690909 197.452615 
L 817.963636 216.921626 
L 953.236364 234.144114 
L 1088.509091 252.546187 
L 1223.781818 277.323902 
L 1359.054545 293.536034 
L 1494.327273 315.025272 
" clip-path="url(#p621445f2c0)" style="fill: none; stroke: #ff7f0e; stroke-width: 1.5; stroke-linecap: square"/>
    <defs>
     <path id="m40ced07d36" d="M 0 5 
C 1.326016 5 2.597899 4.473168 3.535534 3.535534 
C 4.473168 2.597899 5 1.326016 5 0 
C 5 -1.326016 4.473168 -2.597899 3.535534 -3.535534 
C 2.597899 -4.473168 1.326016 -5 0 -5 
C -1.326016 -5 -2.597899 -4.473168 -3.535534 -3.535534 
C -4.473168 -2.597899 -5 -1.326016 -5 0 
C -5 1.326016 -4.473168 2.597899 -3.535534 3.535534 
C -2.597899 4.473168 -1.326016 5 0 5 
z
" style="stroke: #ffffff; stroke-width: 0.75"/>
    </defs>
    <g clip-path="url(#p621445f2c0)">
     <use xlink:href="#m40ced07d36" x="276.872727" y="99.671683" style="fill: #ff7f0e; stroke: #ffffff; stroke-width: 0.75"/>
     <use xlink:href="#m40ced07d36" x="412.145455" y="148.918322" style="fill: #ff7f0e; stroke: #ffffff; stroke-width: 0.75"/>
     <use xlink:href="#m40ced07d36" x="547.418182" y="164.456646" style="fill: #ff7f0e; stroke: #ffffff; stroke-width: 0.75"/>
     <use xlink:href="#m40ced07d36" x="682.690909" y="197.452615" style="fill: #ff7f0e; stroke: #ffffff; stroke-width: 0.75"/>
     <use xlink:href="#m40ced07d36" x="817.963636" y="216.921626" style="fill: #ff7f0e; stroke: #ffffff; stroke-width: 0.75"/>
     <use xlink:href="#m40ced07d36" x="953.236364" y="234.144114" style="fill: #ff7f0e; stroke: #ffffff; stroke-width: 0.75"/>
     <use xlink:href="#m40ced07d36" x="1088.509091" y="252.546187" style="fill: #ff7f0e; stroke: #ffffff; stroke-width: 0.75"/>
     <use xlink:href="#m40ced07d36" x="1223.781818" y="277.323902" style="fill: #ff7f0e; stroke: #ffffff; stroke-width: 0.75"/>
     <use xlink:href="#m40ced07d36" x="1359.054545" y="293.536034" style="fill: #ff7f0e; stroke: #ffffff; stroke-width: 0.75"/>
     <use xlink:href="#m40ced07d36" x="1494.327273" y="315.025272" style="fill: #ff7f0e; stroke: #ffffff; stroke-width: 0.75"/>
    </g>
   </g>
   <g id="line2d_15">
    <path d="M 276.872727 172.559185 
L 412.145455 193.856109 
L 547.418182 213.502354 
L 682.690909 239.142806 
L 817.963636 257.781195 
L 953.236364 270.289033 
L 1088.509091 297.457139 
L 1223.781818 315.538315 
L 1359.054545 334.243488 
L 1494.327273 339.613546 
" clip-path="url(#p621445f2c0)" style="fill: none; stroke: #2ca02c; stroke-width: 1.5; stroke-linecap: square"/>
    <defs>
     <path id="mf0824095c1" d="M 0 5 
C 1.326016 5 2.597899 4.473168 3.535534 3.535534 
C 4.473168 2.597899 5 1.326016 5 0 
C 5 -1.326016 4.473168 -2.597899 3.535534 -3.535534 
C 2.597899 -4.473168 1.326016 -5 0 -5 
C -1.326016 -5 -2.597899 -4.473168 -3.535534 -3.535534 
C -4.473168 -2.597899 -5 -1.326016 -5 0 
C -5 1.326016 -4.473168 2.597899 -3.535534 3.535534 
C -2.597899 4.473168 -1.326016 5 0 5 
z
" style="stroke: #ffffff; stroke-width: 0.75"/>
    </defs>
    <g clip-path="url(#p621445f2c0)">
     <use xlink:href="#mf0824095c1" x="276.872727" y="172.559185" style="fill: #2ca02c; stroke: #ffffff; stroke-width: 0.75"/>
     <use xlink:href="#mf0824095c1" x="412.145455" y="193.856109" style="fill: #2ca02c; stroke: #ffffff; stroke-width: 0.75"/>
     <use xlink:href="#mf0824095c1" x="547.418182" y="213.502354" style="fill: #2ca02c; stroke: #ffffff; stroke-width: 0.75"/>
     <use xlink:href="#mf0824095c1" x="682.690909" y="239.142806" style="fill: #2ca02c; stroke: #ffffff; stroke-width: 0.75"/>
     <use xlink:href="#mf0824095c1" x="817.963636" y="257.781195" style="fill: #2ca02c; stroke: #ffffff; stroke-width: 0.75"/>
     <use xlink:href="#mf0824095c1" x="953.236364" y="270.289033" style="fill: #2ca02c; stroke: #ffffff; stroke-width: 0.75"/>
     <use xlink:href="#mf0824095c1" x="1088.509091" y="297.457139" style="fill: #2ca02c; stroke: #ffffff; stroke-width: 0.75"/>
     <use xlink:href="#mf0824095c1" x="1223.781818" y="315.538315" style="fill: #2ca02c; stroke: #ffffff; stroke-width: 0.75"/>
     <use xlink:href="#mf0824095c1" x="1359.054545" y="334.243488" style="fill: #2ca02c; stroke: #ffffff; stroke-width: 0.75"/>
     <use xlink:href="#mf0824095c1" x="1494.327273" y="339.613546" style="fill: #2ca02c; stroke: #ffffff; stroke-width: 0.75"/>
    </g>
   </g>
   <g id="line2d_16">
    <path d="M 276.872727 159.113634 
L 412.145455 201.310853 
L 547.418182 243.158409 
L 682.690909 296.61094 
L 817.963636 316.779274 
L 953.236364 335.999572 
L 1088.509091 354.84268 
L 1223.781818 380.807956 
L 1359.054545 383.376163 
L 1494.327273 403.736608 
" clip-path="url(#p621445f2c0)" style="fill: none; stroke: #d62728; stroke-width: 1.5; stroke-linecap: square"/>
    <defs>
     <path id="m86555e7141" d="M 0 5 
C 1.326016 5 2.597899 4.473168 3.535534 3.535534 
C 4.473168 2.597899 5 1.326016 5 0 
C 5 -1.326016 4.473168 -2.597899 3.535534 -3.535534 
C 2.597899 -4.473168 1.326016 -5 0 -5 
C -1.326016 -5 -2.597899 -4.473168 -3.535534 -3.535534 
C -4.473168 -2.597899 -5 -1.326016 -5 0 
C -5 1.326016 -4.473168 2.597899 -3.535534 3.535534 
C -2.597899 4.473168 -1.326016 5 0 5 
z
" style="stroke: #ffffff; stroke-width: 0.75"/>
    </defs>
    <g clip-path="url(#p621445f2c0)">
     <use xlink:href="#m86555e7141" x="276.872727" y="159.113634" style="fill: #d62728; stroke: #ffffff; stroke-width: 0.75"/>
     <use xlink:href="#m86555e7141" x="412.145455" y="201.310853" style="fill: #d62728; stroke: #ffffff; stroke-width: 0.75"/>
     <use xlink:href="#m86555e7141" x="547.418182" y="243.158409" style="fill: #d62728; stroke: #ffffff; stroke-width: 0.75"/>
     <use xlink:href="#m86555e7141" x="682.690909" y="296.61094" style="fill: #d62728; stroke: #ffffff; stroke-width: 0.75"/>
     <use xlink:href="#m86555e7141" x="817.963636" y="316.779274" style="fill: #d62728; stroke: #ffffff; stroke-width: 0.75"/>
     <use xlink:href="#m86555e7141" x="953.236364" y="335.999572" style="fill: #d62728; stroke: #ffffff; stroke-width: 0.75"/>
     <use xlink:href="#m86555e7141" x="1088.509091" y="354.84268" style="fill: #d62728; stroke: #ffffff; stroke-width: 0.75"/>
     <use xlink:href="#m86555e7141" x="1223.781818" y="380.807956" style="fill: #d62728; stroke: #ffffff; stroke-width: 0.75"/>
     <use xlink:href="#m86555e7141" x="1359.054545" y="383.376163" style="fill: #d62728; stroke: #ffffff; stroke-width: 0.75"/>
     <use xlink:href="#m86555e7141" x="1494.327273" y="403.736608" style="fill: #d62728; stroke: #ffffff; stroke-width: 0.75"/>
    </g>
   </g>
   <g id="line2d_17">
    <path d="M 276.872727 261.863999 
L 412.145455 324.951211 
L 547.418182 350.397807 
L 682.690909 385.095347 
L 817.963636 409.256447 
L 953.236364 422.795937 
L 1088.509091 432.742931 
L 1223.781818 446.677632 
L 1359.054545 450.03133 
L 1494.327273 454.943288 
" clip-path="url(#p621445f2c0)" style="fill: none; stroke: #9467bd; stroke-width: 1.5; stroke-linecap: square"/>
    <defs>
     <path id="mea34b3b539" d="M 0 5 
C 1.326016 5 2.597899 4.473168 3.535534 3.535534 
C 4.473168 2.597899 5 1.326016 5 0 
C 5 -1.326016 4.473168 -2.597899 3.535534 -3.535534 
C 2.597899 -4.473168 1.326016 -5 0 -5 
C -1.326016 -5 -2.597899 -4.473168 -3.535534 -3.535534 
C -4.473168 -2.597899 -5 -1.326016 -5 0 
C -5 1.326016 -4.473168 2.597899 -3.535534 3.535534 
C -2.597899 4.473168 -1.326016 5 0 5 
z
" style="stroke: #ffffff; stroke-width: 0.75"/>
    </defs>
    <g clip-path="url(#p621445f2c0)">
     <use xlink:href="#mea34b3b539" x="276.872727" y="261.863999" style="fill: #9467bd; stroke: #ffffff; stroke-width: 0.75"/>
     <use xlink:href="#mea34b3b539" x="412.145455" y="324.951211" style="fill: #9467bd; stroke: #ffffff; stroke-width: 0.75"/>
     <use xlink:href="#mea34b3b539" x="547.418182" y="350.397807" style="fill: #9467bd; stroke: #ffffff; stroke-width: 0.75"/>
     <use xlink:href="#mea34b3b539" x="682.690909" y="385.095347" style="fill: #9467bd; stroke: #ffffff; stroke-width: 0.75"/>
     <use xlink:href="#mea34b3b539" x="817.963636" y="409.256447" style="fill: #9467bd; stroke: #ffffff; stroke-width: 0.75"/>
     <use xlink:href="#mea34b3b539" x="953.236364" y="422.795937" style="fill: #9467bd; stroke: #ffffff; stroke-width: 0.75"/>
     <use xlink:href="#mea34b3b539" x="1088.509091" y="432.742931" style="fill: #9467bd; stroke: #ffffff; stroke-width: 0.75"/>
     <use xlink:href="#mea34b3b539" x="1223.781818" y="446.677632" style="fill: #9467bd; stroke: #ffffff; stroke-width: 0.75"/>
     <use xlink:href="#mea34b3b539" x="1359.054545" y="450.03133" style="fill: #9467bd; stroke: #ffffff; stroke-width: 0.75"/>
     <use xlink:href="#mea34b3b539" x="1494.327273" y="454.943288" style="fill: #9467bd; stroke: #ffffff; stroke-width: 0.75"/>
    </g>
   </g>
   <g id="line2d_18">
    <path d="M 276.872727 296.84149 
L 412.145455 337.694585 
L 547.418182 373.260288 
L 682.690909 412.608906 
L 817.963636 434.081579 
L 953.236364 447.15967 
L 1088.509091 461.020137 
L 1223.781818 465.115733 
L 1359.054545 473.39637 
L 1494.327273 473.791144 
" clip-path="url(#p621445f2c0)" style="fill: none; stroke: #8c564b; stroke-width: 1.5; stroke-linecap: square"/>
    <defs>
     <path id="m266861f85f" d="M 0 5 
C 1.326016 5 2.597899 4.473168 3.535534 3.535534 
C 4.473168 2.597899 5 1.326016 5 0 
C 5 -1.326016 4.473168 -2.597899 3.535534 -3.535534 
C 2.597899 -4.473168 1.326016 -5 0 -5 
C -1.326016 -5 -2.597899 -4.473168 -3.535534 -3.535534 
C -4.473168 -2.597899 -5 -1.326016 -5 0 
C -5 1.326016 -4.473168 2.597899 -3.535534 3.535534 
C -2.597899 4.473168 -1.326016 5 0 5 
z
" style="stroke: #ffffff; stroke-width: 0.75"/>
    </defs>
    <g clip-path="url(#p621445f2c0)">
     <use xlink:href="#m266861f85f" x="276.872727" y="296.84149" style="fill: #8c564b; stroke: #ffffff; stroke-width: 0.75"/>
     <use xlink:href="#m266861f85f" x="412.145455" y="337.694585" style="fill: #8c564b; stroke: #ffffff; stroke-width: 0.75"/>
     <use xlink:href="#m266861f85f" x="547.418182" y="373.260288" style="fill: #8c564b; stroke: #ffffff; stroke-width: 0.75"/>
     <use xlink:href="#m266861f85f" x="682.690909" y="412.608906" style="fill: #8c564b; stroke: #ffffff; stroke-width: 0.75"/>
     <use xlink:href="#m266861f85f" x="817.963636" y="434.081579" style="fill: #8c564b; stroke: #ffffff; stroke-width: 0.75"/>
     <use xlink:href="#m266861f85f" x="953.236364" y="447.15967" style="fill: #8c564b; stroke: #ffffff; stroke-width: 0.75"/>
     <use xlink:href="#m266861f85f" x="1088.509091" y="461.020137" style="fill: #8c564b; stroke: #ffffff; stroke-width: 0.75"/>
     <use xlink:href="#m266861f85f" x="1223.781818" y="465.115733" style="fill: #8c564b; stroke: #ffffff; stroke-width: 0.75"/>
     <use xlink:href="#m266861f85f" x="1359.054545" y="473.39637" style="fill: #8c564b; stroke: #ffffff; stroke-width: 0.75"/>
     <use xlink:href="#m266861f85f" x="1494.327273" y="473.791144" style="fill: #8c564b; stroke: #ffffff; stroke-width: 0.75"/>
    </g>
   </g>
   <g id="line2d_19"/>
   <g id="line2d_20"/>
   <g id="line2d_21"/>
   <g id="line2d_22"/>
   <g id="line2d_23"/>
   <g id="line2d_24"/>
   <g id="patch_3">
    <path d="M 216 512.64 
L 216 69.12 
" style="fill: none; stroke: #000000; stroke-width: 0.8; stroke-linejoin: miter; stroke-linecap: square"/>
   </g>
   <g id="patch_4">
    <path d="M 1555.2 512.64 
L 1555.2 69.12 
" style="fill: none; stroke: #000000; stroke-width: 0.8; stroke-linejoin: miter; stroke-linecap: square"/>
   </g>
   <g id="patch_5">
    <path d="M 216 512.64 
L 1555.2 512.64 
" style="fill: none; stroke: #000000; stroke-width: 0.8; stroke-linejoin: miter; stroke-linecap: square"/>
   </g>
   <g id="patch_6">
    <path d="M 216 69.12 
L 1555.2 69.12 
" style="fill: none; stroke: #000000; stroke-width: 0.8; stroke-linejoin: miter; stroke-linecap: square"/>
   </g>
   <g id="legend_1">
    <g id="patch_7">
     <path d="M 1378.653438 261.163125 
L 1548.2 261.163125 
Q 1550.2 261.163125 1550.2 259.163125 
L 1550.2 76.12 
Q 1550.2 74.12 1548.2 74.12 
L 1378.653438 74.12 
Q 1376.653438 74.12 1376.653438 76.12 
L 1376.653438 259.163125 
Q 1376.653438 261.163125 1378.653438 261.163125 
z
" style="fill: #ffffff; opacity: 0.3; stroke: #cccccc; stroke-linejoin: miter"/>
    </g>
    <g id="text_15">
     <!-- % of data used -->
     <g transform="translate(1380.653438 94.836563) scale(0.22 -0.22)">
      <defs>
       <path id="DejaVuSans-25" d="M 4653 2053 
Q 4381 2053 4226 1822 
Q 4072 1591 4072 1178 
Q 4072 772 4226 539 
Q 4381 306 4653 306 
Q 4919 306 5073 539 
Q 5228 772 5228 1178 
Q 5228 1588 5073 1820 
Q 4919 2053 4653 2053 
z
M 4653 2450 
Q 5147 2450 5437 2106 
Q 5728 1763 5728 1178 
Q 5728 594 5436 251 
Q 5144 -91 4653 -91 
Q 4153 -91 3862 251 
Q 3572 594 3572 1178 
Q 3572 1766 3864 2108 
Q 4156 2450 4653 2450 
z
M 1428 4353 
Q 1159 4353 1004 4120 
Q 850 3888 850 3481 
Q 850 3069 1003 2837 
Q 1156 2606 1428 2606 
Q 1700 2606 1854 2837 
Q 2009 3069 2009 3481 
Q 2009 3884 1853 4118 
Q 1697 4353 1428 4353 
z
M 4250 4750 
L 4750 4750 
L 1831 -91 
L 1331 -91 
L 4250 4750 
z
M 1428 4750 
Q 1922 4750 2215 4408 
Q 2509 4066 2509 3481 
Q 2509 2891 2217 2550 
Q 1925 2209 1428 2209 
Q 931 2209 642 2551 
Q 353 2894 353 3481 
Q 353 4063 643 4406 
Q 934 4750 1428 4750 
z
" transform="scale(0.015625)"/>
       <path id="DejaVuSans-20" transform="scale(0.015625)"/>
       <path id="DejaVuSans-6f" d="M 1959 3097 
Q 1497 3097 1228 2736 
Q 959 2375 959 1747 
Q 959 1119 1226 758 
Q 1494 397 1959 397 
Q 2419 397 2687 759 
Q 2956 1122 2956 1747 
Q 2956 2369 2687 2733 
Q 2419 3097 1959 3097 
z
M 1959 3584 
Q 2709 3584 3137 3096 
Q 3566 2609 3566 1747 
Q 3566 888 3137 398 
Q 2709 -91 1959 -91 
Q 1206 -91 779 398 
Q 353 888 353 1747 
Q 353 2609 779 3096 
Q 1206 3584 1959 3584 
z
" transform="scale(0.015625)"/>
       <path id="DejaVuSans-66" d="M 2375 4863 
L 2375 4384 
L 1825 4384 
Q 1516 4384 1395 4259 
Q 1275 4134 1275 3809 
L 1275 3500 
L 2222 3500 
L 2222 3053 
L 1275 3053 
L 1275 0 
L 697 0 
L 697 3053 
L 147 3053 
L 147 3500 
L 697 3500 
L 697 3744 
Q 697 4328 969 4595 
Q 1241 4863 1831 4863 
L 2375 4863 
z
" transform="scale(0.015625)"/>
       <path id="DejaVuSans-64" d="M 2906 2969 
L 2906 4863 
L 3481 4863 
L 3481 0 
L 2906 0 
L 2906 525 
Q 2725 213 2448 61 
Q 2172 -91 1784 -91 
Q 1150 -91 751 415 
Q 353 922 353 1747 
Q 353 2572 751 3078 
Q 1150 3584 1784 3584 
Q 2172 3584 2448 3432 
Q 2725 3281 2906 2969 
z
M 947 1747 
Q 947 1113 1208 752 
Q 1469 391 1925 391 
Q 2381 391 2643 752 
Q 2906 1113 2906 1747 
Q 2906 2381 2643 2742 
Q 2381 3103 1925 3103 
Q 1469 3103 1208 2742 
Q 947 2381 947 1747 
z
" transform="scale(0.015625)"/>
      </defs>
      <use xlink:href="#DejaVuSans-25"/>
      <use xlink:href="#DejaVuSans-20" transform="translate(95.019531 0)"/>
      <use xlink:href="#DejaVuSans-6f" transform="translate(126.806641 0)"/>
      <use xlink:href="#DejaVuSans-66" transform="translate(187.988281 0)"/>
      <use xlink:href="#DejaVuSans-20" transform="translate(223.193359 0)"/>
      <use xlink:href="#DejaVuSans-64" transform="translate(254.980469 0)"/>
      <use xlink:href="#DejaVuSans-61" transform="translate(318.457031 0)"/>
      <use xlink:href="#DejaVuSans-74" transform="translate(379.736328 0)"/>
      <use xlink:href="#DejaVuSans-61" transform="translate(418.945312 0)"/>
      <use xlink:href="#DejaVuSans-20" transform="translate(480.224609 0)"/>
      <use xlink:href="#DejaVuSans-75" transform="translate(512.011719 0)"/>
      <use xlink:href="#DejaVuSans-73" transform="translate(575.390625 0)"/>
      <use xlink:href="#DejaVuSans-65" transform="translate(627.490234 0)"/>
      <use xlink:href="#DejaVuSans-64" transform="translate(689.013672 0)"/>
     </g>
    </g>
    <g id="line2d_25">
     <path d="M 1435.429219 117.628438 
L 1445.429219 117.628438 
L 1455.429219 117.628438 
" style="fill: none; stroke: #1f77b4; stroke-width: 1.5; stroke-linecap: square"/>
     <g>
      <use xlink:href="#mbfad6cb22d" x="1445.429219" y="117.628438" style="fill: #1f77b4; stroke: #ffffff; stroke-width: 0.75"/>
     </g>
    </g>
    <g id="text_16">
     <!-- 0 -->
     <g transform="translate(1463.429219 121.128438) scale(0.22 -0.22)">
      <use xlink:href="#DejaVuSans-30"/>
     </g>
    </g>
    <g id="line2d_26">
     <path d="M 1435.429219 143.920313 
L 1445.429219 143.920313 
L 1455.429219 143.920313 
" style="fill: none; stroke: #ff7f0e; stroke-width: 1.5; stroke-linecap: square"/>
     <g>
      <use xlink:href="#m40ced07d36" x="1445.429219" y="143.920313" style="fill: #ff7f0e; stroke: #ffffff; stroke-width: 0.75"/>
     </g>
    </g>
    <g id="text_17">
     <!-- 1 -->
     <g transform="translate(1463.429219 147.420313) scale(0.22 -0.22)">
      <use xlink:href="#DejaVuSans-31"/>
     </g>
    </g>
    <g id="line2d_27">
     <path d="M 1435.429219 170.212188 
L 1445.429219 170.212188 
L 1455.429219 170.212188 
" style="fill: none; stroke: #2ca02c; stroke-width: 1.5; stroke-linecap: square"/>
     <g>
      <use xlink:href="#mf0824095c1" x="1445.429219" y="170.212188" style="fill: #2ca02c; stroke: #ffffff; stroke-width: 0.75"/>
     </g>
    </g>
    <g id="text_18">
     <!-- 2 -->
     <g transform="translate(1463.429219 173.712188) scale(0.22 -0.22)">
      <use xlink:href="#DejaVuSans-32"/>
     </g>
    </g>
    <g id="line2d_28">
     <path d="M 1435.429219 196.504063 
L 1445.429219 196.504063 
L 1455.429219 196.504063 
" style="fill: none; stroke: #d62728; stroke-width: 1.5; stroke-linecap: square"/>
     <g>
      <use xlink:href="#m86555e7141" x="1445.429219" y="196.504063" style="fill: #d62728; stroke: #ffffff; stroke-width: 0.75"/>
     </g>
    </g>
    <g id="text_19">
     <!-- 5 -->
     <g transform="translate(1463.429219 200.004063) scale(0.22 -0.22)">
      <use xlink:href="#DejaVuSans-35"/>
     </g>
    </g>
    <g id="line2d_29">
     <path d="M 1435.429219 222.795938 
L 1445.429219 222.795938 
L 1455.429219 222.795938 
" style="fill: none; stroke: #9467bd; stroke-width: 1.5; stroke-linecap: square"/>
     <g>
      <use xlink:href="#mea34b3b539" x="1445.429219" y="222.795938" style="fill: #9467bd; stroke: #ffffff; stroke-width: 0.75"/>
     </g>
    </g>
    <g id="text_20">
     <!-- 8 -->
     <g transform="translate(1463.429219 226.295938) scale(0.22 -0.22)">
      <use xlink:href="#DejaVuSans-38"/>
     </g>
    </g>
    <g id="line2d_30">
     <path d="M 1435.429219 249.087813 
L 1445.429219 249.087813 
L 1455.429219 249.087813 
" style="fill: none; stroke: #8c564b; stroke-width: 1.5; stroke-linecap: square"/>
     <g>
      <use xlink:href="#m266861f85f" x="1445.429219" y="249.087813" style="fill: #8c564b; stroke: #ffffff; stroke-width: 0.75"/>
     </g>
    </g>
    <g id="text_21">
     <!-- 20 -->
     <g transform="translate(1463.429219 252.587813) scale(0.22 -0.22)">
      <use xlink:href="#DejaVuSans-32"/>
      <use xlink:href="#DejaVuSans-30" transform="translate(63.623047 0)"/>
     </g>
    </g>
   </g>
  </g>
 </g>
 <defs>
  <clipPath id="p621445f2c0">
   <rect x="216" y="69.12" width="1339.2" height="443.52"/>
  </clipPath>
 </defs>
</svg>
