<?xml version="1.0" encoding="utf-8" standalone="no"?>
<!DOCTYPE svg PUBLIC "-//W3C//DTD SVG 1.1//EN"
  "http://www.w3.org/Graphics/SVG/1.1/DTD/svg11.dtd">
<svg xmlns:xlink="http://www.w3.org/1999/xlink" width="1728pt" height="576pt" viewBox="0 0 1728 576" xmlns="http://www.w3.org/2000/svg" version="1.1">
 <metadata>
  <rdf:RDF xmlns:dc="http://purl.org/dc/elements/1.1/" xmlns:cc="http://creativecommons.org/ns#" xmlns:rdf="http://www.w3.org/1999/02/22-rdf-syntax-ns#">
   <cc:Work>
    <dc:type rdf:resource="http://purl.org/dc/dcmitype/StillImage"/>
    <dc:date>2025-03-27T00:51:01.185240</dc:date>
    <dc:format>image/svg+xml</dc:format>
    <dc:creator>
     <cc:Agent>
      <dc:title>Matplotlib v3.10.1, https://matplotlib.org/</dc:title>
     </cc:Agent>
    </dc:creator>
   </cc:Work>
  </rdf:RDF>
 </metadata>
 <defs>
  <style type="text/css">*{stroke-linejoin: round; stroke-linecap: butt}</style>
 </defs>
 <g id="figure_1">
  <g id="patch_1">
   <path d="M 0 576 
L 1728 576 
L 1728 0 
L 0 0 
L 0 576 
z
" style="fill: none"/>
  </g>
  <g id="axes_1">
   <g id="patch_2">
    <path d="M 216 512.64 
L 1555.2 512.64 
L 1555.2 69.12 
L 216 69.12 
L 216 512.64 
z
" style="fill: none"/>
   </g>
   <g id="FillBetweenPolyCollection_1">
    <defs>
     <path id="mcae82b4317" d="M 276.872727 -172.782382 
L 276.872727 -117.72275 
L 327.6 -175.645001 
L 378.327273 -201.842618 
L 429.054545 -245.972606 
L 479.781818 -271.970489 
L 530.509091 -291.337999 
L 581.236364 -297.108144 
L 631.963636 -307.136182 
L 682.690909 -323.136518 
L 733.418182 -335.761668 
L 784.145455 -347.807772 
L 834.872727 -362.195208 
L 885.6 -366.26148 
L 936.327273 -375.765156 
L 987.054545 -384.905498 
L 1037.781818 -385.984663 
L 1088.509091 -387.734602 
L 1139.236364 -389.658773 
L 1189.963636 -401.450306 
L 1240.690909 -401.704625 
L 1291.418182 -403.491254 
L 1342.145455 -409.831927 
L 1392.872727 -419.15875 
L 1443.6 -422.109619 
L 1494.327273 -423.558972 
L 1494.327273 -462.143297 
L 1494.327273 -462.143297 
L 1443.6 -459.931493 
L 1392.872727 -460.460138 
L 1342.145455 -456.46357 
L 1291.418182 -451.155794 
L 1240.690909 -449.32703 
L 1189.963636 -446.468645 
L 1139.236364 -447.518074 
L 1088.509091 -445.110113 
L 1037.781818 -445.856234 
L 987.054545 -441.758714 
L 936.327273 -439.523021 
L 885.6 -434.703571 
L 834.872727 -433.544522 
L 784.145455 -422.8254 
L 733.418182 -419.495472 
L 682.690909 -404.493106 
L 631.963636 -393.754226 
L 581.236364 -378.256126 
L 530.509091 -365.75617 
L 479.781818 -342.392746 
L 429.054545 -312.218568 
L 378.327273 -268.781832 
L 327.6 -238.981723 
L 276.872727 -172.782382 
z
" style="stroke: #1f77b4; stroke-opacity: 0.2"/>
    </defs>
    <g clip-path="url(#pfeec8f2991)">
     <use xlink:href="#mcae82b4317" x="0" y="576" style="fill: #1f77b4; fill-opacity: 0.2; stroke: #1f77b4; stroke-opacity: 0.2"/>
    </g>
   </g>
   <g id="FillBetweenPolyCollection_2"/>
   <g id="FillBetweenPolyCollection_3"/>
   <g id="FillBetweenPolyCollection_4"/>
   <g id="FillBetweenPolyCollection_5"/>
   <g id="FillBetweenPolyCollection_6"/>
   <g id="matplotlib.axis_1">
    <g id="xtick_1">
     <g id="line2d_1">
      <defs>
       <path id="m999e559363" d="M 0 0 
L 0 3.5 
" style="stroke: #000000; stroke-width: 0.8"/>
      </defs>
      <g>
       <use xlink:href="#m999e559363" x="226.145455" y="512.64" style="stroke: #000000; stroke-width: 0.8"/>
      </g>
     </g>
     <g id="text_1">
      <!-- 0 -->
      <g style="fill: #ffffff" transform="translate(219.146705 536.356562) scale(0.22 -0.22)">
       <defs>
        <path id="DejaVuSans-30" d="M 2034 4250 
Q 1547 4250 1301 3770 
Q 1056 3291 1056 2328 
Q 1056 1369 1301 889 
Q 1547 409 2034 409 
Q 2525 409 2770 889 
Q 3016 1369 3016 2328 
Q 3016 3291 2770 3770 
Q 2525 4250 2034 4250 
z
M 2034 4750 
Q 2819 4750 3233 4129 
Q 3647 3509 3647 2328 
Q 3647 1150 3233 529 
Q 2819 -91 2034 -91 
Q 1250 -91 836 529 
Q 422 1150 422 2328 
Q 422 3509 836 4129 
Q 1250 4750 2034 4750 
z
" transform="scale(0.015625)"/>
       </defs>
       <use xlink:href="#DejaVuSans-30"/>
      </g>
     </g>
    </g>
    <g id="xtick_2">
     <g id="line2d_2">
      <g>
       <use xlink:href="#m999e559363" x="479.781818" y="512.64" style="stroke: #000000; stroke-width: 0.8"/>
      </g>
     </g>
     <g id="text_2">
      <!-- 5 -->
      <g style="fill: #ffffff" transform="translate(472.783068 536.356562) scale(0.22 -0.22)">
       <defs>
        <path id="DejaVuSans-35" d="M 691 4666 
L 3169 4666 
L 3169 4134 
L 1269 4134 
L 1269 2991 
Q 1406 3038 1543 3061 
Q 1681 3084 1819 3084 
Q 2600 3084 3056 2656 
Q 3513 2228 3513 1497 
Q 3513 744 3044 326 
Q 2575 -91 1722 -91 
Q 1428 -91 1123 -41 
Q 819 9 494 109 
L 494 744 
Q 775 591 1075 516 
Q 1375 441 1709 441 
Q 2250 441 2565 725 
Q 2881 1009 2881 1497 
Q 2881 1984 2565 2268 
Q 2250 2553 1709 2553 
Q 1456 2553 1204 2497 
Q 953 2441 691 2322 
L 691 4666 
z
" transform="scale(0.015625)"/>
       </defs>
       <use xlink:href="#DejaVuSans-35"/>
      </g>
     </g>
    </g>
    <g id="xtick_3">
     <g id="line2d_3">
      <g>
       <use xlink:href="#m999e559363" x="733.418182" y="512.64" style="stroke: #000000; stroke-width: 0.8"/>
      </g>
     </g>
     <g id="text_3">
      <!-- 10 -->
      <g style="fill: #ffffff" transform="translate(719.420682 536.356562) scale(0.22 -0.22)">
       <defs>
        <path id="DejaVuSans-31" d="M 794 531 
L 1825 531 
L 1825 4091 
L 703 3866 
L 703 4441 
L 1819 4666 
L 2450 4666 
L 2450 531 
L 3481 531 
L 3481 0 
L 794 0 
L 794 531 
z
" transform="scale(0.015625)"/>
       </defs>
       <use xlink:href="#DejaVuSans-31"/>
       <use xlink:href="#DejaVuSans-30" transform="translate(63.623047 0)"/>
      </g>
     </g>
    </g>
    <g id="xtick_4">
     <g id="line2d_4">
      <g>
       <use xlink:href="#m999e559363" x="987.054545" y="512.64" style="stroke: #000000; stroke-width: 0.8"/>
      </g>
     </g>
     <g id="text_4">
      <!-- 15 -->
      <g style="fill: #ffffff" transform="translate(973.057045 536.356562) scale(0.22 -0.22)">
       <use xlink:href="#DejaVuSans-31"/>
       <use xlink:href="#DejaVuSans-35" transform="translate(63.623047 0)"/>
      </g>
     </g>
    </g>
    <g id="xtick_5">
     <g id="line2d_5">
      <g>
       <use xlink:href="#m999e559363" x="1240.690909" y="512.64" style="stroke: #000000; stroke-width: 0.8"/>
      </g>
     </g>
     <g id="text_5">
      <!-- 20 -->
      <g style="fill: #ffffff" transform="translate(1226.693409 536.356562) scale(0.22 -0.22)">
       <defs>
        <path id="DejaVuSans-32" d="M 1228 531 
L 3431 531 
L 3431 0 
L 469 0 
L 469 531 
Q 828 903 1448 1529 
Q 2069 2156 2228 2338 
Q 2531 2678 2651 2914 
Q 2772 3150 2772 3378 
Q 2772 3750 2511 3984 
Q 2250 4219 1831 4219 
Q 1534 4219 1204 4116 
Q 875 4013 500 3803 
L 500 4441 
Q 881 4594 1212 4672 
Q 1544 4750 1819 4750 
Q 2544 4750 2975 4387 
Q 3406 4025 3406 3419 
Q 3406 3131 3298 2873 
Q 3191 2616 2906 2266 
Q 2828 2175 2409 1742 
Q 1991 1309 1228 531 
z
" transform="scale(0.015625)"/>
       </defs>
       <use xlink:href="#DejaVuSans-32"/>
       <use xlink:href="#DejaVuSans-30" transform="translate(63.623047 0)"/>
      </g>
     </g>
    </g>
    <g id="xtick_6">
     <g id="line2d_6">
      <g>
       <use xlink:href="#m999e559363" x="1494.327273" y="512.64" style="stroke: #000000; stroke-width: 0.8"/>
      </g>
     </g>
     <g id="text_6">
      <!-- 25 -->
      <g style="fill: #ffffff" transform="translate(1480.329773 536.356562) scale(0.22 -0.22)">
       <use xlink:href="#DejaVuSans-32"/>
       <use xlink:href="#DejaVuSans-35" transform="translate(63.623047 0)"/>
      </g>
     </g>
    </g>
    <g id="text_7">
     <!-- Num_Experiments -->
     <g style="fill: #ffffff" transform="translate(784.896719 561.648438) scale(0.22 -0.22)">
      <defs>
       <path id="DejaVuSans-4e" d="M 628 4666 
L 1478 4666 
L 3547 763 
L 3547 4666 
L 4159 4666 
L 4159 0 
L 3309 0 
L 1241 3903 
L 1241 0 
L 628 0 
L 628 4666 
z
" transform="scale(0.015625)"/>
       <path id="DejaVuSans-75" d="M 544 1381 
L 544 3500 
L 1119 3500 
L 1119 1403 
Q 1119 906 1312 657 
Q 1506 409 1894 409 
Q 2359 409 2629 706 
Q 2900 1003 2900 1516 
L 2900 3500 
L 3475 3500 
L 3475 0 
L 2900 0 
L 2900 538 
Q 2691 219 2414 64 
Q 2138 -91 1772 -91 
Q 1169 -91 856 284 
Q 544 659 544 1381 
z
M 1991 3584 
L 1991 3584 
z
" transform="scale(0.015625)"/>
       <path id="DejaVuSans-6d" d="M 3328 2828 
Q 3544 3216 3844 3400 
Q 4144 3584 4550 3584 
Q 5097 3584 5394 3201 
Q 5691 2819 5691 2113 
L 5691 0 
L 5113 0 
L 5113 2094 
Q 5113 2597 4934 2840 
Q 4756 3084 4391 3084 
Q 3944 3084 3684 2787 
Q 3425 2491 3425 1978 
L 3425 0 
L 2847 0 
L 2847 2094 
Q 2847 2600 2669 2842 
Q 2491 3084 2119 3084 
Q 1678 3084 1418 2786 
Q 1159 2488 1159 1978 
L 1159 0 
L 581 0 
L 581 3500 
L 1159 3500 
L 1159 2956 
Q 1356 3278 1631 3431 
Q 1906 3584 2284 3584 
Q 2666 3584 2933 3390 
Q 3200 3197 3328 2828 
z
" transform="scale(0.015625)"/>
       <path id="DejaVuSans-5f" d="M 3263 -1063 
L 3263 -1509 
L -63 -1509 
L -63 -1063 
L 3263 -1063 
z
" transform="scale(0.015625)"/>
       <path id="DejaVuSans-45" d="M 628 4666 
L 3578 4666 
L 3578 4134 
L 1259 4134 
L 1259 2753 
L 3481 2753 
L 3481 2222 
L 1259 2222 
L 1259 531 
L 3634 531 
L 3634 0 
L 628 0 
L 628 4666 
z
" transform="scale(0.015625)"/>
       <path id="DejaVuSans-78" d="M 3513 3500 
L 2247 1797 
L 3578 0 
L 2900 0 
L 1881 1375 
L 863 0 
L 184 0 
L 1544 1831 
L 300 3500 
L 978 3500 
L 1906 2253 
L 2834 3500 
L 3513 3500 
z
" transform="scale(0.015625)"/>
       <path id="DejaVuSans-70" d="M 1159 525 
L 1159 -1331 
L 581 -1331 
L 581 3500 
L 1159 3500 
L 1159 2969 
Q 1341 3281 1617 3432 
Q 1894 3584 2278 3584 
Q 2916 3584 3314 3078 
Q 3713 2572 3713 1747 
Q 3713 922 3314 415 
Q 2916 -91 2278 -91 
Q 1894 -91 1617 61 
Q 1341 213 1159 525 
z
M 3116 1747 
Q 3116 2381 2855 2742 
Q 2594 3103 2138 3103 
Q 1681 3103 1420 2742 
Q 1159 2381 1159 1747 
Q 1159 1113 1420 752 
Q 1681 391 2138 391 
Q 2594 391 2855 752 
Q 3116 1113 3116 1747 
z
" transform="scale(0.015625)"/>
       <path id="DejaVuSans-65" d="M 3597 1894 
L 3597 1613 
L 953 1613 
Q 991 1019 1311 708 
Q 1631 397 2203 397 
Q 2534 397 2845 478 
Q 3156 559 3463 722 
L 3463 178 
Q 3153 47 2828 -22 
Q 2503 -91 2169 -91 
Q 1331 -91 842 396 
Q 353 884 353 1716 
Q 353 2575 817 3079 
Q 1281 3584 2069 3584 
Q 2775 3584 3186 3129 
Q 3597 2675 3597 1894 
z
M 3022 2063 
Q 3016 2534 2758 2815 
Q 2500 3097 2075 3097 
Q 1594 3097 1305 2825 
Q 1016 2553 972 2059 
L 3022 2063 
z
" transform="scale(0.015625)"/>
       <path id="DejaVuSans-72" d="M 2631 2963 
Q 2534 3019 2420 3045 
Q 2306 3072 2169 3072 
Q 1681 3072 1420 2755 
Q 1159 2438 1159 1844 
L 1159 0 
L 581 0 
L 581 3500 
L 1159 3500 
L 1159 2956 
Q 1341 3275 1631 3429 
Q 1922 3584 2338 3584 
Q 2397 3584 2469 3576 
Q 2541 3569 2628 3553 
L 2631 2963 
z
" transform="scale(0.015625)"/>
       <path id="DejaVuSans-69" d="M 603 3500 
L 1178 3500 
L 1178 0 
L 603 0 
L 603 3500 
z
M 603 4863 
L 1178 4863 
L 1178 4134 
L 603 4134 
L 603 4863 
z
" transform="scale(0.015625)"/>
       <path id="DejaVuSans-6e" d="M 3513 2113 
L 3513 0 
L 2938 0 
L 2938 2094 
Q 2938 2591 2744 2837 
Q 2550 3084 2163 3084 
Q 1697 3084 1428 2787 
Q 1159 2491 1159 1978 
L 1159 0 
L 581 0 
L 581 3500 
L 1159 3500 
L 1159 2956 
Q 1366 3272 1645 3428 
Q 1925 3584 2291 3584 
Q 2894 3584 3203 3211 
Q 3513 2838 3513 2113 
z
" transform="scale(0.015625)"/>
       <path id="DejaVuSans-74" d="M 1172 4494 
L 1172 3500 
L 2356 3500 
L 2356 3053 
L 1172 3053 
L 1172 1153 
Q 1172 725 1289 603 
Q 1406 481 1766 481 
L 2356 481 
L 2356 0 
L 1766 0 
Q 1100 0 847 248 
Q 594 497 594 1153 
L 594 3053 
L 172 3053 
L 172 3500 
L 594 3500 
L 594 4494 
L 1172 4494 
z
" transform="scale(0.015625)"/>
       <path id="DejaVuSans-73" d="M 2834 3397 
L 2834 2853 
Q 2591 2978 2328 3040 
Q 2066 3103 1784 3103 
Q 1356 3103 1142 2972 
Q 928 2841 928 2578 
Q 928 2378 1081 2264 
Q 1234 2150 1697 2047 
L 1894 2003 
Q 2506 1872 2764 1633 
Q 3022 1394 3022 966 
Q 3022 478 2636 193 
Q 2250 -91 1575 -91 
Q 1294 -91 989 -36 
Q 684 19 347 128 
L 347 722 
Q 666 556 975 473 
Q 1284 391 1588 391 
Q 1994 391 2212 530 
Q 2431 669 2431 922 
Q 2431 1156 2273 1281 
Q 2116 1406 1581 1522 
L 1381 1569 
Q 847 1681 609 1914 
Q 372 2147 372 2553 
Q 372 3047 722 3315 
Q 1072 3584 1716 3584 
Q 2034 3584 2315 3537 
Q 2597 3491 2834 3397 
z
" transform="scale(0.015625)"/>
      </defs>
      <use xlink:href="#DejaVuSans-4e"/>
      <use xlink:href="#DejaVuSans-75" transform="translate(74.804688 0)"/>
      <use xlink:href="#DejaVuSans-6d" transform="translate(138.183594 0)"/>
      <use xlink:href="#DejaVuSans-5f" transform="translate(235.595703 0)"/>
      <use xlink:href="#DejaVuSans-45" transform="translate(285.595703 0)"/>
      <use xlink:href="#DejaVuSans-78" transform="translate(348.779297 0)"/>
      <use xlink:href="#DejaVuSans-70" transform="translate(407.958984 0)"/>
      <use xlink:href="#DejaVuSans-65" transform="translate(471.435547 0)"/>
      <use xlink:href="#DejaVuSans-72" transform="translate(532.958984 0)"/>
      <use xlink:href="#DejaVuSans-69" transform="translate(574.072266 0)"/>
      <use xlink:href="#DejaVuSans-6d" transform="translate(601.855469 0)"/>
      <use xlink:href="#DejaVuSans-65" transform="translate(699.267578 0)"/>
      <use xlink:href="#DejaVuSans-6e" transform="translate(760.791016 0)"/>
      <use xlink:href="#DejaVuSans-74" transform="translate(824.169922 0)"/>
      <use xlink:href="#DejaVuSans-73" transform="translate(863.378906 0)"/>
     </g>
    </g>
   </g>
   <g id="matplotlib.axis_2">
    <g id="ytick_1">
     <g id="line2d_7">
      <defs>
       <path id="m9f11bf0c74" d="M 0 0 
L -3.5 0 
" style="stroke: #000000; stroke-width: 0.8"/>
      </defs>
      <g>
       <use xlink:href="#m9f11bf0c74" x="216" y="492.48" style="stroke: #000000; stroke-width: 0.8"/>
      </g>
     </g>
     <g id="text_8">
      <!-- 0 -->
      <g style="fill: #ffffff" transform="translate(195.0025 500.838281) scale(0.22 -0.22)">
       <use xlink:href="#DejaVuSans-30"/>
      </g>
     </g>
    </g>
    <g id="ytick_2">
     <g id="line2d_8">
      <g>
       <use xlink:href="#m9f11bf0c74" x="216" y="411.84" style="stroke: #000000; stroke-width: 0.8"/>
      </g>
     </g>
     <g id="text_9">
      <!-- 20 -->
      <g style="fill: #ffffff" transform="translate(181.005 420.198281) scale(0.22 -0.22)">
       <use xlink:href="#DejaVuSans-32"/>
       <use xlink:href="#DejaVuSans-30" transform="translate(63.623047 0)"/>
      </g>
     </g>
    </g>
    <g id="ytick_3">
     <g id="line2d_9">
      <g>
       <use xlink:href="#m9f11bf0c74" x="216" y="331.2" style="stroke: #000000; stroke-width: 0.8"/>
      </g>
     </g>
     <g id="text_10">
      <!-- 40 -->
      <g style="fill: #ffffff" transform="translate(181.005 339.558281) scale(0.22 -0.22)">
       <defs>
        <path id="DejaVuSans-34" d="M 2419 4116 
L 825 1625 
L 2419 1625 
L 2419 4116 
z
M 2253 4666 
L 3047 4666 
L 3047 1625 
L 3713 1625 
L 3713 1100 
L 3047 1100 
L 3047 0 
L 2419 0 
L 2419 1100 
L 313 1100 
L 313 1709 
L 2253 4666 
z
" transform="scale(0.015625)"/>
       </defs>
       <use xlink:href="#DejaVuSans-34"/>
       <use xlink:href="#DejaVuSans-30" transform="translate(63.623047 0)"/>
      </g>
     </g>
    </g>
    <g id="ytick_4">
     <g id="line2d_10">
      <g>
       <use xlink:href="#m9f11bf0c74" x="216" y="250.56" style="stroke: #000000; stroke-width: 0.8"/>
      </g>
     </g>
     <g id="text_11">
      <!-- 60 -->
      <g style="fill: #ffffff" transform="translate(181.005 258.918281) scale(0.22 -0.22)">
       <defs>
        <path id="DejaVuSans-36" d="M 2113 2584 
Q 1688 2584 1439 2293 
Q 1191 2003 1191 1497 
Q 1191 994 1439 701 
Q 1688 409 2113 409 
Q 2538 409 2786 701 
Q 3034 994 3034 1497 
Q 3034 2003 2786 2293 
Q 2538 2584 2113 2584 
z
M 3366 4563 
L 3366 3988 
Q 3128 4100 2886 4159 
Q 2644 4219 2406 4219 
Q 1781 4219 1451 3797 
Q 1122 3375 1075 2522 
Q 1259 2794 1537 2939 
Q 1816 3084 2150 3084 
Q 2853 3084 3261 2657 
Q 3669 2231 3669 1497 
Q 3669 778 3244 343 
Q 2819 -91 2113 -91 
Q 1303 -91 875 529 
Q 447 1150 447 2328 
Q 447 3434 972 4092 
Q 1497 4750 2381 4750 
Q 2619 4750 2861 4703 
Q 3103 4656 3366 4563 
z
" transform="scale(0.015625)"/>
       </defs>
       <use xlink:href="#DejaVuSans-36"/>
       <use xlink:href="#DejaVuSans-30" transform="translate(63.623047 0)"/>
      </g>
     </g>
    </g>
    <g id="ytick_5">
     <g id="line2d_11">
      <g>
       <use xlink:href="#m9f11bf0c74" x="216" y="169.92" style="stroke: #000000; stroke-width: 0.8"/>
      </g>
     </g>
     <g id="text_12">
      <!-- 80 -->
      <g style="fill: #ffffff" transform="translate(181.005 178.278281) scale(0.22 -0.22)">
       <defs>
        <path id="DejaVuSans-38" d="M 2034 2216 
Q 1584 2216 1326 1975 
Q 1069 1734 1069 1313 
Q 1069 891 1326 650 
Q 1584 409 2034 409 
Q 2484 409 2743 651 
Q 3003 894 3003 1313 
Q 3003 1734 2745 1975 
Q 2488 2216 2034 2216 
z
M 1403 2484 
Q 997 2584 770 2862 
Q 544 3141 544 3541 
Q 544 4100 942 4425 
Q 1341 4750 2034 4750 
Q 2731 4750 3128 4425 
Q 3525 4100 3525 3541 
Q 3525 3141 3298 2862 
Q 3072 2584 2669 2484 
Q 3125 2378 3379 2068 
Q 3634 1759 3634 1313 
Q 3634 634 3220 271 
Q 2806 -91 2034 -91 
Q 1263 -91 848 271 
Q 434 634 434 1313 
Q 434 1759 690 2068 
Q 947 2378 1403 2484 
z
M 1172 3481 
Q 1172 3119 1398 2916 
Q 1625 2713 2034 2713 
Q 2441 2713 2670 2916 
Q 2900 3119 2900 3481 
Q 2900 3844 2670 4047 
Q 2441 4250 2034 4250 
Q 1625 4250 1398 4047 
Q 1172 3844 1172 3481 
z
" transform="scale(0.015625)"/>
       </defs>
       <use xlink:href="#DejaVuSans-38"/>
       <use xlink:href="#DejaVuSans-30" transform="translate(63.623047 0)"/>
      </g>
     </g>
    </g>
    <g id="ytick_6">
     <g id="line2d_12">
      <g>
       <use xlink:href="#m9f11bf0c74" x="216" y="89.28" style="stroke: #000000; stroke-width: 0.8"/>
      </g>
     </g>
     <g id="text_13">
      <!-- 100 -->
      <g style="fill: #ffffff" transform="translate(167.0075 97.638281) scale(0.22 -0.22)">
       <use xlink:href="#DejaVuSans-31"/>
       <use xlink:href="#DejaVuSans-30" transform="translate(63.623047 0)"/>
       <use xlink:href="#DejaVuSans-30" transform="translate(127.246094 0)"/>
      </g>
     </g>
    </g>
    <g id="text_14">
     <!-- yield_CumBest -->
     <g style="fill: #ffffff" transform="translate(157.820312 372.479375) rotate(-90) scale(0.22 -0.22)">
      <defs>
       <path id="DejaVuSans-79" d="M 2059 -325 
Q 1816 -950 1584 -1140 
Q 1353 -1331 966 -1331 
L 506 -1331 
L 506 -850 
L 844 -850 
Q 1081 -850 1212 -737 
Q 1344 -625 1503 -206 
L 1606 56 
L 191 3500 
L 800 3500 
L 1894 763 
L 2988 3500 
L 3597 3500 
L 2059 -325 
z
" transform="scale(0.015625)"/>
       <path id="DejaVuSans-6c" d="M 603 4863 
L 1178 4863 
L 1178 0 
L 603 0 
L 603 4863 
z
" transform="scale(0.015625)"/>
       <path id="DejaVuSans-64" d="M 2906 2969 
L 2906 4863 
L 3481 4863 
L 3481 0 
L 2906 0 
L 2906 525 
Q 2725 213 2448 61 
Q 2172 -91 1784 -91 
Q 1150 -91 751 415 
Q 353 922 353 1747 
Q 353 2572 751 3078 
Q 1150 3584 1784 3584 
Q 2172 3584 2448 3432 
Q 2725 3281 2906 2969 
z
M 947 1747 
Q 947 1113 1208 752 
Q 1469 391 1925 391 
Q 2381 391 2643 752 
Q 2906 1113 2906 1747 
Q 2906 2381 2643 2742 
Q 2381 3103 1925 3103 
Q 1469 3103 1208 2742 
Q 947 2381 947 1747 
z
" transform="scale(0.015625)"/>
       <path id="DejaVuSans-43" d="M 4122 4306 
L 4122 3641 
Q 3803 3938 3442 4084 
Q 3081 4231 2675 4231 
Q 1875 4231 1450 3742 
Q 1025 3253 1025 2328 
Q 1025 1406 1450 917 
Q 1875 428 2675 428 
Q 3081 428 3442 575 
Q 3803 722 4122 1019 
L 4122 359 
Q 3791 134 3420 21 
Q 3050 -91 2638 -91 
Q 1578 -91 968 557 
Q 359 1206 359 2328 
Q 359 3453 968 4101 
Q 1578 4750 2638 4750 
Q 3056 4750 3426 4639 
Q 3797 4528 4122 4306 
z
" transform="scale(0.015625)"/>
       <path id="DejaVuSans-42" d="M 1259 2228 
L 1259 519 
L 2272 519 
Q 2781 519 3026 730 
Q 3272 941 3272 1375 
Q 3272 1813 3026 2020 
Q 2781 2228 2272 2228 
L 1259 2228 
z
M 1259 4147 
L 1259 2741 
L 2194 2741 
Q 2656 2741 2882 2914 
Q 3109 3088 3109 3444 
Q 3109 3797 2882 3972 
Q 2656 4147 2194 4147 
L 1259 4147 
z
M 628 4666 
L 2241 4666 
Q 2963 4666 3353 4366 
Q 3744 4066 3744 3513 
Q 3744 3084 3544 2831 
Q 3344 2578 2956 2516 
Q 3422 2416 3680 2098 
Q 3938 1781 3938 1306 
Q 3938 681 3513 340 
Q 3088 0 2303 0 
L 628 0 
L 628 4666 
z
" transform="scale(0.015625)"/>
      </defs>
      <use xlink:href="#DejaVuSans-79"/>
      <use xlink:href="#DejaVuSans-69" transform="translate(59.179688 0)"/>
      <use xlink:href="#DejaVuSans-65" transform="translate(86.962891 0)"/>
      <use xlink:href="#DejaVuSans-6c" transform="translate(148.486328 0)"/>
      <use xlink:href="#DejaVuSans-64" transform="translate(176.269531 0)"/>
      <use xlink:href="#DejaVuSans-5f" transform="translate(239.746094 0)"/>
      <use xlink:href="#DejaVuSans-43" transform="translate(289.746094 0)"/>
      <use xlink:href="#DejaVuSans-75" transform="translate(359.570312 0)"/>
      <use xlink:href="#DejaVuSans-6d" transform="translate(422.949219 0)"/>
      <use xlink:href="#DejaVuSans-42" transform="translate(520.361328 0)"/>
      <use xlink:href="#DejaVuSans-65" transform="translate(588.964844 0)"/>
      <use xlink:href="#DejaVuSans-73" transform="translate(650.488281 0)"/>
      <use xlink:href="#DejaVuSans-74" transform="translate(702.587891 0)"/>
     </g>
    </g>
   </g>
   <g id="line2d_13">
    <path d="M 276.872727 432.516096 
L 327.6 370.455552 
L 378.327273 341.981568 
L 429.054545 299.728224 
L 479.781818 267.349248 
L 530.509091 248.304096 
L 581.236364 237.611232 
L 631.963636 223.956864 
L 682.690909 210.606912 
L 733.418182 195.1704 
L 784.145455 190.400544 
L 834.872727 177.228 
L 885.6 173.782656 
L 936.327273 167.478624 
L 987.054545 160.995168 
L 1037.781818 156.72528 
L 1088.509091 155.662848 
L 1139.236364 155.624544 
L 1189.963636 152.384832 
L 1240.690909 149.909184 
L 1291.418182 147.369024 
L 1342.145455 141.629472 
L 1392.872727 136.129824 
L 1443.6 133.988832 
L 1494.327273 132.234912 
" clip-path="url(#pfeec8f2991)" style="fill: none; stroke: #1f77b4; stroke-width: 1.5; stroke-linecap: square"/>
    <defs>
     <path id="mc0b49e74d5" d="M 0 5 
C 1.326016 5 2.597899 4.473168 3.535534 3.535534 
C 4.473168 2.597899 5 1.326016 5 0 
C 5 -1.326016 4.473168 -2.597899 3.535534 -3.535534 
C 2.597899 -4.473168 1.326016 -5 0 -5 
C -1.326016 -5 -2.597899 -4.473168 -3.535534 -3.535534 
C -4.473168 -2.597899 -5 -1.326016 -5 0 
C -5 1.326016 -4.473168 2.597899 -3.535534 3.535534 
C -2.597899 4.473168 -1.326016 5 0 5 
z
" style="stroke: #ffffff; stroke-width: 0.75"/>
    </defs>
    <g clip-path="url(#pfeec8f2991)">
     <use xlink:href="#mc0b49e74d5" x="276.872727" y="432.516096" style="fill: #1f77b4; stroke: #ffffff; stroke-width: 0.75"/>
     <use xlink:href="#mc0b49e74d5" x="327.6" y="370.455552" style="fill: #1f77b4; stroke: #ffffff; stroke-width: 0.75"/>
     <use xlink:href="#mc0b49e74d5" x="378.327273" y="341.981568" style="fill: #1f77b4; stroke: #ffffff; stroke-width: 0.75"/>
     <use xlink:href="#mc0b49e74d5" x="429.054545" y="299.728224" style="fill: #1f77b4; stroke: #ffffff; stroke-width: 0.75"/>
     <use xlink:href="#mc0b49e74d5" x="479.781818" y="267.349248" style="fill: #1f77b4; stroke: #ffffff; stroke-width: 0.75"/>
     <use xlink:href="#mc0b49e74d5" x="530.509091" y="248.304096" style="fill: #1f77b4; stroke: #ffffff; stroke-width: 0.75"/>
     <use xlink:href="#mc0b49e74d5" x="581.236364" y="237.611232" style="fill: #1f77b4; stroke: #ffffff; stroke-width: 0.75"/>
     <use xlink:href="#mc0b49e74d5" x="631.963636" y="223.956864" style="fill: #1f77b4; stroke: #ffffff; stroke-width: 0.75"/>
     <use xlink:href="#mc0b49e74d5" x="682.690909" y="210.606912" style="fill: #1f77b4; stroke: #ffffff; stroke-width: 0.75"/>
     <use xlink:href="#mc0b49e74d5" x="733.418182" y="195.1704" style="fill: #1f77b4; stroke: #ffffff; stroke-width: 0.75"/>
     <use xlink:href="#mc0b49e74d5" x="784.145455" y="190.400544" style="fill: #1f77b4; stroke: #ffffff; stroke-width: 0.75"/>
     <use xlink:href="#mc0b49e74d5" x="834.872727" y="177.228" style="fill: #1f77b4; stroke: #ffffff; stroke-width: 0.75"/>
     <use xlink:href="#mc0b49e74d5" x="885.6" y="173.782656" style="fill: #1f77b4; stroke: #ffffff; stroke-width: 0.75"/>
     <use xlink:href="#mc0b49e74d5" x="936.327273" y="167.478624" style="fill: #1f77b4; stroke: #ffffff; stroke-width: 0.75"/>
     <use xlink:href="#mc0b49e74d5" x="987.054545" y="160.995168" style="fill: #1f77b4; stroke: #ffffff; stroke-width: 0.75"/>
     <use xlink:href="#mc0b49e74d5" x="1037.781818" y="156.72528" style="fill: #1f77b4; stroke: #ffffff; stroke-width: 0.75"/>
     <use xlink:href="#mc0b49e74d5" x="1088.509091" y="155.662848" style="fill: #1f77b4; stroke: #ffffff; stroke-width: 0.75"/>
     <use xlink:href="#mc0b49e74d5" x="1139.236364" y="155.624544" style="fill: #1f77b4; stroke: #ffffff; stroke-width: 0.75"/>
     <use xlink:href="#mc0b49e74d5" x="1189.963636" y="152.384832" style="fill: #1f77b4; stroke: #ffffff; stroke-width: 0.75"/>
     <use xlink:href="#mc0b49e74d5" x="1240.690909" y="149.909184" style="fill: #1f77b4; stroke: #ffffff; stroke-width: 0.75"/>
     <use xlink:href="#mc0b49e74d5" x="1291.418182" y="147.369024" style="fill: #1f77b4; stroke: #ffffff; stroke-width: 0.75"/>
     <use xlink:href="#mc0b49e74d5" x="1342.145455" y="141.629472" style="fill: #1f77b4; stroke: #ffffff; stroke-width: 0.75"/>
     <use xlink:href="#mc0b49e74d5" x="1392.872727" y="136.129824" style="fill: #1f77b4; stroke: #ffffff; stroke-width: 0.75"/>
     <use xlink:href="#mc0b49e74d5" x="1443.6" y="133.988832" style="fill: #1f77b4; stroke: #ffffff; stroke-width: 0.75"/>
     <use xlink:href="#mc0b49e74d5" x="1494.327273" y="132.234912" style="fill: #1f77b4; stroke: #ffffff; stroke-width: 0.75"/>
    </g>
   </g>
   <g id="line2d_14">
    <path d="M 276.872727 492.48 
L 327.6 424.1376 
L 378.327273 424.1376 
L 429.054545 259.2288 
L 479.781818 188.22528 
L 530.509091 188.22528 
L 581.236364 188.22528 
L 631.963636 188.22528 
L 682.690909 179.91936 
L 733.418182 167.2992 
L 784.145455 167.2992 
L 834.872727 167.2992 
L 885.6 166.45248 
L 936.327273 166.45248 
L 987.054545 166.45248 
L 1037.781818 166.45248 
L 1088.509091 166.45248 
L 1139.236364 166.45248 
L 1189.963636 166.45248 
L 1240.690909 166.45248 
L 1291.418182 166.45248 
L 1342.145455 166.45248 
L 1392.872727 166.45248 
L 1443.6 166.45248 
L 1494.327273 166.45248 
" clip-path="url(#pfeec8f2991)" style="fill: none; stroke-dasharray: 7.5,3; stroke-dashoffset: 0; stroke: #ff7f0e; stroke-width: 1.5"/>
    <defs>
     <path id="m9416a62e34" d="M 0 5 
C 1.326016 5 2.597899 4.473168 3.535534 3.535534 
C 4.473168 2.597899 5 1.326016 5 0 
C 5 -1.326016 4.473168 -2.597899 3.535534 -3.535534 
C 2.597899 -4.473168 1.326016 -5 0 -5 
C -1.326016 -5 -2.597899 -4.473168 -3.535534 -3.535534 
C -4.473168 -2.597899 -5 -1.326016 -5 0 
C -5 1.326016 -4.473168 2.597899 -3.535534 3.535534 
C -2.597899 4.473168 -1.326016 5 0 5 
z
" style="stroke: #ffffff; stroke-width: 0.75"/>
    </defs>
    <g clip-path="url(#pfeec8f2991)">
     <use xlink:href="#m9416a62e34" x="276.872727" y="492.48" style="fill: #ff7f0e; stroke: #ffffff; stroke-width: 0.75"/>
     <use xlink:href="#m9416a62e34" x="327.6" y="424.1376" style="fill: #ff7f0e; stroke: #ffffff; stroke-width: 0.75"/>
     <use xlink:href="#m9416a62e34" x="378.327273" y="424.1376" style="fill: #ff7f0e; stroke: #ffffff; stroke-width: 0.75"/>
     <use xlink:href="#m9416a62e34" x="429.054545" y="259.2288" style="fill: #ff7f0e; stroke: #ffffff; stroke-width: 0.75"/>
     <use xlink:href="#m9416a62e34" x="479.781818" y="188.22528" style="fill: #ff7f0e; stroke: #ffffff; stroke-width: 0.75"/>
     <use xlink:href="#m9416a62e34" x="530.509091" y="188.22528" style="fill: #ff7f0e; stroke: #ffffff; stroke-width: 0.75"/>
     <use xlink:href="#m9416a62e34" x="581.236364" y="188.22528" style="fill: #ff7f0e; stroke: #ffffff; stroke-width: 0.75"/>
     <use xlink:href="#m9416a62e34" x="631.963636" y="188.22528" style="fill: #ff7f0e; stroke: #ffffff; stroke-width: 0.75"/>
     <use xlink:href="#m9416a62e34" x="682.690909" y="179.91936" style="fill: #ff7f0e; stroke: #ffffff; stroke-width: 0.75"/>
     <use xlink:href="#m9416a62e34" x="733.418182" y="167.2992" style="fill: #ff7f0e; stroke: #ffffff; stroke-width: 0.75"/>
     <use xlink:href="#m9416a62e34" x="784.145455" y="167.2992" style="fill: #ff7f0e; stroke: #ffffff; stroke-width: 0.75"/>
     <use xlink:href="#m9416a62e34" x="834.872727" y="167.2992" style="fill: #ff7f0e; stroke: #ffffff; stroke-width: 0.75"/>
     <use xlink:href="#m9416a62e34" x="885.6" y="166.45248" style="fill: #ff7f0e; stroke: #ffffff; stroke-width: 0.75"/>
     <use xlink:href="#m9416a62e34" x="936.327273" y="166.45248" style="fill: #ff7f0e; stroke: #ffffff; stroke-width: 0.75"/>
     <use xlink:href="#m9416a62e34" x="987.054545" y="166.45248" style="fill: #ff7f0e; stroke: #ffffff; stroke-width: 0.75"/>
     <use xlink:href="#m9416a62e34" x="1037.781818" y="166.45248" style="fill: #ff7f0e; stroke: #ffffff; stroke-width: 0.75"/>
     <use xlink:href="#m9416a62e34" x="1088.509091" y="166.45248" style="fill: #ff7f0e; stroke: #ffffff; stroke-width: 0.75"/>
     <use xlink:href="#m9416a62e34" x="1139.236364" y="166.45248" style="fill: #ff7f0e; stroke: #ffffff; stroke-width: 0.75"/>
     <use xlink:href="#m9416a62e34" x="1189.963636" y="166.45248" style="fill: #ff7f0e; stroke: #ffffff; stroke-width: 0.75"/>
     <use xlink:href="#m9416a62e34" x="1240.690909" y="166.45248" style="fill: #ff7f0e; stroke: #ffffff; stroke-width: 0.75"/>
     <use xlink:href="#m9416a62e34" x="1291.418182" y="166.45248" style="fill: #ff7f0e; stroke: #ffffff; stroke-width: 0.75"/>
     <use xlink:href="#m9416a62e34" x="1342.145455" y="166.45248" style="fill: #ff7f0e; stroke: #ffffff; stroke-width: 0.75"/>
     <use xlink:href="#m9416a62e34" x="1392.872727" y="166.45248" style="fill: #ff7f0e; stroke: #ffffff; stroke-width: 0.75"/>
     <use xlink:href="#m9416a62e34" x="1443.6" y="166.45248" style="fill: #ff7f0e; stroke: #ffffff; stroke-width: 0.75"/>
     <use xlink:href="#m9416a62e34" x="1494.327273" y="166.45248" style="fill: #ff7f0e; stroke: #ffffff; stroke-width: 0.75"/>
    </g>
   </g>
   <g id="line2d_15">
    <path d="M 276.872727 310.35456 
L 327.6 310.35456 
L 378.327273 310.35456 
L 429.054545 310.35456 
L 479.781818 310.35456 
L 530.509091 245.19744 
L 581.236364 245.19744 
L 631.963636 245.19744 
L 682.690909 245.19744 
L 733.418182 245.19744 
L 784.145455 245.19744 
L 834.872727 245.19744 
L 885.6 245.19744 
L 936.327273 184.67712 
L 987.054545 184.67712 
L 1037.781818 184.67712 
L 1088.509091 184.67712 
L 1139.236364 184.67712 
L 1189.963636 184.67712 
L 1240.690909 184.67712 
L 1291.418182 184.67712 
L 1342.145455 95.36832 
L 1392.872727 89.28 
L 1443.6 89.28 
L 1494.327273 89.28 
" clip-path="url(#pfeec8f2991)" style="fill: none; stroke-dasharray: 7.5,3; stroke-dashoffset: 0; stroke: #2ca02c; stroke-width: 1.5"/>
    <defs>
     <path id="m4cef5cdbe6" d="M 0 5 
C 1.326016 5 2.597899 4.473168 3.535534 3.535534 
C 4.473168 2.597899 5 1.326016 5 0 
C 5 -1.326016 4.473168 -2.597899 3.535534 -3.535534 
C 2.597899 -4.473168 1.326016 -5 0 -5 
C -1.326016 -5 -2.597899 -4.473168 -3.535534 -3.535534 
C -4.473168 -2.597899 -5 -1.326016 -5 0 
C -5 1.326016 -4.473168 2.597899 -3.535534 3.535534 
C -2.597899 4.473168 -1.326016 5 0 5 
z
" style="stroke: #ffffff; stroke-width: 0.75"/>
    </defs>
    <g clip-path="url(#pfeec8f2991)">
     <use xlink:href="#m4cef5cdbe6" x="276.872727" y="310.35456" style="fill: #2ca02c; stroke: #ffffff; stroke-width: 0.75"/>
     <use xlink:href="#m4cef5cdbe6" x="327.6" y="310.35456" style="fill: #2ca02c; stroke: #ffffff; stroke-width: 0.75"/>
     <use xlink:href="#m4cef5cdbe6" x="378.327273" y="310.35456" style="fill: #2ca02c; stroke: #ffffff; stroke-width: 0.75"/>
     <use xlink:href="#m4cef5cdbe6" x="429.054545" y="310.35456" style="fill: #2ca02c; stroke: #ffffff; stroke-width: 0.75"/>
     <use xlink:href="#m4cef5cdbe6" x="479.781818" y="310.35456" style="fill: #2ca02c; stroke: #ffffff; stroke-width: 0.75"/>
     <use xlink:href="#m4cef5cdbe6" x="530.509091" y="245.19744" style="fill: #2ca02c; stroke: #ffffff; stroke-width: 0.75"/>
     <use xlink:href="#m4cef5cdbe6" x="581.236364" y="245.19744" style="fill: #2ca02c; stroke: #ffffff; stroke-width: 0.75"/>
     <use xlink:href="#m4cef5cdbe6" x="631.963636" y="245.19744" style="fill: #2ca02c; stroke: #ffffff; stroke-width: 0.75"/>
     <use xlink:href="#m4cef5cdbe6" x="682.690909" y="245.19744" style="fill: #2ca02c; stroke: #ffffff; stroke-width: 0.75"/>
     <use xlink:href="#m4cef5cdbe6" x="733.418182" y="245.19744" style="fill: #2ca02c; stroke: #ffffff; stroke-width: 0.75"/>
     <use xlink:href="#m4cef5cdbe6" x="784.145455" y="245.19744" style="fill: #2ca02c; stroke: #ffffff; stroke-width: 0.75"/>
     <use xlink:href="#m4cef5cdbe6" x="834.872727" y="245.19744" style="fill: #2ca02c; stroke: #ffffff; stroke-width: 0.75"/>
     <use xlink:href="#m4cef5cdbe6" x="885.6" y="245.19744" style="fill: #2ca02c; stroke: #ffffff; stroke-width: 0.75"/>
     <use xlink:href="#m4cef5cdbe6" x="936.327273" y="184.67712" style="fill: #2ca02c; stroke: #ffffff; stroke-width: 0.75"/>
     <use xlink:href="#m4cef5cdbe6" x="987.054545" y="184.67712" style="fill: #2ca02c; stroke: #ffffff; stroke-width: 0.75"/>
     <use xlink:href="#m4cef5cdbe6" x="1037.781818" y="184.67712" style="fill: #2ca02c; stroke: #ffffff; stroke-width: 0.75"/>
     <use xlink:href="#m4cef5cdbe6" x="1088.509091" y="184.67712" style="fill: #2ca02c; stroke: #ffffff; stroke-width: 0.75"/>
     <use xlink:href="#m4cef5cdbe6" x="1139.236364" y="184.67712" style="fill: #2ca02c; stroke: #ffffff; stroke-width: 0.75"/>
     <use xlink:href="#m4cef5cdbe6" x="1189.963636" y="184.67712" style="fill: #2ca02c; stroke: #ffffff; stroke-width: 0.75"/>
     <use xlink:href="#m4cef5cdbe6" x="1240.690909" y="184.67712" style="fill: #2ca02c; stroke: #ffffff; stroke-width: 0.75"/>
     <use xlink:href="#m4cef5cdbe6" x="1291.418182" y="184.67712" style="fill: #2ca02c; stroke: #ffffff; stroke-width: 0.75"/>
     <use xlink:href="#m4cef5cdbe6" x="1342.145455" y="95.36832" style="fill: #2ca02c; stroke: #ffffff; stroke-width: 0.75"/>
     <use xlink:href="#m4cef5cdbe6" x="1392.872727" y="89.28" style="fill: #2ca02c; stroke: #ffffff; stroke-width: 0.75"/>
     <use xlink:href="#m4cef5cdbe6" x="1443.6" y="89.28" style="fill: #2ca02c; stroke: #ffffff; stroke-width: 0.75"/>
     <use xlink:href="#m4cef5cdbe6" x="1494.327273" y="89.28" style="fill: #2ca02c; stroke: #ffffff; stroke-width: 0.75"/>
    </g>
   </g>
   <g id="line2d_16">
    <path d="M 276.872727 370.67328 
L 327.6 370.67328 
L 378.327273 370.67328 
L 429.054545 370.67328 
L 479.781818 136.01088 
L 530.509091 136.01088 
L 581.236364 136.01088 
L 631.963636 136.01088 
L 682.690909 136.01088 
L 733.418182 136.01088 
L 784.145455 136.01088 
L 834.872727 136.01088 
L 885.6 136.01088 
L 936.327273 132.94656 
L 987.054545 130.76928 
L 1037.781818 130.76928 
L 1088.509091 130.76928 
L 1139.236364 130.76928 
L 1189.963636 130.76928 
L 1240.690909 130.76928 
L 1291.418182 130.76928 
L 1342.145455 130.76928 
L 1392.872727 130.76928 
L 1443.6 130.76928 
L 1494.327273 130.76928 
" clip-path="url(#pfeec8f2991)" style="fill: none; stroke-dasharray: 7.5,3; stroke-dashoffset: 0; stroke: #d62728; stroke-width: 1.5"/>
    <defs>
     <path id="m1f1228f0d3" d="M 0 5 
C 1.326016 5 2.597899 4.473168 3.535534 3.535534 
C 4.473168 2.597899 5 1.326016 5 0 
C 5 -1.326016 4.473168 -2.597899 3.535534 -3.535534 
C 2.597899 -4.473168 1.326016 -5 0 -5 
C -1.326016 -5 -2.597899 -4.473168 -3.535534 -3.535534 
C -4.473168 -2.597899 -5 -1.326016 -5 0 
C -5 1.326016 -4.473168 2.597899 -3.535534 3.535534 
C -2.597899 4.473168 -1.326016 5 0 5 
z
" style="stroke: #ffffff; stroke-width: 0.75"/>
    </defs>
    <g clip-path="url(#pfeec8f2991)">
     <use xlink:href="#m1f1228f0d3" x="276.872727" y="370.67328" style="fill: #d62728; stroke: #ffffff; stroke-width: 0.75"/>
     <use xlink:href="#m1f1228f0d3" x="327.6" y="370.67328" style="fill: #d62728; stroke: #ffffff; stroke-width: 0.75"/>
     <use xlink:href="#m1f1228f0d3" x="378.327273" y="370.67328" style="fill: #d62728; stroke: #ffffff; stroke-width: 0.75"/>
     <use xlink:href="#m1f1228f0d3" x="429.054545" y="370.67328" style="fill: #d62728; stroke: #ffffff; stroke-width: 0.75"/>
     <use xlink:href="#m1f1228f0d3" x="479.781818" y="136.01088" style="fill: #d62728; stroke: #ffffff; stroke-width: 0.75"/>
     <use xlink:href="#m1f1228f0d3" x="530.509091" y="136.01088" style="fill: #d62728; stroke: #ffffff; stroke-width: 0.75"/>
     <use xlink:href="#m1f1228f0d3" x="581.236364" y="136.01088" style="fill: #d62728; stroke: #ffffff; stroke-width: 0.75"/>
     <use xlink:href="#m1f1228f0d3" x="631.963636" y="136.01088" style="fill: #d62728; stroke: #ffffff; stroke-width: 0.75"/>
     <use xlink:href="#m1f1228f0d3" x="682.690909" y="136.01088" style="fill: #d62728; stroke: #ffffff; stroke-width: 0.75"/>
     <use xlink:href="#m1f1228f0d3" x="733.418182" y="136.01088" style="fill: #d62728; stroke: #ffffff; stroke-width: 0.75"/>
     <use xlink:href="#m1f1228f0d3" x="784.145455" y="136.01088" style="fill: #d62728; stroke: #ffffff; stroke-width: 0.75"/>
     <use xlink:href="#m1f1228f0d3" x="834.872727" y="136.01088" style="fill: #d62728; stroke: #ffffff; stroke-width: 0.75"/>
     <use xlink:href="#m1f1228f0d3" x="885.6" y="136.01088" style="fill: #d62728; stroke: #ffffff; stroke-width: 0.75"/>
     <use xlink:href="#m1f1228f0d3" x="936.327273" y="132.94656" style="fill: #d62728; stroke: #ffffff; stroke-width: 0.75"/>
     <use xlink:href="#m1f1228f0d3" x="987.054545" y="130.76928" style="fill: #d62728; stroke: #ffffff; stroke-width: 0.75"/>
     <use xlink:href="#m1f1228f0d3" x="1037.781818" y="130.76928" style="fill: #d62728; stroke: #ffffff; stroke-width: 0.75"/>
     <use xlink:href="#m1f1228f0d3" x="1088.509091" y="130.76928" style="fill: #d62728; stroke: #ffffff; stroke-width: 0.75"/>
     <use xlink:href="#m1f1228f0d3" x="1139.236364" y="130.76928" style="fill: #d62728; stroke: #ffffff; stroke-width: 0.75"/>
     <use xlink:href="#m1f1228f0d3" x="1189.963636" y="130.76928" style="fill: #d62728; stroke: #ffffff; stroke-width: 0.75"/>
     <use xlink:href="#m1f1228f0d3" x="1240.690909" y="130.76928" style="fill: #d62728; stroke: #ffffff; stroke-width: 0.75"/>
     <use xlink:href="#m1f1228f0d3" x="1291.418182" y="130.76928" style="fill: #d62728; stroke: #ffffff; stroke-width: 0.75"/>
     <use xlink:href="#m1f1228f0d3" x="1342.145455" y="130.76928" style="fill: #d62728; stroke: #ffffff; stroke-width: 0.75"/>
     <use xlink:href="#m1f1228f0d3" x="1392.872727" y="130.76928" style="fill: #d62728; stroke: #ffffff; stroke-width: 0.75"/>
     <use xlink:href="#m1f1228f0d3" x="1443.6" y="130.76928" style="fill: #d62728; stroke: #ffffff; stroke-width: 0.75"/>
     <use xlink:href="#m1f1228f0d3" x="1494.327273" y="130.76928" style="fill: #d62728; stroke: #ffffff; stroke-width: 0.75"/>
    </g>
   </g>
   <g id="line2d_17">
    <path d="M 276.872727 420.18624 
L 327.6 420.18624 
L 378.327273 420.18624 
L 429.054545 259.2288 
L 479.781818 183.38688 
L 530.509091 183.38688 
L 581.236364 166.45248 
L 631.963636 166.45248 
L 682.690909 166.45248 
L 733.418182 89.36064 
L 784.145455 89.36064 
L 834.872727 89.36064 
L 885.6 89.36064 
L 936.327273 89.36064 
L 987.054545 89.36064 
L 1037.781818 89.36064 
L 1088.509091 89.36064 
L 1139.236364 89.28 
L 1189.963636 89.28 
L 1240.690909 89.28 
L 1291.418182 89.28 
L 1342.145455 89.28 
L 1392.872727 89.28 
L 1443.6 89.28 
L 1494.327273 89.28 
" clip-path="url(#pfeec8f2991)" style="fill: none; stroke-dasharray: 7.5,3; stroke-dashoffset: 0; stroke: #9467bd; stroke-width: 1.5"/>
    <defs>
     <path id="md391637cce" d="M 0 5 
C 1.326016 5 2.597899 4.473168 3.535534 3.535534 
C 4.473168 2.597899 5 1.326016 5 0 
C 5 -1.326016 4.473168 -2.597899 3.535534 -3.535534 
C 2.597899 -4.473168 1.326016 -5 0 -5 
C -1.326016 -5 -2.597899 -4.473168 -3.535534 -3.535534 
C -4.473168 -2.597899 -5 -1.326016 -5 0 
C -5 1.326016 -4.473168 2.597899 -3.535534 3.535534 
C -2.597899 4.473168 -1.326016 5 0 5 
z
" style="stroke: #ffffff; stroke-width: 0.75"/>
    </defs>
    <g clip-path="url(#pfeec8f2991)">
     <use xlink:href="#md391637cce" x="276.872727" y="420.18624" style="fill: #9467bd; stroke: #ffffff; stroke-width: 0.75"/>
     <use xlink:href="#md391637cce" x="327.6" y="420.18624" style="fill: #9467bd; stroke: #ffffff; stroke-width: 0.75"/>
     <use xlink:href="#md391637cce" x="378.327273" y="420.18624" style="fill: #9467bd; stroke: #ffffff; stroke-width: 0.75"/>
     <use xlink:href="#md391637cce" x="429.054545" y="259.2288" style="fill: #9467bd; stroke: #ffffff; stroke-width: 0.75"/>
     <use xlink:href="#md391637cce" x="479.781818" y="183.38688" style="fill: #9467bd; stroke: #ffffff; stroke-width: 0.75"/>
     <use xlink:href="#md391637cce" x="530.509091" y="183.38688" style="fill: #9467bd; stroke: #ffffff; stroke-width: 0.75"/>
     <use xlink:href="#md391637cce" x="581.236364" y="166.45248" style="fill: #9467bd; stroke: #ffffff; stroke-width: 0.75"/>
     <use xlink:href="#md391637cce" x="631.963636" y="166.45248" style="fill: #9467bd; stroke: #ffffff; stroke-width: 0.75"/>
     <use xlink:href="#md391637cce" x="682.690909" y="166.45248" style="fill: #9467bd; stroke: #ffffff; stroke-width: 0.75"/>
     <use xlink:href="#md391637cce" x="733.418182" y="89.36064" style="fill: #9467bd; stroke: #ffffff; stroke-width: 0.75"/>
     <use xlink:href="#md391637cce" x="784.145455" y="89.36064" style="fill: #9467bd; stroke: #ffffff; stroke-width: 0.75"/>
     <use xlink:href="#md391637cce" x="834.872727" y="89.36064" style="fill: #9467bd; stroke: #ffffff; stroke-width: 0.75"/>
     <use xlink:href="#md391637cce" x="885.6" y="89.36064" style="fill: #9467bd; stroke: #ffffff; stroke-width: 0.75"/>
     <use xlink:href="#md391637cce" x="936.327273" y="89.36064" style="fill: #9467bd; stroke: #ffffff; stroke-width: 0.75"/>
     <use xlink:href="#md391637cce" x="987.054545" y="89.36064" style="fill: #9467bd; stroke: #ffffff; stroke-width: 0.75"/>
     <use xlink:href="#md391637cce" x="1037.781818" y="89.36064" style="fill: #9467bd; stroke: #ffffff; stroke-width: 0.75"/>
     <use xlink:href="#md391637cce" x="1088.509091" y="89.36064" style="fill: #9467bd; stroke: #ffffff; stroke-width: 0.75"/>
     <use xlink:href="#md391637cce" x="1139.236364" y="89.28" style="fill: #9467bd; stroke: #ffffff; stroke-width: 0.75"/>
     <use xlink:href="#md391637cce" x="1189.963636" y="89.28" style="fill: #9467bd; stroke: #ffffff; stroke-width: 0.75"/>
     <use xlink:href="#md391637cce" x="1240.690909" y="89.28" style="fill: #9467bd; stroke: #ffffff; stroke-width: 0.75"/>
     <use xlink:href="#md391637cce" x="1291.418182" y="89.28" style="fill: #9467bd; stroke: #ffffff; stroke-width: 0.75"/>
     <use xlink:href="#md391637cce" x="1342.145455" y="89.28" style="fill: #9467bd; stroke: #ffffff; stroke-width: 0.75"/>
     <use xlink:href="#md391637cce" x="1392.872727" y="89.28" style="fill: #9467bd; stroke: #ffffff; stroke-width: 0.75"/>
     <use xlink:href="#md391637cce" x="1443.6" y="89.28" style="fill: #9467bd; stroke: #ffffff; stroke-width: 0.75"/>
     <use xlink:href="#md391637cce" x="1494.327273" y="89.28" style="fill: #9467bd; stroke: #ffffff; stroke-width: 0.75"/>
    </g>
   </g>
   <g id="line2d_18">
    <path d="M 276.872727 492.48 
L 327.6 480.22272 
L 378.327273 166.45248 
L 429.054545 124.80192 
L 479.781818 124.80192 
L 530.509091 124.80192 
L 581.236364 124.80192 
L 631.963636 92.42496 
L 682.690909 92.42496 
L 733.418182 92.42496 
L 784.145455 92.42496 
L 834.872727 92.42496 
L 885.6 92.42496 
L 936.327273 92.42496 
L 987.054545 92.42496 
L 1037.781818 92.42496 
L 1088.509091 92.42496 
L 1139.236364 92.42496 
L 1189.963636 92.42496 
L 1240.690909 92.42496 
L 1291.418182 92.42496 
L 1342.145455 92.42496 
L 1392.872727 89.28 
L 1443.6 89.28 
L 1494.327273 89.28 
" clip-path="url(#pfeec8f2991)" style="fill: none; stroke-dasharray: 7.5,3; stroke-dashoffset: 0; stroke: #8c564b; stroke-width: 1.5"/>
    <defs>
     <path id="ma45bf13ad8" d="M 0 5 
C 1.326016 5 2.597899 4.473168 3.535534 3.535534 
C 4.473168 2.597899 5 1.326016 5 0 
C 5 -1.326016 4.473168 -2.597899 3.535534 -3.535534 
C 2.597899 -4.473168 1.326016 -5 0 -5 
C -1.326016 -5 -2.597899 -4.473168 -3.535534 -3.535534 
C -4.473168 -2.597899 -5 -1.326016 -5 0 
C -5 1.326016 -4.473168 2.597899 -3.535534 3.535534 
C -2.597899 4.473168 -1.326016 5 0 5 
z
" style="stroke: #ffffff; stroke-width: 0.75"/>
    </defs>
    <g clip-path="url(#pfeec8f2991)">
     <use xlink:href="#ma45bf13ad8" x="276.872727" y="492.48" style="fill: #8c564b; stroke: #ffffff; stroke-width: 0.75"/>
     <use xlink:href="#ma45bf13ad8" x="327.6" y="480.22272" style="fill: #8c564b; stroke: #ffffff; stroke-width: 0.75"/>
     <use xlink:href="#ma45bf13ad8" x="378.327273" y="166.45248" style="fill: #8c564b; stroke: #ffffff; stroke-width: 0.75"/>
     <use xlink:href="#ma45bf13ad8" x="429.054545" y="124.80192" style="fill: #8c564b; stroke: #ffffff; stroke-width: 0.75"/>
     <use xlink:href="#ma45bf13ad8" x="479.781818" y="124.80192" style="fill: #8c564b; stroke: #ffffff; stroke-width: 0.75"/>
     <use xlink:href="#ma45bf13ad8" x="530.509091" y="124.80192" style="fill: #8c564b; stroke: #ffffff; stroke-width: 0.75"/>
     <use xlink:href="#ma45bf13ad8" x="581.236364" y="124.80192" style="fill: #8c564b; stroke: #ffffff; stroke-width: 0.75"/>
     <use xlink:href="#ma45bf13ad8" x="631.963636" y="92.42496" style="fill: #8c564b; stroke: #ffffff; stroke-width: 0.75"/>
     <use xlink:href="#ma45bf13ad8" x="682.690909" y="92.42496" style="fill: #8c564b; stroke: #ffffff; stroke-width: 0.75"/>
     <use xlink:href="#ma45bf13ad8" x="733.418182" y="92.42496" style="fill: #8c564b; stroke: #ffffff; stroke-width: 0.75"/>
     <use xlink:href="#ma45bf13ad8" x="784.145455" y="92.42496" style="fill: #8c564b; stroke: #ffffff; stroke-width: 0.75"/>
     <use xlink:href="#ma45bf13ad8" x="834.872727" y="92.42496" style="fill: #8c564b; stroke: #ffffff; stroke-width: 0.75"/>
     <use xlink:href="#ma45bf13ad8" x="885.6" y="92.42496" style="fill: #8c564b; stroke: #ffffff; stroke-width: 0.75"/>
     <use xlink:href="#ma45bf13ad8" x="936.327273" y="92.42496" style="fill: #8c564b; stroke: #ffffff; stroke-width: 0.75"/>
     <use xlink:href="#ma45bf13ad8" x="987.054545" y="92.42496" style="fill: #8c564b; stroke: #ffffff; stroke-width: 0.75"/>
     <use xlink:href="#ma45bf13ad8" x="1037.781818" y="92.42496" style="fill: #8c564b; stroke: #ffffff; stroke-width: 0.75"/>
     <use xlink:href="#ma45bf13ad8" x="1088.509091" y="92.42496" style="fill: #8c564b; stroke: #ffffff; stroke-width: 0.75"/>
     <use xlink:href="#ma45bf13ad8" x="1139.236364" y="92.42496" style="fill: #8c564b; stroke: #ffffff; stroke-width: 0.75"/>
     <use xlink:href="#ma45bf13ad8" x="1189.963636" y="92.42496" style="fill: #8c564b; stroke: #ffffff; stroke-width: 0.75"/>
     <use xlink:href="#ma45bf13ad8" x="1240.690909" y="92.42496" style="fill: #8c564b; stroke: #ffffff; stroke-width: 0.75"/>
     <use xlink:href="#ma45bf13ad8" x="1291.418182" y="92.42496" style="fill: #8c564b; stroke: #ffffff; stroke-width: 0.75"/>
     <use xlink:href="#ma45bf13ad8" x="1342.145455" y="92.42496" style="fill: #8c564b; stroke: #ffffff; stroke-width: 0.75"/>
     <use xlink:href="#ma45bf13ad8" x="1392.872727" y="89.28" style="fill: #8c564b; stroke: #ffffff; stroke-width: 0.75"/>
     <use xlink:href="#ma45bf13ad8" x="1443.6" y="89.28" style="fill: #8c564b; stroke: #ffffff; stroke-width: 0.75"/>
     <use xlink:href="#ma45bf13ad8" x="1494.327273" y="89.28" style="fill: #8c564b; stroke: #ffffff; stroke-width: 0.75"/>
    </g>
   </g>
   <g id="line2d_19"/>
   <g id="line2d_20"/>
   <g id="line2d_21"/>
   <g id="line2d_22"/>
   <g id="line2d_23"/>
   <g id="line2d_24"/>
   <g id="patch_3">
    <path d="M 216 512.64 
L 216 69.12 
" style="fill: none; stroke: #ffffff; stroke-width: 0.8; stroke-linejoin: miter; stroke-linecap: square"/>
   </g>
   <g id="patch_4">
    <path d="M 1555.2 512.64 
L 1555.2 69.12 
" style="fill: none; stroke: #ffffff; stroke-width: 0.8; stroke-linejoin: miter; stroke-linecap: square"/>
   </g>
   <g id="patch_5">
    <path d="M 216 512.64 
L 1555.2 512.64 
" style="fill: none; stroke: #ffffff; stroke-width: 0.8; stroke-linejoin: miter; stroke-linecap: square"/>
   </g>
   <g id="patch_6">
    <path d="M 216 69.12 
L 1555.2 69.12 
" style="fill: none; stroke: #ffffff; stroke-width: 0.8; stroke-linejoin: miter; stroke-linecap: square"/>
   </g>
   <g id="legend_1">
    <g id="patch_7">
     <path d="M 1267.0225 507.64 
L 1548.2 507.64 
Q 1550.2 507.64 1550.2 505.64 
L 1550.2 322.596875 
Q 1550.2 320.596875 1548.2 320.596875 
L 1267.0225 320.596875 
Q 1265.0225 320.596875 1265.0225 322.596875 
L 1265.0225 505.64 
Q 1265.0225 507.64 1267.0225 507.64 
z
" style="fill: #ffffff; opacity: 0.3; stroke: #cccccc; stroke-linejoin: miter"/>
    </g>
    <g id="text_15">
     <!-- Scenario -->
     <g style="fill: #ffffff" transform="translate(1359.790469 341.313438) scale(0.22 -0.22)">
      <defs>
       <path id="DejaVuSans-53" d="M 3425 4513 
L 3425 3897 
Q 3066 4069 2747 4153 
Q 2428 4238 2131 4238 
Q 1616 4238 1336 4038 
Q 1056 3838 1056 3469 
Q 1056 3159 1242 3001 
Q 1428 2844 1947 2747 
L 2328 2669 
Q 3034 2534 3370 2195 
Q 3706 1856 3706 1288 
Q 3706 609 3251 259 
Q 2797 -91 1919 -91 
Q 1588 -91 1214 -16 
Q 841 59 441 206 
L 441 856 
Q 825 641 1194 531 
Q 1563 422 1919 422 
Q 2459 422 2753 634 
Q 3047 847 3047 1241 
Q 3047 1584 2836 1778 
Q 2625 1972 2144 2069 
L 1759 2144 
Q 1053 2284 737 2584 
Q 422 2884 422 3419 
Q 422 4038 858 4394 
Q 1294 4750 2059 4750 
Q 2388 4750 2728 4690 
Q 3069 4631 3425 4513 
z
" transform="scale(0.015625)"/>
       <path id="DejaVuSans-63" d="M 3122 3366 
L 3122 2828 
Q 2878 2963 2633 3030 
Q 2388 3097 2138 3097 
Q 1578 3097 1268 2742 
Q 959 2388 959 1747 
Q 959 1106 1268 751 
Q 1578 397 2138 397 
Q 2388 397 2633 464 
Q 2878 531 3122 666 
L 3122 134 
Q 2881 22 2623 -34 
Q 2366 -91 2075 -91 
Q 1284 -91 818 406 
Q 353 903 353 1747 
Q 353 2603 823 3093 
Q 1294 3584 2113 3584 
Q 2378 3584 2631 3529 
Q 2884 3475 3122 3366 
z
" transform="scale(0.015625)"/>
       <path id="DejaVuSans-61" d="M 2194 1759 
Q 1497 1759 1228 1600 
Q 959 1441 959 1056 
Q 959 750 1161 570 
Q 1363 391 1709 391 
Q 2188 391 2477 730 
Q 2766 1069 2766 1631 
L 2766 1759 
L 2194 1759 
z
M 3341 1997 
L 3341 0 
L 2766 0 
L 2766 531 
Q 2569 213 2275 61 
Q 1981 -91 1556 -91 
Q 1019 -91 701 211 
Q 384 513 384 1019 
Q 384 1609 779 1909 
Q 1175 2209 1959 2209 
L 2766 2209 
L 2766 2266 
Q 2766 2663 2505 2880 
Q 2244 3097 1772 3097 
Q 1472 3097 1187 3025 
Q 903 2953 641 2809 
L 641 3341 
Q 956 3463 1253 3523 
Q 1550 3584 1831 3584 
Q 2591 3584 2966 3190 
Q 3341 2797 3341 1997 
z
" transform="scale(0.015625)"/>
       <path id="DejaVuSans-6f" d="M 1959 3097 
Q 1497 3097 1228 2736 
Q 959 2375 959 1747 
Q 959 1119 1226 758 
Q 1494 397 1959 397 
Q 2419 397 2687 759 
Q 2956 1122 2956 1747 
Q 2956 2369 2687 2733 
Q 2419 3097 1959 3097 
z
M 1959 3584 
Q 2709 3584 3137 3096 
Q 3566 2609 3566 1747 
Q 3566 888 3137 398 
Q 2709 -91 1959 -91 
Q 1206 -91 779 398 
Q 353 888 353 1747 
Q 353 2609 779 3096 
Q 1206 3584 1959 3584 
z
" transform="scale(0.015625)"/>
      </defs>
      <use xlink:href="#DejaVuSans-53"/>
      <use xlink:href="#DejaVuSans-63" transform="translate(63.476562 0)"/>
      <use xlink:href="#DejaVuSans-65" transform="translate(118.457031 0)"/>
      <use xlink:href="#DejaVuSans-6e" transform="translate(179.980469 0)"/>
      <use xlink:href="#DejaVuSans-61" transform="translate(243.359375 0)"/>
      <use xlink:href="#DejaVuSans-72" transform="translate(304.638672 0)"/>
      <use xlink:href="#DejaVuSans-69" transform="translate(345.751953 0)"/>
      <use xlink:href="#DejaVuSans-6f" transform="translate(373.535156 0)"/>
     </g>
    </g>
    <g id="line2d_25">
     <path d="M 1269.0225 364.105313 
L 1279.0225 364.105313 
L 1289.0225 364.105313 
" style="fill: none; stroke: #1f77b4; stroke-width: 1.5; stroke-linecap: square"/>
     <g>
      <use xlink:href="#mc0b49e74d5" x="1279.0225" y="364.105313" style="fill: #1f77b4; stroke: #ffffff; stroke-width: 0.75"/>
     </g>
    </g>
    <g id="text_16">
     <!-- Average uninterrupted -->
     <g style="fill: #ffffff" transform="translate(1297.0225 367.605313) scale(0.22 -0.22)">
      <defs>
       <path id="DejaVuSans-41" d="M 2188 4044 
L 1331 1722 
L 3047 1722 
L 2188 4044 
z
M 1831 4666 
L 2547 4666 
L 4325 0 
L 3669 0 
L 3244 1197 
L 1141 1197 
L 716 0 
L 50 0 
L 1831 4666 
z
" transform="scale(0.015625)"/>
       <path id="DejaVuSans-76" d="M 191 3500 
L 800 3500 
L 1894 563 
L 2988 3500 
L 3597 3500 
L 2284 0 
L 1503 0 
L 191 3500 
z
" transform="scale(0.015625)"/>
       <path id="DejaVuSans-67" d="M 2906 1791 
Q 2906 2416 2648 2759 
Q 2391 3103 1925 3103 
Q 1463 3103 1205 2759 
Q 947 2416 947 1791 
Q 947 1169 1205 825 
Q 1463 481 1925 481 
Q 2391 481 2648 825 
Q 2906 1169 2906 1791 
z
M 3481 434 
Q 3481 -459 3084 -895 
Q 2688 -1331 1869 -1331 
Q 1566 -1331 1297 -1286 
Q 1028 -1241 775 -1147 
L 775 -588 
Q 1028 -725 1275 -790 
Q 1522 -856 1778 -856 
Q 2344 -856 2625 -561 
Q 2906 -266 2906 331 
L 2906 616 
Q 2728 306 2450 153 
Q 2172 0 1784 0 
Q 1141 0 747 490 
Q 353 981 353 1791 
Q 353 2603 747 3093 
Q 1141 3584 1784 3584 
Q 2172 3584 2450 3431 
Q 2728 3278 2906 2969 
L 2906 3500 
L 3481 3500 
L 3481 434 
z
" transform="scale(0.015625)"/>
       <path id="DejaVuSans-20" transform="scale(0.015625)"/>
      </defs>
      <use xlink:href="#DejaVuSans-41"/>
      <use xlink:href="#DejaVuSans-76" transform="translate(62.533203 0)"/>
      <use xlink:href="#DejaVuSans-65" transform="translate(121.712891 0)"/>
      <use xlink:href="#DejaVuSans-72" transform="translate(183.236328 0)"/>
      <use xlink:href="#DejaVuSans-61" transform="translate(224.349609 0)"/>
      <use xlink:href="#DejaVuSans-67" transform="translate(285.628906 0)"/>
      <use xlink:href="#DejaVuSans-65" transform="translate(349.105469 0)"/>
      <use xlink:href="#DejaVuSans-20" transform="translate(410.628906 0)"/>
      <use xlink:href="#DejaVuSans-75" transform="translate(442.416016 0)"/>
      <use xlink:href="#DejaVuSans-6e" transform="translate(505.794922 0)"/>
      <use xlink:href="#DejaVuSans-69" transform="translate(569.173828 0)"/>
      <use xlink:href="#DejaVuSans-6e" transform="translate(596.957031 0)"/>
      <use xlink:href="#DejaVuSans-74" transform="translate(660.335938 0)"/>
      <use xlink:href="#DejaVuSans-65" transform="translate(699.544922 0)"/>
      <use xlink:href="#DejaVuSans-72" transform="translate(761.068359 0)"/>
      <use xlink:href="#DejaVuSans-72" transform="translate(800.431641 0)"/>
      <use xlink:href="#DejaVuSans-75" transform="translate(841.544922 0)"/>
      <use xlink:href="#DejaVuSans-70" transform="translate(904.923828 0)"/>
      <use xlink:href="#DejaVuSans-74" transform="translate(968.400391 0)"/>
      <use xlink:href="#DejaVuSans-65" transform="translate(1007.609375 0)"/>
      <use xlink:href="#DejaVuSans-64" transform="translate(1069.132812 0)"/>
     </g>
    </g>
    <g id="line2d_26">
     <path d="M 1269.0225 390.397188 
L 1279.0225 390.397188 
L 1289.0225 390.397188 
" style="fill: none; stroke: #ff7f0e; stroke-width: 1.5; stroke-linecap: square"/>
     <g>
      <use xlink:href="#m9416a62e34" x="1279.0225" y="390.397188" style="fill: #ff7f0e; stroke: #ffffff; stroke-width: 0.75"/>
     </g>
    </g>
    <g id="text_17">
     <!-- PI-stopped, run 0 -->
     <g style="fill: #ffffff" transform="translate(1297.0225 393.897188) scale(0.22 -0.22)">
      <defs>
       <path id="DejaVuSans-50" d="M 1259 4147 
L 1259 2394 
L 2053 2394 
Q 2494 2394 2734 2622 
Q 2975 2850 2975 3272 
Q 2975 3691 2734 3919 
Q 2494 4147 2053 4147 
L 1259 4147 
z
M 628 4666 
L 2053 4666 
Q 2838 4666 3239 4311 
Q 3641 3956 3641 3272 
Q 3641 2581 3239 2228 
Q 2838 1875 2053 1875 
L 1259 1875 
L 1259 0 
L 628 0 
L 628 4666 
z
" transform="scale(0.015625)"/>
       <path id="DejaVuSans-49" d="M 628 4666 
L 1259 4666 
L 1259 0 
L 628 0 
L 628 4666 
z
" transform="scale(0.015625)"/>
       <path id="DejaVuSans-2d" d="M 313 2009 
L 1997 2009 
L 1997 1497 
L 313 1497 
L 313 2009 
z
" transform="scale(0.015625)"/>
       <path id="DejaVuSans-2c" d="M 750 794 
L 1409 794 
L 1409 256 
L 897 -744 
L 494 -744 
L 750 256 
L 750 794 
z
" transform="scale(0.015625)"/>
      </defs>
      <use xlink:href="#DejaVuSans-50"/>
      <use xlink:href="#DejaVuSans-49" transform="translate(60.302734 0)"/>
      <use xlink:href="#DejaVuSans-2d" transform="translate(89.794922 0)"/>
      <use xlink:href="#DejaVuSans-73" transform="translate(125.878906 0)"/>
      <use xlink:href="#DejaVuSans-74" transform="translate(177.978516 0)"/>
      <use xlink:href="#DejaVuSans-6f" transform="translate(217.1875 0)"/>
      <use xlink:href="#DejaVuSans-70" transform="translate(278.369141 0)"/>
      <use xlink:href="#DejaVuSans-70" transform="translate(341.845703 0)"/>
      <use xlink:href="#DejaVuSans-65" transform="translate(405.322266 0)"/>
      <use xlink:href="#DejaVuSans-64" transform="translate(466.845703 0)"/>
      <use xlink:href="#DejaVuSans-2c" transform="translate(530.322266 0)"/>
      <use xlink:href="#DejaVuSans-20" transform="translate(562.109375 0)"/>
      <use xlink:href="#DejaVuSans-72" transform="translate(593.896484 0)"/>
      <use xlink:href="#DejaVuSans-75" transform="translate(635.009766 0)"/>
      <use xlink:href="#DejaVuSans-6e" transform="translate(698.388672 0)"/>
      <use xlink:href="#DejaVuSans-20" transform="translate(761.767578 0)"/>
      <use xlink:href="#DejaVuSans-30" transform="translate(793.554688 0)"/>
     </g>
    </g>
    <g id="line2d_27">
     <path d="M 1269.0225 416.689063 
L 1279.0225 416.689063 
L 1289.0225 416.689063 
" style="fill: none; stroke: #2ca02c; stroke-width: 1.5; stroke-linecap: square"/>
     <g>
      <use xlink:href="#m4cef5cdbe6" x="1279.0225" y="416.689063" style="fill: #2ca02c; stroke: #ffffff; stroke-width: 0.75"/>
     </g>
    </g>
    <g id="text_18">
     <!-- PI-stopped, run 1 -->
     <g style="fill: #ffffff" transform="translate(1297.0225 420.189063) scale(0.22 -0.22)">
      <use xlink:href="#DejaVuSans-50"/>
      <use xlink:href="#DejaVuSans-49" transform="translate(60.302734 0)"/>
      <use xlink:href="#DejaVuSans-2d" transform="translate(89.794922 0)"/>
      <use xlink:href="#DejaVuSans-73" transform="translate(125.878906 0)"/>
      <use xlink:href="#DejaVuSans-74" transform="translate(177.978516 0)"/>
      <use xlink:href="#DejaVuSans-6f" transform="translate(217.1875 0)"/>
      <use xlink:href="#DejaVuSans-70" transform="translate(278.369141 0)"/>
      <use xlink:href="#DejaVuSans-70" transform="translate(341.845703 0)"/>
      <use xlink:href="#DejaVuSans-65" transform="translate(405.322266 0)"/>
      <use xlink:href="#DejaVuSans-64" transform="translate(466.845703 0)"/>
      <use xlink:href="#DejaVuSans-2c" transform="translate(530.322266 0)"/>
      <use xlink:href="#DejaVuSans-20" transform="translate(562.109375 0)"/>
      <use xlink:href="#DejaVuSans-72" transform="translate(593.896484 0)"/>
      <use xlink:href="#DejaVuSans-75" transform="translate(635.009766 0)"/>
      <use xlink:href="#DejaVuSans-6e" transform="translate(698.388672 0)"/>
      <use xlink:href="#DejaVuSans-20" transform="translate(761.767578 0)"/>
      <use xlink:href="#DejaVuSans-31" transform="translate(793.554688 0)"/>
     </g>
    </g>
    <g id="line2d_28">
     <path d="M 1269.0225 442.980937 
L 1279.0225 442.980937 
L 1289.0225 442.980937 
" style="fill: none; stroke: #d62728; stroke-width: 1.5; stroke-linecap: square"/>
     <g>
      <use xlink:href="#m1f1228f0d3" x="1279.0225" y="442.980937" style="fill: #d62728; stroke: #ffffff; stroke-width: 0.75"/>
     </g>
    </g>
    <g id="text_19">
     <!-- PI-stopped, run 2 -->
     <g style="fill: #ffffff" transform="translate(1297.0225 446.480937) scale(0.22 -0.22)">
      <use xlink:href="#DejaVuSans-50"/>
      <use xlink:href="#DejaVuSans-49" transform="translate(60.302734 0)"/>
      <use xlink:href="#DejaVuSans-2d" transform="translate(89.794922 0)"/>
      <use xlink:href="#DejaVuSans-73" transform="translate(125.878906 0)"/>
      <use xlink:href="#DejaVuSans-74" transform="translate(177.978516 0)"/>
      <use xlink:href="#DejaVuSans-6f" transform="translate(217.1875 0)"/>
      <use xlink:href="#DejaVuSans-70" transform="translate(278.369141 0)"/>
      <use xlink:href="#DejaVuSans-70" transform="translate(341.845703 0)"/>
      <use xlink:href="#DejaVuSans-65" transform="translate(405.322266 0)"/>
      <use xlink:href="#DejaVuSans-64" transform="translate(466.845703 0)"/>
      <use xlink:href="#DejaVuSans-2c" transform="translate(530.322266 0)"/>
      <use xlink:href="#DejaVuSans-20" transform="translate(562.109375 0)"/>
      <use xlink:href="#DejaVuSans-72" transform="translate(593.896484 0)"/>
      <use xlink:href="#DejaVuSans-75" transform="translate(635.009766 0)"/>
      <use xlink:href="#DejaVuSans-6e" transform="translate(698.388672 0)"/>
      <use xlink:href="#DejaVuSans-20" transform="translate(761.767578 0)"/>
      <use xlink:href="#DejaVuSans-32" transform="translate(793.554688 0)"/>
     </g>
    </g>
    <g id="line2d_29">
     <path d="M 1269.0225 469.272812 
L 1279.0225 469.272812 
L 1289.0225 469.272812 
" style="fill: none; stroke: #9467bd; stroke-width: 1.5; stroke-linecap: square"/>
     <g>
      <use xlink:href="#md391637cce" x="1279.0225" y="469.272812" style="fill: #9467bd; stroke: #ffffff; stroke-width: 0.75"/>
     </g>
    </g>
    <g id="text_20">
     <!-- PI-stopped, run 3 -->
     <g style="fill: #ffffff" transform="translate(1297.0225 472.772812) scale(0.22 -0.22)">
      <defs>
       <path id="DejaVuSans-33" d="M 2597 2516 
Q 3050 2419 3304 2112 
Q 3559 1806 3559 1356 
Q 3559 666 3084 287 
Q 2609 -91 1734 -91 
Q 1441 -91 1130 -33 
Q 819 25 488 141 
L 488 750 
Q 750 597 1062 519 
Q 1375 441 1716 441 
Q 2309 441 2620 675 
Q 2931 909 2931 1356 
Q 2931 1769 2642 2001 
Q 2353 2234 1838 2234 
L 1294 2234 
L 1294 2753 
L 1863 2753 
Q 2328 2753 2575 2939 
Q 2822 3125 2822 3475 
Q 2822 3834 2567 4026 
Q 2313 4219 1838 4219 
Q 1578 4219 1281 4162 
Q 984 4106 628 3988 
L 628 4550 
Q 988 4650 1302 4700 
Q 1616 4750 1894 4750 
Q 2613 4750 3031 4423 
Q 3450 4097 3450 3541 
Q 3450 3153 3228 2886 
Q 3006 2619 2597 2516 
z
" transform="scale(0.015625)"/>
      </defs>
      <use xlink:href="#DejaVuSans-50"/>
      <use xlink:href="#DejaVuSans-49" transform="translate(60.302734 0)"/>
      <use xlink:href="#DejaVuSans-2d" transform="translate(89.794922 0)"/>
      <use xlink:href="#DejaVuSans-73" transform="translate(125.878906 0)"/>
      <use xlink:href="#DejaVuSans-74" transform="translate(177.978516 0)"/>
      <use xlink:href="#DejaVuSans-6f" transform="translate(217.1875 0)"/>
      <use xlink:href="#DejaVuSans-70" transform="translate(278.369141 0)"/>
      <use xlink:href="#DejaVuSans-70" transform="translate(341.845703 0)"/>
      <use xlink:href="#DejaVuSans-65" transform="translate(405.322266 0)"/>
      <use xlink:href="#DejaVuSans-64" transform="translate(466.845703 0)"/>
      <use xlink:href="#DejaVuSans-2c" transform="translate(530.322266 0)"/>
      <use xlink:href="#DejaVuSans-20" transform="translate(562.109375 0)"/>
      <use xlink:href="#DejaVuSans-72" transform="translate(593.896484 0)"/>
      <use xlink:href="#DejaVuSans-75" transform="translate(635.009766 0)"/>
      <use xlink:href="#DejaVuSans-6e" transform="translate(698.388672 0)"/>
      <use xlink:href="#DejaVuSans-20" transform="translate(761.767578 0)"/>
      <use xlink:href="#DejaVuSans-33" transform="translate(793.554688 0)"/>
     </g>
    </g>
    <g id="line2d_30">
     <path d="M 1269.0225 495.564687 
L 1279.0225 495.564687 
L 1289.0225 495.564687 
" style="fill: none; stroke: #8c564b; stroke-width: 1.5; stroke-linecap: square"/>
     <g>
      <use xlink:href="#ma45bf13ad8" x="1279.0225" y="495.564687" style="fill: #8c564b; stroke: #ffffff; stroke-width: 0.75"/>
     </g>
    </g>
    <g id="text_21">
     <!-- PI-stopped, run 4 -->
     <g style="fill: #ffffff" transform="translate(1297.0225 499.064687) scale(0.22 -0.22)">
      <use xlink:href="#DejaVuSans-50"/>
      <use xlink:href="#DejaVuSans-49" transform="translate(60.302734 0)"/>
      <use xlink:href="#DejaVuSans-2d" transform="translate(89.794922 0)"/>
      <use xlink:href="#DejaVuSans-73" transform="translate(125.878906 0)"/>
      <use xlink:href="#DejaVuSans-74" transform="translate(177.978516 0)"/>
      <use xlink:href="#DejaVuSans-6f" transform="translate(217.1875 0)"/>
      <use xlink:href="#DejaVuSans-70" transform="translate(278.369141 0)"/>
      <use xlink:href="#DejaVuSans-70" transform="translate(341.845703 0)"/>
      <use xlink:href="#DejaVuSans-65" transform="translate(405.322266 0)"/>
      <use xlink:href="#DejaVuSans-64" transform="translate(466.845703 0)"/>
      <use xlink:href="#DejaVuSans-2c" transform="translate(530.322266 0)"/>
      <use xlink:href="#DejaVuSans-20" transform="translate(562.109375 0)"/>
      <use xlink:href="#DejaVuSans-72" transform="translate(593.896484 0)"/>
      <use xlink:href="#DejaVuSans-75" transform="translate(635.009766 0)"/>
      <use xlink:href="#DejaVuSans-6e" transform="translate(698.388672 0)"/>
      <use xlink:href="#DejaVuSans-20" transform="translate(761.767578 0)"/>
      <use xlink:href="#DejaVuSans-34" transform="translate(793.554688 0)"/>
     </g>
    </g>
   </g>
  </g>
 </g>
 <defs>
  <clipPath id="pfeec8f2991">
   <rect x="216" y="69.12" width="1339.2" height="443.52"/>
  </clipPath>
 </defs>
</svg>
