<?xml version="1.0" encoding="utf-8" standalone="no"?>
<!DOCTYPE svg PUBLIC "-//W3C//DTD SVG 1.1//EN"
  "http://www.w3.org/Graphics/SVG/1.1/DTD/svg11.dtd">
<svg xmlns:xlink="http://www.w3.org/1999/xlink" width="1728pt" height="576pt" viewBox="0 0 1728 576" xmlns="http://www.w3.org/2000/svg" version="1.1">
 <metadata>
  <rdf:RDF xmlns:dc="http://purl.org/dc/elements/1.1/" xmlns:cc="http://creativecommons.org/ns#" xmlns:rdf="http://www.w3.org/1999/02/22-rdf-syntax-ns#">
   <cc:Work>
    <dc:type rdf:resource="http://purl.org/dc/dcmitype/StillImage"/>
    <dc:date>2025-03-27T00:48:07.591025</dc:date>
    <dc:format>image/svg+xml</dc:format>
    <dc:creator>
     <cc:Agent>
      <dc:title>Matplotlib v3.10.1, https://matplotlib.org/</dc:title>
     </cc:Agent>
    </dc:creator>
   </cc:Work>
  </rdf:RDF>
 </metadata>
 <defs>
  <style type="text/css">*{stroke-linejoin: round; stroke-linecap: butt}</style>
 </defs>
 <g id="figure_1">
  <g id="patch_1">
   <path d="M 0 576 
L 1728 576 
L 1728 0 
L 0 0 
L 0 576 
z
" style="fill: none"/>
  </g>
  <g id="axes_1">
   <g id="patch_2">
    <path d="M 216 512.64 
L 1555.2 512.64 
L 1555.2 69.12 
L 216 69.12 
L 216 512.64 
z
" style="fill: none"/>
   </g>
   <g id="FillBetweenPolyCollection_1">
    <defs>
     <path id="m573246d3a5" d="M 276.872727 -147.970212 
L 276.872727 -99.394602 
L 340.949282 -196.480897 
L 405.025837 -277.419303 
L 469.102392 -327.329354 
L 533.178947 -360.770433 
L 597.255502 -382.994937 
L 661.332057 -400.644744 
L 725.408612 -417.850267 
L 789.485167 -428.318026 
L 853.561722 -435.305745 
L 917.638278 -442.737996 
L 981.714833 -449.899964 
L 1045.791388 -453.671255 
L 1109.867943 -458.236647 
L 1173.944498 -464.341101 
L 1238.021053 -466.300569 
L 1302.097608 -468.027592 
L 1366.174163 -471.280036 
L 1430.250718 -473.992848 
L 1494.327273 -477.251672 
L 1494.327273 -486.72 
L 1494.327273 -486.72 
L 1430.250718 -484.046035 
L 1366.174163 -481.739575 
L 1302.097608 -479.428423 
L 1238.021053 -478.592594 
L 1173.944498 -476.170139 
L 1109.867943 -471.978697 
L 1045.791388 -468.616668 
L 981.714833 -464.711104 
L 917.638278 -460.281667 
L 853.561722 -453.978406 
L 789.485167 -448.436673 
L 725.408612 -440.494006 
L 661.332057 -426.131862 
L 597.255502 -410.105434 
L 533.178947 -391.034612 
L 469.102392 -361.997823 
L 405.025837 -313.581378 
L 340.949282 -238.81201 
L 276.872727 -147.970212 
z
" style="stroke: #1f77b4; stroke-opacity: 0.2"/>
    </defs>
    <g clip-path="url(#pa91c4ceb31)">
     <use xlink:href="#m573246d3a5" x="0" y="576" style="fill: #1f77b4; fill-opacity: 0.2; stroke: #1f77b4; stroke-opacity: 0.2"/>
    </g>
   </g>
   <g id="FillBetweenPolyCollection_2">
    <defs>
     <path id="m019ebceea7" d="M 276.872727 -130.422673 
L 276.872727 -88.046488 
L 340.949282 -158.228921 
L 405.025837 -212.737782 
L 469.102392 -252.68643 
L 533.178947 -285.63021 
L 597.255502 -318.433287 
L 661.332057 -350.112569 
L 725.408612 -366.814902 
L 789.485167 -382.260608 
L 853.561722 -398.321391 
L 917.638278 -404.682571 
L 981.714833 -411.370379 
L 1045.791388 -418.374112 
L 1109.867943 -426.587049 
L 1173.944498 -428.670738 
L 1238.021053 -433.806098 
L 1302.097608 -437.635209 
L 1366.174163 -442.451643 
L 1430.250718 -445.396651 
L 1494.327273 -448.324993 
L 1494.327273 -458.947069 
L 1494.327273 -458.947069 
L 1430.250718 -457.117012 
L 1366.174163 -454.707894 
L 1302.097608 -450.465389 
L 1238.021053 -448.561611 
L 1173.944498 -445.518033 
L 1109.867943 -442.76132 
L 1045.791388 -436.303678 
L 981.714833 -432.337136 
L 917.638278 -427.192968 
L 853.561722 -421.976152 
L 789.485167 -409.969394 
L 725.408612 -396.27231 
L 661.332057 -381.630925 
L 597.255502 -353.705679 
L 533.178947 -326.718055 
L 469.102392 -298.461553 
L 405.025837 -258.866584 
L 340.949282 -205.590131 
L 276.872727 -130.422673 
z
" style="stroke: #ff7f0e; stroke-opacity: 0.2"/>
    </defs>
    <g clip-path="url(#pa91c4ceb31)">
     <use xlink:href="#m019ebceea7" x="0" y="576" style="fill: #ff7f0e; fill-opacity: 0.2; stroke: #ff7f0e; stroke-opacity: 0.2"/>
    </g>
   </g>
   <g id="FillBetweenPolyCollection_3">
    <defs>
     <path id="m1947450737" d="M 276.872727 -130.395261 
L 276.872727 -86.939019 
L 340.949282 -168.521864 
L 405.025837 -206.292405 
L 469.102392 -237.628834 
L 533.178947 -265.319584 
L 597.255502 -286.808233 
L 661.332057 -322.551804 
L 725.408612 -356.45171 
L 789.485167 -368.835058 
L 853.561722 -377.917987 
L 917.638278 -393.701316 
L 981.714833 -403.216398 
L 1045.791388 -411.284373 
L 1109.867943 -416.586393 
L 1173.944498 -419.823207 
L 1238.021053 -426.225669 
L 1302.097608 -430.192936 
L 1366.174163 -433.73717 
L 1430.250718 -438.19881 
L 1494.327273 -441.770272 
L 1494.327273 -456.131358 
L 1494.327273 -456.131358 
L 1430.250718 -453.714652 
L 1366.174163 -449.913407 
L 1302.097608 -447.403037 
L 1238.021053 -443.67461 
L 1173.944498 -438.953396 
L 1109.867943 -434.546502 
L 1045.791388 -431.087735 
L 981.714833 -423.223267 
L 917.638278 -415.675779 
L 853.561722 -402.997191 
L 789.485167 -393.610838 
L 725.408612 -385.165648 
L 661.332057 -355.598206 
L 597.255502 -329.615031 
L 533.178947 -307.643655 
L 469.102392 -282.567808 
L 405.025837 -251.215892 
L 340.949282 -214.977805 
L 276.872727 -130.395261 
z
" style="stroke: #2ca02c; stroke-opacity: 0.2"/>
    </defs>
    <g clip-path="url(#pa91c4ceb31)">
     <use xlink:href="#m1947450737" x="0" y="576" style="fill: #2ca02c; fill-opacity: 0.2; stroke: #2ca02c; stroke-opacity: 0.2"/>
    </g>
   </g>
   <g id="FillBetweenPolyCollection_4">
    <defs>
     <path id="m220fea731c" d="M 276.872727 -141.473595 
L 276.872727 -102.348192 
L 340.949282 -164.421788 
L 405.025837 -210.699129 
L 469.102392 -253.925063 
L 533.178947 -285.188055 
L 597.255502 -311.250948 
L 661.332057 -330.369958 
L 725.408612 -340.481981 
L 789.485167 -350.148357 
L 853.561722 -360.53314 
L 917.638278 -369.742641 
L 981.714833 -380.465714 
L 1045.791388 -384.004128 
L 1109.867943 -390.095358 
L 1173.944498 -394.816955 
L 1238.021053 -399.062121 
L 1302.097608 -405.333349 
L 1366.174163 -408.025081 
L 1430.250718 -412.42291 
L 1494.327273 -419.718937 
L 1494.327273 -437.304586 
L 1494.327273 -437.304586 
L 1430.250718 -430.559717 
L 1366.174163 -426.734708 
L 1302.097608 -424.453211 
L 1238.021053 -418.508001 
L 1173.944498 -415.118432 
L 1109.867943 -409.966775 
L 1045.791388 -406.376241 
L 981.714833 -402.463331 
L 917.638278 -394.338218 
L 853.561722 -387.571906 
L 789.485167 -379.525118 
L 725.408612 -371.382615 
L 661.332057 -362.608384 
L 597.255502 -347.559518 
L 533.178947 -323.669615 
L 469.102392 -294.032003 
L 405.025837 -253.851726 
L 340.949282 -208.310616 
L 276.872727 -141.473595 
z
" style="stroke: #d62728; stroke-opacity: 0.2"/>
    </defs>
    <g clip-path="url(#pa91c4ceb31)">
     <use xlink:href="#m220fea731c" x="0" y="576" style="fill: #d62728; fill-opacity: 0.2; stroke: #d62728; stroke-opacity: 0.2"/>
    </g>
   </g>
   <g id="FillBetweenPolyCollection_5">
    <defs>
     <path id="m89837f5b58" d="M 276.872727 -124.94199 
L 276.872727 -83.52 
L 340.949282 -176.929612 
L 405.025837 -224.190911 
L 469.102392 -258.959347 
L 533.178947 -284.158763 
L 597.255502 -308.884183 
L 661.332057 -318.409182 
L 725.408612 -336.324694 
L 789.485167 -347.450535 
L 853.561722 -354.293435 
L 917.638278 -363.683713 
L 981.714833 -371.780698 
L 1045.791388 -382.226432 
L 1109.867943 -387.97111 
L 1173.944498 -392.300445 
L 1238.021053 -397.683013 
L 1302.097608 -400.597642 
L 1366.174163 -403.758776 
L 1430.250718 -406.93031 
L 1494.327273 -409.557059 
L 1494.327273 -425.618735 
L 1494.327273 -425.618735 
L 1430.250718 -423.166653 
L 1366.174163 -420.536518 
L 1302.097608 -418.226069 
L 1238.021053 -415.497279 
L 1173.944498 -410.91114 
L 1109.867943 -407.370959 
L 1045.791388 -402.381101 
L 981.714833 -393.503225 
L 917.638278 -386.359116 
L 853.561722 -378.782946 
L 789.485167 -372.994715 
L 725.408612 -363.460553 
L 661.332057 -349.592919 
L 597.255502 -340.197196 
L 533.178947 -320.657758 
L 469.102392 -295.100043 
L 405.025837 -264.294032 
L 340.949282 -219.653812 
L 276.872727 -124.94199 
z
" style="stroke: #9467bd; stroke-opacity: 0.2"/>
    </defs>
    <g clip-path="url(#pa91c4ceb31)">
     <use xlink:href="#m89837f5b58" x="0" y="576" style="fill: #9467bd; fill-opacity: 0.2; stroke: #9467bd; stroke-opacity: 0.2"/>
    </g>
   </g>
   <g id="matplotlib.axis_1">
    <g id="xtick_1">
     <g id="line2d_1">
      <defs>
       <path id="m642368750a" d="M 0 0 
L 0 3.5 
" style="stroke: #000000; stroke-width: 0.8"/>
      </defs>
      <g>
       <use xlink:href="#m642368750a" x="372.98756" y="512.64" style="stroke: #000000; stroke-width: 0.8"/>
      </g>
     </g>
     <g id="text_1">
      <!-- 5 -->
      <g transform="translate(365.98881 536.356562) scale(0.22 -0.22)">
       <defs>
        <path id="DejaVuSans-35" d="M 691 4666 
L 3169 4666 
L 3169 4134 
L 1269 4134 
L 1269 2991 
Q 1406 3038 1543 3061 
Q 1681 3084 1819 3084 
Q 2600 3084 3056 2656 
Q 3513 2228 3513 1497 
Q 3513 744 3044 326 
Q 2575 -91 1722 -91 
Q 1428 -91 1123 -41 
Q 819 9 494 109 
L 494 744 
Q 775 591 1075 516 
Q 1375 441 1709 441 
Q 2250 441 2565 725 
Q 2881 1009 2881 1497 
Q 2881 1984 2565 2268 
Q 2250 2553 1709 2553 
Q 1456 2553 1204 2497 
Q 953 2441 691 2322 
L 691 4666 
z
" transform="scale(0.015625)"/>
       </defs>
       <use xlink:href="#DejaVuSans-35"/>
      </g>
     </g>
    </g>
    <g id="xtick_2">
     <g id="line2d_2">
      <g>
       <use xlink:href="#m642368750a" x="533.178947" y="512.64" style="stroke: #000000; stroke-width: 0.8"/>
      </g>
     </g>
     <g id="text_2">
      <!-- 10 -->
      <g transform="translate(519.181447 536.356562) scale(0.22 -0.22)">
       <defs>
        <path id="DejaVuSans-31" d="M 794 531 
L 1825 531 
L 1825 4091 
L 703 3866 
L 703 4441 
L 1819 4666 
L 2450 4666 
L 2450 531 
L 3481 531 
L 3481 0 
L 794 0 
L 794 531 
z
" transform="scale(0.015625)"/>
        <path id="DejaVuSans-30" d="M 2034 4250 
Q 1547 4250 1301 3770 
Q 1056 3291 1056 2328 
Q 1056 1369 1301 889 
Q 1547 409 2034 409 
Q 2525 409 2770 889 
Q 3016 1369 3016 2328 
Q 3016 3291 2770 3770 
Q 2525 4250 2034 4250 
z
M 2034 4750 
Q 2819 4750 3233 4129 
Q 3647 3509 3647 2328 
Q 3647 1150 3233 529 
Q 2819 -91 2034 -91 
Q 1250 -91 836 529 
Q 422 1150 422 2328 
Q 422 3509 836 4129 
Q 1250 4750 2034 4750 
z
" transform="scale(0.015625)"/>
       </defs>
       <use xlink:href="#DejaVuSans-31"/>
       <use xlink:href="#DejaVuSans-30" transform="translate(63.623047 0)"/>
      </g>
     </g>
    </g>
    <g id="xtick_3">
     <g id="line2d_3">
      <g>
       <use xlink:href="#m642368750a" x="693.370335" y="512.64" style="stroke: #000000; stroke-width: 0.8"/>
      </g>
     </g>
     <g id="text_3">
      <!-- 15 -->
      <g transform="translate(679.372835 536.356562) scale(0.22 -0.22)">
       <use xlink:href="#DejaVuSans-31"/>
       <use xlink:href="#DejaVuSans-35" transform="translate(63.623047 0)"/>
      </g>
     </g>
    </g>
    <g id="xtick_4">
     <g id="line2d_4">
      <g>
       <use xlink:href="#m642368750a" x="853.561722" y="512.64" style="stroke: #000000; stroke-width: 0.8"/>
      </g>
     </g>
     <g id="text_4">
      <!-- 20 -->
      <g transform="translate(839.564222 536.356562) scale(0.22 -0.22)">
       <defs>
        <path id="DejaVuSans-32" d="M 1228 531 
L 3431 531 
L 3431 0 
L 469 0 
L 469 531 
Q 828 903 1448 1529 
Q 2069 2156 2228 2338 
Q 2531 2678 2651 2914 
Q 2772 3150 2772 3378 
Q 2772 3750 2511 3984 
Q 2250 4219 1831 4219 
Q 1534 4219 1204 4116 
Q 875 4013 500 3803 
L 500 4441 
Q 881 4594 1212 4672 
Q 1544 4750 1819 4750 
Q 2544 4750 2975 4387 
Q 3406 4025 3406 3419 
Q 3406 3131 3298 2873 
Q 3191 2616 2906 2266 
Q 2828 2175 2409 1742 
Q 1991 1309 1228 531 
z
" transform="scale(0.015625)"/>
       </defs>
       <use xlink:href="#DejaVuSans-32"/>
       <use xlink:href="#DejaVuSans-30" transform="translate(63.623047 0)"/>
      </g>
     </g>
    </g>
    <g id="xtick_5">
     <g id="line2d_5">
      <g>
       <use xlink:href="#m642368750a" x="1013.75311" y="512.64" style="stroke: #000000; stroke-width: 0.8"/>
      </g>
     </g>
     <g id="text_5">
      <!-- 25 -->
      <g transform="translate(999.75561 536.356562) scale(0.22 -0.22)">
       <use xlink:href="#DejaVuSans-32"/>
       <use xlink:href="#DejaVuSans-35" transform="translate(63.623047 0)"/>
      </g>
     </g>
    </g>
    <g id="xtick_6">
     <g id="line2d_6">
      <g>
       <use xlink:href="#m642368750a" x="1173.944498" y="512.64" style="stroke: #000000; stroke-width: 0.8"/>
      </g>
     </g>
     <g id="text_6">
      <!-- 30 -->
      <g transform="translate(1159.946998 536.356562) scale(0.22 -0.22)">
       <defs>
        <path id="DejaVuSans-33" d="M 2597 2516 
Q 3050 2419 3304 2112 
Q 3559 1806 3559 1356 
Q 3559 666 3084 287 
Q 2609 -91 1734 -91 
Q 1441 -91 1130 -33 
Q 819 25 488 141 
L 488 750 
Q 750 597 1062 519 
Q 1375 441 1716 441 
Q 2309 441 2620 675 
Q 2931 909 2931 1356 
Q 2931 1769 2642 2001 
Q 2353 2234 1838 2234 
L 1294 2234 
L 1294 2753 
L 1863 2753 
Q 2328 2753 2575 2939 
Q 2822 3125 2822 3475 
Q 2822 3834 2567 4026 
Q 2313 4219 1838 4219 
Q 1578 4219 1281 4162 
Q 984 4106 628 3988 
L 628 4550 
Q 988 4650 1302 4700 
Q 1616 4750 1894 4750 
Q 2613 4750 3031 4423 
Q 3450 4097 3450 3541 
Q 3450 3153 3228 2886 
Q 3006 2619 2597 2516 
z
" transform="scale(0.015625)"/>
       </defs>
       <use xlink:href="#DejaVuSans-33"/>
       <use xlink:href="#DejaVuSans-30" transform="translate(63.623047 0)"/>
      </g>
     </g>
    </g>
    <g id="xtick_7">
     <g id="line2d_7">
      <g>
       <use xlink:href="#m642368750a" x="1334.135885" y="512.64" style="stroke: #000000; stroke-width: 0.8"/>
      </g>
     </g>
     <g id="text_7">
      <!-- 35 -->
      <g transform="translate(1320.138385 536.356562) scale(0.22 -0.22)">
       <use xlink:href="#DejaVuSans-33"/>
       <use xlink:href="#DejaVuSans-35" transform="translate(63.623047 0)"/>
      </g>
     </g>
    </g>
    <g id="xtick_8">
     <g id="line2d_8">
      <g>
       <use xlink:href="#m642368750a" x="1494.327273" y="512.64" style="stroke: #000000; stroke-width: 0.8"/>
      </g>
     </g>
     <g id="text_8">
      <!-- 40 -->
      <g transform="translate(1480.329773 536.356562) scale(0.22 -0.22)">
       <defs>
        <path id="DejaVuSans-34" d="M 2419 4116 
L 825 1625 
L 2419 1625 
L 2419 4116 
z
M 2253 4666 
L 3047 4666 
L 3047 1625 
L 3713 1625 
L 3713 1100 
L 3047 1100 
L 3047 0 
L 2419 0 
L 2419 1100 
L 313 1100 
L 313 1709 
L 2253 4666 
z
" transform="scale(0.015625)"/>
       </defs>
       <use xlink:href="#DejaVuSans-34"/>
       <use xlink:href="#DejaVuSans-30" transform="translate(63.623047 0)"/>
      </g>
     </g>
    </g>
    <g id="text_9">
     <!-- Num_Experiments -->
     <g transform="translate(784.896719 561.648438) scale(0.22 -0.22)">
      <defs>
       <path id="DejaVuSans-4e" d="M 628 4666 
L 1478 4666 
L 3547 763 
L 3547 4666 
L 4159 4666 
L 4159 0 
L 3309 0 
L 1241 3903 
L 1241 0 
L 628 0 
L 628 4666 
z
" transform="scale(0.015625)"/>
       <path id="DejaVuSans-75" d="M 544 1381 
L 544 3500 
L 1119 3500 
L 1119 1403 
Q 1119 906 1312 657 
Q 1506 409 1894 409 
Q 2359 409 2629 706 
Q 2900 1003 2900 1516 
L 2900 3500 
L 3475 3500 
L 3475 0 
L 2900 0 
L 2900 538 
Q 2691 219 2414 64 
Q 2138 -91 1772 -91 
Q 1169 -91 856 284 
Q 544 659 544 1381 
z
M 1991 3584 
L 1991 3584 
z
" transform="scale(0.015625)"/>
       <path id="DejaVuSans-6d" d="M 3328 2828 
Q 3544 3216 3844 3400 
Q 4144 3584 4550 3584 
Q 5097 3584 5394 3201 
Q 5691 2819 5691 2113 
L 5691 0 
L 5113 0 
L 5113 2094 
Q 5113 2597 4934 2840 
Q 4756 3084 4391 3084 
Q 3944 3084 3684 2787 
Q 3425 2491 3425 1978 
L 3425 0 
L 2847 0 
L 2847 2094 
Q 2847 2600 2669 2842 
Q 2491 3084 2119 3084 
Q 1678 3084 1418 2786 
Q 1159 2488 1159 1978 
L 1159 0 
L 581 0 
L 581 3500 
L 1159 3500 
L 1159 2956 
Q 1356 3278 1631 3431 
Q 1906 3584 2284 3584 
Q 2666 3584 2933 3390 
Q 3200 3197 3328 2828 
z
" transform="scale(0.015625)"/>
       <path id="DejaVuSans-5f" d="M 3263 -1063 
L 3263 -1509 
L -63 -1509 
L -63 -1063 
L 3263 -1063 
z
" transform="scale(0.015625)"/>
       <path id="DejaVuSans-45" d="M 628 4666 
L 3578 4666 
L 3578 4134 
L 1259 4134 
L 1259 2753 
L 3481 2753 
L 3481 2222 
L 1259 2222 
L 1259 531 
L 3634 531 
L 3634 0 
L 628 0 
L 628 4666 
z
" transform="scale(0.015625)"/>
       <path id="DejaVuSans-78" d="M 3513 3500 
L 2247 1797 
L 3578 0 
L 2900 0 
L 1881 1375 
L 863 0 
L 184 0 
L 1544 1831 
L 300 3500 
L 978 3500 
L 1906 2253 
L 2834 3500 
L 3513 3500 
z
" transform="scale(0.015625)"/>
       <path id="DejaVuSans-70" d="M 1159 525 
L 1159 -1331 
L 581 -1331 
L 581 3500 
L 1159 3500 
L 1159 2969 
Q 1341 3281 1617 3432 
Q 1894 3584 2278 3584 
Q 2916 3584 3314 3078 
Q 3713 2572 3713 1747 
Q 3713 922 3314 415 
Q 2916 -91 2278 -91 
Q 1894 -91 1617 61 
Q 1341 213 1159 525 
z
M 3116 1747 
Q 3116 2381 2855 2742 
Q 2594 3103 2138 3103 
Q 1681 3103 1420 2742 
Q 1159 2381 1159 1747 
Q 1159 1113 1420 752 
Q 1681 391 2138 391 
Q 2594 391 2855 752 
Q 3116 1113 3116 1747 
z
" transform="scale(0.015625)"/>
       <path id="DejaVuSans-65" d="M 3597 1894 
L 3597 1613 
L 953 1613 
Q 991 1019 1311 708 
Q 1631 397 2203 397 
Q 2534 397 2845 478 
Q 3156 559 3463 722 
L 3463 178 
Q 3153 47 2828 -22 
Q 2503 -91 2169 -91 
Q 1331 -91 842 396 
Q 353 884 353 1716 
Q 353 2575 817 3079 
Q 1281 3584 2069 3584 
Q 2775 3584 3186 3129 
Q 3597 2675 3597 1894 
z
M 3022 2063 
Q 3016 2534 2758 2815 
Q 2500 3097 2075 3097 
Q 1594 3097 1305 2825 
Q 1016 2553 972 2059 
L 3022 2063 
z
" transform="scale(0.015625)"/>
       <path id="DejaVuSans-72" d="M 2631 2963 
Q 2534 3019 2420 3045 
Q 2306 3072 2169 3072 
Q 1681 3072 1420 2755 
Q 1159 2438 1159 1844 
L 1159 0 
L 581 0 
L 581 3500 
L 1159 3500 
L 1159 2956 
Q 1341 3275 1631 3429 
Q 1922 3584 2338 3584 
Q 2397 3584 2469 3576 
Q 2541 3569 2628 3553 
L 2631 2963 
z
" transform="scale(0.015625)"/>
       <path id="DejaVuSans-69" d="M 603 3500 
L 1178 3500 
L 1178 0 
L 603 0 
L 603 3500 
z
M 603 4863 
L 1178 4863 
L 1178 4134 
L 603 4134 
L 603 4863 
z
" transform="scale(0.015625)"/>
       <path id="DejaVuSans-6e" d="M 3513 2113 
L 3513 0 
L 2938 0 
L 2938 2094 
Q 2938 2591 2744 2837 
Q 2550 3084 2163 3084 
Q 1697 3084 1428 2787 
Q 1159 2491 1159 1978 
L 1159 0 
L 581 0 
L 581 3500 
L 1159 3500 
L 1159 2956 
Q 1366 3272 1645 3428 
Q 1925 3584 2291 3584 
Q 2894 3584 3203 3211 
Q 3513 2838 3513 2113 
z
" transform="scale(0.015625)"/>
       <path id="DejaVuSans-74" d="M 1172 4494 
L 1172 3500 
L 2356 3500 
L 2356 3053 
L 1172 3053 
L 1172 1153 
Q 1172 725 1289 603 
Q 1406 481 1766 481 
L 2356 481 
L 2356 0 
L 1766 0 
Q 1100 0 847 248 
Q 594 497 594 1153 
L 594 3053 
L 172 3053 
L 172 3500 
L 594 3500 
L 594 4494 
L 1172 4494 
z
" transform="scale(0.015625)"/>
       <path id="DejaVuSans-73" d="M 2834 3397 
L 2834 2853 
Q 2591 2978 2328 3040 
Q 2066 3103 1784 3103 
Q 1356 3103 1142 2972 
Q 928 2841 928 2578 
Q 928 2378 1081 2264 
Q 1234 2150 1697 2047 
L 1894 2003 
Q 2506 1872 2764 1633 
Q 3022 1394 3022 966 
Q 3022 478 2636 193 
Q 2250 -91 1575 -91 
Q 1294 -91 989 -36 
Q 684 19 347 128 
L 347 722 
Q 666 556 975 473 
Q 1284 391 1588 391 
Q 1994 391 2212 530 
Q 2431 669 2431 922 
Q 2431 1156 2273 1281 
Q 2116 1406 1581 1522 
L 1381 1569 
Q 847 1681 609 1914 
Q 372 2147 372 2553 
Q 372 3047 722 3315 
Q 1072 3584 1716 3584 
Q 2034 3584 2315 3537 
Q 2597 3491 2834 3397 
z
" transform="scale(0.015625)"/>
      </defs>
      <use xlink:href="#DejaVuSans-4e"/>
      <use xlink:href="#DejaVuSans-75" transform="translate(74.804688 0)"/>
      <use xlink:href="#DejaVuSans-6d" transform="translate(138.183594 0)"/>
      <use xlink:href="#DejaVuSans-5f" transform="translate(235.595703 0)"/>
      <use xlink:href="#DejaVuSans-45" transform="translate(285.595703 0)"/>
      <use xlink:href="#DejaVuSans-78" transform="translate(348.779297 0)"/>
      <use xlink:href="#DejaVuSans-70" transform="translate(407.958984 0)"/>
      <use xlink:href="#DejaVuSans-65" transform="translate(471.435547 0)"/>
      <use xlink:href="#DejaVuSans-72" transform="translate(532.958984 0)"/>
      <use xlink:href="#DejaVuSans-69" transform="translate(574.072266 0)"/>
      <use xlink:href="#DejaVuSans-6d" transform="translate(601.855469 0)"/>
      <use xlink:href="#DejaVuSans-65" transform="translate(699.267578 0)"/>
      <use xlink:href="#DejaVuSans-6e" transform="translate(760.791016 0)"/>
      <use xlink:href="#DejaVuSans-74" transform="translate(824.169922 0)"/>
      <use xlink:href="#DejaVuSans-73" transform="translate(863.378906 0)"/>
     </g>
    </g>
   </g>
   <g id="matplotlib.axis_2">
    <g id="ytick_1">
     <g id="line2d_9">
      <defs>
       <path id="md46a9775cd" d="M 0 0 
L -3.5 0 
" style="stroke: #000000; stroke-width: 0.8"/>
      </defs>
      <g>
       <use xlink:href="#md46a9775cd" x="216" y="472.981794" style="stroke: #000000; stroke-width: 0.8"/>
      </g>
     </g>
     <g id="text_10">
      <!-- 30 -->
      <g transform="translate(181.005 481.340076) scale(0.22 -0.22)">
       <use xlink:href="#DejaVuSans-33"/>
       <use xlink:href="#DejaVuSans-30" transform="translate(63.623047 0)"/>
      </g>
     </g>
    </g>
    <g id="ytick_2">
     <g id="line2d_10">
      <g>
       <use xlink:href="#md46a9775cd" x="216" y="416.19796" style="stroke: #000000; stroke-width: 0.8"/>
      </g>
     </g>
     <g id="text_11">
      <!-- 40 -->
      <g transform="translate(181.005 424.556242) scale(0.22 -0.22)">
       <use xlink:href="#DejaVuSans-34"/>
       <use xlink:href="#DejaVuSans-30" transform="translate(63.623047 0)"/>
      </g>
     </g>
    </g>
    <g id="ytick_3">
     <g id="line2d_11">
      <g>
       <use xlink:href="#md46a9775cd" x="216" y="359.414127" style="stroke: #000000; stroke-width: 0.8"/>
      </g>
     </g>
     <g id="text_12">
      <!-- 50 -->
      <g transform="translate(181.005 367.772408) scale(0.22 -0.22)">
       <use xlink:href="#DejaVuSans-35"/>
       <use xlink:href="#DejaVuSans-30" transform="translate(63.623047 0)"/>
      </g>
     </g>
    </g>
    <g id="ytick_4">
     <g id="line2d_12">
      <g>
       <use xlink:href="#md46a9775cd" x="216" y="302.630293" style="stroke: #000000; stroke-width: 0.8"/>
      </g>
     </g>
     <g id="text_13">
      <!-- 60 -->
      <g transform="translate(181.005 310.988574) scale(0.22 -0.22)">
       <defs>
        <path id="DejaVuSans-36" d="M 2113 2584 
Q 1688 2584 1439 2293 
Q 1191 2003 1191 1497 
Q 1191 994 1439 701 
Q 1688 409 2113 409 
Q 2538 409 2786 701 
Q 3034 994 3034 1497 
Q 3034 2003 2786 2293 
Q 2538 2584 2113 2584 
z
M 3366 4563 
L 3366 3988 
Q 3128 4100 2886 4159 
Q 2644 4219 2406 4219 
Q 1781 4219 1451 3797 
Q 1122 3375 1075 2522 
Q 1259 2794 1537 2939 
Q 1816 3084 2150 3084 
Q 2853 3084 3261 2657 
Q 3669 2231 3669 1497 
Q 3669 778 3244 343 
Q 2819 -91 2113 -91 
Q 1303 -91 875 529 
Q 447 1150 447 2328 
Q 447 3434 972 4092 
Q 1497 4750 2381 4750 
Q 2619 4750 2861 4703 
Q 3103 4656 3366 4563 
z
" transform="scale(0.015625)"/>
       </defs>
       <use xlink:href="#DejaVuSans-36"/>
       <use xlink:href="#DejaVuSans-30" transform="translate(63.623047 0)"/>
      </g>
     </g>
    </g>
    <g id="ytick_5">
     <g id="line2d_13">
      <g>
       <use xlink:href="#md46a9775cd" x="216" y="245.846459" style="stroke: #000000; stroke-width: 0.8"/>
      </g>
     </g>
     <g id="text_14">
      <!-- 70 -->
      <g transform="translate(181.005 254.20474) scale(0.22 -0.22)">
       <defs>
        <path id="DejaVuSans-37" d="M 525 4666 
L 3525 4666 
L 3525 4397 
L 1831 0 
L 1172 0 
L 2766 4134 
L 525 4134 
L 525 4666 
z
" transform="scale(0.015625)"/>
       </defs>
       <use xlink:href="#DejaVuSans-37"/>
       <use xlink:href="#DejaVuSans-30" transform="translate(63.623047 0)"/>
      </g>
     </g>
    </g>
    <g id="ytick_6">
     <g id="line2d_14">
      <g>
       <use xlink:href="#md46a9775cd" x="216" y="189.062625" style="stroke: #000000; stroke-width: 0.8"/>
      </g>
     </g>
     <g id="text_15">
      <!-- 80 -->
      <g transform="translate(181.005 197.420907) scale(0.22 -0.22)">
       <defs>
        <path id="DejaVuSans-38" d="M 2034 2216 
Q 1584 2216 1326 1975 
Q 1069 1734 1069 1313 
Q 1069 891 1326 650 
Q 1584 409 2034 409 
Q 2484 409 2743 651 
Q 3003 894 3003 1313 
Q 3003 1734 2745 1975 
Q 2488 2216 2034 2216 
z
M 1403 2484 
Q 997 2584 770 2862 
Q 544 3141 544 3541 
Q 544 4100 942 4425 
Q 1341 4750 2034 4750 
Q 2731 4750 3128 4425 
Q 3525 4100 3525 3541 
Q 3525 3141 3298 2862 
Q 3072 2584 2669 2484 
Q 3125 2378 3379 2068 
Q 3634 1759 3634 1313 
Q 3634 634 3220 271 
Q 2806 -91 2034 -91 
Q 1263 -91 848 271 
Q 434 634 434 1313 
Q 434 1759 690 2068 
Q 947 2378 1403 2484 
z
M 1172 3481 
Q 1172 3119 1398 2916 
Q 1625 2713 2034 2713 
Q 2441 2713 2670 2916 
Q 2900 3119 2900 3481 
Q 2900 3844 2670 4047 
Q 2441 4250 2034 4250 
Q 1625 4250 1398 4047 
Q 1172 3844 1172 3481 
z
" transform="scale(0.015625)"/>
       </defs>
       <use xlink:href="#DejaVuSans-38"/>
       <use xlink:href="#DejaVuSans-30" transform="translate(63.623047 0)"/>
      </g>
     </g>
    </g>
    <g id="ytick_7">
     <g id="line2d_15">
      <g>
       <use xlink:href="#md46a9775cd" x="216" y="132.278792" style="stroke: #000000; stroke-width: 0.8"/>
      </g>
     </g>
     <g id="text_16">
      <!-- 90 -->
      <g transform="translate(181.005 140.637073) scale(0.22 -0.22)">
       <defs>
        <path id="DejaVuSans-39" d="M 703 97 
L 703 672 
Q 941 559 1184 500 
Q 1428 441 1663 441 
Q 2288 441 2617 861 
Q 2947 1281 2994 2138 
Q 2813 1869 2534 1725 
Q 2256 1581 1919 1581 
Q 1219 1581 811 2004 
Q 403 2428 403 3163 
Q 403 3881 828 4315 
Q 1253 4750 1959 4750 
Q 2769 4750 3195 4129 
Q 3622 3509 3622 2328 
Q 3622 1225 3098 567 
Q 2575 -91 1691 -91 
Q 1453 -91 1209 -44 
Q 966 3 703 97 
z
M 1959 2075 
Q 2384 2075 2632 2365 
Q 2881 2656 2881 3163 
Q 2881 3666 2632 3958 
Q 2384 4250 1959 4250 
Q 1534 4250 1286 3958 
Q 1038 3666 1038 3163 
Q 1038 2656 1286 2365 
Q 1534 2075 1959 2075 
z
" transform="scale(0.015625)"/>
       </defs>
       <use xlink:href="#DejaVuSans-39"/>
       <use xlink:href="#DejaVuSans-30" transform="translate(63.623047 0)"/>
      </g>
     </g>
    </g>
    <g id="ytick_8">
     <g id="line2d_16">
      <g>
       <use xlink:href="#md46a9775cd" x="216" y="75.494958" style="stroke: #000000; stroke-width: 0.8"/>
      </g>
     </g>
     <g id="text_17">
      <!-- 100 -->
      <g transform="translate(167.0075 83.853239) scale(0.22 -0.22)">
       <use xlink:href="#DejaVuSans-31"/>
       <use xlink:href="#DejaVuSans-30" transform="translate(63.623047 0)"/>
       <use xlink:href="#DejaVuSans-30" transform="translate(127.246094 0)"/>
      </g>
     </g>
    </g>
    <g id="text_18">
     <!-- yield_CumBest -->
     <g transform="translate(157.820312 372.479375) rotate(-90) scale(0.22 -0.22)">
      <defs>
       <path id="DejaVuSans-79" d="M 2059 -325 
Q 1816 -950 1584 -1140 
Q 1353 -1331 966 -1331 
L 506 -1331 
L 506 -850 
L 844 -850 
Q 1081 -850 1212 -737 
Q 1344 -625 1503 -206 
L 1606 56 
L 191 3500 
L 800 3500 
L 1894 763 
L 2988 3500 
L 3597 3500 
L 2059 -325 
z
" transform="scale(0.015625)"/>
       <path id="DejaVuSans-6c" d="M 603 4863 
L 1178 4863 
L 1178 0 
L 603 0 
L 603 4863 
z
" transform="scale(0.015625)"/>
       <path id="DejaVuSans-64" d="M 2906 2969 
L 2906 4863 
L 3481 4863 
L 3481 0 
L 2906 0 
L 2906 525 
Q 2725 213 2448 61 
Q 2172 -91 1784 -91 
Q 1150 -91 751 415 
Q 353 922 353 1747 
Q 353 2572 751 3078 
Q 1150 3584 1784 3584 
Q 2172 3584 2448 3432 
Q 2725 3281 2906 2969 
z
M 947 1747 
Q 947 1113 1208 752 
Q 1469 391 1925 391 
Q 2381 391 2643 752 
Q 2906 1113 2906 1747 
Q 2906 2381 2643 2742 
Q 2381 3103 1925 3103 
Q 1469 3103 1208 2742 
Q 947 2381 947 1747 
z
" transform="scale(0.015625)"/>
       <path id="DejaVuSans-43" d="M 4122 4306 
L 4122 3641 
Q 3803 3938 3442 4084 
Q 3081 4231 2675 4231 
Q 1875 4231 1450 3742 
Q 1025 3253 1025 2328 
Q 1025 1406 1450 917 
Q 1875 428 2675 428 
Q 3081 428 3442 575 
Q 3803 722 4122 1019 
L 4122 359 
Q 3791 134 3420 21 
Q 3050 -91 2638 -91 
Q 1578 -91 968 557 
Q 359 1206 359 2328 
Q 359 3453 968 4101 
Q 1578 4750 2638 4750 
Q 3056 4750 3426 4639 
Q 3797 4528 4122 4306 
z
" transform="scale(0.015625)"/>
       <path id="DejaVuSans-42" d="M 1259 2228 
L 1259 519 
L 2272 519 
Q 2781 519 3026 730 
Q 3272 941 3272 1375 
Q 3272 1813 3026 2020 
Q 2781 2228 2272 2228 
L 1259 2228 
z
M 1259 4147 
L 1259 2741 
L 2194 2741 
Q 2656 2741 2882 2914 
Q 3109 3088 3109 3444 
Q 3109 3797 2882 3972 
Q 2656 4147 2194 4147 
L 1259 4147 
z
M 628 4666 
L 2241 4666 
Q 2963 4666 3353 4366 
Q 3744 4066 3744 3513 
Q 3744 3084 3544 2831 
Q 3344 2578 2956 2516 
Q 3422 2416 3680 2098 
Q 3938 1781 3938 1306 
Q 3938 681 3513 340 
Q 3088 0 2303 0 
L 628 0 
L 628 4666 
z
" transform="scale(0.015625)"/>
      </defs>
      <use xlink:href="#DejaVuSans-79"/>
      <use xlink:href="#DejaVuSans-69" transform="translate(59.179688 0)"/>
      <use xlink:href="#DejaVuSans-65" transform="translate(86.962891 0)"/>
      <use xlink:href="#DejaVuSans-6c" transform="translate(148.486328 0)"/>
      <use xlink:href="#DejaVuSans-64" transform="translate(176.269531 0)"/>
      <use xlink:href="#DejaVuSans-5f" transform="translate(239.746094 0)"/>
      <use xlink:href="#DejaVuSans-43" transform="translate(289.746094 0)"/>
      <use xlink:href="#DejaVuSans-75" transform="translate(359.570312 0)"/>
      <use xlink:href="#DejaVuSans-6d" transform="translate(422.949219 0)"/>
      <use xlink:href="#DejaVuSans-42" transform="translate(520.361328 0)"/>
      <use xlink:href="#DejaVuSans-65" transform="translate(588.964844 0)"/>
      <use xlink:href="#DejaVuSans-73" transform="translate(650.488281 0)"/>
      <use xlink:href="#DejaVuSans-74" transform="translate(702.587891 0)"/>
     </g>
    </g>
   </g>
   <g id="line2d_17">
    <path d="M 276.872727 452.7429 
L 340.949282 357.41278 
L 405.025837 279.860543 
L 469.102392 230.196835 
L 533.178947 200.565327 
L 597.255502 179.545939 
L 661.332057 162.869662 
L 725.408612 146.584627 
L 789.485167 137.339083 
L 853.561722 131.280532 
L 917.638278 124.180849 
L 981.714833 118.312524 
L 1045.791388 114.443557 
L 1109.867943 110.587367 
L 1173.944498 105.72951 
L 1238.021053 103.576551 
L 1302.097608 102.085124 
L 1366.174163 99.467957 
L 1430.250718 96.755109 
L 1494.327273 94.053902 
" clip-path="url(#pa91c4ceb31)" style="fill: none; stroke: #1f77b4; stroke-width: 1.5; stroke-linecap: square"/>
    <defs>
     <path id="m27d68b8ae2" d="M 0 5 
C 1.326016 5 2.597899 4.473168 3.535534 3.535534 
C 4.473168 2.597899 5 1.326016 5 0 
C 5 -1.326016 4.473168 -2.597899 3.535534 -3.535534 
C 2.597899 -4.473168 1.326016 -5 0 -5 
C -1.326016 -5 -2.597899 -4.473168 -3.535534 -3.535534 
C -4.473168 -2.597899 -5 -1.326016 -5 0 
C -5 1.326016 -4.473168 2.597899 -3.535534 3.535534 
C -2.597899 4.473168 -1.326016 5 0 5 
z
" style="stroke: #ffffff; stroke-width: 0.75"/>
    </defs>
    <g clip-path="url(#pa91c4ceb31)">
     <use xlink:href="#m27d68b8ae2" x="276.872727" y="452.7429" style="fill: #1f77b4; stroke: #ffffff; stroke-width: 0.75"/>
     <use xlink:href="#m27d68b8ae2" x="340.949282" y="357.41278" style="fill: #1f77b4; stroke: #ffffff; stroke-width: 0.75"/>
     <use xlink:href="#m27d68b8ae2" x="405.025837" y="279.860543" style="fill: #1f77b4; stroke: #ffffff; stroke-width: 0.75"/>
     <use xlink:href="#m27d68b8ae2" x="469.102392" y="230.196835" style="fill: #1f77b4; stroke: #ffffff; stroke-width: 0.75"/>
     <use xlink:href="#m27d68b8ae2" x="533.178947" y="200.565327" style="fill: #1f77b4; stroke: #ffffff; stroke-width: 0.75"/>
     <use xlink:href="#m27d68b8ae2" x="597.255502" y="179.545939" style="fill: #1f77b4; stroke: #ffffff; stroke-width: 0.75"/>
     <use xlink:href="#m27d68b8ae2" x="661.332057" y="162.869662" style="fill: #1f77b4; stroke: #ffffff; stroke-width: 0.75"/>
     <use xlink:href="#m27d68b8ae2" x="725.408612" y="146.584627" style="fill: #1f77b4; stroke: #ffffff; stroke-width: 0.75"/>
     <use xlink:href="#m27d68b8ae2" x="789.485167" y="137.339083" style="fill: #1f77b4; stroke: #ffffff; stroke-width: 0.75"/>
     <use xlink:href="#m27d68b8ae2" x="853.561722" y="131.280532" style="fill: #1f77b4; stroke: #ffffff; stroke-width: 0.75"/>
     <use xlink:href="#m27d68b8ae2" x="917.638278" y="124.180849" style="fill: #1f77b4; stroke: #ffffff; stroke-width: 0.75"/>
     <use xlink:href="#m27d68b8ae2" x="981.714833" y="118.312524" style="fill: #1f77b4; stroke: #ffffff; stroke-width: 0.75"/>
     <use xlink:href="#m27d68b8ae2" x="1045.791388" y="114.443557" style="fill: #1f77b4; stroke: #ffffff; stroke-width: 0.75"/>
     <use xlink:href="#m27d68b8ae2" x="1109.867943" y="110.587367" style="fill: #1f77b4; stroke: #ffffff; stroke-width: 0.75"/>
     <use xlink:href="#m27d68b8ae2" x="1173.944498" y="105.72951" style="fill: #1f77b4; stroke: #ffffff; stroke-width: 0.75"/>
     <use xlink:href="#m27d68b8ae2" x="1238.021053" y="103.576551" style="fill: #1f77b4; stroke: #ffffff; stroke-width: 0.75"/>
     <use xlink:href="#m27d68b8ae2" x="1302.097608" y="102.085124" style="fill: #1f77b4; stroke: #ffffff; stroke-width: 0.75"/>
     <use xlink:href="#m27d68b8ae2" x="1366.174163" y="99.467957" style="fill: #1f77b4; stroke: #ffffff; stroke-width: 0.75"/>
     <use xlink:href="#m27d68b8ae2" x="1430.250718" y="96.755109" style="fill: #1f77b4; stroke: #ffffff; stroke-width: 0.75"/>
     <use xlink:href="#m27d68b8ae2" x="1494.327273" y="94.053902" style="fill: #1f77b4; stroke: #ffffff; stroke-width: 0.75"/>
    </g>
   </g>
   <g id="line2d_18">
    <path d="M 276.872727 466.798319 
L 340.949282 393.564208 
L 405.025837 339.795028 
L 469.102392 300.138334 
L 533.178947 269.362916 
L 597.255502 239.176914 
L 661.332057 209.387263 
L 725.408612 194.921865 
L 789.485167 179.224542 
L 853.561722 165.886871 
L 917.638278 160.425686 
L 981.714833 154.096844 
L 1045.791388 148.546224 
L 1109.867943 141.235022 
L 1173.944498 138.309519 
L 1238.021053 134.873529 
L 1302.097608 131.807202 
L 1366.174163 127.493334 
L 1430.250718 124.599914 
L 1494.327273 122.189156 
" clip-path="url(#pa91c4ceb31)" style="fill: none; stroke: #ff7f0e; stroke-width: 1.5; stroke-linecap: square"/>
    <defs>
     <path id="me63ab39f46" d="M 0 5 
C 1.326016 5 2.597899 4.473168 3.535534 3.535534 
C 4.473168 2.597899 5 1.326016 5 0 
C 5 -1.326016 4.473168 -2.597899 3.535534 -3.535534 
C 2.597899 -4.473168 1.326016 -5 0 -5 
C -1.326016 -5 -2.597899 -4.473168 -3.535534 -3.535534 
C -4.473168 -2.597899 -5 -1.326016 -5 0 
C -5 1.326016 -4.473168 2.597899 -3.535534 3.535534 
C -2.597899 4.473168 -1.326016 5 0 5 
z
" style="stroke: #ffffff; stroke-width: 0.75"/>
    </defs>
    <g clip-path="url(#pa91c4ceb31)">
     <use xlink:href="#me63ab39f46" x="276.872727" y="466.798319" style="fill: #ff7f0e; stroke: #ffffff; stroke-width: 0.75"/>
     <use xlink:href="#me63ab39f46" x="340.949282" y="393.564208" style="fill: #ff7f0e; stroke: #ffffff; stroke-width: 0.75"/>
     <use xlink:href="#me63ab39f46" x="405.025837" y="339.795028" style="fill: #ff7f0e; stroke: #ffffff; stroke-width: 0.75"/>
     <use xlink:href="#me63ab39f46" x="469.102392" y="300.138334" style="fill: #ff7f0e; stroke: #ffffff; stroke-width: 0.75"/>
     <use xlink:href="#me63ab39f46" x="533.178947" y="269.362916" style="fill: #ff7f0e; stroke: #ffffff; stroke-width: 0.75"/>
     <use xlink:href="#me63ab39f46" x="597.255502" y="239.176914" style="fill: #ff7f0e; stroke: #ffffff; stroke-width: 0.75"/>
     <use xlink:href="#me63ab39f46" x="661.332057" y="209.387263" style="fill: #ff7f0e; stroke: #ffffff; stroke-width: 0.75"/>
     <use xlink:href="#me63ab39f46" x="725.408612" y="194.921865" style="fill: #ff7f0e; stroke: #ffffff; stroke-width: 0.75"/>
     <use xlink:href="#me63ab39f46" x="789.485167" y="179.224542" style="fill: #ff7f0e; stroke: #ffffff; stroke-width: 0.75"/>
     <use xlink:href="#me63ab39f46" x="853.561722" y="165.886871" style="fill: #ff7f0e; stroke: #ffffff; stroke-width: 0.75"/>
     <use xlink:href="#me63ab39f46" x="917.638278" y="160.425686" style="fill: #ff7f0e; stroke: #ffffff; stroke-width: 0.75"/>
     <use xlink:href="#me63ab39f46" x="981.714833" y="154.096844" style="fill: #ff7f0e; stroke: #ffffff; stroke-width: 0.75"/>
     <use xlink:href="#me63ab39f46" x="1045.791388" y="148.546224" style="fill: #ff7f0e; stroke: #ffffff; stroke-width: 0.75"/>
     <use xlink:href="#me63ab39f46" x="1109.867943" y="141.235022" style="fill: #ff7f0e; stroke: #ffffff; stroke-width: 0.75"/>
     <use xlink:href="#me63ab39f46" x="1173.944498" y="138.309519" style="fill: #ff7f0e; stroke: #ffffff; stroke-width: 0.75"/>
     <use xlink:href="#me63ab39f46" x="1238.021053" y="134.873529" style="fill: #ff7f0e; stroke: #ffffff; stroke-width: 0.75"/>
     <use xlink:href="#me63ab39f46" x="1302.097608" y="131.807202" style="fill: #ff7f0e; stroke: #ffffff; stroke-width: 0.75"/>
     <use xlink:href="#me63ab39f46" x="1366.174163" y="127.493334" style="fill: #ff7f0e; stroke: #ffffff; stroke-width: 0.75"/>
     <use xlink:href="#me63ab39f46" x="1430.250718" y="124.599914" style="fill: #ff7f0e; stroke: #ffffff; stroke-width: 0.75"/>
     <use xlink:href="#me63ab39f46" x="1494.327273" y="122.189156" style="fill: #ff7f0e; stroke: #ffffff; stroke-width: 0.75"/>
    </g>
   </g>
   <g id="line2d_19">
    <path d="M 276.872727 469.07677 
L 340.949282 385.502891 
L 405.025837 347.998873 
L 469.102392 316.922784 
L 533.178947 289.76336 
L 597.255502 268.035026 
L 661.332057 237.140646 
L 725.408612 205.120526 
L 789.485167 193.984648 
L 853.561722 185.714367 
L 917.638278 171.982616 
L 981.714833 162.189676 
L 1045.791388 155.379307 
L 1109.867943 150.011815 
L 1173.944498 146.223482 
L 1238.021053 140.883814 
L 1302.097608 136.989862 
L 1366.174163 134.137043 
L 1430.250718 130.210724 
L 1494.327273 127.356485 
" clip-path="url(#pa91c4ceb31)" style="fill: none; stroke: #2ca02c; stroke-width: 1.5; stroke-linecap: square"/>
    <defs>
     <path id="m8ca50cde6b" d="M 0 5 
C 1.326016 5 2.597899 4.473168 3.535534 3.535534 
C 4.473168 2.597899 5 1.326016 5 0 
C 5 -1.326016 4.473168 -2.597899 3.535534 -3.535534 
C 2.597899 -4.473168 1.326016 -5 0 -5 
C -1.326016 -5 -2.597899 -4.473168 -3.535534 -3.535534 
C -4.473168 -2.597899 -5 -1.326016 -5 0 
C -5 1.326016 -4.473168 2.597899 -3.535534 3.535534 
C -2.597899 4.473168 -1.326016 5 0 5 
z
" style="stroke: #ffffff; stroke-width: 0.75"/>
    </defs>
    <g clip-path="url(#pa91c4ceb31)">
     <use xlink:href="#m8ca50cde6b" x="276.872727" y="469.07677" style="fill: #2ca02c; stroke: #ffffff; stroke-width: 0.75"/>
     <use xlink:href="#m8ca50cde6b" x="340.949282" y="385.502891" style="fill: #2ca02c; stroke: #ffffff; stroke-width: 0.75"/>
     <use xlink:href="#m8ca50cde6b" x="405.025837" y="347.998873" style="fill: #2ca02c; stroke: #ffffff; stroke-width: 0.75"/>
     <use xlink:href="#m8ca50cde6b" x="469.102392" y="316.922784" style="fill: #2ca02c; stroke: #ffffff; stroke-width: 0.75"/>
     <use xlink:href="#m8ca50cde6b" x="533.178947" y="289.76336" style="fill: #2ca02c; stroke: #ffffff; stroke-width: 0.75"/>
     <use xlink:href="#m8ca50cde6b" x="597.255502" y="268.035026" style="fill: #2ca02c; stroke: #ffffff; stroke-width: 0.75"/>
     <use xlink:href="#m8ca50cde6b" x="661.332057" y="237.140646" style="fill: #2ca02c; stroke: #ffffff; stroke-width: 0.75"/>
     <use xlink:href="#m8ca50cde6b" x="725.408612" y="205.120526" style="fill: #2ca02c; stroke: #ffffff; stroke-width: 0.75"/>
     <use xlink:href="#m8ca50cde6b" x="789.485167" y="193.984648" style="fill: #2ca02c; stroke: #ffffff; stroke-width: 0.75"/>
     <use xlink:href="#m8ca50cde6b" x="853.561722" y="185.714367" style="fill: #2ca02c; stroke: #ffffff; stroke-width: 0.75"/>
     <use xlink:href="#m8ca50cde6b" x="917.638278" y="171.982616" style="fill: #2ca02c; stroke: #ffffff; stroke-width: 0.75"/>
     <use xlink:href="#m8ca50cde6b" x="981.714833" y="162.189676" style="fill: #2ca02c; stroke: #ffffff; stroke-width: 0.75"/>
     <use xlink:href="#m8ca50cde6b" x="1045.791388" y="155.379307" style="fill: #2ca02c; stroke: #ffffff; stroke-width: 0.75"/>
     <use xlink:href="#m8ca50cde6b" x="1109.867943" y="150.011815" style="fill: #2ca02c; stroke: #ffffff; stroke-width: 0.75"/>
     <use xlink:href="#m8ca50cde6b" x="1173.944498" y="146.223482" style="fill: #2ca02c; stroke: #ffffff; stroke-width: 0.75"/>
     <use xlink:href="#m8ca50cde6b" x="1238.021053" y="140.883814" style="fill: #2ca02c; stroke: #ffffff; stroke-width: 0.75"/>
     <use xlink:href="#m8ca50cde6b" x="1302.097608" y="136.989862" style="fill: #2ca02c; stroke: #ffffff; stroke-width: 0.75"/>
     <use xlink:href="#m8ca50cde6b" x="1366.174163" y="134.137043" style="fill: #2ca02c; stroke: #ffffff; stroke-width: 0.75"/>
     <use xlink:href="#m8ca50cde6b" x="1430.250718" y="130.210724" style="fill: #2ca02c; stroke: #ffffff; stroke-width: 0.75"/>
     <use xlink:href="#m8ca50cde6b" x="1494.327273" y="127.356485" style="fill: #2ca02c; stroke: #ffffff; stroke-width: 0.75"/>
    </g>
   </g>
   <g id="line2d_20">
    <path d="M 276.872727 454.292531 
L 340.949282 388.66717 
L 405.025837 343.985675 
L 469.102392 301.239373 
L 533.178947 270.777969 
L 597.255502 245.898416 
L 661.332057 229.06059 
L 725.408612 219.414436 
L 789.485167 210.845472 
L 853.561722 201.430712 
L 917.638278 194.344658 
L 981.714833 184.586924 
L 1045.791388 180.947648 
L 1109.867943 175.72751 
L 1173.944498 170.800377 
L 1238.021053 166.928287 
L 1302.097608 161.269778 
L 1366.174163 158.557498 
L 1430.250718 154.309216 
L 1494.327273 147.700429 
" clip-path="url(#pa91c4ceb31)" style="fill: none; stroke: #d62728; stroke-width: 1.5; stroke-linecap: square"/>
    <defs>
     <path id="m8a72bf04a5" d="M 0 5 
C 1.326016 5 2.597899 4.473168 3.535534 3.535534 
C 4.473168 2.597899 5 1.326016 5 0 
C 5 -1.326016 4.473168 -2.597899 3.535534 -3.535534 
C 2.597899 -4.473168 1.326016 -5 0 -5 
C -1.326016 -5 -2.597899 -4.473168 -3.535534 -3.535534 
C -4.473168 -2.597899 -5 -1.326016 -5 0 
C -5 1.326016 -4.473168 2.597899 -3.535534 3.535534 
C -2.597899 4.473168 -1.326016 5 0 5 
z
" style="stroke: #ffffff; stroke-width: 0.75"/>
    </defs>
    <g clip-path="url(#pa91c4ceb31)">
     <use xlink:href="#m8a72bf04a5" x="276.872727" y="454.292531" style="fill: #d62728; stroke: #ffffff; stroke-width: 0.75"/>
     <use xlink:href="#m8a72bf04a5" x="340.949282" y="388.66717" style="fill: #d62728; stroke: #ffffff; stroke-width: 0.75"/>
     <use xlink:href="#m8a72bf04a5" x="405.025837" y="343.985675" style="fill: #d62728; stroke: #ffffff; stroke-width: 0.75"/>
     <use xlink:href="#m8a72bf04a5" x="469.102392" y="301.239373" style="fill: #d62728; stroke: #ffffff; stroke-width: 0.75"/>
     <use xlink:href="#m8a72bf04a5" x="533.178947" y="270.777969" style="fill: #d62728; stroke: #ffffff; stroke-width: 0.75"/>
     <use xlink:href="#m8a72bf04a5" x="597.255502" y="245.898416" style="fill: #d62728; stroke: #ffffff; stroke-width: 0.75"/>
     <use xlink:href="#m8a72bf04a5" x="661.332057" y="229.06059" style="fill: #d62728; stroke: #ffffff; stroke-width: 0.75"/>
     <use xlink:href="#m8a72bf04a5" x="725.408612" y="219.414436" style="fill: #d62728; stroke: #ffffff; stroke-width: 0.75"/>
     <use xlink:href="#m8a72bf04a5" x="789.485167" y="210.845472" style="fill: #d62728; stroke: #ffffff; stroke-width: 0.75"/>
     <use xlink:href="#m8a72bf04a5" x="853.561722" y="201.430712" style="fill: #d62728; stroke: #ffffff; stroke-width: 0.75"/>
     <use xlink:href="#m8a72bf04a5" x="917.638278" y="194.344658" style="fill: #d62728; stroke: #ffffff; stroke-width: 0.75"/>
     <use xlink:href="#m8a72bf04a5" x="981.714833" y="184.586924" style="fill: #d62728; stroke: #ffffff; stroke-width: 0.75"/>
     <use xlink:href="#m8a72bf04a5" x="1045.791388" y="180.947648" style="fill: #d62728; stroke: #ffffff; stroke-width: 0.75"/>
     <use xlink:href="#m8a72bf04a5" x="1109.867943" y="175.72751" style="fill: #d62728; stroke: #ffffff; stroke-width: 0.75"/>
     <use xlink:href="#m8a72bf04a5" x="1173.944498" y="170.800377" style="fill: #d62728; stroke: #ffffff; stroke-width: 0.75"/>
     <use xlink:href="#m8a72bf04a5" x="1238.021053" y="166.928287" style="fill: #d62728; stroke: #ffffff; stroke-width: 0.75"/>
     <use xlink:href="#m8a72bf04a5" x="1302.097608" y="161.269778" style="fill: #d62728; stroke: #ffffff; stroke-width: 0.75"/>
     <use xlink:href="#m8a72bf04a5" x="1366.174163" y="158.557498" style="fill: #d62728; stroke: #ffffff; stroke-width: 0.75"/>
     <use xlink:href="#m8a72bf04a5" x="1430.250718" y="154.309216" style="fill: #d62728; stroke: #ffffff; stroke-width: 0.75"/>
     <use xlink:href="#m8a72bf04a5" x="1494.327273" y="147.700429" style="fill: #d62728; stroke: #ffffff; stroke-width: 0.75"/>
    </g>
   </g>
   <g id="line2d_21">
    <path d="M 276.872727 473.184229 
L 340.949282 376.810706 
L 405.025837 332.11899 
L 469.102392 299.450966 
L 533.178947 273.488829 
L 597.255502 250.604093 
L 661.332057 241.873294 
L 725.408612 225.613527 
L 789.485167 215.341616 
L 853.561722 209.422753 
L 917.638278 200.760663 
L 981.714833 193.385863 
L 1045.791388 183.595762 
L 1109.867943 178.111863 
L 1173.944498 173.963236 
L 1238.021053 169.074432 
L 1302.097608 166.308491 
L 1366.174163 164.097045 
L 1430.250718 160.379691 
L 1494.327273 158.169948 
" clip-path="url(#pa91c4ceb31)" style="fill: none; stroke: #9467bd; stroke-width: 1.5; stroke-linecap: square"/>
    <defs>
     <path id="m268eeab6da" d="M 0 5 
C 1.326016 5 2.597899 4.473168 3.535534 3.535534 
C 4.473168 2.597899 5 1.326016 5 0 
C 5 -1.326016 4.473168 -2.597899 3.535534 -3.535534 
C 2.597899 -4.473168 1.326016 -5 0 -5 
C -1.326016 -5 -2.597899 -4.473168 -3.535534 -3.535534 
C -4.473168 -2.597899 -5 -1.326016 -5 0 
C -5 1.326016 -4.473168 2.597899 -3.535534 3.535534 
C -2.597899 4.473168 -1.326016 5 0 5 
z
" style="stroke: #ffffff; stroke-width: 0.75"/>
    </defs>
    <g clip-path="url(#pa91c4ceb31)">
     <use xlink:href="#m268eeab6da" x="276.872727" y="473.184229" style="fill: #9467bd; stroke: #ffffff; stroke-width: 0.75"/>
     <use xlink:href="#m268eeab6da" x="340.949282" y="376.810706" style="fill: #9467bd; stroke: #ffffff; stroke-width: 0.75"/>
     <use xlink:href="#m268eeab6da" x="405.025837" y="332.11899" style="fill: #9467bd; stroke: #ffffff; stroke-width: 0.75"/>
     <use xlink:href="#m268eeab6da" x="469.102392" y="299.450966" style="fill: #9467bd; stroke: #ffffff; stroke-width: 0.75"/>
     <use xlink:href="#m268eeab6da" x="533.178947" y="273.488829" style="fill: #9467bd; stroke: #ffffff; stroke-width: 0.75"/>
     <use xlink:href="#m268eeab6da" x="597.255502" y="250.604093" style="fill: #9467bd; stroke: #ffffff; stroke-width: 0.75"/>
     <use xlink:href="#m268eeab6da" x="661.332057" y="241.873294" style="fill: #9467bd; stroke: #ffffff; stroke-width: 0.75"/>
     <use xlink:href="#m268eeab6da" x="725.408612" y="225.613527" style="fill: #9467bd; stroke: #ffffff; stroke-width: 0.75"/>
     <use xlink:href="#m268eeab6da" x="789.485167" y="215.341616" style="fill: #9467bd; stroke: #ffffff; stroke-width: 0.75"/>
     <use xlink:href="#m268eeab6da" x="853.561722" y="209.422753" style="fill: #9467bd; stroke: #ffffff; stroke-width: 0.75"/>
     <use xlink:href="#m268eeab6da" x="917.638278" y="200.760663" style="fill: #9467bd; stroke: #ffffff; stroke-width: 0.75"/>
     <use xlink:href="#m268eeab6da" x="981.714833" y="193.385863" style="fill: #9467bd; stroke: #ffffff; stroke-width: 0.75"/>
     <use xlink:href="#m268eeab6da" x="1045.791388" y="183.595762" style="fill: #9467bd; stroke: #ffffff; stroke-width: 0.75"/>
     <use xlink:href="#m268eeab6da" x="1109.867943" y="178.111863" style="fill: #9467bd; stroke: #ffffff; stroke-width: 0.75"/>
     <use xlink:href="#m268eeab6da" x="1173.944498" y="173.963236" style="fill: #9467bd; stroke: #ffffff; stroke-width: 0.75"/>
     <use xlink:href="#m268eeab6da" x="1238.021053" y="169.074432" style="fill: #9467bd; stroke: #ffffff; stroke-width: 0.75"/>
     <use xlink:href="#m268eeab6da" x="1302.097608" y="166.308491" style="fill: #9467bd; stroke: #ffffff; stroke-width: 0.75"/>
     <use xlink:href="#m268eeab6da" x="1366.174163" y="164.097045" style="fill: #9467bd; stroke: #ffffff; stroke-width: 0.75"/>
     <use xlink:href="#m268eeab6da" x="1430.250718" y="160.379691" style="fill: #9467bd; stroke: #ffffff; stroke-width: 0.75"/>
     <use xlink:href="#m268eeab6da" x="1494.327273" y="158.169948" style="fill: #9467bd; stroke: #ffffff; stroke-width: 0.75"/>
    </g>
   </g>
   <g id="line2d_22"/>
   <g id="line2d_23"/>
   <g id="line2d_24"/>
   <g id="line2d_25"/>
   <g id="line2d_26"/>
   <g id="patch_3">
    <path d="M 216 512.64 
L 216 69.12 
" style="fill: none; stroke: #000000; stroke-width: 0.8; stroke-linejoin: miter; stroke-linecap: square"/>
   </g>
   <g id="patch_4">
    <path d="M 1555.2 512.64 
L 1555.2 69.12 
" style="fill: none; stroke: #000000; stroke-width: 0.8; stroke-linejoin: miter; stroke-linecap: square"/>
   </g>
   <g id="patch_5">
    <path d="M 216 512.64 
L 1555.2 512.64 
" style="fill: none; stroke: #000000; stroke-width: 0.8; stroke-linejoin: miter; stroke-linecap: square"/>
   </g>
   <g id="patch_6">
    <path d="M 216 69.12 
L 1555.2 69.12 
" style="fill: none; stroke: #000000; stroke-width: 0.8; stroke-linejoin: miter; stroke-linecap: square"/>
   </g>
   <g id="legend_1">
    <g id="patch_7">
     <path d="M 1263.46125 507.64 
L 1548.2 507.64 
Q 1550.2 507.64 1550.2 505.64 
L 1550.2 348.88875 
Q 1550.2 346.88875 1548.2 346.88875 
L 1263.46125 346.88875 
Q 1261.46125 346.88875 1261.46125 348.88875 
L 1261.46125 505.64 
Q 1261.46125 507.64 1263.46125 507.64 
z
" style="fill: #ffffff; opacity: 0.3; stroke: #cccccc; stroke-linejoin: miter"/>
    </g>
    <g id="text_19">
     <!-- Substance Encoding -->
     <g transform="translate(1294.130781 367.605313) scale(0.22 -0.22)">
      <defs>
       <path id="DejaVuSans-53" d="M 3425 4513 
L 3425 3897 
Q 3066 4069 2747 4153 
Q 2428 4238 2131 4238 
Q 1616 4238 1336 4038 
Q 1056 3838 1056 3469 
Q 1056 3159 1242 3001 
Q 1428 2844 1947 2747 
L 2328 2669 
Q 3034 2534 3370 2195 
Q 3706 1856 3706 1288 
Q 3706 609 3251 259 
Q 2797 -91 1919 -91 
Q 1588 -91 1214 -16 
Q 841 59 441 206 
L 441 856 
Q 825 641 1194 531 
Q 1563 422 1919 422 
Q 2459 422 2753 634 
Q 3047 847 3047 1241 
Q 3047 1584 2836 1778 
Q 2625 1972 2144 2069 
L 1759 2144 
Q 1053 2284 737 2584 
Q 422 2884 422 3419 
Q 422 4038 858 4394 
Q 1294 4750 2059 4750 
Q 2388 4750 2728 4690 
Q 3069 4631 3425 4513 
z
" transform="scale(0.015625)"/>
       <path id="DejaVuSans-62" d="M 3116 1747 
Q 3116 2381 2855 2742 
Q 2594 3103 2138 3103 
Q 1681 3103 1420 2742 
Q 1159 2381 1159 1747 
Q 1159 1113 1420 752 
Q 1681 391 2138 391 
Q 2594 391 2855 752 
Q 3116 1113 3116 1747 
z
M 1159 2969 
Q 1341 3281 1617 3432 
Q 1894 3584 2278 3584 
Q 2916 3584 3314 3078 
Q 3713 2572 3713 1747 
Q 3713 922 3314 415 
Q 2916 -91 2278 -91 
Q 1894 -91 1617 61 
Q 1341 213 1159 525 
L 1159 0 
L 581 0 
L 581 4863 
L 1159 4863 
L 1159 2969 
z
" transform="scale(0.015625)"/>
       <path id="DejaVuSans-61" d="M 2194 1759 
Q 1497 1759 1228 1600 
Q 959 1441 959 1056 
Q 959 750 1161 570 
Q 1363 391 1709 391 
Q 2188 391 2477 730 
Q 2766 1069 2766 1631 
L 2766 1759 
L 2194 1759 
z
M 3341 1997 
L 3341 0 
L 2766 0 
L 2766 531 
Q 2569 213 2275 61 
Q 1981 -91 1556 -91 
Q 1019 -91 701 211 
Q 384 513 384 1019 
Q 384 1609 779 1909 
Q 1175 2209 1959 2209 
L 2766 2209 
L 2766 2266 
Q 2766 2663 2505 2880 
Q 2244 3097 1772 3097 
Q 1472 3097 1187 3025 
Q 903 2953 641 2809 
L 641 3341 
Q 956 3463 1253 3523 
Q 1550 3584 1831 3584 
Q 2591 3584 2966 3190 
Q 3341 2797 3341 1997 
z
" transform="scale(0.015625)"/>
       <path id="DejaVuSans-63" d="M 3122 3366 
L 3122 2828 
Q 2878 2963 2633 3030 
Q 2388 3097 2138 3097 
Q 1578 3097 1268 2742 
Q 959 2388 959 1747 
Q 959 1106 1268 751 
Q 1578 397 2138 397 
Q 2388 397 2633 464 
Q 2878 531 3122 666 
L 3122 134 
Q 2881 22 2623 -34 
Q 2366 -91 2075 -91 
Q 1284 -91 818 406 
Q 353 903 353 1747 
Q 353 2603 823 3093 
Q 1294 3584 2113 3584 
Q 2378 3584 2631 3529 
Q 2884 3475 3122 3366 
z
" transform="scale(0.015625)"/>
       <path id="DejaVuSans-20" transform="scale(0.015625)"/>
       <path id="DejaVuSans-6f" d="M 1959 3097 
Q 1497 3097 1228 2736 
Q 959 2375 959 1747 
Q 959 1119 1226 758 
Q 1494 397 1959 397 
Q 2419 397 2687 759 
Q 2956 1122 2956 1747 
Q 2956 2369 2687 2733 
Q 2419 3097 1959 3097 
z
M 1959 3584 
Q 2709 3584 3137 3096 
Q 3566 2609 3566 1747 
Q 3566 888 3137 398 
Q 2709 -91 1959 -91 
Q 1206 -91 779 398 
Q 353 888 353 1747 
Q 353 2609 779 3096 
Q 1206 3584 1959 3584 
z
" transform="scale(0.015625)"/>
       <path id="DejaVuSans-67" d="M 2906 1791 
Q 2906 2416 2648 2759 
Q 2391 3103 1925 3103 
Q 1463 3103 1205 2759 
Q 947 2416 947 1791 
Q 947 1169 1205 825 
Q 1463 481 1925 481 
Q 2391 481 2648 825 
Q 2906 1169 2906 1791 
z
M 3481 434 
Q 3481 -459 3084 -895 
Q 2688 -1331 1869 -1331 
Q 1566 -1331 1297 -1286 
Q 1028 -1241 775 -1147 
L 775 -588 
Q 1028 -725 1275 -790 
Q 1522 -856 1778 -856 
Q 2344 -856 2625 -561 
Q 2906 -266 2906 331 
L 2906 616 
Q 2728 306 2450 153 
Q 2172 0 1784 0 
Q 1141 0 747 490 
Q 353 981 353 1791 
Q 353 2603 747 3093 
Q 1141 3584 1784 3584 
Q 2172 3584 2450 3431 
Q 2728 3278 2906 2969 
L 2906 3500 
L 3481 3500 
L 3481 434 
z
" transform="scale(0.015625)"/>
      </defs>
      <use xlink:href="#DejaVuSans-53"/>
      <use xlink:href="#DejaVuSans-75" transform="translate(63.476562 0)"/>
      <use xlink:href="#DejaVuSans-62" transform="translate(126.855469 0)"/>
      <use xlink:href="#DejaVuSans-73" transform="translate(190.332031 0)"/>
      <use xlink:href="#DejaVuSans-74" transform="translate(242.431641 0)"/>
      <use xlink:href="#DejaVuSans-61" transform="translate(281.640625 0)"/>
      <use xlink:href="#DejaVuSans-6e" transform="translate(342.919922 0)"/>
      <use xlink:href="#DejaVuSans-63" transform="translate(406.298828 0)"/>
      <use xlink:href="#DejaVuSans-65" transform="translate(461.279297 0)"/>
      <use xlink:href="#DejaVuSans-20" transform="translate(522.802734 0)"/>
      <use xlink:href="#DejaVuSans-45" transform="translate(554.589844 0)"/>
      <use xlink:href="#DejaVuSans-6e" transform="translate(617.773438 0)"/>
      <use xlink:href="#DejaVuSans-63" transform="translate(681.152344 0)"/>
      <use xlink:href="#DejaVuSans-6f" transform="translate(736.132812 0)"/>
      <use xlink:href="#DejaVuSans-64" transform="translate(797.314453 0)"/>
      <use xlink:href="#DejaVuSans-69" transform="translate(860.791016 0)"/>
      <use xlink:href="#DejaVuSans-6e" transform="translate(888.574219 0)"/>
      <use xlink:href="#DejaVuSans-67" transform="translate(951.953125 0)"/>
     </g>
    </g>
    <g id="line2d_27">
     <path d="M 1265.46125 390.397188 
L 1275.46125 390.397188 
L 1285.46125 390.397188 
" style="fill: none; stroke: #1f77b4; stroke-width: 1.5; stroke-linecap: square"/>
     <g>
      <use xlink:href="#m27d68b8ae2" x="1275.46125" y="390.397188" style="fill: #1f77b4; stroke: #ffffff; stroke-width: 0.75"/>
     </g>
    </g>
    <g id="text_20">
     <!-- MORDRED -->
     <g transform="translate(1293.46125 393.897188) scale(0.22 -0.22)">
      <defs>
       <path id="DejaVuSans-4d" d="M 628 4666 
L 1569 4666 
L 2759 1491 
L 3956 4666 
L 4897 4666 
L 4897 0 
L 4281 0 
L 4281 4097 
L 3078 897 
L 2444 897 
L 1241 4097 
L 1241 0 
L 628 0 
L 628 4666 
z
" transform="scale(0.015625)"/>
       <path id="DejaVuSans-4f" d="M 2522 4238 
Q 1834 4238 1429 3725 
Q 1025 3213 1025 2328 
Q 1025 1447 1429 934 
Q 1834 422 2522 422 
Q 3209 422 3611 934 
Q 4013 1447 4013 2328 
Q 4013 3213 3611 3725 
Q 3209 4238 2522 4238 
z
M 2522 4750 
Q 3503 4750 4090 4092 
Q 4678 3434 4678 2328 
Q 4678 1225 4090 567 
Q 3503 -91 2522 -91 
Q 1538 -91 948 565 
Q 359 1222 359 2328 
Q 359 3434 948 4092 
Q 1538 4750 2522 4750 
z
" transform="scale(0.015625)"/>
       <path id="DejaVuSans-52" d="M 2841 2188 
Q 3044 2119 3236 1894 
Q 3428 1669 3622 1275 
L 4263 0 
L 3584 0 
L 2988 1197 
Q 2756 1666 2539 1819 
Q 2322 1972 1947 1972 
L 1259 1972 
L 1259 0 
L 628 0 
L 628 4666 
L 2053 4666 
Q 2853 4666 3247 4331 
Q 3641 3997 3641 3322 
Q 3641 2881 3436 2590 
Q 3231 2300 2841 2188 
z
M 1259 4147 
L 1259 2491 
L 2053 2491 
Q 2509 2491 2742 2702 
Q 2975 2913 2975 3322 
Q 2975 3731 2742 3939 
Q 2509 4147 2053 4147 
L 1259 4147 
z
" transform="scale(0.015625)"/>
       <path id="DejaVuSans-44" d="M 1259 4147 
L 1259 519 
L 2022 519 
Q 2988 519 3436 956 
Q 3884 1394 3884 2338 
Q 3884 3275 3436 3711 
Q 2988 4147 2022 4147 
L 1259 4147 
z
M 628 4666 
L 1925 4666 
Q 3281 4666 3915 4102 
Q 4550 3538 4550 2338 
Q 4550 1131 3912 565 
Q 3275 0 1925 0 
L 628 0 
L 628 4666 
z
" transform="scale(0.015625)"/>
      </defs>
      <use xlink:href="#DejaVuSans-4d"/>
      <use xlink:href="#DejaVuSans-4f" transform="translate(86.279297 0)"/>
      <use xlink:href="#DejaVuSans-52" transform="translate(164.990234 0)"/>
      <use xlink:href="#DejaVuSans-44" transform="translate(234.472656 0)"/>
      <use xlink:href="#DejaVuSans-52" transform="translate(311.474609 0)"/>
      <use xlink:href="#DejaVuSans-45" transform="translate(380.957031 0)"/>
      <use xlink:href="#DejaVuSans-44" transform="translate(444.140625 0)"/>
     </g>
    </g>
    <g id="line2d_28">
     <path d="M 1265.46125 416.689063 
L 1275.46125 416.689063 
L 1285.46125 416.689063 
" style="fill: none; stroke: #ff7f0e; stroke-width: 1.5; stroke-linecap: square"/>
     <g>
      <use xlink:href="#me63ab39f46" x="1275.46125" y="416.689063" style="fill: #ff7f0e; stroke: #ffffff; stroke-width: 0.75"/>
     </g>
    </g>
    <g id="text_21">
     <!-- RDKIT2DDESCRIPTORS -->
     <g transform="translate(1293.46125 420.189063) scale(0.22 -0.22)">
      <defs>
       <path id="DejaVuSans-4b" d="M 628 4666 
L 1259 4666 
L 1259 2694 
L 3353 4666 
L 4166 4666 
L 1850 2491 
L 4331 0 
L 3500 0 
L 1259 2247 
L 1259 0 
L 628 0 
L 628 4666 
z
" transform="scale(0.015625)"/>
       <path id="DejaVuSans-49" d="M 628 4666 
L 1259 4666 
L 1259 0 
L 628 0 
L 628 4666 
z
" transform="scale(0.015625)"/>
       <path id="DejaVuSans-54" d="M -19 4666 
L 3928 4666 
L 3928 4134 
L 2272 4134 
L 2272 0 
L 1638 0 
L 1638 4134 
L -19 4134 
L -19 4666 
z
" transform="scale(0.015625)"/>
       <path id="DejaVuSans-50" d="M 1259 4147 
L 1259 2394 
L 2053 2394 
Q 2494 2394 2734 2622 
Q 2975 2850 2975 3272 
Q 2975 3691 2734 3919 
Q 2494 4147 2053 4147 
L 1259 4147 
z
M 628 4666 
L 2053 4666 
Q 2838 4666 3239 4311 
Q 3641 3956 3641 3272 
Q 3641 2581 3239 2228 
Q 2838 1875 2053 1875 
L 1259 1875 
L 1259 0 
L 628 0 
L 628 4666 
z
" transform="scale(0.015625)"/>
      </defs>
      <use xlink:href="#DejaVuSans-52"/>
      <use xlink:href="#DejaVuSans-44" transform="translate(69.482422 0)"/>
      <use xlink:href="#DejaVuSans-4b" transform="translate(146.484375 0)"/>
      <use xlink:href="#DejaVuSans-49" transform="translate(212.060547 0)"/>
      <use xlink:href="#DejaVuSans-54" transform="translate(241.552734 0)"/>
      <use xlink:href="#DejaVuSans-32" transform="translate(302.636719 0)"/>
      <use xlink:href="#DejaVuSans-44" transform="translate(366.259766 0)"/>
      <use xlink:href="#DejaVuSans-44" transform="translate(443.261719 0)"/>
      <use xlink:href="#DejaVuSans-45" transform="translate(520.263672 0)"/>
      <use xlink:href="#DejaVuSans-53" transform="translate(583.447266 0)"/>
      <use xlink:href="#DejaVuSans-43" transform="translate(646.923828 0)"/>
      <use xlink:href="#DejaVuSans-52" transform="translate(716.748047 0)"/>
      <use xlink:href="#DejaVuSans-49" transform="translate(786.230469 0)"/>
      <use xlink:href="#DejaVuSans-50" transform="translate(815.722656 0)"/>
      <use xlink:href="#DejaVuSans-54" transform="translate(876.025391 0)"/>
      <use xlink:href="#DejaVuSans-4f" transform="translate(937.109375 0)"/>
      <use xlink:href="#DejaVuSans-52" transform="translate(1015.820312 0)"/>
      <use xlink:href="#DejaVuSans-53" transform="translate(1085.302734 0)"/>
     </g>
    </g>
    <g id="line2d_29">
     <path d="M 1265.46125 442.980938 
L 1275.46125 442.980938 
L 1285.46125 442.980938 
" style="fill: none; stroke: #2ca02c; stroke-width: 1.5; stroke-linecap: square"/>
     <g>
      <use xlink:href="#m8ca50cde6b" x="1275.46125" y="442.980938" style="fill: #2ca02c; stroke: #ffffff; stroke-width: 0.75"/>
     </g>
    </g>
    <g id="text_22">
     <!-- ECFP -->
     <g transform="translate(1293.46125 446.480938) scale(0.22 -0.22)">
      <defs>
       <path id="DejaVuSans-46" d="M 628 4666 
L 3309 4666 
L 3309 4134 
L 1259 4134 
L 1259 2759 
L 3109 2759 
L 3109 2228 
L 1259 2228 
L 1259 0 
L 628 0 
L 628 4666 
z
" transform="scale(0.015625)"/>
      </defs>
      <use xlink:href="#DejaVuSans-45"/>
      <use xlink:href="#DejaVuSans-43" transform="translate(63.183594 0)"/>
      <use xlink:href="#DejaVuSans-46" transform="translate(133.007812 0)"/>
      <use xlink:href="#DejaVuSans-50" transform="translate(190.527344 0)"/>
     </g>
    </g>
    <g id="line2d_30">
     <path d="M 1265.46125 469.272812 
L 1275.46125 469.272812 
L 1285.46125 469.272812 
" style="fill: none; stroke: #d62728; stroke-width: 1.5; stroke-linecap: square"/>
     <g>
      <use xlink:href="#m8a72bf04a5" x="1275.46125" y="469.272812" style="fill: #d62728; stroke: #ffffff; stroke-width: 0.75"/>
     </g>
    </g>
    <g id="text_23">
     <!-- OneHot -->
     <g transform="translate(1293.46125 472.772812) scale(0.22 -0.22)">
      <defs>
       <path id="DejaVuSans-48" d="M 628 4666 
L 1259 4666 
L 1259 2753 
L 3553 2753 
L 3553 4666 
L 4184 4666 
L 4184 0 
L 3553 0 
L 3553 2222 
L 1259 2222 
L 1259 0 
L 628 0 
L 628 4666 
z
" transform="scale(0.015625)"/>
      </defs>
      <use xlink:href="#DejaVuSans-4f"/>
      <use xlink:href="#DejaVuSans-6e" transform="translate(78.710938 0)"/>
      <use xlink:href="#DejaVuSans-65" transform="translate(142.089844 0)"/>
      <use xlink:href="#DejaVuSans-48" transform="translate(203.613281 0)"/>
      <use xlink:href="#DejaVuSans-6f" transform="translate(278.808594 0)"/>
      <use xlink:href="#DejaVuSans-74" transform="translate(339.990234 0)"/>
     </g>
    </g>
    <g id="line2d_31">
     <path d="M 1265.46125 495.564687 
L 1275.46125 495.564687 
L 1285.46125 495.564687 
" style="fill: none; stroke: #9467bd; stroke-width: 1.5; stroke-linecap: square"/>
     <g>
      <use xlink:href="#m268eeab6da" x="1275.46125" y="495.564687" style="fill: #9467bd; stroke: #ffffff; stroke-width: 0.75"/>
     </g>
    </g>
    <g id="text_24">
     <!-- Random Baseline -->
     <g transform="translate(1293.46125 499.064687) scale(0.22 -0.22)">
      <use xlink:href="#DejaVuSans-52"/>
      <use xlink:href="#DejaVuSans-61" transform="translate(67.232422 0)"/>
      <use xlink:href="#DejaVuSans-6e" transform="translate(128.511719 0)"/>
      <use xlink:href="#DejaVuSans-64" transform="translate(191.890625 0)"/>
      <use xlink:href="#DejaVuSans-6f" transform="translate(255.367188 0)"/>
      <use xlink:href="#DejaVuSans-6d" transform="translate(316.548828 0)"/>
      <use xlink:href="#DejaVuSans-20" transform="translate(413.960938 0)"/>
      <use xlink:href="#DejaVuSans-42" transform="translate(445.748047 0)"/>
      <use xlink:href="#DejaVuSans-61" transform="translate(514.351562 0)"/>
      <use xlink:href="#DejaVuSans-73" transform="translate(575.630859 0)"/>
      <use xlink:href="#DejaVuSans-65" transform="translate(627.730469 0)"/>
      <use xlink:href="#DejaVuSans-6c" transform="translate(689.253906 0)"/>
      <use xlink:href="#DejaVuSans-69" transform="translate(717.037109 0)"/>
      <use xlink:href="#DejaVuSans-6e" transform="translate(744.820312 0)"/>
      <use xlink:href="#DejaVuSans-65" transform="translate(808.199219 0)"/>
     </g>
    </g>
   </g>
  </g>
 </g>
 <defs>
  <clipPath id="pa91c4ceb31">
   <rect x="216" y="69.12" width="1339.2" height="443.52"/>
  </clipPath>
 </defs>
</svg>
