<?xml version="1.0" encoding="UTF-8"?>
<!-- Created with Inkscape (http://www.inkscape.org/) -->
<svg width="253.3mm" height="141.24mm" version="1.1" viewBox="0 0 126.65 70.619" xml:space="preserve" xmlns="http://www.w3.org/2000/svg"><defs><marker id="ArrowWide" overflow="visible" markerHeight="1" markerWidth="1" orient="auto-start-reverse" preserveAspectRatio="xMidYMid" viewBox="0 0 1 1"><path transform="rotate(180 .125 0)" d="m3-3-3 3 3 3" fill="none" stroke="context-stroke"/></marker></defs><path d="m0 0h126.65v70.619h-126.65z" fill="#0f69af" stroke-width="1.0641"/><g transform="translate(-12.171 -13.056)" fill="none"><path d="m25.015 50.512v-26.054" marker-end="url(#ArrowWide)" stroke="#fff" stroke-width=".21167"/><path d="m24.506 50.014h36.2" marker-end="url(#ArrowWide)" stroke="#fff" stroke-width=".22924"/><path d="m44.612 49.236v1.5561" stroke="#abdfdb" stroke-width=".37042"/><path d="m44.784 23.631h-13.112" stroke-dasharray="0.211666, 0.423332" stroke-width=".21167"/><path d="m44.611 26.787v22.695" stroke="#abdfdb" stroke-dasharray="0.211666, 0.423332" stroke-width=".21167"/><path d="m25.944 48.666c1.0112-0.31519 1.9846-0.72588 2.864-1.2959 1.5783-1.023 2.6956-2.6426 3.8357-4.1385 1.1998-1.5743 2.13-3.3382 3.1291-5.047 1.481-2.5328 2.603-5.2792 4.2446-7.711 0.50593-0.74946 1.0895-1.4489 1.715-2.1019 0.44182-0.46124 0.87283-0.96392 1.4312-1.2741 0.41357-0.22975 0.88861-0.38285 1.3614-0.40142 0.42185-0.01657 0.8592 0.07782 1.2392 0.2618 0.60607 0.29345 1.0797 0.81291 1.5533 1.2915 0.45378 0.45854 0.86499 0.96348 1.2217 1.501 1.5448 2.3275 2.5986 4.9461 3.9344 7.3995 1.0481 1.9251 1.9249 3.9619 3.2014 5.7438 0.72977 1.0187 1.5829 1.9579 2.5204 2.7895 1.1766 1.0437 3.3194 2.2926 3.8535 2.723" stroke="#ffdcb9" stroke-width=".463"/></g><g transform="translate(-12.171 -23.128)"><path d="m25.015 88.957v-26.054" fill="none" marker-end="url(#ArrowWide)" stroke="#fff" stroke-width=".21167"/><path d="m24.506 88.459h36.2" fill="none" marker-end="url(#ArrowWide)" stroke="#fff" stroke-width=".22924"/><text x="35.660271" y="92.001709" fill="#abdfdb" font-family="'CMU Concrete'" font-size="3.175px" stroke="#ffffff" stroke-width=".080564" xml:space="preserve"><tspan x="35.660271" y="92.001709" fill="#abdfdb" font-family="'CMU Concrete'" font-size="3.175px" stroke="none" stroke-width=".080564">match value</tspan></text><g fill="none"><path d="m44.612 87.681v1.5561" stroke="#abdfdb" stroke-width=".37042"/><path d="m44.611 65.232v22.695" stroke="#abdfdb" stroke-dasharray="0.211666, 0.423332" stroke-width=".21167"/><path d="m25.944 66.091c1.0112 0.31519 1.9846 0.72588 2.864 1.2959 1.5783 1.023 2.6956 2.6426 3.8357 4.1385 1.1998 1.5743 2.13 3.3382 3.1291 5.047 1.481 2.5328 2.603 5.2792 4.2446 7.711 0.50593 0.74946 1.0895 1.4489 1.715 2.1019 0.44182 0.46124 0.87283 0.96392 1.4312 1.2741 0.41357 0.22975 0.88861 0.38285 1.3614 0.40142 0.42185 0.01657 0.8592-0.07782 1.2392-0.2618 0.60607-0.29345 1.0797-0.81291 1.5533-1.2915 0.45378-0.45854 0.86499-0.96348 1.2217-1.501 1.5448-2.3275 2.5986-4.9461 3.9344-7.3995 1.0481-1.9251 1.9249-3.9619 3.2014-5.7438 0.72977-1.0187 1.5829-1.9579 2.5204-2.7895 1.1766-1.0437 3.3194-2.2926 3.8535-2.723" stroke="#ffdcb9" stroke-width=".463"/></g></g><g transform="translate(-11.774 -13.368)" fill="none"><path d="m62.904 50.512v-26.054" marker-end="url(#ArrowWide)" stroke="#fff" stroke-width=".21167"/><path d="m62.395 50.014h36.2" marker-end="url(#ArrowWide)" stroke="#fff" stroke-width=".22924"/><path d="m82.501 49.236v1.5561" stroke="#abdfdb" stroke-width=".37042"/><path d="m82.501 26.787v22.695" stroke="#abdfdb" stroke-dasharray="0.211666, 0.423332" stroke-width=".21167"/><path d="m99.939 48.406c-0.53408-0.43042-2.6768-1.6793-3.8535-2.723-0.93748-0.83156-1.7906-1.7707-2.5204-2.7895-1.2765-1.7819-2.1532-3.8187-3.2014-5.7438-1.3358-2.4534-2.3896-5.072-3.9344-7.3995-0.35674-0.5375-0.76795-1.0424-1.2217-1.501-0.47366-0.47863-0.94727-0.99809-1.5533-1.2915-0.37998-0.18398-0.75815-0.2618-1.2392-0.2618h-18.892" stroke="#ffdcb9" stroke-width=".463"/></g><g transform="translate(65.036 -13.056)" fill="none"><path d="m25.015 50.512v-26.054" marker-end="url(#ArrowWide)" stroke="#fff" stroke-width=".21167"/><path d="m24.506 50.014h36.2" marker-end="url(#ArrowWide)" stroke="#fff" stroke-width=".22924"/><path d="m44.612 49.236v1.5561" stroke="#abdfdb" stroke-width=".37042"/><path d="m44.784 23.631h-13.112" stroke-dasharray="0.211666, 0.423332" stroke-width=".21167"/><path d="m44.611 26.787v22.695" stroke="#abdfdb" stroke-dasharray="0.211666, 0.423332" stroke-width=".21167"/><path d="m25.944 48.666c1.0112-0.31519 1.9846-0.72588 2.864-1.2959 1.5783-1.023 2.6956-2.6426 3.8357-4.1385 1.1998-1.5743 2.13-3.3382 3.1291-5.047 1.481-2.5328 2.603-5.2792 4.2446-7.711 0.50593-0.74946 1.0895-1.4489 1.715-2.1019 0.44182-0.46124 0.87283-0.96392 1.4312-1.2741 0.41357-0.22975 1.0504-0.40142 1.3614-0.40142h15.406" stroke="#ffdcb9" stroke-width=".463"/></g><g transform="translate(-11.774 15.317)"><path d="m62.904 50.512v-26.054" fill="none" marker-end="url(#ArrowWide)" stroke="#fff" stroke-width=".21167"/><path d="m62.395 50.014h36.2" fill="none" marker-end="url(#ArrowWide)" stroke="#fff" stroke-width=".22924"/><text x="73.549751" y="53.556908" fill="#abdfdb" font-family="'CMU Concrete'" font-size="3.175px" stroke="#ffffff" stroke-width=".080564" xml:space="preserve"><tspan x="73.549751" y="53.556908" fill="#abdfdb" font-family="'CMU Concrete'" font-size="3.175px" stroke="none" stroke-width=".080564">match value</tspan></text><g fill="none"><path d="m82.501 49.236v1.5561" stroke="#abdfdb" stroke-width=".37042"/><path d="m82.501 26.787v22.695" stroke="#abdfdb" stroke-dasharray="0.211666, 0.423332" stroke-width=".21167"/><path d="m99.939 26.643c-0.53408 0.43042-2.6768 1.6793-3.8535 2.723-0.93748 0.83156-1.7906 1.7707-2.5204 2.7895-1.2765 1.7819-2.1532 3.8187-3.2014 5.7438-1.3358 2.4534-2.3896 5.072-3.9344 7.3995-0.35674 0.5375-0.76795 1.0424-1.2217 1.501-0.47366 0.47863-0.94727 0.99809-1.5533 1.2915-0.37998 0.18398-0.84865 0.2618-1.2392 0.2618h-18.892" stroke="#ffdcb9" stroke-width=".463"/></g></g><g transform="translate(65.036 15.629)"><path d="m25.015 50.512v-26.054" fill="none" marker-end="url(#ArrowWide)" stroke="#fff" stroke-width=".21167"/><path d="m24.506 50.014h36.2" fill="none" marker-end="url(#ArrowWide)" stroke="#fff" stroke-width=".22924"/><text x="35.660271" y="53.556908" fill="#abdfdb" font-family="'CMU Concrete'" font-size="3.175px" stroke="#ffffff" stroke-width=".080564" xml:space="preserve"><tspan x="35.660271" y="53.556908" fill="#abdfdb" font-family="'CMU Concrete'" font-size="3.175px" stroke="none" stroke-width=".080564">match value</tspan></text><g fill="none"><path d="m44.612 49.236v1.5561" stroke="#abdfdb" stroke-width=".37042"/><path d="m44.784 23.631h-13.112" stroke-dasharray="0.211666, 0.423332" stroke-width=".21167"/><path d="m44.611 26.787v22.695" stroke="#abdfdb" stroke-dasharray="0.211666, 0.423332" stroke-width=".21167"/><path d="m25.944 26.686c1.0112 0.31519 1.9846 0.72588 2.864 1.2959 1.5783 1.023 2.6956 2.6426 3.8357 4.1385 1.1998 1.5743 2.13 3.3382 3.1291 5.047 1.481 2.5328 2.603 5.2792 4.2446 7.711 0.50593 0.74946 1.0895 1.4489 1.715 2.1019 0.44182 0.46124 0.87283 0.96392 1.4312 1.2741 0.41357 0.22975 0.76287 0.40142 1.3614 0.40142h15.406" stroke="#ffdcb9" stroke-width=".463"/></g></g><g fill="#ffffff" font-family="'CMU Concrete'" font-size="3.175px" stroke="#ffffff" stroke-width=".080564"><text x="60.799633" y="3.1398463" xml:space="preserve"><tspan x="60.799633" y="3.1398463" fill="#ffffff" font-family="'CMU Concrete'" font-size="3.175px" stroke="none" stroke-width=".080564">match mode</tspan></text><text transform="rotate(-90)" x="-51.398743" y="3.5914285" xml:space="preserve"><tspan x="-51.398743" y="3.5914285" fill="#ffffff" font-family="'CMU Concrete'" font-size="3.175px" stroke="none" stroke-width=".080564">mismatch_instead</tspan></text><text x="28.259375" y="8.8276978" xml:space="preserve"><tspan x="28.259375" y="8.8276978" fill="#ffffff" font-family="'CMU Concrete'" font-size="3.175px" stroke="none" stroke-width=".080564">"="</tspan></text><text x="65.310928" y="8.2494507" xml:space="preserve"><tspan x="65.310928" y="8.2494507" fill="#ffffff" font-family="'CMU Concrete'" font-size="3.175px" stroke="none" stroke-width=".080564">"&lt;="</tspan></text><text x="103.59727" y="8.2494507" xml:space="preserve"><tspan x="103.59727" y="8.2494507" fill="#ffffff" font-family="'CMU Concrete'" font-size="3.175px" stroke="none" stroke-width=".080564">"&gt;="</tspan></text><text transform="rotate(-90)" x="-57.472733" y="8.6252041" xml:space="preserve"><tspan x="-57.472733" y="8.6252041" fill="#ffffff" font-family="'CMU Concrete'" font-size="3.175px" stroke="none" stroke-width=".080564">True</tspan></text><text transform="rotate(-90)" x="-27.635529" y="8.6252041" xml:space="preserve"><tspan x="-27.635529" y="8.6252041" fill="#ffffff" font-family="'CMU Concrete'" font-size="3.175px" stroke="none" stroke-width=".080564">False</tspan></text></g></svg>
