<?xml version="1.0" encoding="UTF-8" standalone="no"?>
<!-- Created with Inkscape (http://www.inkscape.org/) -->

<svg
   width="169.89999mm"
   height="84.885002mm"
   version="1.1"
   viewBox="0 0 84.949 42.442"
   id="svg19"
   sodipodi:docname="sigmoid.svg"
   inkscape:version="1.3.2 (091e20e, 2023-11-25)"
   xml:space="preserve"
   xmlns:inkscape="http://www.inkscape.org/namespaces/inkscape"
   xmlns:sodipodi="http://sodipodi.sourceforge.net/DTD/sodipodi-0.dtd"
   xmlns="http://www.w3.org/2000/svg"
   xmlns:svg="http://www.w3.org/2000/svg"><sodipodi:namedview
     id="namedview19"
     pagecolor="#ffffff"
     bordercolor="#000000"
     borderopacity="0.25"
     inkscape:showpageshadow="2"
     inkscape:pageopacity="0.0"
     inkscape:pagecheckerboard="0"
     inkscape:deskcolor="#d1d1d1"
     inkscape:document-units="mm"
     inkscape:zoom="1.4196708"
     inkscape:cx="222.93901"
     inkscape:cy="108.12366"
     inkscape:window-width="1920"
     inkscape:window-height="938"
     inkscape:window-x="0"
     inkscape:window-y="25"
     inkscape:window-maximized="0"
     inkscape:current-layer="svg19" /><defs
     id="defs1"><marker
       style="overflow:visible"
       id="ArrowWideHeavy"
       refX="0"
       refY="0"
       orient="auto-start-reverse"
       inkscape:stockid="Wide, heavy arrow"
       markerWidth="1"
       markerHeight="1"
       viewBox="0 0 1 1"
       inkscape:isstock="true"
       inkscape:collect="always"
       preserveAspectRatio="xMidYMid"><path
         style="fill:context-stroke;fill-rule:evenodd;stroke:none"
         d="m 1,0 -3,3 h -2 l 3,-3 -3,-3 h 2 z"
         id="path17" /></marker><marker
       id="ArrowWide"
       overflow="visible"
       markerHeight="1"
       markerWidth="1"
       orient="auto-start-reverse"
       preserveAspectRatio="xMidYMid"
       viewBox="0 0 1 1"><path
         transform="rotate(180,0.125,0)"
         d="M 3,-3 0,0 3,3"
         fill="none"
         stroke="context-stroke"
         id="path1" /></marker><marker
       style="overflow:visible"
       id="ArrowWideHeavy-9"
       refX="0"
       refY="0"
       orient="auto-start-reverse"
       inkscape:stockid="Wide, heavy arrow"
       markerWidth="1"
       markerHeight="1"
       viewBox="0 0 1 1"
       inkscape:isstock="true"
       inkscape:collect="always"
       preserveAspectRatio="xMidYMid"><path
         style="fill:context-stroke;fill-rule:evenodd;stroke:none"
         d="m 1,0 -3,3 h -2 l 3,-3 -3,-3 h 2 z"
         id="path17-3" /></marker></defs><g
     transform="translate(-115.57,-127.35)"
     id="g19"><path
       d="m 158.04,127.35 h 42.474 v 42.442 H 158.04 Z"
       fill="#0f69af"
       id="path11" /><path
       d="m 115.57,127.35 h 42.474 v 42.442 H 115.57 Z"
       fill="#0f69af"
       id="path2" /><g
       fill="none"
       id="g4"
       transform="translate(0,-1.4719869)"><path
         d="m 117.35,161.9091 h 37.425"
         marker-end="url(#ArrowWide)"
         stroke="#ffffff"
         stroke-width="0.21167"
         id="path4" /></g><g
       id="g9"
       transform="translate(0,-1.4719869)"><text
         x="136.64523"
         y="164.85699"
         fill="#abdfdb"
         font-size="3.37594px"
         stroke="#ffffff"
         stroke-width="0.0805638"
         xml:space="preserve"
         id="text6"><tspan
           x="136.64523"
           y="164.85699"
           fill="#abdfdb"
           font-family="Arial"
           font-size="3.37594px"
           stroke="none"
           stroke-width="0.0805638"
           id="tspan6"
           style="font-style:normal;font-variant:normal;font-weight:normal;font-stretch:normal;font-family:'CMU Classical Serif';-inkscape-font-specification:'CMU Classical Serif';stroke-width:0.0805638">c<tspan
   style="font-style:normal;font-variant:normal;font-weight:normal;font-stretch:normal;font-size:65%;font-family:'CMU Concrete';-inkscape-font-specification:'CMU Concrete';baseline-shift:sub"
   id="tspan3" /></tspan></text><text
         x="163.26428"
         y="141.50226"
         fill="#abdfdb"
         font-size="2.7774px"
         stroke="#ffffff"
         stroke-width="0.06628"
         xml:space="preserve"
         id="text4"
         style="font-style:normal;font-variant:normal;font-weight:normal;font-stretch:normal;font-family:'CMU Concrete';-inkscape-font-specification:'CMU Concrete'"><tspan
           x="163.26428"
           y="141.50226"
           fill="#abdfdb"
           font-family="Arial"
           font-size="2.7774px"
           stroke="none"
           stroke-width="0.06628"
           id="tspan4"
           style="font-style:normal;font-variant:normal;font-weight:normal;font-stretch:normal;font-family:'CMU Concrete';-inkscape-font-specification:'CMU Concrete'">1.0</tspan></text><text
         x="122.91026"
         y="141.50226"
         fill="#abdfdb"
         font-size="2.7774px"
         stroke="#ffffff"
         stroke-width="0.06628"
         xml:space="preserve"
         id="text16"
         style="font-style:normal;font-variant:normal;font-weight:normal;font-stretch:normal;font-family:'CMU Concrete';-inkscape-font-specification:'CMU Concrete'"><tspan
           x="122.91026"
           y="141.50226"
           fill="#abdfdb"
           font-family="Arial"
           font-size="2.7774px"
           stroke="none"
           stroke-width="0.06628"
           id="tspan16"
           style="font-style:normal;font-variant:normal;font-weight:normal;font-stretch:normal;font-family:'CMU Concrete';-inkscape-font-specification:'CMU Concrete'">1.0</tspan></text><text
         x="122.91026"
         y="152.03616"
         fill="#abdfdb"
         font-size="2.7774px"
         stroke="#ffffff"
         stroke-width="0.06628"
         xml:space="preserve"
         id="text17"
         style="font-style:normal;font-variant:normal;font-weight:normal;font-stretch:normal;font-family:'CMU Concrete';-inkscape-font-specification:'CMU Concrete'"><tspan
           x="122.91026"
           y="152.03616"
           fill="#abdfdb"
           font-family="Arial"
           font-size="2.7774px"
           stroke="none"
           stroke-width="0.06628"
           id="tspan17"
           style="font-style:normal;font-variant:normal;font-weight:normal;font-stretch:normal;font-family:'CMU Concrete';-inkscape-font-specification:'CMU Concrete'">0.5</tspan></text></g><path
       d="m 137.63007,149.73596 v 10.76099"
       fill="none"
       stroke="#abdfdb"
       stroke-dasharray="0.211667, 0.423332"
       stroke-width="0.211669"
       id="path10" /><g
       fill="none"
       id="g13"
       transform="translate(0,-1.4719869)"><path
         d="m 159.82,161.9091 h 37.425"
         marker-end="url(#ArrowWide)"
         stroke="#ffffff"
         stroke-width="0.21167"
         id="path13" /></g><g
       id="g18" /><path
       d="M 153.50302,139.13656 H 127.90294"
       fill="none"
       stroke="#abdfdb"
       stroke-dasharray="0.211667, 0.423332"
       stroke-width="0.211669"
       id="path18" /><path
       d="m 137.38467,149.67046 h -9.5881"
       fill="none"
       stroke="#abdfdb"
       stroke-dasharray="0.211667, 0.423332"
       stroke-width="0.211669"
       id="path16" /><path
       d="M 193.85705,139.13656 H 168.25697"
       fill="none"
       stroke="#abdfdb"
       stroke-dasharray="0.211667, 0.423332"
       stroke-width="0.211669"
       id="path7" /><path
       d="M 168.31082,167.38 V 130.428"
       marker-end="url(#ArrowWide)"
       stroke="#ffffff"
       stroke-width="0.21167"
       id="path12" /><path
       d="M 127.89,167.38 V 130.428"
       marker-end="url(#ArrowWide)"
       stroke="#ffffff"
       stroke-width="0.21167"
       id="path3" /></g><text
     x="67.472336"
     y="24.508041"
     xml:space="preserve"
     id="text29"
     style="font-size:3.13954px;fill:#abdfdb;stroke:#ffffff;stroke-width:0.06628"><tspan
       x="67.472336"
       y="24.508041"
       fill="#abdfdb"
       font-family="Arial"
       font-size="3.13954px"
       stroke="none"
       stroke-width="0.06628"
       id="tspan29"
       style="font-style:normal;font-variant:normal;font-weight:normal;font-stretch:normal;font-family:'CMU Concrete';-inkscape-font-specification:'CMU Concrete'">anchors</tspan></text><path
     style="fill:none;stroke:#ffffff;stroke-width:0.462995;stroke-dasharray:0.925989, 0.462995;stroke-dashoffset:0;stroke-opacity:1"
     d="m 40.120289,11.659036 -5.570774,0.0068 -2.212706,0.0132 -1.81735,0.02686 -0.597324,0.02799 -0.785411,0.028 -0.6738,0.07466 -0.398906,0.056 -0.352848,0.07026 -0.295222,0.044 -0.267455,0.0792 -0.584598,0.211177 -0.278393,0.135695 -0.418741,0.26686 -0.229455,0.204577 -0.153458,0.160582 -0.118381,0.136384 -0.337679,0.399181 -0.167417,0.230208 -0.150881,0.242652 -0.130212,0.251984 -0.157082,0.276874 -0.15295,0.323535 -0.152947,0.3702 -0.11988,0.30487 -0.117811,0.276872 -0.198418,0.569298 -0.115746,0.357756 -0.165348,0.50397 -0.130214,0.432418 -0.159148,0.535078 -0.14989,0.547675 -0.156008,0.609587 -0.159678,0.648671 -0.227991,0.9019 -0.245533,1.025084 -0.277685,1.161471 -0.157683,0.652385 -0.159149,0.609742 -0.219605,0.844614 -0.125564,0.483748 -0.183949,0.656404 -0.21289,0.724846 -0.382369,1.144818 -0.179301,0.468194 -0.11626,0.281538 -0.09448,0.22043 -0.127151,0.274969 -0.11692,0.228774 -0.188533,0.367358 -0.159302,0.266171 -0.192918,0.27497 -0.235302,0.312364 -0.200225,0.217776 -0.280608,0.281567 -0.230915,0.184781 -0.233841,0.158381 -0.169533,0.08799 -0.219225,0.127585 -0.347836,0.149585 -0.447218,0.140784 -0.409219,0.07919 -0.786288,0.109988 -0.561213,0.066 -0.514447,0.0044 -0.987972,0.022 -2.411259,0.01806 -1.5563532,0.0093 -3.9663,0.03721"
     id="path15"
     sodipodi:nodetypes="ccccccccccccccccccccccccccccccccccccccccccccccccccccccccccccccccccc" /><path
     style="fill:none;stroke:#ffdcb9;stroke-width:0.462994"
     d="m 2.5696335,32.682805 2.274494,-0.022 1.184355,-0.0044 1.29202,-0.066 1.810177,-0.109988 0.9420985,-0.07919 1.02958,-0.140784 0.800784,-0.149585 0.504695,-0.127585 0.390297,-0.08799 0.538344,-0.158381 0.531612,-0.184781 0.646012,-0.281567 0.460956,-0.217776 0.541707,-0.312364 0.444132,-0.27497 0.366745,-0.266171 0.434038,-0.367358 0.269172,-0.228774 0.292724,-0.274969 0.217517,-0.22043 0.267657,-0.281538 0.412784,-0.468194 0.880287,-1.144818 0.490109,-0.724846 0.423487,-0.656404 0.289069,-0.483748 0.505572,-0.844614 0.366392,-0.609742 0.363018,-0.652385 0.639281,-1.161471 0.56526,-1.025084 0.524881,-0.9019 0.367608,-0.648671 0.359158,-0.609587 0.345075,-0.547675 0.36639,-0.535078 0.299774,-0.432418 0.380665,-0.50397 0.266467,-0.357756 0.456796,-0.569298 0.271224,-0.276872 0.275983,-0.30487 0.352115,-0.3702 0.352118,-0.323535 0.361632,-0.276874 0.299773,-0.251984 0.347355,-0.242652 0.385424,-0.230208 0.777402,-0.399181 0.272538,-0.136384 0.353285,-0.160582 0.52825,-0.204577 0.964019,-0.26686 0.640913,-0.135695 1.345855,-0.211177 0.615729,-0.0792 0.679657,-0.044 0.812322,-0.07026 0.918355,-0.056 1.551213,-0.07466 1.516504,-0.06971 0.500241,-0.02232"
     id="path5"
     sodipodi:nodetypes="ccccccccccccccccccccccccccccccccccccccccccccccccccccccccccccc" /><text
     x="27.138964"
     y="8.9059696"
     fill="#abdfdb"
     font-size="3.37594px"
     stroke="#ffffff"
     stroke-width="0.0805638"
     xml:space="preserve"
     id="text19-9"><tspan
       x="27.138964"
       y="8.9059696"
       fill="#abdfdb"
       font-family="Arial"
       font-size="3.37594px"
       stroke="none"
       stroke-width="0.0805638"
       id="tspan19-3"
       style="font-style:normal;font-variant:normal;font-weight:normal;font-stretch:normal;font-family:'CMU Concrete';-inkscape-font-specification:'CMU Concrete'"><tspan
         style="font-style:normal;font-variant:normal;font-weight:normal;font-stretch:normal;font-family:'CMU Classical Serif';-inkscape-font-specification:'CMU Classical Serif'"
         id="tspan5"><tspan
   style="fill:#ffffff;fill-opacity:1"
   id="tspan24">a</tspan><tspan
   style="font-style:normal;font-variant:normal;font-weight:normal;font-stretch:normal;font-size:65%;font-family:'CMU Concrete';-inkscape-font-specification:'CMU Concrete';baseline-shift:sub;fill:#ffffff;fill-opacity:1"
   id="tspan1">2</tspan> <tspan
   style="font-style:normal;font-variant:normal;font-weight:normal;font-stretch:normal;font-family:'CMU Concrete';-inkscape-font-specification:'CMU Concrete'"
   id="tspan23">&gt;</tspan> <tspan
   style="fill:#ffdcb9;fill-opacity:1;stroke:none;stroke-opacity:1"
   id="tspan21">a</tspan></tspan><tspan
         style="font-size:65%;baseline-shift:sub;fill:#ffdcb9;fill-opacity:1"
         id="tspan2">1 </tspan></tspan></text><path
     style="fill:none;stroke:#ffdcb9;stroke-width:0.462994"
     d="m 42.989552,32.682805 2.274494,-0.022 1.184355,-0.0044 1.29202,-0.066 1.810177,-0.109988 0.942099,-0.07919 1.02958,-0.140784 0.800784,-0.149585 0.504695,-0.127585 0.390297,-0.08799 0.538344,-0.158381 0.531612,-0.184781 0.646012,-0.281567 0.460956,-0.217776 0.541707,-0.312364 0.444132,-0.27497 0.366745,-0.266171 0.434038,-0.367358 0.269172,-0.228774 0.292724,-0.274969 0.217517,-0.22043 0.267657,-0.281538 0.412784,-0.468194 0.880287,-1.144818 0.490109,-0.724846 0.423487,-0.656404 0.289069,-0.483748 0.505572,-0.844614 0.366392,-0.609742 0.363018,-0.652385 0.639281,-1.161471 0.56526,-1.025084 0.524881,-0.9019 0.367608,-0.648671 0.359158,-0.609587 0.345075,-0.547675 0.36639,-0.535078 0.299774,-0.432418 0.380665,-0.50397 0.266467,-0.357756 0.456796,-0.569298 0.271224,-0.276872 0.275983,-0.30487 0.352115,-0.3702 0.352118,-0.323535 0.361632,-0.276874 0.299773,-0.251984 0.347355,-0.242652 0.385424,-0.230208 0.777402,-0.399181 0.272538,-0.136384 0.353285,-0.160582 0.52825,-0.204577 0.964019,-0.26686 0.640913,-0.135695 1.345855,-0.211177 0.615729,-0.0792 0.679657,-0.044 0.812322,-0.07026 0.918355,-0.056 1.551213,-0.07466 1.516504,-0.06971"
     id="path6"
     sodipodi:nodetypes="ccccccccccccccccccccccccccccccccccccccccccccccccccccccccccccc" /><path
     style="fill:none;stroke:#abdfdb;stroke-width:0.211498;stroke-dasharray:none;stroke-opacity:1;marker-end:url(#ArrowWideHeavy)"
     d="m 66.535318,25.179938 -4.885705,2.269716"
     id="path14"
     sodipodi:nodetypes="cc" /><path
     style="fill:none;stroke:#abdfdb;stroke-width:0.211498;stroke-dasharray:none;stroke-opacity:1;marker-end:url(#ArrowWideHeavy-9)"
     d="M 70.56049,21.292617 68.727143,16.226991"
     id="path14-8"
     sodipodi:nodetypes="cc" /><g
     id="g25"
     transform="matrix(0.15497723,0.15497723,-0.15497723,0.15497723,59.688289,3.4080336)"
     style="stroke:#ffffff;stroke-width:1.59691;stroke-dasharray:none;stroke-opacity:1"><path
       style="fill:none;stroke:#ffffff;stroke-width:1.59691;stroke-dasharray:none;stroke-opacity:1"
       d="m 59.119323,9.377709 h 6.828656"
       id="path8" /><path
       style="fill:none;stroke:#ffffff;stroke-width:1.59691;stroke-dasharray:none;stroke-opacity:1"
       d="m 62.533651,5.963381 v 6.828656"
       id="path9" /></g><g
     id="g26"
     transform="matrix(0.15497723,0.15497723,-0.15497723,0.15497723,50.281595,17.440797)"
     style="stroke:#ffffff;stroke-width:1.59691;stroke-dasharray:none;stroke-opacity:1"><path
       style="fill:none;stroke:#ffffff;stroke-width:1.59691;stroke-dasharray:none;stroke-opacity:1"
       d="m 59.119323,9.377709 h 6.828656"
       id="path25" /><path
       style="fill:none;stroke:#ffffff;stroke-width:1.59691;stroke-dasharray:none;stroke-opacity:1"
       d="m 62.533651,5.963381 v 6.828656"
       id="path26" /></g></svg>
