<?xml version="1.0" encoding="UTF-8"?>
<!-- Created with Inkscape (http://www.inkscape.org/) -->
<svg width="280.96mm" height="141.23mm" version="1.1" viewBox="0 0 140.49 70.614" xml:space="preserve" xmlns="http://www.w3.org/2000/svg"><defs><marker id="ArrowWide" overflow="visible" markerHeight="1" markerWidth="1" orient="auto-start-reverse" preserveAspectRatio="xMidYMid" viewBox="0 0 1 1"><path transform="rotate(180 .125 0)" d="m3-3-3 3 3 3" fill="none" stroke="context-stroke"/></marker><marker id="ArrowWideHeavy" overflow="visible" markerHeight="1" markerWidth="1" orient="auto-start-reverse" preserveAspectRatio="xMidYMid" viewBox="0 0 1 1"><path d="m1 0-3 3h-2l3-3-3-3h2z" fill="context-stroke" fill-rule="evenodd"/></marker></defs><path d="m0-0.0023363h140.49v70.619h-140.49z" fill="#0f69af" stroke-width="1.0641"/><g transform="translate(0 -.0018362)" fill="none"><path d="m12.844 37.456v-26.054" marker-end="url(#ArrowWide)" stroke="#fff" stroke-width=".21167"/><path d="m12.335 36.958h39.974" marker-end="url(#ArrowWide)" stroke="#fff" stroke-width=".22924"/><path d="m32.441 36.18v1.5561" stroke="#abdfdb" stroke-width=".37042"/><path d="m32.44 13.731v22.695" stroke="#abdfdb" stroke-dasharray="0.211666, 0.423332" stroke-width=".21167"/><path d="m13.833 35.767c1.0112-0.31519 1.9846-0.72588 2.864-1.2959 1.5783-1.023 2.6956-2.6426 3.8357-4.1385 1.1998-1.5743 2.13-3.3382 3.1291-5.047 1.481-2.5328 2.603-5.2792 4.2446-7.711 0.50593-0.74946 1.0895-1.4489 1.715-2.1019 0.44182-0.46124 0.87283-0.96392 1.4312-1.2741 0.41357-0.22975 0.88861-0.38285 1.3872-0.40142 0.49858 0.01857 0.97362 0.17167 1.3872 0.40142 0.55837 0.31018 0.98938 0.81286 1.4312 1.2741 0.6255 0.653 1.2091 1.3524 1.715 2.1019 1.6416 2.4318 2.7636 5.1782 4.2446 7.711 0.9991 1.7088 1.9293 3.4727 3.1291 5.047 1.1401 1.4959 2.2574 3.1155 3.8357 4.1385 0.8794 0.57002 1.8528 0.98071 2.864 1.2959" stroke="#ffdcb9" stroke-width=".463"/></g><g transform="translate(0 -.0023363)" fill="#fff" font-family="'CMU Concrete'" font-size="3.175px" stroke="#fff" stroke-width=".080564"><text x="60.799633" y="3.1398463" xml:space="preserve"><tspan x="60.799633" y="3.1398463" fill="#ffffff" font-family="'CMU Concrete'" font-size="3.175px" stroke="none" stroke-width=".080564">match mode</tspan></text><text transform="rotate(-90)" x="-51.398743" y="3.5914285" xml:space="preserve"><tspan x="-51.398743" y="3.5914285" fill="#ffffff" font-family="'CMU Concrete'" font-size="3.175px" stroke="none" stroke-width=".080564">mismatch_instead</tspan></text><text x="29.620792" y="8.8276978" xml:space="preserve"><tspan x="29.620792" y="8.8276978" fill="#ffffff" font-family="'CMU Concrete'" font-size="3.175px" stroke="none" stroke-width=".080564">"="</tspan></text><text x="69.176765" y="8.2494507" xml:space="preserve"><tspan x="69.176765" y="8.2494507" fill="#ffffff" font-family="'CMU Concrete'" font-size="3.175px" stroke="none" stroke-width=".080564">"&lt;="</tspan></text><text x="109.96754" y="8.2494507" xml:space="preserve"><tspan x="109.96754" y="8.2494507" fill="#ffffff" font-family="'CMU Concrete'" font-size="3.175px" stroke="none" stroke-width=".080564">"&gt;="</tspan></text><text transform="rotate(-90)" x="-57.472733" y="8.6252041" xml:space="preserve"><tspan x="-57.472733" y="8.6252041" fill="#ffffff" font-family="'CMU Concrete'" font-size="3.175px" stroke="none" stroke-width=".080564">True</tspan></text><text transform="rotate(-90)" x="-27.635529" y="8.6252041" xml:space="preserve"><tspan x="-27.635529" y="8.6252041" fill="#ffffff" font-family="'CMU Concrete'" font-size="3.175px" stroke="none" stroke-width=".080564">False</tspan></text></g><g transform="translate(2.5451 2.6187)"><text transform="rotate(-90)" x="-28.127975" y="134.60451" fill="#abdfdb" font-family="'CMU Concrete'" font-size="3.175px" stroke="#ffffff" stroke-width=".080565" xml:space="preserve"><tspan x="-28.127975" y="134.60451" fill="#abdfdb" font-family="'CMU Concrete'" font-size="3.175px" stroke="none" stroke-width=".080565">maximize</tspan></text><path d="m136.08 25.203v-6.9972" fill="none" marker-end="url(#ArrowWideHeavy)" stroke="#abdfdb" stroke-width=".2115"/></g><g transform="translate(2.5451 32.695)"><text transform="rotate(-90)" x="-28.121071" y="134.60451" fill="#abdfdb" font-family="'CMU Concrete'" font-size="3.175px" stroke="#ffffff" stroke-width=".080565" xml:space="preserve"><tspan x="-28.121071" y="134.60451" fill="#abdfdb" font-family="'CMU Concrete'" font-size="3.175px" stroke="none" stroke-width=".080565">minimize</tspan></text><path d="m136.08 18.206v6.9972" fill="none" marker-end="url(#ArrowWideHeavy)" stroke="#abdfdb" stroke-width=".2115"/></g><g transform="translate(0 .73467)"><text x="24.018034" y="68.770493" fill="#abdfdb" font-family="'CMU Concrete'" font-size="3.175px" stroke="#ffffff" stroke-width=".080564" xml:space="preserve"><tspan x="24.018034" y="68.770493" fill="#abdfdb" font-family="'CMU Concrete'" font-size="3.175px" stroke="none" stroke-width=".080564">match value</tspan></text><g fill="none"><path d="m12.844 65.095v-26.054" marker-end="url(#ArrowWide)" stroke="#fff" stroke-width=".21167"/><path d="m12.335 64.597h39.974" marker-end="url(#ArrowWide)" stroke="#fff" stroke-width=".22924"/><path d="m32.441 63.819v1.5561" stroke="#abdfdb" stroke-width=".37042"/><path d="m32.44 41.37v22.695" stroke="#abdfdb" stroke-dasharray="0.211666, 0.423332" stroke-width=".21167"/><path d="m13.833 63.406c1.0112-0.31519 1.9846-0.72588 2.864-1.2959 1.5783-1.023 2.6956-2.6426 3.8357-4.1385 1.1998-1.5743 2.13-3.3382 3.1291-5.047 1.481-2.5328 2.603-5.2792 4.2446-7.711 0.50593-0.74946 1.0895-1.4489 1.715-2.1019 0.44182-0.46124 0.87283-0.96392 1.4312-1.2741 0.41357-0.22975 0.88861-0.38285 1.3872-0.40142 0.49858 0.01857 0.97362 0.17167 1.3872 0.40142 0.55837 0.31018 0.98938 0.81286 1.4312 1.2741 0.6255 0.653 1.2091 1.3524 1.715 2.1019 1.6416 2.4318 2.7636 5.1782 4.2446 7.711 0.9991 1.7088 1.9293 3.4727 3.1291 5.047 1.1401 1.4959 2.2574 3.1155 3.8357 4.1385 0.8794 0.57002 1.8528 0.98071 2.864 1.2959" stroke="#ffdcb9" stroke-width=".463"/><path d="m13.833 63.406c1.0112-0.31519 1.9846-0.72588 2.864-1.2959 1.5783-1.023 2.6956-2.6426 3.8357-4.1385 1.1998-1.5743 2.13-3.3382 3.1291-5.047 1.481-2.5328 2.603-5.2792 4.2446-7.711 0.50593-0.74946 1.0895-1.4489 1.715-2.1019 0.44182-0.46124 0.87283-0.96392 1.4312-1.2741 0.41357-0.22975 0.88861-0.38285 1.3872-0.40142 0.49858 0.01857 0.97362 0.17167 1.3872 0.40142 0.55837 0.31018 0.98938 0.81286 1.4312 1.2741 0.6255 0.653 1.2091 1.3524 1.715 2.1019 1.6416 2.4318 2.7636 5.1782 4.2446 7.711 0.9991 1.7088 1.9293 3.4727 3.1291 5.047 1.1401 1.4959 2.2574 3.1155 3.8357 4.1385 0.8794 0.57002 1.8528 0.98071 2.864 1.2959" stroke="#ffdcb9" stroke-width=".463"/></g></g><g transform="translate(0 -.0018362)"><g fill="none"><path d="m53.635 37.456v-26.054" marker-end="url(#ArrowWide)" stroke="#fff" stroke-width=".21167"/><path d="m53.126 36.958h39.974" marker-end="url(#ArrowWide)" stroke="#fff" stroke-width=".22924"/><path d="m73.232 36.18v1.5561" stroke="#abdfdb" stroke-width=".37042"/><path d="m73.231 13.731v22.695" stroke="#abdfdb" stroke-dasharray="0.211666, 0.423332" stroke-width=".21167"/><path d="m91.838 35.767c-1.0112-0.31519-1.9846-0.72588-2.864-1.2959-1.5783-1.023-2.6956-2.6426-3.8357-4.1385-1.1998-1.5743-2.13-3.3382-3.1291-5.047-1.481-2.5328-2.603-5.2792-4.2446-7.711-0.50593-0.74946-1.0895-1.4489-1.715-2.1019-0.44182-0.46124-0.87283-0.96392-1.4312-1.2741-0.41357-0.22975-0.88861-0.38285-1.3872-0.40142h-18.462" stroke="#ffdcb9" stroke-width=".463"/><path d="m94.426 37.456v-26.054" marker-end="url(#ArrowWide)" stroke="#fff" stroke-width=".21167"/><path d="m93.917 36.958h39.974" marker-end="url(#ArrowWide)" stroke="#fff" stroke-width=".22924"/><path d="m114.02 36.18v1.5561" stroke="#abdfdb" stroke-width=".37042"/><path d="m114.02 13.731v22.695" stroke="#abdfdb" stroke-dasharray="0.211666, 0.423332" stroke-width=".21167"/><path d="m95.42 35.767c1.0112-0.31519 1.9846-0.72588 2.864-1.2959 1.5783-1.023 2.6956-2.6426 3.8357-4.1385 1.1998-1.5743 2.13-3.3382 3.1291-5.047 1.481-2.5328 2.603-5.2792 4.2446-7.711 0.50593-0.74946 1.0895-1.4489 1.715-2.1019 0.44182-0.46124 0.87283-0.96392 1.4312-1.2741 0.41357-0.22975 0.88861-0.38285 1.3872-0.40142h18.237" stroke="#ffdcb9" stroke-width=".463"/><path d="m91.838 63.711c-1.0112-0.31519-1.9846-0.72588-2.864-1.2959-1.5783-1.023-2.6956-2.6426-3.8357-4.1385-1.1998-1.5743-2.13-3.3382-3.1291-5.047-1.481-2.5328-2.603-5.2792-4.2446-7.711-0.50593-0.74946-1.0895-1.4489-1.715-2.1019-0.44182-0.46124-0.87283-0.96392-1.4312-1.2741-0.41357-0.22975-0.88861-0.38285-1.3872-0.40142h-18.462" stroke="#ffdcb9" stroke-width=".463"/></g><text x="64.808815" y="69.506996" fill="#abdfdb" font-family="'CMU Concrete'" font-size="3.175px" stroke="#ffffff" stroke-width=".080564" xml:space="preserve"><tspan x="64.808815" y="69.506996" fill="#abdfdb" font-family="'CMU Concrete'" font-size="3.175px" stroke="none" stroke-width=".080564">match value</tspan></text><g fill="none"><path d="m53.635 65.832v-26.054" marker-end="url(#ArrowWide)" stroke="#fff" stroke-width=".21167"/><path d="m53.126 65.334h39.974" marker-end="url(#ArrowWide)" stroke="#fff" stroke-width=".22924"/><path d="m73.232 64.556v1.5561" stroke="#abdfdb" stroke-width=".37042"/><path d="m73.231 42.107v22.695" stroke="#abdfdb" stroke-dasharray="0.211666, 0.423332" stroke-width=".21167"/></g><text x="105.59959" y="69.506996" fill="#abdfdb" font-family="'CMU Concrete'" font-size="3.175px" stroke="#ffffff" stroke-width=".080564" xml:space="preserve"><tspan x="105.59959" y="69.506996" fill="#abdfdb" font-family="'CMU Concrete'" font-size="3.175px" stroke="none" stroke-width=".080564">match value</tspan></text><g fill="none"><path d="m94.426 65.832v-26.054" marker-end="url(#ArrowWide)" stroke="#fff" stroke-width=".21167"/><path d="m93.917 65.334h39.974" marker-end="url(#ArrowWide)" stroke="#fff" stroke-width=".22924"/><path d="m114.02 64.556v1.5561" stroke="#abdfdb" stroke-width=".37042"/><path d="m114.02 42.107v22.695" stroke="#abdfdb" stroke-dasharray="0.211666, 0.423332" stroke-width=".21167"/><path d="m95.42 63.722c1.0112-0.31519 1.9846-0.72588 2.864-1.2959 1.5783-1.023 2.6956-2.6426 3.8357-4.1385 1.1998-1.5743 2.13-3.3382 3.1291-5.047 1.481-2.5328 2.603-5.2792 4.2446-7.711 0.50593-0.74946 1.0895-1.4489 1.715-2.1019 0.44182-0.46124 0.87283-0.96392 1.4312-1.2741 0.41357-0.22975 0.88861-0.38285 1.3872-0.40142h18.237" stroke="#ffdcb9" stroke-width=".463"/></g></g></svg>
