<svg xmlns="http://www.w3.org/2000/svg" xmlns:xlink="http://www.w3.org/1999/xlink" width="2304" height="768" viewBox="0 0 1728 576"><defs><style>*{stroke-linejoin:round;stroke-linecap:butt}</style></defs><g id="figure_1"><path id="patch_1" d="M0 576h1728V0H0z" style="fill:none"/><g id="axes_1"><path id="patch_2" d="M216 512.64h1339.2V69.12H216z" style="fill:none"/><g id="FillBetweenPolyCollection_1"><defs><path id="md7512efae6" d="M276.873-170.005v52.351L327.6-175.08l50.727-9.832 50.728-35.857 50.727-59.46 50.727-31.97 50.727-34.723 50.728-15.126 50.727-4.201 50.727-14.46 50.727.784 50.728-5.58 50.727-2.258 50.727-2.39 50.728-8.82 50.727-4.981 50.727-18.562 50.727-9.812 50.728-14.662 50.727-1.514 50.727-3.055 50.727-2.11 50.728-4.346 50.727-2.739 50.727 1.49v-27.098l-50.727.83-50.727-.412-50.728 3.264-50.727.312-50.727 3.245-50.727-.251-50.728 1.668-50.727 2.389-50.727 10.936-50.727 4.346-50.728 7.291-50.727 2.68-50.727 1.492-50.728 3.19-50.727.9-50.727 15.284-50.727 4.815-50.728 10.996-50.727 30.605-50.727 31.118-50.727 56.81-50.728 33.604-50.727 20.11z" style="stroke:#1f77b4;stroke-opacity:.2"/></defs><g clip-path="url(#p8db5f78836)"><use xlink:href="#md7512efae6" y="576" style="fill:#1f77b4;fill-opacity:.2;stroke:#1f77b4;stroke-opacity:.2"/></g></g><g id="matplotlib.axis_1"><g id="xtick_1"><g id="line2d_1"><defs><path id="m80f5f02dff" d="M0 0v3.5" style="stroke:#000;stroke-width:.8"/></defs><use xlink:href="#m80f5f02dff" x="226.145" y="512.64" style="stroke:#000;stroke-width:.8"/></g><g id="text_1" style="fill:#fff" transform="matrix(.22 0 0 -.22 219.147 536.357)"><defs><path id="DejaVuSans-30" d="M2034 4250q-487 0-733-480-245-479-245-1442 0-959 245-1439 246-480 733-480 491 0 736 480 246 480 246 1439 0 963-246 1442-245 480-736 480m0 500q785 0 1199-621 414-620 414-1801 0-1178-414-1799Q2819-91 2034-91q-784 0-1198 620-414 621-414 1799 0 1181 414 1801 414 621 1198 621" transform="scale(.01563)"/></defs><use xlink:href="#DejaVuSans-30"/></g></g><g id="xtick_2"><use xlink:href="#m80f5f02dff" id="line2d_2" x="479.782" y="512.64" style="stroke:#000;stroke-width:.8"/><g id="text_2" style="fill:#fff" transform="matrix(.22 0 0 -.22 472.783 536.357)"><defs><path id="DejaVuSans-35" d="M691 4666h2478v-532H1269V2991q137 47 274 70 138 23 276 23 781 0 1237-428 457-428 457-1159 0-753-469-1171Q2575-91 1722-91q-294 0-599 50Q819 9 494 109v635q281-153 581-228t634-75q541 0 856 284 316 284 316 772 0 487-316 771-315 285-856 285-253 0-505-56-251-56-513-175z" transform="scale(.01563)"/></defs><use xlink:href="#DejaVuSans-35"/></g></g><g id="xtick_3"><use xlink:href="#m80f5f02dff" id="line2d_3" x="733.418" y="512.64" style="stroke:#000;stroke-width:.8"/><g id="text_3" style="fill:#fff" transform="matrix(.22 0 0 -.22 719.42 536.357)"><defs><path id="DejaVuSans-31" d="M794 531h1031v3560L703 3866v575l1116 225h631V531h1031V0H794z" transform="scale(.01563)"/></defs><use xlink:href="#DejaVuSans-31"/><use xlink:href="#DejaVuSans-30" transform="translate(63.623)"/></g></g><g id="xtick_4"><use xlink:href="#m80f5f02dff" id="line2d_4" x="987.055" y="512.64" style="stroke:#000;stroke-width:.8"/><g id="text_4" style="fill:#fff" transform="matrix(.22 0 0 -.22 973.057 536.357)"><use xlink:href="#DejaVuSans-31"/><use xlink:href="#DejaVuSans-35" transform="translate(63.623)"/></g></g><g id="xtick_5"><use xlink:href="#m80f5f02dff" id="line2d_5" x="1240.691" y="512.64" style="stroke:#000;stroke-width:.8"/><g id="text_5" style="fill:#fff" transform="matrix(.22 0 0 -.22 1226.693 536.357)"><defs><path id="DejaVuSans-32" d="M1228 531h2203V0H469v531q359 372 979 998 621 627 780 809 303 340 423 576 121 236 121 464 0 372-261 606-261 235-680 235-297 0-627-103-329-103-704-313v638q381 153 712 231 332 78 607 78 725 0 1156-363 431-362 431-968 0-288-108-546-107-257-392-607-78-91-497-524-418-433-1181-1211" transform="scale(.01563)"/></defs><use xlink:href="#DejaVuSans-32"/><use xlink:href="#DejaVuSans-30" transform="translate(63.623)"/></g></g><g id="xtick_6"><use xlink:href="#m80f5f02dff" id="line2d_6" x="1494.327" y="512.64" style="stroke:#000;stroke-width:.8"/><g id="text_6" style="fill:#fff" transform="matrix(.22 0 0 -.22 1480.33 536.357)"><use xlink:href="#DejaVuSans-32"/><use xlink:href="#DejaVuSans-35" transform="translate(63.623)"/></g></g><g id="text_7" style="fill:#fff" transform="matrix(.22 0 0 -.22 784.897 561.648)"><defs><path id="DejaVuSans-4e" d="M628 4666h850L3547 763v3903h612V0h-850L1241 3903V0H628z" transform="scale(.01563)"/><path id="DejaVuSans-75" d="M544 1381v2119h575V1403q0-497 193-746 194-248 582-248 465 0 735 297 271 297 271 810v1984h575V0h-575v538q-209-319-486-474-276-155-642-155-603 0-916 375-312 375-312 1097m1447 2203" transform="scale(.01563)"/><path id="DejaVuSans-6d" d="M3328 2828q216 388 516 572t706 184q547 0 844-383 297-382 297-1088V0h-578v2094q0 503-179 746-178 244-543 244-447 0-707-297-259-296-259-809V0h-578v2094q0 506-178 748t-550 242q-441 0-701-298-259-298-259-808V0H581v3500h578v-544q197 322 472 475t653 153q382 0 649-194 267-193 395-562" transform="scale(.01563)"/><path id="DejaVuSans-5f" d="M3263-1063v-446H-63v446z" transform="scale(.01563)"/><path id="DejaVuSans-45" d="M628 4666h2950v-532H1259V2753h2222v-531H1259V531h2375V0H628z" transform="scale(.01563)"/><path id="DejaVuSans-78" d="M3513 3500 2247 1797 3578 0h-678L1881 1375 863 0H184l1360 1831L300 3500h678l928-1247 928 1247z" transform="scale(.01563)"/><path id="DejaVuSans-70" d="M1159 525v-1856H581v4831h578v-531q182 312 458 463 277 152 661 152 638 0 1036-506 399-506 399-1331T3314 415Q2916-91 2278-91q-384 0-661 152-276 152-458 464m1957 1222q0 634-261 995t-717 361q-457 0-718-361t-261-995 261-995 718-361q456 0 717 361t261 995" transform="scale(.01563)"/><path id="DejaVuSans-65" d="M3597 1894v-281H953q38-594 358-905t892-311q331 0 642 81t618 244V178Q3153 47 2828-22t-659-69q-838 0-1327 487-489 488-489 1320 0 859 464 1363 464 505 1252 505 706 0 1117-455 411-454 411-1235m-575 169q-6 471-264 752-258 282-683 282-481 0-770-272t-333-766z" transform="scale(.01563)"/><path id="DejaVuSans-72" d="M2631 2963q-97 56-211 82-114 27-251 27-488 0-749-317t-261-911V0H581v3500h578v-544q182 319 472 473 291 155 707 155 59 0 131-8 72-7 159-23z" transform="scale(.01563)"/><path id="DejaVuSans-69" d="M603 3500h575V0H603zm0 1363h575v-729H603z" transform="scale(.01563)"/><path id="DejaVuSans-6e" d="M3513 2113V0h-575v2094q0 497-194 743-194 247-581 247-466 0-735-297-269-296-269-809V0H581v3500h578v-544q207 316 486 472 280 156 646 156 603 0 912-373 310-373 310-1098" transform="scale(.01563)"/><path id="DejaVuSans-74" d="M1172 4494v-994h1184v-447H1172V1153q0-428 117-550t477-122h590V0h-590q-666 0-919 248-253 249-253 905v1900H172v447h422v994z" transform="scale(.01563)"/><path id="DejaVuSans-73" d="M2834 3397v-544q-243 125-506 187-262 63-544 63-428 0-642-131t-214-394q0-200 153-314t616-217l197-44q612-131 870-370t258-667q0-488-386-773Q2250-91 1575-91q-281 0-586 55T347 128v594q319-166 628-249 309-82 613-82 406 0 624 139 219 139 219 392 0 234-158 359-157 125-692 241l-200 47q-534 112-772 345-237 233-237 639 0 494 350 762 350 269 994 269 318 0 599-47 282-46 519-140" transform="scale(.01563)"/></defs><use xlink:href="#DejaVuSans-4e"/><use xlink:href="#DejaVuSans-75" transform="translate(74.805)"/><use xlink:href="#DejaVuSans-6d" transform="translate(138.184)"/><use xlink:href="#DejaVuSans-5f" transform="translate(235.596)"/><use xlink:href="#DejaVuSans-45" transform="translate(285.596)"/><use xlink:href="#DejaVuSans-78" transform="translate(348.78)"/><use xlink:href="#DejaVuSans-70" transform="translate(407.959)"/><use xlink:href="#DejaVuSans-65" transform="translate(471.436)"/><use xlink:href="#DejaVuSans-72" transform="translate(532.959)"/><use xlink:href="#DejaVuSans-69" transform="translate(574.072)"/><use xlink:href="#DejaVuSans-6d" transform="translate(601.855)"/><use xlink:href="#DejaVuSans-65" transform="translate(699.268)"/><use xlink:href="#DejaVuSans-6e" transform="translate(760.791)"/><use xlink:href="#DejaVuSans-74" transform="translate(824.17)"/><use xlink:href="#DejaVuSans-73" transform="translate(863.379)"/></g></g><g id="matplotlib.axis_2"><g id="ytick_1"><g id="line2d_7"><defs><path id="mf21896df19" d="M0 0h-3.5" style="stroke:#000;stroke-width:.8"/></defs><use xlink:href="#mf21896df19" x="216" y="492.48" style="stroke:#000;stroke-width:.8"/></g><use xlink:href="#DejaVuSans-30" id="text_8" style="fill:#fff" transform="matrix(.22 0 0 -.22 195.002 500.838)"/></g><g id="ytick_2"><use xlink:href="#mf21896df19" id="line2d_8" x="216" y="411.84" style="stroke:#000;stroke-width:.8"/><g id="text_9" style="fill:#fff" transform="matrix(.22 0 0 -.22 181.005 420.198)"><use xlink:href="#DejaVuSans-32"/><use xlink:href="#DejaVuSans-30" transform="translate(63.623)"/></g></g><g id="ytick_3"><use xlink:href="#mf21896df19" id="line2d_9" x="216" y="331.2" style="stroke:#000;stroke-width:.8"/><g id="text_10" style="fill:#fff" transform="matrix(.22 0 0 -.22 181.005 339.558)"><defs><path id="DejaVuSans-34" d="M2419 4116 825 1625h1594zm-166 550h794V1625h666v-525h-666V0h-628v1100H313v609z" transform="scale(.01563)"/></defs><use xlink:href="#DejaVuSans-34"/><use xlink:href="#DejaVuSans-30" transform="translate(63.623)"/></g></g><g id="ytick_4"><use xlink:href="#mf21896df19" id="line2d_10" x="216" y="250.56" style="stroke:#000;stroke-width:.8"/><g id="text_11" style="fill:#fff" transform="matrix(.22 0 0 -.22 181.005 258.918)"><defs><path id="DejaVuSans-36" d="M2113 2584q-425 0-674-291-248-290-248-796 0-503 248-796 249-292 674-292t673 292q248 293 248 796 0 506-248 796-248 291-673 291m1253 1979v-575q-238 112-480 171-242 60-480 60-625 0-955-422-329-422-376-1275 184 272 462 417 279 145 613 145 703 0 1111-427 408-426 408-1160 0-719-425-1154Q2819-91 2113-91q-810 0-1238 620-428 621-428 1799 0 1106 525 1764t1409 658q238 0 480-47t505-140" transform="scale(.01563)"/></defs><use xlink:href="#DejaVuSans-36"/><use xlink:href="#DejaVuSans-30" transform="translate(63.623)"/></g></g><g id="ytick_5"><use xlink:href="#mf21896df19" id="line2d_11" x="216" y="169.92" style="stroke:#000;stroke-width:.8"/><g id="text_12" style="fill:#fff" transform="matrix(.22 0 0 -.22 181.005 178.278)"><defs><path id="DejaVuSans-38" d="M2034 2216q-450 0-708-241-257-241-257-662 0-422 257-663 258-241 708-241t709 242q260 243 260 662 0 421-258 662-257 241-711 241m-631 268q-406 100-633 378-226 279-226 679 0 559 398 884 399 325 1092 325 697 0 1094-325t397-884q0-400-227-679-226-278-629-378 456-106 710-416 255-309 255-755 0-679-414-1042Q2806-91 2034-91q-771 0-1186 362-414 363-414 1042 0 446 256 755 257 310 713 416m-231 997q0-362 226-565 227-203 636-203 407 0 636 203 230 203 230 565 0 363-230 566-229 203-636 203-409 0-636-203-226-203-226-566" transform="scale(.01563)"/></defs><use xlink:href="#DejaVuSans-38"/><use xlink:href="#DejaVuSans-30" transform="translate(63.623)"/></g></g><g id="ytick_6"><use xlink:href="#mf21896df19" id="line2d_12" x="216" y="89.28" style="stroke:#000;stroke-width:.8"/><g id="text_13" style="fill:#fff" transform="matrix(.22 0 0 -.22 167.007 97.638)"><use xlink:href="#DejaVuSans-31"/><use xlink:href="#DejaVuSans-30" transform="translate(63.623)"/><use xlink:href="#DejaVuSans-30" transform="translate(127.246)"/></g></g><g id="text_14" style="fill:#fff" transform="matrix(0 -.22 -.22 0 157.82 372.48)"><defs><path id="DejaVuSans-79" d="M2059-325q-243-625-475-815-231-191-618-191H506v481h338q237 0 368 113 132 112 291 531l103 262L191 3500h609L1894 763l1094 2737h609z" transform="scale(.01563)"/><path id="DejaVuSans-6c" d="M603 4863h575V0H603z" transform="scale(.01563)"/><path id="DejaVuSans-64" d="M2906 2969v1894h575V0h-575v525q-181-312-458-464-276-152-664-152-634 0-1033 506-398 507-398 1332t398 1331q399 506 1033 506 388 0 664-152 277-151 458-463M947 1747q0-634 261-995t717-361 718 361q263 361 263 995t-263 995q-262 361-718 361t-717-361-261-995" transform="scale(.01563)"/><path id="DejaVuSans-43" d="M4122 4306v-665q-319 297-680 443-361 147-767 147-800 0-1225-489t-425-1414q0-922 425-1411t1225-489q406 0 767 147t680 444V359q-331-225-702-338-370-112-782-112-1060 0-1670 648-609 649-609 1771 0 1125 609 1773 610 649 1670 649 418 0 788-111 371-111 696-333" transform="scale(.01563)"/><path id="DejaVuSans-42" d="M1259 2228V519h1013q509 0 754 211 246 211 246 645 0 438-246 645-245 208-754 208zm0 1919V2741h935q462 0 688 173 227 174 227 530 0 353-227 528-226 175-688 175zm-631 519h1613q722 0 1112-300 391-300 391-853 0-429-200-682t-588-315q466-100 724-418 258-317 258-792 0-625-425-966Q3088 0 2303 0H628z" transform="scale(.01563)"/></defs><use xlink:href="#DejaVuSans-79"/><use xlink:href="#DejaVuSans-69" transform="translate(59.18)"/><use xlink:href="#DejaVuSans-65" transform="translate(86.963)"/><use xlink:href="#DejaVuSans-6c" transform="translate(148.486)"/><use xlink:href="#DejaVuSans-64" transform="translate(176.27)"/><use xlink:href="#DejaVuSans-5f" transform="translate(239.746)"/><use xlink:href="#DejaVuSans-43" transform="translate(289.746)"/><use xlink:href="#DejaVuSans-75" transform="translate(359.57)"/><use xlink:href="#DejaVuSans-6d" transform="translate(422.95)"/><use xlink:href="#DejaVuSans-42" transform="translate(520.361)"/><use xlink:href="#DejaVuSans-65" transform="translate(588.965)"/><use xlink:href="#DejaVuSans-73" transform="translate(650.488)"/><use xlink:href="#DejaVuSans-74" transform="translate(702.588)"/></g></g><g id="line2d_13"><path d="m276.873 432.516 50.727-62.06 50.727-14.647 50.728-39.247 50.727-57.728 50.727-29.3 50.727-33.206 50.728-12.018 50.727-5.893 50.727-14.954 50.727-.512 50.728-3.974 50.727-3.225 50.727-3.25 50.728-8.42 50.727-2.396 50.727-15.922 50.727-5.617 50.728-9.251h50.727l50.727-3.893 50.727-.797 50.728-3.897h50.727l50.727-.288" clip-path="url(#p8db5f78836)" style="fill:none;stroke:#1f77b4;stroke-width:1.5;stroke-linecap:square"/><defs><path id="m81afa8d14f" d="M0 5A5 5 0 1 0 0-5 5 5 0 0 0 0 5z" style="stroke:#fff;stroke-width:.75"/></defs><g clip-path="url(#p8db5f78836)"><use xlink:href="#m81afa8d14f" x="276.873" y="432.516" style="fill:#1f77b4;stroke:#fff;stroke-width:.75"/><use xlink:href="#m81afa8d14f" x="327.6" y="370.456" style="fill:#1f77b4;stroke:#fff;stroke-width:.75"/><use xlink:href="#m81afa8d14f" x="378.327" y="355.809" style="fill:#1f77b4;stroke:#fff;stroke-width:.75"/><use xlink:href="#m81afa8d14f" x="429.055" y="316.562" style="fill:#1f77b4;stroke:#fff;stroke-width:.75"/><use xlink:href="#m81afa8d14f" x="479.782" y="258.834" style="fill:#1f77b4;stroke:#fff;stroke-width:.75"/><use xlink:href="#m81afa8d14f" x="530.509" y="229.533" style="fill:#1f77b4;stroke:#fff;stroke-width:.75"/><use xlink:href="#m81afa8d14f" x="581.236" y="196.328" style="fill:#1f77b4;stroke:#fff;stroke-width:.75"/><use xlink:href="#m81afa8d14f" x="631.964" y="184.31" style="fill:#1f77b4;stroke:#fff;stroke-width:.75"/><use xlink:href="#m81afa8d14f" x="682.691" y="178.417" style="fill:#1f77b4;stroke:#fff;stroke-width:.75"/><use xlink:href="#m81afa8d14f" x="733.418" y="163.463" style="fill:#1f77b4;stroke:#fff;stroke-width:.75"/><use xlink:href="#m81afa8d14f" x="784.145" y="162.951" style="fill:#1f77b4;stroke:#fff;stroke-width:.75"/><use xlink:href="#m81afa8d14f" x="834.873" y="158.977" style="fill:#1f77b4;stroke:#fff;stroke-width:.75"/><use xlink:href="#m81afa8d14f" x="885.6" y="155.752" style="fill:#1f77b4;stroke:#fff;stroke-width:.75"/><use xlink:href="#m81afa8d14f" x="936.327" y="152.502" style="fill:#1f77b4;stroke:#fff;stroke-width:.75"/><use xlink:href="#m81afa8d14f" x="987.055" y="144.083" style="fill:#1f77b4;stroke:#fff;stroke-width:.75"/><use xlink:href="#m81afa8d14f" x="1037.782" y="141.686" style="fill:#1f77b4;stroke:#fff;stroke-width:.75"/><use xlink:href="#m81afa8d14f" x="1088.509" y="125.764" style="fill:#1f77b4;stroke:#fff;stroke-width:.75"/><use xlink:href="#m81afa8d14f" x="1139.236" y="120.147" style="fill:#1f77b4;stroke:#fff;stroke-width:.75"/><use xlink:href="#m81afa8d14f" x="1189.964" y="110.896" style="fill:#1f77b4;stroke:#fff;stroke-width:.75"/><use xlink:href="#m81afa8d14f" x="1240.691" y="110.896" style="fill:#1f77b4;stroke:#fff;stroke-width:.75"/><use xlink:href="#m81afa8d14f" x="1291.418" y="107.003" style="fill:#1f77b4;stroke:#fff;stroke-width:.75"/><use xlink:href="#m81afa8d14f" x="1342.145" y="106.206" style="fill:#1f77b4;stroke:#fff;stroke-width:.75"/><use xlink:href="#m81afa8d14f" x="1392.873" y="102.309" style="fill:#1f77b4;stroke:#fff;stroke-width:.75"/><use xlink:href="#m81afa8d14f" x="1443.6" y="102.309" style="fill:#1f77b4;stroke:#fff;stroke-width:.75"/><use xlink:href="#m81afa8d14f" x="1494.327" y="102.021" style="fill:#1f77b4;stroke:#fff;stroke-width:.75"/></g></g><g id="line2d_14"><path d="m276.873 492.48 50.727-68.342h50.727l50.728-186.48h405.818" clip-path="url(#p8db5f78836)" style="fill:none;stroke-dasharray:7.5,3;stroke-dashoffset:0;stroke:#ff7f0e;stroke-width:1.5"/><defs><path id="me25a493760" d="M0 5A5 5 0 1 0 0-5 5 5 0 0 0 0 5z" style="stroke:#fff;stroke-width:.75"/></defs><g clip-path="url(#p8db5f78836)"><use xlink:href="#me25a493760" x="276.873" y="492.48" style="fill:#ff7f0e;stroke:#fff;stroke-width:.75"/><use xlink:href="#me25a493760" x="327.6" y="424.138" style="fill:#ff7f0e;stroke:#fff;stroke-width:.75"/><use xlink:href="#me25a493760" x="378.327" y="424.138" style="fill:#ff7f0e;stroke:#fff;stroke-width:.75"/><use xlink:href="#me25a493760" x="429.055" y="237.658" style="fill:#ff7f0e;stroke:#fff;stroke-width:.75"/><use xlink:href="#me25a493760" x="479.782" y="237.658" style="fill:#ff7f0e;stroke:#fff;stroke-width:.75"/><use xlink:href="#me25a493760" x="530.509" y="237.658" style="fill:#ff7f0e;stroke:#fff;stroke-width:.75"/><use xlink:href="#me25a493760" x="581.236" y="237.658" style="fill:#ff7f0e;stroke:#fff;stroke-width:.75"/><use xlink:href="#me25a493760" x="631.964" y="237.658" style="fill:#ff7f0e;stroke:#fff;stroke-width:.75"/><use xlink:href="#me25a493760" x="682.691" y="237.658" style="fill:#ff7f0e;stroke:#fff;stroke-width:.75"/><use xlink:href="#me25a493760" x="733.418" y="237.658" style="fill:#ff7f0e;stroke:#fff;stroke-width:.75"/><use xlink:href="#me25a493760" x="784.145" y="237.658" style="fill:#ff7f0e;stroke:#fff;stroke-width:.75"/><use xlink:href="#me25a493760" x="834.873" y="237.658" style="fill:#ff7f0e;stroke:#fff;stroke-width:.75"/></g></g><g id="line2d_15"><path d="M276.873 310.355h152.182l50.727-188.94h101.454l50.728-31.369h355.091" clip-path="url(#p8db5f78836)" style="fill:none;stroke-dasharray:7.5,3;stroke-dashoffset:0;stroke:#2ca02c;stroke-width:1.5"/><defs><path id="m48c65c82e2" d="M0 5A5 5 0 1 0 0-5 5 5 0 0 0 0 5z" style="stroke:#fff;stroke-width:.75"/></defs><g clip-path="url(#p8db5f78836)"><use xlink:href="#m48c65c82e2" x="276.873" y="310.355" style="fill:#2ca02c;stroke:#fff;stroke-width:.75"/><use xlink:href="#m48c65c82e2" x="327.6" y="310.355" style="fill:#2ca02c;stroke:#fff;stroke-width:.75"/><use xlink:href="#m48c65c82e2" x="378.327" y="310.355" style="fill:#2ca02c;stroke:#fff;stroke-width:.75"/><use xlink:href="#m48c65c82e2" x="429.055" y="310.355" style="fill:#2ca02c;stroke:#fff;stroke-width:.75"/><use xlink:href="#m48c65c82e2" x="479.782" y="121.415" style="fill:#2ca02c;stroke:#fff;stroke-width:.75"/><use xlink:href="#m48c65c82e2" x="530.509" y="121.415" style="fill:#2ca02c;stroke:#fff;stroke-width:.75"/><use xlink:href="#m48c65c82e2" x="581.236" y="121.415" style="fill:#2ca02c;stroke:#fff;stroke-width:.75"/><use xlink:href="#m48c65c82e2" x="631.964" y="90.046" style="fill:#2ca02c;stroke:#fff;stroke-width:.75"/><use xlink:href="#m48c65c82e2" x="682.691" y="90.046" style="fill:#2ca02c;stroke:#fff;stroke-width:.75"/><use xlink:href="#m48c65c82e2" x="733.418" y="90.046" style="fill:#2ca02c;stroke:#fff;stroke-width:.75"/><use xlink:href="#m48c65c82e2" x="784.145" y="90.046" style="fill:#2ca02c;stroke:#fff;stroke-width:.75"/><use xlink:href="#m48c65c82e2" x="834.873" y="90.046" style="fill:#2ca02c;stroke:#fff;stroke-width:.75"/><use xlink:href="#m48c65c82e2" x="885.6" y="90.046" style="fill:#2ca02c;stroke:#fff;stroke-width:.75"/><use xlink:href="#m48c65c82e2" x="936.327" y="90.046" style="fill:#2ca02c;stroke:#fff;stroke-width:.75"/><use xlink:href="#m48c65c82e2" x="987.055" y="90.046" style="fill:#2ca02c;stroke:#fff;stroke-width:.75"/></g></g><g id="line2d_16"><path d="M276.873 370.673h253.636l50.727-129.548H885.6l50.727-64.915 50.728-5.322h101.454l50.727-19.596h355.091" clip-path="url(#p8db5f78836)" style="fill:none;stroke-dasharray:7.5,3;stroke-dashoffset:0;stroke:#d62728;stroke-width:1.5"/><defs><path id="m08912a9b80" d="M0 5A5 5 0 1 0 0-5 5 5 0 0 0 0 5z" style="stroke:#fff;stroke-width:.75"/></defs><g clip-path="url(#p8db5f78836)"><use xlink:href="#m08912a9b80" x="276.873" y="370.673" style="fill:#d62728;stroke:#fff;stroke-width:.75"/><use xlink:href="#m08912a9b80" x="327.6" y="370.673" style="fill:#d62728;stroke:#fff;stroke-width:.75"/><use xlink:href="#m08912a9b80" x="378.327" y="370.673" style="fill:#d62728;stroke:#fff;stroke-width:.75"/><use xlink:href="#m08912a9b80" x="429.055" y="370.673" style="fill:#d62728;stroke:#fff;stroke-width:.75"/><use xlink:href="#m08912a9b80" x="479.782" y="370.673" style="fill:#d62728;stroke:#fff;stroke-width:.75"/><use xlink:href="#m08912a9b80" x="530.509" y="370.673" style="fill:#d62728;stroke:#fff;stroke-width:.75"/><use xlink:href="#m08912a9b80" x="581.236" y="241.125" style="fill:#d62728;stroke:#fff;stroke-width:.75"/><use xlink:href="#m08912a9b80" x="631.964" y="241.125" style="fill:#d62728;stroke:#fff;stroke-width:.75"/><use xlink:href="#m08912a9b80" x="682.691" y="241.125" style="fill:#d62728;stroke:#fff;stroke-width:.75"/><use xlink:href="#m08912a9b80" x="733.418" y="241.125" style="fill:#d62728;stroke:#fff;stroke-width:.75"/><use xlink:href="#m08912a9b80" x="784.145" y="241.125" style="fill:#d62728;stroke:#fff;stroke-width:.75"/><use xlink:href="#m08912a9b80" x="834.873" y="241.125" style="fill:#d62728;stroke:#fff;stroke-width:.75"/><use xlink:href="#m08912a9b80" x="885.6" y="241.125" style="fill:#d62728;stroke:#fff;stroke-width:.75"/><use xlink:href="#m08912a9b80" x="936.327" y="176.21" style="fill:#d62728;stroke:#fff;stroke-width:.75"/><use xlink:href="#m08912a9b80" x="987.055" y="170.888" style="fill:#d62728;stroke:#fff;stroke-width:.75"/><use xlink:href="#m08912a9b80" x="1037.782" y="170.888" style="fill:#d62728;stroke:#fff;stroke-width:.75"/><use xlink:href="#m08912a9b80" x="1088.509" y="170.888" style="fill:#d62728;stroke:#fff;stroke-width:.75"/><use xlink:href="#m08912a9b80" x="1139.236" y="151.292" style="fill:#d62728;stroke:#fff;stroke-width:.75"/><use xlink:href="#m08912a9b80" x="1189.964" y="151.292" style="fill:#d62728;stroke:#fff;stroke-width:.75"/><use xlink:href="#m08912a9b80" x="1240.691" y="151.292" style="fill:#d62728;stroke:#fff;stroke-width:.75"/><use xlink:href="#m08912a9b80" x="1291.418" y="151.292" style="fill:#d62728;stroke:#fff;stroke-width:.75"/><use xlink:href="#m08912a9b80" x="1342.145" y="151.292" style="fill:#d62728;stroke:#fff;stroke-width:.75"/><use xlink:href="#m08912a9b80" x="1392.873" y="151.292" style="fill:#d62728;stroke:#fff;stroke-width:.75"/><use xlink:href="#m08912a9b80" x="1443.6" y="151.292" style="fill:#d62728;stroke:#fff;stroke-width:.75"/><use xlink:href="#m08912a9b80" x="1494.327" y="151.292" style="fill:#d62728;stroke:#fff;stroke-width:.75"/></g></g><g id="line2d_17"><path d="M276.873 420.186h101.454l50.728-160.957H682.69L733.418 89.36H885.6l50.727-.081" clip-path="url(#p8db5f78836)" style="fill:none;stroke-dasharray:7.5,3;stroke-dashoffset:0;stroke:#9467bd;stroke-width:1.5"/><defs><path id="m0075faa485" d="M0 5A5 5 0 1 0 0-5 5 5 0 0 0 0 5z" style="stroke:#fff;stroke-width:.75"/></defs><g clip-path="url(#p8db5f78836)"><use xlink:href="#m0075faa485" x="276.873" y="420.186" style="fill:#9467bd;stroke:#fff;stroke-width:.75"/><use xlink:href="#m0075faa485" x="327.6" y="420.186" style="fill:#9467bd;stroke:#fff;stroke-width:.75"/><use xlink:href="#m0075faa485" x="378.327" y="420.186" style="fill:#9467bd;stroke:#fff;stroke-width:.75"/><use xlink:href="#m0075faa485" x="429.055" y="259.229" style="fill:#9467bd;stroke:#fff;stroke-width:.75"/><use xlink:href="#m0075faa485" x="479.782" y="259.229" style="fill:#9467bd;stroke:#fff;stroke-width:.75"/><use xlink:href="#m0075faa485" x="530.509" y="259.229" style="fill:#9467bd;stroke:#fff;stroke-width:.75"/><use xlink:href="#m0075faa485" x="581.236" y="259.229" style="fill:#9467bd;stroke:#fff;stroke-width:.75"/><use xlink:href="#m0075faa485" x="631.964" y="259.229" style="fill:#9467bd;stroke:#fff;stroke-width:.75"/><use xlink:href="#m0075faa485" x="682.691" y="259.229" style="fill:#9467bd;stroke:#fff;stroke-width:.75"/><use xlink:href="#m0075faa485" x="733.418" y="89.361" style="fill:#9467bd;stroke:#fff;stroke-width:.75"/><use xlink:href="#m0075faa485" x="784.145" y="89.361" style="fill:#9467bd;stroke:#fff;stroke-width:.75"/><use xlink:href="#m0075faa485" x="834.873" y="89.361" style="fill:#9467bd;stroke:#fff;stroke-width:.75"/><use xlink:href="#m0075faa485" x="885.6" y="89.361" style="fill:#9467bd;stroke:#fff;stroke-width:.75"/><use xlink:href="#m0075faa485" x="936.327" y="89.28" style="fill:#9467bd;stroke:#fff;stroke-width:.75"/></g></g><g id="line2d_18"><path d="m276.873 492.48 50.727-12.257h50.727l50.728-34.998 50.727-193.94h101.454l50.728-126.483h50.727l50.727-32.377h101.455l50.727-2.379h50.727" clip-path="url(#p8db5f78836)" style="fill:none;stroke-dasharray:7.5,3;stroke-dashoffset:0;stroke:#8c564b;stroke-width:1.5"/><defs><path id="mfb2f1203ab" d="M0 5A5 5 0 1 0 0-5 5 5 0 0 0 0 5z" style="stroke:#fff;stroke-width:.75"/></defs><g clip-path="url(#p8db5f78836)"><use xlink:href="#mfb2f1203ab" x="276.873" y="492.48" style="fill:#8c564b;stroke:#fff;stroke-width:.75"/><use xlink:href="#mfb2f1203ab" x="327.6" y="480.223" style="fill:#8c564b;stroke:#fff;stroke-width:.75"/><use xlink:href="#mfb2f1203ab" x="378.327" y="480.223" style="fill:#8c564b;stroke:#fff;stroke-width:.75"/><use xlink:href="#mfb2f1203ab" x="429.055" y="445.225" style="fill:#8c564b;stroke:#fff;stroke-width:.75"/><use xlink:href="#mfb2f1203ab" x="479.782" y="251.286" style="fill:#8c564b;stroke:#fff;stroke-width:.75"/><use xlink:href="#mfb2f1203ab" x="530.509" y="251.286" style="fill:#8c564b;stroke:#fff;stroke-width:.75"/><use xlink:href="#mfb2f1203ab" x="581.236" y="251.286" style="fill:#8c564b;stroke:#fff;stroke-width:.75"/><use xlink:href="#mfb2f1203ab" x="631.964" y="124.802" style="fill:#8c564b;stroke:#fff;stroke-width:.75"/><use xlink:href="#mfb2f1203ab" x="682.691" y="124.802" style="fill:#8c564b;stroke:#fff;stroke-width:.75"/><use xlink:href="#mfb2f1203ab" x="733.418" y="92.425" style="fill:#8c564b;stroke:#fff;stroke-width:.75"/><use xlink:href="#mfb2f1203ab" x="784.145" y="92.425" style="fill:#8c564b;stroke:#fff;stroke-width:.75"/><use xlink:href="#mfb2f1203ab" x="834.873" y="92.425" style="fill:#8c564b;stroke:#fff;stroke-width:.75"/><use xlink:href="#mfb2f1203ab" x="885.6" y="90.046" style="fill:#8c564b;stroke:#fff;stroke-width:.75"/><use xlink:href="#mfb2f1203ab" x="936.327" y="90.046" style="fill:#8c564b;stroke:#fff;stroke-width:.75"/></g></g><path id="patch_3" d="M216 512.64V69.12" style="fill:none;stroke:#fff;stroke-width:.8;stroke-linejoin:miter;stroke-linecap:square"/><path id="patch_4" d="M1555.2 512.64V69.12" style="fill:none;stroke:#fff;stroke-width:.8;stroke-linejoin:miter;stroke-linecap:square"/><path id="patch_5" d="M216 512.64h1339.2" style="fill:none;stroke:#fff;stroke-width:.8;stroke-linejoin:miter;stroke-linecap:square"/><path id="patch_6" d="M216 69.12h1339.2" style="fill:none;stroke:#fff;stroke-width:.8;stroke-linejoin:miter;stroke-linecap:square"/><g id="legend_1"><path id="patch_7" d="M1267.023 507.64H1548.2q2 0 2-2V322.597q0-2-2-2h-281.177q-2 0-2 2V505.64q0 2 2 2z" style="fill:#fff;opacity:.3;stroke:#ccc;stroke-linejoin:miter"/><g id="text_15" style="fill:#fff" transform="matrix(.22 0 0 -.22 1359.79 341.313)"><defs><path id="DejaVuSans-53" d="M3425 4513v-616q-359 172-678 256-319 85-616 85-515 0-795-200t-280-569q0-310 186-468 186-157 705-254l381-78q706-135 1042-474t336-907q0-679-455-1029Q2797-91 1919-91q-331 0-705 75-373 75-773 222v650q384-215 753-325 369-109 725-109 540 0 834 212 294 213 294 607 0 343-211 537t-692 291l-385 75q-706 140-1022 440-315 300-315 835 0 619 436 975t1201 356q329 0 669-60 341-59 697-177" transform="scale(.01563)"/><path id="DejaVuSans-63" d="M3122 3366v-538q-244 135-489 202t-495 67q-560 0-870-355-309-354-309-995t309-996q310-354 870-354 250 0 495 67t489 202V134Q2881 22 2623-34q-257-57-548-57-791 0-1257 497-465 497-465 1341 0 856 470 1346 471 491 1290 491 265 0 518-55 253-54 491-163" transform="scale(.01563)"/><path id="DejaVuSans-61" d="M2194 1759q-697 0-966-159t-269-544q0-306 202-486 202-179 548-179 479 0 768 339t289 901v128zm1147 238V0h-575v531q-197-318-491-470T1556-91q-537 0-855 302-317 302-317 808 0 590 395 890 396 300 1180 300h807v57q0 397-261 614t-733 217q-300 0-585-72-284-72-546-216v532q315 122 612 182 297 61 578 61 760 0 1135-394 375-393 375-1193" transform="scale(.01563)"/><path id="DejaVuSans-6f" d="M1959 3097q-462 0-731-361t-269-989 267-989q268-361 733-361 460 0 728 362 269 363 269 988 0 622-269 986-268 364-728 364m0 487q750 0 1178-488 429-487 429-1349 0-859-429-1349Q2709-91 1959-91q-753 0-1180 489-426 490-426 1349 0 862 426 1349 427 488 1180 488" transform="scale(.01563)"/></defs><use xlink:href="#DejaVuSans-53"/><use xlink:href="#DejaVuSans-63" transform="translate(63.477)"/><use xlink:href="#DejaVuSans-65" transform="translate(118.457)"/><use xlink:href="#DejaVuSans-6e" transform="translate(179.98)"/><use xlink:href="#DejaVuSans-61" transform="translate(243.36)"/><use xlink:href="#DejaVuSans-72" transform="translate(304.639)"/><use xlink:href="#DejaVuSans-69" transform="translate(345.752)"/><use xlink:href="#DejaVuSans-6f" transform="translate(373.535)"/></g><g id="line2d_25"><path d="M1269.023 364.105h20" style="fill:none;stroke:#1f77b4;stroke-width:1.5;stroke-linecap:square"/><use xlink:href="#m81afa8d14f" x="1279.023" y="364.105" style="fill:#1f77b4;stroke:#fff;stroke-width:.75"/></g><g id="text_16" style="fill:#fff" transform="matrix(.22 0 0 -.22 1297.023 367.605)"><defs><path id="DejaVuSans-41" d="m2188 4044-857-2322h1716zm-357 622h716L4325 0h-656l-425 1197H1141L716 0H50z" transform="scale(.01563)"/><path id="DejaVuSans-76" d="M191 3500h609L1894 563l1094 2937h609L2284 0h-781z" transform="scale(.01563)"/><path id="DejaVuSans-67" d="M2906 1791q0 625-258 968-257 344-723 344-462 0-720-344-258-343-258-968 0-622 258-966t720-344q466 0 723 344 258 344 258 966m575-1357q0-893-397-1329-396-436-1215-436-303 0-572 45t-522 139v559q253-137 500-202 247-66 503-66 566 0 847 295t281 892v285q-178-310-456-463T1784 0Q1141 0 747 490 353 981 353 1791q0 812 394 1302 394 491 1037 491 388 0 666-153t456-462v531h575z" transform="scale(.01563)"/></defs><use xlink:href="#DejaVuSans-41"/><use xlink:href="#DejaVuSans-76" transform="translate(62.533)"/><use xlink:href="#DejaVuSans-65" transform="translate(121.713)"/><use xlink:href="#DejaVuSans-72" transform="translate(183.236)"/><use xlink:href="#DejaVuSans-61" transform="translate(224.35)"/><use xlink:href="#DejaVuSans-67" transform="translate(285.629)"/><use xlink:href="#DejaVuSans-65" transform="translate(349.105)"/><use xlink:href="#DejaVuSans-75" transform="translate(442.416)"/><use xlink:href="#DejaVuSans-6e" transform="translate(505.795)"/><use xlink:href="#DejaVuSans-69" transform="translate(569.174)"/><use xlink:href="#DejaVuSans-6e" transform="translate(596.957)"/><use xlink:href="#DejaVuSans-74" transform="translate(660.336)"/><use xlink:href="#DejaVuSans-65" transform="translate(699.545)"/><use xlink:href="#DejaVuSans-72" transform="translate(761.068)"/><use xlink:href="#DejaVuSans-72" transform="translate(800.432)"/><use xlink:href="#DejaVuSans-75" transform="translate(841.545)"/><use xlink:href="#DejaVuSans-70" transform="translate(904.924)"/><use xlink:href="#DejaVuSans-74" transform="translate(968.4)"/><use xlink:href="#DejaVuSans-65" transform="translate(1007.61)"/><use xlink:href="#DejaVuSans-64" transform="translate(1069.133)"/></g><g id="line2d_26"><path d="M1269.023 390.397h20" style="fill:none;stroke:#ff7f0e;stroke-width:1.5;stroke-linecap:square"/><use xlink:href="#me25a493760" x="1279.023" y="390.397" style="fill:#ff7f0e;stroke:#fff;stroke-width:.75"/></g><g id="text_17" style="fill:#fff" transform="matrix(.22 0 0 -.22 1297.023 393.897)"><defs><path id="DejaVuSans-50" d="M1259 4147V2394h794q441 0 681 228 241 228 241 650 0 419-241 647-240 228-681 228zm-631 519h1425q785 0 1186-355 402-355 402-1039 0-691-402-1044-401-353-1186-353h-794V0H628z" transform="scale(.01563)"/><path id="DejaVuSans-49" d="M628 4666h631V0H628z" transform="scale(.01563)"/><path id="DejaVuSans-2d" d="M313 2009h1684v-512H313z" transform="scale(.01563)"/><path id="DejaVuSans-2c" d="M750 794h659V256L897-744H494L750 256z" transform="scale(.01563)"/></defs><use xlink:href="#DejaVuSans-50"/><use xlink:href="#DejaVuSans-49" transform="translate(60.303)"/><use xlink:href="#DejaVuSans-2d" transform="translate(89.795)"/><use xlink:href="#DejaVuSans-73" transform="translate(125.879)"/><use xlink:href="#DejaVuSans-74" transform="translate(177.979)"/><use xlink:href="#DejaVuSans-6f" transform="translate(217.188)"/><use xlink:href="#DejaVuSans-70" transform="translate(278.37)"/><use xlink:href="#DejaVuSans-70" transform="translate(341.846)"/><use xlink:href="#DejaVuSans-65" transform="translate(405.322)"/><use xlink:href="#DejaVuSans-64" transform="translate(466.846)"/><use xlink:href="#DejaVuSans-2c" transform="translate(530.322)"/><use xlink:href="#DejaVuSans-72" transform="translate(593.896)"/><use xlink:href="#DejaVuSans-75" transform="translate(635.01)"/><use xlink:href="#DejaVuSans-6e" transform="translate(698.389)"/><use xlink:href="#DejaVuSans-30" transform="translate(793.555)"/></g><g id="line2d_27"><path d="M1269.023 416.69h20" style="fill:none;stroke:#2ca02c;stroke-width:1.5;stroke-linecap:square"/><use xlink:href="#m48c65c82e2" x="1279.023" y="416.689" style="fill:#2ca02c;stroke:#fff;stroke-width:.75"/></g><g id="text_18" style="fill:#fff" transform="matrix(.22 0 0 -.22 1297.023 420.19)"><use xlink:href="#DejaVuSans-50"/><use xlink:href="#DejaVuSans-49" transform="translate(60.303)"/><use xlink:href="#DejaVuSans-2d" transform="translate(89.795)"/><use xlink:href="#DejaVuSans-73" transform="translate(125.879)"/><use xlink:href="#DejaVuSans-74" transform="translate(177.979)"/><use xlink:href="#DejaVuSans-6f" transform="translate(217.188)"/><use xlink:href="#DejaVuSans-70" transform="translate(278.37)"/><use xlink:href="#DejaVuSans-70" transform="translate(341.846)"/><use xlink:href="#DejaVuSans-65" transform="translate(405.322)"/><use xlink:href="#DejaVuSans-64" transform="translate(466.846)"/><use xlink:href="#DejaVuSans-2c" transform="translate(530.322)"/><use xlink:href="#DejaVuSans-72" transform="translate(593.896)"/><use xlink:href="#DejaVuSans-75" transform="translate(635.01)"/><use xlink:href="#DejaVuSans-6e" transform="translate(698.389)"/><use xlink:href="#DejaVuSans-31" transform="translate(793.555)"/></g><g id="line2d_28"><path d="M1269.023 442.98h20" style="fill:none;stroke:#d62728;stroke-width:1.5;stroke-linecap:square"/><use xlink:href="#m08912a9b80" x="1279.023" y="442.981" style="fill:#d62728;stroke:#fff;stroke-width:.75"/></g><g id="text_19" style="fill:#fff" transform="matrix(.22 0 0 -.22 1297.023 446.48)"><use xlink:href="#DejaVuSans-50"/><use xlink:href="#DejaVuSans-49" transform="translate(60.303)"/><use xlink:href="#DejaVuSans-2d" transform="translate(89.795)"/><use xlink:href="#DejaVuSans-73" transform="translate(125.879)"/><use xlink:href="#DejaVuSans-74" transform="translate(177.979)"/><use xlink:href="#DejaVuSans-6f" transform="translate(217.188)"/><use xlink:href="#DejaVuSans-70" transform="translate(278.37)"/><use xlink:href="#DejaVuSans-70" transform="translate(341.846)"/><use xlink:href="#DejaVuSans-65" transform="translate(405.322)"/><use xlink:href="#DejaVuSans-64" transform="translate(466.846)"/><use xlink:href="#DejaVuSans-2c" transform="translate(530.322)"/><use xlink:href="#DejaVuSans-72" transform="translate(593.896)"/><use xlink:href="#DejaVuSans-75" transform="translate(635.01)"/><use xlink:href="#DejaVuSans-6e" transform="translate(698.389)"/><use xlink:href="#DejaVuSans-32" transform="translate(793.555)"/></g><g id="line2d_29"><path d="M1269.023 469.273h20" style="fill:none;stroke:#9467bd;stroke-width:1.5;stroke-linecap:square"/><use xlink:href="#m0075faa485" x="1279.023" y="469.273" style="fill:#9467bd;stroke:#fff;stroke-width:.75"/></g><g id="text_20" style="fill:#fff" transform="matrix(.22 0 0 -.22 1297.023 472.773)"><defs><path id="DejaVuSans-33" d="M2597 2516q453-97 707-404 255-306 255-756 0-690-475-1069Q2609-91 1734-91q-293 0-604 58T488 141v609q262-153 574-231 313-78 654-78 593 0 904 234t311 681q0 413-289 645-289 233-804 233h-544v519h569q465 0 712 186t247 536q0 359-255 551-254 193-729 193-260 0-557-57-297-56-653-174v562q360 100 674 150t592 50q719 0 1137-327 419-326 419-882 0-388-222-655t-631-370" transform="scale(.01563)"/></defs><use xlink:href="#DejaVuSans-50"/><use xlink:href="#DejaVuSans-49" transform="translate(60.303)"/><use xlink:href="#DejaVuSans-2d" transform="translate(89.795)"/><use xlink:href="#DejaVuSans-73" transform="translate(125.879)"/><use xlink:href="#DejaVuSans-74" transform="translate(177.979)"/><use xlink:href="#DejaVuSans-6f" transform="translate(217.188)"/><use xlink:href="#DejaVuSans-70" transform="translate(278.37)"/><use xlink:href="#DejaVuSans-70" transform="translate(341.846)"/><use xlink:href="#DejaVuSans-65" transform="translate(405.322)"/><use xlink:href="#DejaVuSans-64" transform="translate(466.846)"/><use xlink:href="#DejaVuSans-2c" transform="translate(530.322)"/><use xlink:href="#DejaVuSans-72" transform="translate(593.896)"/><use xlink:href="#DejaVuSans-75" transform="translate(635.01)"/><use xlink:href="#DejaVuSans-6e" transform="translate(698.389)"/><use xlink:href="#DejaVuSans-33" transform="translate(793.555)"/></g><g id="line2d_30"><path d="M1269.023 495.565h20" style="fill:none;stroke:#8c564b;stroke-width:1.5;stroke-linecap:square"/><use xlink:href="#mfb2f1203ab" x="1279.023" y="495.565" style="fill:#8c564b;stroke:#fff;stroke-width:.75"/></g><g id="text_21" style="fill:#fff" transform="matrix(.22 0 0 -.22 1297.023 499.065)"><use xlink:href="#DejaVuSans-50"/><use xlink:href="#DejaVuSans-49" transform="translate(60.303)"/><use xlink:href="#DejaVuSans-2d" transform="translate(89.795)"/><use xlink:href="#DejaVuSans-73" transform="translate(125.879)"/><use xlink:href="#DejaVuSans-74" transform="translate(177.979)"/><use xlink:href="#DejaVuSans-6f" transform="translate(217.188)"/><use xlink:href="#DejaVuSans-70" transform="translate(278.37)"/><use xlink:href="#DejaVuSans-70" transform="translate(341.846)"/><use xlink:href="#DejaVuSans-65" transform="translate(405.322)"/><use xlink:href="#DejaVuSans-64" transform="translate(466.846)"/><use xlink:href="#DejaVuSans-2c" transform="translate(530.322)"/><use xlink:href="#DejaVuSans-72" transform="translate(593.896)"/><use xlink:href="#DejaVuSans-75" transform="translate(635.01)"/><use xlink:href="#DejaVuSans-6e" transform="translate(698.389)"/><use xlink:href="#DejaVuSans-34" transform="translate(793.555)"/></g></g></g></g><defs><clipPath id="p8db5f78836"><path d="M216 69.12h1339.2v443.52H216z"/></clipPath></defs></svg>