<svg xmlns="http://www.w3.org/2000/svg" xmlns:xlink="http://www.w3.org/1999/xlink" width="2304" height="768" viewBox="0 0 1728 576"><defs><style>*{stroke-linejoin:round;stroke-linecap:butt}</style></defs><g id="figure_1"><path id="patch_1" d="M0 576h1728V0H0z" style="fill:none"/><g id="axes_1"><path id="patch_2" d="M216 512.64h1339.2V69.12H216z" style="fill:none"/><g id="FillBetweenPolyCollection_1"><defs><path id="m6661df180d" d="M276.873-484.562v55.587l41.98-3.803 41.982.682 41.981 114.1 41.981 31.167 41.982 4.202 41.98 2.426 41.982 17.207 41.981 8.086 41.981 10.556 41.982 14.94 41.98 5.925 41.982 45.813 41.981 45.288 41.981 11.447 41.982 1.99 41.98 2.863 41.982 5.09 41.981 1.918 41.981 3.995 41.982 4.454 41.98 2.918 41.982 4.054 41.981 3.441 41.981 3.789 41.982 1.646 41.98.696 41.982-.107 41.981.408 41.981.264v-1.814l-41.98-.44-41.982-.693-41.981-.073-41.981-.79-41.982-3.234-41.98-4.214-41.982-7.382-41.981-5.371-41.981-4.513-41.982-6.07-41.98-3.02-41.982-2.16-41.981-4.634-41.981-4.4-41.982-.992-41.98-34.588-41.982-45.03-41.981-55.45-41.981-9.538-41.982-21.996-41.98-15.889-41.982-13.87-41.981-11.17-41.981-4.47-41.982-4.398-41.98-15.957-41.982-120.022-41.981-1.022z" style="stroke:#1f77b4;stroke-opacity:.2"/></defs><g clip-path="url(#p57cfb9cc9d)"><use xlink:href="#m6661df180d" y="576" style="fill:#1f77b4;fill-opacity:.2;stroke:#1f77b4;stroke-opacity:.2"/></g></g><g id="FillBetweenPolyCollection_2"><defs><path id="m917e03f226" d="M276.873-485.132v56.054l41.98 16.011 41.982 31.37 41.981 29.603 41.981 12.042 41.982 22.743 41.98 11.255 41.982 7.759 41.981 1.133 41.981 18.618 41.982 2.904 41.98.409 41.982-1.418 41.981 4.706 41.981 1.36 41.982.323 41.98.4 41.982 1.274 41.981 3.909 41.981 3.481 41.982-.461 41.98.57 41.982.354 41.981-.915 41.981 2.067 41.982 3.98 41.98.382 41.982-.593 41.981 4.941 41.981-.874v-27.625l-41.98-2.53-41.982-6.746-41.981 1.402-41.981-.915-41.982-2.015-41.98-2.328-41.982 1.12-41.981.172-41.981.97-41.982-1.218-41.98-5.926-41.982-6.178-41.981.425-41.981-.873-41.982-1.786-41.98-1.098-41.982-3.38-41.981-1.612-41.981-.08-41.982-6.772-41.98-13.453-41.982-2.851-41.981-5.909-41.981-9.348-41.982-21.556-41.98-12.522-41.982-47.433-41.981-28.325z" style="stroke:#ff7f0e;stroke-opacity:.2"/></defs><g clip-path="url(#p57cfb9cc9d)"><use xlink:href="#m917e03f226" y="576" style="fill:#ff7f0e;fill-opacity:.2;stroke:#ff7f0e;stroke-opacity:.2"/></g></g><g id="matplotlib.axis_1"><g id="xtick_1"><g id="line2d_1"><defs><path id="m7f6a129c2a" d="M0 0v3.5" style="stroke:#000;stroke-width:.8"/></defs><use xlink:href="#m7f6a129c2a" x="234.892" y="512.64" style="stroke:#000;stroke-width:.8"/></g><g id="text_1" transform="matrix(.22 0 0 -.22 227.893 536.357)"><defs><path id="DejaVuSans-30" d="M2034 4250q-487 0-733-480-245-479-245-1442 0-959 245-1439 246-480 733-480 491 0 736 480 246 480 246 1439 0 963-246 1442-245 480-736 480m0 500q785 0 1199-621 414-620 414-1801 0-1178-414-1799Q2819-91 2034-91q-784 0-1198 620-414 621-414 1799 0 1181 414 1801 414 621 1198 621" transform="scale(.01563)"/></defs><use xlink:href="#DejaVuSans-30"/></g></g><g id="xtick_2"><use xlink:href="#m7f6a129c2a" id="line2d_2" x="444.797" y="512.64" style="stroke:#000;stroke-width:.8"/><g id="text_2" transform="matrix(.22 0 0 -.22 437.799 536.357)"><defs><path id="DejaVuSans-35" d="M691 4666h2478v-532H1269V2991q137 47 274 70 138 23 276 23 781 0 1237-428 457-428 457-1159 0-753-469-1171Q2575-91 1722-91q-294 0-599 50Q819 9 494 109v635q281-153 581-228t634-75q541 0 856 284 316 284 316 772 0 487-316 771-315 285-856 285-253 0-505-56-251-56-513-175z" transform="scale(.01563)"/></defs><use xlink:href="#DejaVuSans-35"/></g></g><g id="xtick_3"><use xlink:href="#m7f6a129c2a" id="line2d_3" x="654.703" y="512.64" style="stroke:#000;stroke-width:.8"/><g id="text_3" transform="matrix(.22 0 0 -.22 640.706 536.357)"><defs><path id="DejaVuSans-31" d="M794 531h1031v3560L703 3866v575l1116 225h631V531h1031V0H794z" transform="scale(.01563)"/></defs><use xlink:href="#DejaVuSans-31"/><use xlink:href="#DejaVuSans-30" transform="translate(63.623)"/></g></g><g id="xtick_4"><use xlink:href="#m7f6a129c2a" id="line2d_4" x="864.609" y="512.64" style="stroke:#000;stroke-width:.8"/><g id="text_4" transform="matrix(.22 0 0 -.22 850.612 536.357)"><use xlink:href="#DejaVuSans-31"/><use xlink:href="#DejaVuSans-35" transform="translate(63.623)"/></g></g><g id="xtick_5"><use xlink:href="#m7f6a129c2a" id="line2d_5" x="1074.515" y="512.64" style="stroke:#000;stroke-width:.8"/><g id="text_5" transform="matrix(.22 0 0 -.22 1060.518 536.357)"><defs><path id="DejaVuSans-32" d="M1228 531h2203V0H469v531q359 372 979 998 621 627 780 809 303 340 423 576 121 236 121 464 0 372-261 606-261 235-680 235-297 0-627-103-329-103-704-313v638q381 153 712 231 332 78 607 78 725 0 1156-363 431-362 431-968 0-288-108-546-107-257-392-607-78-91-497-524-418-433-1181-1211" transform="scale(.01563)"/></defs><use xlink:href="#DejaVuSans-32"/><use xlink:href="#DejaVuSans-30" transform="translate(63.623)"/></g></g><g id="xtick_6"><use xlink:href="#m7f6a129c2a" id="line2d_6" x="1284.421" y="512.64" style="stroke:#000;stroke-width:.8"/><g id="text_6" transform="matrix(.22 0 0 -.22 1270.424 536.357)"><use xlink:href="#DejaVuSans-32"/><use xlink:href="#DejaVuSans-35" transform="translate(63.623)"/></g></g><g id="xtick_7"><use xlink:href="#m7f6a129c2a" id="line2d_7" x="1494.327" y="512.64" style="stroke:#000;stroke-width:.8"/><g id="text_7" transform="matrix(.22 0 0 -.22 1480.33 536.357)"><defs><path id="DejaVuSans-33" d="M2597 2516q453-97 707-404 255-306 255-756 0-690-475-1069Q2609-91 1734-91q-293 0-604 58T488 141v609q262-153 574-231 313-78 654-78 593 0 904 234t311 681q0 413-289 645-289 233-804 233h-544v519h569q465 0 712 186t247 536q0 359-255 551-254 193-729 193-260 0-557-57-297-56-653-174v562q360 100 674 150t592 50q719 0 1137-327 419-326 419-882 0-388-222-655t-631-370" transform="scale(.01563)"/></defs><use xlink:href="#DejaVuSans-33"/><use xlink:href="#DejaVuSans-30" transform="translate(63.623)"/></g></g><g id="text_8" transform="matrix(.22 0 0 -.22 784.897 561.648)"><defs><path id="DejaVuSans-4e" d="M628 4666h850L3547 763v3903h612V0h-850L1241 3903V0H628z" transform="scale(.01563)"/><path id="DejaVuSans-75" d="M544 1381v2119h575V1403q0-497 193-746 194-248 582-248 465 0 735 297 271 297 271 810v1984h575V0h-575v538q-209-319-486-474-276-155-642-155-603 0-916 375-312 375-312 1097m1447 2203" transform="scale(.01563)"/><path id="DejaVuSans-6d" d="M3328 2828q216 388 516 572t706 184q547 0 844-383 297-382 297-1088V0h-578v2094q0 503-179 746-178 244-543 244-447 0-707-297-259-296-259-809V0h-578v2094q0 506-178 748t-550 242q-441 0-701-298-259-298-259-808V0H581v3500h578v-544q197 322 472 475t653 153q382 0 649-194 267-193 395-562" transform="scale(.01563)"/><path id="DejaVuSans-5f" d="M3263-1063v-446H-63v446z" transform="scale(.01563)"/><path id="DejaVuSans-45" d="M628 4666h2950v-532H1259V2753h2222v-531H1259V531h2375V0H628z" transform="scale(.01563)"/><path id="DejaVuSans-78" d="M3513 3500 2247 1797 3578 0h-678L1881 1375 863 0H184l1360 1831L300 3500h678l928-1247 928 1247z" transform="scale(.01563)"/><path id="DejaVuSans-70" d="M1159 525v-1856H581v4831h578v-531q182 312 458 463 277 152 661 152 638 0 1036-506 399-506 399-1331T3314 415Q2916-91 2278-91q-384 0-661 152-276 152-458 464m1957 1222q0 634-261 995t-717 361q-457 0-718-361t-261-995 261-995 718-361q456 0 717 361t261 995" transform="scale(.01563)"/><path id="DejaVuSans-65" d="M3597 1894v-281H953q38-594 358-905t892-311q331 0 642 81t618 244V178Q3153 47 2828-22t-659-69q-838 0-1327 487-489 488-489 1320 0 859 464 1363 464 505 1252 505 706 0 1117-455 411-454 411-1235m-575 169q-6 471-264 752-258 282-683 282-481 0-770-272t-333-766z" transform="scale(.01563)"/><path id="DejaVuSans-72" d="M2631 2963q-97 56-211 82-114 27-251 27-488 0-749-317t-261-911V0H581v3500h578v-544q182 319 472 473 291 155 707 155 59 0 131-8 72-7 159-23z" transform="scale(.01563)"/><path id="DejaVuSans-69" d="M603 3500h575V0H603zm0 1363h575v-729H603z" transform="scale(.01563)"/><path id="DejaVuSans-6e" d="M3513 2113V0h-575v2094q0 497-194 743-194 247-581 247-466 0-735-297-269-296-269-809V0H581v3500h578v-544q207 316 486 472 280 156 646 156 603 0 912-373 310-373 310-1098" transform="scale(.01563)"/><path id="DejaVuSans-74" d="M1172 4494v-994h1184v-447H1172V1153q0-428 117-550t477-122h590V0h-590q-666 0-919 248-253 249-253 905v1900H172v447h422v994z" transform="scale(.01563)"/><path id="DejaVuSans-73" d="M2834 3397v-544q-243 125-506 187-262 63-544 63-428 0-642-131t-214-394q0-200 153-314t616-217l197-44q612-131 870-370t258-667q0-488-386-773Q2250-91 1575-91q-281 0-586 55T347 128v594q319-166 628-249 309-82 613-82 406 0 624 139 219 139 219 392 0 234-158 359-157 125-692 241l-200 47q-534 112-772 345-237 233-237 639 0 494 350 762 350 269 994 269 318 0 599-47 282-46 519-140" transform="scale(.01563)"/></defs><use xlink:href="#DejaVuSans-4e"/><use xlink:href="#DejaVuSans-75" transform="translate(74.805)"/><use xlink:href="#DejaVuSans-6d" transform="translate(138.184)"/><use xlink:href="#DejaVuSans-5f" transform="translate(235.596)"/><use xlink:href="#DejaVuSans-45" transform="translate(285.596)"/><use xlink:href="#DejaVuSans-78" transform="translate(348.78)"/><use xlink:href="#DejaVuSans-70" transform="translate(407.959)"/><use xlink:href="#DejaVuSans-65" transform="translate(471.436)"/><use xlink:href="#DejaVuSans-72" transform="translate(532.959)"/><use xlink:href="#DejaVuSans-69" transform="translate(574.072)"/><use xlink:href="#DejaVuSans-6d" transform="translate(601.855)"/><use xlink:href="#DejaVuSans-65" transform="translate(699.268)"/><use xlink:href="#DejaVuSans-6e" transform="translate(760.791)"/><use xlink:href="#DejaVuSans-74" transform="translate(824.17)"/><use xlink:href="#DejaVuSans-73" transform="translate(863.379)"/></g></g><g id="matplotlib.axis_2"><g id="ytick_1"><g id="line2d_8"><defs><path id="mb96069960f" d="M0 0h-3.5" style="stroke:#000;stroke-width:.8"/></defs><use xlink:href="#mb96069960f" x="216" y="498.596" style="stroke:#000;stroke-width:.8"/></g><g id="text_9" transform="matrix(.22 0 0 -.22 174.013 506.954)"><defs><path id="DejaVuSans-2e" d="M684 794h660V0H684z" transform="scale(.01563)"/></defs><use xlink:href="#DejaVuSans-30"/><use xlink:href="#DejaVuSans-2e" transform="translate(63.623)"/><use xlink:href="#DejaVuSans-30" transform="translate(95.41)"/></g></g><g id="ytick_2"><use xlink:href="#mb96069960f" id="line2d_9" x="216" y="439.296" style="stroke:#000;stroke-width:.8"/><g id="text_10" transform="matrix(.22 0 0 -.22 174.013 447.654)"><use xlink:href="#DejaVuSans-30"/><use xlink:href="#DejaVuSans-2e" transform="translate(63.623)"/><use xlink:href="#DejaVuSans-35" transform="translate(95.41)"/></g></g><g id="ytick_3"><use xlink:href="#mb96069960f" id="line2d_10" x="216" y="379.995" style="stroke:#000;stroke-width:.8"/><g id="text_11" transform="matrix(.22 0 0 -.22 174.013 388.354)"><use xlink:href="#DejaVuSans-31"/><use xlink:href="#DejaVuSans-2e" transform="translate(63.623)"/><use xlink:href="#DejaVuSans-30" transform="translate(95.41)"/></g></g><g id="ytick_4"><use xlink:href="#mb96069960f" id="line2d_11" x="216" y="320.695" style="stroke:#000;stroke-width:.8"/><g id="text_12" transform="matrix(.22 0 0 -.22 174.013 329.054)"><use xlink:href="#DejaVuSans-31"/><use xlink:href="#DejaVuSans-2e" transform="translate(63.623)"/><use xlink:href="#DejaVuSans-35" transform="translate(95.41)"/></g></g><g id="ytick_5"><use xlink:href="#mb96069960f" id="line2d_12" x="216" y="261.395" style="stroke:#000;stroke-width:.8"/><g id="text_13" transform="matrix(.22 0 0 -.22 174.013 269.753)"><use xlink:href="#DejaVuSans-32"/><use xlink:href="#DejaVuSans-2e" transform="translate(63.623)"/><use xlink:href="#DejaVuSans-30" transform="translate(95.41)"/></g></g><g id="ytick_6"><use xlink:href="#mb96069960f" id="line2d_13" x="216" y="202.095" style="stroke:#000;stroke-width:.8"/><g id="text_14" transform="matrix(.22 0 0 -.22 174.013 210.453)"><use xlink:href="#DejaVuSans-32"/><use xlink:href="#DejaVuSans-2e" transform="translate(63.623)"/><use xlink:href="#DejaVuSans-35" transform="translate(95.41)"/></g></g><g id="ytick_7"><use xlink:href="#mb96069960f" id="line2d_14" x="216" y="142.795" style="stroke:#000;stroke-width:.8"/><g id="text_15" transform="matrix(.22 0 0 -.22 174.013 151.153)"><use xlink:href="#DejaVuSans-33"/><use xlink:href="#DejaVuSans-2e" transform="translate(63.623)"/><use xlink:href="#DejaVuSans-30" transform="translate(95.41)"/></g></g><g id="ytick_8"><use xlink:href="#mb96069960f" id="line2d_15" x="216" y="83.495" style="stroke:#000;stroke-width:.8"/><g id="text_16" transform="matrix(.22 0 0 -.22 174.013 91.853)"><use xlink:href="#DejaVuSans-33"/><use xlink:href="#DejaVuSans-2e" transform="translate(63.623)"/><use xlink:href="#DejaVuSans-35" transform="translate(95.41)"/></g></g><g id="text_17" transform="matrix(0 -.22 -.22 0 164.826 380.143)"><defs><path id="DejaVuSans-54" d="M-19 4666h3947v-532H2272V0h-634v4134H-19z" transform="scale(.01563)"/><path id="DejaVuSans-61" d="M2194 1759q-697 0-966-159t-269-544q0-306 202-486 202-179 548-179 479 0 768 339t289 901v128zm1147 238V0h-575v531q-197-318-491-470T1556-91q-537 0-855 302-317 302-317 808 0 590 395 890 396 300 1180 300h807v57q0 397-261 614t-733 217q-300 0-585-72-284-72-546-216v532q315 122 612 182 297 61 578 61 760 0 1135-394 375-393 375-1193" transform="scale(.01563)"/><path id="DejaVuSans-67" d="M2906 1791q0 625-258 968-257 344-723 344-462 0-720-344-258-343-258-968 0-622 258-966t720-344q466 0 723 344 258 344 258 966m575-1357q0-893-397-1329-396-436-1215-436-303 0-572 45t-522 139v559q253-137 500-202 247-66 503-66 566 0 847 295t281 892v285q-178-310-456-463T1784 0Q1141 0 747 490 353 981 353 1791q0 812 394 1302 394 491 1037 491 388 0 666-153t456-462v531h575z" transform="scale(.01563)"/><path id="DejaVuSans-43" d="M4122 4306v-665q-319 297-680 443-361 147-767 147-800 0-1225-489t-425-1414q0-922 425-1411t1225-489q406 0 767 147t680 444V359q-331-225-702-338-370-112-782-112-1060 0-1670 648-609 649-609 1771 0 1125 609 1773 610 649 1670 649 418 0 788-111 371-111 696-333" transform="scale(.01563)"/><path id="DejaVuSans-42" d="M1259 2228V519h1013q509 0 754 211 246 211 246 645 0 438-246 645-245 208-754 208zm0 1919V2741h935q462 0 688 173 227 174 227 530 0 353-227 528-226 175-688 175zm-631 519h1613q722 0 1112-300 391-300 391-853 0-429-200-682t-588-315q466-100 724-418 258-317 258-792 0-625-425-966Q3088 0 2303 0H628z" transform="scale(.01563)"/></defs><use xlink:href="#DejaVuSans-54"/><use xlink:href="#DejaVuSans-61" transform="translate(44.584)"/><use xlink:href="#DejaVuSans-72" transform="translate(105.863)"/><use xlink:href="#DejaVuSans-67" transform="translate(145.227)"/><use xlink:href="#DejaVuSans-65" transform="translate(208.703)"/><use xlink:href="#DejaVuSans-74" transform="translate(270.227)"/><use xlink:href="#DejaVuSans-5f" transform="translate(309.436)"/><use xlink:href="#DejaVuSans-43" transform="translate(359.436)"/><use xlink:href="#DejaVuSans-75" transform="translate(429.26)"/><use xlink:href="#DejaVuSans-6d" transform="translate(492.639)"/><use xlink:href="#DejaVuSans-42" transform="translate(590.05)"/><use xlink:href="#DejaVuSans-65" transform="translate(658.654)"/><use xlink:href="#DejaVuSans-73" transform="translate(720.178)"/><use xlink:href="#DejaVuSans-74" transform="translate(772.277)"/></g></g><g id="line2d_16"><path d="M276.873 116.921h83.962l41.981 117.608 41.981 24.501 41.982 2.064 41.98 6.789 41.982 12.247 41.981 11.457 41.981 14.115 41.982 17.76 41.98 6.714 41.982 50.238 41.981 47.553 41.981 20.81 41.982 1.68 41.98 3.383 41.982 4.94 41.981 2.348 41.981 3.097 41.982 5.481 41.98 3.851 41.982 5.038 41.981 5.155 41.981 3.867 41.982 2.33 41.98.744h41.982l41.981.559 41.981.34" clip-path="url(#p57cfb9cc9d)" style="fill:none;stroke:#1f77b4;stroke-width:1.5;stroke-linecap:square"/><defs><path id="mfe24b260ae" d="M0 5A5 5 0 1 0 0-5 5 5 0 0 0 0 5z" style="stroke:#fff;stroke-width:.75"/></defs><g clip-path="url(#p57cfb9cc9d)"><use xlink:href="#mfe24b260ae" x="276.873" y="116.921" style="fill:#1f77b4;stroke:#fff;stroke-width:.75"/><use xlink:href="#mfe24b260ae" x="318.854" y="116.921" style="fill:#1f77b4;stroke:#fff;stroke-width:.75"/><use xlink:href="#mfe24b260ae" x="360.835" y="116.921" style="fill:#1f77b4;stroke:#fff;stroke-width:.75"/><use xlink:href="#mfe24b260ae" x="402.816" y="234.529" style="fill:#1f77b4;stroke:#fff;stroke-width:.75"/><use xlink:href="#mfe24b260ae" x="444.797" y="259.03" style="fill:#1f77b4;stroke:#fff;stroke-width:.75"/><use xlink:href="#mfe24b260ae" x="486.779" y="261.094" style="fill:#1f77b4;stroke:#fff;stroke-width:.75"/><use xlink:href="#mfe24b260ae" x="528.76" y="267.883" style="fill:#1f77b4;stroke:#fff;stroke-width:.75"/><use xlink:href="#mfe24b260ae" x="570.741" y="280.13" style="fill:#1f77b4;stroke:#fff;stroke-width:.75"/><use xlink:href="#mfe24b260ae" x="612.722" y="291.587" style="fill:#1f77b4;stroke:#fff;stroke-width:.75"/><use xlink:href="#mfe24b260ae" x="654.703" y="305.702" style="fill:#1f77b4;stroke:#fff;stroke-width:.75"/><use xlink:href="#mfe24b260ae" x="696.685" y="323.463" style="fill:#1f77b4;stroke:#fff;stroke-width:.75"/><use xlink:href="#mfe24b260ae" x="738.666" y="330.176" style="fill:#1f77b4;stroke:#fff;stroke-width:.75"/><use xlink:href="#mfe24b260ae" x="780.647" y="380.414" style="fill:#1f77b4;stroke:#fff;stroke-width:.75"/><use xlink:href="#mfe24b260ae" x="822.628" y="427.967" style="fill:#1f77b4;stroke:#fff;stroke-width:.75"/><use xlink:href="#mfe24b260ae" x="864.609" y="448.777" style="fill:#1f77b4;stroke:#fff;stroke-width:.75"/><use xlink:href="#mfe24b260ae" x="906.591" y="450.456" style="fill:#1f77b4;stroke:#fff;stroke-width:.75"/><use xlink:href="#mfe24b260ae" x="948.572" y="453.84" style="fill:#1f77b4;stroke:#fff;stroke-width:.75"/><use xlink:href="#mfe24b260ae" x="990.553" y="458.78" style="fill:#1f77b4;stroke:#fff;stroke-width:.75"/><use xlink:href="#mfe24b260ae" x="1032.534" y="461.128" style="fill:#1f77b4;stroke:#fff;stroke-width:.75"/><use xlink:href="#mfe24b260ae" x="1074.515" y="464.225" style="fill:#1f77b4;stroke:#fff;stroke-width:.75"/><use xlink:href="#mfe24b260ae" x="1116.497" y="469.706" style="fill:#1f77b4;stroke:#fff;stroke-width:.75"/><use xlink:href="#mfe24b260ae" x="1158.478" y="473.557" style="fill:#1f77b4;stroke:#fff;stroke-width:.75"/><use xlink:href="#mfe24b260ae" x="1200.459" y="478.595" style="fill:#1f77b4;stroke:#fff;stroke-width:.75"/><use xlink:href="#mfe24b260ae" x="1242.44" y="483.75" style="fill:#1f77b4;stroke:#fff;stroke-width:.75"/><use xlink:href="#mfe24b260ae" x="1284.421" y="487.617" style="fill:#1f77b4;stroke:#fff;stroke-width:.75"/><use xlink:href="#mfe24b260ae" x="1326.403" y="489.947" style="fill:#1f77b4;stroke:#fff;stroke-width:.75"/><use xlink:href="#mfe24b260ae" x="1368.384" y="490.691" style="fill:#1f77b4;stroke:#fff;stroke-width:.75"/><use xlink:href="#mfe24b260ae" x="1410.365" y="490.691" style="fill:#1f77b4;stroke:#fff;stroke-width:.75"/><use xlink:href="#mfe24b260ae" x="1452.346" y="491.25" style="fill:#1f77b4;stroke:#fff;stroke-width:.75"/><use xlink:href="#mfe24b260ae" x="1494.327" y="491.589" style="fill:#1f77b4;stroke:#fff;stroke-width:.75"/></g></g><g id="line2d_17"><path d="m276.873 116.921 41.98 22.123 41.982 29.522 41.981 40.117 41.981 10.682 41.982 23.413 41.98 10.323 41.982 6.132 41.981 1.807 41.981 16.095 41.982 4.643h83.962l41.981 5.442 41.981 1.07h41.982l41.98 1.7h41.982l41.981 4.297 41.981 5.202h167.925l41.981 1.499 41.982 2.95h83.962l41.981 4.94 41.981 1.625" clip-path="url(#p57cfb9cc9d)" style="fill:none;stroke:#ff7f0e;stroke-width:1.5;stroke-linecap:square"/><defs><path id="m2cc5df471e" d="M0 5A5 5 0 1 0 0-5 5 5 0 0 0 0 5z" style="stroke:#fff;stroke-width:.75"/></defs><g clip-path="url(#p57cfb9cc9d)"><use xlink:href="#m2cc5df471e" x="276.873" y="116.921" style="fill:#ff7f0e;stroke:#fff;stroke-width:.75"/><use xlink:href="#m2cc5df471e" x="318.854" y="139.044" style="fill:#ff7f0e;stroke:#fff;stroke-width:.75"/><use xlink:href="#m2cc5df471e" x="360.835" y="168.566" style="fill:#ff7f0e;stroke:#fff;stroke-width:.75"/><use xlink:href="#m2cc5df471e" x="402.816" y="208.683" style="fill:#ff7f0e;stroke:#fff;stroke-width:.75"/><use xlink:href="#m2cc5df471e" x="444.797" y="219.365" style="fill:#ff7f0e;stroke:#fff;stroke-width:.75"/><use xlink:href="#m2cc5df471e" x="486.779" y="242.778" style="fill:#ff7f0e;stroke:#fff;stroke-width:.75"/><use xlink:href="#m2cc5df471e" x="528.76" y="253.101" style="fill:#ff7f0e;stroke:#fff;stroke-width:.75"/><use xlink:href="#m2cc5df471e" x="570.741" y="259.233" style="fill:#ff7f0e;stroke:#fff;stroke-width:.75"/><use xlink:href="#m2cc5df471e" x="612.722" y="261.04" style="fill:#ff7f0e;stroke:#fff;stroke-width:.75"/><use xlink:href="#m2cc5df471e" x="654.703" y="277.135" style="fill:#ff7f0e;stroke:#fff;stroke-width:.75"/><use xlink:href="#m2cc5df471e" x="696.685" y="281.778" style="fill:#ff7f0e;stroke:#fff;stroke-width:.75"/><use xlink:href="#m2cc5df471e" x="738.666" y="281.778" style="fill:#ff7f0e;stroke:#fff;stroke-width:.75"/><use xlink:href="#m2cc5df471e" x="780.647" y="281.778" style="fill:#ff7f0e;stroke:#fff;stroke-width:.75"/><use xlink:href="#m2cc5df471e" x="822.628" y="287.22" style="fill:#ff7f0e;stroke:#fff;stroke-width:.75"/><use xlink:href="#m2cc5df471e" x="864.609" y="288.291" style="fill:#ff7f0e;stroke:#fff;stroke-width:.75"/><use xlink:href="#m2cc5df471e" x="906.591" y="288.291" style="fill:#ff7f0e;stroke:#fff;stroke-width:.75"/><use xlink:href="#m2cc5df471e" x="948.572" y="289.989" style="fill:#ff7f0e;stroke:#fff;stroke-width:.75"/><use xlink:href="#m2cc5df471e" x="990.553" y="289.989" style="fill:#ff7f0e;stroke:#fff;stroke-width:.75"/><use xlink:href="#m2cc5df471e" x="1032.534" y="294.287" style="fill:#ff7f0e;stroke:#fff;stroke-width:.75"/><use xlink:href="#m2cc5df471e" x="1074.515" y="299.489" style="fill:#ff7f0e;stroke:#fff;stroke-width:.75"/><use xlink:href="#m2cc5df471e" x="1116.497" y="299.489" style="fill:#ff7f0e;stroke:#fff;stroke-width:.75"/><use xlink:href="#m2cc5df471e" x="1158.478" y="299.489" style="fill:#ff7f0e;stroke:#fff;stroke-width:.75"/><use xlink:href="#m2cc5df471e" x="1200.459" y="299.489" style="fill:#ff7f0e;stroke:#fff;stroke-width:.75"/><use xlink:href="#m2cc5df471e" x="1242.44" y="299.489" style="fill:#ff7f0e;stroke:#fff;stroke-width:.75"/><use xlink:href="#m2cc5df471e" x="1284.421" y="300.988" style="fill:#ff7f0e;stroke:#fff;stroke-width:.75"/><use xlink:href="#m2cc5df471e" x="1326.403" y="303.938" style="fill:#ff7f0e;stroke:#fff;stroke-width:.75"/><use xlink:href="#m2cc5df471e" x="1368.384" y="303.938" style="fill:#ff7f0e;stroke:#fff;stroke-width:.75"/><use xlink:href="#m2cc5df471e" x="1410.365" y="303.938" style="fill:#ff7f0e;stroke:#fff;stroke-width:.75"/><use xlink:href="#m2cc5df471e" x="1452.346" y="308.878" style="fill:#ff7f0e;stroke:#fff;stroke-width:.75"/><use xlink:href="#m2cc5df471e" x="1494.327" y="310.503" style="fill:#ff7f0e;stroke:#fff;stroke-width:.75"/></g></g><path id="patch_3" d="M216 512.64V69.12" style="fill:none;stroke:#000;stroke-width:.8;stroke-linejoin:miter;stroke-linecap:square"/><path id="patch_4" d="M1555.2 512.64V69.12" style="fill:none;stroke:#000;stroke-width:.8;stroke-linejoin:miter;stroke-linecap:square"/><path id="patch_5" d="M216 512.64h1339.2" style="fill:none;stroke:#000;stroke-width:.8;stroke-linejoin:miter;stroke-linecap:square"/><path id="patch_6" d="M216 69.12h1339.2" style="fill:none;stroke:#000;stroke-width:.8;stroke-linejoin:miter;stroke-linecap:square"/><g id="legend_1"><path id="patch_7" d="M1257.858 155.996H1548.2q2 0 2-2V76.12q0-2-2-2h-290.342q-2 0-2 2v77.876q0 2 2 2z" style="fill:#fff;opacity:.3;stroke:#ccc;stroke-linejoin:miter"/><g id="text_18" transform="matrix(.22 0 0 -.22 1355.208 94.837)"><defs><path id="DejaVuSans-53" d="M3425 4513v-616q-359 172-678 256-319 85-616 85-515 0-795-200t-280-569q0-310 186-468 186-157 705-254l381-78q706-135 1042-474t336-907q0-679-455-1029Q2797-91 1919-91q-331 0-705 75-373 75-773 222v650q384-215 753-325 369-109 725-109 540 0 834 212 294 213 294 607 0 343-211 537t-692 291l-385 75q-706 140-1022 440-315 300-315 835 0 619 436 975t1201 356q329 0 669-60 341-59 697-177" transform="scale(.01563)"/><path id="DejaVuSans-63" d="M3122 3366v-538q-244 135-489 202t-495 67q-560 0-870-355-309-354-309-995t309-996q310-354 870-354 250 0 495 67t489 202V134Q2881 22 2623-34q-257-57-548-57-791 0-1257 497-465 497-465 1341 0 856 470 1346 471 491 1290 491 265 0 518-55 253-54 491-163" transform="scale(.01563)"/><path id="DejaVuSans-6f" d="M1959 3097q-462 0-731-361t-269-989 267-989q268-361 733-361 460 0 728 362 269 363 269 988 0 622-269 986-268 364-728 364m0 487q750 0 1178-488 429-487 429-1349 0-859-429-1349Q2709-91 1959-91q-753 0-1180 489-426 490-426 1349 0 862 426 1349 427 488 1180 488" transform="scale(.01563)"/></defs><use xlink:href="#DejaVuSans-53"/><use xlink:href="#DejaVuSans-63" transform="translate(63.477)"/><use xlink:href="#DejaVuSans-65" transform="translate(118.457)"/><use xlink:href="#DejaVuSans-6e" transform="translate(179.98)"/><use xlink:href="#DejaVuSans-61" transform="translate(243.36)"/><use xlink:href="#DejaVuSans-72" transform="translate(304.639)"/><use xlink:href="#DejaVuSans-69" transform="translate(345.752)"/><use xlink:href="#DejaVuSans-6f" transform="translate(373.535)"/></g><g id="line2d_20"><path d="M1259.858 117.628h20" style="fill:none;stroke:#1f77b4;stroke-width:1.5;stroke-linecap:square"/><use xlink:href="#mfe24b260ae" x="1269.858" y="117.628" style="fill:#1f77b4;stroke:#fff;stroke-width:.75"/></g><g id="text_19" transform="matrix(.22 0 0 -.22 1287.858 121.128)"><defs><path id="DejaVuSans-44" d="M1259 4147V519h763q966 0 1414 437 448 438 448 1382 0 937-448 1373t-1414 436zm-631 519h1297q1356 0 1990-564 635-564 635-1764 0-1207-638-1773Q3275 0 1925 0H628z" transform="scale(.01563)"/><path id="DejaVuSans-66" d="M2375 4863v-479h-550q-309 0-430-125-120-125-120-450v-309h947v-447h-947V0H697v3053H147v447h550v244q0 584 272 851 272 268 862 268z" transform="scale(.01563)"/><path id="DejaVuSans-6c" d="M603 4863h575V0H603z" transform="scale(.01563)"/><path id="DejaVuSans-52" d="M2841 2188q203-69 395-294t386-619L4263 0h-679l-596 1197q-232 469-449 622t-592 153h-688V0H628v4666h1425q800 0 1194-335 394-334 394-1009 0-441-205-732-205-290-595-402M1259 4147V2491h794q456 0 689 211t233 620-233 617-689 208z" transform="scale(.01563)"/><path id="DejaVuSans-64" d="M2906 2969v1894h575V0h-575v525q-181-312-458-464-276-152-664-152-634 0-1033 506-398 507-398 1332t398 1331q399 506 1033 506 388 0 664-152 277-151 458-463M947 1747q0-634 261-995t717-361 718 361q263 361 263 995t-263 995q-262 361-718 361t-717-361-261-995" transform="scale(.01563)"/></defs><use xlink:href="#DejaVuSans-44"/><use xlink:href="#DejaVuSans-65" transform="translate(77.002)"/><use xlink:href="#DejaVuSans-66" transform="translate(138.525)"/><use xlink:href="#DejaVuSans-61" transform="translate(173.73)"/><use xlink:href="#DejaVuSans-75" transform="translate(235.01)"/><use xlink:href="#DejaVuSans-6c" transform="translate(298.389)"/><use xlink:href="#DejaVuSans-74" transform="translate(326.172)"/><use xlink:href="#DejaVuSans-52" transform="translate(397.168)"/><use xlink:href="#DejaVuSans-65" transform="translate(462.15)"/><use xlink:href="#DejaVuSans-63" transform="translate(523.674)"/><use xlink:href="#DejaVuSans-6f" transform="translate(578.654)"/><use xlink:href="#DejaVuSans-6d" transform="translate(639.836)"/><use xlink:href="#DejaVuSans-6d" transform="translate(737.248)"/><use xlink:href="#DejaVuSans-65" transform="translate(834.66)"/><use xlink:href="#DejaVuSans-6e" transform="translate(896.184)"/><use xlink:href="#DejaVuSans-64" transform="translate(959.563)"/><use xlink:href="#DejaVuSans-65" transform="translate(1023.04)"/><use xlink:href="#DejaVuSans-72" transform="translate(1084.563)"/></g><g id="line2d_21"><path d="M1259.858 143.92h20" style="fill:none;stroke:#ff7f0e;stroke-width:1.5;stroke-linecap:square"/><use xlink:href="#m2cc5df471e" x="1269.858" y="143.92" style="fill:#ff7f0e;stroke:#fff;stroke-width:.75"/></g><g id="text_20" transform="matrix(.22 0 0 -.22 1287.858 147.42)"><use xlink:href="#DejaVuSans-52"/><use xlink:href="#DejaVuSans-61" transform="translate(67.232)"/><use xlink:href="#DejaVuSans-6e" transform="translate(128.512)"/><use xlink:href="#DejaVuSans-64" transform="translate(191.89)"/><use xlink:href="#DejaVuSans-6f" transform="translate(255.367)"/><use xlink:href="#DejaVuSans-6d" transform="translate(316.549)"/><use xlink:href="#DejaVuSans-52" transform="translate(445.748)"/><use xlink:href="#DejaVuSans-65" transform="translate(510.73)"/><use xlink:href="#DejaVuSans-63" transform="translate(572.254)"/><use xlink:href="#DejaVuSans-6f" transform="translate(627.234)"/><use xlink:href="#DejaVuSans-6d" transform="translate(688.416)"/><use xlink:href="#DejaVuSans-6d" transform="translate(785.828)"/><use xlink:href="#DejaVuSans-65" transform="translate(883.24)"/><use xlink:href="#DejaVuSans-6e" transform="translate(944.764)"/><use xlink:href="#DejaVuSans-64" transform="translate(1008.143)"/><use xlink:href="#DejaVuSans-65" transform="translate(1071.62)"/><use xlink:href="#DejaVuSans-72" transform="translate(1133.143)"/></g></g></g></g><defs><clipPath id="p57cfb9cc9d"><path d="M216 69.12h1339.2v443.52H216z"/></clipPath></defs></svg>