<svg xmlns="http://www.w3.org/2000/svg" xmlns:xlink="http://www.w3.org/1999/xlink" width="2304" height="768" viewBox="0 0 1728 576"><defs><style>*{stroke-linejoin:round;stroke-linecap:butt}</style></defs><g id="figure_1"><path id="patch_1" d="M0 576h1728V0H0z" style="fill:none"/><g id="axes_1"><path id="patch_2" d="M216 512.64h1339.2V69.12H216z" style="fill:none"/><g id="FillBetweenPolyCollection_1"><defs><path id="md8ceab20c0" d="M276.873-128.132v41.825l64.076-76.081 64.077-52.616 64.076-48.88 64.077-37.961 64.077-25.147 64.076-22.876 64.077-28.805 64.076-12.673 64.077-11.293 64.076-8.23 64.077-6.974 64.076-5.694 64.077-5.186 64.076-4.522 64.077-5.047 64.077-3.583 64.076-6.317 64.077-1.157 64.076-4.455v-12.673l-64.076 3.76-64.077 1.353-64.076 4.426-64.077 4.131-64.077 4.6-64.076 3.375-64.077 5.15-64.076 5.529-64.077 5.895-64.076 7.282-64.077 10.336-64.076 12.525-64.077 21.618-64.076 19.63-64.077 23.139-64.077 32.997-64.076 47.819-64.077 53.134z" style="stroke:#1f77b4;stroke-opacity:.2"/></defs><g clip-path="url(#pbe5be41d02)"><use xlink:href="#md8ceab20c0" y="576" style="fill:#1f77b4;fill-opacity:.2;stroke:#1f77b4;stroke-opacity:.2"/></g></g><g id="FillBetweenPolyCollection_2"><defs><path id="m50957c73b7" d="M276.873-130.227v44.596l64.076-92.743 64.077-67.522 64.076-49.067 64.077-40.66 64.077-28.61 64.076-24.665 64.077-18.044 64.076-10.173 64.077-15.865 64.076-6.842 64.077-8.151 64.076-8.284 64.077-5.282 64.076-2.654 64.077-1.798 64.077-4.988 64.076-3.813 64.077-1.395 64.076-3.056v-7.477l-64.076 1.693-64.077.794-64.076 1.88-64.077 2.141-64.077 1.629-64.076 1.875-64.077 3.806-64.076 7.213-64.077 5.955-64.076 5.38-64.077 12.373-64.076 8.915-64.077 14.171-64.076 19.987-64.077 28.27-64.077 38.37-64.076 50.449-64.077 63.302z" style="stroke:#ff7f0e;stroke-opacity:.2"/></defs><g clip-path="url(#pbe5be41d02)"><use xlink:href="#m50957c73b7" y="576" style="fill:#ff7f0e;fill-opacity:.2;stroke:#ff7f0e;stroke-opacity:.2"/></g></g><g id="FillBetweenPolyCollection_3"><defs><path id="mb967352a70" d="M276.873-130.968v47.448l64.076-82.802 64.077-45.775 64.076-40.893 64.077-30.241 64.077-25.967 64.076-24.354 64.077-9.95 64.076-7.073 64.077-9.641 64.076-9.775 64.077-8.425 64.076-7.251 64.077-7.42 64.076-11.223 64.077-5.969 64.077-5.246 64.076-6.814 64.077-1.937 64.076-3.986v-18.528l-64.076 2.407-64.077 4.173-64.076 4.525-64.077 4.707-64.077 6.359-64.076 9.082-64.077 8.687-64.076 5.686-64.077 8.698-64.076 6.782-64.077 7.77-64.076 6.916-64.077 8.825-64.076 15.682-64.077 24.301-64.077 25.912-64.076 38.731-64.077 44.166z" style="stroke:#2ca02c;stroke-opacity:.2"/></defs><g clip-path="url(#pbe5be41d02)"><use xlink:href="#mb967352a70" y="576" style="fill:#2ca02c;fill-opacity:.2;stroke:#2ca02c;stroke-opacity:.2"/></g></g><g id="FillBetweenPolyCollection_4"><defs><path id="md62a48742d" d="M276.873-128.044v42.014l64.076-65.465 64.077-76.561 64.076-74.57 64.077-44.012 64.077-37.792 64.076-21.543 64.077-21.172 64.076-9.196 64.077-7.002 64.076-6.883 64.077-4.84 64.076-5.603 64.077-1.23 64.076-4.096 64.077-1.123 64.077-1.2 64.076-1.01 64.077-.432 64.076-.615v-8.616l-64.076.732-64.077-.226-64.076.673-64.077.544-64.077 1.047-64.076 3.118-64.077 1.569-64.076 3.514-64.077 3.19-64.076 5.563-64.077 5.776-64.076 7.494-64.077 16.38-64.076 18.177-64.077 30.406-64.077 41.643-64.076 67.534-64.077 79.31z" style="stroke:#d62728;stroke-opacity:.2"/></defs><g clip-path="url(#pbe5be41d02)"><use xlink:href="#md62a48742d" y="576" style="fill:#d62728;fill-opacity:.2;stroke:#d62728;stroke-opacity:.2"/></g></g><g id="FillBetweenPolyCollection_5"><defs><path id="md7a4019047" d="M276.873-129.45v43.806l64.076-85.217 64.077-56.224 64.076-30.49 64.077-28.362 64.077-15.78 64.076-22.102 64.077-11.35 64.076-7.803 64.077-5.799 64.076-10.002 64.077-7.768 64.076-4.206 64.077-4.975 64.076-7.796 64.077-2.728 64.077-4.462 64.076-4.12 64.077-5.357 64.076-3.253v-15.447l-64.076 3.626-64.077 3.612-64.076 3.257-64.077 3.196-64.077 2.881-64.076 5.036-64.077 5.84-64.076 3.93-64.077 4.611-64.076 8.546-64.077 4.954-64.076 5.492-64.077 10.208-64.076 20.766-64.077 13.014-64.077 26.2-64.076 28.55-64.077 53.224z" style="stroke:#9467bd;stroke-opacity:.2"/></defs><g clip-path="url(#pbe5be41d02)"><use xlink:href="#md7a4019047" y="576" style="fill:#9467bd;fill-opacity:.2;stroke:#9467bd;stroke-opacity:.2"/></g></g><g id="matplotlib.axis_1"><g id="xtick_1"><g id="line2d_1"><defs><path id="m884d6d9538" d="M0 0v3.5" style="stroke:#000;stroke-width:.8"/></defs><use xlink:href="#m884d6d9538" x="372.988" y="512.64" style="stroke:#000;stroke-width:.8"/></g><g id="text_1" transform="matrix(.22 0 0 -.22 365.989 536.357)"><defs><path id="DejaVuSans-35" d="M691 4666h2478v-532H1269V2991q137 47 274 70 138 23 276 23 781 0 1237-428 457-428 457-1159 0-753-469-1171Q2575-91 1722-91q-294 0-599 50Q819 9 494 109v635q281-153 581-228t634-75q541 0 856 284 316 284 316 772 0 487-316 771-315 285-856 285-253 0-505-56-251-56-513-175z" transform="scale(.01563)"/></defs><use xlink:href="#DejaVuSans-35"/></g></g><g id="xtick_2"><use xlink:href="#m884d6d9538" id="line2d_2" x="533.179" y="512.64" style="stroke:#000;stroke-width:.8"/><g id="text_2" transform="matrix(.22 0 0 -.22 519.181 536.357)"><defs><path id="DejaVuSans-31" d="M794 531h1031v3560L703 3866v575l1116 225h631V531h1031V0H794z" transform="scale(.01563)"/><path id="DejaVuSans-30" d="M2034 4250q-487 0-733-480-245-479-245-1442 0-959 245-1439 246-480 733-480 491 0 736 480 246 480 246 1439 0 963-246 1442-245 480-736 480m0 500q785 0 1199-621 414-620 414-1801 0-1178-414-1799Q2819-91 2034-91q-784 0-1198 620-414 621-414 1799 0 1181 414 1801 414 621 1198 621" transform="scale(.01563)"/></defs><use xlink:href="#DejaVuSans-31"/><use xlink:href="#DejaVuSans-30" transform="translate(63.623)"/></g></g><g id="xtick_3"><use xlink:href="#m884d6d9538" id="line2d_3" x="693.37" y="512.64" style="stroke:#000;stroke-width:.8"/><g id="text_3" transform="matrix(.22 0 0 -.22 679.373 536.357)"><use xlink:href="#DejaVuSans-31"/><use xlink:href="#DejaVuSans-35" transform="translate(63.623)"/></g></g><g id="xtick_4"><use xlink:href="#m884d6d9538" id="line2d_4" x="853.562" y="512.64" style="stroke:#000;stroke-width:.8"/><g id="text_4" transform="matrix(.22 0 0 -.22 839.564 536.357)"><defs><path id="DejaVuSans-32" d="M1228 531h2203V0H469v531q359 372 979 998 621 627 780 809 303 340 423 576 121 236 121 464 0 372-261 606-261 235-680 235-297 0-627-103-329-103-704-313v638q381 153 712 231 332 78 607 78 725 0 1156-363 431-362 431-968 0-288-108-546-107-257-392-607-78-91-497-524-418-433-1181-1211" transform="scale(.01563)"/></defs><use xlink:href="#DejaVuSans-32"/><use xlink:href="#DejaVuSans-30" transform="translate(63.623)"/></g></g><g id="xtick_5"><use xlink:href="#m884d6d9538" id="line2d_5" x="1013.753" y="512.64" style="stroke:#000;stroke-width:.8"/><g id="text_5" transform="matrix(.22 0 0 -.22 999.756 536.357)"><use xlink:href="#DejaVuSans-32"/><use xlink:href="#DejaVuSans-35" transform="translate(63.623)"/></g></g><g id="xtick_6"><use xlink:href="#m884d6d9538" id="line2d_6" x="1173.944" y="512.64" style="stroke:#000;stroke-width:.8"/><g id="text_6" transform="matrix(.22 0 0 -.22 1159.947 536.357)"><defs><path id="DejaVuSans-33" d="M2597 2516q453-97 707-404 255-306 255-756 0-690-475-1069Q2609-91 1734-91q-293 0-604 58T488 141v609q262-153 574-231 313-78 654-78 593 0 904 234t311 681q0 413-289 645-289 233-804 233h-544v519h569q465 0 712 186t247 536q0 359-255 551-254 193-729 193-260 0-557-57-297-56-653-174v562q360 100 674 150t592 50q719 0 1137-327 419-326 419-882 0-388-222-655t-631-370" transform="scale(.01563)"/></defs><use xlink:href="#DejaVuSans-33"/><use xlink:href="#DejaVuSans-30" transform="translate(63.623)"/></g></g><g id="xtick_7"><use xlink:href="#m884d6d9538" id="line2d_7" x="1334.136" y="512.64" style="stroke:#000;stroke-width:.8"/><g id="text_7" transform="matrix(.22 0 0 -.22 1320.138 536.357)"><use xlink:href="#DejaVuSans-33"/><use xlink:href="#DejaVuSans-35" transform="translate(63.623)"/></g></g><g id="xtick_8"><use xlink:href="#m884d6d9538" id="line2d_8" x="1494.327" y="512.64" style="stroke:#000;stroke-width:.8"/><g id="text_8" transform="matrix(.22 0 0 -.22 1480.33 536.357)"><defs><path id="DejaVuSans-34" d="M2419 4116 825 1625h1594zm-166 550h794V1625h666v-525h-666V0h-628v1100H313v609z" transform="scale(.01563)"/></defs><use xlink:href="#DejaVuSans-34"/><use xlink:href="#DejaVuSans-30" transform="translate(63.623)"/></g></g><g id="text_9" transform="matrix(.22 0 0 -.22 784.897 561.648)"><defs><path id="DejaVuSans-4e" d="M628 4666h850L3547 763v3903h612V0h-850L1241 3903V0H628z" transform="scale(.01563)"/><path id="DejaVuSans-75" d="M544 1381v2119h575V1403q0-497 193-746 194-248 582-248 465 0 735 297 271 297 271 810v1984h575V0h-575v538q-209-319-486-474-276-155-642-155-603 0-916 375-312 375-312 1097m1447 2203" transform="scale(.01563)"/><path id="DejaVuSans-6d" d="M3328 2828q216 388 516 572t706 184q547 0 844-383 297-382 297-1088V0h-578v2094q0 503-179 746-178 244-543 244-447 0-707-297-259-296-259-809V0h-578v2094q0 506-178 748t-550 242q-441 0-701-298-259-298-259-808V0H581v3500h578v-544q197 322 472 475t653 153q382 0 649-194 267-193 395-562" transform="scale(.01563)"/><path id="DejaVuSans-5f" d="M3263-1063v-446H-63v446z" transform="scale(.01563)"/><path id="DejaVuSans-45" d="M628 4666h2950v-532H1259V2753h2222v-531H1259V531h2375V0H628z" transform="scale(.01563)"/><path id="DejaVuSans-78" d="M3513 3500 2247 1797 3578 0h-678L1881 1375 863 0H184l1360 1831L300 3500h678l928-1247 928 1247z" transform="scale(.01563)"/><path id="DejaVuSans-70" d="M1159 525v-1856H581v4831h578v-531q182 312 458 463 277 152 661 152 638 0 1036-506 399-506 399-1331T3314 415Q2916-91 2278-91q-384 0-661 152-276 152-458 464m1957 1222q0 634-261 995t-717 361q-457 0-718-361t-261-995 261-995 718-361q456 0 717 361t261 995" transform="scale(.01563)"/><path id="DejaVuSans-65" d="M3597 1894v-281H953q38-594 358-905t892-311q331 0 642 81t618 244V178Q3153 47 2828-22t-659-69q-838 0-1327 487-489 488-489 1320 0 859 464 1363 464 505 1252 505 706 0 1117-455 411-454 411-1235m-575 169q-6 471-264 752-258 282-683 282-481 0-770-272t-333-766z" transform="scale(.01563)"/><path id="DejaVuSans-72" d="M2631 2963q-97 56-211 82-114 27-251 27-488 0-749-317t-261-911V0H581v3500h578v-544q182 319 472 473 291 155 707 155 59 0 131-8 72-7 159-23z" transform="scale(.01563)"/><path id="DejaVuSans-69" d="M603 3500h575V0H603zm0 1363h575v-729H603z" transform="scale(.01563)"/><path id="DejaVuSans-6e" d="M3513 2113V0h-575v2094q0 497-194 743-194 247-581 247-466 0-735-297-269-296-269-809V0H581v3500h578v-544q207 316 486 472 280 156 646 156 603 0 912-373 310-373 310-1098" transform="scale(.01563)"/><path id="DejaVuSans-74" d="M1172 4494v-994h1184v-447H1172V1153q0-428 117-550t477-122h590V0h-590q-666 0-919 248-253 249-253 905v1900H172v447h422v994z" transform="scale(.01563)"/><path id="DejaVuSans-73" d="M2834 3397v-544q-243 125-506 187-262 63-544 63-428 0-642-131t-214-394q0-200 153-314t616-217l197-44q612-131 870-370t258-667q0-488-386-773Q2250-91 1575-91q-281 0-586 55T347 128v594q319-166 628-249 309-82 613-82 406 0 624 139 219 139 219 392 0 234-158 359-157 125-692 241l-200 47q-534 112-772 345-237 233-237 639 0 494 350 762 350 269 994 269 318 0 599-47 282-46 519-140" transform="scale(.01563)"/></defs><use xlink:href="#DejaVuSans-4e"/><use xlink:href="#DejaVuSans-75" transform="translate(74.805)"/><use xlink:href="#DejaVuSans-6d" transform="translate(138.184)"/><use xlink:href="#DejaVuSans-5f" transform="translate(235.596)"/><use xlink:href="#DejaVuSans-45" transform="translate(285.596)"/><use xlink:href="#DejaVuSans-78" transform="translate(348.78)"/><use xlink:href="#DejaVuSans-70" transform="translate(407.959)"/><use xlink:href="#DejaVuSans-65" transform="translate(471.436)"/><use xlink:href="#DejaVuSans-72" transform="translate(532.959)"/><use xlink:href="#DejaVuSans-69" transform="translate(574.072)"/><use xlink:href="#DejaVuSans-6d" transform="translate(601.855)"/><use xlink:href="#DejaVuSans-65" transform="translate(699.268)"/><use xlink:href="#DejaVuSans-6e" transform="translate(760.791)"/><use xlink:href="#DejaVuSans-74" transform="translate(824.17)"/><use xlink:href="#DejaVuSans-73" transform="translate(863.379)"/></g></g><g id="matplotlib.axis_2"><g id="ytick_1"><g id="line2d_9"><defs><path id="m2f92bb6dfb" d="M0 0h-3.5" style="stroke:#000;stroke-width:.8"/></defs><use xlink:href="#m2f92bb6dfb" x="216" y="487.248" style="stroke:#000;stroke-width:.8"/></g><g id="text_10" transform="matrix(.22 0 0 -.22 181.005 495.606)"><use xlink:href="#DejaVuSans-33"/><use xlink:href="#DejaVuSans-30" transform="translate(63.623)"/></g></g><g id="ytick_2"><use xlink:href="#m2f92bb6dfb" id="line2d_10" x="216" y="429.789" style="stroke:#000;stroke-width:.8"/><g id="text_11" transform="matrix(.22 0 0 -.22 181.005 438.148)"><use xlink:href="#DejaVuSans-34"/><use xlink:href="#DejaVuSans-30" transform="translate(63.623)"/></g></g><g id="ytick_3"><use xlink:href="#m2f92bb6dfb" id="line2d_11" x="216" y="372.33" style="stroke:#000;stroke-width:.8"/><g id="text_12" transform="matrix(.22 0 0 -.22 181.005 380.689)"><use xlink:href="#DejaVuSans-35"/><use xlink:href="#DejaVuSans-30" transform="translate(63.623)"/></g></g><g id="ytick_4"><use xlink:href="#m2f92bb6dfb" id="line2d_12" x="216" y="314.871" style="stroke:#000;stroke-width:.8"/><g id="text_13" transform="matrix(.22 0 0 -.22 181.005 323.23)"><defs><path id="DejaVuSans-36" d="M2113 2584q-425 0-674-291-248-290-248-796 0-503 248-796 249-292 674-292t673 292q248 293 248 796 0 506-248 796-248 291-673 291m1253 1979v-575q-238 112-480 171-242 60-480 60-625 0-955-422-329-422-376-1275 184 272 462 417 279 145 613 145 703 0 1111-427 408-426 408-1160 0-719-425-1154Q2819-91 2113-91q-810 0-1238 620-428 621-428 1799 0 1106 525 1764t1409 658q238 0 480-47t505-140" transform="scale(.01563)"/></defs><use xlink:href="#DejaVuSans-36"/><use xlink:href="#DejaVuSans-30" transform="translate(63.623)"/></g></g><g id="ytick_5"><use xlink:href="#m2f92bb6dfb" id="line2d_13" x="216" y="257.413" style="stroke:#000;stroke-width:.8"/><g id="text_14" transform="matrix(.22 0 0 -.22 181.005 265.77)"><defs><path id="DejaVuSans-37" d="M525 4666h3000v-269L1831 0h-659l1594 4134H525z" transform="scale(.01563)"/></defs><use xlink:href="#DejaVuSans-37"/><use xlink:href="#DejaVuSans-30" transform="translate(63.623)"/></g></g><g id="ytick_6"><use xlink:href="#m2f92bb6dfb" id="line2d_14" x="216" y="199.954" style="stroke:#000;stroke-width:.8"/><g id="text_15" transform="matrix(.22 0 0 -.22 181.005 208.312)"><defs><path id="DejaVuSans-38" d="M2034 2216q-450 0-708-241-257-241-257-662 0-422 257-663 258-241 708-241t709 242q260 243 260 662 0 421-258 662-257 241-711 241m-631 268q-406 100-633 378-226 279-226 679 0 559 398 884 399 325 1092 325 697 0 1094-325t397-884q0-400-227-679-226-278-629-378 456-106 710-416 255-309 255-755 0-679-414-1042Q2806-91 2034-91q-771 0-1186 362-414 363-414 1042 0 446 256 755 257 310 713 416m-231 997q0-362 226-565 227-203 636-203 407 0 636 203 230 203 230 565 0 363-230 566-229 203-636 203-409 0-636-203-226-203-226-566" transform="scale(.01563)"/></defs><use xlink:href="#DejaVuSans-38"/><use xlink:href="#DejaVuSans-30" transform="translate(63.623)"/></g></g><g id="ytick_7"><use xlink:href="#m2f92bb6dfb" id="line2d_15" x="216" y="142.495" style="stroke:#000;stroke-width:.8"/><g id="text_16" transform="matrix(.22 0 0 -.22 181.005 150.853)"><defs><path id="DejaVuSans-39" d="M703 97v575q238-113 481-172 244-59 479-59 625 0 954 420 330 420 377 1277-181-269-460-413-278-144-615-144-700 0-1108 423-408 424-408 1159 0 718 425 1152 425 435 1131 435 810 0 1236-621 427-620 427-1801 0-1103-524-1761Q2575-91 1691-91q-238 0-482 47Q966 3 703 97m1256 1978q425 0 673 290 249 291 249 798 0 503-249 795-248 292-673 292t-673-292-248-795q0-507 248-798 248-290 673-290" transform="scale(.01563)"/></defs><use xlink:href="#DejaVuSans-39"/><use xlink:href="#DejaVuSans-30" transform="translate(63.623)"/></g></g><g id="ytick_8"><use xlink:href="#m2f92bb6dfb" id="line2d_16" x="216" y="85.036" style="stroke:#000;stroke-width:.8"/><g id="text_17" transform="matrix(.22 0 0 -.22 167.007 93.394)"><use xlink:href="#DejaVuSans-31"/><use xlink:href="#DejaVuSans-30" transform="translate(63.623)"/><use xlink:href="#DejaVuSans-30" transform="translate(127.246)"/></g></g><g id="text_18" transform="matrix(0 -.22 -.22 0 157.82 372.48)"><defs><path id="DejaVuSans-79" d="M2059-325q-243-625-475-815-231-191-618-191H506v481h338q237 0 368 113 132 112 291 531l103 262L191 3500h609L1894 763l1094 2737h609z" transform="scale(.01563)"/><path id="DejaVuSans-6c" d="M603 4863h575V0H603z" transform="scale(.01563)"/><path id="DejaVuSans-64" d="M2906 2969v1894h575V0h-575v525q-181-312-458-464-276-152-664-152-634 0-1033 506-398 507-398 1332t398 1331q399 506 1033 506 388 0 664-152 277-151 458-463M947 1747q0-634 261-995t717-361 718 361q263 361 263 995t-263 995q-262 361-718 361t-717-361-261-995" transform="scale(.01563)"/><path id="DejaVuSans-43" d="M4122 4306v-665q-319 297-680 443-361 147-767 147-800 0-1225-489t-425-1414q0-922 425-1411t1225-489q406 0 767 147t680 444V359q-331-225-702-338-370-112-782-112-1060 0-1670 648-609 649-609 1771 0 1125 609 1773 610 649 1670 649 418 0 788-111 371-111 696-333" transform="scale(.01563)"/><path id="DejaVuSans-42" d="M1259 2228V519h1013q509 0 754 211 246 211 246 645 0 438-246 645-245 208-754 208zm0 1919V2741h935q462 0 688 173 227 174 227 530 0 353-227 528-226 175-688 175zm-631 519h1613q722 0 1112-300 391-300 391-853 0-429-200-682t-588-315q466-100 724-418 258-317 258-792 0-625-425-966Q3088 0 2303 0H628z" transform="scale(.01563)"/></defs><use xlink:href="#DejaVuSans-79"/><use xlink:href="#DejaVuSans-69" transform="translate(59.18)"/><use xlink:href="#DejaVuSans-65" transform="translate(86.963)"/><use xlink:href="#DejaVuSans-6c" transform="translate(148.486)"/><use xlink:href="#DejaVuSans-64" transform="translate(176.27)"/><use xlink:href="#DejaVuSans-5f" transform="translate(239.746)"/><use xlink:href="#DejaVuSans-43" transform="translate(289.746)"/><use xlink:href="#DejaVuSans-75" transform="translate(359.57)"/><use xlink:href="#DejaVuSans-6d" transform="translate(422.95)"/><use xlink:href="#DejaVuSans-42" transform="translate(520.361)"/><use xlink:href="#DejaVuSans-65" transform="translate(588.965)"/><use xlink:href="#DejaVuSans-73" transform="translate(650.488)"/><use xlink:href="#DejaVuSans-74" transform="translate(702.588)"/></g></g><g id="line2d_17"><path d="m276.873 469.183 64.076-74.564 64.077-51.841 64.076-49.435 64.077-34.91 64.077-24.736 64.076-20.477 64.077-25.464 64.076-12.927 64.077-10.557 64.076-8.054 64.077-6.523 64.076-4.901 64.077-5.598 64.076-3.96 64.077-4.964 64.077-3.327 64.076-5.682 64.077-1.226 64.076-4.298" clip-path="url(#pbe5be41d02)" style="fill:none;stroke:#1f77b4;stroke-width:1.5;stroke-linecap:square"/><defs><path id="m8affe69877" d="M0 5A5 5 0 1 0 0-5 5 5 0 0 0 0 5z" style="stroke:#fff;stroke-width:.75"/></defs><g clip-path="url(#pbe5be41d02)"><use xlink:href="#m8affe69877" x="276.873" y="469.183" style="fill:#1f77b4;stroke:#fff;stroke-width:.75"/><use xlink:href="#m8affe69877" x="340.949" y="394.619" style="fill:#1f77b4;stroke:#fff;stroke-width:.75"/><use xlink:href="#m8affe69877" x="405.026" y="342.778" style="fill:#1f77b4;stroke:#fff;stroke-width:.75"/><use xlink:href="#m8affe69877" x="469.102" y="293.343" style="fill:#1f77b4;stroke:#fff;stroke-width:.75"/><use xlink:href="#m8affe69877" x="533.179" y="258.433" style="fill:#1f77b4;stroke:#fff;stroke-width:.75"/><use xlink:href="#m8affe69877" x="597.256" y="233.697" style="fill:#1f77b4;stroke:#fff;stroke-width:.75"/><use xlink:href="#m8affe69877" x="661.332" y="213.22" style="fill:#1f77b4;stroke:#fff;stroke-width:.75"/><use xlink:href="#m8affe69877" x="725.409" y="187.756" style="fill:#1f77b4;stroke:#fff;stroke-width:.75"/><use xlink:href="#m8affe69877" x="789.485" y="174.829" style="fill:#1f77b4;stroke:#fff;stroke-width:.75"/><use xlink:href="#m8affe69877" x="853.562" y="164.272" style="fill:#1f77b4;stroke:#fff;stroke-width:.75"/><use xlink:href="#m8affe69877" x="917.638" y="156.218" style="fill:#1f77b4;stroke:#fff;stroke-width:.75"/><use xlink:href="#m8affe69877" x="981.715" y="149.695" style="fill:#1f77b4;stroke:#fff;stroke-width:.75"/><use xlink:href="#m8affe69877" x="1045.791" y="144.794" style="fill:#1f77b4;stroke:#fff;stroke-width:.75"/><use xlink:href="#m8affe69877" x="1109.868" y="139.196" style="fill:#1f77b4;stroke:#fff;stroke-width:.75"/><use xlink:href="#m8affe69877" x="1173.944" y="135.237" style="fill:#1f77b4;stroke:#fff;stroke-width:.75"/><use xlink:href="#m8affe69877" x="1238.021" y="130.272" style="fill:#1f77b4;stroke:#fff;stroke-width:.75"/><use xlink:href="#m8affe69877" x="1302.098" y="126.945" style="fill:#1f77b4;stroke:#fff;stroke-width:.75"/><use xlink:href="#m8affe69877" x="1366.174" y="121.263" style="fill:#1f77b4;stroke:#fff;stroke-width:.75"/><use xlink:href="#m8affe69877" x="1430.251" y="120.037" style="fill:#1f77b4;stroke:#fff;stroke-width:.75"/><use xlink:href="#m8affe69877" x="1494.327" y="115.739" style="fill:#1f77b4;stroke:#fff;stroke-width:.75"/></g></g><g id="line2d_18"><path d="m276.873 469.183 64.076-92.395 64.077-64.727 64.076-49.99 64.077-39.125 64.077-27.839 64.076-23.91 64.077-16.224 64.076-9.265 64.077-13.848 64.076-6.163 64.077-6.988 64.076-7.713 64.077-4.393 64.076-2.247 64.077-1.977 64.077-3.288 64.076-3.146 64.077-.804 64.076-2.462" clip-path="url(#pbe5be41d02)" style="fill:none;stroke:#ff7f0e;stroke-width:1.5;stroke-linecap:square"/><defs><path id="m477b7c2994" d="M0 5A5 5 0 1 0 0-5 5 5 0 0 0 0 5z" style="stroke:#fff;stroke-width:.75"/></defs><g clip-path="url(#pbe5be41d02)"><use xlink:href="#m477b7c2994" x="276.873" y="469.183" style="fill:#ff7f0e;stroke:#fff;stroke-width:.75"/><use xlink:href="#m477b7c2994" x="340.949" y="376.788" style="fill:#ff7f0e;stroke:#fff;stroke-width:.75"/><use xlink:href="#m477b7c2994" x="405.026" y="312.061" style="fill:#ff7f0e;stroke:#fff;stroke-width:.75"/><use xlink:href="#m477b7c2994" x="469.102" y="262.072" style="fill:#ff7f0e;stroke:#fff;stroke-width:.75"/><use xlink:href="#m477b7c2994" x="533.179" y="222.946" style="fill:#ff7f0e;stroke:#fff;stroke-width:.75"/><use xlink:href="#m477b7c2994" x="597.256" y="195.107" style="fill:#ff7f0e;stroke:#fff;stroke-width:.75"/><use xlink:href="#m477b7c2994" x="661.332" y="171.197" style="fill:#ff7f0e;stroke:#fff;stroke-width:.75"/><use xlink:href="#m477b7c2994" x="725.409" y="154.973" style="fill:#ff7f0e;stroke:#fff;stroke-width:.75"/><use xlink:href="#m477b7c2994" x="789.485" y="145.708" style="fill:#ff7f0e;stroke:#fff;stroke-width:.75"/><use xlink:href="#m477b7c2994" x="853.562" y="131.86" style="fill:#ff7f0e;stroke:#fff;stroke-width:.75"/><use xlink:href="#m477b7c2994" x="917.638" y="125.697" style="fill:#ff7f0e;stroke:#fff;stroke-width:.75"/><use xlink:href="#m477b7c2994" x="981.715" y="118.709" style="fill:#ff7f0e;stroke:#fff;stroke-width:.75"/><use xlink:href="#m477b7c2994" x="1045.791" y="110.996" style="fill:#ff7f0e;stroke:#fff;stroke-width:.75"/><use xlink:href="#m477b7c2994" x="1109.868" y="106.603" style="fill:#ff7f0e;stroke:#fff;stroke-width:.75"/><use xlink:href="#m477b7c2994" x="1173.944" y="104.356" style="fill:#ff7f0e;stroke:#fff;stroke-width:.75"/><use xlink:href="#m477b7c2994" x="1238.021" y="102.379" style="fill:#ff7f0e;stroke:#fff;stroke-width:.75"/><use xlink:href="#m477b7c2994" x="1302.098" y="99.091" style="fill:#ff7f0e;stroke:#fff;stroke-width:.75"/><use xlink:href="#m477b7c2994" x="1366.174" y="95.945" style="fill:#ff7f0e;stroke:#fff;stroke-width:.75"/><use xlink:href="#m477b7c2994" x="1430.251" y="95.141" style="fill:#ff7f0e;stroke:#fff;stroke-width:.75"/><use xlink:href="#m477b7c2994" x="1494.327" y="92.679" style="fill:#ff7f0e;stroke:#fff;stroke-width:.75"/></g></g><g id="line2d_19"><path d="m276.873 469.183 64.076-83.765 64.077-44.159 64.076-39.628 64.077-28.745 64.077-24.125 64.076-20.55 64.077-9.695 64.076-7.238 64.077-7.988 64.076-9.203 64.077-8.396 64.076-6.32 64.077-8.135 64.076-10.027 64.077-5.953 64.077-4.752 64.076-6.328 64.077-2.824 64.076-3.142" clip-path="url(#pbe5be41d02)" style="fill:none;stroke:#2ca02c;stroke-width:1.5;stroke-linecap:square"/><defs><path id="m0a12e262e6" d="M0 5A5 5 0 1 0 0-5 5 5 0 0 0 0 5z" style="stroke:#fff;stroke-width:.75"/></defs><g clip-path="url(#pbe5be41d02)"><use xlink:href="#m0a12e262e6" x="276.873" y="469.183" style="fill:#2ca02c;stroke:#fff;stroke-width:.75"/><use xlink:href="#m0a12e262e6" x="340.949" y="385.418" style="fill:#2ca02c;stroke:#fff;stroke-width:.75"/><use xlink:href="#m0a12e262e6" x="405.026" y="341.259" style="fill:#2ca02c;stroke:#fff;stroke-width:.75"/><use xlink:href="#m0a12e262e6" x="469.102" y="301.631" style="fill:#2ca02c;stroke:#fff;stroke-width:.75"/><use xlink:href="#m0a12e262e6" x="533.179" y="272.886" style="fill:#2ca02c;stroke:#fff;stroke-width:.75"/><use xlink:href="#m0a12e262e6" x="597.256" y="248.761" style="fill:#2ca02c;stroke:#fff;stroke-width:.75"/><use xlink:href="#m0a12e262e6" x="661.332" y="228.212" style="fill:#2ca02c;stroke:#fff;stroke-width:.75"/><use xlink:href="#m0a12e262e6" x="725.409" y="218.516" style="fill:#2ca02c;stroke:#fff;stroke-width:.75"/><use xlink:href="#m0a12e262e6" x="789.485" y="211.278" style="fill:#2ca02c;stroke:#fff;stroke-width:.75"/><use xlink:href="#m0a12e262e6" x="853.562" y="203.29" style="fill:#2ca02c;stroke:#fff;stroke-width:.75"/><use xlink:href="#m0a12e262e6" x="917.638" y="194.087" style="fill:#2ca02c;stroke:#fff;stroke-width:.75"/><use xlink:href="#m0a12e262e6" x="981.715" y="185.691" style="fill:#2ca02c;stroke:#fff;stroke-width:.75"/><use xlink:href="#m0a12e262e6" x="1045.791" y="179.37" style="fill:#2ca02c;stroke:#fff;stroke-width:.75"/><use xlink:href="#m0a12e262e6" x="1109.868" y="171.236" style="fill:#2ca02c;stroke:#fff;stroke-width:.75"/><use xlink:href="#m0a12e262e6" x="1173.944" y="161.209" style="fill:#2ca02c;stroke:#fff;stroke-width:.75"/><use xlink:href="#m0a12e262e6" x="1238.021" y="155.256" style="fill:#2ca02c;stroke:#fff;stroke-width:.75"/><use xlink:href="#m0a12e262e6" x="1302.098" y="150.504" style="fill:#2ca02c;stroke:#fff;stroke-width:.75"/><use xlink:href="#m0a12e262e6" x="1366.174" y="144.176" style="fill:#2ca02c;stroke:#fff;stroke-width:.75"/><use xlink:href="#m0a12e262e6" x="1430.251" y="141.352" style="fill:#2ca02c;stroke:#fff;stroke-width:.75"/><use xlink:href="#m0a12e262e6" x="1494.327" y="138.21" style="fill:#2ca02c;stroke:#fff;stroke-width:.75"/></g></g><g id="line2d_20"><path d="m276.873 469.183 64.076-64.413 64.077-77.695 64.076-72.669 64.077-43.25 64.077-33.548 64.076-19.493 64.077-18.7 64.076-8.663 64.077-6.02 64.076-6.587 64.077-4.04 64.076-4.234 64.077-1.857 64.076-3.137 64.077-1.038 64.077-1.012 64.076-.895 64.077-.268 64.076-.527" clip-path="url(#pbe5be41d02)" style="fill:none;stroke:#d62728;stroke-width:1.5;stroke-linecap:square"/><defs><path id="md1b7a1e2cc" d="M0 5A5 5 0 1 0 0-5 5 5 0 0 0 0 5z" style="stroke:#fff;stroke-width:.75"/></defs><g clip-path="url(#pbe5be41d02)"><use xlink:href="#md1b7a1e2cc" x="276.873" y="469.183" style="fill:#d62728;stroke:#fff;stroke-width:.75"/><use xlink:href="#md1b7a1e2cc" x="340.949" y="404.77" style="fill:#d62728;stroke:#fff;stroke-width:.75"/><use xlink:href="#md1b7a1e2cc" x="405.026" y="327.075" style="fill:#d62728;stroke:#fff;stroke-width:.75"/><use xlink:href="#md1b7a1e2cc" x="469.102" y="254.406" style="fill:#d62728;stroke:#fff;stroke-width:.75"/><use xlink:href="#md1b7a1e2cc" x="533.179" y="211.155" style="fill:#d62728;stroke:#fff;stroke-width:.75"/><use xlink:href="#md1b7a1e2cc" x="597.256" y="177.608" style="fill:#d62728;stroke:#fff;stroke-width:.75"/><use xlink:href="#md1b7a1e2cc" x="661.332" y="158.115" style="fill:#d62728;stroke:#fff;stroke-width:.75"/><use xlink:href="#md1b7a1e2cc" x="725.409" y="139.415" style="fill:#d62728;stroke:#fff;stroke-width:.75"/><use xlink:href="#md1b7a1e2cc" x="789.485" y="130.752" style="fill:#d62728;stroke:#fff;stroke-width:.75"/><use xlink:href="#md1b7a1e2cc" x="853.562" y="124.732" style="fill:#d62728;stroke:#fff;stroke-width:.75"/><use xlink:href="#md1b7a1e2cc" x="917.638" y="118.145" style="fill:#d62728;stroke:#fff;stroke-width:.75"/><use xlink:href="#md1b7a1e2cc" x="981.715" y="114.106" style="fill:#d62728;stroke:#fff;stroke-width:.75"/><use xlink:href="#md1b7a1e2cc" x="1045.791" y="109.871" style="fill:#d62728;stroke:#fff;stroke-width:.75"/><use xlink:href="#md1b7a1e2cc" x="1109.868" y="108.014" style="fill:#d62728;stroke:#fff;stroke-width:.75"/><use xlink:href="#md1b7a1e2cc" x="1173.944" y="104.877" style="fill:#d62728;stroke:#fff;stroke-width:.75"/><use xlink:href="#md1b7a1e2cc" x="1238.021" y="103.839" style="fill:#d62728;stroke:#fff;stroke-width:.75"/><use xlink:href="#md1b7a1e2cc" x="1302.098" y="102.827" style="fill:#d62728;stroke:#fff;stroke-width:.75"/><use xlink:href="#md1b7a1e2cc" x="1366.174" y="101.932" style="fill:#d62728;stroke:#fff;stroke-width:.75"/><use xlink:href="#md1b7a1e2cc" x="1430.251" y="101.664" style="fill:#d62728;stroke:#fff;stroke-width:.75"/><use xlink:href="#md1b7a1e2cc" x="1494.327" y="101.137" style="fill:#d62728;stroke:#fff;stroke-width:.75"/></g></g><g id="line2d_21"><path d="m276.873 469.183 64.076-84.38 64.077-54.091 64.076-30.398 64.077-27.767 64.077-14.22 64.076-21.03 64.077-11.018 64.076-7.072 64.077-4.94 64.076-9.633 64.077-6.234 64.076-4.519 64.077-5.048 64.076-5.67 64.077-3.245 64.077-3.577 64.076-3.712 64.077-4.731 64.076-3.102" clip-path="url(#pbe5be41d02)" style="fill:none;stroke:#9467bd;stroke-width:1.5;stroke-linecap:square"/><defs><path id="me7646935d8" d="M0 5A5 5 0 1 0 0-5 5 5 0 0 0 0 5z" style="stroke:#fff;stroke-width:.75"/></defs><g clip-path="url(#pbe5be41d02)"><use xlink:href="#me7646935d8" x="276.873" y="469.183" style="fill:#9467bd;stroke:#fff;stroke-width:.75"/><use xlink:href="#me7646935d8" x="340.949" y="384.803" style="fill:#9467bd;stroke:#fff;stroke-width:.75"/><use xlink:href="#me7646935d8" x="405.026" y="330.712" style="fill:#9467bd;stroke:#fff;stroke-width:.75"/><use xlink:href="#me7646935d8" x="469.102" y="300.314" style="fill:#9467bd;stroke:#fff;stroke-width:.75"/><use xlink:href="#me7646935d8" x="533.179" y="272.547" style="fill:#9467bd;stroke:#fff;stroke-width:.75"/><use xlink:href="#me7646935d8" x="597.256" y="258.328" style="fill:#9467bd;stroke:#fff;stroke-width:.75"/><use xlink:href="#me7646935d8" x="661.332" y="237.298" style="fill:#9467bd;stroke:#fff;stroke-width:.75"/><use xlink:href="#me7646935d8" x="725.409" y="226.279" style="fill:#9467bd;stroke:#fff;stroke-width:.75"/><use xlink:href="#me7646935d8" x="789.485" y="219.207" style="fill:#9467bd;stroke:#fff;stroke-width:.75"/><use xlink:href="#me7646935d8" x="853.562" y="214.267" style="fill:#9467bd;stroke:#fff;stroke-width:.75"/><use xlink:href="#me7646935d8" x="917.638" y="204.634" style="fill:#9467bd;stroke:#fff;stroke-width:.75"/><use xlink:href="#me7646935d8" x="981.715" y="198.4" style="fill:#9467bd;stroke:#fff;stroke-width:.75"/><use xlink:href="#me7646935d8" x="1045.791" y="193.881" style="fill:#9467bd;stroke:#fff;stroke-width:.75"/><use xlink:href="#me7646935d8" x="1109.868" y="188.833" style="fill:#9467bd;stroke:#fff;stroke-width:.75"/><use xlink:href="#me7646935d8" x="1173.944" y="183.163" style="fill:#9467bd;stroke:#fff;stroke-width:.75"/><use xlink:href="#me7646935d8" x="1238.021" y="179.918" style="fill:#9467bd;stroke:#fff;stroke-width:.75"/><use xlink:href="#me7646935d8" x="1302.098" y="176.341" style="fill:#9467bd;stroke:#fff;stroke-width:.75"/><use xlink:href="#me7646935d8" x="1366.174" y="172.629" style="fill:#9467bd;stroke:#fff;stroke-width:.75"/><use xlink:href="#me7646935d8" x="1430.251" y="167.898" style="fill:#9467bd;stroke:#fff;stroke-width:.75"/><use xlink:href="#me7646935d8" x="1494.327" y="164.796" style="fill:#9467bd;stroke:#fff;stroke-width:.75"/></g></g><path id="patch_3" d="M216 512.64V69.12" style="fill:none;stroke:#000;stroke-width:.8;stroke-linejoin:miter;stroke-linecap:square"/><path id="patch_4" d="M1555.2 512.64V69.12" style="fill:none;stroke:#000;stroke-width:.8;stroke-linejoin:miter;stroke-linecap:square"/><path id="patch_5" d="M216 512.64h1339.2" style="fill:none;stroke:#000;stroke-width:.8;stroke-linejoin:miter;stroke-linecap:square"/><path id="patch_6" d="M216 69.12h1339.2" style="fill:none;stroke:#000;stroke-width:.8;stroke-linejoin:miter;stroke-linecap:square"/><g id="legend_1"><path id="patch_7" d="M1263.461 507.64H1548.2q2 0 2-2V348.889q0-2-2-2h-284.739q-2 0-2 2V505.64q0 2 2 2z" style="fill:#fff;opacity:.3;stroke:#ccc;stroke-linejoin:miter"/><g id="text_19" transform="matrix(.22 0 0 -.22 1294.13 367.605)"><defs><path id="DejaVuSans-53" d="M3425 4513v-616q-359 172-678 256-319 85-616 85-515 0-795-200t-280-569q0-310 186-468 186-157 705-254l381-78q706-135 1042-474t336-907q0-679-455-1029Q2797-91 1919-91q-331 0-705 75-373 75-773 222v650q384-215 753-325 369-109 725-109 540 0 834 212 294 213 294 607 0 343-211 537t-692 291l-385 75q-706 140-1022 440-315 300-315 835 0 619 436 975t1201 356q329 0 669-60 341-59 697-177" transform="scale(.01563)"/><path id="DejaVuSans-62" d="M3116 1747q0 634-261 995t-717 361q-457 0-718-361t-261-995 261-995 718-361q456 0 717 361t261 995M1159 2969q182 312 458 463 277 152 661 152 638 0 1036-506 399-506 399-1331T3314 415Q2916-91 2278-91q-384 0-661 152-276 152-458 464V0H581v4863h578z" transform="scale(.01563)"/><path id="DejaVuSans-61" d="M2194 1759q-697 0-966-159t-269-544q0-306 202-486 202-179 548-179 479 0 768 339t289 901v128zm1147 238V0h-575v531q-197-318-491-470T1556-91q-537 0-855 302-317 302-317 808 0 590 395 890 396 300 1180 300h807v57q0 397-261 614t-733 217q-300 0-585-72-284-72-546-216v532q315 122 612 182 297 61 578 61 760 0 1135-394 375-393 375-1193" transform="scale(.01563)"/><path id="DejaVuSans-63" d="M3122 3366v-538q-244 135-489 202t-495 67q-560 0-870-355-309-354-309-995t309-996q310-354 870-354 250 0 495 67t489 202V134Q2881 22 2623-34q-257-57-548-57-791 0-1257 497-465 497-465 1341 0 856 470 1346 471 491 1290 491 265 0 518-55 253-54 491-163" transform="scale(.01563)"/><path id="DejaVuSans-6f" d="M1959 3097q-462 0-731-361t-269-989 267-989q268-361 733-361 460 0 728 362 269 363 269 988 0 622-269 986-268 364-728 364m0 487q750 0 1178-488 429-487 429-1349 0-859-429-1349Q2709-91 1959-91q-753 0-1180 489-426 490-426 1349 0 862 426 1349 427 488 1180 488" transform="scale(.01563)"/><path id="DejaVuSans-67" d="M2906 1791q0 625-258 968-257 344-723 344-462 0-720-344-258-343-258-968 0-622 258-966t720-344q466 0 723 344 258 344 258 966m575-1357q0-893-397-1329-396-436-1215-436-303 0-572 45t-522 139v559q253-137 500-202 247-66 503-66 566 0 847 295t281 892v285q-178-310-456-463T1784 0Q1141 0 747 490 353 981 353 1791q0 812 394 1302 394 491 1037 491 388 0 666-153t456-462v531h575z" transform="scale(.01563)"/></defs><use xlink:href="#DejaVuSans-53"/><use xlink:href="#DejaVuSans-75" transform="translate(63.477)"/><use xlink:href="#DejaVuSans-62" transform="translate(126.855)"/><use xlink:href="#DejaVuSans-73" transform="translate(190.332)"/><use xlink:href="#DejaVuSans-74" transform="translate(242.432)"/><use xlink:href="#DejaVuSans-61" transform="translate(281.64)"/><use xlink:href="#DejaVuSans-6e" transform="translate(342.92)"/><use xlink:href="#DejaVuSans-63" transform="translate(406.299)"/><use xlink:href="#DejaVuSans-65" transform="translate(461.28)"/><use xlink:href="#DejaVuSans-45" transform="translate(554.59)"/><use xlink:href="#DejaVuSans-6e" transform="translate(617.773)"/><use xlink:href="#DejaVuSans-63" transform="translate(681.152)"/><use xlink:href="#DejaVuSans-6f" transform="translate(736.133)"/><use xlink:href="#DejaVuSans-64" transform="translate(797.314)"/><use xlink:href="#DejaVuSans-69" transform="translate(860.791)"/><use xlink:href="#DejaVuSans-6e" transform="translate(888.574)"/><use xlink:href="#DejaVuSans-67" transform="translate(951.953)"/></g><g id="line2d_27"><path d="M1265.461 390.397h20" style="fill:none;stroke:#1f77b4;stroke-width:1.5;stroke-linecap:square"/><use xlink:href="#m8affe69877" x="1275.461" y="390.397" style="fill:#1f77b4;stroke:#fff;stroke-width:.75"/></g><g id="text_20" transform="matrix(.22 0 0 -.22 1293.461 393.897)"><defs><path id="DejaVuSans-46" d="M628 4666h2681v-532H1259V2759h1850v-531H1259V0H628z" transform="scale(.01563)"/><path id="DejaVuSans-50" d="M1259 4147V2394h794q441 0 681 228 241 228 241 650 0 419-241 647-240 228-681 228zm-631 519h1425q785 0 1186-355 402-355 402-1039 0-691-402-1044-401-353-1186-353h-794V0H628z" transform="scale(.01563)"/></defs><use xlink:href="#DejaVuSans-45"/><use xlink:href="#DejaVuSans-43" transform="translate(63.184)"/><use xlink:href="#DejaVuSans-46" transform="translate(133.008)"/><use xlink:href="#DejaVuSans-50" transform="translate(190.527)"/></g><g id="line2d_28"><path d="M1265.461 416.69h20" style="fill:none;stroke:#ff7f0e;stroke-width:1.5;stroke-linecap:square"/><use xlink:href="#m477b7c2994" x="1275.461" y="416.689" style="fill:#ff7f0e;stroke:#fff;stroke-width:.75"/></g><g id="text_21" transform="matrix(.22 0 0 -.22 1293.461 420.19)"><defs><path id="DejaVuSans-4d" d="M628 4666h941l1190-3175 1197 3175h941V0h-616v4097L3078 897h-634L1241 4097V0H628z" transform="scale(.01563)"/><path id="DejaVuSans-4f" d="M2522 4238q-688 0-1093-513-404-512-404-1397 0-881 404-1394 405-512 1093-512 687 0 1089 512 402 513 402 1394 0 885-402 1397-402 513-1089 513m0 512q981 0 1568-658 588-658 588-1764 0-1103-588-1761Q3503-91 2522-91q-984 0-1574 656-589 657-589 1763t589 1764q590 658 1574 658" transform="scale(.01563)"/><path id="DejaVuSans-52" d="M2841 2188q203-69 395-294t386-619L4263 0h-679l-596 1197q-232 469-449 622t-592 153h-688V0H628v4666h1425q800 0 1194-335 394-334 394-1009 0-441-205-732-205-290-595-402M1259 4147V2491h794q456 0 689 211t233 620-233 617-689 208z" transform="scale(.01563)"/><path id="DejaVuSans-44" d="M1259 4147V519h763q966 0 1414 437 448 438 448 1382 0 937-448 1373t-1414 436zm-631 519h1297q1356 0 1990-564 635-564 635-1764 0-1207-638-1773Q3275 0 1925 0H628z" transform="scale(.01563)"/></defs><use xlink:href="#DejaVuSans-4d"/><use xlink:href="#DejaVuSans-4f" transform="translate(86.28)"/><use xlink:href="#DejaVuSans-52" transform="translate(164.99)"/><use xlink:href="#DejaVuSans-44" transform="translate(234.473)"/><use xlink:href="#DejaVuSans-52" transform="translate(311.475)"/><use xlink:href="#DejaVuSans-45" transform="translate(380.957)"/><use xlink:href="#DejaVuSans-44" transform="translate(444.14)"/></g><g id="line2d_29"><path d="M1265.461 442.98h20" style="fill:none;stroke:#2ca02c;stroke-width:1.5;stroke-linecap:square"/><use xlink:href="#m0a12e262e6" x="1275.461" y="442.981" style="fill:#2ca02c;stroke:#fff;stroke-width:.75"/></g><g id="text_22" transform="matrix(.22 0 0 -.22 1293.461 446.48)"><defs><path id="DejaVuSans-48" d="M628 4666h631V2753h2294v1913h631V0h-631v2222H1259V0H628z" transform="scale(.01563)"/></defs><use xlink:href="#DejaVuSans-4f"/><use xlink:href="#DejaVuSans-6e" transform="translate(78.71)"/><use xlink:href="#DejaVuSans-65" transform="translate(142.09)"/><use xlink:href="#DejaVuSans-48" transform="translate(203.613)"/><use xlink:href="#DejaVuSans-6f" transform="translate(278.809)"/><use xlink:href="#DejaVuSans-74" transform="translate(339.99)"/></g><g id="line2d_30"><path d="M1265.461 469.273h20" style="fill:none;stroke:#d62728;stroke-width:1.5;stroke-linecap:square"/><use xlink:href="#md1b7a1e2cc" x="1275.461" y="469.273" style="fill:#d62728;stroke:#fff;stroke-width:.75"/></g><g id="text_23" transform="matrix(.22 0 0 -.22 1293.461 472.773)"><defs><path id="DejaVuSans-4b" d="M628 4666h631V2694l2094 1972h813L1850 2491 4331 0h-831L1259 2247V0H628z" transform="scale(.01563)"/><path id="DejaVuSans-49" d="M628 4666h631V0H628z" transform="scale(.01563)"/><path id="DejaVuSans-54" d="M-19 4666h3947v-532H2272V0h-634v4134H-19z" transform="scale(.01563)"/></defs><use xlink:href="#DejaVuSans-52"/><use xlink:href="#DejaVuSans-44" transform="translate(69.482)"/><use xlink:href="#DejaVuSans-4b" transform="translate(146.484)"/><use xlink:href="#DejaVuSans-49" transform="translate(212.06)"/><use xlink:href="#DejaVuSans-54" transform="translate(241.553)"/><use xlink:href="#DejaVuSans-32" transform="translate(302.637)"/><use xlink:href="#DejaVuSans-44" transform="translate(366.26)"/><use xlink:href="#DejaVuSans-44" transform="translate(443.262)"/><use xlink:href="#DejaVuSans-45" transform="translate(520.264)"/><use xlink:href="#DejaVuSans-53" transform="translate(583.447)"/><use xlink:href="#DejaVuSans-43" transform="translate(646.924)"/><use xlink:href="#DejaVuSans-52" transform="translate(716.748)"/><use xlink:href="#DejaVuSans-49" transform="translate(786.23)"/><use xlink:href="#DejaVuSans-50" transform="translate(815.723)"/><use xlink:href="#DejaVuSans-54" transform="translate(876.025)"/><use xlink:href="#DejaVuSans-4f" transform="translate(937.11)"/><use xlink:href="#DejaVuSans-52" transform="translate(1015.82)"/><use xlink:href="#DejaVuSans-53" transform="translate(1085.303)"/></g><g id="line2d_31"><path d="M1265.461 495.565h20" style="fill:none;stroke:#9467bd;stroke-width:1.5;stroke-linecap:square"/><use xlink:href="#me7646935d8" x="1275.461" y="495.565" style="fill:#9467bd;stroke:#fff;stroke-width:.75"/></g><g id="text_24" transform="matrix(.22 0 0 -.22 1293.461 499.065)"><use xlink:href="#DejaVuSans-52"/><use xlink:href="#DejaVuSans-61" transform="translate(67.232)"/><use xlink:href="#DejaVuSans-6e" transform="translate(128.512)"/><use xlink:href="#DejaVuSans-64" transform="translate(191.89)"/><use xlink:href="#DejaVuSans-6f" transform="translate(255.367)"/><use xlink:href="#DejaVuSans-6d" transform="translate(316.549)"/><use xlink:href="#DejaVuSans-42" transform="translate(445.748)"/><use xlink:href="#DejaVuSans-61" transform="translate(514.352)"/><use xlink:href="#DejaVuSans-73" transform="translate(575.63)"/><use xlink:href="#DejaVuSans-65" transform="translate(627.73)"/><use xlink:href="#DejaVuSans-6c" transform="translate(689.254)"/><use xlink:href="#DejaVuSans-69" transform="translate(717.037)"/><use xlink:href="#DejaVuSans-6e" transform="translate(744.82)"/><use xlink:href="#DejaVuSans-65" transform="translate(808.2)"/></g></g></g></g><defs><clipPath id="pbe5be41d02"><path d="M216 69.12h1339.2v443.52H216z"/></clipPath></defs></svg>