<svg xmlns="http://www.w3.org/2000/svg" xmlns:xlink="http://www.w3.org/1999/xlink" width="2304" height="768" viewBox="0 0 1728 576"><defs><style>*{stroke-linejoin:round;stroke-linecap:butt}</style></defs><g id="figure_1"><path id="patch_1" d="M0 576h1728V0H0z" style="fill:none"/><path id="patch_2" d="M663.84 512.64h443.52V69.12H663.84z" style="fill:none"/><g id="pane3d_1"><path id="patch_3" d="m822.643 359.892 240.414 52.372 7.188-270.769-250.335-39.704" style="fill:#f2f2f2;opacity:.5;stroke:#f2f2f2;stroke-linejoin:miter"/></g><g id="pane3d_2"><path id="patch_4" d="m822.643 359.892-104.55 64.252-7.363-273.618 109.18-48.735" style="fill:#e6e6e6;opacity:.5;stroke:#e6e6e6;stroke-linejoin:miter"/></g><g id="pane3d_3"><path id="patch_5" d="m822.643 359.892-104.55 64.252 251.488 59.939 93.476-71.82" style="fill:#ececec;opacity:.5;stroke:#ececec;stroke-linejoin:miter"/></g><g id="grid3d_1"><g id="Line3DCollection_1"><path d="m1057.484 416.546-241.097-52.809-2.993-259.037" style="fill:none;stroke:#b0b0b0;stroke-width:.8"/><path d="m1031.384 436.599-244.255-54.882-4.24-263.4" style="fill:none;stroke:#b0b0b0;stroke-width:.8"/><path d="M1004.22 457.469 756.746 400.39l-5.583-267.912" style="fill:none;stroke:#b0b0b0;stroke-width:.8"/><path d="m975.927 479.206-250.76-59.41-7.032-272.576" style="fill:none;stroke:#b0b0b0;stroke-width:.8"/></g></g><g id="grid3d_2"><g id="Line3DCollection_2"><path d="m819.91 101.791 2.733 258.101-104.55 64.252" style="fill:none;stroke:#b0b0b0;stroke-width:.8"/><path d="m867.772 109.382.918 260.541-102.575 65.666" style="fill:none;stroke:#b0b0b0;stroke-width:.8"/><path d="m916.7 117.142-.978 263.027-100.487 67.127" style="fill:none;stroke:#b0b0b0;stroke-width:.8"/><path d="m966.729 125.077-2.958 265.559-98.278 68.639" style="fill:none;stroke:#b0b0b0;stroke-width:.8"/><path d="m1017.897 133.193-5.025 268.138-95.945 70.202" style="fill:none;stroke:#b0b0b0;stroke-width:.8"/><path d="m1070.244 141.495-7.187 270.769-93.476 71.819" style="fill:none;stroke:#b0b0b0;stroke-width:.8"/></g></g><g id="grid3d_3"><g id="Line3DCollection_3"><path d="m717.951 418.89 104.64-63.967 240.604 52.14" style="fill:none;stroke:#b0b0b0;stroke-width:.8"/><path d="m716.75 374.256 105.394-61.526 242.224 50.146" style="fill:none;stroke:#b0b0b0;stroke-width:.8"/><path d="m715.533 329 106.158-59.013 243.866 48.094" style="fill:none;stroke:#b0b0b0;stroke-width:.8"/><path d="m714.298 283.11 106.934-56.427 245.53 45.982" style="fill:none;stroke:#b0b0b0;stroke-width:.8"/><path d="m713.045 236.572 107.723-53.764 247.217 43.808" style="fill:none;stroke:#b0b0b0;stroke-width:.8"/><path d="m711.775 189.371 108.522-51.022 248.928 41.57" style="fill:none;stroke:#b0b0b0;stroke-width:.8"/></g></g><g id="axis3d_1"><path id="line2d_1" d="m1063.057 412.264-93.476 71.819" style="fill:none;stroke:#000;stroke-width:.8;stroke-linecap:square"/><g id="xtick_1"><path id="line2d_2" d="m1055.449 416.1 6.11 1.339" style="fill:none;stroke:#000;stroke-width:.8;stroke-linecap:square"/><g id="text_1" style="fill:#fff" transform="matrix(.22 0 0 -.22 1062.83 449.034)"><defs><path id="DejaVuSans-31" d="M794 531h1031v3560L703 3866v575l1116 225h631V531h1031V0H794z" transform="scale(.01563)"/></defs><use xlink:href="#DejaVuSans-31"/></g></g><g id="xtick_2"><path id="line2d_3" d="m1029.32 436.135 6.197 1.392" style="fill:none;stroke:#000;stroke-width:.8;stroke-linecap:square"/><g id="text_2" style="fill:#fff" transform="matrix(.22 0 0 -.22 1036.956 469.417)"><defs><path id="DejaVuSans-32" d="M1228 531h2203V0H469v531q359 372 979 998 621 627 780 809 303 340 423 576 121 236 121 464 0 372-261 606-261 235-680 235-297 0-627-103-329-103-704-313v638q381 153 712 231 332 78 607 78 725 0 1156-363 431-362 431-968 0-288-108-546-107-257-392-607-78-91-497-524-418-433-1181-1211" transform="scale(.01563)"/></defs><use xlink:href="#DejaVuSans-32"/></g></g><g id="xtick_3"><path id="line2d_4" d="m1002.127 456.986 6.286 1.45" style="fill:none;stroke:#000;stroke-width:.8;stroke-linecap:square"/><g id="text_3" style="fill:#fff" transform="matrix(.22 0 0 -.22 1010.028 490.631)"><defs><path id="DejaVuSans-33" d="M2597 2516q453-97 707-404 255-306 255-756 0-690-475-1069Q2609-91 1734-91q-293 0-604 58T488 141v609q262-153 574-231 313-78 654-78 593 0 904 234t311 681q0 413-289 645-289 233-804 233h-544v519h569q465 0 712 186t247 536q0 359-255 551-254 193-729 193-260 0-557-57-297-56-653-174v562q360 100 674 150t592 50q719 0 1137-327 419-326 419-882 0-388-222-655t-631-370" transform="scale(.01563)"/></defs><use xlink:href="#DejaVuSans-33"/></g></g><g id="xtick_4"><path id="line2d_5" d="m973.804 478.703 6.376 1.511" style="fill:none;stroke:#000;stroke-width:.8;stroke-linecap:square"/><g id="text_4" style="fill:#fff" transform="matrix(.22 0 0 -.22 981.979 512.729)"><defs><path id="DejaVuSans-34" d="M2419 4116 825 1625h1594zm-166 550h794V1625h666v-525h-666V0h-628v1100H313v609z" transform="scale(.01563)"/></defs><use xlink:href="#DejaVuSans-34"/></g></g><g id="text_5" style="fill:#fff" transform="rotate(142.465 423.525 444.14)scale(-.22 .22)"><defs><path id="DejaVuSans-49" d="M628 4666h631V0H628z" transform="scale(.01563)"/><path id="DejaVuSans-74" d="M1172 4494v-994h1184v-447H1172V1153q0-428 117-550t477-122h590V0h-590q-666 0-919 248-253 249-253 905v1900H172v447h422v994z" transform="scale(.01563)"/><path id="DejaVuSans-65" d="M3597 1894v-281H953q38-594 358-905t892-311q331 0 642 81t618 244V178Q3153 47 2828-22t-659-69q-838 0-1327 487-489 488-489 1320 0 859 464 1363 464 505 1252 505 706 0 1117-455 411-454 411-1235m-575 169q-6 471-264 752-258 282-683 282-481 0-770-272t-333-766z" transform="scale(.01563)"/><path id="DejaVuSans-72" d="M2631 2963q-97 56-211 82-114 27-251 27-488 0-749-317t-261-911V0H581v3500h578v-544q182 319 472 473 291 155 707 155 59 0 131-8 72-7 159-23z" transform="scale(.01563)"/><path id="DejaVuSans-61" d="M2194 1759q-697 0-966-159t-269-544q0-306 202-486 202-179 548-179 479 0 768 339t289 901v128zm1147 238V0h-575v531q-197-318-491-470T1556-91q-537 0-855 302-317 302-317 808 0 590 395 890 396 300 1180 300h807v57q0 397-261 614t-733 217q-300 0-585-72-284-72-546-216v532q315 122 612 182 297 61 578 61 760 0 1135-394 375-393 375-1193" transform="scale(.01563)"/><path id="DejaVuSans-69" d="M603 3500h575V0H603zm0 1363h575v-729H603z" transform="scale(.01563)"/><path id="DejaVuSans-6f" d="M1959 3097q-462 0-731-361t-269-989 267-989q268-361 733-361 460 0 728 362 269 363 269 988 0 622-269 986-268 364-728 364m0 487q750 0 1178-488 429-487 429-1349 0-859-429-1349Q2709-91 1959-91q-753 0-1180 489-426 490-426 1349 0 862 426 1349 427 488 1180 488" transform="scale(.01563)"/><path id="DejaVuSans-6e" d="M3513 2113V0h-575v2094q0 497-194 743-194 247-581 247-466 0-735-297-269-296-269-809V0H581v3500h578v-544q207 316 486 472 280 156 646 156 603 0 912-373 310-373 310-1098" transform="scale(.01563)"/></defs><use xlink:href="#DejaVuSans-49"/><use xlink:href="#DejaVuSans-74" transform="translate(29.492)"/><use xlink:href="#DejaVuSans-65" transform="translate(68.701)"/><use xlink:href="#DejaVuSans-72" transform="translate(130.225)"/><use xlink:href="#DejaVuSans-61" transform="translate(171.338)"/><use xlink:href="#DejaVuSans-74" transform="translate(232.617)"/><use xlink:href="#DejaVuSans-69" transform="translate(271.826)"/><use xlink:href="#DejaVuSans-6f" transform="translate(299.61)"/><use xlink:href="#DejaVuSans-6e" transform="translate(360.791)"/></g></g><g id="axis3d_2"><path id="line2d_6" d="m718.093 424.144 251.488 59.939" style="fill:none;stroke:#000;stroke-width:.8;stroke-linecap:square"/><g id="xtick_5"><path id="line2d_7" d="m718.985 423.595-2.68 1.648" style="fill:none;stroke:#000;stroke-width:.8;stroke-linecap:square"/><g id="text_6" style="fill:#fff" transform="matrix(.22 0 0 -.22 695.386 457.365)"><defs><path id="DejaVuSans-30" d="M2034 4250q-487 0-733-480-245-479-245-1442 0-959 245-1439 246-480 733-480 491 0 736 480 246 480 246 1439 0 963-246 1442-245 480-736 480m0 500q785 0 1199-621 414-620 414-1801 0-1178-414-1799Q2819-91 2034-91q-784 0-1198 620-414 621-414 1799 0 1181 414 1801 414 621 1198 621" transform="scale(.01563)"/><path id="DejaVuSans-2e" d="M684 794h660V0H684z" transform="scale(.01563)"/></defs><use xlink:href="#DejaVuSans-30"/><use xlink:href="#DejaVuSans-2e" transform="translate(63.623)"/><use xlink:href="#DejaVuSans-30" transform="translate(95.41)"/></g></g><g id="xtick_6"><path id="line2d_8" d="m766.991 435.028-2.632 1.685" style="fill:none;stroke:#000;stroke-width:.8;stroke-linecap:square"/><g id="text_7" style="fill:#fff" transform="matrix(.22 0 0 -.22 743.414 469.013)"><use xlink:href="#DejaVuSans-30"/><use xlink:href="#DejaVuSans-2e" transform="translate(63.623)"/><use xlink:href="#DejaVuSans-31" transform="translate(95.41)"/></g></g><g id="xtick_7"><path id="line2d_9" d="m816.094 446.722-2.58 1.724" style="fill:none;stroke:#000;stroke-width:.8;stroke-linecap:square"/><g id="text_8" style="fill:#fff" transform="matrix(.22 0 0 -.22 792.543 480.928)"><use xlink:href="#DejaVuSans-30"/><use xlink:href="#DejaVuSans-2e" transform="translate(63.623)"/><use xlink:href="#DejaVuSans-32" transform="translate(95.41)"/></g></g><g id="xtick_8"><path id="line2d_10" d="m866.334 458.687-2.526 1.764" style="fill:none;stroke:#000;stroke-width:.8;stroke-linecap:square"/><g id="text_9" style="fill:#fff" transform="matrix(.22 0 0 -.22 842.81 493.12)"><use xlink:href="#DejaVuSans-30"/><use xlink:href="#DejaVuSans-2e" transform="translate(63.623)"/><use xlink:href="#DejaVuSans-33" transform="translate(95.41)"/></g></g><g id="xtick_9"><path id="line2d_11" d="m917.749 470.932-2.468 1.806" style="fill:none;stroke:#000;stroke-width:.8;stroke-linecap:square"/><g id="text_10" style="fill:#fff" transform="matrix(.22 0 0 -.22 894.257 505.596)"><use xlink:href="#DejaVuSans-30"/><use xlink:href="#DejaVuSans-2e" transform="translate(63.623)"/><use xlink:href="#DejaVuSans-34" transform="translate(95.41)"/></g></g><g id="xtick_10"><path id="line2d_12" d="m970.382 483.467-2.406 1.849" style="fill:none;stroke:#000;stroke-width:.8;stroke-linecap:square"/><g id="text_11" style="fill:#fff" transform="matrix(.22 0 0 -.22 946.924 518.369)"><defs><path id="DejaVuSans-35" d="M691 4666h2478v-532H1269V2991q137 47 274 70 138 23 276 23 781 0 1237-428 457-428 457-1159 0-753-469-1171Q2575-91 1722-91q-294 0-599 50Q819 9 494 109v635q281-153 581-228t634-75q541 0 856 284 316 284 316 772 0 487-316 771-315 285-856 285-253 0-505-56-251-56-513-175z" transform="scale(.01563)"/></defs><use xlink:href="#DejaVuSans-30"/><use xlink:href="#DejaVuSans-2e" transform="translate(63.623)"/><use xlink:href="#DejaVuSans-35" transform="translate(95.41)"/></g></g><g id="text_12" style="fill:#fff" transform="matrix(.22 0 0 -.22 811.76 520.222)"><defs><path id="DejaVuSans-50" d="M1259 4147V2394h794q441 0 681 228 241 228 241 650 0 419-241 647-240 228-681 228zm-631 519h1425q785 0 1186-355 402-355 402-1039 0-691-402-1044-401-353-1186-353h-794V0H628z" transform="scale(.01563)"/></defs><use xlink:href="#DejaVuSans-50"/><use xlink:href="#DejaVuSans-49" transform="translate(60.303)"/></g></g><g id="axis3d_3"><path id="line2d_13" d="m718.093 424.144-7.363-273.618" style="fill:none;stroke:#000;stroke-width:.8;stroke-linecap:square"/><g id="xtick_11"><path id="line2d_14" d="m718.845 418.344-2.683 1.64" style="fill:none;stroke:#000;stroke-width:.8;stroke-linecap:square"/><use xlink:href="#DejaVuSans-30" id="text_13" style="fill:#fff" transform="matrix(.22 0 0 -.22 693.55 436.203)"/></g><g id="xtick_12"><path id="line2d_15" d="m717.65 373.73-2.703 1.579" style="fill:none;stroke:#000;stroke-width:.8;stroke-linecap:square"/><use xlink:href="#DejaVuSans-32" id="text_14" style="fill:#fff" transform="matrix(.22 0 0 -.22 692.228 391.546)"/></g><g id="xtick_13"><path id="line2d_16" d="m716.44 328.496-2.725 1.515" style="fill:none;stroke:#000;stroke-width:.8;stroke-linecap:square"/><use xlink:href="#DejaVuSans-34" id="text_15" style="fill:#fff" transform="matrix(.22 0 0 -.22 690.888 346.268)"/></g><g id="xtick_14"><path id="line2d_17" d="m715.212 282.628-2.746 1.449" style="fill:none;stroke:#000;stroke-width:.8;stroke-linecap:square"/><g id="text_16" style="fill:#fff" transform="matrix(.22 0 0 -.22 689.528 300.354)"><defs><path id="DejaVuSans-36" d="M2113 2584q-425 0-674-291-248-290-248-796 0-503 248-796 249-292 674-292t673 292q248 293 248 796 0 506-248 796-248 291-673 291m1253 1979v-575q-238 112-480 171-242 60-480 60-625 0-955-422-329-422-376-1275 184 272 462 417 279 145 613 145 703 0 1111-427 408-426 408-1160 0-719-425-1154Q2819-91 2113-91q-810 0-1238 620-428 621-428 1799 0 1106 525 1764t1409 658q238 0 480-47t505-140" transform="scale(.01563)"/></defs><use xlink:href="#DejaVuSans-36"/></g></g><g id="xtick_15"><path id="line2d_18" d="m713.967 236.112-2.768 1.381" style="fill:none;stroke:#000;stroke-width:.8;stroke-linecap:square"/><g id="text_17" style="fill:#fff" transform="matrix(.22 0 0 -.22 688.15 253.79)"><defs><path id="DejaVuSans-38" d="M2034 2216q-450 0-708-241-257-241-257-662 0-422 257-663 258-241 708-241t709 242q260 243 260 662 0 421-258 662-257 241-711 241m-631 268q-406 100-633 378-226 279-226 679 0 559 398 884 399 325 1092 325 697 0 1094-325t397-884q0-400-227-679-226-278-629-378 456-106 710-416 255-309 255-755 0-679-414-1042Q2806-91 2034-91q-771 0-1186 362-414 363-414 1042 0 446 256 755 257 310 713 416m-231 997q0-362 226-565 227-203 636-203 407 0 636 203 230 203 230 565 0 363-230 566-229 203-636 203-409 0-636-203-226-203-226-566" transform="scale(.01563)"/></defs><use xlink:href="#DejaVuSans-38"/></g></g><g id="xtick_16"><path id="line2d_19" d="m712.704 188.934-2.79 1.312" style="fill:none;stroke:#000;stroke-width:.8;stroke-linecap:square"/><g id="text_18" style="fill:#fff" transform="matrix(.22 0 0 -.22 679.752 206.564)"><use xlink:href="#DejaVuSans-31"/><use xlink:href="#DejaVuSans-30" transform="translate(63.623)"/></g></g><g id="text_19" style="fill:#fff" transform="rotate(88.459 193.324 455.95)scale(.22 -.22)"><defs><path id="DejaVuSans-44" d="M1259 4147V519h763q966 0 1414 437 448 438 448 1382 0 937-448 1373t-1414 436zm-631 519h1297q1356 0 1990-564 635-564 635-1764 0-1207-638-1773Q3275 0 1925 0H628z" transform="scale(.01563)"/><path id="DejaVuSans-73" d="M2834 3397v-544q-243 125-506 187-262 63-544 63-428 0-642-131t-214-394q0-200 153-314t616-217l197-44q612-131 870-370t258-667q0-488-386-773Q2250-91 1575-91q-281 0-586 55T347 128v594q319-166 628-249 309-82 613-82 406 0 624 139 219 139 219 392 0 234-158 359-157 125-692 241l-200 47q-534 112-772 345-237 233-237 639 0 494 350 762 350 269 994 269 318 0 599-47 282-46 519-140" transform="scale(.01563)"/><path id="DejaVuSans-79" d="M2059-325q-243-625-475-815-231-191-618-191H506v481h338q237 0 368 113 132 112 291 531l103 262L191 3500h609L1894 763l1094 2737h609z" transform="scale(.01563)"/></defs><use xlink:href="#DejaVuSans-44"/><use xlink:href="#DejaVuSans-65" transform="translate(77.002)"/><use xlink:href="#DejaVuSans-6e" transform="translate(138.525)"/><use xlink:href="#DejaVuSans-73" transform="translate(201.904)"/><use xlink:href="#DejaVuSans-69" transform="translate(254.004)"/><use xlink:href="#DejaVuSans-74" transform="translate(281.787)"/><use xlink:href="#DejaVuSans-79" transform="translate(320.996)"/></g></g><g id="axes_1"><path id="line2d_20" d="m816.28 354.426 4.588.972 6.901 1.514 2.765.386 2.305.126 2.306-.102 2.306-.366 2.307-.646 2.309-.925 2.31-1.18 2.775-1.685 4.635-3.142 4.186-2.729 2.799-1.564 2.805-1.296 2.812-1.049 9.41-3.236 2.36-1.242 1.891-1.245 1.893-1.501 1.894-1.783 1.898-2.082 1.9-2.393 1.903-2.716 1.907-3.054 1.91-3.41 1.914-3.789 2.399-5.314 2.406-6.01 2.415-6.75 2.424-7.51 2.434-8.23 3.425-12.492 6.91-25.663 1.985-6.547 1.988-5.753 1.49-3.646 1.492-2.966.993-1.557.992-1.196.991-.816.99-.422.989-.017.986.394.985.807.982 1.217.98 1.62.978 2.014 1.462 3.72 1.456 4.499 1.45 5.194 1.926 7.837 2.395 10.895 3.811 18.725 4.273 20.784 2.374 10.623 2.378 9.647 1.908 6.927 1.913 6.202 1.918 5.493 1.924 4.828 1.93 4.226 1.936 3.704 1.94 3.267 2.43 3.601 2.437 3.215 3.416 4.115 9.291 10.607 7.837 8.806 3.928 4.04 2.953 2.746 2.96 2.453 2.968 2.143 2.976 1.837 2.984 1.552 2.992 1.298 3 1.077 3.509 1.022 4.022.91 4.034.678 4.552.535 5.582.41 11.212.75 4.086.549 3.064.585h0" clip-path="url(#p1f04d1a76f)" style="fill:none;stroke:#440154;stroke-width:1.5;stroke-linecap:square"/><path id="line2d_21" d="m786.51 343.268 7.742-11.341 3.21-4.282 2.765-3.355 2.776-3.05 3.251-3.217 4.665-4.236 4.212-3.915 2.813-2.93 2.346-2.752 2.347-3.094 2.349-3.464 2.82-4.625 3.298-5.918 7.102-13.022 2.384-3.793 1.915-2.593 1.44-1.616 1.445-1.285 1.45-.914.967-.387.97-.197.972-.001.974.202.975.41.977.62.979.834 1.47 1.649 1.473 2.12 1.476 2.575 1.478 3.008 1.972 4.633 1.975 5.26 2.47 7.298 2.963 9.517 10.831 35.73 2.942 8.51 2.45 6.38 2.446 5.675 1.956 4.02 1.956 3.566 1.956 3.129 1.956 2.719 1.957 2.343 1.958 2.008 1.96 1.715 2.45 1.801 2.453 1.502 2.948 1.522 4.428 1.979 6.902 3.053 3.952 1.998 3.955 2.266 3.96 2.53 4.954 3.455 13.411 9.555 3.988 2.5 3.995 2.234 4.004 1.958 4.013 1.693 4.022 1.463 4.535 1.419 5.558 1.487 6.083 1.393 6.611 1.283 6.635 1.051 6.66.828 19.073 2.18 4.658.87 1.036.224h0" clip-path="url(#p1f04d1a76f)" style="fill:none;stroke:#3b528b;stroke-width:1.5;stroke-linecap:square"/><path id="line2d_22" d="m752.105 177.721 1.224-10.894 1.26-9.358 1.303-7.58.892-3.967.912-3.04.933-2.077.474-.669.48-.42.484-.17.489.081.494.332.5.58.503.829 1.022 2.387 1.04 3.337 1.056 4.244 1.071 5.102 1.633 9.126 1.658 10.683 2.24 16.209 2.83 22.476 10.657 87.178 2.713 19.22 2.134 13.6 2.104 11.96 2.074 10.347 2.048 8.82 1.52 5.688 1.51 4.962 1.498 4.304 1.49 3.715 1.482 3.193 1.475 2.737 1.47 2.34 1.466 1.996 1.463 1.7 1.945 1.879 1.942 1.506 1.94 1.198 1.937.937 1.937.714 2.42.628 2.42.384 2.906.216 4.364.059 4.374.111 2.924.306 2.44.474 2.447.705 2.45.94 2.945 1.409 3.442 1.939 12.823 7.563 3.46 1.648 3.464 1.42 3.965 1.386 4.964 1.469 6.47 1.66 12.996 3.045 58.926 13.456 8.253 1.677 5.695.945 5.194.633 5.21.398 15.187.93 3.677.594 1.576.335h0" clip-path="url(#p1f04d1a76f)" style="fill:none;stroke:#21918c;stroke-width:1.5;stroke-linecap:square"/><path id="line2d_23" d="m719.849 213.647 1.224-9.272 1.26-7.99 1.303-6.546.892-3.494.912-2.762.932-2.009.951-1.24.484-.33.488-.138.493.057.498.248.502.438.507.627 1.028 1.808 1.044 2.524 1.061 3.208 1.075 3.853 1.638 6.89 1.663 8.07 2.248 12.278 2.843 17.13 4.572 29.422 5.102 32.612 3.345 19.908 2.745 14.998 2.705 13.419 2.137 9.597 2.115 8.633 2.094 7.737 2.077 6.921 2.06 6.19 2.048 5.542 2.036 4.967 2.026 4.456 2.017 3.998 2.01 3.583 2.003 3.202 1.998 2.849 1.993 2.517 1.988 2.205 1.985 1.913 1.981 1.64 1.98 1.386 1.976 1.158 2.468 1.167 2.468.908 2.96.839 4.446.977 5.942 1.31 3.972 1.124 3.983 1.39 4.49 1.818 12.52 5.24 5.023 1.777 5.536 1.697 6.559 1.762 11.141 2.72 51.884 12.228 13.556 3.062 6.81 1.328 5.256.814 4.743.528 5.285.368 12.21.725 3.727.516 3.198.648h0" clip-path="url(#p1f04d1a76f)" style="fill:none;stroke:#5ec962;stroke-width:1.5;stroke-linecap:square"/><g id="Poly3DCollection_1"><defs><path id="mbd4404695e" d="m816.33-217.25-.05-4.324.458.087.458.089.459.091.458.095.46.097.458.099.46.1.458.104.46.104.459.106.46.106.459.108.46.108.46.107.46.108.46.107.46.106.46.105.46.103.46.1.46.098.46.095.461.092.46.088.462.083.46.079.46.073.462.068.46.062.461.056.461.048.461.042.461.033.461.026.461.017.461.008h.461l.461-.011.462-.02.46-.03.462-.041.461-.051.461-.062.462-.073.46-.084.462-.096.462-.106.461-.118.461-.13.462-.14.461-.152.462-.163.462-.175.461-.185.462-.196.462-.207.462-.216.462-.227.462-.236.462-.246.462-.254.462-.263.462-.27.463-.279.462-.285.463-.29.463-.298.463-.302.463-.306.463-.31.463-.314.464-.316.463-.317.464-.32.464-.319.464-.32.464-.318.464-.317.465-.315.465-.312.465-.309.465-.305.465-.3.465-.296.466-.29.466-.285.466-.278.466-.271.466-.265.467-.257.467-.25.467-.243.467-.235.467-.227.468-.22.467-.212.468-.205.468-.197.469-.19.468-.184.469-.177.468-.171.47-.166.468-.16.47-.157.469-.152.47-.15.469-.146.47-.145.47-.143.47-.143.47-.144.47-.145.47-.147.472-.15.47-.153.471-.158.471-.164.471-.17.471-.176.472-.185.471-.193.472-.203.471-.213.472-.224.472-.235.472-.248.472-.26.473-.275.472-.289.473-.303.472-.318.473-.335.473-.35.473-.367.473-.383.473-.401.474-.419.474-.437.473-.454.474-.473.474-.492.475-.511.474-.53.475-.549.474-.568.475-.589.476-.608.475-.628.475-.648.476-.668.476-.69.476-.71.476-.731.477-.752.477-.775.477-.796.477-.818.477-.84.478-.864.478-.887.478-.911.478-.935.48-.96.478-.984.48-1.01.479-1.036.48-1.062.48-1.09.48-1.116.48-1.144.482-1.173.48-1.201.482-1.231.482-1.26.483-1.29.482-1.32.483-1.35.483-1.38.484-1.412.484-1.441.485-1.472.484-1.503.485-1.532.486-1.561.486-1.591.486-1.62.487-1.646.487-1.673.488-1.7.488-1.723.489-1.746.488-1.769.49-1.788.49-1.807.49-1.822.49-1.837.491-1.849.492-1.858.492-1.865.492-1.87.493-1.87.493-1.868.493-1.864.494-1.856.494-1.843.495-1.83.495-1.81.495-1.787.495-1.761.496-1.732.496-1.697.496-1.66.496-1.618.497-1.572.497-1.522.497-1.47.497-1.41.497-1.351.497-1.285.497-1.217.497-1.144.497-1.069.497-.99.497-.907.496-.823.497-.734.496-.645.496-.551.496-.457.495-.359.496-.26.494-.162.495-.06.494.043.493.146.493.248.493.352.492.455.491.558.491.66.49.76.49.86.49.958.488 1.055.488 1.148.487 1.241.487 1.33.486 1.418.485 1.5.485 1.582.484 1.659.484 1.732.482 1.803.483 1.87.481 1.932.482 1.99.48 2.045.48 2.095.48 2.142.479 2.183.478 2.22.478 2.255.478 2.283.477 2.307.477 2.329.476 2.344.476 2.357.476 2.366.476 2.369.475 2.37.475 2.367.475 2.36.475 2.35.475 2.336.474 2.319.475 2.3.474 2.276.475 2.252.475 2.224.474 2.193.475 2.161.475 2.127.475 2.09.475 2.052.475 2.013.476 1.972.475 1.93.476 1.888.476 1.844.477 1.8.477 1.754.477 1.71.477 1.663.478 1.618.478 1.573.478 1.528.479 1.483.479 1.439.48 1.394.48 1.352.48 1.308.48 1.267.48 1.227.482 1.186.481 1.148.482 1.11.483 1.074.482 1.038.483 1.004.484.972.483.94.484.91.485.882.484.855.485.828.485.804.486.78.485.759.486.738.487.719.486.7.487.685.486.67.488.654.487.642.487.63.488.62.487.609.488.6.488.593.488.586.489.58.488.575.488.57.489.567.488.564.49.56.488.56.489.557.489.557.488.555.49.556.488.555.49.555.488.556.49.556.489.557.489.558.489.558.49.558.488.56.49.56.489.56.49.56.489.56.49.56.489.559.49.558.489.558.49.556.49.555.489.553.49.55.49.548.49.545.49.541.49.538.49.534.49.53.491.524.491.52.49.515.492.509.49.502.492.497.492.49.491.484.492.476.492.47.492.46.492.455.492.446.493.438.493.43.493.421.493.413.494.405.493.396.494.388.494.378.494.37.495.362.495.353.495.344.495.336.495.327.496.319.496.31.496.302.496.294.497.285.497.278.497.27.497.262.497.255.498.247.498.24.498.233.498.227.499.219.499.213.499.206.499.2.5.194.5.188.499.182.5.176.5.171.5.166.501.16.501.156.501.15.502.146.501.141.502.137.502.132.502.128.502.123.503.12.502.115.503.111.503.108.503.104.504.1.503.097.504.093.504.09.504.086.505.083.504.08.505.077.505.073.505.07.505.068.505.065.506.062.506.059.506.056.506.054.506.052.507.049.506.046.507.045.507.042.508.04.507.04.507.036.508.035.508.033.508.033.508.03.508.03.509.03.508.028.51.027.508.027.509.027.509.027.51.027.509.028.51.028.509.028.51.03.51.03.509.032.51.034.51.035.51.037.51.04.51.041.511.044.51.047.51.05.511.052.51.056.511.06.511.062.51.067.511.07.511.074.51.079.512.082.51.087.511.09.51.096.512.1.51.104.511.108-.112 4.374z" style="stroke:#440154;stroke-opacity:.9"/></defs><g clip-path="url(#p1f04d1a76f)"><use xlink:href="#mbd4404695e" y="576" style="fill:#440154;fill-opacity:.9;stroke:#440154;stroke-opacity:.9"/></g></g><g id="Poly3DCollection_2"><defs><path id="md2c8da428f" d="m787.048-199.35-.537-33.382.453-.674.454-.676.454-.677.454-.679.454-.678.455-.678.455-.677.455-.675.455-.674.455-.67.456-.668.456-.665.457-.66.456-.655.457-.65.457-.646.458-.64.458-.632.458-.627.458-.62.459-.612.459-.604.459-.597.46-.589.46-.58.46-.572.46-.564.461-.555.462-.547.461-.537.462-.53.462-.52.463-.512.462-.504.463-.496.464-.487.463-.48.464-.473.465-.465.464-.46.465-.452.465-.446.465-.442.466-.436.465-.432.466-.428.467-.425.466-.422.467-.42.466-.418.467-.418.468-.418.467-.419.467-.42.468-.422.468-.424.468-.429.468-.432.468-.438.468-.443.469-.45.468-.457.469-.465.468-.473.47-.483.468-.492.469-.503.469-.514.469-.525.47-.537.468-.55.47-.563.469-.577.47-.59.468-.604.47-.619.47-.633.469-.648.47-.663.47-.678.469-.693.47-.707.47-.723.47-.736.47-.751.47-.765.47-.778.47-.792.47-.803.471-.816.47-.827.472-.837.47-.848.472-.855.471-.864.472-.87.471-.877.472-.881.472-.885.473-.887.472-.888.473-.887.473-.885.474-.883.473-.877.474-.87.474-.864.475-.853.475-.842.475-.83.476-.814.476-.798.476-.78.477-.76.477-.74.478-.715.478-.69.478-.663.48-.635.479-.605.48-.573.48-.539.48-.504.481-.467.482-.428.482-.39.483-.347.483-.306.483-.261.484-.217.484-.17.485-.123.485-.074.486-.026.486.025.487.075.487.127.487.179.488.23.489.285.488.337.49.39.489.443.49.497.49.55.49.602.49.655.492.706.491.758.492.81.492.858.492.908.492.956.493 1.003.493 1.05.493 1.093.493 1.138.493 1.18.493 1.22.494 1.26.494 1.298.493 1.334.494 1.369.494 1.4.494 1.433.494 1.462.494 1.488.494 1.515.494 1.538.494 1.56.494 1.58.493 1.597.494 1.614.494 1.628.493 1.64.494 1.65.493 1.658.494 1.665.493 1.67.493 1.671.493 1.673.493 1.673.493 1.67.492 1.665.493 1.66.492 1.65.492 1.644.492 1.632.492 1.62.492 1.606.491 1.592.492 1.575.491 1.558.491 1.54.491 1.52.491 1.499.49 1.477.491 1.455.49 1.432.491 1.407.49 1.382.49 1.357.49 1.33.49 1.304.49 1.276.49 1.249.49 1.22.489 1.193.49 1.163.488 1.135.49 1.107.489 1.077.49 1.048.488 1.02.49.99.488.963.49.933.488.906.49.877.488.85.49.822.488.795.489.768.489.743.489.717.49.691.488.668.49.643.488.62.49.596.489.574.49.553.488.532.49.511.49.492.489.473.49.454.49.437.49.42.49.404.49.389.49.373.49.36.49.346.49.333.49.322.491.31.49.3.491.29.491.28.491.271.491.264.491.257.492.25.491.243.492.237.491.233.492.229.492.224.492.221.492.218.492.216.492.214.492.212.493.212.492.21.493.21.492.211.493.212.493.212.493.213.493.215.493.217.493.219.493.22.494.225.493.226.494.23.493.233.494.236.494.24.494.244.494.247.494.252.494.255.494.26.494.264.494.268.494.273.495.276.494.281.495.286.494.29.495.294.494.298.495.303.495.306.495.31.495.315.495.319.495.322.495.326.495.33.495.332.495.337.495.339.496.342.495.345.495.347.496.35.495.352.496.354.496.356.496.358.495.359.496.36.496.361.496.362.496.363.496.363.496.364.497.363.496.363.497.362.496.362.497.361.496.36.497.359.497.357.497.355.497.354.497.351.497.35.497.346.498.345.497.341.498.339.498.335.497.333.498.329.498.325.498.322.499.319.498.314.498.311.5.307.498.303.499.298.499.295.499.29.499.286.5.281.499.278.5.273.499.268.5.264.5.26.5.256.5.25.5.248.501.242.501.238.5.234.502.23.5.226.502.221.502.217.501.214.502.21.502.205.502.202.502.198.502.195.502.191.503.188.502.184.503.18.503.179.503.174.504.172.503.168.503.166.504.162.504.16.504.158.504.155.504.152.504.15.505.148.505.145.504.143.505.141.505.14.505.136.506.135.505.133.506.131.505.13.506.127.506.126.506.125.507.123.506.12.507.12.506.118.507.117.507.115.507.114.507.112.508.111.507.11.508.108.507.107.508.105.508.104.508.103.509.101.508.1.509.099.508.097.51.096.508.095.51.093.509.092.509.09.51.09.51.088.51.086.509.085.51.084.51.082.51.081.511.08.511.078.51.077.512.075.51.074.512.072.512.072.511.07.512.068.512.067.512.066.512.065.512.063.512.062.513.061.513.06.513.06.513.057.513.057.513.056.513.055.514.054.514.054.513.053.514.052.515.052.514.051.514.051.515.05.514.051.515.05.515.051.515.051.515.05.515.052.516.052.515.052.516.053.516.054.515.054.516.056.516.056.517.058.516.06.516.06.517.062.516.064.517.066.516.067.517.07.517.071.517.074.517.076.517.078.517.08.518.084.517.085.517.089.518.09.517.094.518.097.518.1.517.101.518.105.518.108.518.111.518.114-.084 3.844z" style="stroke:#3b528b;stroke-opacity:.9"/></defs><g clip-path="url(#p1f04d1a76f)"><use xlink:href="#md2c8da428f" y="576" style="fill:#3b528b;fill-opacity:.9;stroke:#3b528b;stroke-opacity:.9"/></g></g><g id="Poly3DCollection_3"><defs><path id="m76eda393f2" d="m756.637-180.76-4.532-217.519.404-3.786.408-3.635.412-3.473.416-3.303.42-3.122.425-2.933.429-2.735.434-2.53.439-2.315.443-2.097.45-1.87.453-1.638.458-1.402.464-1.16.47-.917.473-.669.48-.42.484-.17.489.081.494.332.5.58.503.829.509 1.073.513 1.314.518 1.552.522 1.785.526 2.011.53 2.233.534 2.447.537 2.655.541 2.853.545 3.045.547 3.228.55 3.4.553 3.564.555 3.719.557 3.862.56 3.996.56 4.119.563 4.232.564 4.334.566 4.425.566 4.506.566 4.576.568 4.635.567 4.685.568 4.723.567 4.753.568 4.772.567 4.781.566 4.782.566 4.773.564 4.757.564 4.731.563 4.699.561 4.658.56 4.61.559 4.558.557 4.497.555 4.431.554 4.36.552 4.284.55 4.204.549 4.12.546 4.031.545 3.94.542 3.847.541 3.75.539 3.653.536 3.552.535 3.451.533 3.35.53 3.246.529 3.144.527 3.04.525 2.94.523 2.836.521 2.736.52 2.635.517 2.537.516 2.44.515 2.343.513 2.25.51 2.158.51 2.068.509 1.98.506 1.896.506 1.812.504 1.73.503 1.654.502 1.578.5 1.504.5 1.434.498 1.366.498 1.3.496 1.237.496 1.178.494 1.119.494 1.064.494 1.01.492.96.492.912.491.865.49.821.491.78.49.738.489.701.488.665.488.63.488.598.488.567.487.536.487.509.486.482.486.456.486.432.486.409.486.386.485.366.485.345.485.327.485.307.485.29.485.274.484.257.485.241.484.227.484.212.485.198.484.185.484.172.484.16.484.147.484.136.484.125.484.115.484.104.484.095.484.085.484.076.484.068.484.06.484.052.485.045.484.038.484.033.484.027.485.021.484.017.485.014.484.01.485.006.485.005.485.002.485.002.485.001.486.002.485.001.486.004.485.005.486.007.486.01.486.015.487.018.486.023.487.028.487.034.487.04.487.047.487.054.488.061.488.07.487.077.489.086.488.095.488.103.489.113.489.122.489.132.489.14.49.151.489.16.49.17.49.178.49.189.49.197.49.206.49.215.491.223.49.231.492.24.49.246.492.254.491.26.492.267.492.272.491.278.492.283.492.287.492.292.492.294.492.298.493.3.492.303.493.304.492.306.493.306.493.306.493.306.493.305.493.305.493.303.493.301.493.3.494.296.493.294.493.291.494.288.494.284.493.28.494.276.494.273.494.268.494.263.494.26.494.253.494.25.494.245.494.24.495.236.494.23.495.226.494.221.495.217.494.211.495.208.495.202.495.199.495.194.495.19.496.186.495.182.495.178.496.175.496.17.495.168.496.164.496.162.496.158.496.155.496.153.496.15.497.147.496.146.497.143.497.14.496.14.497.137.497.135.498.134.497.132.497.13.498.13.497.129.498.127.498.126.497.125.498.124.498.123.499.123.498.122.498.12.499.121.499.12.498.12.5.119.498.118.5.119.499.118.499.117.5.118.499.117.5.116.5.117.5.116.5.117.5.116.5.116.5.116.5.116.501.115.5.116.501.116.501.115.501.116.501.115.502.115.501.116.502.115.501.116.502.115.502.115.502.116.502.115.502.115.502.116.502.115.503.115.503.116.502.115.503.116.503.115.503.116.503.115.504.116.503.115.504.116.503.115.504.116.504.116.504.115.504.116.504.116.504.115.505.116.504.116.505.116.505.115.505.116.505.116.505.116.505.116.506.116.505.116.506.116.505.116.506.116.506.116.506.116.506.116.507.117.506.116.506.116.507.116.507.116.507.117.507.116.507.116.507.117.507.116.508.117.507.116.508.117.508.116.508.117.508.116.508.117.508.116.508.117.509.117.508.116.51.117.508.117.509.117.509.116.51.117.508.117.51.117.51.117.509.117.51.116.51.117.51.117.51.117.51.117.51.117.51.117.511.117.511.117.51.117.512.117.51.117.512.117.511.117.512.117.511.117.512.117.511.117.512.117.512.117.512.117.513.117.512.116.512.117.513.117.513.116.512.116.513.117.513.116.514.116.513.115.513.116.514.115.513.115.514.115.514.115.514.114.514.114.514.113.515.114.514.112.515.112.515.112.515.111.515.11.515.11.515.11.515.108.516.108.515.107.516.106.516.105.516.104.516.102.517.102.516.1.517.1.516.097.517.097.517.095.517.093.518.091.517.09.518.089.517.086.518.084.518.083.518.08.519.078.518.076.519.074.519.072.519.07.519.066.519.065.52.062.519.06.52.057.52.055.52.052.52.05.52.048.52.045.522.043.52.04.522.039.52.036.522.034.522.033.521.03.522.029.522.027.522.025.523.025.522.023.523.022.523.022.523.02.523.021.523.02.523.021.524.021.523.022.524.022.524.024.524.025.524.026.524.029.524.03.525.033.524.035.525.039.525.041.524.045.525.048.525.053.525.056.525.06.525.066.525.07.525.074.525.08.526.084.525.09.525.095.526.101.525.106.525.112.526.117-.085 4.814z" style="stroke:#21918c;stroke-opacity:.9"/></defs><g clip-path="url(#p1f04d1a76f)"><use xlink:href="#m76eda393f2" y="576" style="fill:#21918c;fill-opacity:.9;stroke:#21918c;stroke-opacity:.9"/></g></g><g id="Poly3DCollection_4"><defs><path id="m92cec3bd1c" d="m725.032-161.438-5.183-200.915.404-3.222.408-3.093.412-2.957.416-2.815.42-2.665.425-2.51.43-2.35.433-2.183.439-2.013.444-1.837.448-1.657.454-1.474.458-1.288.463-1.1.469-.909.473-.717.478-.524.484-.33.488-.137.493.057.498.248.502.438.507.627.512.813.516.995.52 1.174.524 1.35.529 1.52.532 1.688.536 1.848.54 2.005.542 2.154.546 2.299.549 2.436.552 2.568.554 2.693.557 2.81.559 2.922.561 3.024.563 3.122.565 3.21.566 3.292.568 3.366.569 3.433.57 3.493.57 3.545.57 3.59.572 3.63.572 3.66.572 3.685.572 3.703.572 3.715.571 3.72.571 3.72.57 3.715.57 3.702.57 3.686.568 3.665.567 3.638.566 3.607.565 3.573.564 3.534.562 3.492.561 3.447.56 3.4.558 3.347.557 3.294.555 3.239.554 3.181.552 3.123.55 3.062.55 3 .547 2.938.546 2.875.544 2.812.543 2.747.54 2.684.54 2.62.538 2.556.537 2.493.535 2.43.533 2.368.532 2.306.53 2.247.53 2.187.528 2.128.527 2.071.525 2.016.524 1.96.523 1.907.522 1.854.52 1.804.52 1.753.519 1.706.518 1.658.516 1.613.516 1.569.515 1.525.513 1.484.513 1.443.513 1.404.511 1.365.51 1.33.51 1.292.51 1.258.509 1.224.508 1.192.507 1.16.507 1.128.506 1.099.506 1.069.505 1.04.504 1.013.504.986.504.959.503.933.503.908.502.883.502.859.501.835.501.812.501.789.5.766.5.745.5.722.5.701.498.68.499.66.498.64.498.619.498.599.498.58.497.56.497.542.496.523.497.505.496.487.496.47.496.451.496.435.495.418.495.401.495.385.495.37.495.354.495.339.494.324.495.31.494.296.494.283.494.27.494.256.493.245.494.233.494.221.493.211.494.2.494.191.493.181.494.172.493.164.493.157.494.149.493.142.494.136.493.13.494.125.494.12.493.116.494.113.494.11.494.106.494.105.494.103.494.103.494.1.495.102.494.101.495.102.494.104.495.104.495.106.496.108.495.111.495.113.496.117.496.12.496.122.496.127.496.13.496.134.497.139.496.142.497.147.497.15.497.156.498.16.497.163.498.168.497.172.498.176.498.18.499.183.498.188.498.19.5.194.498.198.499.2.499.202.499.206.5.207.498.21.5.211.5.213.5.214.5.216.499.216.5.217.5.217.5.217.5.218.501.217.5.216.501.216.501.215.5.214.502.212.5.212.502.21.5.208.502.206.501.204.502.203.501.2.502.198.502.196.501.193.502.191.502.19.502.185.502.184.502.182.503.179.502.176.502.174.503.172.502.17.503.166.503.165.503.162.503.16.503.158.503.156.503.154.504.152.503.15.504.149.503.146.504.145.504.143.504.142.504.14.504.139.504.137.505.137.504.135.505.134.505.133.504.131.505.131.505.13.506.13.505.128.505.128.506.127.505.126.506.126.506.125.506.125.506.124.506.124.506.124.507.123.506.123.507.123.506.122.507.122.507.122.507.121.507.122.508.121.507.121.508.121.507.121.508.12.508.122.508.12.508.12.508.121.509.12.508.121.509.12.508.12.51.121.508.12.51.12.508.12.51.121.51.12.509.12.51.121.51.12.509.12.51.121.51.12.51.12.51.121.511.12.51.12.511.121.511.12.511.121.511.12.512.121.51.12.512.121.512.12.511.121.512.121.512.12.512.121.512.121.513.12.512.122.512.12.513.121.513.121.513.12.513.122.513.12.513.122.513.12.514.122.513.12.514.122.514.12.514.122.514.121.514.121.514.122.514.12.515.122.515.121.514.122.515.121.515.121.515.122.516.121.515.122.515.121.516.122.516.121.516.122.515.121.517.122.516.122.516.121.516.122.517.122.517.122.517.121.516.122.517.122.518.122.517.122.517.121.518.122.517.122.518.122.518.122.518.122.518.122.519.122.518.121.518.122.519.122.519.122.519.122.519.122.519.121.519.122.52.122.519.121.52.122.519.121.52.122.52.121.52.121.52.121.52.121.52.12.521.121.521.12.52.12.522.12.52.12.522.119.521.119.522.118.521.118.522.118.522.117.522.117.522.116.522.116.522.114.523.115.522.113.523.113.523.111.523.111.523.11.523.109.523.108.524.106.524.105.523.104.524.103.524.101.524.1.525.098.524.096.525.095.525.093.524.09.526.09.525.087.525.085.525.082.526.08.526.08.526.075.526.074.526.07.526.07.527.066.527.064.527.06.527.06.527.056.527.053.527.052.528.048.528.047.528.044.528.041.528.04.529.037.528.035.529.034.529.031.529.03.53.029.529.027.53.026.529.025.53.024.53.023.53.023.53.023.53.023.53.024.532.024.53.024.531.026.531.028.532.028.53.031.532.033.532.036.532.038.531.04.532.045.532.048.532.05.532.056.532.06.533.064.532.068.533.074.532.078.533.083.532.089.533.094.533.1.533.104.533.111.533.117.533.122-.065 4.918z" style="stroke:#5ec962;stroke-opacity:.9"/></defs><g clip-path="url(#p1f04d1a76f)"><use xlink:href="#m92cec3bd1c" y="576" style="fill:#5ec962;fill-opacity:.9;stroke:#5ec962;stroke-opacity:.9"/></g></g></g></g><defs><clipPath id="p1f04d1a76f"><path d="M663.84 69.12h443.52v443.52H663.84z"/></clipPath></defs></svg>