<?xml version="1.0" encoding="utf-8" standalone="no"?>
<!DOCTYPE svg PUBLIC "-//W3C//DTD SVG 1.1//EN"
  "http://www.w3.org/Graphics/SVG/1.1/DTD/svg11.dtd">
<svg xmlns:xlink="http://www.w3.org/1999/xlink" width="720pt" height="288pt" viewBox="0 0 720 288" xmlns="http://www.w3.org/2000/svg" version="1.1">
 <metadata>
  <rdf:RDF xmlns:dc="http://purl.org/dc/elements/1.1/" xmlns:cc="http://creativecommons.org/ns#" xmlns:rdf="http://www.w3.org/1999/02/22-rdf-syntax-ns#">
   <cc:Work>
    <dc:type rdf:resource="http://purl.org/dc/dcmitype/StillImage"/>
    <dc:date>2026-01-27T17:17:33.274494</dc:date>
    <dc:format>image/svg+xml</dc:format>
    <dc:creator>
     <cc:Agent>
      <dc:title>Matplotlib v3.10.3, https://matplotlib.org/</dc:title>
     </cc:Agent>
    </dc:creator>
   </cc:Work>
  </rdf:RDF>
 </metadata>
 <defs>
  <style type="text/css">*{stroke-linejoin: round; stroke-linecap: butt}</style>
 </defs>
 <g id="figure_1">
  <g id="patch_1">
   <path d="M 0 288 
L 720 288 
L 720 0 
L 0 0 
z
" style="fill: #ffffff"/>
  </g>
  <g id="axes_1">
   <g id="patch_2">
    <path d="M 47.855 246.04 
L 278.185 246.04 
L 278.185 26.16 
L 47.855 26.16 
z
" style="fill: #ffffff"/>
   </g>
   <g id="line2d_1">
    <path d="M 58.324545 83.736702 
L 73.281039 56.532328 
L 88.237532 107.11891 
L 103.194026 84.850361 
L 118.150519 41.360251 
L 133.107013 84.166956 
L 148.063506 65.786446 
L 163.02 114.768358 
L 177.976494 36.005373 
L 192.932987 36.005373 
L 207.889481 75.386866 
L 222.845974 36.005373 
L 237.802468 36.005373 
L 252.758961 36.005373 
L 267.715455 85.608739 
" clip-path="url(#pdfae50f166)" style="fill: none; stroke: #9467bd; stroke-width: 1.5; stroke-linecap: square"/>
    <defs>
     <path id="m24b689bf03" d="M -3 3 
L 3 3 
L 3 -3 
L -3 -3 
z
" style="stroke: #9467bd; stroke-linejoin: miter"/>
    </defs>
    <g clip-path="url(#pdfae50f166)">
     <use xlink:href="#m24b689bf03" x="58.324545" y="83.736702" style="fill: #9467bd; stroke: #9467bd; stroke-linejoin: miter"/>
     <use xlink:href="#m24b689bf03" x="73.281039" y="56.532328" style="fill: #9467bd; stroke: #9467bd; stroke-linejoin: miter"/>
     <use xlink:href="#m24b689bf03" x="88.237532" y="107.11891" style="fill: #9467bd; stroke: #9467bd; stroke-linejoin: miter"/>
     <use xlink:href="#m24b689bf03" x="103.194026" y="84.850361" style="fill: #9467bd; stroke: #9467bd; stroke-linejoin: miter"/>
     <use xlink:href="#m24b689bf03" x="118.150519" y="41.360251" style="fill: #9467bd; stroke: #9467bd; stroke-linejoin: miter"/>
     <use xlink:href="#m24b689bf03" x="133.107013" y="84.166956" style="fill: #9467bd; stroke: #9467bd; stroke-linejoin: miter"/>
     <use xlink:href="#m24b689bf03" x="148.063506" y="65.786446" style="fill: #9467bd; stroke: #9467bd; stroke-linejoin: miter"/>
     <use xlink:href="#m24b689bf03" x="163.02" y="114.768358" style="fill: #9467bd; stroke: #9467bd; stroke-linejoin: miter"/>
     <use xlink:href="#m24b689bf03" x="177.976494" y="36.005373" style="fill: #9467bd; stroke: #9467bd; stroke-linejoin: miter"/>
     <use xlink:href="#m24b689bf03" x="192.932987" y="36.005373" style="fill: #9467bd; stroke: #9467bd; stroke-linejoin: miter"/>
     <use xlink:href="#m24b689bf03" x="207.889481" y="75.386866" style="fill: #9467bd; stroke: #9467bd; stroke-linejoin: miter"/>
     <use xlink:href="#m24b689bf03" x="222.845974" y="36.005373" style="fill: #9467bd; stroke: #9467bd; stroke-linejoin: miter"/>
     <use xlink:href="#m24b689bf03" x="237.802468" y="36.005373" style="fill: #9467bd; stroke: #9467bd; stroke-linejoin: miter"/>
     <use xlink:href="#m24b689bf03" x="252.758961" y="36.005373" style="fill: #9467bd; stroke: #9467bd; stroke-linejoin: miter"/>
     <use xlink:href="#m24b689bf03" x="267.715455" y="85.608739" style="fill: #9467bd; stroke: #9467bd; stroke-linejoin: miter"/>
    </g>
   </g>
   <g id="matplotlib.axis_1">
    <g id="xtick_1">
     <g id="line2d_2">
      <defs>
       <path id="m4e2d6c2429" d="M 0 0 
L 0 3.5 
" style="stroke: #000000; stroke-width: 0.8"/>
      </defs>
      <g>
       <use xlink:href="#m4e2d6c2429" x="80.759286" y="246.04" style="stroke: #000000; stroke-width: 0.8"/>
      </g>
     </g>
     <g id="text_1">
      <!-- 2.5 -->
      <g transform="translate(72.807723 260.638438) scale(0.1 -0.1)">
       <defs>
        <path id="DejaVuSans-32" d="M 1228 531 
L 3431 531 
L 3431 0 
L 469 0 
L 469 531 
Q 828 903 1448 1529 
Q 2069 2156 2228 2338 
Q 2531 2678 2651 2914 
Q 2772 3150 2772 3378 
Q 2772 3750 2511 3984 
Q 2250 4219 1831 4219 
Q 1534 4219 1204 4116 
Q 875 4013 500 3803 
L 500 4441 
Q 881 4594 1212 4672 
Q 1544 4750 1819 4750 
Q 2544 4750 2975 4387 
Q 3406 4025 3406 3419 
Q 3406 3131 3298 2873 
Q 3191 2616 2906 2266 
Q 2828 2175 2409 1742 
Q 1991 1309 1228 531 
z
" transform="scale(0.015625)"/>
        <path id="DejaVuSans-2e" d="M 684 794 
L 1344 794 
L 1344 0 
L 684 0 
L 684 794 
z
" transform="scale(0.015625)"/>
        <path id="DejaVuSans-35" d="M 691 4666 
L 3169 4666 
L 3169 4134 
L 1269 4134 
L 1269 2991 
Q 1406 3038 1543 3061 
Q 1681 3084 1819 3084 
Q 2600 3084 3056 2656 
Q 3513 2228 3513 1497 
Q 3513 744 3044 326 
Q 2575 -91 1722 -91 
Q 1428 -91 1123 -41 
Q 819 9 494 109 
L 494 744 
Q 775 591 1075 516 
Q 1375 441 1709 441 
Q 2250 441 2565 725 
Q 2881 1009 2881 1497 
Q 2881 1984 2565 2268 
Q 2250 2553 1709 2553 
Q 1456 2553 1204 2497 
Q 953 2441 691 2322 
L 691 4666 
z
" transform="scale(0.015625)"/>
       </defs>
       <use xlink:href="#DejaVuSans-32"/>
       <use xlink:href="#DejaVuSans-2e" transform="translate(63.623047 0)"/>
       <use xlink:href="#DejaVuSans-35" transform="translate(95.410156 0)"/>
      </g>
     </g>
    </g>
    <g id="xtick_2">
     <g id="line2d_3">
      <g>
       <use xlink:href="#m4e2d6c2429" x="118.150519" y="246.04" style="stroke: #000000; stroke-width: 0.8"/>
      </g>
     </g>
     <g id="text_2">
      <!-- 5.0 -->
      <g transform="translate(110.198957 260.638438) scale(0.1 -0.1)">
       <defs>
        <path id="DejaVuSans-30" d="M 2034 4250 
Q 1547 4250 1301 3770 
Q 1056 3291 1056 2328 
Q 1056 1369 1301 889 
Q 1547 409 2034 409 
Q 2525 409 2770 889 
Q 3016 1369 3016 2328 
Q 3016 3291 2770 3770 
Q 2525 4250 2034 4250 
z
M 2034 4750 
Q 2819 4750 3233 4129 
Q 3647 3509 3647 2328 
Q 3647 1150 3233 529 
Q 2819 -91 2034 -91 
Q 1250 -91 836 529 
Q 422 1150 422 2328 
Q 422 3509 836 4129 
Q 1250 4750 2034 4750 
z
" transform="scale(0.015625)"/>
       </defs>
       <use xlink:href="#DejaVuSans-35"/>
       <use xlink:href="#DejaVuSans-2e" transform="translate(63.623047 0)"/>
       <use xlink:href="#DejaVuSans-30" transform="translate(95.410156 0)"/>
      </g>
     </g>
    </g>
    <g id="xtick_3">
     <g id="line2d_4">
      <g>
       <use xlink:href="#m4e2d6c2429" x="155.541753" y="246.04" style="stroke: #000000; stroke-width: 0.8"/>
      </g>
     </g>
     <g id="text_3">
      <!-- 7.5 -->
      <g transform="translate(147.590191 260.638438) scale(0.1 -0.1)">
       <defs>
        <path id="DejaVuSans-37" d="M 525 4666 
L 3525 4666 
L 3525 4397 
L 1831 0 
L 1172 0 
L 2766 4134 
L 525 4134 
L 525 4666 
z
" transform="scale(0.015625)"/>
       </defs>
       <use xlink:href="#DejaVuSans-37"/>
       <use xlink:href="#DejaVuSans-2e" transform="translate(63.623047 0)"/>
       <use xlink:href="#DejaVuSans-35" transform="translate(95.410156 0)"/>
      </g>
     </g>
    </g>
    <g id="xtick_4">
     <g id="line2d_5">
      <g>
       <use xlink:href="#m4e2d6c2429" x="192.932987" y="246.04" style="stroke: #000000; stroke-width: 0.8"/>
      </g>
     </g>
     <g id="text_4">
      <!-- 10.0 -->
      <g transform="translate(181.800175 260.638438) scale(0.1 -0.1)">
       <defs>
        <path id="DejaVuSans-31" d="M 794 531 
L 1825 531 
L 1825 4091 
L 703 3866 
L 703 4441 
L 1819 4666 
L 2450 4666 
L 2450 531 
L 3481 531 
L 3481 0 
L 794 0 
L 794 531 
z
" transform="scale(0.015625)"/>
       </defs>
       <use xlink:href="#DejaVuSans-31"/>
       <use xlink:href="#DejaVuSans-30" transform="translate(63.623047 0)"/>
       <use xlink:href="#DejaVuSans-2e" transform="translate(127.246094 0)"/>
       <use xlink:href="#DejaVuSans-30" transform="translate(159.033203 0)"/>
      </g>
     </g>
    </g>
    <g id="xtick_5">
     <g id="line2d_6">
      <g>
       <use xlink:href="#m4e2d6c2429" x="230.324221" y="246.04" style="stroke: #000000; stroke-width: 0.8"/>
      </g>
     </g>
     <g id="text_5">
      <!-- 12.5 -->
      <g transform="translate(219.191408 260.638438) scale(0.1 -0.1)">
       <use xlink:href="#DejaVuSans-31"/>
       <use xlink:href="#DejaVuSans-32" transform="translate(63.623047 0)"/>
       <use xlink:href="#DejaVuSans-2e" transform="translate(127.246094 0)"/>
       <use xlink:href="#DejaVuSans-35" transform="translate(159.033203 0)"/>
      </g>
     </g>
    </g>
    <g id="xtick_6">
     <g id="line2d_7">
      <g>
       <use xlink:href="#m4e2d6c2429" x="267.715455" y="246.04" style="stroke: #000000; stroke-width: 0.8"/>
      </g>
     </g>
     <g id="text_6">
      <!-- 15.0 -->
      <g transform="translate(256.582642 260.638438) scale(0.1 -0.1)">
       <use xlink:href="#DejaVuSans-31"/>
       <use xlink:href="#DejaVuSans-35" transform="translate(63.623047 0)"/>
       <use xlink:href="#DejaVuSans-2e" transform="translate(127.246094 0)"/>
       <use xlink:href="#DejaVuSans-30" transform="translate(159.033203 0)"/>
      </g>
     </g>
    </g>
    <g id="text_7">
     <!-- Plate -->
     <g transform="translate(150.515313 274.316562) scale(0.1 -0.1)">
      <defs>
       <path id="DejaVuSans-50" d="M 1259 4147 
L 1259 2394 
L 2053 2394 
Q 2494 2394 2734 2622 
Q 2975 2850 2975 3272 
Q 2975 3691 2734 3919 
Q 2494 4147 2053 4147 
L 1259 4147 
z
M 628 4666 
L 2053 4666 
Q 2838 4666 3239 4311 
Q 3641 3956 3641 3272 
Q 3641 2581 3239 2228 
Q 2838 1875 2053 1875 
L 1259 1875 
L 1259 0 
L 628 0 
L 628 4666 
z
" transform="scale(0.015625)"/>
       <path id="DejaVuSans-6c" d="M 603 4863 
L 1178 4863 
L 1178 0 
L 603 0 
L 603 4863 
z
" transform="scale(0.015625)"/>
       <path id="DejaVuSans-61" d="M 2194 1759 
Q 1497 1759 1228 1600 
Q 959 1441 959 1056 
Q 959 750 1161 570 
Q 1363 391 1709 391 
Q 2188 391 2477 730 
Q 2766 1069 2766 1631 
L 2766 1759 
L 2194 1759 
z
M 3341 1997 
L 3341 0 
L 2766 0 
L 2766 531 
Q 2569 213 2275 61 
Q 1981 -91 1556 -91 
Q 1019 -91 701 211 
Q 384 513 384 1019 
Q 384 1609 779 1909 
Q 1175 2209 1959 2209 
L 2766 2209 
L 2766 2266 
Q 2766 2663 2505 2880 
Q 2244 3097 1772 3097 
Q 1472 3097 1187 3025 
Q 903 2953 641 2809 
L 641 3341 
Q 956 3463 1253 3523 
Q 1550 3584 1831 3584 
Q 2591 3584 2966 3190 
Q 3341 2797 3341 1997 
z
" transform="scale(0.015625)"/>
       <path id="DejaVuSans-74" d="M 1172 4494 
L 1172 3500 
L 2356 3500 
L 2356 3053 
L 1172 3053 
L 1172 1153 
Q 1172 725 1289 603 
Q 1406 481 1766 481 
L 2356 481 
L 2356 0 
L 1766 0 
Q 1100 0 847 248 
Q 594 497 594 1153 
L 594 3053 
L 172 3053 
L 172 3500 
L 594 3500 
L 594 4494 
L 1172 4494 
z
" transform="scale(0.015625)"/>
       <path id="DejaVuSans-65" d="M 3597 1894 
L 3597 1613 
L 953 1613 
Q 991 1019 1311 708 
Q 1631 397 2203 397 
Q 2534 397 2845 478 
Q 3156 559 3463 722 
L 3463 178 
Q 3153 47 2828 -22 
Q 2503 -91 2169 -91 
Q 1331 -91 842 396 
Q 353 884 353 1716 
Q 353 2575 817 3079 
Q 1281 3584 2069 3584 
Q 2775 3584 3186 3129 
Q 3597 2675 3597 1894 
z
M 3022 2063 
Q 3016 2534 2758 2815 
Q 2500 3097 2075 3097 
Q 1594 3097 1305 2825 
Q 1016 2553 972 2059 
L 3022 2063 
z
" transform="scale(0.015625)"/>
      </defs>
      <use xlink:href="#DejaVuSans-50"/>
      <use xlink:href="#DejaVuSans-6c" transform="translate(60.302734 0)"/>
      <use xlink:href="#DejaVuSans-61" transform="translate(88.085938 0)"/>
      <use xlink:href="#DejaVuSans-74" transform="translate(149.365234 0)"/>
      <use xlink:href="#DejaVuSans-65" transform="translate(188.574219 0)"/>
     </g>
    </g>
   </g>
   <g id="matplotlib.axis_2">
    <g id="ytick_1">
     <g id="line2d_8">
      <defs>
       <path id="m1e445fcb42" d="M 0 0 
L -3.5 0 
" style="stroke: #000000; stroke-width: 0.8"/>
      </defs>
      <g>
       <use xlink:href="#m1e445fcb42" x="47.855" y="246.04" style="stroke: #000000; stroke-width: 0.8"/>
      </g>
     </g>
     <g id="text_8">
      <!-- 0.0 -->
      <g transform="translate(24.951875 249.839219) scale(0.1 -0.1)">
       <use xlink:href="#DejaVuSans-30"/>
       <use xlink:href="#DejaVuSans-2e" transform="translate(63.623047 0)"/>
       <use xlink:href="#DejaVuSans-30" transform="translate(95.410156 0)"/>
      </g>
     </g>
    </g>
    <g id="ytick_2">
     <g id="line2d_9">
      <g>
       <use xlink:href="#m1e445fcb42" x="47.855" y="211.034229" style="stroke: #000000; stroke-width: 0.8"/>
      </g>
     </g>
     <g id="text_9">
      <!-- 0.2 -->
      <g transform="translate(24.951875 214.833448) scale(0.1 -0.1)">
       <use xlink:href="#DejaVuSans-30"/>
       <use xlink:href="#DejaVuSans-2e" transform="translate(63.623047 0)"/>
       <use xlink:href="#DejaVuSans-32" transform="translate(95.410156 0)"/>
      </g>
     </g>
    </g>
    <g id="ytick_3">
     <g id="line2d_10">
      <g>
       <use xlink:href="#m1e445fcb42" x="47.855" y="176.028458" style="stroke: #000000; stroke-width: 0.8"/>
      </g>
     </g>
     <g id="text_10">
      <!-- 0.4 -->
      <g transform="translate(24.951875 179.827676) scale(0.1 -0.1)">
       <defs>
        <path id="DejaVuSans-34" d="M 2419 4116 
L 825 1625 
L 2419 1625 
L 2419 4116 
z
M 2253 4666 
L 3047 4666 
L 3047 1625 
L 3713 1625 
L 3713 1100 
L 3047 1100 
L 3047 0 
L 2419 0 
L 2419 1100 
L 313 1100 
L 313 1709 
L 2253 4666 
z
" transform="scale(0.015625)"/>
       </defs>
       <use xlink:href="#DejaVuSans-30"/>
       <use xlink:href="#DejaVuSans-2e" transform="translate(63.623047 0)"/>
       <use xlink:href="#DejaVuSans-34" transform="translate(95.410156 0)"/>
      </g>
     </g>
    </g>
    <g id="ytick_4">
     <g id="line2d_11">
      <g>
       <use xlink:href="#m1e445fcb42" x="47.855" y="141.022687" style="stroke: #000000; stroke-width: 0.8"/>
      </g>
     </g>
     <g id="text_11">
      <!-- 0.6 -->
      <g transform="translate(24.951875 144.821905) scale(0.1 -0.1)">
       <defs>
        <path id="DejaVuSans-36" d="M 2113 2584 
Q 1688 2584 1439 2293 
Q 1191 2003 1191 1497 
Q 1191 994 1439 701 
Q 1688 409 2113 409 
Q 2538 409 2786 701 
Q 3034 994 3034 1497 
Q 3034 2003 2786 2293 
Q 2538 2584 2113 2584 
z
M 3366 4563 
L 3366 3988 
Q 3128 4100 2886 4159 
Q 2644 4219 2406 4219 
Q 1781 4219 1451 3797 
Q 1122 3375 1075 2522 
Q 1259 2794 1537 2939 
Q 1816 3084 2150 3084 
Q 2853 3084 3261 2657 
Q 3669 2231 3669 1497 
Q 3669 778 3244 343 
Q 2819 -91 2113 -91 
Q 1303 -91 875 529 
Q 447 1150 447 2328 
Q 447 3434 972 4092 
Q 1497 4750 2381 4750 
Q 2619 4750 2861 4703 
Q 3103 4656 3366 4563 
z
" transform="scale(0.015625)"/>
       </defs>
       <use xlink:href="#DejaVuSans-30"/>
       <use xlink:href="#DejaVuSans-2e" transform="translate(63.623047 0)"/>
       <use xlink:href="#DejaVuSans-36" transform="translate(95.410156 0)"/>
      </g>
     </g>
    </g>
    <g id="ytick_5">
     <g id="line2d_12">
      <g>
       <use xlink:href="#m1e445fcb42" x="47.855" y="106.016915" style="stroke: #000000; stroke-width: 0.8"/>
      </g>
     </g>
     <g id="text_12">
      <!-- 0.8 -->
      <g transform="translate(24.951875 109.816134) scale(0.1 -0.1)">
       <defs>
        <path id="DejaVuSans-38" d="M 2034 2216 
Q 1584 2216 1326 1975 
Q 1069 1734 1069 1313 
Q 1069 891 1326 650 
Q 1584 409 2034 409 
Q 2484 409 2743 651 
Q 3003 894 3003 1313 
Q 3003 1734 2745 1975 
Q 2488 2216 2034 2216 
z
M 1403 2484 
Q 997 2584 770 2862 
Q 544 3141 544 3541 
Q 544 4100 942 4425 
Q 1341 4750 2034 4750 
Q 2731 4750 3128 4425 
Q 3525 4100 3525 3541 
Q 3525 3141 3298 2862 
Q 3072 2584 2669 2484 
Q 3125 2378 3379 2068 
Q 3634 1759 3634 1313 
Q 3634 634 3220 271 
Q 2806 -91 2034 -91 
Q 1263 -91 848 271 
Q 434 634 434 1313 
Q 434 1759 690 2068 
Q 947 2378 1403 2484 
z
M 1172 3481 
Q 1172 3119 1398 2916 
Q 1625 2713 2034 2713 
Q 2441 2713 2670 2916 
Q 2900 3119 2900 3481 
Q 2900 3844 2670 4047 
Q 2441 4250 2034 4250 
Q 1625 4250 1398 4047 
Q 1172 3844 1172 3481 
z
" transform="scale(0.015625)"/>
       </defs>
       <use xlink:href="#DejaVuSans-30"/>
       <use xlink:href="#DejaVuSans-2e" transform="translate(63.623047 0)"/>
       <use xlink:href="#DejaVuSans-38" transform="translate(95.410156 0)"/>
      </g>
     </g>
    </g>
    <g id="ytick_6">
     <g id="line2d_13">
      <g>
       <use xlink:href="#m1e445fcb42" x="47.855" y="71.011144" style="stroke: #000000; stroke-width: 0.8"/>
      </g>
     </g>
     <g id="text_13">
      <!-- 1.0 -->
      <g transform="translate(24.951875 74.810363) scale(0.1 -0.1)">
       <use xlink:href="#DejaVuSans-31"/>
       <use xlink:href="#DejaVuSans-2e" transform="translate(63.623047 0)"/>
       <use xlink:href="#DejaVuSans-30" transform="translate(95.410156 0)"/>
      </g>
     </g>
    </g>
    <g id="ytick_7">
     <g id="line2d_14">
      <g>
       <use xlink:href="#m1e445fcb42" x="47.855" y="36.005373" style="stroke: #000000; stroke-width: 0.8"/>
      </g>
     </g>
     <g id="text_14">
      <!-- 1.2 -->
      <g transform="translate(24.951875 39.804592) scale(0.1 -0.1)">
       <use xlink:href="#DejaVuSans-31"/>
       <use xlink:href="#DejaVuSans-2e" transform="translate(63.623047 0)"/>
       <use xlink:href="#DejaVuSans-32" transform="translate(95.410156 0)"/>
      </g>
     </g>
    </g>
    <g id="text_15">
     <!-- Solvent Volume (mL) -->
     <g transform="translate(18.872188 188.220312) rotate(-90) scale(0.1 -0.1)">
      <defs>
       <path id="DejaVuSans-53" d="M 3425 4513 
L 3425 3897 
Q 3066 4069 2747 4153 
Q 2428 4238 2131 4238 
Q 1616 4238 1336 4038 
Q 1056 3838 1056 3469 
Q 1056 3159 1242 3001 
Q 1428 2844 1947 2747 
L 2328 2669 
Q 3034 2534 3370 2195 
Q 3706 1856 3706 1288 
Q 3706 609 3251 259 
Q 2797 -91 1919 -91 
Q 1588 -91 1214 -16 
Q 841 59 441 206 
L 441 856 
Q 825 641 1194 531 
Q 1563 422 1919 422 
Q 2459 422 2753 634 
Q 3047 847 3047 1241 
Q 3047 1584 2836 1778 
Q 2625 1972 2144 2069 
L 1759 2144 
Q 1053 2284 737 2584 
Q 422 2884 422 3419 
Q 422 4038 858 4394 
Q 1294 4750 2059 4750 
Q 2388 4750 2728 4690 
Q 3069 4631 3425 4513 
z
" transform="scale(0.015625)"/>
       <path id="DejaVuSans-6f" d="M 1959 3097 
Q 1497 3097 1228 2736 
Q 959 2375 959 1747 
Q 959 1119 1226 758 
Q 1494 397 1959 397 
Q 2419 397 2687 759 
Q 2956 1122 2956 1747 
Q 2956 2369 2687 2733 
Q 2419 3097 1959 3097 
z
M 1959 3584 
Q 2709 3584 3137 3096 
Q 3566 2609 3566 1747 
Q 3566 888 3137 398 
Q 2709 -91 1959 -91 
Q 1206 -91 779 398 
Q 353 888 353 1747 
Q 353 2609 779 3096 
Q 1206 3584 1959 3584 
z
" transform="scale(0.015625)"/>
       <path id="DejaVuSans-76" d="M 191 3500 
L 800 3500 
L 1894 563 
L 2988 3500 
L 3597 3500 
L 2284 0 
L 1503 0 
L 191 3500 
z
" transform="scale(0.015625)"/>
       <path id="DejaVuSans-6e" d="M 3513 2113 
L 3513 0 
L 2938 0 
L 2938 2094 
Q 2938 2591 2744 2837 
Q 2550 3084 2163 3084 
Q 1697 3084 1428 2787 
Q 1159 2491 1159 1978 
L 1159 0 
L 581 0 
L 581 3500 
L 1159 3500 
L 1159 2956 
Q 1366 3272 1645 3428 
Q 1925 3584 2291 3584 
Q 2894 3584 3203 3211 
Q 3513 2838 3513 2113 
z
" transform="scale(0.015625)"/>
       <path id="DejaVuSans-20" transform="scale(0.015625)"/>
       <path id="DejaVuSans-56" d="M 1831 0 
L 50 4666 
L 709 4666 
L 2188 738 
L 3669 4666 
L 4325 4666 
L 2547 0 
L 1831 0 
z
" transform="scale(0.015625)"/>
       <path id="DejaVuSans-75" d="M 544 1381 
L 544 3500 
L 1119 3500 
L 1119 1403 
Q 1119 906 1312 657 
Q 1506 409 1894 409 
Q 2359 409 2629 706 
Q 2900 1003 2900 1516 
L 2900 3500 
L 3475 3500 
L 3475 0 
L 2900 0 
L 2900 538 
Q 2691 219 2414 64 
Q 2138 -91 1772 -91 
Q 1169 -91 856 284 
Q 544 659 544 1381 
z
M 1991 3584 
L 1991 3584 
z
" transform="scale(0.015625)"/>
       <path id="DejaVuSans-6d" d="M 3328 2828 
Q 3544 3216 3844 3400 
Q 4144 3584 4550 3584 
Q 5097 3584 5394 3201 
Q 5691 2819 5691 2113 
L 5691 0 
L 5113 0 
L 5113 2094 
Q 5113 2597 4934 2840 
Q 4756 3084 4391 3084 
Q 3944 3084 3684 2787 
Q 3425 2491 3425 1978 
L 3425 0 
L 2847 0 
L 2847 2094 
Q 2847 2600 2669 2842 
Q 2491 3084 2119 3084 
Q 1678 3084 1418 2786 
Q 1159 2488 1159 1978 
L 1159 0 
L 581 0 
L 581 3500 
L 1159 3500 
L 1159 2956 
Q 1356 3278 1631 3431 
Q 1906 3584 2284 3584 
Q 2666 3584 2933 3390 
Q 3200 3197 3328 2828 
z
" transform="scale(0.015625)"/>
       <path id="DejaVuSans-28" d="M 1984 4856 
Q 1566 4138 1362 3434 
Q 1159 2731 1159 2009 
Q 1159 1288 1364 580 
Q 1569 -128 1984 -844 
L 1484 -844 
Q 1016 -109 783 600 
Q 550 1309 550 2009 
Q 550 2706 781 3412 
Q 1013 4119 1484 4856 
L 1984 4856 
z
" transform="scale(0.015625)"/>
       <path id="DejaVuSans-4c" d="M 628 4666 
L 1259 4666 
L 1259 531 
L 3531 531 
L 3531 0 
L 628 0 
L 628 4666 
z
" transform="scale(0.015625)"/>
       <path id="DejaVuSans-29" d="M 513 4856 
L 1013 4856 
Q 1481 4119 1714 3412 
Q 1947 2706 1947 2009 
Q 1947 1309 1714 600 
Q 1481 -109 1013 -844 
L 513 -844 
Q 928 -128 1133 580 
Q 1338 1288 1338 2009 
Q 1338 2731 1133 3434 
Q 928 4138 513 4856 
z
" transform="scale(0.015625)"/>
      </defs>
      <use xlink:href="#DejaVuSans-53"/>
      <use xlink:href="#DejaVuSans-6f" transform="translate(63.476562 0)"/>
      <use xlink:href="#DejaVuSans-6c" transform="translate(124.658203 0)"/>
      <use xlink:href="#DejaVuSans-76" transform="translate(152.441406 0)"/>
      <use xlink:href="#DejaVuSans-65" transform="translate(211.621094 0)"/>
      <use xlink:href="#DejaVuSans-6e" transform="translate(273.144531 0)"/>
      <use xlink:href="#DejaVuSans-74" transform="translate(336.523438 0)"/>
      <use xlink:href="#DejaVuSans-20" transform="translate(375.732422 0)"/>
      <use xlink:href="#DejaVuSans-56" transform="translate(407.519531 0)"/>
      <use xlink:href="#DejaVuSans-6f" transform="translate(468.177734 0)"/>
      <use xlink:href="#DejaVuSans-6c" transform="translate(529.359375 0)"/>
      <use xlink:href="#DejaVuSans-75" transform="translate(557.142578 0)"/>
      <use xlink:href="#DejaVuSans-6d" transform="translate(620.521484 0)"/>
      <use xlink:href="#DejaVuSans-65" transform="translate(717.933594 0)"/>
      <use xlink:href="#DejaVuSans-20" transform="translate(779.457031 0)"/>
      <use xlink:href="#DejaVuSans-28" transform="translate(811.244141 0)"/>
      <use xlink:href="#DejaVuSans-6d" transform="translate(850.257812 0)"/>
      <use xlink:href="#DejaVuSans-4c" transform="translate(947.669922 0)"/>
      <use xlink:href="#DejaVuSans-29" transform="translate(1003.382812 0)"/>
     </g>
    </g>
   </g>
   <g id="line2d_15">
    <path d="M 58.324545 199.970257 
L 73.281039 198.316617 
L 88.237532 211.254533 
L 103.194026 209.781264 
L 118.150519 193.531343 
L 133.107013 212.057973 
L 148.063506 193.531343 
L 163.02 232.912836 
L 177.976494 193.531343 
L 192.932987 193.531343 
L 207.889481 193.531343 
L 222.845974 193.531343 
L 237.802468 193.531343 
L 252.758961 193.531343 
L 267.715455 207.148816 
" clip-path="url(#pdfae50f166)" style="fill: none; stroke: #1f77b4; stroke-width: 1.5; stroke-linecap: square"/>
    <defs>
     <path id="m1268810d00" d="M 0 3 
C 0.795609 3 1.55874 2.683901 2.12132 2.12132 
C 2.683901 1.55874 3 0.795609 3 0 
C 3 -0.795609 2.683901 -1.55874 2.12132 -2.12132 
C 1.55874 -2.683901 0.795609 -3 0 -3 
C -0.795609 -3 -1.55874 -2.683901 -2.12132 -2.12132 
C -2.683901 -1.55874 -3 -0.795609 -3 0 
C -3 0.795609 -2.683901 1.55874 -2.12132 2.12132 
C -1.55874 2.683901 -0.795609 3 0 3 
z
" style="stroke: #1f77b4"/>
    </defs>
    <g clip-path="url(#pdfae50f166)">
     <use xlink:href="#m1268810d00" x="58.324545" y="199.970257" style="fill: #1f77b4; stroke: #1f77b4"/>
     <use xlink:href="#m1268810d00" x="73.281039" y="198.316617" style="fill: #1f77b4; stroke: #1f77b4"/>
     <use xlink:href="#m1268810d00" x="88.237532" y="211.254533" style="fill: #1f77b4; stroke: #1f77b4"/>
     <use xlink:href="#m1268810d00" x="103.194026" y="209.781264" style="fill: #1f77b4; stroke: #1f77b4"/>
     <use xlink:href="#m1268810d00" x="118.150519" y="193.531343" style="fill: #1f77b4; stroke: #1f77b4"/>
     <use xlink:href="#m1268810d00" x="133.107013" y="212.057973" style="fill: #1f77b4; stroke: #1f77b4"/>
     <use xlink:href="#m1268810d00" x="148.063506" y="193.531343" style="fill: #1f77b4; stroke: #1f77b4"/>
     <use xlink:href="#m1268810d00" x="163.02" y="232.912836" style="fill: #1f77b4; stroke: #1f77b4"/>
     <use xlink:href="#m1268810d00" x="177.976494" y="193.531343" style="fill: #1f77b4; stroke: #1f77b4"/>
     <use xlink:href="#m1268810d00" x="192.932987" y="193.531343" style="fill: #1f77b4; stroke: #1f77b4"/>
     <use xlink:href="#m1268810d00" x="207.889481" y="193.531343" style="fill: #1f77b4; stroke: #1f77b4"/>
     <use xlink:href="#m1268810d00" x="222.845974" y="193.531343" style="fill: #1f77b4; stroke: #1f77b4"/>
     <use xlink:href="#m1268810d00" x="237.802468" y="193.531343" style="fill: #1f77b4; stroke: #1f77b4"/>
     <use xlink:href="#m1268810d00" x="252.758961" y="193.531343" style="fill: #1f77b4; stroke: #1f77b4"/>
     <use xlink:href="#m1268810d00" x="267.715455" y="207.148816" style="fill: #1f77b4; stroke: #1f77b4"/>
    </g>
   </g>
   <g id="line2d_16">
    <path d="M 58.324545 221.23891 
L 73.281039 193.531343 
L 88.237532 209.534816 
L 103.194026 193.613974 
L 118.150519 193.656658 
L 133.107013 193.577986 
L 148.063506 210.552659 
L 163.02 193.531343 
L 177.976494 193.531343 
L 192.932987 193.531343 
L 207.889481 193.531343 
L 222.845974 193.531343 
L 237.802468 193.531343 
L 252.758961 193.531343 
L 267.715455 201.110757 
" clip-path="url(#pdfae50f166)" style="fill: none; stroke: #ff7f0e; stroke-width: 1.5; stroke-linecap: square"/>
    <defs>
     <path id="mcc6794623f" d="M 0 3 
C 0.795609 3 1.55874 2.683901 2.12132 2.12132 
C 2.683901 1.55874 3 0.795609 3 0 
C 3 -0.795609 2.683901 -1.55874 2.12132 -2.12132 
C 1.55874 -2.683901 0.795609 -3 0 -3 
C -0.795609 -3 -1.55874 -2.683901 -2.12132 -2.12132 
C -2.683901 -1.55874 -3 -0.795609 -3 0 
C -3 0.795609 -2.683901 1.55874 -2.12132 2.12132 
C -1.55874 2.683901 -0.795609 3 0 3 
z
" style="stroke: #ff7f0e"/>
    </defs>
    <g clip-path="url(#pdfae50f166)">
     <use xlink:href="#mcc6794623f" x="58.324545" y="221.23891" style="fill: #ff7f0e; stroke: #ff7f0e"/>
     <use xlink:href="#mcc6794623f" x="73.281039" y="193.531343" style="fill: #ff7f0e; stroke: #ff7f0e"/>
     <use xlink:href="#mcc6794623f" x="88.237532" y="209.534816" style="fill: #ff7f0e; stroke: #ff7f0e"/>
     <use xlink:href="#mcc6794623f" x="103.194026" y="193.613974" style="fill: #ff7f0e; stroke: #ff7f0e"/>
     <use xlink:href="#mcc6794623f" x="118.150519" y="193.656658" style="fill: #ff7f0e; stroke: #ff7f0e"/>
     <use xlink:href="#mcc6794623f" x="133.107013" y="193.577986" style="fill: #ff7f0e; stroke: #ff7f0e"/>
     <use xlink:href="#mcc6794623f" x="148.063506" y="210.552659" style="fill: #ff7f0e; stroke: #ff7f0e"/>
     <use xlink:href="#mcc6794623f" x="163.02" y="193.531343" style="fill: #ff7f0e; stroke: #ff7f0e"/>
     <use xlink:href="#mcc6794623f" x="177.976494" y="193.531343" style="fill: #ff7f0e; stroke: #ff7f0e"/>
     <use xlink:href="#mcc6794623f" x="192.932987" y="193.531343" style="fill: #ff7f0e; stroke: #ff7f0e"/>
     <use xlink:href="#mcc6794623f" x="207.889481" y="193.531343" style="fill: #ff7f0e; stroke: #ff7f0e"/>
     <use xlink:href="#mcc6794623f" x="222.845974" y="193.531343" style="fill: #ff7f0e; stroke: #ff7f0e"/>
     <use xlink:href="#mcc6794623f" x="237.802468" y="193.531343" style="fill: #ff7f0e; stroke: #ff7f0e"/>
     <use xlink:href="#mcc6794623f" x="252.758961" y="193.531343" style="fill: #ff7f0e; stroke: #ff7f0e"/>
     <use xlink:href="#mcc6794623f" x="267.715455" y="201.110757" style="fill: #ff7f0e; stroke: #ff7f0e"/>
    </g>
   </g>
   <g id="line2d_17">
    <path d="M 58.324545 200.239461 
L 73.281039 194.563386 
L 88.237532 208.632838 
L 103.194026 210.205201 
L 118.150519 193.570769 
L 133.107013 208.375202 
L 148.063506 206.188191 
L 163.02 232.912836 
L 177.976494 193.531343 
L 192.932987 193.531343 
L 207.889481 232.912836 
L 222.845974 193.531343 
L 237.802468 193.531343 
L 252.758961 193.531343 
L 267.715455 210.36916 
" clip-path="url(#pdfae50f166)" style="fill: none; stroke: #2ca02c; stroke-width: 1.5; stroke-linecap: square"/>
    <defs>
     <path id="m255ea64515" d="M 0 3 
C 0.795609 3 1.55874 2.683901 2.12132 2.12132 
C 2.683901 1.55874 3 0.795609 3 0 
C 3 -0.795609 2.683901 -1.55874 2.12132 -2.12132 
C 1.55874 -2.683901 0.795609 -3 0 -3 
C -0.795609 -3 -1.55874 -2.683901 -2.12132 -2.12132 
C -2.683901 -1.55874 -3 -0.795609 -3 0 
C -3 0.795609 -2.683901 1.55874 -2.12132 2.12132 
C -1.55874 2.683901 -0.795609 3 0 3 
z
" style="stroke: #2ca02c"/>
    </defs>
    <g clip-path="url(#pdfae50f166)">
     <use xlink:href="#m255ea64515" x="58.324545" y="200.239461" style="fill: #2ca02c; stroke: #2ca02c"/>
     <use xlink:href="#m255ea64515" x="73.281039" y="194.563386" style="fill: #2ca02c; stroke: #2ca02c"/>
     <use xlink:href="#m255ea64515" x="88.237532" y="208.632838" style="fill: #2ca02c; stroke: #2ca02c"/>
     <use xlink:href="#m255ea64515" x="103.194026" y="210.205201" style="fill: #2ca02c; stroke: #2ca02c"/>
     <use xlink:href="#m255ea64515" x="118.150519" y="193.570769" style="fill: #2ca02c; stroke: #2ca02c"/>
     <use xlink:href="#m255ea64515" x="133.107013" y="208.375202" style="fill: #2ca02c; stroke: #2ca02c"/>
     <use xlink:href="#m255ea64515" x="148.063506" y="206.188191" style="fill: #2ca02c; stroke: #2ca02c"/>
     <use xlink:href="#m255ea64515" x="163.02" y="232.912836" style="fill: #2ca02c; stroke: #2ca02c"/>
     <use xlink:href="#m255ea64515" x="177.976494" y="193.531343" style="fill: #2ca02c; stroke: #2ca02c"/>
     <use xlink:href="#m255ea64515" x="192.932987" y="193.531343" style="fill: #2ca02c; stroke: #2ca02c"/>
     <use xlink:href="#m255ea64515" x="207.889481" y="232.912836" style="fill: #2ca02c; stroke: #2ca02c"/>
     <use xlink:href="#m255ea64515" x="222.845974" y="193.531343" style="fill: #2ca02c; stroke: #2ca02c"/>
     <use xlink:href="#m255ea64515" x="237.802468" y="193.531343" style="fill: #2ca02c; stroke: #2ca02c"/>
     <use xlink:href="#m255ea64515" x="252.758961" y="193.531343" style="fill: #2ca02c; stroke: #2ca02c"/>
     <use xlink:href="#m255ea64515" x="267.715455" y="210.36916" style="fill: #2ca02c; stroke: #2ca02c"/>
    </g>
   </g>
   <g id="line2d_18">
    <path d="M 58.324545 200.408074 
L 73.281039 208.240981 
L 88.237532 215.816722 
L 103.194026 209.369923 
L 118.150519 198.72148 
L 133.107013 208.275795 
L 148.063506 193.634252 
L 163.02 193.531343 
L 177.976494 193.531343 
L 192.932987 193.531343 
L 207.889481 193.531343 
L 222.845974 193.531343 
L 237.802468 193.531343 
L 252.758961 193.531343 
L 267.715455 205.100005 
" clip-path="url(#pdfae50f166)" style="fill: none; stroke: #d62728; stroke-width: 1.5; stroke-linecap: square"/>
    <defs>
     <path id="md2639fb6b4" d="M 0 3 
C 0.795609 3 1.55874 2.683901 2.12132 2.12132 
C 2.683901 1.55874 3 0.795609 3 0 
C 3 -0.795609 2.683901 -1.55874 2.12132 -2.12132 
C 1.55874 -2.683901 0.795609 -3 0 -3 
C -0.795609 -3 -1.55874 -2.683901 -2.12132 -2.12132 
C -2.683901 -1.55874 -3 -0.795609 -3 0 
C -3 0.795609 -2.683901 1.55874 -2.12132 2.12132 
C -1.55874 2.683901 -0.795609 3 0 3 
z
" style="stroke: #d62728"/>
    </defs>
    <g clip-path="url(#pdfae50f166)">
     <use xlink:href="#md2639fb6b4" x="58.324545" y="200.408074" style="fill: #d62728; stroke: #d62728"/>
     <use xlink:href="#md2639fb6b4" x="73.281039" y="208.240981" style="fill: #d62728; stroke: #d62728"/>
     <use xlink:href="#md2639fb6b4" x="88.237532" y="215.816722" style="fill: #d62728; stroke: #d62728"/>
     <use xlink:href="#md2639fb6b4" x="103.194026" y="209.369923" style="fill: #d62728; stroke: #d62728"/>
     <use xlink:href="#md2639fb6b4" x="118.150519" y="198.72148" style="fill: #d62728; stroke: #d62728"/>
     <use xlink:href="#md2639fb6b4" x="133.107013" y="208.275795" style="fill: #d62728; stroke: #d62728"/>
     <use xlink:href="#md2639fb6b4" x="148.063506" y="193.634252" style="fill: #d62728; stroke: #d62728"/>
     <use xlink:href="#md2639fb6b4" x="163.02" y="193.531343" style="fill: #d62728; stroke: #d62728"/>
     <use xlink:href="#md2639fb6b4" x="177.976494" y="193.531343" style="fill: #d62728; stroke: #d62728"/>
     <use xlink:href="#md2639fb6b4" x="192.932987" y="193.531343" style="fill: #d62728; stroke: #d62728"/>
     <use xlink:href="#md2639fb6b4" x="207.889481" y="193.531343" style="fill: #d62728; stroke: #d62728"/>
     <use xlink:href="#md2639fb6b4" x="222.845974" y="193.531343" style="fill: #d62728; stroke: #d62728"/>
     <use xlink:href="#md2639fb6b4" x="237.802468" y="193.531343" style="fill: #d62728; stroke: #d62728"/>
     <use xlink:href="#md2639fb6b4" x="252.758961" y="193.531343" style="fill: #d62728; stroke: #d62728"/>
     <use xlink:href="#md2639fb6b4" x="267.715455" y="205.100005" style="fill: #d62728; stroke: #d62728"/>
    </g>
   </g>
   <g id="line2d_19">
    <path d="M 47.855 36.005373 
L 278.185 36.005373 
" clip-path="url(#pdfae50f166)" style="fill: none; stroke: #000000; stroke-width: 1.5; stroke-linecap: square"/>
   </g>
   <g id="patch_3">
    <path d="M 47.855 246.04 
L 47.855 26.16 
" style="fill: none; stroke: #000000; stroke-width: 0.8; stroke-linejoin: miter; stroke-linecap: square"/>
   </g>
   <g id="patch_4">
    <path d="M 278.185 246.04 
L 278.185 26.16 
" style="fill: none; stroke: #000000; stroke-width: 0.8; stroke-linejoin: miter; stroke-linecap: square"/>
   </g>
   <g id="patch_5">
    <path d="M 47.855 246.04 
L 278.185 246.04 
" style="fill: none; stroke: #000000; stroke-width: 0.8; stroke-linejoin: miter; stroke-linecap: square"/>
   </g>
   <g id="patch_6">
    <path d="M 47.855 26.16 
L 278.185 26.16 
" style="fill: none; stroke: #000000; stroke-width: 0.8; stroke-linejoin: miter; stroke-linecap: square"/>
   </g>
   <g id="text_16">
    <!-- Solvent -->
    <g transform="translate(140.475 20.16) scale(0.12 -0.12)">
     <use xlink:href="#DejaVuSans-53"/>
     <use xlink:href="#DejaVuSans-6f" transform="translate(63.476562 0)"/>
     <use xlink:href="#DejaVuSans-6c" transform="translate(124.658203 0)"/>
     <use xlink:href="#DejaVuSans-76" transform="translate(152.441406 0)"/>
     <use xlink:href="#DejaVuSans-65" transform="translate(211.621094 0)"/>
     <use xlink:href="#DejaVuSans-6e" transform="translate(273.144531 0)"/>
     <use xlink:href="#DejaVuSans-74" transform="translate(336.523438 0)"/>
    </g>
   </g>
   <g id="legend_1">
    <g id="patch_7">
     <path d="M 285.185 181.634375 
L 353.15375 181.634375 
Q 355.15375 181.634375 355.15375 179.634375 
L 355.15375 92.565625 
Q 355.15375 90.565625 353.15375 90.565625 
L 285.185 90.565625 
Q 283.185 90.565625 283.185 92.565625 
L 283.185 179.634375 
Q 283.185 181.634375 285.185 181.634375 
z
" style="fill: #ffffff; opacity: 0.8; stroke: #cccccc; stroke-linejoin: miter"/>
    </g>
    <g id="line2d_20">
     <path d="M 287.185 98.664062 
L 297.185 98.664062 
L 307.185 98.664062 
" style="fill: none; stroke: #1f77b4; stroke-width: 1.5; stroke-linecap: square"/>
     <g>
      <use xlink:href="#m1268810d00" x="297.185" y="98.664062" style="fill: #1f77b4; stroke: #1f77b4"/>
     </g>
    </g>
    <g id="text_17">
     <!-- Exp 1 -->
     <g transform="translate(315.185 102.164062) scale(0.1 -0.1)">
      <defs>
       <path id="DejaVuSans-45" d="M 628 4666 
L 3578 4666 
L 3578 4134 
L 1259 4134 
L 1259 2753 
L 3481 2753 
L 3481 2222 
L 1259 2222 
L 1259 531 
L 3634 531 
L 3634 0 
L 628 0 
L 628 4666 
z
" transform="scale(0.015625)"/>
       <path id="DejaVuSans-78" d="M 3513 3500 
L 2247 1797 
L 3578 0 
L 2900 0 
L 1881 1375 
L 863 0 
L 184 0 
L 1544 1831 
L 300 3500 
L 978 3500 
L 1906 2253 
L 2834 3500 
L 3513 3500 
z
" transform="scale(0.015625)"/>
       <path id="DejaVuSans-70" d="M 1159 525 
L 1159 -1331 
L 581 -1331 
L 581 3500 
L 1159 3500 
L 1159 2969 
Q 1341 3281 1617 3432 
Q 1894 3584 2278 3584 
Q 2916 3584 3314 3078 
Q 3713 2572 3713 1747 
Q 3713 922 3314 415 
Q 2916 -91 2278 -91 
Q 1894 -91 1617 61 
Q 1341 213 1159 525 
z
M 3116 1747 
Q 3116 2381 2855 2742 
Q 2594 3103 2138 3103 
Q 1681 3103 1420 2742 
Q 1159 2381 1159 1747 
Q 1159 1113 1420 752 
Q 1681 391 2138 391 
Q 2594 391 2855 752 
Q 3116 1113 3116 1747 
z
" transform="scale(0.015625)"/>
      </defs>
      <use xlink:href="#DejaVuSans-45"/>
      <use xlink:href="#DejaVuSans-78" transform="translate(63.183594 0)"/>
      <use xlink:href="#DejaVuSans-70" transform="translate(122.363281 0)"/>
      <use xlink:href="#DejaVuSans-20" transform="translate(185.839844 0)"/>
      <use xlink:href="#DejaVuSans-31" transform="translate(217.626953 0)"/>
     </g>
    </g>
    <g id="line2d_21">
     <path d="M 287.185 113.342187 
L 297.185 113.342187 
L 307.185 113.342187 
" style="fill: none; stroke: #ff7f0e; stroke-width: 1.5; stroke-linecap: square"/>
     <g>
      <use xlink:href="#mcc6794623f" x="297.185" y="113.342187" style="fill: #ff7f0e; stroke: #ff7f0e"/>
     </g>
    </g>
    <g id="text_18">
     <!-- Exp 2 -->
     <g transform="translate(315.185 116.842187) scale(0.1 -0.1)">
      <use xlink:href="#DejaVuSans-45"/>
      <use xlink:href="#DejaVuSans-78" transform="translate(63.183594 0)"/>
      <use xlink:href="#DejaVuSans-70" transform="translate(122.363281 0)"/>
      <use xlink:href="#DejaVuSans-20" transform="translate(185.839844 0)"/>
      <use xlink:href="#DejaVuSans-32" transform="translate(217.626953 0)"/>
     </g>
    </g>
    <g id="line2d_22">
     <path d="M 287.185 128.020312 
L 297.185 128.020312 
L 307.185 128.020312 
" style="fill: none; stroke: #2ca02c; stroke-width: 1.5; stroke-linecap: square"/>
     <g>
      <use xlink:href="#m255ea64515" x="297.185" y="128.020312" style="fill: #2ca02c; stroke: #2ca02c"/>
     </g>
    </g>
    <g id="text_19">
     <!-- Exp 3 -->
     <g transform="translate(315.185 131.520312) scale(0.1 -0.1)">
      <defs>
       <path id="DejaVuSans-33" d="M 2597 2516 
Q 3050 2419 3304 2112 
Q 3559 1806 3559 1356 
Q 3559 666 3084 287 
Q 2609 -91 1734 -91 
Q 1441 -91 1130 -33 
Q 819 25 488 141 
L 488 750 
Q 750 597 1062 519 
Q 1375 441 1716 441 
Q 2309 441 2620 675 
Q 2931 909 2931 1356 
Q 2931 1769 2642 2001 
Q 2353 2234 1838 2234 
L 1294 2234 
L 1294 2753 
L 1863 2753 
Q 2328 2753 2575 2939 
Q 2822 3125 2822 3475 
Q 2822 3834 2567 4026 
Q 2313 4219 1838 4219 
Q 1578 4219 1281 4162 
Q 984 4106 628 3988 
L 628 4550 
Q 988 4650 1302 4700 
Q 1616 4750 1894 4750 
Q 2613 4750 3031 4423 
Q 3450 4097 3450 3541 
Q 3450 3153 3228 2886 
Q 3006 2619 2597 2516 
z
" transform="scale(0.015625)"/>
      </defs>
      <use xlink:href="#DejaVuSans-45"/>
      <use xlink:href="#DejaVuSans-78" transform="translate(63.183594 0)"/>
      <use xlink:href="#DejaVuSans-70" transform="translate(122.363281 0)"/>
      <use xlink:href="#DejaVuSans-20" transform="translate(185.839844 0)"/>
      <use xlink:href="#DejaVuSans-33" transform="translate(217.626953 0)"/>
     </g>
    </g>
    <g id="line2d_23">
     <path d="M 287.185 142.698437 
L 297.185 142.698437 
L 307.185 142.698437 
" style="fill: none; stroke: #d62728; stroke-width: 1.5; stroke-linecap: square"/>
     <g>
      <use xlink:href="#md2639fb6b4" x="297.185" y="142.698437" style="fill: #d62728; stroke: #d62728"/>
     </g>
    </g>
    <g id="text_20">
     <!-- Exp 4 -->
     <g transform="translate(315.185 146.198437) scale(0.1 -0.1)">
      <use xlink:href="#DejaVuSans-45"/>
      <use xlink:href="#DejaVuSans-78" transform="translate(63.183594 0)"/>
      <use xlink:href="#DejaVuSans-70" transform="translate(122.363281 0)"/>
      <use xlink:href="#DejaVuSans-20" transform="translate(185.839844 0)"/>
      <use xlink:href="#DejaVuSans-34" transform="translate(217.626953 0)"/>
     </g>
    </g>
    <g id="line2d_24">
     <path d="M 287.185 157.376562 
L 297.185 157.376562 
L 307.185 157.376562 
" style="fill: none; stroke: #9467bd; stroke-width: 1.5; stroke-linecap: square"/>
     <g>
      <use xlink:href="#m24b689bf03" x="297.185" y="157.376562" style="fill: #9467bd; stroke: #9467bd; stroke-linejoin: miter"/>
     </g>
    </g>
    <g id="text_21">
     <!-- Total -->
     <g transform="translate(315.185 160.876562) scale(0.1 -0.1)">
      <defs>
       <path id="DejaVuSans-54" d="M -19 4666 
L 3928 4666 
L 3928 4134 
L 2272 4134 
L 2272 0 
L 1638 0 
L 1638 4134 
L -19 4134 
L -19 4666 
z
" transform="scale(0.015625)"/>
      </defs>
      <use xlink:href="#DejaVuSans-54"/>
      <use xlink:href="#DejaVuSans-6f" transform="translate(44.083984 0)"/>
      <use xlink:href="#DejaVuSans-74" transform="translate(105.265625 0)"/>
      <use xlink:href="#DejaVuSans-61" transform="translate(144.474609 0)"/>
      <use xlink:href="#DejaVuSans-6c" transform="translate(205.753906 0)"/>
     </g>
    </g>
    <g id="line2d_25">
     <path d="M 287.185 172.054687 
L 297.185 172.054687 
L 307.185 172.054687 
" style="fill: none; stroke: #000000; stroke-width: 1.5; stroke-linecap: square"/>
    </g>
    <g id="text_22">
     <!-- Budget -->
     <g transform="translate(315.185 175.554687) scale(0.1 -0.1)">
      <defs>
       <path id="DejaVuSans-42" d="M 1259 2228 
L 1259 519 
L 2272 519 
Q 2781 519 3026 730 
Q 3272 941 3272 1375 
Q 3272 1813 3026 2020 
Q 2781 2228 2272 2228 
L 1259 2228 
z
M 1259 4147 
L 1259 2741 
L 2194 2741 
Q 2656 2741 2882 2914 
Q 3109 3088 3109 3444 
Q 3109 3797 2882 3972 
Q 2656 4147 2194 4147 
L 1259 4147 
z
M 628 4666 
L 2241 4666 
Q 2963 4666 3353 4366 
Q 3744 4066 3744 3513 
Q 3744 3084 3544 2831 
Q 3344 2578 2956 2516 
Q 3422 2416 3680 2098 
Q 3938 1781 3938 1306 
Q 3938 681 3513 340 
Q 3088 0 2303 0 
L 628 0 
L 628 4666 
z
" transform="scale(0.015625)"/>
       <path id="DejaVuSans-64" d="M 2906 2969 
L 2906 4863 
L 3481 4863 
L 3481 0 
L 2906 0 
L 2906 525 
Q 2725 213 2448 61 
Q 2172 -91 1784 -91 
Q 1150 -91 751 415 
Q 353 922 353 1747 
Q 353 2572 751 3078 
Q 1150 3584 1784 3584 
Q 2172 3584 2448 3432 
Q 2725 3281 2906 2969 
z
M 947 1747 
Q 947 1113 1208 752 
Q 1469 391 1925 391 
Q 2381 391 2643 752 
Q 2906 1113 2906 1747 
Q 2906 2381 2643 2742 
Q 2381 3103 1925 3103 
Q 1469 3103 1208 2742 
Q 947 2381 947 1747 
z
" transform="scale(0.015625)"/>
       <path id="DejaVuSans-67" d="M 2906 1791 
Q 2906 2416 2648 2759 
Q 2391 3103 1925 3103 
Q 1463 3103 1205 2759 
Q 947 2416 947 1791 
Q 947 1169 1205 825 
Q 1463 481 1925 481 
Q 2391 481 2648 825 
Q 2906 1169 2906 1791 
z
M 3481 434 
Q 3481 -459 3084 -895 
Q 2688 -1331 1869 -1331 
Q 1566 -1331 1297 -1286 
Q 1028 -1241 775 -1147 
L 775 -588 
Q 1028 -725 1275 -790 
Q 1522 -856 1778 -856 
Q 2344 -856 2625 -561 
Q 2906 -266 2906 331 
L 2906 616 
Q 2728 306 2450 153 
Q 2172 0 1784 0 
Q 1141 0 747 490 
Q 353 981 353 1791 
Q 353 2603 747 3093 
Q 1141 3584 1784 3584 
Q 2172 3584 2450 3431 
Q 2728 3278 2906 2969 
L 2906 3500 
L 3481 3500 
L 3481 434 
z
" transform="scale(0.015625)"/>
      </defs>
      <use xlink:href="#DejaVuSans-42"/>
      <use xlink:href="#DejaVuSans-75" transform="translate(68.603516 0)"/>
      <use xlink:href="#DejaVuSans-64" transform="translate(131.982422 0)"/>
      <use xlink:href="#DejaVuSans-67" transform="translate(195.458984 0)"/>
      <use xlink:href="#DejaVuSans-65" transform="translate(258.935547 0)"/>
      <use xlink:href="#DejaVuSans-74" transform="translate(320.458984 0)"/>
     </g>
    </g>
   </g>
  </g>
  <g id="axes_2">
   <g id="patch_8">
    <path d="M 393.41 246.04 
L 623.74 246.04 
L 623.74 26.16 
L 393.41 26.16 
z
" style="fill: #ffffff"/>
   </g>
   <g id="line2d_26">
    <path d="M 403.879545 36.005373 
L 418.836039 36.005373 
L 433.792532 36.005373 
L 448.749026 36.005373 
L 463.705519 36.005373 
L 478.662013 36.005373 
L 493.618506 36.005373 
L 508.575 36.005373 
L 523.531494 36.005373 
L 538.487987 36.005373 
L 553.444481 36.005373 
L 568.400974 36.005373 
L 583.357468 36.005373 
L 598.313961 36.005373 
L 613.270455 36.005373 
" clip-path="url(#p7f202bf785)" style="fill: none; stroke: #9467bd; stroke-width: 1.5; stroke-linecap: square"/>
    <g clip-path="url(#p7f202bf785)">
     <use xlink:href="#m24b689bf03" x="403.879545" y="36.005373" style="fill: #9467bd; stroke: #9467bd; stroke-linejoin: miter"/>
     <use xlink:href="#m24b689bf03" x="418.836039" y="36.005373" style="fill: #9467bd; stroke: #9467bd; stroke-linejoin: miter"/>
     <use xlink:href="#m24b689bf03" x="433.792532" y="36.005373" style="fill: #9467bd; stroke: #9467bd; stroke-linejoin: miter"/>
     <use xlink:href="#m24b689bf03" x="448.749026" y="36.005373" style="fill: #9467bd; stroke: #9467bd; stroke-linejoin: miter"/>
     <use xlink:href="#m24b689bf03" x="463.705519" y="36.005373" style="fill: #9467bd; stroke: #9467bd; stroke-linejoin: miter"/>
     <use xlink:href="#m24b689bf03" x="478.662013" y="36.005373" style="fill: #9467bd; stroke: #9467bd; stroke-linejoin: miter"/>
     <use xlink:href="#m24b689bf03" x="493.618506" y="36.005373" style="fill: #9467bd; stroke: #9467bd; stroke-linejoin: miter"/>
     <use xlink:href="#m24b689bf03" x="508.575" y="36.005373" style="fill: #9467bd; stroke: #9467bd; stroke-linejoin: miter"/>
     <use xlink:href="#m24b689bf03" x="523.531494" y="36.005373" style="fill: #9467bd; stroke: #9467bd; stroke-linejoin: miter"/>
     <use xlink:href="#m24b689bf03" x="538.487987" y="36.005373" style="fill: #9467bd; stroke: #9467bd; stroke-linejoin: miter"/>
     <use xlink:href="#m24b689bf03" x="553.444481" y="36.005373" style="fill: #9467bd; stroke: #9467bd; stroke-linejoin: miter"/>
     <use xlink:href="#m24b689bf03" x="568.400974" y="36.005373" style="fill: #9467bd; stroke: #9467bd; stroke-linejoin: miter"/>
     <use xlink:href="#m24b689bf03" x="583.357468" y="36.005373" style="fill: #9467bd; stroke: #9467bd; stroke-linejoin: miter"/>
     <use xlink:href="#m24b689bf03" x="598.313961" y="36.005373" style="fill: #9467bd; stroke: #9467bd; stroke-linejoin: miter"/>
     <use xlink:href="#m24b689bf03" x="613.270455" y="36.005373" style="fill: #9467bd; stroke: #9467bd; stroke-linejoin: miter"/>
    </g>
   </g>
   <g id="matplotlib.axis_3">
    <g id="xtick_7">
     <g id="line2d_27">
      <g>
       <use xlink:href="#m4e2d6c2429" x="426.314286" y="246.04" style="stroke: #000000; stroke-width: 0.8"/>
      </g>
     </g>
     <g id="text_23">
      <!-- 2.5 -->
      <g transform="translate(418.362723 260.638438) scale(0.1 -0.1)">
       <use xlink:href="#DejaVuSans-32"/>
       <use xlink:href="#DejaVuSans-2e" transform="translate(63.623047 0)"/>
       <use xlink:href="#DejaVuSans-35" transform="translate(95.410156 0)"/>
      </g>
     </g>
    </g>
    <g id="xtick_8">
     <g id="line2d_28">
      <g>
       <use xlink:href="#m4e2d6c2429" x="463.705519" y="246.04" style="stroke: #000000; stroke-width: 0.8"/>
      </g>
     </g>
     <g id="text_24">
      <!-- 5.0 -->
      <g transform="translate(455.753957 260.638438) scale(0.1 -0.1)">
       <use xlink:href="#DejaVuSans-35"/>
       <use xlink:href="#DejaVuSans-2e" transform="translate(63.623047 0)"/>
       <use xlink:href="#DejaVuSans-30" transform="translate(95.410156 0)"/>
      </g>
     </g>
    </g>
    <g id="xtick_9">
     <g id="line2d_29">
      <g>
       <use xlink:href="#m4e2d6c2429" x="501.096753" y="246.04" style="stroke: #000000; stroke-width: 0.8"/>
      </g>
     </g>
     <g id="text_25">
      <!-- 7.5 -->
      <g transform="translate(493.145191 260.638438) scale(0.1 -0.1)">
       <use xlink:href="#DejaVuSans-37"/>
       <use xlink:href="#DejaVuSans-2e" transform="translate(63.623047 0)"/>
       <use xlink:href="#DejaVuSans-35" transform="translate(95.410156 0)"/>
      </g>
     </g>
    </g>
    <g id="xtick_10">
     <g id="line2d_30">
      <g>
       <use xlink:href="#m4e2d6c2429" x="538.487987" y="246.04" style="stroke: #000000; stroke-width: 0.8"/>
      </g>
     </g>
     <g id="text_26">
      <!-- 10.0 -->
      <g transform="translate(527.355175 260.638438) scale(0.1 -0.1)">
       <use xlink:href="#DejaVuSans-31"/>
       <use xlink:href="#DejaVuSans-30" transform="translate(63.623047 0)"/>
       <use xlink:href="#DejaVuSans-2e" transform="translate(127.246094 0)"/>
       <use xlink:href="#DejaVuSans-30" transform="translate(159.033203 0)"/>
      </g>
     </g>
    </g>
    <g id="xtick_11">
     <g id="line2d_31">
      <g>
       <use xlink:href="#m4e2d6c2429" x="575.879221" y="246.04" style="stroke: #000000; stroke-width: 0.8"/>
      </g>
     </g>
     <g id="text_27">
      <!-- 12.5 -->
      <g transform="translate(564.746408 260.638438) scale(0.1 -0.1)">
       <use xlink:href="#DejaVuSans-31"/>
       <use xlink:href="#DejaVuSans-32" transform="translate(63.623047 0)"/>
       <use xlink:href="#DejaVuSans-2e" transform="translate(127.246094 0)"/>
       <use xlink:href="#DejaVuSans-35" transform="translate(159.033203 0)"/>
      </g>
     </g>
    </g>
    <g id="xtick_12">
     <g id="line2d_32">
      <g>
       <use xlink:href="#m4e2d6c2429" x="613.270455" y="246.04" style="stroke: #000000; stroke-width: 0.8"/>
      </g>
     </g>
     <g id="text_28">
      <!-- 15.0 -->
      <g transform="translate(602.137642 260.638438) scale(0.1 -0.1)">
       <use xlink:href="#DejaVuSans-31"/>
       <use xlink:href="#DejaVuSans-35" transform="translate(63.623047 0)"/>
       <use xlink:href="#DejaVuSans-2e" transform="translate(127.246094 0)"/>
       <use xlink:href="#DejaVuSans-30" transform="translate(159.033203 0)"/>
      </g>
     </g>
    </g>
    <g id="text_29">
     <!-- Plate -->
     <g transform="translate(496.070313 274.316562) scale(0.1 -0.1)">
      <use xlink:href="#DejaVuSans-50"/>
      <use xlink:href="#DejaVuSans-6c" transform="translate(60.302734 0)"/>
      <use xlink:href="#DejaVuSans-61" transform="translate(88.085938 0)"/>
      <use xlink:href="#DejaVuSans-74" transform="translate(149.365234 0)"/>
      <use xlink:href="#DejaVuSans-65" transform="translate(188.574219 0)"/>
     </g>
    </g>
   </g>
   <g id="matplotlib.axis_4">
    <g id="ytick_8">
     <g id="line2d_33">
      <g>
       <use xlink:href="#m1e445fcb42" x="393.41" y="246.04" style="stroke: #000000; stroke-width: 0.8"/>
      </g>
     </g>
     <g id="text_30">
      <!-- 0 -->
      <g transform="translate(380.0475 249.839219) scale(0.1 -0.1)">
       <use xlink:href="#DejaVuSans-30"/>
      </g>
     </g>
    </g>
    <g id="ytick_9">
     <g id="line2d_34">
      <g>
       <use xlink:href="#m1e445fcb42" x="393.41" y="219.785672" style="stroke: #000000; stroke-width: 0.8"/>
      </g>
     </g>
     <g id="text_31">
      <!-- 1 -->
      <g transform="translate(380.0475 223.58489) scale(0.1 -0.1)">
       <use xlink:href="#DejaVuSans-31"/>
      </g>
     </g>
    </g>
    <g id="ytick_10">
     <g id="line2d_35">
      <g>
       <use xlink:href="#m1e445fcb42" x="393.41" y="193.531343" style="stroke: #000000; stroke-width: 0.8"/>
      </g>
     </g>
     <g id="text_32">
      <!-- 2 -->
      <g transform="translate(380.0475 197.330562) scale(0.1 -0.1)">
       <use xlink:href="#DejaVuSans-32"/>
      </g>
     </g>
    </g>
    <g id="ytick_11">
     <g id="line2d_36">
      <g>
       <use xlink:href="#m1e445fcb42" x="393.41" y="167.277015" style="stroke: #000000; stroke-width: 0.8"/>
      </g>
     </g>
     <g id="text_33">
      <!-- 3 -->
      <g transform="translate(380.0475 171.076234) scale(0.1 -0.1)">
       <use xlink:href="#DejaVuSans-33"/>
      </g>
     </g>
    </g>
    <g id="ytick_12">
     <g id="line2d_37">
      <g>
       <use xlink:href="#m1e445fcb42" x="393.41" y="141.022687" style="stroke: #000000; stroke-width: 0.8"/>
      </g>
     </g>
     <g id="text_34">
      <!-- 4 -->
      <g transform="translate(380.0475 144.821905) scale(0.1 -0.1)">
       <use xlink:href="#DejaVuSans-34"/>
      </g>
     </g>
    </g>
    <g id="ytick_13">
     <g id="line2d_38">
      <g>
       <use xlink:href="#m1e445fcb42" x="393.41" y="114.768358" style="stroke: #000000; stroke-width: 0.8"/>
      </g>
     </g>
     <g id="text_35">
      <!-- 5 -->
      <g transform="translate(380.0475 118.567577) scale(0.1 -0.1)">
       <use xlink:href="#DejaVuSans-35"/>
      </g>
     </g>
    </g>
    <g id="ytick_14">
     <g id="line2d_39">
      <g>
       <use xlink:href="#m1e445fcb42" x="393.41" y="88.51403" style="stroke: #000000; stroke-width: 0.8"/>
      </g>
     </g>
     <g id="text_36">
      <!-- 6 -->
      <g transform="translate(380.0475 92.313249) scale(0.1 -0.1)">
       <use xlink:href="#DejaVuSans-36"/>
      </g>
     </g>
    </g>
    <g id="ytick_15">
     <g id="line2d_40">
      <g>
       <use xlink:href="#m1e445fcb42" x="393.41" y="62.259702" style="stroke: #000000; stroke-width: 0.8"/>
      </g>
     </g>
     <g id="text_37">
      <!-- 7 -->
      <g transform="translate(380.0475 66.05892) scale(0.1 -0.1)">
       <use xlink:href="#DejaVuSans-37"/>
      </g>
     </g>
    </g>
    <g id="ytick_16">
     <g id="line2d_41">
      <g>
       <use xlink:href="#m1e445fcb42" x="393.41" y="36.005373" style="stroke: #000000; stroke-width: 0.8"/>
      </g>
     </g>
     <g id="text_38">
      <!-- 8 -->
      <g transform="translate(380.0475 39.804592) scale(0.1 -0.1)">
       <use xlink:href="#DejaVuSans-38"/>
      </g>
     </g>
    </g>
    <g id="text_39">
     <!-- Catalyst Amount (mol) -->
     <g transform="translate(373.967813 195.820312) rotate(-90) scale(0.1 -0.1)">
      <defs>
       <path id="DejaVuSans-43" d="M 4122 4306 
L 4122 3641 
Q 3803 3938 3442 4084 
Q 3081 4231 2675 4231 
Q 1875 4231 1450 3742 
Q 1025 3253 1025 2328 
Q 1025 1406 1450 917 
Q 1875 428 2675 428 
Q 3081 428 3442 575 
Q 3803 722 4122 1019 
L 4122 359 
Q 3791 134 3420 21 
Q 3050 -91 2638 -91 
Q 1578 -91 968 557 
Q 359 1206 359 2328 
Q 359 3453 968 4101 
Q 1578 4750 2638 4750 
Q 3056 4750 3426 4639 
Q 3797 4528 4122 4306 
z
" transform="scale(0.015625)"/>
       <path id="DejaVuSans-79" d="M 2059 -325 
Q 1816 -950 1584 -1140 
Q 1353 -1331 966 -1331 
L 506 -1331 
L 506 -850 
L 844 -850 
Q 1081 -850 1212 -737 
Q 1344 -625 1503 -206 
L 1606 56 
L 191 3500 
L 800 3500 
L 1894 763 
L 2988 3500 
L 3597 3500 
L 2059 -325 
z
" transform="scale(0.015625)"/>
       <path id="DejaVuSans-73" d="M 2834 3397 
L 2834 2853 
Q 2591 2978 2328 3040 
Q 2066 3103 1784 3103 
Q 1356 3103 1142 2972 
Q 928 2841 928 2578 
Q 928 2378 1081 2264 
Q 1234 2150 1697 2047 
L 1894 2003 
Q 2506 1872 2764 1633 
Q 3022 1394 3022 966 
Q 3022 478 2636 193 
Q 2250 -91 1575 -91 
Q 1294 -91 989 -36 
Q 684 19 347 128 
L 347 722 
Q 666 556 975 473 
Q 1284 391 1588 391 
Q 1994 391 2212 530 
Q 2431 669 2431 922 
Q 2431 1156 2273 1281 
Q 2116 1406 1581 1522 
L 1381 1569 
Q 847 1681 609 1914 
Q 372 2147 372 2553 
Q 372 3047 722 3315 
Q 1072 3584 1716 3584 
Q 2034 3584 2315 3537 
Q 2597 3491 2834 3397 
z
" transform="scale(0.015625)"/>
       <path id="DejaVuSans-41" d="M 2188 4044 
L 1331 1722 
L 3047 1722 
L 2188 4044 
z
M 1831 4666 
L 2547 4666 
L 4325 0 
L 3669 0 
L 3244 1197 
L 1141 1197 
L 716 0 
L 50 0 
L 1831 4666 
z
" transform="scale(0.015625)"/>
       <path id="DejaVuSans-b5" d="M 544 -1331 
L 544 3500 
L 1119 3500 
L 1119 1325 
Q 1119 872 1334 640 
Q 1550 409 1972 409 
Q 2434 409 2667 671 
Q 2900 934 2900 1459 
L 2900 3500 
L 3475 3500 
L 3475 806 
Q 3475 619 3529 530 
Q 3584 441 3700 441 
Q 3728 441 3778 458 
Q 3828 475 3916 513 
L 3916 50 
Q 3788 -22 3673 -56 
Q 3559 -91 3450 -91 
Q 3234 -91 3106 31 
Q 2978 153 2931 403 
Q 2775 156 2548 32 
Q 2322 -91 2016 -91 
Q 1697 -91 1473 31 
Q 1250 153 1119 397 
L 1119 -1331 
L 544 -1331 
z
" transform="scale(0.015625)"/>
      </defs>
      <use xlink:href="#DejaVuSans-43"/>
      <use xlink:href="#DejaVuSans-61" transform="translate(69.824219 0)"/>
      <use xlink:href="#DejaVuSans-74" transform="translate(131.103516 0)"/>
      <use xlink:href="#DejaVuSans-61" transform="translate(170.3125 0)"/>
      <use xlink:href="#DejaVuSans-6c" transform="translate(231.591797 0)"/>
      <use xlink:href="#DejaVuSans-79" transform="translate(259.375 0)"/>
      <use xlink:href="#DejaVuSans-73" transform="translate(318.554688 0)"/>
      <use xlink:href="#DejaVuSans-74" transform="translate(370.654297 0)"/>
      <use xlink:href="#DejaVuSans-20" transform="translate(409.863281 0)"/>
      <use xlink:href="#DejaVuSans-41" transform="translate(441.650391 0)"/>
      <use xlink:href="#DejaVuSans-6d" transform="translate(510.058594 0)"/>
      <use xlink:href="#DejaVuSans-6f" transform="translate(607.470703 0)"/>
      <use xlink:href="#DejaVuSans-75" transform="translate(668.652344 0)"/>
      <use xlink:href="#DejaVuSans-6e" transform="translate(732.03125 0)"/>
      <use xlink:href="#DejaVuSans-74" transform="translate(795.410156 0)"/>
      <use xlink:href="#DejaVuSans-20" transform="translate(834.619141 0)"/>
      <use xlink:href="#DejaVuSans-28" transform="translate(866.40625 0)"/>
      <use xlink:href="#DejaVuSans-b5" transform="translate(905.419922 0)"/>
      <use xlink:href="#DejaVuSans-6d" transform="translate(969.042969 0)"/>
      <use xlink:href="#DejaVuSans-6f" transform="translate(1066.455078 0)"/>
      <use xlink:href="#DejaVuSans-6c" transform="translate(1127.636719 0)"/>
      <use xlink:href="#DejaVuSans-29" transform="translate(1155.419922 0)"/>
     </g>
    </g>
   </g>
   <g id="line2d_42">
    <path d="M 403.879545 221.061818 
L 418.836039 193.741974 
L 433.792532 185.251 
L 448.749026 220.503775 
L 463.705519 232.912836 
L 478.662013 184.691327 
L 493.618506 216.55889 
L 508.575 232.912836 
L 523.531494 232.912836 
L 538.487987 232.912836 
L 553.444481 232.912836 
L 568.400974 232.912836 
L 583.357468 232.912836 
L 598.313961 114.768358 
L 613.270455 187.393896 
" clip-path="url(#p7f202bf785)" style="fill: none; stroke: #1f77b4; stroke-width: 1.5; stroke-linecap: square"/>
    <g clip-path="url(#p7f202bf785)">
     <use xlink:href="#m1268810d00" x="403.879545" y="221.061818" style="fill: #1f77b4; stroke: #1f77b4"/>
     <use xlink:href="#m1268810d00" x="418.836039" y="193.741974" style="fill: #1f77b4; stroke: #1f77b4"/>
     <use xlink:href="#m1268810d00" x="433.792532" y="185.251" style="fill: #1f77b4; stroke: #1f77b4"/>
     <use xlink:href="#m1268810d00" x="448.749026" y="220.503775" style="fill: #1f77b4; stroke: #1f77b4"/>
     <use xlink:href="#m1268810d00" x="463.705519" y="232.912836" style="fill: #1f77b4; stroke: #1f77b4"/>
     <use xlink:href="#m1268810d00" x="478.662013" y="184.691327" style="fill: #1f77b4; stroke: #1f77b4"/>
     <use xlink:href="#m1268810d00" x="493.618506" y="216.55889" style="fill: #1f77b4; stroke: #1f77b4"/>
     <use xlink:href="#m1268810d00" x="508.575" y="232.912836" style="fill: #1f77b4; stroke: #1f77b4"/>
     <use xlink:href="#m1268810d00" x="523.531494" y="232.912836" style="fill: #1f77b4; stroke: #1f77b4"/>
     <use xlink:href="#m1268810d00" x="538.487987" y="232.912836" style="fill: #1f77b4; stroke: #1f77b4"/>
     <use xlink:href="#m1268810d00" x="553.444481" y="232.912836" style="fill: #1f77b4; stroke: #1f77b4"/>
     <use xlink:href="#m1268810d00" x="568.400974" y="232.912836" style="fill: #1f77b4; stroke: #1f77b4"/>
     <use xlink:href="#m1268810d00" x="583.357468" y="232.912836" style="fill: #1f77b4; stroke: #1f77b4"/>
     <use xlink:href="#m1268810d00" x="598.313961" y="114.768358" style="fill: #1f77b4; stroke: #1f77b4"/>
     <use xlink:href="#m1268810d00" x="613.270455" y="187.393896" style="fill: #1f77b4; stroke: #1f77b4"/>
    </g>
   </g>
   <g id="line2d_43">
    <path d="M 403.879545 121.025709 
L 418.836039 132.051643 
L 433.792532 232.912836 
L 448.749026 153.288909 
L 463.705519 154.278745 
L 478.662013 150.314527 
L 493.618506 184.929391 
L 508.575 193.531343 
L 523.531494 232.912836 
L 538.487987 193.531343 
L 553.444481 123.090629 
L 568.400974 114.768358 
L 583.357468 232.912836 
L 598.313961 232.912836 
L 613.270455 230.684999 
" clip-path="url(#p7f202bf785)" style="fill: none; stroke: #ff7f0e; stroke-width: 1.5; stroke-linecap: square"/>
    <g clip-path="url(#p7f202bf785)">
     <use xlink:href="#mcc6794623f" x="403.879545" y="121.025709" style="fill: #ff7f0e; stroke: #ff7f0e"/>
     <use xlink:href="#mcc6794623f" x="418.836039" y="132.051643" style="fill: #ff7f0e; stroke: #ff7f0e"/>
     <use xlink:href="#mcc6794623f" x="433.792532" y="232.912836" style="fill: #ff7f0e; stroke: #ff7f0e"/>
     <use xlink:href="#mcc6794623f" x="448.749026" y="153.288909" style="fill: #ff7f0e; stroke: #ff7f0e"/>
     <use xlink:href="#mcc6794623f" x="463.705519" y="154.278745" style="fill: #ff7f0e; stroke: #ff7f0e"/>
     <use xlink:href="#mcc6794623f" x="478.662013" y="150.314527" style="fill: #ff7f0e; stroke: #ff7f0e"/>
     <use xlink:href="#mcc6794623f" x="493.618506" y="184.929391" style="fill: #ff7f0e; stroke: #ff7f0e"/>
     <use xlink:href="#mcc6794623f" x="508.575" y="193.531343" style="fill: #ff7f0e; stroke: #ff7f0e"/>
     <use xlink:href="#mcc6794623f" x="523.531494" y="232.912836" style="fill: #ff7f0e; stroke: #ff7f0e"/>
     <use xlink:href="#mcc6794623f" x="538.487987" y="193.531343" style="fill: #ff7f0e; stroke: #ff7f0e"/>
     <use xlink:href="#mcc6794623f" x="553.444481" y="123.090629" style="fill: #ff7f0e; stroke: #ff7f0e"/>
     <use xlink:href="#mcc6794623f" x="568.400974" y="114.768358" style="fill: #ff7f0e; stroke: #ff7f0e"/>
     <use xlink:href="#mcc6794623f" x="583.357468" y="232.912836" style="fill: #ff7f0e; stroke: #ff7f0e"/>
     <use xlink:href="#mcc6794623f" x="598.313961" y="232.912836" style="fill: #ff7f0e; stroke: #ff7f0e"/>
     <use xlink:href="#mcc6794623f" x="613.270455" y="230.684999" style="fill: #ff7f0e; stroke: #ff7f0e"/>
    </g>
   </g>
   <g id="line2d_44">
    <path d="M 403.879545 217.628021 
L 418.836039 228.617515 
L 433.792532 123.048702 
L 448.749026 180.998212 
L 463.705519 154.020956 
L 478.662013 217.285776 
L 493.618506 219.5602 
L 508.575 232.912836 
L 523.531494 114.768358 
L 538.487987 114.768358 
L 553.444481 232.912836 
L 568.400974 232.912836 
L 583.357468 114.768358 
L 598.313961 193.531343 
L 613.270455 225.897702 
" clip-path="url(#p7f202bf785)" style="fill: none; stroke: #2ca02c; stroke-width: 1.5; stroke-linecap: square"/>
    <g clip-path="url(#p7f202bf785)">
     <use xlink:href="#m255ea64515" x="403.879545" y="217.628021" style="fill: #2ca02c; stroke: #2ca02c"/>
     <use xlink:href="#m255ea64515" x="418.836039" y="228.617515" style="fill: #2ca02c; stroke: #2ca02c"/>
     <use xlink:href="#m255ea64515" x="433.792532" y="123.048702" style="fill: #2ca02c; stroke: #2ca02c"/>
     <use xlink:href="#m255ea64515" x="448.749026" y="180.998212" style="fill: #2ca02c; stroke: #2ca02c"/>
     <use xlink:href="#m255ea64515" x="463.705519" y="154.020956" style="fill: #2ca02c; stroke: #2ca02c"/>
     <use xlink:href="#m255ea64515" x="478.662013" y="217.285776" style="fill: #2ca02c; stroke: #2ca02c"/>
     <use xlink:href="#m255ea64515" x="493.618506" y="219.5602" style="fill: #2ca02c; stroke: #2ca02c"/>
     <use xlink:href="#m255ea64515" x="508.575" y="232.912836" style="fill: #2ca02c; stroke: #2ca02c"/>
     <use xlink:href="#m255ea64515" x="523.531494" y="114.768358" style="fill: #2ca02c; stroke: #2ca02c"/>
     <use xlink:href="#m255ea64515" x="538.487987" y="114.768358" style="fill: #2ca02c; stroke: #2ca02c"/>
     <use xlink:href="#m255ea64515" x="553.444481" y="232.912836" style="fill: #2ca02c; stroke: #2ca02c"/>
     <use xlink:href="#m255ea64515" x="568.400974" y="232.912836" style="fill: #2ca02c; stroke: #2ca02c"/>
     <use xlink:href="#m255ea64515" x="583.357468" y="114.768358" style="fill: #2ca02c; stroke: #2ca02c"/>
     <use xlink:href="#m255ea64515" x="598.313961" y="193.531343" style="fill: #2ca02c; stroke: #2ca02c"/>
     <use xlink:href="#m255ea64515" x="613.270455" y="225.897702" style="fill: #2ca02c; stroke: #2ca02c"/>
    </g>
   </g>
   <g id="line2d_45">
    <path d="M 403.879545 214.409825 
L 418.836039 219.714242 
L 433.792532 232.912836 
L 448.749026 219.334477 
L 463.705519 232.912836 
L 478.662013 221.833744 
L 493.618506 153.076892 
L 508.575 114.768358 
L 523.531494 193.531343 
L 538.487987 232.912836 
L 553.444481 185.209073 
L 568.400974 193.531343 
L 583.357468 193.531343 
L 598.313961 232.912836 
L 613.270455 130.148776 
" clip-path="url(#p7f202bf785)" style="fill: none; stroke: #d62728; stroke-width: 1.5; stroke-linecap: square"/>
    <g clip-path="url(#p7f202bf785)">
     <use xlink:href="#md2639fb6b4" x="403.879545" y="214.409825" style="fill: #d62728; stroke: #d62728"/>
     <use xlink:href="#md2639fb6b4" x="418.836039" y="219.714242" style="fill: #d62728; stroke: #d62728"/>
     <use xlink:href="#md2639fb6b4" x="433.792532" y="232.912836" style="fill: #d62728; stroke: #d62728"/>
     <use xlink:href="#md2639fb6b4" x="448.749026" y="219.334477" style="fill: #d62728; stroke: #d62728"/>
     <use xlink:href="#md2639fb6b4" x="463.705519" y="232.912836" style="fill: #d62728; stroke: #d62728"/>
     <use xlink:href="#md2639fb6b4" x="478.662013" y="221.833744" style="fill: #d62728; stroke: #d62728"/>
     <use xlink:href="#md2639fb6b4" x="493.618506" y="153.076892" style="fill: #d62728; stroke: #d62728"/>
     <use xlink:href="#md2639fb6b4" x="508.575" y="114.768358" style="fill: #d62728; stroke: #d62728"/>
     <use xlink:href="#md2639fb6b4" x="523.531494" y="193.531343" style="fill: #d62728; stroke: #d62728"/>
     <use xlink:href="#md2639fb6b4" x="538.487987" y="232.912836" style="fill: #d62728; stroke: #d62728"/>
     <use xlink:href="#md2639fb6b4" x="553.444481" y="185.209073" style="fill: #d62728; stroke: #d62728"/>
     <use xlink:href="#md2639fb6b4" x="568.400974" y="193.531343" style="fill: #d62728; stroke: #d62728"/>
     <use xlink:href="#md2639fb6b4" x="583.357468" y="193.531343" style="fill: #d62728; stroke: #d62728"/>
     <use xlink:href="#md2639fb6b4" x="598.313961" y="232.912836" style="fill: #d62728; stroke: #d62728"/>
     <use xlink:href="#md2639fb6b4" x="613.270455" y="130.148776" style="fill: #d62728; stroke: #d62728"/>
    </g>
   </g>
   <g id="line2d_46">
    <path d="M 393.41 36.005373 
L 623.74 36.005373 
" clip-path="url(#p7f202bf785)" style="fill: none; stroke: #000000; stroke-width: 1.5; stroke-linecap: square"/>
   </g>
   <g id="patch_9">
    <path d="M 393.41 246.04 
L 393.41 26.16 
" style="fill: none; stroke: #000000; stroke-width: 0.8; stroke-linejoin: miter; stroke-linecap: square"/>
   </g>
   <g id="patch_10">
    <path d="M 623.74 246.04 
L 623.74 26.16 
" style="fill: none; stroke: #000000; stroke-width: 0.8; stroke-linejoin: miter; stroke-linecap: square"/>
   </g>
   <g id="patch_11">
    <path d="M 393.41 246.04 
L 623.74 246.04 
" style="fill: none; stroke: #000000; stroke-width: 0.8; stroke-linejoin: miter; stroke-linecap: square"/>
   </g>
   <g id="patch_12">
    <path d="M 393.41 26.16 
L 623.74 26.16 
" style="fill: none; stroke: #000000; stroke-width: 0.8; stroke-linejoin: miter; stroke-linecap: square"/>
   </g>
   <g id="text_40">
    <!-- Catalyst -->
    <g transform="translate(483.983438 20.16) scale(0.12 -0.12)">
     <use xlink:href="#DejaVuSans-43"/>
     <use xlink:href="#DejaVuSans-61" transform="translate(69.824219 0)"/>
     <use xlink:href="#DejaVuSans-74" transform="translate(131.103516 0)"/>
     <use xlink:href="#DejaVuSans-61" transform="translate(170.3125 0)"/>
     <use xlink:href="#DejaVuSans-6c" transform="translate(231.591797 0)"/>
     <use xlink:href="#DejaVuSans-79" transform="translate(259.375 0)"/>
     <use xlink:href="#DejaVuSans-73" transform="translate(318.554688 0)"/>
     <use xlink:href="#DejaVuSans-74" transform="translate(370.654297 0)"/>
    </g>
   </g>
   <g id="legend_2">
    <g id="patch_13">
     <path d="M 630.74 181.634375 
L 707.243125 181.634375 
Q 709.243125 181.634375 709.243125 179.634375 
L 709.243125 92.565625 
Q 709.243125 90.565625 707.243125 90.565625 
L 630.74 90.565625 
Q 628.74 90.565625 628.74 92.565625 
L 628.74 179.634375 
Q 628.74 181.634375 630.74 181.634375 
z
" style="fill: #ffffff; opacity: 0.8; stroke: #cccccc; stroke-linejoin: miter"/>
    </g>
    <g id="line2d_47">
     <path d="M 632.74 98.664062 
L 642.74 98.664062 
L 652.74 98.664062 
" style="fill: none; stroke: #1f77b4; stroke-width: 1.5; stroke-linecap: square"/>
     <g>
      <use xlink:href="#m1268810d00" x="642.74" y="98.664062" style="fill: #1f77b4; stroke: #1f77b4"/>
     </g>
    </g>
    <g id="text_41">
     <!-- Exp 1 -->
     <g transform="translate(660.74 102.164062) scale(0.1 -0.1)">
      <use xlink:href="#DejaVuSans-45"/>
      <use xlink:href="#DejaVuSans-78" transform="translate(63.183594 0)"/>
      <use xlink:href="#DejaVuSans-70" transform="translate(122.363281 0)"/>
      <use xlink:href="#DejaVuSans-20" transform="translate(185.839844 0)"/>
      <use xlink:href="#DejaVuSans-31" transform="translate(217.626953 0)"/>
     </g>
    </g>
    <g id="line2d_48">
     <path d="M 632.74 113.342187 
L 642.74 113.342187 
L 652.74 113.342187 
" style="fill: none; stroke: #ff7f0e; stroke-width: 1.5; stroke-linecap: square"/>
     <g>
      <use xlink:href="#mcc6794623f" x="642.74" y="113.342187" style="fill: #ff7f0e; stroke: #ff7f0e"/>
     </g>
    </g>
    <g id="text_42">
     <!-- Exp 2 -->
     <g transform="translate(660.74 116.842187) scale(0.1 -0.1)">
      <use xlink:href="#DejaVuSans-45"/>
      <use xlink:href="#DejaVuSans-78" transform="translate(63.183594 0)"/>
      <use xlink:href="#DejaVuSans-70" transform="translate(122.363281 0)"/>
      <use xlink:href="#DejaVuSans-20" transform="translate(185.839844 0)"/>
      <use xlink:href="#DejaVuSans-32" transform="translate(217.626953 0)"/>
     </g>
    </g>
    <g id="line2d_49">
     <path d="M 632.74 128.020312 
L 642.74 128.020312 
L 652.74 128.020312 
" style="fill: none; stroke: #2ca02c; stroke-width: 1.5; stroke-linecap: square"/>
     <g>
      <use xlink:href="#m255ea64515" x="642.74" y="128.020312" style="fill: #2ca02c; stroke: #2ca02c"/>
     </g>
    </g>
    <g id="text_43">
     <!-- Exp 3 -->
     <g transform="translate(660.74 131.520312) scale(0.1 -0.1)">
      <use xlink:href="#DejaVuSans-45"/>
      <use xlink:href="#DejaVuSans-78" transform="translate(63.183594 0)"/>
      <use xlink:href="#DejaVuSans-70" transform="translate(122.363281 0)"/>
      <use xlink:href="#DejaVuSans-20" transform="translate(185.839844 0)"/>
      <use xlink:href="#DejaVuSans-33" transform="translate(217.626953 0)"/>
     </g>
    </g>
    <g id="line2d_50">
     <path d="M 632.74 142.698437 
L 642.74 142.698437 
L 652.74 142.698437 
" style="fill: none; stroke: #d62728; stroke-width: 1.5; stroke-linecap: square"/>
     <g>
      <use xlink:href="#md2639fb6b4" x="642.74" y="142.698437" style="fill: #d62728; stroke: #d62728"/>
     </g>
    </g>
    <g id="text_44">
     <!-- Exp 4 -->
     <g transform="translate(660.74 146.198437) scale(0.1 -0.1)">
      <use xlink:href="#DejaVuSans-45"/>
      <use xlink:href="#DejaVuSans-78" transform="translate(63.183594 0)"/>
      <use xlink:href="#DejaVuSans-70" transform="translate(122.363281 0)"/>
      <use xlink:href="#DejaVuSans-20" transform="translate(185.839844 0)"/>
      <use xlink:href="#DejaVuSans-34" transform="translate(217.626953 0)"/>
     </g>
    </g>
    <g id="line2d_51">
     <path d="M 632.74 157.376562 
L 642.74 157.376562 
L 652.74 157.376562 
" style="fill: none; stroke: #9467bd; stroke-width: 1.5; stroke-linecap: square"/>
     <g>
      <use xlink:href="#m24b689bf03" x="642.74" y="157.376562" style="fill: #9467bd; stroke: #9467bd; stroke-linejoin: miter"/>
     </g>
    </g>
    <g id="text_45">
     <!-- Total -->
     <g transform="translate(660.74 160.876562) scale(0.1 -0.1)">
      <use xlink:href="#DejaVuSans-54"/>
      <use xlink:href="#DejaVuSans-6f" transform="translate(44.083984 0)"/>
      <use xlink:href="#DejaVuSans-74" transform="translate(105.265625 0)"/>
      <use xlink:href="#DejaVuSans-61" transform="translate(144.474609 0)"/>
      <use xlink:href="#DejaVuSans-6c" transform="translate(205.753906 0)"/>
     </g>
    </g>
    <g id="line2d_52">
     <path d="M 632.74 172.054687 
L 642.74 172.054687 
L 652.74 172.054687 
" style="fill: none; stroke: #000000; stroke-width: 1.5; stroke-linecap: square"/>
    </g>
    <g id="text_46">
     <!-- Required -->
     <g transform="translate(660.74 175.554687) scale(0.1 -0.1)">
      <defs>
       <path id="DejaVuSans-52" d="M 2841 2188 
Q 3044 2119 3236 1894 
Q 3428 1669 3622 1275 
L 4263 0 
L 3584 0 
L 2988 1197 
Q 2756 1666 2539 1819 
Q 2322 1972 1947 1972 
L 1259 1972 
L 1259 0 
L 628 0 
L 628 4666 
L 2053 4666 
Q 2853 4666 3247 4331 
Q 3641 3997 3641 3322 
Q 3641 2881 3436 2590 
Q 3231 2300 2841 2188 
z
M 1259 4147 
L 1259 2491 
L 2053 2491 
Q 2509 2491 2742 2702 
Q 2975 2913 2975 3322 
Q 2975 3731 2742 3939 
Q 2509 4147 2053 4147 
L 1259 4147 
z
" transform="scale(0.015625)"/>
       <path id="DejaVuSans-71" d="M 947 1747 
Q 947 1113 1208 752 
Q 1469 391 1925 391 
Q 2381 391 2643 752 
Q 2906 1113 2906 1747 
Q 2906 2381 2643 2742 
Q 2381 3103 1925 3103 
Q 1469 3103 1208 2742 
Q 947 2381 947 1747 
z
M 2906 525 
Q 2725 213 2448 61 
Q 2172 -91 1784 -91 
Q 1150 -91 751 415 
Q 353 922 353 1747 
Q 353 2572 751 3078 
Q 1150 3584 1784 3584 
Q 2172 3584 2448 3432 
Q 2725 3281 2906 2969 
L 2906 3500 
L 3481 3500 
L 3481 -1331 
L 2906 -1331 
L 2906 525 
z
" transform="scale(0.015625)"/>
       <path id="DejaVuSans-69" d="M 603 3500 
L 1178 3500 
L 1178 0 
L 603 0 
L 603 3500 
z
M 603 4863 
L 1178 4863 
L 1178 4134 
L 603 4134 
L 603 4863 
z
" transform="scale(0.015625)"/>
       <path id="DejaVuSans-72" d="M 2631 2963 
Q 2534 3019 2420 3045 
Q 2306 3072 2169 3072 
Q 1681 3072 1420 2755 
Q 1159 2438 1159 1844 
L 1159 0 
L 581 0 
L 581 3500 
L 1159 3500 
L 1159 2956 
Q 1341 3275 1631 3429 
Q 1922 3584 2338 3584 
Q 2397 3584 2469 3576 
Q 2541 3569 2628 3553 
L 2631 2963 
z
" transform="scale(0.015625)"/>
      </defs>
      <use xlink:href="#DejaVuSans-52"/>
      <use xlink:href="#DejaVuSans-65" transform="translate(64.982422 0)"/>
      <use xlink:href="#DejaVuSans-71" transform="translate(126.505859 0)"/>
      <use xlink:href="#DejaVuSans-75" transform="translate(189.982422 0)"/>
      <use xlink:href="#DejaVuSans-69" transform="translate(253.361328 0)"/>
      <use xlink:href="#DejaVuSans-72" transform="translate(281.144531 0)"/>
      <use xlink:href="#DejaVuSans-65" transform="translate(320.007812 0)"/>
      <use xlink:href="#DejaVuSans-64" transform="translate(381.53125 0)"/>
     </g>
    </g>
   </g>
  </g>
 </g>
 <defs>
  <clipPath id="pdfae50f166">
   <rect x="47.855" y="26.16" width="230.33" height="219.88"/>
  </clipPath>
  <clipPath id="p7f202bf785">
   <rect x="393.41" y="26.16" width="230.33" height="219.88"/>
  </clipPath>
 </defs>
</svg>
