<?xml version="1.0" encoding="utf-8" standalone="no"?>
<!DOCTYPE svg PUBLIC "-//W3C//DTD SVG 1.1//EN"
  "http://www.w3.org/Graphics/SVG/1.1/DTD/svg11.dtd">
<svg xmlns:xlink="http://www.w3.org/1999/xlink" width="1728pt" height="576pt" viewBox="0 0 1728 576" xmlns="http://www.w3.org/2000/svg" version="1.1">
 <metadata>
  <rdf:RDF xmlns:dc="http://purl.org/dc/elements/1.1/" xmlns:cc="http://creativecommons.org/ns#" xmlns:rdf="http://www.w3.org/1999/02/22-rdf-syntax-ns#">
   <cc:Work>
    <dc:type rdf:resource="http://purl.org/dc/dcmitype/StillImage"/>
    <dc:date>2024-10-09T14:57:50.630496</dc:date>
    <dc:format>image/svg+xml</dc:format>
    <dc:creator>
     <cc:Agent>
      <dc:title>Matplotlib v3.9.2, https://matplotlib.org/</dc:title>
     </cc:Agent>
    </dc:creator>
   </cc:Work>
  </rdf:RDF>
 </metadata>
 <defs>
  <style type="text/css">*{stroke-linejoin: round; stroke-linecap: butt}</style>
 </defs>
 <g id="figure_1">
  <g id="patch_1">
   <path d="M 0 576 
L 1728 576 
L 1728 0 
L 0 0 
L 0 576 
z
" style="fill: none"/>
  </g>
  <g id="axes_1">
   <g id="patch_2">
    <path d="M 216 512.64 
L 1555.2 512.64 
L 1555.2 69.12 
L 216 69.12 
L 216 512.64 
z
" style="fill: none"/>
   </g>
   <g id="PolyCollection_1">
    <defs>
     <path id="mb37e2a6f11" d="M 276.872727 -136.134749 
L 276.872727 -91.027696 
L 340.949282 -181.618997 
L 405.025837 -270.117441 
L 469.102392 -323.621306 
L 533.178947 -361.799017 
L 597.255502 -382.313217 
L 661.332057 -398.25678 
L 725.408612 -412.243711 
L 789.485167 -424.927015 
L 853.561722 -433.232517 
L 917.638278 -443.510568 
L 981.714833 -448.399861 
L 1045.791388 -453.957997 
L 1109.867943 -457.184779 
L 1173.944498 -462.994761 
L 1238.021053 -466.900314 
L 1302.097608 -469.980585 
L 1366.174163 -473.221982 
L 1430.250718 -476.01345 
L 1494.327273 -477.196955 
L 1494.327273 -486.72 
L 1494.327273 -486.72 
L 1430.250718 -485.28797 
L 1366.174163 -483.991339 
L 1302.097608 -481.211293 
L 1238.021053 -478.013833 
L 1173.944498 -475.681056 
L 1109.867943 -471.381682 
L 1045.791388 -468.972238 
L 981.714833 -465.970409 
L 917.638278 -461.089987 
L 853.561722 -453.360623 
L 789.485167 -446.030127 
L 725.408612 -435.965211 
L 661.332057 -425.238921 
L 597.255502 -411.997098 
L 533.178947 -393.038234 
L 469.102392 -360.577895 
L 405.025837 -307.817993 
L 340.949282 -221.830985 
L 276.872727 -136.134749 
z
" style="stroke: #1f77b4; stroke-opacity: 0.2"/>
    </defs>
    <g clip-path="url(#peacfc3855d)">
     <use xlink:href="#mb37e2a6f11" x="0" y="576" style="fill: #1f77b4; fill-opacity: 0.2; stroke: #1f77b4; stroke-opacity: 0.2"/>
    </g>
   </g>
   <g id="PolyCollection_2">
    <defs>
     <path id="mda4f4228f4" d="M 276.872727 -131.954512 
L 276.872727 -90.635312 
L 340.949282 -177.238916 
L 405.025837 -223.42698 
L 469.102392 -270.014837 
L 533.178947 -295.044961 
L 597.255502 -321.225693 
L 661.332057 -355.17371 
L 725.408612 -380.905269 
L 789.485167 -395.949264 
L 853.561722 -408.766707 
L 917.638278 -416.65545 
L 981.714833 -423.421187 
L 1045.791388 -431.279291 
L 1109.867943 -437.845746 
L 1173.944498 -440.847718 
L 1238.021053 -445.62566 
L 1302.097608 -449.48936 
L 1366.174163 -451.994341 
L 1430.250718 -454.527508 
L 1494.327273 -456.443382 
L 1494.327273 -467.708264 
L 1494.327273 -467.708264 
L 1430.250718 -466.472239 
L 1366.174163 -464.326797 
L 1302.097608 -461.823671 
L 1238.021053 -458.944653 
L 1173.944498 -455.868407 
L 1109.867943 -453.305314 
L 1045.791388 -448.550175 
L 981.714833 -443.570305 
L 917.638278 -437.463556 
L 853.561722 -431.305099 
L 789.485167 -421.972703 
L 725.408612 -409.523144 
L 661.332057 -389.351697 
L 597.255502 -361.22382 
L 533.178947 -339.16519 
L 469.102392 -312.582858 
L 405.025837 -268.461867 
L 340.949282 -222.549875 
L 276.872727 -131.954512 
z
" style="stroke: #ff7f0e; stroke-opacity: 0.2"/>
    </defs>
    <g clip-path="url(#peacfc3855d)">
     <use xlink:href="#mda4f4228f4" x="0" y="576" style="fill: #ff7f0e; fill-opacity: 0.2; stroke: #ff7f0e; stroke-opacity: 0.2"/>
    </g>
   </g>
   <g id="PolyCollection_3">
    <defs>
     <path id="m4ba20d25c4" d="M 276.872727 -127.969777 
L 276.872727 -83.52 
L 340.949282 -170.302658 
L 405.025837 -211.32333 
L 469.102392 -250.499992 
L 533.178947 -276.788144 
L 597.255502 -301.158079 
L 661.332057 -319.252131 
L 725.408612 -343.66573 
L 789.485167 -366.700093 
L 853.561722 -377.915431 
L 917.638278 -390.134099 
L 981.714833 -399.580592 
L 1045.791388 -408.345778 
L 1109.867943 -412.064743 
L 1173.944498 -415.673183 
L 1238.021053 -420.256241 
L 1302.097608 -427.14481 
L 1366.174163 -431.951549 
L 1430.250718 -435.470153 
L 1494.327273 -438.732526 
L 1494.327273 -454.43384 
L 1494.327273 -454.43384 
L 1430.250718 -452.605682 
L 1366.174163 -449.346429 
L 1302.097608 -445.30701 
L 1238.021053 -439.18106 
L 1173.944498 -435.354057 
L 1109.867943 -432.427895 
L 1045.791388 -427.828124 
L 981.714833 -420.824494 
L 917.638278 -412.919189 
L 853.561722 -402.111962 
L 789.485167 -390.504133 
L 725.408612 -373.025541 
L 661.332057 -353.232805 
L 597.255502 -336.867299 
L 533.178947 -316.149604 
L 469.102392 -291.202725 
L 405.025837 -250.416791 
L 340.949282 -215.11403 
L 276.872727 -127.969777 
z
" style="stroke: #2ca02c; stroke-opacity: 0.2"/>
    </defs>
    <g clip-path="url(#peacfc3855d)">
     <use xlink:href="#m4ba20d25c4" x="0" y="576" style="fill: #2ca02c; fill-opacity: 0.2; stroke: #2ca02c; stroke-opacity: 0.2"/>
    </g>
   </g>
   <g id="PolyCollection_4">
    <defs>
     <path id="m0e77c31bda" d="M 276.872727 -133.505751 
L 276.872727 -91.043079 
L 340.949282 -149.641128 
L 405.025837 -198.520759 
L 469.102392 -240.614137 
L 533.178947 -268.76619 
L 597.255502 -293.448369 
L 661.332057 -311.95504 
L 725.408612 -326.968433 
L 789.485167 -339.164917 
L 853.561722 -351.962074 
L 917.638278 -367.045793 
L 981.714833 -378.774895 
L 1045.791388 -385.572182 
L 1109.867943 -390.245386 
L 1173.944498 -395.393066 
L 1238.021053 -401.838292 
L 1302.097608 -407.418691 
L 1366.174163 -410.892208 
L 1430.250718 -415.823526 
L 1494.327273 -419.844937 
L 1494.327273 -440.077458 
L 1494.327273 -440.077458 
L 1430.250718 -436.245862 
L 1366.174163 -432.497589 
L 1302.097608 -428.06087 
L 1238.021053 -425.133134 
L 1173.944498 -420.233396 
L 1109.867943 -414.099416 
L 1045.791388 -409.840543 
L 981.714833 -404.312354 
L 917.638278 -394.967874 
L 853.561722 -382.34617 
L 789.485167 -371.82487 
L 725.408612 -363.115655 
L 661.332057 -350.515322 
L 597.255502 -333.420747 
L 533.178947 -308.966532 
L 469.102392 -285.968832 
L 405.025837 -244.715767 
L 340.949282 -195.200892 
L 276.872727 -133.505751 
z
" style="stroke: #d62728; stroke-opacity: 0.2"/>
    </defs>
    <g clip-path="url(#peacfc3855d)">
     <use xlink:href="#m0e77c31bda" x="0" y="576" style="fill: #d62728; fill-opacity: 0.2; stroke: #d62728; stroke-opacity: 0.2"/>
    </g>
   </g>
   <g id="PolyCollection_5">
    <defs>
     <path id="m7afd17ff1a" d="M 276.872727 -130.974172 
L 276.872727 -88.178675 
L 340.949282 -174.913364 
L 405.025837 -231.781976 
L 469.102392 -266.680837 
L 533.178947 -304.536354 
L 597.255502 -318.713876 
L 661.332057 -335.342975 
L 725.408612 -343.730809 
L 789.485167 -355.898394 
L 853.561722 -362.775188 
L 917.638278 -376.953019 
L 981.714833 -389.70537 
L 1045.791388 -399.70359 
L 1109.867943 -403.365664 
L 1173.944498 -409.879986 
L 1238.021053 -413.288094 
L 1302.097608 -416.972439 
L 1366.174163 -419.585378 
L 1430.250718 -421.056701 
L 1494.327273 -423.033836 
L 1494.327273 -435.597772 
L 1494.327273 -435.597772 
L 1430.250718 -434.195935 
L 1366.174163 -433.208996 
L 1302.097608 -430.603749 
L 1238.021053 -428.08278 
L 1173.944498 -425.05306 
L 1109.867943 -420.039274 
L 1045.791388 -416.357834 
L 981.714833 -408.654766 
L 917.638278 -399.011161 
L 853.561722 -385.048492 
L 789.485167 -380.261788 
L 725.408612 -370.233793 
L 661.332057 -361.773936 
L 597.255502 -348.758935 
L 533.178947 -336.469927 
L 469.102392 -302.655281 
L 405.025837 -270.270608 
L 340.949282 -218.184596 
L 276.872727 -130.974172 
z
" style="stroke: #9467bd; stroke-opacity: 0.2"/>
    </defs>
    <g clip-path="url(#peacfc3855d)">
     <use xlink:href="#m7afd17ff1a" x="0" y="576" style="fill: #9467bd; fill-opacity: 0.2; stroke: #9467bd; stroke-opacity: 0.2"/>
    </g>
   </g>
   <g id="matplotlib.axis_1">
    <g id="xtick_1">
     <g id="line2d_1">
      <defs>
       <path id="m97a6e61277" d="M 0 0 
L 0 3.5 
" style="stroke: #000000; stroke-width: 0.8"/>
      </defs>
      <g>
       <use xlink:href="#m97a6e61277" x="372.98756" y="512.64" style="stroke: #000000; stroke-width: 0.8"/>
      </g>
     </g>
     <g id="text_1">
      <!-- 5 -->
      <g style="fill: #ffffff" transform="translate(365.98881 536.356562) scale(0.22 -0.22)">
       <defs>
        <path id="DejaVuSans-35" d="M 691 4666 
L 3169 4666 
L 3169 4134 
L 1269 4134 
L 1269 2991 
Q 1406 3038 1543 3061 
Q 1681 3084 1819 3084 
Q 2600 3084 3056 2656 
Q 3513 2228 3513 1497 
Q 3513 744 3044 326 
Q 2575 -91 1722 -91 
Q 1428 -91 1123 -41 
Q 819 9 494 109 
L 494 744 
Q 775 591 1075 516 
Q 1375 441 1709 441 
Q 2250 441 2565 725 
Q 2881 1009 2881 1497 
Q 2881 1984 2565 2268 
Q 2250 2553 1709 2553 
Q 1456 2553 1204 2497 
Q 953 2441 691 2322 
L 691 4666 
z
" transform="scale(0.015625)"/>
       </defs>
       <use xlink:href="#DejaVuSans-35"/>
      </g>
     </g>
    </g>
    <g id="xtick_2">
     <g id="line2d_2">
      <g>
       <use xlink:href="#m97a6e61277" x="533.178947" y="512.64" style="stroke: #000000; stroke-width: 0.8"/>
      </g>
     </g>
     <g id="text_2">
      <!-- 10 -->
      <g style="fill: #ffffff" transform="translate(519.181447 536.356562) scale(0.22 -0.22)">
       <defs>
        <path id="DejaVuSans-31" d="M 794 531 
L 1825 531 
L 1825 4091 
L 703 3866 
L 703 4441 
L 1819 4666 
L 2450 4666 
L 2450 531 
L 3481 531 
L 3481 0 
L 794 0 
L 794 531 
z
" transform="scale(0.015625)"/>
        <path id="DejaVuSans-30" d="M 2034 4250 
Q 1547 4250 1301 3770 
Q 1056 3291 1056 2328 
Q 1056 1369 1301 889 
Q 1547 409 2034 409 
Q 2525 409 2770 889 
Q 3016 1369 3016 2328 
Q 3016 3291 2770 3770 
Q 2525 4250 2034 4250 
z
M 2034 4750 
Q 2819 4750 3233 4129 
Q 3647 3509 3647 2328 
Q 3647 1150 3233 529 
Q 2819 -91 2034 -91 
Q 1250 -91 836 529 
Q 422 1150 422 2328 
Q 422 3509 836 4129 
Q 1250 4750 2034 4750 
z
" transform="scale(0.015625)"/>
       </defs>
       <use xlink:href="#DejaVuSans-31"/>
       <use xlink:href="#DejaVuSans-30" x="63.623047"/>
      </g>
     </g>
    </g>
    <g id="xtick_3">
     <g id="line2d_3">
      <g>
       <use xlink:href="#m97a6e61277" x="693.370335" y="512.64" style="stroke: #000000; stroke-width: 0.8"/>
      </g>
     </g>
     <g id="text_3">
      <!-- 15 -->
      <g style="fill: #ffffff" transform="translate(679.372835 536.356562) scale(0.22 -0.22)">
       <use xlink:href="#DejaVuSans-31"/>
       <use xlink:href="#DejaVuSans-35" x="63.623047"/>
      </g>
     </g>
    </g>
    <g id="xtick_4">
     <g id="line2d_4">
      <g>
       <use xlink:href="#m97a6e61277" x="853.561722" y="512.64" style="stroke: #000000; stroke-width: 0.8"/>
      </g>
     </g>
     <g id="text_4">
      <!-- 20 -->
      <g style="fill: #ffffff" transform="translate(839.564222 536.356562) scale(0.22 -0.22)">
       <defs>
        <path id="DejaVuSans-32" d="M 1228 531 
L 3431 531 
L 3431 0 
L 469 0 
L 469 531 
Q 828 903 1448 1529 
Q 2069 2156 2228 2338 
Q 2531 2678 2651 2914 
Q 2772 3150 2772 3378 
Q 2772 3750 2511 3984 
Q 2250 4219 1831 4219 
Q 1534 4219 1204 4116 
Q 875 4013 500 3803 
L 500 4441 
Q 881 4594 1212 4672 
Q 1544 4750 1819 4750 
Q 2544 4750 2975 4387 
Q 3406 4025 3406 3419 
Q 3406 3131 3298 2873 
Q 3191 2616 2906 2266 
Q 2828 2175 2409 1742 
Q 1991 1309 1228 531 
z
" transform="scale(0.015625)"/>
       </defs>
       <use xlink:href="#DejaVuSans-32"/>
       <use xlink:href="#DejaVuSans-30" x="63.623047"/>
      </g>
     </g>
    </g>
    <g id="xtick_5">
     <g id="line2d_5">
      <g>
       <use xlink:href="#m97a6e61277" x="1013.75311" y="512.64" style="stroke: #000000; stroke-width: 0.8"/>
      </g>
     </g>
     <g id="text_5">
      <!-- 25 -->
      <g style="fill: #ffffff" transform="translate(999.75561 536.356562) scale(0.22 -0.22)">
       <use xlink:href="#DejaVuSans-32"/>
       <use xlink:href="#DejaVuSans-35" x="63.623047"/>
      </g>
     </g>
    </g>
    <g id="xtick_6">
     <g id="line2d_6">
      <g>
       <use xlink:href="#m97a6e61277" x="1173.944498" y="512.64" style="stroke: #000000; stroke-width: 0.8"/>
      </g>
     </g>
     <g id="text_6">
      <!-- 30 -->
      <g style="fill: #ffffff" transform="translate(1159.946998 536.356562) scale(0.22 -0.22)">
       <defs>
        <path id="DejaVuSans-33" d="M 2597 2516 
Q 3050 2419 3304 2112 
Q 3559 1806 3559 1356 
Q 3559 666 3084 287 
Q 2609 -91 1734 -91 
Q 1441 -91 1130 -33 
Q 819 25 488 141 
L 488 750 
Q 750 597 1062 519 
Q 1375 441 1716 441 
Q 2309 441 2620 675 
Q 2931 909 2931 1356 
Q 2931 1769 2642 2001 
Q 2353 2234 1838 2234 
L 1294 2234 
L 1294 2753 
L 1863 2753 
Q 2328 2753 2575 2939 
Q 2822 3125 2822 3475 
Q 2822 3834 2567 4026 
Q 2313 4219 1838 4219 
Q 1578 4219 1281 4162 
Q 984 4106 628 3988 
L 628 4550 
Q 988 4650 1302 4700 
Q 1616 4750 1894 4750 
Q 2613 4750 3031 4423 
Q 3450 4097 3450 3541 
Q 3450 3153 3228 2886 
Q 3006 2619 2597 2516 
z
" transform="scale(0.015625)"/>
       </defs>
       <use xlink:href="#DejaVuSans-33"/>
       <use xlink:href="#DejaVuSans-30" x="63.623047"/>
      </g>
     </g>
    </g>
    <g id="xtick_7">
     <g id="line2d_7">
      <g>
       <use xlink:href="#m97a6e61277" x="1334.135885" y="512.64" style="stroke: #000000; stroke-width: 0.8"/>
      </g>
     </g>
     <g id="text_7">
      <!-- 35 -->
      <g style="fill: #ffffff" transform="translate(1320.138385 536.356562) scale(0.22 -0.22)">
       <use xlink:href="#DejaVuSans-33"/>
       <use xlink:href="#DejaVuSans-35" x="63.623047"/>
      </g>
     </g>
    </g>
    <g id="xtick_8">
     <g id="line2d_8">
      <g>
       <use xlink:href="#m97a6e61277" x="1494.327273" y="512.64" style="stroke: #000000; stroke-width: 0.8"/>
      </g>
     </g>
     <g id="text_8">
      <!-- 40 -->
      <g style="fill: #ffffff" transform="translate(1480.329773 536.356562) scale(0.22 -0.22)">
       <defs>
        <path id="DejaVuSans-34" d="M 2419 4116 
L 825 1625 
L 2419 1625 
L 2419 4116 
z
M 2253 4666 
L 3047 4666 
L 3047 1625 
L 3713 1625 
L 3713 1100 
L 3047 1100 
L 3047 0 
L 2419 0 
L 2419 1100 
L 313 1100 
L 313 1709 
L 2253 4666 
z
" transform="scale(0.015625)"/>
       </defs>
       <use xlink:href="#DejaVuSans-34"/>
       <use xlink:href="#DejaVuSans-30" x="63.623047"/>
      </g>
     </g>
    </g>
    <g id="text_9">
     <!-- Num_Experiments -->
     <g style="fill: #ffffff" transform="translate(784.896719 561.648438) scale(0.22 -0.22)">
      <defs>
       <path id="DejaVuSans-4e" d="M 628 4666 
L 1478 4666 
L 3547 763 
L 3547 4666 
L 4159 4666 
L 4159 0 
L 3309 0 
L 1241 3903 
L 1241 0 
L 628 0 
L 628 4666 
z
" transform="scale(0.015625)"/>
       <path id="DejaVuSans-75" d="M 544 1381 
L 544 3500 
L 1119 3500 
L 1119 1403 
Q 1119 906 1312 657 
Q 1506 409 1894 409 
Q 2359 409 2629 706 
Q 2900 1003 2900 1516 
L 2900 3500 
L 3475 3500 
L 3475 0 
L 2900 0 
L 2900 538 
Q 2691 219 2414 64 
Q 2138 -91 1772 -91 
Q 1169 -91 856 284 
Q 544 659 544 1381 
z
M 1991 3584 
L 1991 3584 
z
" transform="scale(0.015625)"/>
       <path id="DejaVuSans-6d" d="M 3328 2828 
Q 3544 3216 3844 3400 
Q 4144 3584 4550 3584 
Q 5097 3584 5394 3201 
Q 5691 2819 5691 2113 
L 5691 0 
L 5113 0 
L 5113 2094 
Q 5113 2597 4934 2840 
Q 4756 3084 4391 3084 
Q 3944 3084 3684 2787 
Q 3425 2491 3425 1978 
L 3425 0 
L 2847 0 
L 2847 2094 
Q 2847 2600 2669 2842 
Q 2491 3084 2119 3084 
Q 1678 3084 1418 2786 
Q 1159 2488 1159 1978 
L 1159 0 
L 581 0 
L 581 3500 
L 1159 3500 
L 1159 2956 
Q 1356 3278 1631 3431 
Q 1906 3584 2284 3584 
Q 2666 3584 2933 3390 
Q 3200 3197 3328 2828 
z
" transform="scale(0.015625)"/>
       <path id="DejaVuSans-5f" d="M 3263 -1063 
L 3263 -1509 
L -63 -1509 
L -63 -1063 
L 3263 -1063 
z
" transform="scale(0.015625)"/>
       <path id="DejaVuSans-45" d="M 628 4666 
L 3578 4666 
L 3578 4134 
L 1259 4134 
L 1259 2753 
L 3481 2753 
L 3481 2222 
L 1259 2222 
L 1259 531 
L 3634 531 
L 3634 0 
L 628 0 
L 628 4666 
z
" transform="scale(0.015625)"/>
       <path id="DejaVuSans-78" d="M 3513 3500 
L 2247 1797 
L 3578 0 
L 2900 0 
L 1881 1375 
L 863 0 
L 184 0 
L 1544 1831 
L 300 3500 
L 978 3500 
L 1906 2253 
L 2834 3500 
L 3513 3500 
z
" transform="scale(0.015625)"/>
       <path id="DejaVuSans-70" d="M 1159 525 
L 1159 -1331 
L 581 -1331 
L 581 3500 
L 1159 3500 
L 1159 2969 
Q 1341 3281 1617 3432 
Q 1894 3584 2278 3584 
Q 2916 3584 3314 3078 
Q 3713 2572 3713 1747 
Q 3713 922 3314 415 
Q 2916 -91 2278 -91 
Q 1894 -91 1617 61 
Q 1341 213 1159 525 
z
M 3116 1747 
Q 3116 2381 2855 2742 
Q 2594 3103 2138 3103 
Q 1681 3103 1420 2742 
Q 1159 2381 1159 1747 
Q 1159 1113 1420 752 
Q 1681 391 2138 391 
Q 2594 391 2855 752 
Q 3116 1113 3116 1747 
z
" transform="scale(0.015625)"/>
       <path id="DejaVuSans-65" d="M 3597 1894 
L 3597 1613 
L 953 1613 
Q 991 1019 1311 708 
Q 1631 397 2203 397 
Q 2534 397 2845 478 
Q 3156 559 3463 722 
L 3463 178 
Q 3153 47 2828 -22 
Q 2503 -91 2169 -91 
Q 1331 -91 842 396 
Q 353 884 353 1716 
Q 353 2575 817 3079 
Q 1281 3584 2069 3584 
Q 2775 3584 3186 3129 
Q 3597 2675 3597 1894 
z
M 3022 2063 
Q 3016 2534 2758 2815 
Q 2500 3097 2075 3097 
Q 1594 3097 1305 2825 
Q 1016 2553 972 2059 
L 3022 2063 
z
" transform="scale(0.015625)"/>
       <path id="DejaVuSans-72" d="M 2631 2963 
Q 2534 3019 2420 3045 
Q 2306 3072 2169 3072 
Q 1681 3072 1420 2755 
Q 1159 2438 1159 1844 
L 1159 0 
L 581 0 
L 581 3500 
L 1159 3500 
L 1159 2956 
Q 1341 3275 1631 3429 
Q 1922 3584 2338 3584 
Q 2397 3584 2469 3576 
Q 2541 3569 2628 3553 
L 2631 2963 
z
" transform="scale(0.015625)"/>
       <path id="DejaVuSans-69" d="M 603 3500 
L 1178 3500 
L 1178 0 
L 603 0 
L 603 3500 
z
M 603 4863 
L 1178 4863 
L 1178 4134 
L 603 4134 
L 603 4863 
z
" transform="scale(0.015625)"/>
       <path id="DejaVuSans-6e" d="M 3513 2113 
L 3513 0 
L 2938 0 
L 2938 2094 
Q 2938 2591 2744 2837 
Q 2550 3084 2163 3084 
Q 1697 3084 1428 2787 
Q 1159 2491 1159 1978 
L 1159 0 
L 581 0 
L 581 3500 
L 1159 3500 
L 1159 2956 
Q 1366 3272 1645 3428 
Q 1925 3584 2291 3584 
Q 2894 3584 3203 3211 
Q 3513 2838 3513 2113 
z
" transform="scale(0.015625)"/>
       <path id="DejaVuSans-74" d="M 1172 4494 
L 1172 3500 
L 2356 3500 
L 2356 3053 
L 1172 3053 
L 1172 1153 
Q 1172 725 1289 603 
Q 1406 481 1766 481 
L 2356 481 
L 2356 0 
L 1766 0 
Q 1100 0 847 248 
Q 594 497 594 1153 
L 594 3053 
L 172 3053 
L 172 3500 
L 594 3500 
L 594 4494 
L 1172 4494 
z
" transform="scale(0.015625)"/>
       <path id="DejaVuSans-73" d="M 2834 3397 
L 2834 2853 
Q 2591 2978 2328 3040 
Q 2066 3103 1784 3103 
Q 1356 3103 1142 2972 
Q 928 2841 928 2578 
Q 928 2378 1081 2264 
Q 1234 2150 1697 2047 
L 1894 2003 
Q 2506 1872 2764 1633 
Q 3022 1394 3022 966 
Q 3022 478 2636 193 
Q 2250 -91 1575 -91 
Q 1294 -91 989 -36 
Q 684 19 347 128 
L 347 722 
Q 666 556 975 473 
Q 1284 391 1588 391 
Q 1994 391 2212 530 
Q 2431 669 2431 922 
Q 2431 1156 2273 1281 
Q 2116 1406 1581 1522 
L 1381 1569 
Q 847 1681 609 1914 
Q 372 2147 372 2553 
Q 372 3047 722 3315 
Q 1072 3584 1716 3584 
Q 2034 3584 2315 3537 
Q 2597 3491 2834 3397 
z
" transform="scale(0.015625)"/>
      </defs>
      <use xlink:href="#DejaVuSans-4e"/>
      <use xlink:href="#DejaVuSans-75" x="74.804688"/>
      <use xlink:href="#DejaVuSans-6d" x="138.183594"/>
      <use xlink:href="#DejaVuSans-5f" x="235.595703"/>
      <use xlink:href="#DejaVuSans-45" x="285.595703"/>
      <use xlink:href="#DejaVuSans-78" x="348.779297"/>
      <use xlink:href="#DejaVuSans-70" x="407.958984"/>
      <use xlink:href="#DejaVuSans-65" x="471.435547"/>
      <use xlink:href="#DejaVuSans-72" x="532.958984"/>
      <use xlink:href="#DejaVuSans-69" x="574.072266"/>
      <use xlink:href="#DejaVuSans-6d" x="601.855469"/>
      <use xlink:href="#DejaVuSans-65" x="699.267578"/>
      <use xlink:href="#DejaVuSans-6e" x="760.791016"/>
      <use xlink:href="#DejaVuSans-74" x="824.169922"/>
      <use xlink:href="#DejaVuSans-73" x="863.378906"/>
     </g>
    </g>
   </g>
   <g id="matplotlib.axis_2">
    <g id="ytick_1">
     <g id="line2d_9">
      <defs>
       <path id="m03826b3d64" d="M 0 0 
L -3.5 0 
" style="stroke: #000000; stroke-width: 0.8"/>
      </defs>
      <g>
       <use xlink:href="#m03826b3d64" x="216" y="474.275589" style="stroke: #000000; stroke-width: 0.8"/>
      </g>
     </g>
     <g id="text_10">
      <!-- 30 -->
      <g style="fill: #ffffff" transform="translate(181.005 482.63387) scale(0.22 -0.22)">
       <use xlink:href="#DejaVuSans-33"/>
       <use xlink:href="#DejaVuSans-30" x="63.623047"/>
      </g>
     </g>
    </g>
    <g id="ytick_2">
     <g id="line2d_10">
      <g>
       <use xlink:href="#m03826b3d64" x="216" y="416.766672" style="stroke: #000000; stroke-width: 0.8"/>
      </g>
     </g>
     <g id="text_11">
      <!-- 40 -->
      <g style="fill: #ffffff" transform="translate(181.005 425.124954) scale(0.22 -0.22)">
       <use xlink:href="#DejaVuSans-34"/>
       <use xlink:href="#DejaVuSans-30" x="63.623047"/>
      </g>
     </g>
    </g>
    <g id="ytick_3">
     <g id="line2d_11">
      <g>
       <use xlink:href="#m03826b3d64" x="216" y="359.257756" style="stroke: #000000; stroke-width: 0.8"/>
      </g>
     </g>
     <g id="text_12">
      <!-- 50 -->
      <g style="fill: #ffffff" transform="translate(181.005 367.616037) scale(0.22 -0.22)">
       <use xlink:href="#DejaVuSans-35"/>
       <use xlink:href="#DejaVuSans-30" x="63.623047"/>
      </g>
     </g>
    </g>
    <g id="ytick_4">
     <g id="line2d_12">
      <g>
       <use xlink:href="#m03826b3d64" x="216" y="301.74884" style="stroke: #000000; stroke-width: 0.8"/>
      </g>
     </g>
     <g id="text_13">
      <!-- 60 -->
      <g style="fill: #ffffff" transform="translate(181.005 310.107121) scale(0.22 -0.22)">
       <defs>
        <path id="DejaVuSans-36" d="M 2113 2584 
Q 1688 2584 1439 2293 
Q 1191 2003 1191 1497 
Q 1191 994 1439 701 
Q 1688 409 2113 409 
Q 2538 409 2786 701 
Q 3034 994 3034 1497 
Q 3034 2003 2786 2293 
Q 2538 2584 2113 2584 
z
M 3366 4563 
L 3366 3988 
Q 3128 4100 2886 4159 
Q 2644 4219 2406 4219 
Q 1781 4219 1451 3797 
Q 1122 3375 1075 2522 
Q 1259 2794 1537 2939 
Q 1816 3084 2150 3084 
Q 2853 3084 3261 2657 
Q 3669 2231 3669 1497 
Q 3669 778 3244 343 
Q 2819 -91 2113 -91 
Q 1303 -91 875 529 
Q 447 1150 447 2328 
Q 447 3434 972 4092 
Q 1497 4750 2381 4750 
Q 2619 4750 2861 4703 
Q 3103 4656 3366 4563 
z
" transform="scale(0.015625)"/>
       </defs>
       <use xlink:href="#DejaVuSans-36"/>
       <use xlink:href="#DejaVuSans-30" x="63.623047"/>
      </g>
     </g>
    </g>
    <g id="ytick_5">
     <g id="line2d_13">
      <g>
       <use xlink:href="#m03826b3d64" x="216" y="244.239924" style="stroke: #000000; stroke-width: 0.8"/>
      </g>
     </g>
     <g id="text_14">
      <!-- 70 -->
      <g style="fill: #ffffff" transform="translate(181.005 252.598205) scale(0.22 -0.22)">
       <defs>
        <path id="DejaVuSans-37" d="M 525 4666 
L 3525 4666 
L 3525 4397 
L 1831 0 
L 1172 0 
L 2766 4134 
L 525 4134 
L 525 4666 
z
" transform="scale(0.015625)"/>
       </defs>
       <use xlink:href="#DejaVuSans-37"/>
       <use xlink:href="#DejaVuSans-30" x="63.623047"/>
      </g>
     </g>
    </g>
    <g id="ytick_6">
     <g id="line2d_14">
      <g>
       <use xlink:href="#m03826b3d64" x="216" y="186.731008" style="stroke: #000000; stroke-width: 0.8"/>
      </g>
     </g>
     <g id="text_15">
      <!-- 80 -->
      <g style="fill: #ffffff" transform="translate(181.005 195.089289) scale(0.22 -0.22)">
       <defs>
        <path id="DejaVuSans-38" d="M 2034 2216 
Q 1584 2216 1326 1975 
Q 1069 1734 1069 1313 
Q 1069 891 1326 650 
Q 1584 409 2034 409 
Q 2484 409 2743 651 
Q 3003 894 3003 1313 
Q 3003 1734 2745 1975 
Q 2488 2216 2034 2216 
z
M 1403 2484 
Q 997 2584 770 2862 
Q 544 3141 544 3541 
Q 544 4100 942 4425 
Q 1341 4750 2034 4750 
Q 2731 4750 3128 4425 
Q 3525 4100 3525 3541 
Q 3525 3141 3298 2862 
Q 3072 2584 2669 2484 
Q 3125 2378 3379 2068 
Q 3634 1759 3634 1313 
Q 3634 634 3220 271 
Q 2806 -91 2034 -91 
Q 1263 -91 848 271 
Q 434 634 434 1313 
Q 434 1759 690 2068 
Q 947 2378 1403 2484 
z
M 1172 3481 
Q 1172 3119 1398 2916 
Q 1625 2713 2034 2713 
Q 2441 2713 2670 2916 
Q 2900 3119 2900 3481 
Q 2900 3844 2670 4047 
Q 2441 4250 2034 4250 
Q 1625 4250 1398 4047 
Q 1172 3844 1172 3481 
z
" transform="scale(0.015625)"/>
       </defs>
       <use xlink:href="#DejaVuSans-38"/>
       <use xlink:href="#DejaVuSans-30" x="63.623047"/>
      </g>
     </g>
    </g>
    <g id="ytick_7">
     <g id="line2d_15">
      <g>
       <use xlink:href="#m03826b3d64" x="216" y="129.222092" style="stroke: #000000; stroke-width: 0.8"/>
      </g>
     </g>
     <g id="text_16">
      <!-- 90 -->
      <g style="fill: #ffffff" transform="translate(181.005 137.580373) scale(0.22 -0.22)">
       <defs>
        <path id="DejaVuSans-39" d="M 703 97 
L 703 672 
Q 941 559 1184 500 
Q 1428 441 1663 441 
Q 2288 441 2617 861 
Q 2947 1281 2994 2138 
Q 2813 1869 2534 1725 
Q 2256 1581 1919 1581 
Q 1219 1581 811 2004 
Q 403 2428 403 3163 
Q 403 3881 828 4315 
Q 1253 4750 1959 4750 
Q 2769 4750 3195 4129 
Q 3622 3509 3622 2328 
Q 3622 1225 3098 567 
Q 2575 -91 1691 -91 
Q 1453 -91 1209 -44 
Q 966 3 703 97 
z
M 1959 2075 
Q 2384 2075 2632 2365 
Q 2881 2656 2881 3163 
Q 2881 3666 2632 3958 
Q 2384 4250 1959 4250 
Q 1534 4250 1286 3958 
Q 1038 3666 1038 3163 
Q 1038 2656 1286 2365 
Q 1534 2075 1959 2075 
z
" transform="scale(0.015625)"/>
       </defs>
       <use xlink:href="#DejaVuSans-39"/>
       <use xlink:href="#DejaVuSans-30" x="63.623047"/>
      </g>
     </g>
    </g>
    <g id="ytick_8">
     <g id="line2d_16">
      <g>
       <use xlink:href="#m03826b3d64" x="216" y="71.713176" style="stroke: #000000; stroke-width: 0.8"/>
      </g>
     </g>
     <g id="text_17">
      <!-- 100 -->
      <g style="fill: #ffffff" transform="translate(167.0075 80.071457) scale(0.22 -0.22)">
       <use xlink:href="#DejaVuSans-31"/>
       <use xlink:href="#DejaVuSans-30" x="63.623047"/>
       <use xlink:href="#DejaVuSans-30" x="127.246094"/>
      </g>
     </g>
    </g>
    <g id="text_18">
     <!-- yield_CumBest -->
     <g style="fill: #ffffff" transform="translate(157.820312 372.479375) rotate(-90) scale(0.22 -0.22)">
      <defs>
       <path id="DejaVuSans-79" d="M 2059 -325 
Q 1816 -950 1584 -1140 
Q 1353 -1331 966 -1331 
L 506 -1331 
L 506 -850 
L 844 -850 
Q 1081 -850 1212 -737 
Q 1344 -625 1503 -206 
L 1606 56 
L 191 3500 
L 800 3500 
L 1894 763 
L 2988 3500 
L 3597 3500 
L 2059 -325 
z
" transform="scale(0.015625)"/>
       <path id="DejaVuSans-6c" d="M 603 4863 
L 1178 4863 
L 1178 0 
L 603 0 
L 603 4863 
z
" transform="scale(0.015625)"/>
       <path id="DejaVuSans-64" d="M 2906 2969 
L 2906 4863 
L 3481 4863 
L 3481 0 
L 2906 0 
L 2906 525 
Q 2725 213 2448 61 
Q 2172 -91 1784 -91 
Q 1150 -91 751 415 
Q 353 922 353 1747 
Q 353 2572 751 3078 
Q 1150 3584 1784 3584 
Q 2172 3584 2448 3432 
Q 2725 3281 2906 2969 
z
M 947 1747 
Q 947 1113 1208 752 
Q 1469 391 1925 391 
Q 2381 391 2643 752 
Q 2906 1113 2906 1747 
Q 2906 2381 2643 2742 
Q 2381 3103 1925 3103 
Q 1469 3103 1208 2742 
Q 947 2381 947 1747 
z
" transform="scale(0.015625)"/>
       <path id="DejaVuSans-43" d="M 4122 4306 
L 4122 3641 
Q 3803 3938 3442 4084 
Q 3081 4231 2675 4231 
Q 1875 4231 1450 3742 
Q 1025 3253 1025 2328 
Q 1025 1406 1450 917 
Q 1875 428 2675 428 
Q 3081 428 3442 575 
Q 3803 722 4122 1019 
L 4122 359 
Q 3791 134 3420 21 
Q 3050 -91 2638 -91 
Q 1578 -91 968 557 
Q 359 1206 359 2328 
Q 359 3453 968 4101 
Q 1578 4750 2638 4750 
Q 3056 4750 3426 4639 
Q 3797 4528 4122 4306 
z
" transform="scale(0.015625)"/>
       <path id="DejaVuSans-42" d="M 1259 2228 
L 1259 519 
L 2272 519 
Q 2781 519 3026 730 
Q 3272 941 3272 1375 
Q 3272 1813 3026 2020 
Q 2781 2228 2272 2228 
L 1259 2228 
z
M 1259 4147 
L 1259 2741 
L 2194 2741 
Q 2656 2741 2882 2914 
Q 3109 3088 3109 3444 
Q 3109 3797 2882 3972 
Q 2656 4147 2194 4147 
L 1259 4147 
z
M 628 4666 
L 2241 4666 
Q 2963 4666 3353 4366 
Q 3744 4066 3744 3513 
Q 3744 3084 3544 2831 
Q 3344 2578 2956 2516 
Q 3422 2416 3680 2098 
Q 3938 1781 3938 1306 
Q 3938 681 3513 340 
Q 3088 0 2303 0 
L 628 0 
L 628 4666 
z
" transform="scale(0.015625)"/>
      </defs>
      <use xlink:href="#DejaVuSans-79"/>
      <use xlink:href="#DejaVuSans-69" x="59.179688"/>
      <use xlink:href="#DejaVuSans-65" x="86.962891"/>
      <use xlink:href="#DejaVuSans-6c" x="148.486328"/>
      <use xlink:href="#DejaVuSans-64" x="176.269531"/>
      <use xlink:href="#DejaVuSans-5f" x="239.746094"/>
      <use xlink:href="#DejaVuSans-43" x="289.746094"/>
      <use xlink:href="#DejaVuSans-75" x="359.570312"/>
      <use xlink:href="#DejaVuSans-6d" x="422.949219"/>
      <use xlink:href="#DejaVuSans-42" x="520.361328"/>
      <use xlink:href="#DejaVuSans-65" x="588.964844"/>
      <use xlink:href="#DejaVuSans-73" x="650.488281"/>
      <use xlink:href="#DejaVuSans-74" x="702.587891"/>
     </g>
    </g>
   </g>
   <g id="line2d_17">
    <path d="M 276.872727 461.779476 
L 340.949282 374.239404 
L 405.025837 286.782432 
L 469.102392 233.884293 
L 533.178947 197.473673 
L 597.255502 178.422695 
L 661.332057 163.761084 
L 725.408612 151.881467 
L 789.485167 140.389173 
L 853.561722 131.794178 
L 917.638278 123.936447 
L 981.714833 118.09958 
L 1045.791388 114.509873 
L 1109.867943 111.386276 
L 1173.944498 106.47674 
L 1238.021053 103.369533 
L 1302.097608 100.698244 
L 1366.174163 97.560558 
L 1430.250718 95.463208 
L 1494.327273 93.984941 
" clip-path="url(#peacfc3855d)" style="fill: none; stroke: #1f77b4; stroke-width: 1.5; stroke-linecap: square"/>
    <defs>
     <path id="mf410be6674" d="M 0 5 
C 1.326016 5 2.597899 4.473168 3.535534 3.535534 
C 4.473168 2.597899 5 1.326016 5 0 
C 5 -1.326016 4.473168 -2.597899 3.535534 -3.535534 
C 2.597899 -4.473168 1.326016 -5 0 -5 
C -1.326016 -5 -2.597899 -4.473168 -3.535534 -3.535534 
C -4.473168 -2.597899 -5 -1.326016 -5 0 
C -5 1.326016 -4.473168 2.597899 -3.535534 3.535534 
C -2.597899 4.473168 -1.326016 5 0 5 
z
" style="stroke: #ffffff; stroke-width: 0.75"/>
    </defs>
    <g clip-path="url(#peacfc3855d)">
     <use xlink:href="#mf410be6674" x="276.872727" y="461.779476" style="fill: #1f77b4; stroke: #ffffff; stroke-width: 0.75"/>
     <use xlink:href="#mf410be6674" x="340.949282" y="374.239404" style="fill: #1f77b4; stroke: #ffffff; stroke-width: 0.75"/>
     <use xlink:href="#mf410be6674" x="405.025837" y="286.782432" style="fill: #1f77b4; stroke: #ffffff; stroke-width: 0.75"/>
     <use xlink:href="#mf410be6674" x="469.102392" y="233.884293" style="fill: #1f77b4; stroke: #ffffff; stroke-width: 0.75"/>
     <use xlink:href="#mf410be6674" x="533.178947" y="197.473673" style="fill: #1f77b4; stroke: #ffffff; stroke-width: 0.75"/>
     <use xlink:href="#mf410be6674" x="597.255502" y="178.422695" style="fill: #1f77b4; stroke: #ffffff; stroke-width: 0.75"/>
     <use xlink:href="#mf410be6674" x="661.332057" y="163.761084" style="fill: #1f77b4; stroke: #ffffff; stroke-width: 0.75"/>
     <use xlink:href="#mf410be6674" x="725.408612" y="151.881467" style="fill: #1f77b4; stroke: #ffffff; stroke-width: 0.75"/>
     <use xlink:href="#mf410be6674" x="789.485167" y="140.389173" style="fill: #1f77b4; stroke: #ffffff; stroke-width: 0.75"/>
     <use xlink:href="#mf410be6674" x="853.561722" y="131.794178" style="fill: #1f77b4; stroke: #ffffff; stroke-width: 0.75"/>
     <use xlink:href="#mf410be6674" x="917.638278" y="123.936447" style="fill: #1f77b4; stroke: #ffffff; stroke-width: 0.75"/>
     <use xlink:href="#mf410be6674" x="981.714833" y="118.09958" style="fill: #1f77b4; stroke: #ffffff; stroke-width: 0.75"/>
     <use xlink:href="#mf410be6674" x="1045.791388" y="114.509873" style="fill: #1f77b4; stroke: #ffffff; stroke-width: 0.75"/>
     <use xlink:href="#mf410be6674" x="1109.867943" y="111.386276" style="fill: #1f77b4; stroke: #ffffff; stroke-width: 0.75"/>
     <use xlink:href="#mf410be6674" x="1173.944498" y="106.47674" style="fill: #1f77b4; stroke: #ffffff; stroke-width: 0.75"/>
     <use xlink:href="#mf410be6674" x="1238.021053" y="103.369533" style="fill: #1f77b4; stroke: #ffffff; stroke-width: 0.75"/>
     <use xlink:href="#mf410be6674" x="1302.097608" y="100.698244" style="fill: #1f77b4; stroke: #ffffff; stroke-width: 0.75"/>
     <use xlink:href="#mf410be6674" x="1366.174163" y="97.560558" style="fill: #1f77b4; stroke: #ffffff; stroke-width: 0.75"/>
     <use xlink:href="#mf410be6674" x="1430.250718" y="95.463208" style="fill: #1f77b4; stroke: #ffffff; stroke-width: 0.75"/>
     <use xlink:href="#mf410be6674" x="1494.327273" y="93.984941" style="fill: #1f77b4; stroke: #ffffff; stroke-width: 0.75"/>
    </g>
   </g>
   <g id="line2d_18">
    <path d="M 276.872727 465.345892 
L 340.949282 375.654123 
L 405.025837 330.574034 
L 469.102392 284.031206 
L 533.178947 257.668831 
L 597.255502 234.363055 
L 661.332057 204.776731 
L 725.408612 180.048472 
L 789.485167 166.956279 
L 853.561722 155.821691 
L 917.638278 148.907106 
L 981.714833 142.40026 
L 1045.791388 136.124599 
L 1109.867943 130.367094 
L 1173.944498 127.348451 
L 1238.021053 123.390688 
L 1302.097608 120.41 
L 1366.174163 117.621106 
L 1430.250718 115.279918 
L 1494.327273 113.774622 
" clip-path="url(#peacfc3855d)" style="fill: none; stroke: #ff7f0e; stroke-width: 1.5; stroke-linecap: square"/>
    <defs>
     <path id="m0a6be71b65" d="M 0 5 
C 1.326016 5 2.597899 4.473168 3.535534 3.535534 
C 4.473168 2.597899 5 1.326016 5 0 
C 5 -1.326016 4.473168 -2.597899 3.535534 -3.535534 
C 2.597899 -4.473168 1.326016 -5 0 -5 
C -1.326016 -5 -2.597899 -4.473168 -3.535534 -3.535534 
C -4.473168 -2.597899 -5 -1.326016 -5 0 
C -5 1.326016 -4.473168 2.597899 -3.535534 3.535534 
C -2.597899 4.473168 -1.326016 5 0 5 
z
" style="stroke: #ffffff; stroke-width: 0.75"/>
    </defs>
    <g clip-path="url(#peacfc3855d)">
     <use xlink:href="#m0a6be71b65" x="276.872727" y="465.345892" style="fill: #ff7f0e; stroke: #ffffff; stroke-width: 0.75"/>
     <use xlink:href="#m0a6be71b65" x="340.949282" y="375.654123" style="fill: #ff7f0e; stroke: #ffffff; stroke-width: 0.75"/>
     <use xlink:href="#m0a6be71b65" x="405.025837" y="330.574034" style="fill: #ff7f0e; stroke: #ffffff; stroke-width: 0.75"/>
     <use xlink:href="#m0a6be71b65" x="469.102392" y="284.031206" style="fill: #ff7f0e; stroke: #ffffff; stroke-width: 0.75"/>
     <use xlink:href="#m0a6be71b65" x="533.178947" y="257.668831" style="fill: #ff7f0e; stroke: #ffffff; stroke-width: 0.75"/>
     <use xlink:href="#m0a6be71b65" x="597.255502" y="234.363055" style="fill: #ff7f0e; stroke: #ffffff; stroke-width: 0.75"/>
     <use xlink:href="#m0a6be71b65" x="661.332057" y="204.776731" style="fill: #ff7f0e; stroke: #ffffff; stroke-width: 0.75"/>
     <use xlink:href="#m0a6be71b65" x="725.408612" y="180.048472" style="fill: #ff7f0e; stroke: #ffffff; stroke-width: 0.75"/>
     <use xlink:href="#m0a6be71b65" x="789.485167" y="166.956279" style="fill: #ff7f0e; stroke: #ffffff; stroke-width: 0.75"/>
     <use xlink:href="#m0a6be71b65" x="853.561722" y="155.821691" style="fill: #ff7f0e; stroke: #ffffff; stroke-width: 0.75"/>
     <use xlink:href="#m0a6be71b65" x="917.638278" y="148.907106" style="fill: #ff7f0e; stroke: #ffffff; stroke-width: 0.75"/>
     <use xlink:href="#m0a6be71b65" x="981.714833" y="142.40026" style="fill: #ff7f0e; stroke: #ffffff; stroke-width: 0.75"/>
     <use xlink:href="#m0a6be71b65" x="1045.791388" y="136.124599" style="fill: #ff7f0e; stroke: #ffffff; stroke-width: 0.75"/>
     <use xlink:href="#m0a6be71b65" x="1109.867943" y="130.367094" style="fill: #ff7f0e; stroke: #ffffff; stroke-width: 0.75"/>
     <use xlink:href="#m0a6be71b65" x="1173.944498" y="127.348451" style="fill: #ff7f0e; stroke: #ffffff; stroke-width: 0.75"/>
     <use xlink:href="#m0a6be71b65" x="1238.021053" y="123.390688" style="fill: #ff7f0e; stroke: #ffffff; stroke-width: 0.75"/>
     <use xlink:href="#m0a6be71b65" x="1302.097608" y="120.41" style="fill: #ff7f0e; stroke: #ffffff; stroke-width: 0.75"/>
     <use xlink:href="#m0a6be71b65" x="1366.174163" y="117.621106" style="fill: #ff7f0e; stroke: #ffffff; stroke-width: 0.75"/>
     <use xlink:href="#m0a6be71b65" x="1430.250718" y="115.279918" style="fill: #ff7f0e; stroke: #ffffff; stroke-width: 0.75"/>
     <use xlink:href="#m0a6be71b65" x="1494.327273" y="113.774622" style="fill: #ff7f0e; stroke: #ffffff; stroke-width: 0.75"/>
    </g>
   </g>
   <g id="line2d_19">
    <path d="M 276.872727 470.525432 
L 340.949282 383.453483 
L 405.025837 344.327291 
L 469.102392 304.881351 
L 533.178947 279.119657 
L 597.255502 257.45461 
L 661.332057 239.241537 
L 725.408612 217.466648 
L 789.485167 197.969113 
L 853.561722 186.079432 
L 917.638278 174.400521 
L 981.714833 165.608846 
L 1045.791388 157.47536 
L 1109.867943 153.64239 
L 1173.944498 149.897985 
L 1238.021053 145.728588 
L 1302.097608 139.480532 
L 1366.174163 135.615358 
L 1430.250718 132.605054 
L 1494.327273 129.259472 
" clip-path="url(#peacfc3855d)" style="fill: none; stroke: #2ca02c; stroke-width: 1.5; stroke-linecap: square"/>
    <defs>
     <path id="m8582c9eecb" d="M 0 5 
C 1.326016 5 2.597899 4.473168 3.535534 3.535534 
C 4.473168 2.597899 5 1.326016 5 0 
C 5 -1.326016 4.473168 -2.597899 3.535534 -3.535534 
C 2.597899 -4.473168 1.326016 -5 0 -5 
C -1.326016 -5 -2.597899 -4.473168 -3.535534 -3.535534 
C -4.473168 -2.597899 -5 -1.326016 -5 0 
C -5 1.326016 -4.473168 2.597899 -3.535534 3.535534 
C -2.597899 4.473168 -1.326016 5 0 5 
z
" style="stroke: #ffffff; stroke-width: 0.75"/>
    </defs>
    <g clip-path="url(#peacfc3855d)">
     <use xlink:href="#m8582c9eecb" x="276.872727" y="470.525432" style="fill: #2ca02c; stroke: #ffffff; stroke-width: 0.75"/>
     <use xlink:href="#m8582c9eecb" x="340.949282" y="383.453483" style="fill: #2ca02c; stroke: #ffffff; stroke-width: 0.75"/>
     <use xlink:href="#m8582c9eecb" x="405.025837" y="344.327291" style="fill: #2ca02c; stroke: #ffffff; stroke-width: 0.75"/>
     <use xlink:href="#m8582c9eecb" x="469.102392" y="304.881351" style="fill: #2ca02c; stroke: #ffffff; stroke-width: 0.75"/>
     <use xlink:href="#m8582c9eecb" x="533.178947" y="279.119657" style="fill: #2ca02c; stroke: #ffffff; stroke-width: 0.75"/>
     <use xlink:href="#m8582c9eecb" x="597.255502" y="257.45461" style="fill: #2ca02c; stroke: #ffffff; stroke-width: 0.75"/>
     <use xlink:href="#m8582c9eecb" x="661.332057" y="239.241537" style="fill: #2ca02c; stroke: #ffffff; stroke-width: 0.75"/>
     <use xlink:href="#m8582c9eecb" x="725.408612" y="217.466648" style="fill: #2ca02c; stroke: #ffffff; stroke-width: 0.75"/>
     <use xlink:href="#m8582c9eecb" x="789.485167" y="197.969113" style="fill: #2ca02c; stroke: #ffffff; stroke-width: 0.75"/>
     <use xlink:href="#m8582c9eecb" x="853.561722" y="186.079432" style="fill: #2ca02c; stroke: #ffffff; stroke-width: 0.75"/>
     <use xlink:href="#m8582c9eecb" x="917.638278" y="174.400521" style="fill: #2ca02c; stroke: #ffffff; stroke-width: 0.75"/>
     <use xlink:href="#m8582c9eecb" x="981.714833" y="165.608846" style="fill: #2ca02c; stroke: #ffffff; stroke-width: 0.75"/>
     <use xlink:href="#m8582c9eecb" x="1045.791388" y="157.47536" style="fill: #2ca02c; stroke: #ffffff; stroke-width: 0.75"/>
     <use xlink:href="#m8582c9eecb" x="1109.867943" y="153.64239" style="fill: #2ca02c; stroke: #ffffff; stroke-width: 0.75"/>
     <use xlink:href="#m8582c9eecb" x="1173.944498" y="149.897985" style="fill: #2ca02c; stroke: #ffffff; stroke-width: 0.75"/>
     <use xlink:href="#m8582c9eecb" x="1238.021053" y="145.728588" style="fill: #2ca02c; stroke: #ffffff; stroke-width: 0.75"/>
     <use xlink:href="#m8582c9eecb" x="1302.097608" y="139.480532" style="fill: #2ca02c; stroke: #ffffff; stroke-width: 0.75"/>
     <use xlink:href="#m8582c9eecb" x="1366.174163" y="135.615358" style="fill: #2ca02c; stroke: #ffffff; stroke-width: 0.75"/>
     <use xlink:href="#m8582c9eecb" x="1430.250718" y="132.605054" style="fill: #2ca02c; stroke: #ffffff; stroke-width: 0.75"/>
     <use xlink:href="#m8582c9eecb" x="1494.327273" y="129.259472" style="fill: #2ca02c; stroke: #ffffff; stroke-width: 0.75"/>
    </g>
   </g>
   <g id="line2d_20">
    <path d="M 276.872727 464.533003 
L 340.949282 403.269617 
L 405.025837 354.866088 
L 469.102392 311.924755 
L 533.178947 287.264069 
L 597.255502 262.627825 
L 661.332057 243.579434 
L 725.408612 230.210624 
L 789.485167 220.465163 
L 853.561722 208.100746 
L 917.638278 195.189707 
L 981.714833 184.221319 
L 1045.791388 178.419532 
L 1109.867943 173.480666 
L 1173.944498 167.320023 
L 1238.021053 162.23336 
L 1302.097608 158.032046 
L 1366.174163 153.699324 
L 1430.250718 149.729196 
L 1494.327273 146.013833 
" clip-path="url(#peacfc3855d)" style="fill: none; stroke: #d62728; stroke-width: 1.5; stroke-linecap: square"/>
    <defs>
     <path id="me3f21722fe" d="M 0 5 
C 1.326016 5 2.597899 4.473168 3.535534 3.535534 
C 4.473168 2.597899 5 1.326016 5 0 
C 5 -1.326016 4.473168 -2.597899 3.535534 -3.535534 
C 2.597899 -4.473168 1.326016 -5 0 -5 
C -1.326016 -5 -2.597899 -4.473168 -3.535534 -3.535534 
C -4.473168 -2.597899 -5 -1.326016 -5 0 
C -5 1.326016 -4.473168 2.597899 -3.535534 3.535534 
C -2.597899 4.473168 -1.326016 5 0 5 
z
" style="stroke: #ffffff; stroke-width: 0.75"/>
    </defs>
    <g clip-path="url(#peacfc3855d)">
     <use xlink:href="#me3f21722fe" x="276.872727" y="464.533003" style="fill: #d62728; stroke: #ffffff; stroke-width: 0.75"/>
     <use xlink:href="#me3f21722fe" x="340.949282" y="403.269617" style="fill: #d62728; stroke: #ffffff; stroke-width: 0.75"/>
     <use xlink:href="#me3f21722fe" x="405.025837" y="354.866088" style="fill: #d62728; stroke: #ffffff; stroke-width: 0.75"/>
     <use xlink:href="#me3f21722fe" x="469.102392" y="311.924755" style="fill: #d62728; stroke: #ffffff; stroke-width: 0.75"/>
     <use xlink:href="#me3f21722fe" x="533.178947" y="287.264069" style="fill: #d62728; stroke: #ffffff; stroke-width: 0.75"/>
     <use xlink:href="#me3f21722fe" x="597.255502" y="262.627825" style="fill: #d62728; stroke: #ffffff; stroke-width: 0.75"/>
     <use xlink:href="#me3f21722fe" x="661.332057" y="243.579434" style="fill: #d62728; stroke: #ffffff; stroke-width: 0.75"/>
     <use xlink:href="#me3f21722fe" x="725.408612" y="230.210624" style="fill: #d62728; stroke: #ffffff; stroke-width: 0.75"/>
     <use xlink:href="#me3f21722fe" x="789.485167" y="220.465163" style="fill: #d62728; stroke: #ffffff; stroke-width: 0.75"/>
     <use xlink:href="#me3f21722fe" x="853.561722" y="208.100746" style="fill: #d62728; stroke: #ffffff; stroke-width: 0.75"/>
     <use xlink:href="#me3f21722fe" x="917.638278" y="195.189707" style="fill: #d62728; stroke: #ffffff; stroke-width: 0.75"/>
     <use xlink:href="#me3f21722fe" x="981.714833" y="184.221319" style="fill: #d62728; stroke: #ffffff; stroke-width: 0.75"/>
     <use xlink:href="#me3f21722fe" x="1045.791388" y="178.419532" style="fill: #d62728; stroke: #ffffff; stroke-width: 0.75"/>
     <use xlink:href="#me3f21722fe" x="1109.867943" y="173.480666" style="fill: #d62728; stroke: #ffffff; stroke-width: 0.75"/>
     <use xlink:href="#me3f21722fe" x="1173.944498" y="167.320023" style="fill: #d62728; stroke: #ffffff; stroke-width: 0.75"/>
     <use xlink:href="#me3f21722fe" x="1238.021053" y="162.23336" style="fill: #d62728; stroke: #ffffff; stroke-width: 0.75"/>
     <use xlink:href="#me3f21722fe" x="1302.097608" y="158.032046" style="fill: #d62728; stroke: #ffffff; stroke-width: 0.75"/>
     <use xlink:href="#me3f21722fe" x="1366.174163" y="153.699324" style="fill: #d62728; stroke: #ffffff; stroke-width: 0.75"/>
     <use xlink:href="#me3f21722fe" x="1430.250718" y="149.729196" style="fill: #d62728; stroke: #ffffff; stroke-width: 0.75"/>
     <use xlink:href="#me3f21722fe" x="1494.327273" y="146.013833" style="fill: #d62728; stroke: #ffffff; stroke-width: 0.75"/>
    </g>
   </g>
   <g id="line2d_21">
    <path d="M 276.872727 467.14132 
L 340.949282 379.238367 
L 405.025837 325.035638 
L 469.102392 291.895262 
L 533.178947 255.013932 
L 597.255502 241.581574 
L 661.332057 227.332303 
L 725.408612 219.052169 
L 789.485167 208.10966 
L 853.561722 201.860453 
L 917.638278 187.400987 
L 981.714833 176.287101 
L 1045.791388 167.483349 
L 1109.867943 163.975305 
L 1173.944498 158.627838 
L 1238.021053 155.222448 
L 1302.097608 151.992747 
L 1366.174163 149.564721 
L 1430.250718 148.480965 
L 1494.327273 146.816945 
" clip-path="url(#peacfc3855d)" style="fill: none; stroke: #9467bd; stroke-width: 1.5; stroke-linecap: square"/>
    <defs>
     <path id="mc412af7948" d="M 0 5 
C 1.326016 5 2.597899 4.473168 3.535534 3.535534 
C 4.473168 2.597899 5 1.326016 5 0 
C 5 -1.326016 4.473168 -2.597899 3.535534 -3.535534 
C 2.597899 -4.473168 1.326016 -5 0 -5 
C -1.326016 -5 -2.597899 -4.473168 -3.535534 -3.535534 
C -4.473168 -2.597899 -5 -1.326016 -5 0 
C -5 1.326016 -4.473168 2.597899 -3.535534 3.535534 
C -2.597899 4.473168 -1.326016 5 0 5 
z
" style="stroke: #ffffff; stroke-width: 0.75"/>
    </defs>
    <g clip-path="url(#peacfc3855d)">
     <use xlink:href="#mc412af7948" x="276.872727" y="467.14132" style="fill: #9467bd; stroke: #ffffff; stroke-width: 0.75"/>
     <use xlink:href="#mc412af7948" x="340.949282" y="379.238367" style="fill: #9467bd; stroke: #ffffff; stroke-width: 0.75"/>
     <use xlink:href="#mc412af7948" x="405.025837" y="325.035638" style="fill: #9467bd; stroke: #ffffff; stroke-width: 0.75"/>
     <use xlink:href="#mc412af7948" x="469.102392" y="291.895262" style="fill: #9467bd; stroke: #ffffff; stroke-width: 0.75"/>
     <use xlink:href="#mc412af7948" x="533.178947" y="255.013932" style="fill: #9467bd; stroke: #ffffff; stroke-width: 0.75"/>
     <use xlink:href="#mc412af7948" x="597.255502" y="241.581574" style="fill: #9467bd; stroke: #ffffff; stroke-width: 0.75"/>
     <use xlink:href="#mc412af7948" x="661.332057" y="227.332303" style="fill: #9467bd; stroke: #ffffff; stroke-width: 0.75"/>
     <use xlink:href="#mc412af7948" x="725.408612" y="219.052169" style="fill: #9467bd; stroke: #ffffff; stroke-width: 0.75"/>
     <use xlink:href="#mc412af7948" x="789.485167" y="208.10966" style="fill: #9467bd; stroke: #ffffff; stroke-width: 0.75"/>
     <use xlink:href="#mc412af7948" x="853.561722" y="201.860453" style="fill: #9467bd; stroke: #ffffff; stroke-width: 0.75"/>
     <use xlink:href="#mc412af7948" x="917.638278" y="187.400987" style="fill: #9467bd; stroke: #ffffff; stroke-width: 0.75"/>
     <use xlink:href="#mc412af7948" x="981.714833" y="176.287101" style="fill: #9467bd; stroke: #ffffff; stroke-width: 0.75"/>
     <use xlink:href="#mc412af7948" x="1045.791388" y="167.483349" style="fill: #9467bd; stroke: #ffffff; stroke-width: 0.75"/>
     <use xlink:href="#mc412af7948" x="1109.867943" y="163.975305" style="fill: #9467bd; stroke: #ffffff; stroke-width: 0.75"/>
     <use xlink:href="#mc412af7948" x="1173.944498" y="158.627838" style="fill: #9467bd; stroke: #ffffff; stroke-width: 0.75"/>
     <use xlink:href="#mc412af7948" x="1238.021053" y="155.222448" style="fill: #9467bd; stroke: #ffffff; stroke-width: 0.75"/>
     <use xlink:href="#mc412af7948" x="1302.097608" y="151.992747" style="fill: #9467bd; stroke: #ffffff; stroke-width: 0.75"/>
     <use xlink:href="#mc412af7948" x="1366.174163" y="149.564721" style="fill: #9467bd; stroke: #ffffff; stroke-width: 0.75"/>
     <use xlink:href="#mc412af7948" x="1430.250718" y="148.480965" style="fill: #9467bd; stroke: #ffffff; stroke-width: 0.75"/>
     <use xlink:href="#mc412af7948" x="1494.327273" y="146.816945" style="fill: #9467bd; stroke: #ffffff; stroke-width: 0.75"/>
    </g>
   </g>
   <g id="line2d_22"/>
   <g id="line2d_23"/>
   <g id="line2d_24"/>
   <g id="line2d_25"/>
   <g id="line2d_26"/>
   <g id="patch_3">
    <path d="M 216 512.64 
L 216 69.12 
" style="fill: none; stroke: #ffffff; stroke-width: 0.8; stroke-linejoin: miter; stroke-linecap: square"/>
   </g>
   <g id="patch_4">
    <path d="M 1555.2 512.64 
L 1555.2 69.12 
" style="fill: none; stroke: #ffffff; stroke-width: 0.8; stroke-linejoin: miter; stroke-linecap: square"/>
   </g>
   <g id="patch_5">
    <path d="M 216 512.64 
L 1555.2 512.64 
" style="fill: none; stroke: #ffffff; stroke-width: 0.8; stroke-linejoin: miter; stroke-linecap: square"/>
   </g>
   <g id="patch_6">
    <path d="M 216 69.12 
L 1555.2 69.12 
" style="fill: none; stroke: #ffffff; stroke-width: 0.8; stroke-linejoin: miter; stroke-linecap: square"/>
   </g>
   <g id="legend_1">
    <g id="patch_7">
     <path d="M 1263.46125 507.64 
L 1548.2 507.64 
Q 1550.2 507.64 1550.2 505.64 
L 1550.2 348.88875 
Q 1550.2 346.88875 1548.2 346.88875 
L 1263.46125 346.88875 
Q 1261.46125 346.88875 1261.46125 348.88875 
L 1261.46125 505.64 
Q 1261.46125 507.64 1263.46125 507.64 
z
" style="fill: #ffffff; opacity: 0.3; stroke: #cccccc; stroke-linejoin: miter"/>
    </g>
    <g id="text_19">
     <!-- Substance Encoding -->
     <g style="fill: #ffffff" transform="translate(1294.130781 367.605313) scale(0.22 -0.22)">
      <defs>
       <path id="DejaVuSans-53" d="M 3425 4513 
L 3425 3897 
Q 3066 4069 2747 4153 
Q 2428 4238 2131 4238 
Q 1616 4238 1336 4038 
Q 1056 3838 1056 3469 
Q 1056 3159 1242 3001 
Q 1428 2844 1947 2747 
L 2328 2669 
Q 3034 2534 3370 2195 
Q 3706 1856 3706 1288 
Q 3706 609 3251 259 
Q 2797 -91 1919 -91 
Q 1588 -91 1214 -16 
Q 841 59 441 206 
L 441 856 
Q 825 641 1194 531 
Q 1563 422 1919 422 
Q 2459 422 2753 634 
Q 3047 847 3047 1241 
Q 3047 1584 2836 1778 
Q 2625 1972 2144 2069 
L 1759 2144 
Q 1053 2284 737 2584 
Q 422 2884 422 3419 
Q 422 4038 858 4394 
Q 1294 4750 2059 4750 
Q 2388 4750 2728 4690 
Q 3069 4631 3425 4513 
z
" transform="scale(0.015625)"/>
       <path id="DejaVuSans-62" d="M 3116 1747 
Q 3116 2381 2855 2742 
Q 2594 3103 2138 3103 
Q 1681 3103 1420 2742 
Q 1159 2381 1159 1747 
Q 1159 1113 1420 752 
Q 1681 391 2138 391 
Q 2594 391 2855 752 
Q 3116 1113 3116 1747 
z
M 1159 2969 
Q 1341 3281 1617 3432 
Q 1894 3584 2278 3584 
Q 2916 3584 3314 3078 
Q 3713 2572 3713 1747 
Q 3713 922 3314 415 
Q 2916 -91 2278 -91 
Q 1894 -91 1617 61 
Q 1341 213 1159 525 
L 1159 0 
L 581 0 
L 581 4863 
L 1159 4863 
L 1159 2969 
z
" transform="scale(0.015625)"/>
       <path id="DejaVuSans-61" d="M 2194 1759 
Q 1497 1759 1228 1600 
Q 959 1441 959 1056 
Q 959 750 1161 570 
Q 1363 391 1709 391 
Q 2188 391 2477 730 
Q 2766 1069 2766 1631 
L 2766 1759 
L 2194 1759 
z
M 3341 1997 
L 3341 0 
L 2766 0 
L 2766 531 
Q 2569 213 2275 61 
Q 1981 -91 1556 -91 
Q 1019 -91 701 211 
Q 384 513 384 1019 
Q 384 1609 779 1909 
Q 1175 2209 1959 2209 
L 2766 2209 
L 2766 2266 
Q 2766 2663 2505 2880 
Q 2244 3097 1772 3097 
Q 1472 3097 1187 3025 
Q 903 2953 641 2809 
L 641 3341 
Q 956 3463 1253 3523 
Q 1550 3584 1831 3584 
Q 2591 3584 2966 3190 
Q 3341 2797 3341 1997 
z
" transform="scale(0.015625)"/>
       <path id="DejaVuSans-63" d="M 3122 3366 
L 3122 2828 
Q 2878 2963 2633 3030 
Q 2388 3097 2138 3097 
Q 1578 3097 1268 2742 
Q 959 2388 959 1747 
Q 959 1106 1268 751 
Q 1578 397 2138 397 
Q 2388 397 2633 464 
Q 2878 531 3122 666 
L 3122 134 
Q 2881 22 2623 -34 
Q 2366 -91 2075 -91 
Q 1284 -91 818 406 
Q 353 903 353 1747 
Q 353 2603 823 3093 
Q 1294 3584 2113 3584 
Q 2378 3584 2631 3529 
Q 2884 3475 3122 3366 
z
" transform="scale(0.015625)"/>
       <path id="DejaVuSans-20" transform="scale(0.015625)"/>
       <path id="DejaVuSans-6f" d="M 1959 3097 
Q 1497 3097 1228 2736 
Q 959 2375 959 1747 
Q 959 1119 1226 758 
Q 1494 397 1959 397 
Q 2419 397 2687 759 
Q 2956 1122 2956 1747 
Q 2956 2369 2687 2733 
Q 2419 3097 1959 3097 
z
M 1959 3584 
Q 2709 3584 3137 3096 
Q 3566 2609 3566 1747 
Q 3566 888 3137 398 
Q 2709 -91 1959 -91 
Q 1206 -91 779 398 
Q 353 888 353 1747 
Q 353 2609 779 3096 
Q 1206 3584 1959 3584 
z
" transform="scale(0.015625)"/>
       <path id="DejaVuSans-67" d="M 2906 1791 
Q 2906 2416 2648 2759 
Q 2391 3103 1925 3103 
Q 1463 3103 1205 2759 
Q 947 2416 947 1791 
Q 947 1169 1205 825 
Q 1463 481 1925 481 
Q 2391 481 2648 825 
Q 2906 1169 2906 1791 
z
M 3481 434 
Q 3481 -459 3084 -895 
Q 2688 -1331 1869 -1331 
Q 1566 -1331 1297 -1286 
Q 1028 -1241 775 -1147 
L 775 -588 
Q 1028 -725 1275 -790 
Q 1522 -856 1778 -856 
Q 2344 -856 2625 -561 
Q 2906 -266 2906 331 
L 2906 616 
Q 2728 306 2450 153 
Q 2172 0 1784 0 
Q 1141 0 747 490 
Q 353 981 353 1791 
Q 353 2603 747 3093 
Q 1141 3584 1784 3584 
Q 2172 3584 2450 3431 
Q 2728 3278 2906 2969 
L 2906 3500 
L 3481 3500 
L 3481 434 
z
" transform="scale(0.015625)"/>
      </defs>
      <use xlink:href="#DejaVuSans-53"/>
      <use xlink:href="#DejaVuSans-75" x="63.476562"/>
      <use xlink:href="#DejaVuSans-62" x="126.855469"/>
      <use xlink:href="#DejaVuSans-73" x="190.332031"/>
      <use xlink:href="#DejaVuSans-74" x="242.431641"/>
      <use xlink:href="#DejaVuSans-61" x="281.640625"/>
      <use xlink:href="#DejaVuSans-6e" x="342.919922"/>
      <use xlink:href="#DejaVuSans-63" x="406.298828"/>
      <use xlink:href="#DejaVuSans-65" x="461.279297"/>
      <use xlink:href="#DejaVuSans-20" x="522.802734"/>
      <use xlink:href="#DejaVuSans-45" x="554.589844"/>
      <use xlink:href="#DejaVuSans-6e" x="617.773438"/>
      <use xlink:href="#DejaVuSans-63" x="681.152344"/>
      <use xlink:href="#DejaVuSans-6f" x="736.132812"/>
      <use xlink:href="#DejaVuSans-64" x="797.314453"/>
      <use xlink:href="#DejaVuSans-69" x="860.791016"/>
      <use xlink:href="#DejaVuSans-6e" x="888.574219"/>
      <use xlink:href="#DejaVuSans-67" x="951.953125"/>
     </g>
    </g>
    <g id="line2d_27">
     <path d="M 1265.46125 390.397188 
L 1275.46125 390.397188 
L 1285.46125 390.397188 
" style="fill: none; stroke: #1f77b4; stroke-width: 1.5; stroke-linecap: square"/>
     <g>
      <use xlink:href="#mf410be6674" x="1275.46125" y="390.397188" style="fill: #1f77b4; stroke: #ffffff; stroke-width: 0.75"/>
     </g>
    </g>
    <g id="text_20">
     <!-- MORDRED -->
     <g style="fill: #ffffff" transform="translate(1293.46125 393.897188) scale(0.22 -0.22)">
      <defs>
       <path id="DejaVuSans-4d" d="M 628 4666 
L 1569 4666 
L 2759 1491 
L 3956 4666 
L 4897 4666 
L 4897 0 
L 4281 0 
L 4281 4097 
L 3078 897 
L 2444 897 
L 1241 4097 
L 1241 0 
L 628 0 
L 628 4666 
z
" transform="scale(0.015625)"/>
       <path id="DejaVuSans-4f" d="M 2522 4238 
Q 1834 4238 1429 3725 
Q 1025 3213 1025 2328 
Q 1025 1447 1429 934 
Q 1834 422 2522 422 
Q 3209 422 3611 934 
Q 4013 1447 4013 2328 
Q 4013 3213 3611 3725 
Q 3209 4238 2522 4238 
z
M 2522 4750 
Q 3503 4750 4090 4092 
Q 4678 3434 4678 2328 
Q 4678 1225 4090 567 
Q 3503 -91 2522 -91 
Q 1538 -91 948 565 
Q 359 1222 359 2328 
Q 359 3434 948 4092 
Q 1538 4750 2522 4750 
z
" transform="scale(0.015625)"/>
       <path id="DejaVuSans-52" d="M 2841 2188 
Q 3044 2119 3236 1894 
Q 3428 1669 3622 1275 
L 4263 0 
L 3584 0 
L 2988 1197 
Q 2756 1666 2539 1819 
Q 2322 1972 1947 1972 
L 1259 1972 
L 1259 0 
L 628 0 
L 628 4666 
L 2053 4666 
Q 2853 4666 3247 4331 
Q 3641 3997 3641 3322 
Q 3641 2881 3436 2590 
Q 3231 2300 2841 2188 
z
M 1259 4147 
L 1259 2491 
L 2053 2491 
Q 2509 2491 2742 2702 
Q 2975 2913 2975 3322 
Q 2975 3731 2742 3939 
Q 2509 4147 2053 4147 
L 1259 4147 
z
" transform="scale(0.015625)"/>
       <path id="DejaVuSans-44" d="M 1259 4147 
L 1259 519 
L 2022 519 
Q 2988 519 3436 956 
Q 3884 1394 3884 2338 
Q 3884 3275 3436 3711 
Q 2988 4147 2022 4147 
L 1259 4147 
z
M 628 4666 
L 1925 4666 
Q 3281 4666 3915 4102 
Q 4550 3538 4550 2338 
Q 4550 1131 3912 565 
Q 3275 0 1925 0 
L 628 0 
L 628 4666 
z
" transform="scale(0.015625)"/>
      </defs>
      <use xlink:href="#DejaVuSans-4d"/>
      <use xlink:href="#DejaVuSans-4f" x="86.279297"/>
      <use xlink:href="#DejaVuSans-52" x="164.990234"/>
      <use xlink:href="#DejaVuSans-44" x="234.472656"/>
      <use xlink:href="#DejaVuSans-52" x="311.474609"/>
      <use xlink:href="#DejaVuSans-45" x="380.957031"/>
      <use xlink:href="#DejaVuSans-44" x="444.140625"/>
     </g>
    </g>
    <g id="line2d_28">
     <path d="M 1265.46125 416.689063 
L 1275.46125 416.689063 
L 1285.46125 416.689063 
" style="fill: none; stroke: #ff7f0e; stroke-width: 1.5; stroke-linecap: square"/>
     <g>
      <use xlink:href="#m0a6be71b65" x="1275.46125" y="416.689063" style="fill: #ff7f0e; stroke: #ffffff; stroke-width: 0.75"/>
     </g>
    </g>
    <g id="text_21">
     <!-- RDKIT2DDESCRIPTORS -->
     <g style="fill: #ffffff" transform="translate(1293.46125 420.189063) scale(0.22 -0.22)">
      <defs>
       <path id="DejaVuSans-4b" d="M 628 4666 
L 1259 4666 
L 1259 2694 
L 3353 4666 
L 4166 4666 
L 1850 2491 
L 4331 0 
L 3500 0 
L 1259 2247 
L 1259 0 
L 628 0 
L 628 4666 
z
" transform="scale(0.015625)"/>
       <path id="DejaVuSans-49" d="M 628 4666 
L 1259 4666 
L 1259 0 
L 628 0 
L 628 4666 
z
" transform="scale(0.015625)"/>
       <path id="DejaVuSans-54" d="M -19 4666 
L 3928 4666 
L 3928 4134 
L 2272 4134 
L 2272 0 
L 1638 0 
L 1638 4134 
L -19 4134 
L -19 4666 
z
" transform="scale(0.015625)"/>
       <path id="DejaVuSans-50" d="M 1259 4147 
L 1259 2394 
L 2053 2394 
Q 2494 2394 2734 2622 
Q 2975 2850 2975 3272 
Q 2975 3691 2734 3919 
Q 2494 4147 2053 4147 
L 1259 4147 
z
M 628 4666 
L 2053 4666 
Q 2838 4666 3239 4311 
Q 3641 3956 3641 3272 
Q 3641 2581 3239 2228 
Q 2838 1875 2053 1875 
L 1259 1875 
L 1259 0 
L 628 0 
L 628 4666 
z
" transform="scale(0.015625)"/>
      </defs>
      <use xlink:href="#DejaVuSans-52"/>
      <use xlink:href="#DejaVuSans-44" x="69.482422"/>
      <use xlink:href="#DejaVuSans-4b" x="146.484375"/>
      <use xlink:href="#DejaVuSans-49" x="212.060547"/>
      <use xlink:href="#DejaVuSans-54" x="241.552734"/>
      <use xlink:href="#DejaVuSans-32" x="302.636719"/>
      <use xlink:href="#DejaVuSans-44" x="366.259766"/>
      <use xlink:href="#DejaVuSans-44" x="443.261719"/>
      <use xlink:href="#DejaVuSans-45" x="520.263672"/>
      <use xlink:href="#DejaVuSans-53" x="583.447266"/>
      <use xlink:href="#DejaVuSans-43" x="646.923828"/>
      <use xlink:href="#DejaVuSans-52" x="716.748047"/>
      <use xlink:href="#DejaVuSans-49" x="786.230469"/>
      <use xlink:href="#DejaVuSans-50" x="815.722656"/>
      <use xlink:href="#DejaVuSans-54" x="876.025391"/>
      <use xlink:href="#DejaVuSans-4f" x="937.109375"/>
      <use xlink:href="#DejaVuSans-52" x="1015.820312"/>
      <use xlink:href="#DejaVuSans-53" x="1085.302734"/>
     </g>
    </g>
    <g id="line2d_29">
     <path d="M 1265.46125 442.980938 
L 1275.46125 442.980938 
L 1285.46125 442.980938 
" style="fill: none; stroke: #2ca02c; stroke-width: 1.5; stroke-linecap: square"/>
     <g>
      <use xlink:href="#m8582c9eecb" x="1275.46125" y="442.980938" style="fill: #2ca02c; stroke: #ffffff; stroke-width: 0.75"/>
     </g>
    </g>
    <g id="text_22">
     <!-- ECFP -->
     <g style="fill: #ffffff" transform="translate(1293.46125 446.480938) scale(0.22 -0.22)">
      <defs>
       <path id="DejaVuSans-46" d="M 628 4666 
L 3309 4666 
L 3309 4134 
L 1259 4134 
L 1259 2759 
L 3109 2759 
L 3109 2228 
L 1259 2228 
L 1259 0 
L 628 0 
L 628 4666 
z
" transform="scale(0.015625)"/>
      </defs>
      <use xlink:href="#DejaVuSans-45"/>
      <use xlink:href="#DejaVuSans-43" x="63.183594"/>
      <use xlink:href="#DejaVuSans-46" x="133.007812"/>
      <use xlink:href="#DejaVuSans-50" x="190.527344"/>
     </g>
    </g>
    <g id="line2d_30">
     <path d="M 1265.46125 469.272812 
L 1275.46125 469.272812 
L 1285.46125 469.272812 
" style="fill: none; stroke: #d62728; stroke-width: 1.5; stroke-linecap: square"/>
     <g>
      <use xlink:href="#me3f21722fe" x="1275.46125" y="469.272812" style="fill: #d62728; stroke: #ffffff; stroke-width: 0.75"/>
     </g>
    </g>
    <g id="text_23">
     <!-- OneHot -->
     <g style="fill: #ffffff" transform="translate(1293.46125 472.772812) scale(0.22 -0.22)">
      <defs>
       <path id="DejaVuSans-48" d="M 628 4666 
L 1259 4666 
L 1259 2753 
L 3553 2753 
L 3553 4666 
L 4184 4666 
L 4184 0 
L 3553 0 
L 3553 2222 
L 1259 2222 
L 1259 0 
L 628 0 
L 628 4666 
z
" transform="scale(0.015625)"/>
      </defs>
      <use xlink:href="#DejaVuSans-4f"/>
      <use xlink:href="#DejaVuSans-6e" x="78.710938"/>
      <use xlink:href="#DejaVuSans-65" x="142.089844"/>
      <use xlink:href="#DejaVuSans-48" x="203.613281"/>
      <use xlink:href="#DejaVuSans-6f" x="278.808594"/>
      <use xlink:href="#DejaVuSans-74" x="339.990234"/>
     </g>
    </g>
    <g id="line2d_31">
     <path d="M 1265.46125 495.564687 
L 1275.46125 495.564687 
L 1285.46125 495.564687 
" style="fill: none; stroke: #9467bd; stroke-width: 1.5; stroke-linecap: square"/>
     <g>
      <use xlink:href="#mc412af7948" x="1275.46125" y="495.564687" style="fill: #9467bd; stroke: #ffffff; stroke-width: 0.75"/>
     </g>
    </g>
    <g id="text_24">
     <!-- Random Baseline -->
     <g style="fill: #ffffff" transform="translate(1293.46125 499.064687) scale(0.22 -0.22)">
      <use xlink:href="#DejaVuSans-52"/>
      <use xlink:href="#DejaVuSans-61" x="67.232422"/>
      <use xlink:href="#DejaVuSans-6e" x="128.511719"/>
      <use xlink:href="#DejaVuSans-64" x="191.890625"/>
      <use xlink:href="#DejaVuSans-6f" x="255.367188"/>
      <use xlink:href="#DejaVuSans-6d" x="316.548828"/>
      <use xlink:href="#DejaVuSans-20" x="413.960938"/>
      <use xlink:href="#DejaVuSans-42" x="445.748047"/>
      <use xlink:href="#DejaVuSans-61" x="514.351562"/>
      <use xlink:href="#DejaVuSans-73" x="575.630859"/>
      <use xlink:href="#DejaVuSans-65" x="627.730469"/>
      <use xlink:href="#DejaVuSans-6c" x="689.253906"/>
      <use xlink:href="#DejaVuSans-69" x="717.037109"/>
      <use xlink:href="#DejaVuSans-6e" x="744.820312"/>
      <use xlink:href="#DejaVuSans-65" x="808.199219"/>
     </g>
    </g>
   </g>
  </g>
 </g>
 <defs>
  <clipPath id="peacfc3855d">
   <rect x="216" y="69.12" width="1339.2" height="443.52"/>
  </clipPath>
 </defs>
</svg>
