<svg xmlns="http://www.w3.org/2000/svg" xmlns:xlink="http://www.w3.org/1999/xlink" width="2304" height="768" viewBox="0 0 1728 576"><defs><style>*{stroke-linejoin:round;stroke-linecap:butt}</style></defs><g id="figure_1"><path id="patch_1" d="M0 576h1728V0H0z" style="fill:none"/><g id="axes_1"><path id="patch_2" d="M216 512.64h1339.2V69.12H216z" style="fill:none"/><g id="FillBetweenPolyCollection_1"><defs><path id="m9d34362103" d="M276.873-486.72v64.016l135.272 5.91 135.273 29.237 135.273 13.278 135.273 64.478 135.272 13.315 135.273 41.811 135.273 30.16 135.273 19.554 135.272-.652v-73.164l-135.272 2.418-135.273-16.674-135.273-39.136-135.273-50.639-135.272-14.768-135.273-47.04-135.273-15.292-135.273-20.812z" style="stroke:#1f77b4;stroke-opacity:.2"/></defs><g clip-path="url(#p0fb2e83e21)"><use xlink:href="#m9d34362103" y="576" style="fill:#1f77b4;fill-opacity:.2;stroke:#1f77b4;stroke-opacity:.2"/></g></g><g id="FillBetweenPolyCollection_2"><defs><path id="m9d5e3f341a" d="M276.873-426.544v78.102l135.272 40.706 135.273 25.261 135.273 25.016 135.273 28.017 135.272 28.517L1088.51-194l135.273 14.458 135.273 1.992 135.272 5.023v-80.47l-135.272 2.47-135.273-8.232-135.273-10.12-135.273-9.352-135.272-30.85-135.273-27.332-135.273-29.476-135.273-26.637z" style="stroke:#ff7f0e;stroke-opacity:.2"/></defs><g clip-path="url(#p0fb2e83e21)"><use xlink:href="#m9d5e3f341a" y="576" style="fill:#ff7f0e;fill-opacity:.2;stroke:#ff7f0e;stroke-opacity:.2"/></g></g><g id="FillBetweenPolyCollection_3"><defs><path id="m3a26c315c2" d="M276.873-345.643v82.681l135.272 33.856 135.273 29.02 135.273 28.326 135.273 10.09 135.272 14.878 135.273 15.89 135.273 5.737 135.273.077 135.272 4.392v-47.118l-135.272-11.293-135.273-1.804-135.273-5.053-135.273-26.22-135.272-16.403-135.273-21.97-135.273-33.632-135.273-28.322z" style="stroke:#2ca02c;stroke-opacity:.2"/></defs><g clip-path="url(#p0fb2e83e21)"><use xlink:href="#m3a26c315c2" y="576" style="fill:#2ca02c;fill-opacity:.2;stroke:#2ca02c;stroke-opacity:.2"/></g></g><g id="FillBetweenPolyCollection_4"><defs><path id="mf86d849a55" d="M276.873-260.02v80.737l135.272 18.263 135.273 22.164 135.273 17.994 135.273 12.15 135.272 7.381 135.273 10.898 135.273 3.52 135.273 3.368h135.272v-29.56l-135.272-3.394-135.273-2.03-135.273-9.761-135.273-23.656-135.272-14.844-135.273-19.118-135.273-22.951-135.273-22.08z" style="stroke:#d62728;stroke-opacity:.2"/></defs><g clip-path="url(#p0fb2e83e21)"><use xlink:href="#mf86d849a55" y="576" style="fill:#d62728;fill-opacity:.2;stroke:#d62728;stroke-opacity:.2"/></g></g><g id="FillBetweenPolyCollection_5"><defs><path id="mcbffef08d6" d="M276.873-149.165v31.29l135.272 12.764 135.273 13.028 135.273 3.841 135.273 3.088 135.272 1.634h541.091-270.545l-135.273-.979-135.273-4.787-135.272-6.899-135.273-10.904-135.273-7.759-135.273-17.35z" style="stroke:#9467bd;stroke-opacity:.2"/></defs><g clip-path="url(#p0fb2e83e21)"><use xlink:href="#mcbffef08d6" y="576" style="fill:#9467bd;fill-opacity:.2;stroke:#9467bd;stroke-opacity:.2"/></g></g><g id="matplotlib.axis_1"><g id="xtick_1"><g id="line2d_1"><defs><path id="m8dd64130d2" d="M0 0v3.5" style="stroke:#000;stroke-width:.8"/></defs><use xlink:href="#m8dd64130d2" x="412.145" y="512.64" style="stroke:#000;stroke-width:.8"/></g><g id="text_1" style="fill:#fff" transform="matrix(.22 0 0 -.22 405.147 536.357)"><defs><path id="DejaVuSans-32" d="M1228 531h2203V0H469v531q359 372 979 998 621 627 780 809 303 340 423 576 121 236 121 464 0 372-261 606-261 235-680 235-297 0-627-103-329-103-704-313v638q381 153 712 231 332 78 607 78 725 0 1156-363 431-362 431-968 0-288-108-546-107-257-392-607-78-91-497-524-418-433-1181-1211" transform="scale(.01563)"/></defs><use xlink:href="#DejaVuSans-32"/></g></g><g id="xtick_2"><use xlink:href="#m8dd64130d2" id="line2d_2" x="682.691" y="512.64" style="stroke:#000;stroke-width:.8"/><g id="text_2" style="fill:#fff" transform="matrix(.22 0 0 -.22 675.692 536.357)"><defs><path id="DejaVuSans-34" d="M2419 4116 825 1625h1594zm-166 550h794V1625h666v-525h-666V0h-628v1100H313v609z" transform="scale(.01563)"/></defs><use xlink:href="#DejaVuSans-34"/></g></g><g id="xtick_3"><use xlink:href="#m8dd64130d2" id="line2d_3" x="953.236" y="512.64" style="stroke:#000;stroke-width:.8"/><g id="text_3" style="fill:#fff" transform="matrix(.22 0 0 -.22 946.238 536.357)"><defs><path id="DejaVuSans-36" d="M2113 2584q-425 0-674-291-248-290-248-796 0-503 248-796 249-292 674-292t673 292q248 293 248 796 0 506-248 796-248 291-673 291m1253 1979v-575q-238 112-480 171-242 60-480 60-625 0-955-422-329-422-376-1275 184 272 462 417 279 145 613 145 703 0 1111-427 408-426 408-1160 0-719-425-1154Q2819-91 2113-91q-810 0-1238 620-428 621-428 1799 0 1106 525 1764t1409 658q238 0 480-47t505-140" transform="scale(.01563)"/></defs><use xlink:href="#DejaVuSans-36"/></g></g><g id="xtick_4"><use xlink:href="#m8dd64130d2" id="line2d_4" x="1223.782" y="512.64" style="stroke:#000;stroke-width:.8"/><g id="text_4" style="fill:#fff" transform="matrix(.22 0 0 -.22 1216.783 536.357)"><defs><path id="DejaVuSans-38" d="M2034 2216q-450 0-708-241-257-241-257-662 0-422 257-663 258-241 708-241t709 242q260 243 260 662 0 421-258 662-257 241-711 241m-631 268q-406 100-633 378-226 279-226 679 0 559 398 884 399 325 1092 325 697 0 1094-325t397-884q0-400-227-679-226-278-629-378 456-106 710-416 255-309 255-755 0-679-414-1042Q2806-91 2034-91q-771 0-1186 362-414 363-414 1042 0 446 256 755 257 310 713 416m-231 997q0-362 226-565 227-203 636-203 407 0 636 203 230 203 230 565 0 363-230 566-229 203-636 203-409 0-636-203-226-203-226-566" transform="scale(.01563)"/></defs><use xlink:href="#DejaVuSans-38"/></g></g><g id="xtick_5"><use xlink:href="#m8dd64130d2" id="line2d_5" x="1494.327" y="512.64" style="stroke:#000;stroke-width:.8"/><g id="text_5" style="fill:#fff" transform="matrix(.22 0 0 -.22 1480.33 536.357)"><defs><path id="DejaVuSans-31" d="M794 531h1031v3560L703 3866v575l1116 225h631V531h1031V0H794z" transform="scale(.01563)"/><path id="DejaVuSans-30" d="M2034 4250q-487 0-733-480-245-479-245-1442 0-959 245-1439 246-480 733-480 491 0 736 480 246 480 246 1439 0 963-246 1442-245 480-736 480m0 500q785 0 1199-621 414-620 414-1801 0-1178-414-1799Q2819-91 2034-91q-784 0-1198 620-414 621-414 1799 0 1181 414 1801 414 621 1198 621" transform="scale(.01563)"/></defs><use xlink:href="#DejaVuSans-31"/><use xlink:href="#DejaVuSans-30" transform="translate(63.623)"/></g></g><g id="text_6" style="fill:#fff" transform="matrix(.22 0 0 -.22 784.897 561.648)"><defs><path id="DejaVuSans-4e" d="M628 4666h850L3547 763v3903h612V0h-850L1241 3903V0H628z" transform="scale(.01563)"/><path id="DejaVuSans-75" d="M544 1381v2119h575V1403q0-497 193-746 194-248 582-248 465 0 735 297 271 297 271 810v1984h575V0h-575v538q-209-319-486-474-276-155-642-155-603 0-916 375-312 375-312 1097m1447 2203" transform="scale(.01563)"/><path id="DejaVuSans-6d" d="M3328 2828q216 388 516 572t706 184q547 0 844-383 297-382 297-1088V0h-578v2094q0 503-179 746-178 244-543 244-447 0-707-297-259-296-259-809V0h-578v2094q0 506-178 748t-550 242q-441 0-701-298-259-298-259-808V0H581v3500h578v-544q197 322 472 475t653 153q382 0 649-194 267-193 395-562" transform="scale(.01563)"/><path id="DejaVuSans-5f" d="M3263-1063v-446H-63v446z" transform="scale(.01563)"/><path id="DejaVuSans-45" d="M628 4666h2950v-532H1259V2753h2222v-531H1259V531h2375V0H628z" transform="scale(.01563)"/><path id="DejaVuSans-78" d="M3513 3500 2247 1797 3578 0h-678L1881 1375 863 0H184l1360 1831L300 3500h678l928-1247 928 1247z" transform="scale(.01563)"/><path id="DejaVuSans-70" d="M1159 525v-1856H581v4831h578v-531q182 312 458 463 277 152 661 152 638 0 1036-506 399-506 399-1331T3314 415Q2916-91 2278-91q-384 0-661 152-276 152-458 464m1957 1222q0 634-261 995t-717 361q-457 0-718-361t-261-995 261-995 718-361q456 0 717 361t261 995" transform="scale(.01563)"/><path id="DejaVuSans-65" d="M3597 1894v-281H953q38-594 358-905t892-311q331 0 642 81t618 244V178Q3153 47 2828-22t-659-69q-838 0-1327 487-489 488-489 1320 0 859 464 1363 464 505 1252 505 706 0 1117-455 411-454 411-1235m-575 169q-6 471-264 752-258 282-683 282-481 0-770-272t-333-766z" transform="scale(.01563)"/><path id="DejaVuSans-72" d="M2631 2963q-97 56-211 82-114 27-251 27-488 0-749-317t-261-911V0H581v3500h578v-544q182 319 472 473 291 155 707 155 59 0 131-8 72-7 159-23z" transform="scale(.01563)"/><path id="DejaVuSans-69" d="M603 3500h575V0H603zm0 1363h575v-729H603z" transform="scale(.01563)"/><path id="DejaVuSans-6e" d="M3513 2113V0h-575v2094q0 497-194 743-194 247-581 247-466 0-735-297-269-296-269-809V0H581v3500h578v-544q207 316 486 472 280 156 646 156 603 0 912-373 310-373 310-1098" transform="scale(.01563)"/><path id="DejaVuSans-74" d="M1172 4494v-994h1184v-447H1172V1153q0-428 117-550t477-122h590V0h-590q-666 0-919 248-253 249-253 905v1900H172v447h422v994z" transform="scale(.01563)"/><path id="DejaVuSans-73" d="M2834 3397v-544q-243 125-506 187-262 63-544 63-428 0-642-131t-214-394q0-200 153-314t616-217l197-44q612-131 870-370t258-667q0-488-386-773Q2250-91 1575-91q-281 0-586 55T347 128v594q319-166 628-249 309-82 613-82 406 0 624 139 219 139 219 392 0 234-158 359-157 125-692 241l-200 47q-534 112-772 345-237 233-237 639 0 494 350 762 350 269 994 269 318 0 599-47 282-46 519-140" transform="scale(.01563)"/></defs><use xlink:href="#DejaVuSans-4e"/><use xlink:href="#DejaVuSans-75" transform="translate(74.805)"/><use xlink:href="#DejaVuSans-6d" transform="translate(138.184)"/><use xlink:href="#DejaVuSans-5f" transform="translate(235.596)"/><use xlink:href="#DejaVuSans-45" transform="translate(285.596)"/><use xlink:href="#DejaVuSans-78" transform="translate(348.78)"/><use xlink:href="#DejaVuSans-70" transform="translate(407.959)"/><use xlink:href="#DejaVuSans-65" transform="translate(471.436)"/><use xlink:href="#DejaVuSans-72" transform="translate(532.959)"/><use xlink:href="#DejaVuSans-69" transform="translate(574.072)"/><use xlink:href="#DejaVuSans-6d" transform="translate(601.855)"/><use xlink:href="#DejaVuSans-65" transform="translate(699.268)"/><use xlink:href="#DejaVuSans-6e" transform="translate(760.791)"/><use xlink:href="#DejaVuSans-74" transform="translate(824.17)"/><use xlink:href="#DejaVuSans-73" transform="translate(863.379)"/></g></g><g id="matplotlib.axis_2"><g id="ytick_1"><g id="line2d_6"><defs><path id="m07650ef4aa" d="M0 0h-3.5" style="stroke:#000;stroke-width:.8"/></defs><use xlink:href="#m07650ef4aa" x="216" y="492.529" style="stroke:#000;stroke-width:.8"/></g><g id="text_7" style="fill:#fff" transform="matrix(.22 0 0 -.22 155.578 500.887)"><defs><path id="DejaVuSans-2212" d="M678 2272h4006v-531H678z" transform="scale(.01563)"/><path id="DejaVuSans-33" d="M2597 2516q453-97 707-404 255-306 255-756 0-690-475-1069Q2609-91 1734-91q-293 0-604 58T488 141v609q262-153 574-231 313-78 654-78 593 0 904 234t311 681q0 413-289 645-289 233-804 233h-544v519h569q465 0 712 186t247 536q0 359-255 551-254 193-729 193-260 0-557-57-297-56-653-174v562q360 100 674 150t592 50q719 0 1137-327 419-326 419-882 0-388-222-655t-631-370" transform="scale(.01563)"/><path id="DejaVuSans-2e" d="M684 794h660V0H684z" transform="scale(.01563)"/></defs><use xlink:href="#DejaVuSans-2212"/><use xlink:href="#DejaVuSans-33" transform="translate(83.79)"/><use xlink:href="#DejaVuSans-2e" transform="translate(147.412)"/><use xlink:href="#DejaVuSans-30" transform="translate(179.2)"/></g></g><g id="ytick_2"><use xlink:href="#m07650ef4aa" id="line2d_7" x="216" y="406.859" style="stroke:#000;stroke-width:.8"/><g id="text_8" style="fill:#fff" transform="matrix(.22 0 0 -.22 155.578 415.217)"><defs><path id="DejaVuSans-35" d="M691 4666h2478v-532H1269V2991q137 47 274 70 138 23 276 23 781 0 1237-428 457-428 457-1159 0-753-469-1171Q2575-91 1722-91q-294 0-599 50Q819 9 494 109v635q281-153 581-228t634-75q541 0 856 284 316 284 316 772 0 487-316 771-315 285-856 285-253 0-505-56-251-56-513-175z" transform="scale(.01563)"/></defs><use xlink:href="#DejaVuSans-2212"/><use xlink:href="#DejaVuSans-32" transform="translate(83.79)"/><use xlink:href="#DejaVuSans-2e" transform="translate(147.412)"/><use xlink:href="#DejaVuSans-35" transform="translate(179.2)"/></g></g><g id="ytick_3"><use xlink:href="#m07650ef4aa" id="line2d_8" x="216" y="321.189" style="stroke:#000;stroke-width:.8"/><g id="text_9" style="fill:#fff" transform="matrix(.22 0 0 -.22 155.578 329.548)"><use xlink:href="#DejaVuSans-2212"/><use xlink:href="#DejaVuSans-32" transform="translate(83.79)"/><use xlink:href="#DejaVuSans-2e" transform="translate(147.412)"/><use xlink:href="#DejaVuSans-30" transform="translate(179.2)"/></g></g><g id="ytick_4"><use xlink:href="#m07650ef4aa" id="line2d_9" x="216" y="235.52" style="stroke:#000;stroke-width:.8"/><g id="text_10" style="fill:#fff" transform="matrix(.22 0 0 -.22 155.578 243.878)"><use xlink:href="#DejaVuSans-2212"/><use xlink:href="#DejaVuSans-31" transform="translate(83.79)"/><use xlink:href="#DejaVuSans-2e" transform="translate(147.412)"/><use xlink:href="#DejaVuSans-35" transform="translate(179.2)"/></g></g><g id="ytick_5"><use xlink:href="#m07650ef4aa" id="line2d_10" x="216" y="149.85" style="stroke:#000;stroke-width:.8"/><g id="text_11" style="fill:#fff" transform="matrix(.22 0 0 -.22 155.578 158.208)"><use xlink:href="#DejaVuSans-2212"/><use xlink:href="#DejaVuSans-31" transform="translate(83.79)"/><use xlink:href="#DejaVuSans-2e" transform="translate(147.412)"/><use xlink:href="#DejaVuSans-30" transform="translate(179.2)"/></g></g><g id="text_12" style="fill:#fff" transform="matrix(0 -.22 -.22 0 146.39 380.143)"><defs><path id="DejaVuSans-54" d="M-19 4666h3947v-532H2272V0h-634v4134H-19z" transform="scale(.01563)"/><path id="DejaVuSans-61" d="M2194 1759q-697 0-966-159t-269-544q0-306 202-486 202-179 548-179 479 0 768 339t289 901v128zm1147 238V0h-575v531q-197-318-491-470T1556-91q-537 0-855 302-317 302-317 808 0 590 395 890 396 300 1180 300h807v57q0 397-261 614t-733 217q-300 0-585-72-284-72-546-216v532q315 122 612 182 297 61 578 61 760 0 1135-394 375-393 375-1193" transform="scale(.01563)"/><path id="DejaVuSans-67" d="M2906 1791q0 625-258 968-257 344-723 344-462 0-720-344-258-343-258-968 0-622 258-966t720-344q466 0 723 344 258 344 258 966m575-1357q0-893-397-1329-396-436-1215-436-303 0-572 45t-522 139v559q253-137 500-202 247-66 503-66 566 0 847 295t281 892v285q-178-310-456-463T1784 0Q1141 0 747 490 353 981 353 1791q0 812 394 1302 394 491 1037 491 388 0 666-153t456-462v531h575z" transform="scale(.01563)"/><path id="DejaVuSans-43" d="M4122 4306v-665q-319 297-680 443-361 147-767 147-800 0-1225-489t-425-1414q0-922 425-1411t1225-489q406 0 767 147t680 444V359q-331-225-702-338-370-112-782-112-1060 0-1670 648-609 649-609 1771 0 1125 609 1773 610 649 1670 649 418 0 788-111 371-111 696-333" transform="scale(.01563)"/><path id="DejaVuSans-42" d="M1259 2228V519h1013q509 0 754 211 246 211 246 645 0 438-246 645-245 208-754 208zm0 1919V2741h935q462 0 688 173 227 174 227 530 0 353-227 528-226 175-688 175zm-631 519h1613q722 0 1112-300 391-300 391-853 0-429-200-682t-588-315q466-100 724-418 258-317 258-792 0-625-425-966Q3088 0 2303 0H628z" transform="scale(.01563)"/></defs><use xlink:href="#DejaVuSans-54"/><use xlink:href="#DejaVuSans-61" transform="translate(44.584)"/><use xlink:href="#DejaVuSans-72" transform="translate(105.863)"/><use xlink:href="#DejaVuSans-67" transform="translate(145.227)"/><use xlink:href="#DejaVuSans-65" transform="translate(208.703)"/><use xlink:href="#DejaVuSans-74" transform="translate(270.227)"/><use xlink:href="#DejaVuSans-5f" transform="translate(309.436)"/><use xlink:href="#DejaVuSans-43" transform="translate(359.436)"/><use xlink:href="#DejaVuSans-75" transform="translate(429.26)"/><use xlink:href="#DejaVuSans-6d" transform="translate(492.639)"/><use xlink:href="#DejaVuSans-42" transform="translate(590.05)"/><use xlink:href="#DejaVuSans-65" transform="translate(658.654)"/><use xlink:href="#DejaVuSans-73" transform="translate(720.178)"/><use xlink:href="#DejaVuSans-74" transform="translate(772.277)"/></g></g><g id="line2d_11"><path d="m276.873 120.484 135.272 3.817 135.273 29.356 135.273 13.182 135.273 55.451 135.272 12.969 135.273 47.196 135.273 33.823 135.273 17.988 135.272.169" clip-path="url(#p0fb2e83e21)" style="fill:none;stroke:#1f77b4;stroke-width:1.5;stroke-linecap:square"/><defs><path id="ma7e5389a64" d="M0 5A5 5 0 1 0 0-5 5 5 0 0 0 0 5z" style="stroke:#fff;stroke-width:.75"/></defs><g clip-path="url(#p0fb2e83e21)"><use xlink:href="#ma7e5389a64" x="276.873" y="120.484" style="fill:#1f77b4;stroke:#fff;stroke-width:.75"/><use xlink:href="#ma7e5389a64" x="412.145" y="124.301" style="fill:#1f77b4;stroke:#fff;stroke-width:.75"/><use xlink:href="#ma7e5389a64" x="547.418" y="153.657" style="fill:#1f77b4;stroke:#fff;stroke-width:.75"/><use xlink:href="#ma7e5389a64" x="682.691" y="166.839" style="fill:#1f77b4;stroke:#fff;stroke-width:.75"/><use xlink:href="#ma7e5389a64" x="817.964" y="222.29" style="fill:#1f77b4;stroke:#fff;stroke-width:.75"/><use xlink:href="#ma7e5389a64" x="953.236" y="235.259" style="fill:#1f77b4;stroke:#fff;stroke-width:.75"/><use xlink:href="#ma7e5389a64" x="1088.509" y="282.455" style="fill:#1f77b4;stroke:#fff;stroke-width:.75"/><use xlink:href="#ma7e5389a64" x="1223.782" y="316.278" style="fill:#1f77b4;stroke:#fff;stroke-width:.75"/><use xlink:href="#ma7e5389a64" x="1359.055" y="334.266" style="fill:#1f77b4;stroke:#fff;stroke-width:.75"/><use xlink:href="#ma7e5389a64" x="1494.327" y="334.435" style="fill:#1f77b4;stroke:#fff;stroke-width:.75"/></g></g><g id="line2d_12"><path d="m276.873 190.399 135.272 35.962 135.273 27.12 135.273 25.659 135.273 29.325 135.272 27.266 135.273 10.882 135.273 10.134 135.273 5.26 135.272 1.118" clip-path="url(#p0fb2e83e21)" style="fill:none;stroke:#ff7f0e;stroke-width:1.5;stroke-linecap:square"/><defs><path id="m3d0b8193a0" d="M0 5A5 5 0 1 0 0-5 5 5 0 0 0 0 5z" style="stroke:#fff;stroke-width:.75"/></defs><g clip-path="url(#p0fb2e83e21)"><use xlink:href="#m3d0b8193a0" x="276.873" y="190.399" style="fill:#ff7f0e;stroke:#fff;stroke-width:.75"/><use xlink:href="#m3d0b8193a0" x="412.145" y="226.361" style="fill:#ff7f0e;stroke:#fff;stroke-width:.75"/><use xlink:href="#m3d0b8193a0" x="547.418" y="253.482" style="fill:#ff7f0e;stroke:#fff;stroke-width:.75"/><use xlink:href="#m3d0b8193a0" x="682.691" y="279.14" style="fill:#ff7f0e;stroke:#fff;stroke-width:.75"/><use xlink:href="#m3d0b8193a0" x="817.964" y="308.465" style="fill:#ff7f0e;stroke:#fff;stroke-width:.75"/><use xlink:href="#m3d0b8193a0" x="953.236" y="335.731" style="fill:#ff7f0e;stroke:#fff;stroke-width:.75"/><use xlink:href="#m3d0b8193a0" x="1088.509" y="346.613" style="fill:#ff7f0e;stroke:#fff;stroke-width:.75"/><use xlink:href="#m3d0b8193a0" x="1223.782" y="356.747" style="fill:#ff7f0e;stroke:#fff;stroke-width:.75"/><use xlink:href="#m3d0b8193a0" x="1359.055" y="362.006" style="fill:#ff7f0e;stroke:#fff;stroke-width:.75"/><use xlink:href="#m3d0b8193a0" x="1494.327" y="363.125" style="fill:#ff7f0e;stroke:#fff;stroke-width:.75"/></g></g><g id="line2d_13"><path d="m276.873 273.896 135.272 33.026 135.273 24.76 135.273 32.98 135.273 18.135 135.272 16.001 135.273 21.54 135.273 4.57 135.273.325 135.272 7.436" clip-path="url(#p0fb2e83e21)" style="fill:none;stroke:#2ca02c;stroke-width:1.5;stroke-linecap:square"/><defs><path id="mff8615ca8c" d="M0 5A5 5 0 1 0 0-5 5 5 0 0 0 0 5z" style="stroke:#fff;stroke-width:.75"/></defs><g clip-path="url(#p0fb2e83e21)"><use xlink:href="#mff8615ca8c" x="276.873" y="273.896" style="fill:#2ca02c;stroke:#fff;stroke-width:.75"/><use xlink:href="#mff8615ca8c" x="412.145" y="306.922" style="fill:#2ca02c;stroke:#fff;stroke-width:.75"/><use xlink:href="#mff8615ca8c" x="547.418" y="331.682" style="fill:#2ca02c;stroke:#fff;stroke-width:.75"/><use xlink:href="#mff8615ca8c" x="682.691" y="364.663" style="fill:#2ca02c;stroke:#fff;stroke-width:.75"/><use xlink:href="#mff8615ca8c" x="817.964" y="382.797" style="fill:#2ca02c;stroke:#fff;stroke-width:.75"/><use xlink:href="#mff8615ca8c" x="953.236" y="398.798" style="fill:#2ca02c;stroke:#fff;stroke-width:.75"/><use xlink:href="#mff8615ca8c" x="1088.509" y="420.339" style="fill:#2ca02c;stroke:#fff;stroke-width:.75"/><use xlink:href="#mff8615ca8c" x="1223.782" y="424.909" style="fill:#2ca02c;stroke:#fff;stroke-width:.75"/><use xlink:href="#mff8615ca8c" x="1359.055" y="425.233" style="fill:#2ca02c;stroke:#fff;stroke-width:.75"/><use xlink:href="#mff8615ca8c" x="1494.327" y="432.669" style="fill:#2ca02c;stroke:#fff;stroke-width:.75"/></g></g><g id="line2d_14"><path d="m276.873 358.831 135.272 23.448 135.273 22.204 135.273 19.803 135.273 14.16 135.272 13.977 135.273 15.772 135.273 7.78 135.273 3.8 135.272 1.67" clip-path="url(#p0fb2e83e21)" style="fill:none;stroke:#d62728;stroke-width:1.5;stroke-linecap:square"/><defs><path id="mf27d10ad36" d="M0 5A5 5 0 1 0 0-5 5 5 0 0 0 0 5z" style="stroke:#fff;stroke-width:.75"/></defs><g clip-path="url(#p0fb2e83e21)"><use xlink:href="#mf27d10ad36" x="276.873" y="358.831" style="fill:#d62728;stroke:#fff;stroke-width:.75"/><use xlink:href="#mf27d10ad36" x="412.145" y="382.279" style="fill:#d62728;stroke:#fff;stroke-width:.75"/><use xlink:href="#mf27d10ad36" x="547.418" y="404.483" style="fill:#d62728;stroke:#fff;stroke-width:.75"/><use xlink:href="#mf27d10ad36" x="682.691" y="424.286" style="fill:#d62728;stroke:#fff;stroke-width:.75"/><use xlink:href="#mf27d10ad36" x="817.964" y="438.445" style="fill:#d62728;stroke:#fff;stroke-width:.75"/><use xlink:href="#mf27d10ad36" x="953.236" y="452.423" style="fill:#d62728;stroke:#fff;stroke-width:.75"/><use xlink:href="#mf27d10ad36" x="1088.509" y="468.195" style="fill:#d62728;stroke:#fff;stroke-width:.75"/><use xlink:href="#mf27d10ad36" x="1223.782" y="475.975" style="fill:#d62728;stroke:#fff;stroke-width:.75"/><use xlink:href="#mf27d10ad36" x="1359.055" y="479.774" style="fill:#d62728;stroke:#fff;stroke-width:.75"/><use xlink:href="#mf27d10ad36" x="1494.327" y="481.446" style="fill:#d62728;stroke:#fff;stroke-width:.75"/></g></g><g id="line2d_15"><path d="m276.873 442.716 135.272 15.14 135.273 16.236 135.273 4.992 135.273 7.164 135.272 4.185 135.273 1.72 135.273.327h270.545" clip-path="url(#p0fb2e83e21)" style="fill:none;stroke:#9467bd;stroke-width:1.5;stroke-linecap:square"/><defs><path id="m7b5b7b869e" d="M0 5A5 5 0 1 0 0-5 5 5 0 0 0 0 5z" style="stroke:#fff;stroke-width:.75"/></defs><g clip-path="url(#p0fb2e83e21)"><use xlink:href="#m7b5b7b869e" x="276.873" y="442.716" style="fill:#9467bd;stroke:#fff;stroke-width:.75"/><use xlink:href="#m7b5b7b869e" x="412.145" y="457.857" style="fill:#9467bd;stroke:#fff;stroke-width:.75"/><use xlink:href="#m7b5b7b869e" x="547.418" y="474.092" style="fill:#9467bd;stroke:#fff;stroke-width:.75"/><use xlink:href="#m7b5b7b869e" x="682.691" y="479.084" style="fill:#9467bd;stroke:#fff;stroke-width:.75"/><use xlink:href="#m7b5b7b869e" x="817.964" y="486.248" style="fill:#9467bd;stroke:#fff;stroke-width:.75"/><use xlink:href="#m7b5b7b869e" x="953.236" y="490.433" style="fill:#9467bd;stroke:#fff;stroke-width:.75"/><use xlink:href="#m7b5b7b869e" x="1088.509" y="492.154" style="fill:#9467bd;stroke:#fff;stroke-width:.75"/><use xlink:href="#m7b5b7b869e" x="1223.782" y="492.48" style="fill:#9467bd;stroke:#fff;stroke-width:.75"/><use xlink:href="#m7b5b7b869e" x="1359.055" y="492.48" style="fill:#9467bd;stroke:#fff;stroke-width:.75"/><use xlink:href="#m7b5b7b869e" x="1494.327" y="492.48" style="fill:#9467bd;stroke:#fff;stroke-width:.75"/></g></g><path id="patch_3" d="M216 512.64V69.12" style="fill:none;stroke:#fff;stroke-width:.8;stroke-linejoin:miter;stroke-linecap:square"/><path id="patch_4" d="M1555.2 512.64V69.12" style="fill:none;stroke:#fff;stroke-width:.8;stroke-linejoin:miter;stroke-linecap:square"/><path id="patch_5" d="M216 512.64h1339.2" style="fill:none;stroke:#fff;stroke-width:.8;stroke-linejoin:miter;stroke-linecap:square"/><path id="patch_6" d="M216 69.12h1339.2" style="fill:none;stroke:#fff;stroke-width:.8;stroke-linejoin:miter;stroke-linecap:square"/><g id="legend_1"><path id="patch_7" d="M1378.653 234.871H1548.2q2 0 2-2V76.12q0-2-2-2h-169.547q-2 0-2 2v156.751q0 2 2 2z" style="fill:#fff;opacity:.3;stroke:#ccc;stroke-linejoin:miter"/><g id="text_13" style="fill:#fff" transform="matrix(.22 0 0 -.22 1380.653 94.837)"><defs><path id="DejaVuSans-25" d="M4653 2053q-272 0-427-231-154-231-154-644 0-406 154-639 155-233 427-233 266 0 420 233 155 233 155 639 0 410-155 642-154 233-420 233m0 397q494 0 784-344 291-343 291-928 0-584-292-927-292-342-783-342-500 0-791 342-290 343-290 927 0 588 292 930t789 342M1428 4353q-269 0-424-233-154-232-154-639 0-412 153-644 153-231 425-231t426 231q155 232 155 644 0 403-156 637-156 235-425 235m2822 397h500L1831-91h-500zm-2822 0q494 0 787-342 294-342 294-927 0-590-292-931t-789-341-786 342q-289 343-289 930 0 582 290 925 291 344 785 344" transform="scale(.01563)"/><path id="DejaVuSans-6f" d="M1959 3097q-462 0-731-361t-269-989 267-989q268-361 733-361 460 0 728 362 269 363 269 988 0 622-269 986-268 364-728 364m0 487q750 0 1178-488 429-487 429-1349 0-859-429-1349Q2709-91 1959-91q-753 0-1180 489-426 490-426 1349 0 862 426 1349 427 488 1180 488" transform="scale(.01563)"/><path id="DejaVuSans-66" d="M2375 4863v-479h-550q-309 0-430-125-120-125-120-450v-309h947v-447h-947V0H697v3053H147v447h550v244q0 584 272 851 272 268 862 268z" transform="scale(.01563)"/><path id="DejaVuSans-64" d="M2906 2969v1894h575V0h-575v525q-181-312-458-464-276-152-664-152-634 0-1033 506-398 507-398 1332t398 1331q399 506 1033 506 388 0 664-152 277-151 458-463M947 1747q0-634 261-995t717-361 718 361q263 361 263 995t-263 995q-262 361-718 361t-717-361-261-995" transform="scale(.01563)"/></defs><use xlink:href="#DejaVuSans-25"/><use xlink:href="#DejaVuSans-6f" transform="translate(126.807)"/><use xlink:href="#DejaVuSans-66" transform="translate(187.988)"/><use xlink:href="#DejaVuSans-64" transform="translate(254.98)"/><use xlink:href="#DejaVuSans-61" transform="translate(318.457)"/><use xlink:href="#DejaVuSans-74" transform="translate(379.736)"/><use xlink:href="#DejaVuSans-61" transform="translate(418.945)"/><use xlink:href="#DejaVuSans-75" transform="translate(512.012)"/><use xlink:href="#DejaVuSans-73" transform="translate(575.39)"/><use xlink:href="#DejaVuSans-65" transform="translate(627.49)"/><use xlink:href="#DejaVuSans-64" transform="translate(689.014)"/></g><g id="line2d_21"><path d="M1435.43 117.628h20" style="fill:none;stroke:#1f77b4;stroke-width:1.5;stroke-linecap:square"/><use xlink:href="#ma7e5389a64" x="1445.429" y="117.628" style="fill:#1f77b4;stroke:#fff;stroke-width:.75"/></g><use xlink:href="#DejaVuSans-30" id="text_14" style="fill:#fff" transform="matrix(.22 0 0 -.22 1463.43 121.128)"/><g id="line2d_22"><path d="M1435.43 143.92h20" style="fill:none;stroke:#ff7f0e;stroke-width:1.5;stroke-linecap:square"/><use xlink:href="#m3d0b8193a0" x="1445.429" y="143.92" style="fill:#ff7f0e;stroke:#fff;stroke-width:.75"/></g><use xlink:href="#DejaVuSans-32" id="text_15" style="fill:#fff" transform="matrix(.22 0 0 -.22 1463.43 147.42)"/><g id="line2d_23"><path d="M1435.43 170.212h20" style="fill:none;stroke:#2ca02c;stroke-width:1.5;stroke-linecap:square"/><use xlink:href="#mff8615ca8c" x="1445.429" y="170.212" style="fill:#2ca02c;stroke:#fff;stroke-width:.75"/></g><use xlink:href="#DejaVuSans-35" id="text_16" style="fill:#fff" transform="matrix(.22 0 0 -.22 1463.43 173.712)"/><g id="line2d_24"><path d="M1435.43 196.504h20" style="fill:none;stroke:#d62728;stroke-width:1.5;stroke-linecap:square"/><use xlink:href="#mf27d10ad36" x="1445.429" y="196.504" style="fill:#d62728;stroke:#fff;stroke-width:.75"/></g><g id="text_17" style="fill:#fff" transform="matrix(.22 0 0 -.22 1463.43 200.004)"><use xlink:href="#DejaVuSans-31"/><use xlink:href="#DejaVuSans-30" transform="translate(63.623)"/></g><g id="line2d_25"><path d="M1435.43 222.796h20" style="fill:none;stroke:#9467bd;stroke-width:1.5;stroke-linecap:square"/><use xlink:href="#m7b5b7b869e" x="1445.429" y="222.796" style="fill:#9467bd;stroke:#fff;stroke-width:.75"/></g><g id="text_18" style="fill:#fff" transform="matrix(.22 0 0 -.22 1463.43 226.296)"><use xlink:href="#DejaVuSans-32"/><use xlink:href="#DejaVuSans-30" transform="translate(63.623)"/></g></g></g></g><defs><clipPath id="p0fb2e83e21"><path d="M216 69.12h1339.2v443.52H216z"/></clipPath></defs></svg>