<?xml version="1.0" encoding="utf-8" standalone="no"?>
<!DOCTYPE svg PUBLIC "-//W3C//DTD SVG 1.1//EN"
  "http://www.w3.org/Graphics/SVG/1.1/DTD/svg11.dtd">
<svg xmlns:xlink="http://www.w3.org/1999/xlink" width="1728pt" height="576pt" viewBox="0 0 1728 576" xmlns="http://www.w3.org/2000/svg" version="1.1">
 <metadata>
  <rdf:RDF xmlns:dc="http://purl.org/dc/elements/1.1/" xmlns:cc="http://creativecommons.org/ns#" xmlns:rdf="http://www.w3.org/1999/02/22-rdf-syntax-ns#">
   <cc:Work>
    <dc:type rdf:resource="http://purl.org/dc/dcmitype/StillImage"/>
    <dc:date>2024-02-29T21:22:16.240688</dc:date>
    <dc:format>image/svg+xml</dc:format>
    <dc:creator>
     <cc:Agent>
      <dc:title>Matplotlib v3.8.3, https://matplotlib.org/</dc:title>
     </cc:Agent>
    </dc:creator>
   </cc:Work>
  </rdf:RDF>
 </metadata>
 <defs>
  <style type="text/css">*{stroke-linejoin: round; stroke-linecap: butt}</style>
 </defs>
 <g id="figure_1">
  <g id="patch_1">
   <path d="M 0 576 
L 1728 576 
L 1728 0 
L 0 0 
L 0 576 
z
" style="fill: none"/>
  </g>
  <g id="axes_1">
   <g id="patch_2">
    <path d="M 216 512.64 
L 1555.2 512.64 
L 1555.2 69.12 
L 216 69.12 
L 216 512.64 
z
" style="fill: none"/>
   </g>
   <g id="PolyCollection_1">
    <defs>
     <path id="m32b2a4e502" d="M 276.872727 -131.077421 
L 276.872727 -86.376883 
L 340.949282 -223.427966 
L 405.025837 -286.776814 
L 469.102392 -331.945826 
L 533.178947 -361.849624 
L 597.255502 -393.672087 
L 661.332057 -416.315538 
L 725.408612 -438.261076 
L 789.485167 -459.204086 
L 853.561722 -471.0948 
L 917.638278 -476.617873 
L 981.714833 -480.335253 
L 1045.791388 -482.543892 
L 1109.867943 -484.055779 
L 1173.944498 -484.774644 
L 1238.021053 -485.741053 
L 1302.097608 -486.156693 
L 1366.174163 -486.470084 
L 1430.250718 -486.554511 
L 1494.327273 -486.565561 
L 1494.327273 -486.72 
L 1494.327273 -486.72 
L 1430.250718 -486.7098 
L 1366.174163 -486.650299 
L 1302.097608 -486.566142 
L 1238.021053 -486.430247 
L 1173.944498 -486.199363 
L 1109.867943 -485.643451 
L 1045.791388 -484.75622 
L 981.714833 -483.580731 
L 917.638278 -481.076084 
L 853.561722 -477.814782 
L 789.485167 -469.873537 
L 725.408612 -454.740626 
L 661.332057 -435.531779 
L 597.255502 -416.556833 
L 533.178947 -392.353966 
L 469.102392 -365.952249 
L 405.025837 -322.005087 
L 340.949282 -261.334125 
L 276.872727 -131.077421 
z
" style="stroke: #1f77b4; stroke-opacity: 0.2"/>
    </defs>
    <g clip-path="url(#p99d2218c87)">
     <use xlink:href="#m32b2a4e502" x="0" y="576" style="fill: #1f77b4; fill-opacity: 0.2; stroke: #1f77b4; stroke-opacity: 0.2"/>
    </g>
   </g>
   <g id="PolyCollection_2">
    <defs>
     <path id="m8aa1805187" d="M 276.872727 -128.764833 
L 276.872727 -85.585405 
L 340.949282 -149.104275 
L 405.025837 -219.256724 
L 469.102392 -281.453599 
L 533.178947 -335.009735 
L 597.255502 -370.574349 
L 661.332057 -385.561506 
L 725.408612 -406.337306 
L 789.485167 -426.903614 
L 853.561722 -436.717093 
L 917.638278 -448.152479 
L 981.714833 -456.206039 
L 1045.791388 -462.913427 
L 1109.867943 -467.010782 
L 1173.944498 -471.717784 
L 1238.021053 -473.836478 
L 1302.097608 -476.022888 
L 1366.174163 -477.794233 
L 1430.250718 -480.575997 
L 1494.327273 -482.652721 
L 1494.327273 -485.707443 
L 1494.327273 -485.707443 
L 1430.250718 -484.952728 
L 1366.174163 -483.547595 
L 1302.097608 -482.423552 
L 1238.021053 -480.888006 
L 1173.944498 -479.149648 
L 1109.867943 -475.795653 
L 1045.791388 -472.386889 
L 981.714833 -467.507442 
L 917.638278 -462.452029 
L 853.561722 -453.80923 
L 789.485167 -444.769732 
L 725.408612 -429.635085 
L 661.332057 -412.399291 
L 597.255502 -397.927643 
L 533.178947 -367.469746 
L 469.102392 -319.049377 
L 405.025837 -257.034574 
L 340.949282 -190.392011 
L 276.872727 -128.764833 
z
" style="stroke: #ff7f0e; stroke-opacity: 0.2"/>
    </defs>
    <g clip-path="url(#p99d2218c87)">
     <use xlink:href="#m8aa1805187" x="0" y="576" style="fill: #ff7f0e; fill-opacity: 0.2; stroke: #ff7f0e; stroke-opacity: 0.2"/>
    </g>
   </g>
   <g id="PolyCollection_3">
    <defs>
     <path id="mec27bf2a51" d="M 276.872727 -129.590991 
L 276.872727 -83.52 
L 340.949282 -211.505208 
L 405.025837 -262.966713 
L 469.102392 -296.26656 
L 533.178947 -330.678075 
L 597.255502 -349.848424 
L 661.332057 -359.712712 
L 725.408612 -369.715119 
L 789.485167 -383.491808 
L 853.561722 -398.917519 
L 917.638278 -409.748117 
L 981.714833 -423.004438 
L 1045.791388 -435.603569 
L 1109.867943 -442.482759 
L 1173.944498 -448.086306 
L 1238.021053 -454.11021 
L 1302.097608 -461.600456 
L 1366.174163 -465.716851 
L 1430.250718 -469.662771 
L 1494.327273 -474.102303 
L 1494.327273 -479.600847 
L 1494.327273 -479.600847 
L 1430.250718 -477.431712 
L 1366.174163 -474.322455 
L 1302.097608 -470.917786 
L 1238.021053 -464.952857 
L 1173.944498 -460.072461 
L 1109.867943 -454.827801 
L 1045.791388 -449.31043 
L 981.714833 -436.968313 
L 917.638278 -423.876426 
L 853.561722 -412.625237 
L 789.485167 -398.603399 
L 725.408612 -385.879933 
L 661.332057 -377.548187 
L 597.255502 -367.858079 
L 533.178947 -352.714897 
L 469.102392 -323.919106 
L 405.025837 -293.643415 
L 340.949282 -246.180728 
L 276.872727 -129.590991 
z
" style="stroke: #2ca02c; stroke-opacity: 0.2"/>
    </defs>
    <g clip-path="url(#p99d2218c87)">
     <use xlink:href="#mec27bf2a51" x="0" y="576" style="fill: #2ca02c; fill-opacity: 0.2; stroke: #2ca02c; stroke-opacity: 0.2"/>
    </g>
   </g>
   <g id="PolyCollection_4">
    <defs>
     <path id="m60b39a4dd1" d="M 276.872727 -129.814118 
L 276.872727 -85.905971 
L 340.949282 -117.830393 
L 405.025837 -179.491876 
L 469.102392 -241.96644 
L 533.178947 -304.526282 
L 597.255502 -342.397441 
L 661.332057 -361.987828 
L 725.408612 -383.636309 
L 789.485167 -396.664666 
L 853.561722 -409.771485 
L 917.638278 -423.450027 
L 981.714833 -434.193357 
L 1045.791388 -443.231714 
L 1109.867943 -451.562277 
L 1173.944498 -458.235134 
L 1238.021053 -462.00812 
L 1302.097608 -466.960689 
L 1366.174163 -471.166994 
L 1430.250718 -473.61724 
L 1494.327273 -475.963027 
L 1494.327273 -482.178615 
L 1494.327273 -482.178615 
L 1430.250718 -480.437552 
L 1366.174163 -478.602541 
L 1302.097608 -475.523764 
L 1238.021053 -472.042459 
L 1173.944498 -468.837583 
L 1109.867943 -463.22023 
L 1045.791388 -456.369984 
L 981.714833 -449.706243 
L 917.638278 -440.010738 
L 853.561722 -426.751435 
L 789.485167 -413.790817 
L 725.408612 -401.843351 
L 661.332057 -384.505095 
L 597.255502 -367.697803 
L 533.178947 -336.02315 
L 469.102392 -279.092015 
L 405.025837 -222.808155 
L 340.949282 -159.84332 
L 276.872727 -129.814118 
z
" style="stroke: #d62728; stroke-opacity: 0.2"/>
    </defs>
    <g clip-path="url(#p99d2218c87)">
     <use xlink:href="#m60b39a4dd1" x="0" y="576" style="fill: #d62728; fill-opacity: 0.2; stroke: #d62728; stroke-opacity: 0.2"/>
    </g>
   </g>
   <g id="PolyCollection_5">
    <defs>
     <path id="md526b08093" d="M 276.872727 -129.703468 
L 276.872727 -84.62518 
L 340.949282 -171.299 
L 405.025837 -216.675067 
L 469.102392 -259.645188 
L 533.178947 -287.73531 
L 597.255502 -296.836356 
L 661.332057 -321.558826 
L 725.408612 -332.731871 
L 789.485167 -346.237953 
L 853.561722 -353.989257 
L 917.638278 -362.210778 
L 981.714833 -369.590041 
L 1045.791388 -373.683195 
L 1109.867943 -381.257974 
L 1173.944498 -385.169008 
L 1238.021053 -390.699355 
L 1302.097608 -392.950692 
L 1366.174163 -395.63525 
L 1430.250718 -399.885862 
L 1494.327273 -401.300246 
L 1494.327273 -415.825041 
L 1494.327273 -415.825041 
L 1430.250718 -414.334744 
L 1366.174163 -410.200356 
L 1302.097608 -407.285142 
L 1238.021053 -405.851038 
L 1173.944498 -400.854042 
L 1109.867943 -397.912201 
L 1045.791388 -392.908674 
L 981.714833 -389.515564 
L 917.638278 -382.643749 
L 853.561722 -376.186021 
L 789.485167 -369.410583 
L 725.408612 -356.903394 
L 661.332057 -347.43363 
L 597.255502 -327.561565 
L 533.178947 -317.569103 
L 469.102392 -292.585064 
L 405.025837 -254.41762 
L 340.949282 -211.569702 
L 276.872727 -129.703468 
z
" style="stroke: #9467bd; stroke-opacity: 0.2"/>
    </defs>
    <g clip-path="url(#p99d2218c87)">
     <use xlink:href="#md526b08093" x="0" y="576" style="fill: #9467bd; fill-opacity: 0.2; stroke: #9467bd; stroke-opacity: 0.2"/>
    </g>
   </g>
   <g id="matplotlib.axis_1">
    <g id="xtick_1">
     <g id="line2d_1">
      <defs>
       <path id="m4aeae33ca8" d="M 0 0 
L 0 3.5 
" style="stroke: #000000; stroke-width: 0.8"/>
      </defs>
      <g>
       <use xlink:href="#m4aeae33ca8" x="372.98756" y="512.64" style="stroke: #000000; stroke-width: 0.8"/>
      </g>
     </g>
     <g id="text_1">
      <!-- 5 -->
      <g transform="translate(365.98881 536.356562) scale(0.22 -0.22)">
       <defs>
        <path id="DejaVuSans-35" d="M 691 4666 
L 3169 4666 
L 3169 4134 
L 1269 4134 
L 1269 2991 
Q 1406 3038 1543 3061 
Q 1681 3084 1819 3084 
Q 2600 3084 3056 2656 
Q 3513 2228 3513 1497 
Q 3513 744 3044 326 
Q 2575 -91 1722 -91 
Q 1428 -91 1123 -41 
Q 819 9 494 109 
L 494 744 
Q 775 591 1075 516 
Q 1375 441 1709 441 
Q 2250 441 2565 725 
Q 2881 1009 2881 1497 
Q 2881 1984 2565 2268 
Q 2250 2553 1709 2553 
Q 1456 2553 1204 2497 
Q 953 2441 691 2322 
L 691 4666 
z
" transform="scale(0.015625)"/>
       </defs>
       <use xlink:href="#DejaVuSans-35"/>
      </g>
     </g>
    </g>
    <g id="xtick_2">
     <g id="line2d_2">
      <g>
       <use xlink:href="#m4aeae33ca8" x="533.178947" y="512.64" style="stroke: #000000; stroke-width: 0.8"/>
      </g>
     </g>
     <g id="text_2">
      <!-- 10 -->
      <g transform="translate(519.181447 536.356562) scale(0.22 -0.22)">
       <defs>
        <path id="DejaVuSans-31" d="M 794 531 
L 1825 531 
L 1825 4091 
L 703 3866 
L 703 4441 
L 1819 4666 
L 2450 4666 
L 2450 531 
L 3481 531 
L 3481 0 
L 794 0 
L 794 531 
z
" transform="scale(0.015625)"/>
        <path id="DejaVuSans-30" d="M 2034 4250 
Q 1547 4250 1301 3770 
Q 1056 3291 1056 2328 
Q 1056 1369 1301 889 
Q 1547 409 2034 409 
Q 2525 409 2770 889 
Q 3016 1369 3016 2328 
Q 3016 3291 2770 3770 
Q 2525 4250 2034 4250 
z
M 2034 4750 
Q 2819 4750 3233 4129 
Q 3647 3509 3647 2328 
Q 3647 1150 3233 529 
Q 2819 -91 2034 -91 
Q 1250 -91 836 529 
Q 422 1150 422 2328 
Q 422 3509 836 4129 
Q 1250 4750 2034 4750 
z
" transform="scale(0.015625)"/>
       </defs>
       <use xlink:href="#DejaVuSans-31"/>
       <use xlink:href="#DejaVuSans-30" x="63.623047"/>
      </g>
     </g>
    </g>
    <g id="xtick_3">
     <g id="line2d_3">
      <g>
       <use xlink:href="#m4aeae33ca8" x="693.370335" y="512.64" style="stroke: #000000; stroke-width: 0.8"/>
      </g>
     </g>
     <g id="text_3">
      <!-- 15 -->
      <g transform="translate(679.372835 536.356562) scale(0.22 -0.22)">
       <use xlink:href="#DejaVuSans-31"/>
       <use xlink:href="#DejaVuSans-35" x="63.623047"/>
      </g>
     </g>
    </g>
    <g id="xtick_4">
     <g id="line2d_4">
      <g>
       <use xlink:href="#m4aeae33ca8" x="853.561722" y="512.64" style="stroke: #000000; stroke-width: 0.8"/>
      </g>
     </g>
     <g id="text_4">
      <!-- 20 -->
      <g transform="translate(839.564222 536.356562) scale(0.22 -0.22)">
       <defs>
        <path id="DejaVuSans-32" d="M 1228 531 
L 3431 531 
L 3431 0 
L 469 0 
L 469 531 
Q 828 903 1448 1529 
Q 2069 2156 2228 2338 
Q 2531 2678 2651 2914 
Q 2772 3150 2772 3378 
Q 2772 3750 2511 3984 
Q 2250 4219 1831 4219 
Q 1534 4219 1204 4116 
Q 875 4013 500 3803 
L 500 4441 
Q 881 4594 1212 4672 
Q 1544 4750 1819 4750 
Q 2544 4750 2975 4387 
Q 3406 4025 3406 3419 
Q 3406 3131 3298 2873 
Q 3191 2616 2906 2266 
Q 2828 2175 2409 1742 
Q 1991 1309 1228 531 
z
" transform="scale(0.015625)"/>
       </defs>
       <use xlink:href="#DejaVuSans-32"/>
       <use xlink:href="#DejaVuSans-30" x="63.623047"/>
      </g>
     </g>
    </g>
    <g id="xtick_5">
     <g id="line2d_5">
      <g>
       <use xlink:href="#m4aeae33ca8" x="1013.75311" y="512.64" style="stroke: #000000; stroke-width: 0.8"/>
      </g>
     </g>
     <g id="text_5">
      <!-- 25 -->
      <g transform="translate(999.75561 536.356562) scale(0.22 -0.22)">
       <use xlink:href="#DejaVuSans-32"/>
       <use xlink:href="#DejaVuSans-35" x="63.623047"/>
      </g>
     </g>
    </g>
    <g id="xtick_6">
     <g id="line2d_6">
      <g>
       <use xlink:href="#m4aeae33ca8" x="1173.944498" y="512.64" style="stroke: #000000; stroke-width: 0.8"/>
      </g>
     </g>
     <g id="text_6">
      <!-- 30 -->
      <g transform="translate(1159.946998 536.356562) scale(0.22 -0.22)">
       <defs>
        <path id="DejaVuSans-33" d="M 2597 2516 
Q 3050 2419 3304 2112 
Q 3559 1806 3559 1356 
Q 3559 666 3084 287 
Q 2609 -91 1734 -91 
Q 1441 -91 1130 -33 
Q 819 25 488 141 
L 488 750 
Q 750 597 1062 519 
Q 1375 441 1716 441 
Q 2309 441 2620 675 
Q 2931 909 2931 1356 
Q 2931 1769 2642 2001 
Q 2353 2234 1838 2234 
L 1294 2234 
L 1294 2753 
L 1863 2753 
Q 2328 2753 2575 2939 
Q 2822 3125 2822 3475 
Q 2822 3834 2567 4026 
Q 2313 4219 1838 4219 
Q 1578 4219 1281 4162 
Q 984 4106 628 3988 
L 628 4550 
Q 988 4650 1302 4700 
Q 1616 4750 1894 4750 
Q 2613 4750 3031 4423 
Q 3450 4097 3450 3541 
Q 3450 3153 3228 2886 
Q 3006 2619 2597 2516 
z
" transform="scale(0.015625)"/>
       </defs>
       <use xlink:href="#DejaVuSans-33"/>
       <use xlink:href="#DejaVuSans-30" x="63.623047"/>
      </g>
     </g>
    </g>
    <g id="xtick_7">
     <g id="line2d_7">
      <g>
       <use xlink:href="#m4aeae33ca8" x="1334.135885" y="512.64" style="stroke: #000000; stroke-width: 0.8"/>
      </g>
     </g>
     <g id="text_7">
      <!-- 35 -->
      <g transform="translate(1320.138385 536.356562) scale(0.22 -0.22)">
       <use xlink:href="#DejaVuSans-33"/>
       <use xlink:href="#DejaVuSans-35" x="63.623047"/>
      </g>
     </g>
    </g>
    <g id="xtick_8">
     <g id="line2d_8">
      <g>
       <use xlink:href="#m4aeae33ca8" x="1494.327273" y="512.64" style="stroke: #000000; stroke-width: 0.8"/>
      </g>
     </g>
     <g id="text_8">
      <!-- 40 -->
      <g transform="translate(1480.329773 536.356562) scale(0.22 -0.22)">
       <defs>
        <path id="DejaVuSans-34" d="M 2419 4116 
L 825 1625 
L 2419 1625 
L 2419 4116 
z
M 2253 4666 
L 3047 4666 
L 3047 1625 
L 3713 1625 
L 3713 1100 
L 3047 1100 
L 3047 0 
L 2419 0 
L 2419 1100 
L 313 1100 
L 313 1709 
L 2253 4666 
z
" transform="scale(0.015625)"/>
       </defs>
       <use xlink:href="#DejaVuSans-34"/>
       <use xlink:href="#DejaVuSans-30" x="63.623047"/>
      </g>
     </g>
    </g>
    <g id="text_9">
     <!-- Num_Experiments -->
     <g transform="translate(784.896719 561.648438) scale(0.22 -0.22)">
      <defs>
       <path id="DejaVuSans-4e" d="M 628 4666 
L 1478 4666 
L 3547 763 
L 3547 4666 
L 4159 4666 
L 4159 0 
L 3309 0 
L 1241 3903 
L 1241 0 
L 628 0 
L 628 4666 
z
" transform="scale(0.015625)"/>
       <path id="DejaVuSans-75" d="M 544 1381 
L 544 3500 
L 1119 3500 
L 1119 1403 
Q 1119 906 1312 657 
Q 1506 409 1894 409 
Q 2359 409 2629 706 
Q 2900 1003 2900 1516 
L 2900 3500 
L 3475 3500 
L 3475 0 
L 2900 0 
L 2900 538 
Q 2691 219 2414 64 
Q 2138 -91 1772 -91 
Q 1169 -91 856 284 
Q 544 659 544 1381 
z
M 1991 3584 
L 1991 3584 
z
" transform="scale(0.015625)"/>
       <path id="DejaVuSans-6d" d="M 3328 2828 
Q 3544 3216 3844 3400 
Q 4144 3584 4550 3584 
Q 5097 3584 5394 3201 
Q 5691 2819 5691 2113 
L 5691 0 
L 5113 0 
L 5113 2094 
Q 5113 2597 4934 2840 
Q 4756 3084 4391 3084 
Q 3944 3084 3684 2787 
Q 3425 2491 3425 1978 
L 3425 0 
L 2847 0 
L 2847 2094 
Q 2847 2600 2669 2842 
Q 2491 3084 2119 3084 
Q 1678 3084 1418 2786 
Q 1159 2488 1159 1978 
L 1159 0 
L 581 0 
L 581 3500 
L 1159 3500 
L 1159 2956 
Q 1356 3278 1631 3431 
Q 1906 3584 2284 3584 
Q 2666 3584 2933 3390 
Q 3200 3197 3328 2828 
z
" transform="scale(0.015625)"/>
       <path id="DejaVuSans-5f" d="M 3263 -1063 
L 3263 -1509 
L -63 -1509 
L -63 -1063 
L 3263 -1063 
z
" transform="scale(0.015625)"/>
       <path id="DejaVuSans-45" d="M 628 4666 
L 3578 4666 
L 3578 4134 
L 1259 4134 
L 1259 2753 
L 3481 2753 
L 3481 2222 
L 1259 2222 
L 1259 531 
L 3634 531 
L 3634 0 
L 628 0 
L 628 4666 
z
" transform="scale(0.015625)"/>
       <path id="DejaVuSans-78" d="M 3513 3500 
L 2247 1797 
L 3578 0 
L 2900 0 
L 1881 1375 
L 863 0 
L 184 0 
L 1544 1831 
L 300 3500 
L 978 3500 
L 1906 2253 
L 2834 3500 
L 3513 3500 
z
" transform="scale(0.015625)"/>
       <path id="DejaVuSans-70" d="M 1159 525 
L 1159 -1331 
L 581 -1331 
L 581 3500 
L 1159 3500 
L 1159 2969 
Q 1341 3281 1617 3432 
Q 1894 3584 2278 3584 
Q 2916 3584 3314 3078 
Q 3713 2572 3713 1747 
Q 3713 922 3314 415 
Q 2916 -91 2278 -91 
Q 1894 -91 1617 61 
Q 1341 213 1159 525 
z
M 3116 1747 
Q 3116 2381 2855 2742 
Q 2594 3103 2138 3103 
Q 1681 3103 1420 2742 
Q 1159 2381 1159 1747 
Q 1159 1113 1420 752 
Q 1681 391 2138 391 
Q 2594 391 2855 752 
Q 3116 1113 3116 1747 
z
" transform="scale(0.015625)"/>
       <path id="DejaVuSans-65" d="M 3597 1894 
L 3597 1613 
L 953 1613 
Q 991 1019 1311 708 
Q 1631 397 2203 397 
Q 2534 397 2845 478 
Q 3156 559 3463 722 
L 3463 178 
Q 3153 47 2828 -22 
Q 2503 -91 2169 -91 
Q 1331 -91 842 396 
Q 353 884 353 1716 
Q 353 2575 817 3079 
Q 1281 3584 2069 3584 
Q 2775 3584 3186 3129 
Q 3597 2675 3597 1894 
z
M 3022 2063 
Q 3016 2534 2758 2815 
Q 2500 3097 2075 3097 
Q 1594 3097 1305 2825 
Q 1016 2553 972 2059 
L 3022 2063 
z
" transform="scale(0.015625)"/>
       <path id="DejaVuSans-72" d="M 2631 2963 
Q 2534 3019 2420 3045 
Q 2306 3072 2169 3072 
Q 1681 3072 1420 2755 
Q 1159 2438 1159 1844 
L 1159 0 
L 581 0 
L 581 3500 
L 1159 3500 
L 1159 2956 
Q 1341 3275 1631 3429 
Q 1922 3584 2338 3584 
Q 2397 3584 2469 3576 
Q 2541 3569 2628 3553 
L 2631 2963 
z
" transform="scale(0.015625)"/>
       <path id="DejaVuSans-69" d="M 603 3500 
L 1178 3500 
L 1178 0 
L 603 0 
L 603 3500 
z
M 603 4863 
L 1178 4863 
L 1178 4134 
L 603 4134 
L 603 4863 
z
" transform="scale(0.015625)"/>
       <path id="DejaVuSans-6e" d="M 3513 2113 
L 3513 0 
L 2938 0 
L 2938 2094 
Q 2938 2591 2744 2837 
Q 2550 3084 2163 3084 
Q 1697 3084 1428 2787 
Q 1159 2491 1159 1978 
L 1159 0 
L 581 0 
L 581 3500 
L 1159 3500 
L 1159 2956 
Q 1366 3272 1645 3428 
Q 1925 3584 2291 3584 
Q 2894 3584 3203 3211 
Q 3513 2838 3513 2113 
z
" transform="scale(0.015625)"/>
       <path id="DejaVuSans-74" d="M 1172 4494 
L 1172 3500 
L 2356 3500 
L 2356 3053 
L 1172 3053 
L 1172 1153 
Q 1172 725 1289 603 
Q 1406 481 1766 481 
L 2356 481 
L 2356 0 
L 1766 0 
Q 1100 0 847 248 
Q 594 497 594 1153 
L 594 3053 
L 172 3053 
L 172 3500 
L 594 3500 
L 594 4494 
L 1172 4494 
z
" transform="scale(0.015625)"/>
       <path id="DejaVuSans-73" d="M 2834 3397 
L 2834 2853 
Q 2591 2978 2328 3040 
Q 2066 3103 1784 3103 
Q 1356 3103 1142 2972 
Q 928 2841 928 2578 
Q 928 2378 1081 2264 
Q 1234 2150 1697 2047 
L 1894 2003 
Q 2506 1872 2764 1633 
Q 3022 1394 3022 966 
Q 3022 478 2636 193 
Q 2250 -91 1575 -91 
Q 1294 -91 989 -36 
Q 684 19 347 128 
L 347 722 
Q 666 556 975 473 
Q 1284 391 1588 391 
Q 1994 391 2212 530 
Q 2431 669 2431 922 
Q 2431 1156 2273 1281 
Q 2116 1406 1581 1522 
L 1381 1569 
Q 847 1681 609 1914 
Q 372 2147 372 2553 
Q 372 3047 722 3315 
Q 1072 3584 1716 3584 
Q 2034 3584 2315 3537 
Q 2597 3491 2834 3397 
z
" transform="scale(0.015625)"/>
      </defs>
      <use xlink:href="#DejaVuSans-4e"/>
      <use xlink:href="#DejaVuSans-75" x="74.804688"/>
      <use xlink:href="#DejaVuSans-6d" x="138.183594"/>
      <use xlink:href="#DejaVuSans-5f" x="235.595703"/>
      <use xlink:href="#DejaVuSans-45" x="285.595703"/>
      <use xlink:href="#DejaVuSans-78" x="348.779297"/>
      <use xlink:href="#DejaVuSans-70" x="407.958984"/>
      <use xlink:href="#DejaVuSans-65" x="471.435547"/>
      <use xlink:href="#DejaVuSans-72" x="532.958984"/>
      <use xlink:href="#DejaVuSans-69" x="574.072266"/>
      <use xlink:href="#DejaVuSans-6d" x="601.855469"/>
      <use xlink:href="#DejaVuSans-65" x="699.267578"/>
      <use xlink:href="#DejaVuSans-6e" x="760.791016"/>
      <use xlink:href="#DejaVuSans-74" x="824.169922"/>
      <use xlink:href="#DejaVuSans-73" x="863.378906"/>
     </g>
    </g>
   </g>
   <g id="matplotlib.axis_2">
    <g id="ytick_1">
     <g id="line2d_9">
      <defs>
       <path id="me7ae800698" d="M 0 0 
L -3.5 0 
" style="stroke: #000000; stroke-width: 0.8"/>
      </defs>
      <g>
       <use xlink:href="#me7ae800698" x="216" y="485.497159" style="stroke: #000000; stroke-width: 0.8"/>
      </g>
     </g>
     <g id="text_10">
      <!-- 30 -->
      <g transform="translate(181.005 493.855441) scale(0.22 -0.22)">
       <use xlink:href="#DejaVuSans-33"/>
       <use xlink:href="#DejaVuSans-30" x="63.623047"/>
      </g>
     </g>
    </g>
    <g id="ytick_2">
     <g id="line2d_10">
      <g>
       <use xlink:href="#me7ae800698" x="216" y="428.829988" style="stroke: #000000; stroke-width: 0.8"/>
      </g>
     </g>
     <g id="text_11">
      <!-- 40 -->
      <g transform="translate(181.005 437.188269) scale(0.22 -0.22)">
       <use xlink:href="#DejaVuSans-34"/>
       <use xlink:href="#DejaVuSans-30" x="63.623047"/>
      </g>
     </g>
    </g>
    <g id="ytick_3">
     <g id="line2d_11">
      <g>
       <use xlink:href="#me7ae800698" x="216" y="372.162817" style="stroke: #000000; stroke-width: 0.8"/>
      </g>
     </g>
     <g id="text_12">
      <!-- 50 -->
      <g transform="translate(181.005 380.521098) scale(0.22 -0.22)">
       <use xlink:href="#DejaVuSans-35"/>
       <use xlink:href="#DejaVuSans-30" x="63.623047"/>
      </g>
     </g>
    </g>
    <g id="ytick_4">
     <g id="line2d_12">
      <g>
       <use xlink:href="#me7ae800698" x="216" y="315.495645" style="stroke: #000000; stroke-width: 0.8"/>
      </g>
     </g>
     <g id="text_13">
      <!-- 60 -->
      <g transform="translate(181.005 323.853927) scale(0.22 -0.22)">
       <defs>
        <path id="DejaVuSans-36" d="M 2113 2584 
Q 1688 2584 1439 2293 
Q 1191 2003 1191 1497 
Q 1191 994 1439 701 
Q 1688 409 2113 409 
Q 2538 409 2786 701 
Q 3034 994 3034 1497 
Q 3034 2003 2786 2293 
Q 2538 2584 2113 2584 
z
M 3366 4563 
L 3366 3988 
Q 3128 4100 2886 4159 
Q 2644 4219 2406 4219 
Q 1781 4219 1451 3797 
Q 1122 3375 1075 2522 
Q 1259 2794 1537 2939 
Q 1816 3084 2150 3084 
Q 2853 3084 3261 2657 
Q 3669 2231 3669 1497 
Q 3669 778 3244 343 
Q 2819 -91 2113 -91 
Q 1303 -91 875 529 
Q 447 1150 447 2328 
Q 447 3434 972 4092 
Q 1497 4750 2381 4750 
Q 2619 4750 2861 4703 
Q 3103 4656 3366 4563 
z
" transform="scale(0.015625)"/>
       </defs>
       <use xlink:href="#DejaVuSans-36"/>
       <use xlink:href="#DejaVuSans-30" x="63.623047"/>
      </g>
     </g>
    </g>
    <g id="ytick_5">
     <g id="line2d_13">
      <g>
       <use xlink:href="#me7ae800698" x="216" y="258.828474" style="stroke: #000000; stroke-width: 0.8"/>
      </g>
     </g>
     <g id="text_14">
      <!-- 70 -->
      <g transform="translate(181.005 267.186755) scale(0.22 -0.22)">
       <defs>
        <path id="DejaVuSans-37" d="M 525 4666 
L 3525 4666 
L 3525 4397 
L 1831 0 
L 1172 0 
L 2766 4134 
L 525 4134 
L 525 4666 
z
" transform="scale(0.015625)"/>
       </defs>
       <use xlink:href="#DejaVuSans-37"/>
       <use xlink:href="#DejaVuSans-30" x="63.623047"/>
      </g>
     </g>
    </g>
    <g id="ytick_6">
     <g id="line2d_14">
      <g>
       <use xlink:href="#me7ae800698" x="216" y="202.161303" style="stroke: #000000; stroke-width: 0.8"/>
      </g>
     </g>
     <g id="text_15">
      <!-- 80 -->
      <g transform="translate(181.005 210.519584) scale(0.22 -0.22)">
       <defs>
        <path id="DejaVuSans-38" d="M 2034 2216 
Q 1584 2216 1326 1975 
Q 1069 1734 1069 1313 
Q 1069 891 1326 650 
Q 1584 409 2034 409 
Q 2484 409 2743 651 
Q 3003 894 3003 1313 
Q 3003 1734 2745 1975 
Q 2488 2216 2034 2216 
z
M 1403 2484 
Q 997 2584 770 2862 
Q 544 3141 544 3541 
Q 544 4100 942 4425 
Q 1341 4750 2034 4750 
Q 2731 4750 3128 4425 
Q 3525 4100 3525 3541 
Q 3525 3141 3298 2862 
Q 3072 2584 2669 2484 
Q 3125 2378 3379 2068 
Q 3634 1759 3634 1313 
Q 3634 634 3220 271 
Q 2806 -91 2034 -91 
Q 1263 -91 848 271 
Q 434 634 434 1313 
Q 434 1759 690 2068 
Q 947 2378 1403 2484 
z
M 1172 3481 
Q 1172 3119 1398 2916 
Q 1625 2713 2034 2713 
Q 2441 2713 2670 2916 
Q 2900 3119 2900 3481 
Q 2900 3844 2670 4047 
Q 2441 4250 2034 4250 
Q 1625 4250 1398 4047 
Q 1172 3844 1172 3481 
z
" transform="scale(0.015625)"/>
       </defs>
       <use xlink:href="#DejaVuSans-38"/>
       <use xlink:href="#DejaVuSans-30" x="63.623047"/>
      </g>
     </g>
    </g>
    <g id="ytick_7">
     <g id="line2d_15">
      <g>
       <use xlink:href="#me7ae800698" x="216" y="145.494131" style="stroke: #000000; stroke-width: 0.8"/>
      </g>
     </g>
     <g id="text_16">
      <!-- 90 -->
      <g transform="translate(181.005 153.852413) scale(0.22 -0.22)">
       <defs>
        <path id="DejaVuSans-39" d="M 703 97 
L 703 672 
Q 941 559 1184 500 
Q 1428 441 1663 441 
Q 2288 441 2617 861 
Q 2947 1281 2994 2138 
Q 2813 1869 2534 1725 
Q 2256 1581 1919 1581 
Q 1219 1581 811 2004 
Q 403 2428 403 3163 
Q 403 3881 828 4315 
Q 1253 4750 1959 4750 
Q 2769 4750 3195 4129 
Q 3622 3509 3622 2328 
Q 3622 1225 3098 567 
Q 2575 -91 1691 -91 
Q 1453 -91 1209 -44 
Q 966 3 703 97 
z
M 1959 2075 
Q 2384 2075 2632 2365 
Q 2881 2656 2881 3163 
Q 2881 3666 2632 3958 
Q 2384 4250 1959 4250 
Q 1534 4250 1286 3958 
Q 1038 3666 1038 3163 
Q 1038 2656 1286 2365 
Q 1534 2075 1959 2075 
z
" transform="scale(0.015625)"/>
       </defs>
       <use xlink:href="#DejaVuSans-39"/>
       <use xlink:href="#DejaVuSans-30" x="63.623047"/>
      </g>
     </g>
    </g>
    <g id="ytick_8">
     <g id="line2d_16">
      <g>
       <use xlink:href="#me7ae800698" x="216" y="88.82696" style="stroke: #000000; stroke-width: 0.8"/>
      </g>
     </g>
     <g id="text_17">
      <!-- 100 -->
      <g transform="translate(167.0075 97.185241) scale(0.22 -0.22)">
       <use xlink:href="#DejaVuSans-31"/>
       <use xlink:href="#DejaVuSans-30" x="63.623047"/>
       <use xlink:href="#DejaVuSans-30" x="127.246094"/>
      </g>
     </g>
    </g>
    <g id="text_18">
     <!-- yield_CumBest -->
     <g transform="translate(157.820312 372.479375) rotate(-90) scale(0.22 -0.22)">
      <defs>
       <path id="DejaVuSans-79" d="M 2059 -325 
Q 1816 -950 1584 -1140 
Q 1353 -1331 966 -1331 
L 506 -1331 
L 506 -850 
L 844 -850 
Q 1081 -850 1212 -737 
Q 1344 -625 1503 -206 
L 1606 56 
L 191 3500 
L 800 3500 
L 1894 763 
L 2988 3500 
L 3597 3500 
L 2059 -325 
z
" transform="scale(0.015625)"/>
       <path id="DejaVuSans-6c" d="M 603 4863 
L 1178 4863 
L 1178 0 
L 603 0 
L 603 4863 
z
" transform="scale(0.015625)"/>
       <path id="DejaVuSans-64" d="M 2906 2969 
L 2906 4863 
L 3481 4863 
L 3481 0 
L 2906 0 
L 2906 525 
Q 2725 213 2448 61 
Q 2172 -91 1784 -91 
Q 1150 -91 751 415 
Q 353 922 353 1747 
Q 353 2572 751 3078 
Q 1150 3584 1784 3584 
Q 2172 3584 2448 3432 
Q 2725 3281 2906 2969 
z
M 947 1747 
Q 947 1113 1208 752 
Q 1469 391 1925 391 
Q 2381 391 2643 752 
Q 2906 1113 2906 1747 
Q 2906 2381 2643 2742 
Q 2381 3103 1925 3103 
Q 1469 3103 1208 2742 
Q 947 2381 947 1747 
z
" transform="scale(0.015625)"/>
       <path id="DejaVuSans-43" d="M 4122 4306 
L 4122 3641 
Q 3803 3938 3442 4084 
Q 3081 4231 2675 4231 
Q 1875 4231 1450 3742 
Q 1025 3253 1025 2328 
Q 1025 1406 1450 917 
Q 1875 428 2675 428 
Q 3081 428 3442 575 
Q 3803 722 4122 1019 
L 4122 359 
Q 3791 134 3420 21 
Q 3050 -91 2638 -91 
Q 1578 -91 968 557 
Q 359 1206 359 2328 
Q 359 3453 968 4101 
Q 1578 4750 2638 4750 
Q 3056 4750 3426 4639 
Q 3797 4528 4122 4306 
z
" transform="scale(0.015625)"/>
       <path id="DejaVuSans-42" d="M 1259 2228 
L 1259 519 
L 2272 519 
Q 2781 519 3026 730 
Q 3272 941 3272 1375 
Q 3272 1813 3026 2020 
Q 2781 2228 2272 2228 
L 1259 2228 
z
M 1259 4147 
L 1259 2741 
L 2194 2741 
Q 2656 2741 2882 2914 
Q 3109 3088 3109 3444 
Q 3109 3797 2882 3972 
Q 2656 4147 2194 4147 
L 1259 4147 
z
M 628 4666 
L 2241 4666 
Q 2963 4666 3353 4366 
Q 3744 4066 3744 3513 
Q 3744 3084 3544 2831 
Q 3344 2578 2956 2516 
Q 3422 2416 3680 2098 
Q 3938 1781 3938 1306 
Q 3938 681 3513 340 
Q 3088 0 2303 0 
L 628 0 
L 628 4666 
z
" transform="scale(0.015625)"/>
      </defs>
      <use xlink:href="#DejaVuSans-79"/>
      <use xlink:href="#DejaVuSans-69" x="59.179688"/>
      <use xlink:href="#DejaVuSans-65" x="86.962891"/>
      <use xlink:href="#DejaVuSans-6c" x="148.486328"/>
      <use xlink:href="#DejaVuSans-64" x="176.269531"/>
      <use xlink:href="#DejaVuSans-5f" x="239.746094"/>
      <use xlink:href="#DejaVuSans-43" x="289.746094"/>
      <use xlink:href="#DejaVuSans-75" x="359.570312"/>
      <use xlink:href="#DejaVuSans-6d" x="422.949219"/>
      <use xlink:href="#DejaVuSans-42" x="520.361328"/>
      <use xlink:href="#DejaVuSans-65" x="588.964844"/>
      <use xlink:href="#DejaVuSans-73" x="650.488281"/>
      <use xlink:href="#DejaVuSans-74" x="702.587891"/>
     </g>
    </g>
   </g>
   <g id="line2d_17">
    <path d="M 276.872727 468.829078 
L 340.949282 333.660591 
L 405.025837 271.88289 
L 469.102392 226.799339 
L 533.178947 199.286011 
L 597.255502 171.235761 
L 661.332057 149.889237 
L 725.408612 129.498122 
L 789.485167 110.926874 
L 853.561722 101.408772 
L 917.638278 97.108301 
L 981.714833 93.941739 
L 1045.791388 92.241724 
L 1109.867943 91.08458 
L 1173.944498 90.429791 
L 1238.021053 89.859153 
L 1302.097608 89.607267 
L 1366.174163 89.435566 
L 1430.250718 89.368982 
L 1494.327273 89.358782 
" clip-path="url(#p99d2218c87)" style="fill: none; stroke: #1f77b4; stroke-width: 1.5; stroke-linecap: square"/>
    <defs>
     <path id="mdf4a937ad2" d="M 0 5 
C 1.326016 5 2.597899 4.473168 3.535534 3.535534 
C 4.473168 2.597899 5 1.326016 5 0 
C 5 -1.326016 4.473168 -2.597899 3.535534 -3.535534 
C 2.597899 -4.473168 1.326016 -5 0 -5 
C -1.326016 -5 -2.597899 -4.473168 -3.535534 -3.535534 
C -4.473168 -2.597899 -5 -1.326016 -5 0 
C -5 1.326016 -4.473168 2.597899 -3.535534 3.535534 
C -2.597899 4.473168 -1.326016 5 0 5 
z
" style="stroke: #ffffff; stroke-width: 0.75"/>
    </defs>
    <g clip-path="url(#p99d2218c87)">
     <use xlink:href="#mdf4a937ad2" x="276.872727" y="468.829078" style="fill: #1f77b4; stroke: #ffffff; stroke-width: 0.75"/>
     <use xlink:href="#mdf4a937ad2" x="340.949282" y="333.660591" style="fill: #1f77b4; stroke: #ffffff; stroke-width: 0.75"/>
     <use xlink:href="#mdf4a937ad2" x="405.025837" y="271.88289" style="fill: #1f77b4; stroke: #ffffff; stroke-width: 0.75"/>
     <use xlink:href="#mdf4a937ad2" x="469.102392" y="226.799339" style="fill: #1f77b4; stroke: #ffffff; stroke-width: 0.75"/>
     <use xlink:href="#mdf4a937ad2" x="533.178947" y="199.286011" style="fill: #1f77b4; stroke: #ffffff; stroke-width: 0.75"/>
     <use xlink:href="#mdf4a937ad2" x="597.255502" y="171.235761" style="fill: #1f77b4; stroke: #ffffff; stroke-width: 0.75"/>
     <use xlink:href="#mdf4a937ad2" x="661.332057" y="149.889237" style="fill: #1f77b4; stroke: #ffffff; stroke-width: 0.75"/>
     <use xlink:href="#mdf4a937ad2" x="725.408612" y="129.498122" style="fill: #1f77b4; stroke: #ffffff; stroke-width: 0.75"/>
     <use xlink:href="#mdf4a937ad2" x="789.485167" y="110.926874" style="fill: #1f77b4; stroke: #ffffff; stroke-width: 0.75"/>
     <use xlink:href="#mdf4a937ad2" x="853.561722" y="101.408772" style="fill: #1f77b4; stroke: #ffffff; stroke-width: 0.75"/>
     <use xlink:href="#mdf4a937ad2" x="917.638278" y="97.108301" style="fill: #1f77b4; stroke: #ffffff; stroke-width: 0.75"/>
     <use xlink:href="#mdf4a937ad2" x="981.714833" y="93.941739" style="fill: #1f77b4; stroke: #ffffff; stroke-width: 0.75"/>
     <use xlink:href="#mdf4a937ad2" x="1045.791388" y="92.241724" style="fill: #1f77b4; stroke: #ffffff; stroke-width: 0.75"/>
     <use xlink:href="#mdf4a937ad2" x="1109.867943" y="91.08458" style="fill: #1f77b4; stroke: #ffffff; stroke-width: 0.75"/>
     <use xlink:href="#mdf4a937ad2" x="1173.944498" y="90.429791" style="fill: #1f77b4; stroke: #ffffff; stroke-width: 0.75"/>
     <use xlink:href="#mdf4a937ad2" x="1238.021053" y="89.859153" style="fill: #1f77b4; stroke: #ffffff; stroke-width: 0.75"/>
     <use xlink:href="#mdf4a937ad2" x="1302.097608" y="89.607267" style="fill: #1f77b4; stroke: #ffffff; stroke-width: 0.75"/>
     <use xlink:href="#mdf4a937ad2" x="1366.174163" y="89.435566" style="fill: #1f77b4; stroke: #ffffff; stroke-width: 0.75"/>
     <use xlink:href="#mdf4a937ad2" x="1430.250718" y="89.368982" style="fill: #1f77b4; stroke: #ffffff; stroke-width: 0.75"/>
     <use xlink:href="#mdf4a937ad2" x="1494.327273" y="89.358782" style="fill: #1f77b4; stroke: #ffffff; stroke-width: 0.75"/>
    </g>
   </g>
   <g id="line2d_18">
    <path d="M 276.872727 468.829078 
L 340.949282 406.570273 
L 405.025837 338.905421 
L 469.102392 274.8769 
L 533.178947 223.595944 
L 597.255502 191.671643 
L 661.332057 175.834302 
L 725.408612 157.912742 
L 789.485167 140.218418 
L 853.561722 129.743491 
L 917.638278 120.712444 
L 981.714833 113.679198 
L 1045.791388 108.347384 
L 1109.867943 104.316931 
L 1173.944498 100.244262 
L 1238.021053 98.460946 
L 1302.097608 96.32856 
L 1366.174163 95.133733 
L 1430.250718 92.923713 
L 1494.327273 91.523184 
" clip-path="url(#p99d2218c87)" style="fill: none; stroke: #ff7f0e; stroke-width: 1.5; stroke-linecap: square"/>
    <defs>
     <path id="m53d1898561" d="M 0 5 
C 1.326016 5 2.597899 4.473168 3.535534 3.535534 
C 4.473168 2.597899 5 1.326016 5 0 
C 5 -1.326016 4.473168 -2.597899 3.535534 -3.535534 
C 2.597899 -4.473168 1.326016 -5 0 -5 
C -1.326016 -5 -2.597899 -4.473168 -3.535534 -3.535534 
C -4.473168 -2.597899 -5 -1.326016 -5 0 
C -5 1.326016 -4.473168 2.597899 -3.535534 3.535534 
C -2.597899 4.473168 -1.326016 5 0 5 
z
" style="stroke: #ffffff; stroke-width: 0.75"/>
    </defs>
    <g clip-path="url(#p99d2218c87)">
     <use xlink:href="#m53d1898561" x="276.872727" y="468.829078" style="fill: #ff7f0e; stroke: #ffffff; stroke-width: 0.75"/>
     <use xlink:href="#m53d1898561" x="340.949282" y="406.570273" style="fill: #ff7f0e; stroke: #ffffff; stroke-width: 0.75"/>
     <use xlink:href="#m53d1898561" x="405.025837" y="338.905421" style="fill: #ff7f0e; stroke: #ffffff; stroke-width: 0.75"/>
     <use xlink:href="#m53d1898561" x="469.102392" y="274.8769" style="fill: #ff7f0e; stroke: #ffffff; stroke-width: 0.75"/>
     <use xlink:href="#m53d1898561" x="533.178947" y="223.595944" style="fill: #ff7f0e; stroke: #ffffff; stroke-width: 0.75"/>
     <use xlink:href="#m53d1898561" x="597.255502" y="191.671643" style="fill: #ff7f0e; stroke: #ffffff; stroke-width: 0.75"/>
     <use xlink:href="#m53d1898561" x="661.332057" y="175.834302" style="fill: #ff7f0e; stroke: #ffffff; stroke-width: 0.75"/>
     <use xlink:href="#m53d1898561" x="725.408612" y="157.912742" style="fill: #ff7f0e; stroke: #ffffff; stroke-width: 0.75"/>
     <use xlink:href="#m53d1898561" x="789.485167" y="140.218418" style="fill: #ff7f0e; stroke: #ffffff; stroke-width: 0.75"/>
     <use xlink:href="#m53d1898561" x="853.561722" y="129.743491" style="fill: #ff7f0e; stroke: #ffffff; stroke-width: 0.75"/>
     <use xlink:href="#m53d1898561" x="917.638278" y="120.712444" style="fill: #ff7f0e; stroke: #ffffff; stroke-width: 0.75"/>
     <use xlink:href="#m53d1898561" x="981.714833" y="113.679198" style="fill: #ff7f0e; stroke: #ffffff; stroke-width: 0.75"/>
     <use xlink:href="#m53d1898561" x="1045.791388" y="108.347384" style="fill: #ff7f0e; stroke: #ffffff; stroke-width: 0.75"/>
     <use xlink:href="#m53d1898561" x="1109.867943" y="104.316931" style="fill: #ff7f0e; stroke: #ffffff; stroke-width: 0.75"/>
     <use xlink:href="#m53d1898561" x="1173.944498" y="100.244262" style="fill: #ff7f0e; stroke: #ffffff; stroke-width: 0.75"/>
     <use xlink:href="#m53d1898561" x="1238.021053" y="98.460946" style="fill: #ff7f0e; stroke: #ffffff; stroke-width: 0.75"/>
     <use xlink:href="#m53d1898561" x="1302.097608" y="96.32856" style="fill: #ff7f0e; stroke: #ffffff; stroke-width: 0.75"/>
     <use xlink:href="#m53d1898561" x="1366.174163" y="95.133733" style="fill: #ff7f0e; stroke: #ffffff; stroke-width: 0.75"/>
     <use xlink:href="#m53d1898561" x="1430.250718" y="92.923713" style="fill: #ff7f0e; stroke: #ffffff; stroke-width: 0.75"/>
     <use xlink:href="#m53d1898561" x="1494.327273" y="91.523184" style="fill: #ff7f0e; stroke: #ffffff; stroke-width: 0.75"/>
    </g>
   </g>
   <g id="line2d_19">
    <path d="M 276.872727 468.829078 
L 340.949282 347.260428 
L 405.025837 297.448568 
L 469.102392 265.848403 
L 533.178947 234.275155 
L 597.255502 216.687082 
L 661.332057 207.375249 
L 725.408612 198.173351 
L 789.485167 184.513446 
L 853.561722 170.242385 
L 917.638278 159.253771 
L 981.714833 145.200879 
L 1045.791388 133.838828 
L 1109.867943 127.185535 
L 1173.944498 121.868738 
L 1238.021053 116.459006 
L 1302.097608 109.541645 
L 1366.174163 105.778378 
L 1430.250718 102.096428 
L 1494.327273 98.993051 
" clip-path="url(#p99d2218c87)" style="fill: none; stroke: #2ca02c; stroke-width: 1.5; stroke-linecap: square"/>
    <defs>
     <path id="mdc81fa0d28" d="M 0 5 
C 1.326016 5 2.597899 4.473168 3.535534 3.535534 
C 4.473168 2.597899 5 1.326016 5 0 
C 5 -1.326016 4.473168 -2.597899 3.535534 -3.535534 
C 2.597899 -4.473168 1.326016 -5 0 -5 
C -1.326016 -5 -2.597899 -4.473168 -3.535534 -3.535534 
C -4.473168 -2.597899 -5 -1.326016 -5 0 
C -5 1.326016 -4.473168 2.597899 -3.535534 3.535534 
C -2.597899 4.473168 -1.326016 5 0 5 
z
" style="stroke: #ffffff; stroke-width: 0.75"/>
    </defs>
    <g clip-path="url(#p99d2218c87)">
     <use xlink:href="#mdc81fa0d28" x="276.872727" y="468.829078" style="fill: #2ca02c; stroke: #ffffff; stroke-width: 0.75"/>
     <use xlink:href="#mdc81fa0d28" x="340.949282" y="347.260428" style="fill: #2ca02c; stroke: #ffffff; stroke-width: 0.75"/>
     <use xlink:href="#mdc81fa0d28" x="405.025837" y="297.448568" style="fill: #2ca02c; stroke: #ffffff; stroke-width: 0.75"/>
     <use xlink:href="#mdc81fa0d28" x="469.102392" y="265.848403" style="fill: #2ca02c; stroke: #ffffff; stroke-width: 0.75"/>
     <use xlink:href="#mdc81fa0d28" x="533.178947" y="234.275155" style="fill: #2ca02c; stroke: #ffffff; stroke-width: 0.75"/>
     <use xlink:href="#mdc81fa0d28" x="597.255502" y="216.687082" style="fill: #2ca02c; stroke: #ffffff; stroke-width: 0.75"/>
     <use xlink:href="#mdc81fa0d28" x="661.332057" y="207.375249" style="fill: #2ca02c; stroke: #ffffff; stroke-width: 0.75"/>
     <use xlink:href="#mdc81fa0d28" x="725.408612" y="198.173351" style="fill: #2ca02c; stroke: #ffffff; stroke-width: 0.75"/>
     <use xlink:href="#mdc81fa0d28" x="789.485167" y="184.513446" style="fill: #2ca02c; stroke: #ffffff; stroke-width: 0.75"/>
     <use xlink:href="#mdc81fa0d28" x="853.561722" y="170.242385" style="fill: #2ca02c; stroke: #ffffff; stroke-width: 0.75"/>
     <use xlink:href="#mdc81fa0d28" x="917.638278" y="159.253771" style="fill: #2ca02c; stroke: #ffffff; stroke-width: 0.75"/>
     <use xlink:href="#mdc81fa0d28" x="981.714833" y="145.200879" style="fill: #2ca02c; stroke: #ffffff; stroke-width: 0.75"/>
     <use xlink:href="#mdc81fa0d28" x="1045.791388" y="133.838828" style="fill: #2ca02c; stroke: #ffffff; stroke-width: 0.75"/>
     <use xlink:href="#mdc81fa0d28" x="1109.867943" y="127.185535" style="fill: #2ca02c; stroke: #ffffff; stroke-width: 0.75"/>
     <use xlink:href="#mdc81fa0d28" x="1173.944498" y="121.868738" style="fill: #2ca02c; stroke: #ffffff; stroke-width: 0.75"/>
     <use xlink:href="#mdc81fa0d28" x="1238.021053" y="116.459006" style="fill: #2ca02c; stroke: #ffffff; stroke-width: 0.75"/>
     <use xlink:href="#mdc81fa0d28" x="1302.097608" y="109.541645" style="fill: #2ca02c; stroke: #ffffff; stroke-width: 0.75"/>
     <use xlink:href="#mdc81fa0d28" x="1366.174163" y="105.778378" style="fill: #2ca02c; stroke: #ffffff; stroke-width: 0.75"/>
     <use xlink:href="#mdc81fa0d28" x="1430.250718" y="102.096428" style="fill: #2ca02c; stroke: #ffffff; stroke-width: 0.75"/>
     <use xlink:href="#mdc81fa0d28" x="1494.327273" y="98.993051" style="fill: #2ca02c; stroke: #ffffff; stroke-width: 0.75"/>
    </g>
   </g>
   <g id="line2d_20">
    <path d="M 276.872727 468.829078 
L 340.949282 436.251404 
L 405.025837 375.290561 
L 469.102392 315.101242 
L 533.178947 256.367419 
L 597.255502 221.192689 
L 661.332057 202.505556 
L 725.408612 183.09535 
L 789.485167 170.457437 
L 853.561722 157.594556 
L 917.638278 144.498206 
L 981.714833 133.622359 
L 1045.791388 125.811923 
L 1109.867943 118.187922 
L 1173.944498 112.456321 
L 1238.021053 108.796188 
L 1302.097608 104.433949 
L 1366.174163 101.029669 
L 1430.250718 98.679398 
L 1494.327273 96.664313 
" clip-path="url(#p99d2218c87)" style="fill: none; stroke: #d62728; stroke-width: 1.5; stroke-linecap: square"/>
    <defs>
     <path id="m680de6331c" d="M 0 5 
C 1.326016 5 2.597899 4.473168 3.535534 3.535534 
C 4.473168 2.597899 5 1.326016 5 0 
C 5 -1.326016 4.473168 -2.597899 3.535534 -3.535534 
C 2.597899 -4.473168 1.326016 -5 0 -5 
C -1.326016 -5 -2.597899 -4.473168 -3.535534 -3.535534 
C -4.473168 -2.597899 -5 -1.326016 -5 0 
C -5 1.326016 -4.473168 2.597899 -3.535534 3.535534 
C -2.597899 4.473168 -1.326016 5 0 5 
z
" style="stroke: #ffffff; stroke-width: 0.75"/>
    </defs>
    <g clip-path="url(#p99d2218c87)">
     <use xlink:href="#m680de6331c" x="276.872727" y="468.829078" style="fill: #d62728; stroke: #ffffff; stroke-width: 0.75"/>
     <use xlink:href="#m680de6331c" x="340.949282" y="436.251404" style="fill: #d62728; stroke: #ffffff; stroke-width: 0.75"/>
     <use xlink:href="#m680de6331c" x="405.025837" y="375.290561" style="fill: #d62728; stroke: #ffffff; stroke-width: 0.75"/>
     <use xlink:href="#m680de6331c" x="469.102392" y="315.101242" style="fill: #d62728; stroke: #ffffff; stroke-width: 0.75"/>
     <use xlink:href="#m680de6331c" x="533.178947" y="256.367419" style="fill: #d62728; stroke: #ffffff; stroke-width: 0.75"/>
     <use xlink:href="#m680de6331c" x="597.255502" y="221.192689" style="fill: #d62728; stroke: #ffffff; stroke-width: 0.75"/>
     <use xlink:href="#m680de6331c" x="661.332057" y="202.505556" style="fill: #d62728; stroke: #ffffff; stroke-width: 0.75"/>
     <use xlink:href="#m680de6331c" x="725.408612" y="183.09535" style="fill: #d62728; stroke: #ffffff; stroke-width: 0.75"/>
     <use xlink:href="#m680de6331c" x="789.485167" y="170.457437" style="fill: #d62728; stroke: #ffffff; stroke-width: 0.75"/>
     <use xlink:href="#m680de6331c" x="853.561722" y="157.594556" style="fill: #d62728; stroke: #ffffff; stroke-width: 0.75"/>
     <use xlink:href="#m680de6331c" x="917.638278" y="144.498206" style="fill: #d62728; stroke: #ffffff; stroke-width: 0.75"/>
     <use xlink:href="#m680de6331c" x="981.714833" y="133.622359" style="fill: #d62728; stroke: #ffffff; stroke-width: 0.75"/>
     <use xlink:href="#m680de6331c" x="1045.791388" y="125.811923" style="fill: #d62728; stroke: #ffffff; stroke-width: 0.75"/>
     <use xlink:href="#m680de6331c" x="1109.867943" y="118.187922" style="fill: #d62728; stroke: #ffffff; stroke-width: 0.75"/>
     <use xlink:href="#m680de6331c" x="1173.944498" y="112.456321" style="fill: #d62728; stroke: #ffffff; stroke-width: 0.75"/>
     <use xlink:href="#m680de6331c" x="1238.021053" y="108.796188" style="fill: #d62728; stroke: #ffffff; stroke-width: 0.75"/>
     <use xlink:href="#m680de6331c" x="1302.097608" y="104.433949" style="fill: #d62728; stroke: #ffffff; stroke-width: 0.75"/>
     <use xlink:href="#m680de6331c" x="1366.174163" y="101.029669" style="fill: #d62728; stroke: #ffffff; stroke-width: 0.75"/>
     <use xlink:href="#m680de6331c" x="1430.250718" y="98.679398" style="fill: #d62728; stroke: #ffffff; stroke-width: 0.75"/>
     <use xlink:href="#m680de6331c" x="1494.327273" y="96.664313" style="fill: #d62728; stroke: #ffffff; stroke-width: 0.75"/>
    </g>
   </g>
   <g id="line2d_21">
    <path d="M 276.872727 468.829078 
L 340.949282 384.935881 
L 405.025837 340.550752 
L 469.102392 300.32216 
L 533.178947 273.29957 
L 597.255502 262.579274 
L 661.332057 241.453186 
L 725.408612 231.02331 
L 789.485167 218.340347 
L 853.561722 210.875014 
L 917.638278 203.324396 
L 981.714833 195.987414 
L 1045.791388 192.355899 
L 1109.867943 186.149427 
L 1173.944498 182.919398 
L 1238.021053 177.728402 
L 1302.097608 175.567966 
L 1366.174163 173.062994 
L 1430.250718 168.584304 
L 1494.327273 167.486377 
" clip-path="url(#p99d2218c87)" style="fill: none; stroke: #9467bd; stroke-width: 1.5; stroke-linecap: square"/>
    <defs>
     <path id="mc5bd4395ed" d="M 0 5 
C 1.326016 5 2.597899 4.473168 3.535534 3.535534 
C 4.473168 2.597899 5 1.326016 5 0 
C 5 -1.326016 4.473168 -2.597899 3.535534 -3.535534 
C 2.597899 -4.473168 1.326016 -5 0 -5 
C -1.326016 -5 -2.597899 -4.473168 -3.535534 -3.535534 
C -4.473168 -2.597899 -5 -1.326016 -5 0 
C -5 1.326016 -4.473168 2.597899 -3.535534 3.535534 
C -2.597899 4.473168 -1.326016 5 0 5 
z
" style="stroke: #ffffff; stroke-width: 0.75"/>
    </defs>
    <g clip-path="url(#p99d2218c87)">
     <use xlink:href="#mc5bd4395ed" x="276.872727" y="468.829078" style="fill: #9467bd; stroke: #ffffff; stroke-width: 0.75"/>
     <use xlink:href="#mc5bd4395ed" x="340.949282" y="384.935881" style="fill: #9467bd; stroke: #ffffff; stroke-width: 0.75"/>
     <use xlink:href="#mc5bd4395ed" x="405.025837" y="340.550752" style="fill: #9467bd; stroke: #ffffff; stroke-width: 0.75"/>
     <use xlink:href="#mc5bd4395ed" x="469.102392" y="300.32216" style="fill: #9467bd; stroke: #ffffff; stroke-width: 0.75"/>
     <use xlink:href="#mc5bd4395ed" x="533.178947" y="273.29957" style="fill: #9467bd; stroke: #ffffff; stroke-width: 0.75"/>
     <use xlink:href="#mc5bd4395ed" x="597.255502" y="262.579274" style="fill: #9467bd; stroke: #ffffff; stroke-width: 0.75"/>
     <use xlink:href="#mc5bd4395ed" x="661.332057" y="241.453186" style="fill: #9467bd; stroke: #ffffff; stroke-width: 0.75"/>
     <use xlink:href="#mc5bd4395ed" x="725.408612" y="231.02331" style="fill: #9467bd; stroke: #ffffff; stroke-width: 0.75"/>
     <use xlink:href="#mc5bd4395ed" x="789.485167" y="218.340347" style="fill: #9467bd; stroke: #ffffff; stroke-width: 0.75"/>
     <use xlink:href="#mc5bd4395ed" x="853.561722" y="210.875014" style="fill: #9467bd; stroke: #ffffff; stroke-width: 0.75"/>
     <use xlink:href="#mc5bd4395ed" x="917.638278" y="203.324396" style="fill: #9467bd; stroke: #ffffff; stroke-width: 0.75"/>
     <use xlink:href="#mc5bd4395ed" x="981.714833" y="195.987414" style="fill: #9467bd; stroke: #ffffff; stroke-width: 0.75"/>
     <use xlink:href="#mc5bd4395ed" x="1045.791388" y="192.355899" style="fill: #9467bd; stroke: #ffffff; stroke-width: 0.75"/>
     <use xlink:href="#mc5bd4395ed" x="1109.867943" y="186.149427" style="fill: #9467bd; stroke: #ffffff; stroke-width: 0.75"/>
     <use xlink:href="#mc5bd4395ed" x="1173.944498" y="182.919398" style="fill: #9467bd; stroke: #ffffff; stroke-width: 0.75"/>
     <use xlink:href="#mc5bd4395ed" x="1238.021053" y="177.728402" style="fill: #9467bd; stroke: #ffffff; stroke-width: 0.75"/>
     <use xlink:href="#mc5bd4395ed" x="1302.097608" y="175.567966" style="fill: #9467bd; stroke: #ffffff; stroke-width: 0.75"/>
     <use xlink:href="#mc5bd4395ed" x="1366.174163" y="173.062994" style="fill: #9467bd; stroke: #ffffff; stroke-width: 0.75"/>
     <use xlink:href="#mc5bd4395ed" x="1430.250718" y="168.584304" style="fill: #9467bd; stroke: #ffffff; stroke-width: 0.75"/>
     <use xlink:href="#mc5bd4395ed" x="1494.327273" y="167.486377" style="fill: #9467bd; stroke: #ffffff; stroke-width: 0.75"/>
    </g>
   </g>
   <g id="line2d_22"/>
   <g id="line2d_23"/>
   <g id="line2d_24"/>
   <g id="line2d_25"/>
   <g id="line2d_26"/>
   <g id="patch_3">
    <path d="M 216 512.64 
L 216 69.12 
" style="fill: none; stroke: #000000; stroke-width: 0.8; stroke-linejoin: miter; stroke-linecap: square"/>
   </g>
   <g id="patch_4">
    <path d="M 1555.2 512.64 
L 1555.2 69.12 
" style="fill: none; stroke: #000000; stroke-width: 0.8; stroke-linejoin: miter; stroke-linecap: square"/>
   </g>
   <g id="patch_5">
    <path d="M 216 512.64 
L 1555.2 512.64 
" style="fill: none; stroke: #000000; stroke-width: 0.8; stroke-linejoin: miter; stroke-linecap: square"/>
   </g>
   <g id="patch_6">
    <path d="M 216 69.12 
L 1555.2 69.12 
" style="fill: none; stroke: #000000; stroke-width: 0.8; stroke-linejoin: miter; stroke-linecap: square"/>
   </g>
   <g id="legend_1">
    <g id="patch_7">
     <path d="M 223 235.483125 
L 450.399688 235.483125 
Q 452.399688 235.483125 452.399688 233.483125 
L 452.399688 76.12 
Q 452.399688 74.12 450.399688 74.12 
L 223 74.12 
Q 221 74.12 221 76.12 
L 221 233.483125 
Q 221 235.483125 223 235.483125 
z
" style="fill: #ffffff; opacity: 0.3; stroke: #cccccc; stroke-linejoin: miter"/>
    </g>
    <g id="text_19">
     <!-- Substance Encoding -->
     <g transform="translate(225 94.836563) scale(0.22 -0.22)">
      <defs>
       <path id="DejaVuSans-53" d="M 3425 4513 
L 3425 3897 
Q 3066 4069 2747 4153 
Q 2428 4238 2131 4238 
Q 1616 4238 1336 4038 
Q 1056 3838 1056 3469 
Q 1056 3159 1242 3001 
Q 1428 2844 1947 2747 
L 2328 2669 
Q 3034 2534 3370 2195 
Q 3706 1856 3706 1288 
Q 3706 609 3251 259 
Q 2797 -91 1919 -91 
Q 1588 -91 1214 -16 
Q 841 59 441 206 
L 441 856 
Q 825 641 1194 531 
Q 1563 422 1919 422 
Q 2459 422 2753 634 
Q 3047 847 3047 1241 
Q 3047 1584 2836 1778 
Q 2625 1972 2144 2069 
L 1759 2144 
Q 1053 2284 737 2584 
Q 422 2884 422 3419 
Q 422 4038 858 4394 
Q 1294 4750 2059 4750 
Q 2388 4750 2728 4690 
Q 3069 4631 3425 4513 
z
" transform="scale(0.015625)"/>
       <path id="DejaVuSans-62" d="M 3116 1747 
Q 3116 2381 2855 2742 
Q 2594 3103 2138 3103 
Q 1681 3103 1420 2742 
Q 1159 2381 1159 1747 
Q 1159 1113 1420 752 
Q 1681 391 2138 391 
Q 2594 391 2855 752 
Q 3116 1113 3116 1747 
z
M 1159 2969 
Q 1341 3281 1617 3432 
Q 1894 3584 2278 3584 
Q 2916 3584 3314 3078 
Q 3713 2572 3713 1747 
Q 3713 922 3314 415 
Q 2916 -91 2278 -91 
Q 1894 -91 1617 61 
Q 1341 213 1159 525 
L 1159 0 
L 581 0 
L 581 4863 
L 1159 4863 
L 1159 2969 
z
" transform="scale(0.015625)"/>
       <path id="DejaVuSans-61" d="M 2194 1759 
Q 1497 1759 1228 1600 
Q 959 1441 959 1056 
Q 959 750 1161 570 
Q 1363 391 1709 391 
Q 2188 391 2477 730 
Q 2766 1069 2766 1631 
L 2766 1759 
L 2194 1759 
z
M 3341 1997 
L 3341 0 
L 2766 0 
L 2766 531 
Q 2569 213 2275 61 
Q 1981 -91 1556 -91 
Q 1019 -91 701 211 
Q 384 513 384 1019 
Q 384 1609 779 1909 
Q 1175 2209 1959 2209 
L 2766 2209 
L 2766 2266 
Q 2766 2663 2505 2880 
Q 2244 3097 1772 3097 
Q 1472 3097 1187 3025 
Q 903 2953 641 2809 
L 641 3341 
Q 956 3463 1253 3523 
Q 1550 3584 1831 3584 
Q 2591 3584 2966 3190 
Q 3341 2797 3341 1997 
z
" transform="scale(0.015625)"/>
       <path id="DejaVuSans-63" d="M 3122 3366 
L 3122 2828 
Q 2878 2963 2633 3030 
Q 2388 3097 2138 3097 
Q 1578 3097 1268 2742 
Q 959 2388 959 1747 
Q 959 1106 1268 751 
Q 1578 397 2138 397 
Q 2388 397 2633 464 
Q 2878 531 3122 666 
L 3122 134 
Q 2881 22 2623 -34 
Q 2366 -91 2075 -91 
Q 1284 -91 818 406 
Q 353 903 353 1747 
Q 353 2603 823 3093 
Q 1294 3584 2113 3584 
Q 2378 3584 2631 3529 
Q 2884 3475 3122 3366 
z
" transform="scale(0.015625)"/>
       <path id="DejaVuSans-20" transform="scale(0.015625)"/>
       <path id="DejaVuSans-6f" d="M 1959 3097 
Q 1497 3097 1228 2736 
Q 959 2375 959 1747 
Q 959 1119 1226 758 
Q 1494 397 1959 397 
Q 2419 397 2687 759 
Q 2956 1122 2956 1747 
Q 2956 2369 2687 2733 
Q 2419 3097 1959 3097 
z
M 1959 3584 
Q 2709 3584 3137 3096 
Q 3566 2609 3566 1747 
Q 3566 888 3137 398 
Q 2709 -91 1959 -91 
Q 1206 -91 779 398 
Q 353 888 353 1747 
Q 353 2609 779 3096 
Q 1206 3584 1959 3584 
z
" transform="scale(0.015625)"/>
       <path id="DejaVuSans-67" d="M 2906 1791 
Q 2906 2416 2648 2759 
Q 2391 3103 1925 3103 
Q 1463 3103 1205 2759 
Q 947 2416 947 1791 
Q 947 1169 1205 825 
Q 1463 481 1925 481 
Q 2391 481 2648 825 
Q 2906 1169 2906 1791 
z
M 3481 434 
Q 3481 -459 3084 -895 
Q 2688 -1331 1869 -1331 
Q 1566 -1331 1297 -1286 
Q 1028 -1241 775 -1147 
L 775 -588 
Q 1028 -725 1275 -790 
Q 1522 -856 1778 -856 
Q 2344 -856 2625 -561 
Q 2906 -266 2906 331 
L 2906 616 
Q 2728 306 2450 153 
Q 2172 0 1784 0 
Q 1141 0 747 490 
Q 353 981 353 1791 
Q 353 2603 747 3093 
Q 1141 3584 1784 3584 
Q 2172 3584 2450 3431 
Q 2728 3278 2906 2969 
L 2906 3500 
L 3481 3500 
L 3481 434 
z
" transform="scale(0.015625)"/>
      </defs>
      <use xlink:href="#DejaVuSans-53"/>
      <use xlink:href="#DejaVuSans-75" x="63.476562"/>
      <use xlink:href="#DejaVuSans-62" x="126.855469"/>
      <use xlink:href="#DejaVuSans-73" x="190.332031"/>
      <use xlink:href="#DejaVuSans-74" x="242.431641"/>
      <use xlink:href="#DejaVuSans-61" x="281.640625"/>
      <use xlink:href="#DejaVuSans-6e" x="342.919922"/>
      <use xlink:href="#DejaVuSans-63" x="406.298828"/>
      <use xlink:href="#DejaVuSans-65" x="461.279297"/>
      <use xlink:href="#DejaVuSans-20" x="522.802734"/>
      <use xlink:href="#DejaVuSans-45" x="554.589844"/>
      <use xlink:href="#DejaVuSans-6e" x="617.773438"/>
      <use xlink:href="#DejaVuSans-63" x="681.152344"/>
      <use xlink:href="#DejaVuSans-6f" x="736.132812"/>
      <use xlink:href="#DejaVuSans-64" x="797.314453"/>
      <use xlink:href="#DejaVuSans-69" x="860.791016"/>
      <use xlink:href="#DejaVuSans-6e" x="888.574219"/>
      <use xlink:href="#DejaVuSans-67" x="951.953125"/>
     </g>
    </g>
    <g id="line2d_27">
     <path d="M 227.029063 117.628438 
L 237.029063 117.628438 
L 247.029063 117.628438 
" style="fill: none; stroke: #1f77b4; stroke-width: 1.5; stroke-linecap: square"/>
     <g>
      <use xlink:href="#mdf4a937ad2" x="237.029063" y="117.628438" style="fill: #1f77b4; stroke: #ffffff; stroke-width: 0.75"/>
     </g>
    </g>
    <g id="text_20">
     <!-- MORDRED -->
     <g transform="translate(255.029063 121.128438) scale(0.22 -0.22)">
      <defs>
       <path id="DejaVuSans-4d" d="M 628 4666 
L 1569 4666 
L 2759 1491 
L 3956 4666 
L 4897 4666 
L 4897 0 
L 4281 0 
L 4281 4097 
L 3078 897 
L 2444 897 
L 1241 4097 
L 1241 0 
L 628 0 
L 628 4666 
z
" transform="scale(0.015625)"/>
       <path id="DejaVuSans-4f" d="M 2522 4238 
Q 1834 4238 1429 3725 
Q 1025 3213 1025 2328 
Q 1025 1447 1429 934 
Q 1834 422 2522 422 
Q 3209 422 3611 934 
Q 4013 1447 4013 2328 
Q 4013 3213 3611 3725 
Q 3209 4238 2522 4238 
z
M 2522 4750 
Q 3503 4750 4090 4092 
Q 4678 3434 4678 2328 
Q 4678 1225 4090 567 
Q 3503 -91 2522 -91 
Q 1538 -91 948 565 
Q 359 1222 359 2328 
Q 359 3434 948 4092 
Q 1538 4750 2522 4750 
z
" transform="scale(0.015625)"/>
       <path id="DejaVuSans-52" d="M 2841 2188 
Q 3044 2119 3236 1894 
Q 3428 1669 3622 1275 
L 4263 0 
L 3584 0 
L 2988 1197 
Q 2756 1666 2539 1819 
Q 2322 1972 1947 1972 
L 1259 1972 
L 1259 0 
L 628 0 
L 628 4666 
L 2053 4666 
Q 2853 4666 3247 4331 
Q 3641 3997 3641 3322 
Q 3641 2881 3436 2590 
Q 3231 2300 2841 2188 
z
M 1259 4147 
L 1259 2491 
L 2053 2491 
Q 2509 2491 2742 2702 
Q 2975 2913 2975 3322 
Q 2975 3731 2742 3939 
Q 2509 4147 2053 4147 
L 1259 4147 
z
" transform="scale(0.015625)"/>
       <path id="DejaVuSans-44" d="M 1259 4147 
L 1259 519 
L 2022 519 
Q 2988 519 3436 956 
Q 3884 1394 3884 2338 
Q 3884 3275 3436 3711 
Q 2988 4147 2022 4147 
L 1259 4147 
z
M 628 4666 
L 1925 4666 
Q 3281 4666 3915 4102 
Q 4550 3538 4550 2338 
Q 4550 1131 3912 565 
Q 3275 0 1925 0 
L 628 0 
L 628 4666 
z
" transform="scale(0.015625)"/>
      </defs>
      <use xlink:href="#DejaVuSans-4d"/>
      <use xlink:href="#DejaVuSans-4f" x="86.279297"/>
      <use xlink:href="#DejaVuSans-52" x="164.990234"/>
      <use xlink:href="#DejaVuSans-44" x="234.472656"/>
      <use xlink:href="#DejaVuSans-52" x="311.474609"/>
      <use xlink:href="#DejaVuSans-45" x="380.957031"/>
      <use xlink:href="#DejaVuSans-44" x="444.140625"/>
     </g>
    </g>
    <g id="line2d_28">
     <path d="M 227.029063 143.920313 
L 237.029063 143.920313 
L 247.029063 143.920313 
" style="fill: none; stroke: #ff7f0e; stroke-width: 1.5; stroke-linecap: square"/>
     <g>
      <use xlink:href="#m53d1898561" x="237.029063" y="143.920313" style="fill: #ff7f0e; stroke: #ffffff; stroke-width: 0.75"/>
     </g>
    </g>
    <g id="text_21">
     <!-- RDKIT -->
     <g transform="translate(255.029063 147.420313) scale(0.22 -0.22)">
      <defs>
       <path id="DejaVuSans-4b" d="M 628 4666 
L 1259 4666 
L 1259 2694 
L 3353 4666 
L 4166 4666 
L 1850 2491 
L 4331 0 
L 3500 0 
L 1259 2247 
L 1259 0 
L 628 0 
L 628 4666 
z
" transform="scale(0.015625)"/>
       <path id="DejaVuSans-49" d="M 628 4666 
L 1259 4666 
L 1259 0 
L 628 0 
L 628 4666 
z
" transform="scale(0.015625)"/>
       <path id="DejaVuSans-54" d="M -19 4666 
L 3928 4666 
L 3928 4134 
L 2272 4134 
L 2272 0 
L 1638 0 
L 1638 4134 
L -19 4134 
L -19 4666 
z
" transform="scale(0.015625)"/>
      </defs>
      <use xlink:href="#DejaVuSans-52"/>
      <use xlink:href="#DejaVuSans-44" x="69.482422"/>
      <use xlink:href="#DejaVuSans-4b" x="146.484375"/>
      <use xlink:href="#DejaVuSans-49" x="212.060547"/>
      <use xlink:href="#DejaVuSans-54" x="241.552734"/>
     </g>
    </g>
    <g id="line2d_29">
     <path d="M 227.029063 170.212188 
L 237.029063 170.212188 
L 247.029063 170.212188 
" style="fill: none; stroke: #2ca02c; stroke-width: 1.5; stroke-linecap: square"/>
     <g>
      <use xlink:href="#mdc81fa0d28" x="237.029063" y="170.212188" style="fill: #2ca02c; stroke: #ffffff; stroke-width: 0.75"/>
     </g>
    </g>
    <g id="text_22">
     <!-- MORGAN_FP -->
     <g transform="translate(255.029063 173.712188) scale(0.22 -0.22)">
      <defs>
       <path id="DejaVuSans-47" d="M 3809 666 
L 3809 1919 
L 2778 1919 
L 2778 2438 
L 4434 2438 
L 4434 434 
Q 4069 175 3628 42 
Q 3188 -91 2688 -91 
Q 1594 -91 976 548 
Q 359 1188 359 2328 
Q 359 3472 976 4111 
Q 1594 4750 2688 4750 
Q 3144 4750 3555 4637 
Q 3966 4525 4313 4306 
L 4313 3634 
Q 3963 3931 3569 4081 
Q 3175 4231 2741 4231 
Q 1884 4231 1454 3753 
Q 1025 3275 1025 2328 
Q 1025 1384 1454 906 
Q 1884 428 2741 428 
Q 3075 428 3337 486 
Q 3600 544 3809 666 
z
" transform="scale(0.015625)"/>
       <path id="DejaVuSans-41" d="M 2188 4044 
L 1331 1722 
L 3047 1722 
L 2188 4044 
z
M 1831 4666 
L 2547 4666 
L 4325 0 
L 3669 0 
L 3244 1197 
L 1141 1197 
L 716 0 
L 50 0 
L 1831 4666 
z
" transform="scale(0.015625)"/>
       <path id="DejaVuSans-46" d="M 628 4666 
L 3309 4666 
L 3309 4134 
L 1259 4134 
L 1259 2759 
L 3109 2759 
L 3109 2228 
L 1259 2228 
L 1259 0 
L 628 0 
L 628 4666 
z
" transform="scale(0.015625)"/>
       <path id="DejaVuSans-50" d="M 1259 4147 
L 1259 2394 
L 2053 2394 
Q 2494 2394 2734 2622 
Q 2975 2850 2975 3272 
Q 2975 3691 2734 3919 
Q 2494 4147 2053 4147 
L 1259 4147 
z
M 628 4666 
L 2053 4666 
Q 2838 4666 3239 4311 
Q 3641 3956 3641 3272 
Q 3641 2581 3239 2228 
Q 2838 1875 2053 1875 
L 1259 1875 
L 1259 0 
L 628 0 
L 628 4666 
z
" transform="scale(0.015625)"/>
      </defs>
      <use xlink:href="#DejaVuSans-4d"/>
      <use xlink:href="#DejaVuSans-4f" x="86.279297"/>
      <use xlink:href="#DejaVuSans-52" x="164.990234"/>
      <use xlink:href="#DejaVuSans-47" x="234.472656"/>
      <use xlink:href="#DejaVuSans-41" x="311.962891"/>
      <use xlink:href="#DejaVuSans-4e" x="380.371094"/>
      <use xlink:href="#DejaVuSans-5f" x="455.175781"/>
      <use xlink:href="#DejaVuSans-46" x="505.175781"/>
      <use xlink:href="#DejaVuSans-50" x="562.695312"/>
     </g>
    </g>
    <g id="line2d_30">
     <path d="M 227.029063 197.115938 
L 237.029063 197.115938 
L 247.029063 197.115938 
" style="fill: none; stroke: #d62728; stroke-width: 1.5; stroke-linecap: square"/>
     <g>
      <use xlink:href="#m680de6331c" x="237.029063" y="197.115938" style="fill: #d62728; stroke: #ffffff; stroke-width: 0.75"/>
     </g>
    </g>
    <g id="text_23">
     <!-- OneHot -->
     <g transform="translate(255.029063 200.615938) scale(0.22 -0.22)">
      <defs>
       <path id="DejaVuSans-48" d="M 628 4666 
L 1259 4666 
L 1259 2753 
L 3553 2753 
L 3553 4666 
L 4184 4666 
L 4184 0 
L 3553 0 
L 3553 2222 
L 1259 2222 
L 1259 0 
L 628 0 
L 628 4666 
z
" transform="scale(0.015625)"/>
      </defs>
      <use xlink:href="#DejaVuSans-4f"/>
      <use xlink:href="#DejaVuSans-6e" x="78.710938"/>
      <use xlink:href="#DejaVuSans-65" x="142.089844"/>
      <use xlink:href="#DejaVuSans-48" x="203.613281"/>
      <use xlink:href="#DejaVuSans-6f" x="278.808594"/>
      <use xlink:href="#DejaVuSans-74" x="339.990234"/>
     </g>
    </g>
    <g id="line2d_31">
     <path d="M 227.029063 223.407813 
L 237.029063 223.407813 
L 247.029063 223.407813 
" style="fill: none; stroke: #9467bd; stroke-width: 1.5; stroke-linecap: square"/>
     <g>
      <use xlink:href="#mc5bd4395ed" x="237.029063" y="223.407813" style="fill: #9467bd; stroke: #ffffff; stroke-width: 0.75"/>
     </g>
    </g>
    <g id="text_24">
     <!-- Random Baseline -->
     <g transform="translate(255.029063 226.907813) scale(0.22 -0.22)">
      <use xlink:href="#DejaVuSans-52"/>
      <use xlink:href="#DejaVuSans-61" x="67.232422"/>
      <use xlink:href="#DejaVuSans-6e" x="128.511719"/>
      <use xlink:href="#DejaVuSans-64" x="191.890625"/>
      <use xlink:href="#DejaVuSans-6f" x="255.367188"/>
      <use xlink:href="#DejaVuSans-6d" x="316.548828"/>
      <use xlink:href="#DejaVuSans-20" x="413.960938"/>
      <use xlink:href="#DejaVuSans-42" x="445.748047"/>
      <use xlink:href="#DejaVuSans-61" x="514.351562"/>
      <use xlink:href="#DejaVuSans-73" x="575.630859"/>
      <use xlink:href="#DejaVuSans-65" x="627.730469"/>
      <use xlink:href="#DejaVuSans-6c" x="689.253906"/>
      <use xlink:href="#DejaVuSans-69" x="717.037109"/>
      <use xlink:href="#DejaVuSans-6e" x="744.820312"/>
      <use xlink:href="#DejaVuSans-65" x="808.199219"/>
     </g>
    </g>
   </g>
  </g>
 </g>
 <defs>
  <clipPath id="p99d2218c87">
   <rect x="216" y="69.12" width="1339.2" height="443.52"/>
  </clipPath>
 </defs>
</svg>
