<?xml version="1.0" encoding="utf-8" standalone="no"?>
<!DOCTYPE svg PUBLIC "-//W3C//DTD SVG 1.1//EN"
  "http://www.w3.org/Graphics/SVG/1.1/DTD/svg11.dtd">
<svg xmlns:xlink="http://www.w3.org/1999/xlink" width="1728pt" height="576pt" viewBox="0 0 1728 576" xmlns="http://www.w3.org/2000/svg" version="1.1">
 <metadata>
  <rdf:RDF xmlns:dc="http://purl.org/dc/elements/1.1/" xmlns:cc="http://creativecommons.org/ns#" xmlns:rdf="http://www.w3.org/1999/02/22-rdf-syntax-ns#">
   <cc:Work>
    <dc:type rdf:resource="http://purl.org/dc/dcmitype/StillImage"/>
    <dc:date>2024-08-02T18:26:35.466229</dc:date>
    <dc:format>image/svg+xml</dc:format>
    <dc:creator>
     <cc:Agent>
      <dc:title>Matplotlib v3.9.1, https://matplotlib.org/</dc:title>
     </cc:Agent>
    </dc:creator>
   </cc:Work>
  </rdf:RDF>
 </metadata>
 <defs>
  <style type="text/css">*{stroke-linejoin: round; stroke-linecap: butt}</style>
 </defs>
 <g id="figure_1">
  <g id="patch_1">
   <path d="M 0 576 
L 1728 576 
L 1728 0 
L 0 0 
L 0 576 
z
" style="fill: none"/>
  </g>
  <g id="axes_1">
   <g id="patch_2">
    <path d="M 216 512.64 
L 1555.2 512.64 
L 1555.2 69.12 
L 216 69.12 
L 216 512.64 
z
" style="fill: none"/>
   </g>
   <g id="PolyCollection_1">
    <defs>
     <path id="m71565e58de" d="M 276.872727 -428.100243 
L 276.872727 -377.690711 
L 412.145455 -375.50986 
L 547.418182 -324.834985 
L 682.690909 -265.375802 
L 817.963636 -224.686466 
L 953.236364 -171.483626 
L 1088.509091 -154.157378 
L 1223.781818 -138.000038 
L 1359.054545 -127.574931 
L 1494.327273 -118.554152 
L 1494.327273 -174.645877 
L 1494.327273 -174.645877 
L 1359.054545 -190.913121 
L 1223.781818 -196.579634 
L 1088.509091 -210.501774 
L 953.236364 -227.223212 
L 817.963636 -285.070241 
L 682.690909 -330.127577 
L 547.418182 -373.67007 
L 412.145455 -423.773917 
L 276.872727 -428.100243 
z
" style="stroke: #1f77b4; stroke-opacity: 0.2"/>
    </defs>
    <g clip-path="url(#p342a9aeb8a)">
     <use xlink:href="#m71565e58de" x="0" y="576" style="fill: #1f77b4; fill-opacity: 0.2; stroke: #1f77b4; stroke-opacity: 0.2"/>
    </g>
   </g>
   <g id="PolyCollection_2">
    <defs>
     <path id="ma466f8eca4" d="M 276.872727 -481.538401 
L 276.872727 -474.343138 
L 412.145455 -334.634944 
L 547.418182 -312.015387 
L 682.690909 -263.590558 
L 817.963636 -191.399555 
L 953.236364 -161.942031 
L 1088.509091 -134.022094 
L 1223.781818 -126.926661 
L 1359.054545 -116.529323 
L 1494.327273 -108.462506 
L 1494.327273 -144.323897 
L 1494.327273 -144.323897 
L 1359.054545 -156.311878 
L 1223.781818 -168.515111 
L 1088.509091 -180.954616 
L 953.236364 -216.589443 
L 817.963636 -243.532231 
L 682.690909 -332.996396 
L 547.418182 -377.956975 
L 412.145455 -396.71355 
L 276.872727 -481.538401 
z
" style="stroke: #ff7f0e; stroke-opacity: 0.2"/>
    </defs>
    <g clip-path="url(#p342a9aeb8a)">
     <use xlink:href="#ma466f8eca4" x="0" y="576" style="fill: #ff7f0e; fill-opacity: 0.2; stroke: #ff7f0e; stroke-opacity: 0.2"/>
    </g>
   </g>
   <g id="PolyCollection_3">
    <defs>
     <path id="m2169fefee2" d="M 276.872727 -458.456166 
L 276.872727 -422.4207 
L 412.145455 -293.59463 
L 547.418182 -272.392448 
L 682.690909 -228.718885 
L 817.963636 -186.95623 
L 953.236364 -153.354964 
L 1088.509091 -146.630527 
L 1223.781818 -122.96863 
L 1359.054545 -113.588406 
L 1494.327273 -109.037824 
L 1494.327273 -161.026707 
L 1494.327273 -161.026707 
L 1359.054545 -163.400195 
L 1223.781818 -178.583179 
L 1088.509091 -206.303153 
L 953.236364 -210.317202 
L 817.963636 -253.774727 
L 682.690909 -303.029165 
L 547.418182 -341.149185 
L 412.145455 -357.1046 
L 276.872727 -458.456166 
z
" style="stroke: #2ca02c; stroke-opacity: 0.2"/>
    </defs>
    <g clip-path="url(#p342a9aeb8a)">
     <use xlink:href="#m2169fefee2" x="0" y="576" style="fill: #2ca02c; fill-opacity: 0.2; stroke: #2ca02c; stroke-opacity: 0.2"/>
    </g>
   </g>
   <g id="PolyCollection_4">
    <defs>
     <path id="m19e8cf0a1c" d="M 276.872727 -484.435134 
L 276.872727 -474.299879 
L 412.145455 -215.396085 
L 547.418182 -172.356505 
L 682.690909 -156.673589 
L 817.963636 -133.713703 
L 953.236364 -132.794917 
L 1088.509091 -114.285377 
L 1223.781818 -103.846285 
L 1359.054545 -95.41075 
L 1494.327273 -92.459871 
L 1494.327273 -118.213148 
L 1494.327273 -118.213148 
L 1359.054545 -121.613336 
L 1223.781818 -141.236825 
L 1088.509091 -159.59149 
L 953.236364 -180.075392 
L 817.963636 -182.218002 
L 682.690909 -213.698808 
L 547.418182 -228.594685 
L 412.145455 -268.631862 
L 276.872727 -484.435134 
z
" style="stroke: #d62728; stroke-opacity: 0.2"/>
    </defs>
    <g clip-path="url(#p342a9aeb8a)">
     <use xlink:href="#m19e8cf0a1c" x="0" y="576" style="fill: #d62728; fill-opacity: 0.2; stroke: #d62728; stroke-opacity: 0.2"/>
    </g>
   </g>
   <g id="PolyCollection_5">
    <defs>
     <path id="ma982b1e3f5" d="M 276.872727 -474.995811 
L 276.872727 -452.222387 
L 412.145455 -144.929636 
L 547.418182 -128.357097 
L 682.690909 -116.948074 
L 817.963636 -111.49823 
L 953.236364 -106.424574 
L 1088.509091 -94.015896 
L 1223.781818 -91.418588 
L 1359.054545 -87.064401 
L 1494.327273 -86.403485 
L 1494.327273 -96.411452 
L 1494.327273 -96.411452 
L 1359.054545 -100.040307 
L 1223.781818 -104.281385 
L 1088.509091 -109.193085 
L 953.236364 -140.871017 
L 817.963636 -147.382578 
L 682.690909 -155.371431 
L 547.418182 -174.374918 
L 412.145455 -191.650363 
L 276.872727 -474.995811 
z
" style="stroke: #9467bd; stroke-opacity: 0.2"/>
    </defs>
    <g clip-path="url(#p342a9aeb8a)">
     <use xlink:href="#ma982b1e3f5" x="0" y="576" style="fill: #9467bd; fill-opacity: 0.2; stroke: #9467bd; stroke-opacity: 0.2"/>
    </g>
   </g>
   <g id="PolyCollection_6">
    <defs>
     <path id="mb80b5cc957" d="M 276.872727 -486.72 
L 276.872727 -473.615279 
L 412.145455 -120.458212 
L 547.418182 -108.58344 
L 682.690909 -105.010108 
L 817.963636 -100.702461 
L 953.236364 -95.779615 
L 1088.509091 -93.635728 
L 1223.781818 -92.908899 
L 1359.054545 -85.674612 
L 1494.327273 -83.52 
L 1494.327273 -89.928629 
L 1494.327273 -89.928629 
L 1359.054545 -94.457769 
L 1223.781818 -106.792512 
L 1088.509091 -107.523643 
L 953.236364 -112.830309 
L 817.963636 -121.007827 
L 682.690909 -128.254382 
L 547.418182 -132.328747 
L 412.145455 -151.143931 
L 276.872727 -486.72 
z
" style="stroke: #8c564b; stroke-opacity: 0.2"/>
    </defs>
    <g clip-path="url(#p342a9aeb8a)">
     <use xlink:href="#mb80b5cc957" x="0" y="576" style="fill: #8c564b; fill-opacity: 0.2; stroke: #8c564b; stroke-opacity: 0.2"/>
    </g>
   </g>
   <g id="matplotlib.axis_1">
    <g id="xtick_1">
     <g id="line2d_1">
      <defs>
       <path id="md254c270e5" d="M 0 0 
L 0 3.5 
" style="stroke: #000000; stroke-width: 0.8"/>
      </defs>
      <g>
       <use xlink:href="#md254c270e5" x="412.145455" y="512.64" style="stroke: #000000; stroke-width: 0.8"/>
      </g>
     </g>
     <g id="text_1">
      <!-- 2 -->
      <g style="fill: #ffffff" transform="translate(405.146705 536.356562) scale(0.22 -0.22)">
       <defs>
        <path id="DejaVuSans-32" d="M 1228 531 
L 3431 531 
L 3431 0 
L 469 0 
L 469 531 
Q 828 903 1448 1529 
Q 2069 2156 2228 2338 
Q 2531 2678 2651 2914 
Q 2772 3150 2772 3378 
Q 2772 3750 2511 3984 
Q 2250 4219 1831 4219 
Q 1534 4219 1204 4116 
Q 875 4013 500 3803 
L 500 4441 
Q 881 4594 1212 4672 
Q 1544 4750 1819 4750 
Q 2544 4750 2975 4387 
Q 3406 4025 3406 3419 
Q 3406 3131 3298 2873 
Q 3191 2616 2906 2266 
Q 2828 2175 2409 1742 
Q 1991 1309 1228 531 
z
" transform="scale(0.015625)"/>
       </defs>
       <use xlink:href="#DejaVuSans-32"/>
      </g>
     </g>
    </g>
    <g id="xtick_2">
     <g id="line2d_2">
      <g>
       <use xlink:href="#md254c270e5" x="682.690909" y="512.64" style="stroke: #000000; stroke-width: 0.8"/>
      </g>
     </g>
     <g id="text_2">
      <!-- 4 -->
      <g style="fill: #ffffff" transform="translate(675.692159 536.356562) scale(0.22 -0.22)">
       <defs>
        <path id="DejaVuSans-34" d="M 2419 4116 
L 825 1625 
L 2419 1625 
L 2419 4116 
z
M 2253 4666 
L 3047 4666 
L 3047 1625 
L 3713 1625 
L 3713 1100 
L 3047 1100 
L 3047 0 
L 2419 0 
L 2419 1100 
L 313 1100 
L 313 1709 
L 2253 4666 
z
" transform="scale(0.015625)"/>
       </defs>
       <use xlink:href="#DejaVuSans-34"/>
      </g>
     </g>
    </g>
    <g id="xtick_3">
     <g id="line2d_3">
      <g>
       <use xlink:href="#md254c270e5" x="953.236364" y="512.64" style="stroke: #000000; stroke-width: 0.8"/>
      </g>
     </g>
     <g id="text_3">
      <!-- 6 -->
      <g style="fill: #ffffff" transform="translate(946.237614 536.356562) scale(0.22 -0.22)">
       <defs>
        <path id="DejaVuSans-36" d="M 2113 2584 
Q 1688 2584 1439 2293 
Q 1191 2003 1191 1497 
Q 1191 994 1439 701 
Q 1688 409 2113 409 
Q 2538 409 2786 701 
Q 3034 994 3034 1497 
Q 3034 2003 2786 2293 
Q 2538 2584 2113 2584 
z
M 3366 4563 
L 3366 3988 
Q 3128 4100 2886 4159 
Q 2644 4219 2406 4219 
Q 1781 4219 1451 3797 
Q 1122 3375 1075 2522 
Q 1259 2794 1537 2939 
Q 1816 3084 2150 3084 
Q 2853 3084 3261 2657 
Q 3669 2231 3669 1497 
Q 3669 778 3244 343 
Q 2819 -91 2113 -91 
Q 1303 -91 875 529 
Q 447 1150 447 2328 
Q 447 3434 972 4092 
Q 1497 4750 2381 4750 
Q 2619 4750 2861 4703 
Q 3103 4656 3366 4563 
z
" transform="scale(0.015625)"/>
       </defs>
       <use xlink:href="#DejaVuSans-36"/>
      </g>
     </g>
    </g>
    <g id="xtick_4">
     <g id="line2d_4">
      <g>
       <use xlink:href="#md254c270e5" x="1223.781818" y="512.64" style="stroke: #000000; stroke-width: 0.8"/>
      </g>
     </g>
     <g id="text_4">
      <!-- 8 -->
      <g style="fill: #ffffff" transform="translate(1216.783068 536.356562) scale(0.22 -0.22)">
       <defs>
        <path id="DejaVuSans-38" d="M 2034 2216 
Q 1584 2216 1326 1975 
Q 1069 1734 1069 1313 
Q 1069 891 1326 650 
Q 1584 409 2034 409 
Q 2484 409 2743 651 
Q 3003 894 3003 1313 
Q 3003 1734 2745 1975 
Q 2488 2216 2034 2216 
z
M 1403 2484 
Q 997 2584 770 2862 
Q 544 3141 544 3541 
Q 544 4100 942 4425 
Q 1341 4750 2034 4750 
Q 2731 4750 3128 4425 
Q 3525 4100 3525 3541 
Q 3525 3141 3298 2862 
Q 3072 2584 2669 2484 
Q 3125 2378 3379 2068 
Q 3634 1759 3634 1313 
Q 3634 634 3220 271 
Q 2806 -91 2034 -91 
Q 1263 -91 848 271 
Q 434 634 434 1313 
Q 434 1759 690 2068 
Q 947 2378 1403 2484 
z
M 1172 3481 
Q 1172 3119 1398 2916 
Q 1625 2713 2034 2713 
Q 2441 2713 2670 2916 
Q 2900 3119 2900 3481 
Q 2900 3844 2670 4047 
Q 2441 4250 2034 4250 
Q 1625 4250 1398 4047 
Q 1172 3844 1172 3481 
z
" transform="scale(0.015625)"/>
       </defs>
       <use xlink:href="#DejaVuSans-38"/>
      </g>
     </g>
    </g>
    <g id="xtick_5">
     <g id="line2d_5">
      <g>
       <use xlink:href="#md254c270e5" x="1494.327273" y="512.64" style="stroke: #000000; stroke-width: 0.8"/>
      </g>
     </g>
     <g id="text_5">
      <!-- 10 -->
      <g style="fill: #ffffff" transform="translate(1480.329773 536.356562) scale(0.22 -0.22)">
       <defs>
        <path id="DejaVuSans-31" d="M 794 531 
L 1825 531 
L 1825 4091 
L 703 3866 
L 703 4441 
L 1819 4666 
L 2450 4666 
L 2450 531 
L 3481 531 
L 3481 0 
L 794 0 
L 794 531 
z
" transform="scale(0.015625)"/>
        <path id="DejaVuSans-30" d="M 2034 4250 
Q 1547 4250 1301 3770 
Q 1056 3291 1056 2328 
Q 1056 1369 1301 889 
Q 1547 409 2034 409 
Q 2525 409 2770 889 
Q 3016 1369 3016 2328 
Q 3016 3291 2770 3770 
Q 2525 4250 2034 4250 
z
M 2034 4750 
Q 2819 4750 3233 4129 
Q 3647 3509 3647 2328 
Q 3647 1150 3233 529 
Q 2819 -91 2034 -91 
Q 1250 -91 836 529 
Q 422 1150 422 2328 
Q 422 3509 836 4129 
Q 1250 4750 2034 4750 
z
" transform="scale(0.015625)"/>
       </defs>
       <use xlink:href="#DejaVuSans-31"/>
       <use xlink:href="#DejaVuSans-30" x="63.623047"/>
      </g>
     </g>
    </g>
    <g id="text_6">
     <!-- Num_Experiments -->
     <g style="fill: #ffffff" transform="translate(784.896719 561.648438) scale(0.22 -0.22)">
      <defs>
       <path id="DejaVuSans-4e" d="M 628 4666 
L 1478 4666 
L 3547 763 
L 3547 4666 
L 4159 4666 
L 4159 0 
L 3309 0 
L 1241 3903 
L 1241 0 
L 628 0 
L 628 4666 
z
" transform="scale(0.015625)"/>
       <path id="DejaVuSans-75" d="M 544 1381 
L 544 3500 
L 1119 3500 
L 1119 1403 
Q 1119 906 1312 657 
Q 1506 409 1894 409 
Q 2359 409 2629 706 
Q 2900 1003 2900 1516 
L 2900 3500 
L 3475 3500 
L 3475 0 
L 2900 0 
L 2900 538 
Q 2691 219 2414 64 
Q 2138 -91 1772 -91 
Q 1169 -91 856 284 
Q 544 659 544 1381 
z
M 1991 3584 
L 1991 3584 
z
" transform="scale(0.015625)"/>
       <path id="DejaVuSans-6d" d="M 3328 2828 
Q 3544 3216 3844 3400 
Q 4144 3584 4550 3584 
Q 5097 3584 5394 3201 
Q 5691 2819 5691 2113 
L 5691 0 
L 5113 0 
L 5113 2094 
Q 5113 2597 4934 2840 
Q 4756 3084 4391 3084 
Q 3944 3084 3684 2787 
Q 3425 2491 3425 1978 
L 3425 0 
L 2847 0 
L 2847 2094 
Q 2847 2600 2669 2842 
Q 2491 3084 2119 3084 
Q 1678 3084 1418 2786 
Q 1159 2488 1159 1978 
L 1159 0 
L 581 0 
L 581 3500 
L 1159 3500 
L 1159 2956 
Q 1356 3278 1631 3431 
Q 1906 3584 2284 3584 
Q 2666 3584 2933 3390 
Q 3200 3197 3328 2828 
z
" transform="scale(0.015625)"/>
       <path id="DejaVuSans-5f" d="M 3263 -1063 
L 3263 -1509 
L -63 -1509 
L -63 -1063 
L 3263 -1063 
z
" transform="scale(0.015625)"/>
       <path id="DejaVuSans-45" d="M 628 4666 
L 3578 4666 
L 3578 4134 
L 1259 4134 
L 1259 2753 
L 3481 2753 
L 3481 2222 
L 1259 2222 
L 1259 531 
L 3634 531 
L 3634 0 
L 628 0 
L 628 4666 
z
" transform="scale(0.015625)"/>
       <path id="DejaVuSans-78" d="M 3513 3500 
L 2247 1797 
L 3578 0 
L 2900 0 
L 1881 1375 
L 863 0 
L 184 0 
L 1544 1831 
L 300 3500 
L 978 3500 
L 1906 2253 
L 2834 3500 
L 3513 3500 
z
" transform="scale(0.015625)"/>
       <path id="DejaVuSans-70" d="M 1159 525 
L 1159 -1331 
L 581 -1331 
L 581 3500 
L 1159 3500 
L 1159 2969 
Q 1341 3281 1617 3432 
Q 1894 3584 2278 3584 
Q 2916 3584 3314 3078 
Q 3713 2572 3713 1747 
Q 3713 922 3314 415 
Q 2916 -91 2278 -91 
Q 1894 -91 1617 61 
Q 1341 213 1159 525 
z
M 3116 1747 
Q 3116 2381 2855 2742 
Q 2594 3103 2138 3103 
Q 1681 3103 1420 2742 
Q 1159 2381 1159 1747 
Q 1159 1113 1420 752 
Q 1681 391 2138 391 
Q 2594 391 2855 752 
Q 3116 1113 3116 1747 
z
" transform="scale(0.015625)"/>
       <path id="DejaVuSans-65" d="M 3597 1894 
L 3597 1613 
L 953 1613 
Q 991 1019 1311 708 
Q 1631 397 2203 397 
Q 2534 397 2845 478 
Q 3156 559 3463 722 
L 3463 178 
Q 3153 47 2828 -22 
Q 2503 -91 2169 -91 
Q 1331 -91 842 396 
Q 353 884 353 1716 
Q 353 2575 817 3079 
Q 1281 3584 2069 3584 
Q 2775 3584 3186 3129 
Q 3597 2675 3597 1894 
z
M 3022 2063 
Q 3016 2534 2758 2815 
Q 2500 3097 2075 3097 
Q 1594 3097 1305 2825 
Q 1016 2553 972 2059 
L 3022 2063 
z
" transform="scale(0.015625)"/>
       <path id="DejaVuSans-72" d="M 2631 2963 
Q 2534 3019 2420 3045 
Q 2306 3072 2169 3072 
Q 1681 3072 1420 2755 
Q 1159 2438 1159 1844 
L 1159 0 
L 581 0 
L 581 3500 
L 1159 3500 
L 1159 2956 
Q 1341 3275 1631 3429 
Q 1922 3584 2338 3584 
Q 2397 3584 2469 3576 
Q 2541 3569 2628 3553 
L 2631 2963 
z
" transform="scale(0.015625)"/>
       <path id="DejaVuSans-69" d="M 603 3500 
L 1178 3500 
L 1178 0 
L 603 0 
L 603 3500 
z
M 603 4863 
L 1178 4863 
L 1178 4134 
L 603 4134 
L 603 4863 
z
" transform="scale(0.015625)"/>
       <path id="DejaVuSans-6e" d="M 3513 2113 
L 3513 0 
L 2938 0 
L 2938 2094 
Q 2938 2591 2744 2837 
Q 2550 3084 2163 3084 
Q 1697 3084 1428 2787 
Q 1159 2491 1159 1978 
L 1159 0 
L 581 0 
L 581 3500 
L 1159 3500 
L 1159 2956 
Q 1366 3272 1645 3428 
Q 1925 3584 2291 3584 
Q 2894 3584 3203 3211 
Q 3513 2838 3513 2113 
z
" transform="scale(0.015625)"/>
       <path id="DejaVuSans-74" d="M 1172 4494 
L 1172 3500 
L 2356 3500 
L 2356 3053 
L 1172 3053 
L 1172 1153 
Q 1172 725 1289 603 
Q 1406 481 1766 481 
L 2356 481 
L 2356 0 
L 1766 0 
Q 1100 0 847 248 
Q 594 497 594 1153 
L 594 3053 
L 172 3053 
L 172 3500 
L 594 3500 
L 594 4494 
L 1172 4494 
z
" transform="scale(0.015625)"/>
       <path id="DejaVuSans-73" d="M 2834 3397 
L 2834 2853 
Q 2591 2978 2328 3040 
Q 2066 3103 1784 3103 
Q 1356 3103 1142 2972 
Q 928 2841 928 2578 
Q 928 2378 1081 2264 
Q 1234 2150 1697 2047 
L 1894 2003 
Q 2506 1872 2764 1633 
Q 3022 1394 3022 966 
Q 3022 478 2636 193 
Q 2250 -91 1575 -91 
Q 1294 -91 989 -36 
Q 684 19 347 128 
L 347 722 
Q 666 556 975 473 
Q 1284 391 1588 391 
Q 1994 391 2212 530 
Q 2431 669 2431 922 
Q 2431 1156 2273 1281 
Q 2116 1406 1581 1522 
L 1381 1569 
Q 847 1681 609 1914 
Q 372 2147 372 2553 
Q 372 3047 722 3315 
Q 1072 3584 1716 3584 
Q 2034 3584 2315 3537 
Q 2597 3491 2834 3397 
z
" transform="scale(0.015625)"/>
      </defs>
      <use xlink:href="#DejaVuSans-4e"/>
      <use xlink:href="#DejaVuSans-75" x="74.804688"/>
      <use xlink:href="#DejaVuSans-6d" x="138.183594"/>
      <use xlink:href="#DejaVuSans-5f" x="235.595703"/>
      <use xlink:href="#DejaVuSans-45" x="285.595703"/>
      <use xlink:href="#DejaVuSans-78" x="348.779297"/>
      <use xlink:href="#DejaVuSans-70" x="407.958984"/>
      <use xlink:href="#DejaVuSans-65" x="471.435547"/>
      <use xlink:href="#DejaVuSans-72" x="532.958984"/>
      <use xlink:href="#DejaVuSans-69" x="574.072266"/>
      <use xlink:href="#DejaVuSans-6d" x="601.855469"/>
      <use xlink:href="#DejaVuSans-65" x="699.267578"/>
      <use xlink:href="#DejaVuSans-6e" x="760.791016"/>
      <use xlink:href="#DejaVuSans-74" x="824.169922"/>
      <use xlink:href="#DejaVuSans-73" x="863.378906"/>
     </g>
    </g>
   </g>
   <g id="matplotlib.axis_2">
    <g id="ytick_1">
     <g id="line2d_6">
      <defs>
       <path id="m43fa063afb" d="M 0 0 
L -3.5 0 
" style="stroke: #000000; stroke-width: 0.8"/>
      </defs>
      <g>
       <use xlink:href="#m43fa063afb" x="216" y="494.746618" style="stroke: #000000; stroke-width: 0.8"/>
      </g>
     </g>
     <g id="text_7">
      <!-- −3.0 -->
      <g style="fill: #ffffff" transform="translate(155.577812 503.104899) scale(0.22 -0.22)">
       <defs>
        <path id="DejaVuSans-2212" d="M 678 2272 
L 4684 2272 
L 4684 1741 
L 678 1741 
L 678 2272 
z
" transform="scale(0.015625)"/>
        <path id="DejaVuSans-33" d="M 2597 2516 
Q 3050 2419 3304 2112 
Q 3559 1806 3559 1356 
Q 3559 666 3084 287 
Q 2609 -91 1734 -91 
Q 1441 -91 1130 -33 
Q 819 25 488 141 
L 488 750 
Q 750 597 1062 519 
Q 1375 441 1716 441 
Q 2309 441 2620 675 
Q 2931 909 2931 1356 
Q 2931 1769 2642 2001 
Q 2353 2234 1838 2234 
L 1294 2234 
L 1294 2753 
L 1863 2753 
Q 2328 2753 2575 2939 
Q 2822 3125 2822 3475 
Q 2822 3834 2567 4026 
Q 2313 4219 1838 4219 
Q 1578 4219 1281 4162 
Q 984 4106 628 3988 
L 628 4550 
Q 988 4650 1302 4700 
Q 1616 4750 1894 4750 
Q 2613 4750 3031 4423 
Q 3450 4097 3450 3541 
Q 3450 3153 3228 2886 
Q 3006 2619 2597 2516 
z
" transform="scale(0.015625)"/>
        <path id="DejaVuSans-2e" d="M 684 794 
L 1344 794 
L 1344 0 
L 684 0 
L 684 794 
z
" transform="scale(0.015625)"/>
       </defs>
       <use xlink:href="#DejaVuSans-2212"/>
       <use xlink:href="#DejaVuSans-33" x="83.789062"/>
       <use xlink:href="#DejaVuSans-2e" x="147.412109"/>
       <use xlink:href="#DejaVuSans-30" x="179.199219"/>
      </g>
     </g>
    </g>
    <g id="ytick_2">
     <g id="line2d_7">
      <g>
       <use xlink:href="#m43fa063afb" x="216" y="426.757501" style="stroke: #000000; stroke-width: 0.8"/>
      </g>
     </g>
     <g id="text_8">
      <!-- −2.5 -->
      <g style="fill: #ffffff" transform="translate(155.577812 435.115782) scale(0.22 -0.22)">
       <defs>
        <path id="DejaVuSans-35" d="M 691 4666 
L 3169 4666 
L 3169 4134 
L 1269 4134 
L 1269 2991 
Q 1406 3038 1543 3061 
Q 1681 3084 1819 3084 
Q 2600 3084 3056 2656 
Q 3513 2228 3513 1497 
Q 3513 744 3044 326 
Q 2575 -91 1722 -91 
Q 1428 -91 1123 -41 
Q 819 9 494 109 
L 494 744 
Q 775 591 1075 516 
Q 1375 441 1709 441 
Q 2250 441 2565 725 
Q 2881 1009 2881 1497 
Q 2881 1984 2565 2268 
Q 2250 2553 1709 2553 
Q 1456 2553 1204 2497 
Q 953 2441 691 2322 
L 691 4666 
z
" transform="scale(0.015625)"/>
       </defs>
       <use xlink:href="#DejaVuSans-2212"/>
       <use xlink:href="#DejaVuSans-32" x="83.789062"/>
       <use xlink:href="#DejaVuSans-2e" x="147.412109"/>
       <use xlink:href="#DejaVuSans-35" x="179.199219"/>
      </g>
     </g>
    </g>
    <g id="ytick_3">
     <g id="line2d_8">
      <g>
       <use xlink:href="#m43fa063afb" x="216" y="358.768384" style="stroke: #000000; stroke-width: 0.8"/>
      </g>
     </g>
     <g id="text_9">
      <!-- −2.0 -->
      <g style="fill: #ffffff" transform="translate(155.577812 367.126666) scale(0.22 -0.22)">
       <use xlink:href="#DejaVuSans-2212"/>
       <use xlink:href="#DejaVuSans-32" x="83.789062"/>
       <use xlink:href="#DejaVuSans-2e" x="147.412109"/>
       <use xlink:href="#DejaVuSans-30" x="179.199219"/>
      </g>
     </g>
    </g>
    <g id="ytick_4">
     <g id="line2d_9">
      <g>
       <use xlink:href="#m43fa063afb" x="216" y="290.779268" style="stroke: #000000; stroke-width: 0.8"/>
      </g>
     </g>
     <g id="text_10">
      <!-- −1.5 -->
      <g style="fill: #ffffff" transform="translate(155.577812 299.137549) scale(0.22 -0.22)">
       <use xlink:href="#DejaVuSans-2212"/>
       <use xlink:href="#DejaVuSans-31" x="83.789062"/>
       <use xlink:href="#DejaVuSans-2e" x="147.412109"/>
       <use xlink:href="#DejaVuSans-35" x="179.199219"/>
      </g>
     </g>
    </g>
    <g id="ytick_5">
     <g id="line2d_10">
      <g>
       <use xlink:href="#m43fa063afb" x="216" y="222.790151" style="stroke: #000000; stroke-width: 0.8"/>
      </g>
     </g>
     <g id="text_11">
      <!-- −1.0 -->
      <g style="fill: #ffffff" transform="translate(155.577812 231.148432) scale(0.22 -0.22)">
       <use xlink:href="#DejaVuSans-2212"/>
       <use xlink:href="#DejaVuSans-31" x="83.789062"/>
       <use xlink:href="#DejaVuSans-2e" x="147.412109"/>
       <use xlink:href="#DejaVuSans-30" x="179.199219"/>
      </g>
     </g>
    </g>
    <g id="ytick_6">
     <g id="line2d_11">
      <g>
       <use xlink:href="#m43fa063afb" x="216" y="154.801034" style="stroke: #000000; stroke-width: 0.8"/>
      </g>
     </g>
     <g id="text_12">
      <!-- −0.5 -->
      <g style="fill: #ffffff" transform="translate(155.577812 163.159315) scale(0.22 -0.22)">
       <use xlink:href="#DejaVuSans-2212"/>
       <use xlink:href="#DejaVuSans-30" x="83.789062"/>
       <use xlink:href="#DejaVuSans-2e" x="147.412109"/>
       <use xlink:href="#DejaVuSans-35" x="179.199219"/>
      </g>
     </g>
    </g>
    <g id="ytick_7">
     <g id="line2d_12">
      <g>
       <use xlink:href="#m43fa063afb" x="216" y="86.811917" style="stroke: #000000; stroke-width: 0.8"/>
      </g>
     </g>
     <g id="text_13">
      <!-- 0.0 -->
      <g style="fill: #ffffff" transform="translate(174.013125 95.170198) scale(0.22 -0.22)">
       <use xlink:href="#DejaVuSans-30"/>
       <use xlink:href="#DejaVuSans-2e" x="63.623047"/>
       <use xlink:href="#DejaVuSans-30" x="95.410156"/>
      </g>
     </g>
    </g>
    <g id="text_14">
     <!-- Target_CumBest -->
     <g style="fill: #ffffff" transform="translate(146.390625 380.143281) rotate(-90) scale(0.22 -0.22)">
      <defs>
       <path id="DejaVuSans-54" d="M -19 4666 
L 3928 4666 
L 3928 4134 
L 2272 4134 
L 2272 0 
L 1638 0 
L 1638 4134 
L -19 4134 
L -19 4666 
z
" transform="scale(0.015625)"/>
       <path id="DejaVuSans-61" d="M 2194 1759 
Q 1497 1759 1228 1600 
Q 959 1441 959 1056 
Q 959 750 1161 570 
Q 1363 391 1709 391 
Q 2188 391 2477 730 
Q 2766 1069 2766 1631 
L 2766 1759 
L 2194 1759 
z
M 3341 1997 
L 3341 0 
L 2766 0 
L 2766 531 
Q 2569 213 2275 61 
Q 1981 -91 1556 -91 
Q 1019 -91 701 211 
Q 384 513 384 1019 
Q 384 1609 779 1909 
Q 1175 2209 1959 2209 
L 2766 2209 
L 2766 2266 
Q 2766 2663 2505 2880 
Q 2244 3097 1772 3097 
Q 1472 3097 1187 3025 
Q 903 2953 641 2809 
L 641 3341 
Q 956 3463 1253 3523 
Q 1550 3584 1831 3584 
Q 2591 3584 2966 3190 
Q 3341 2797 3341 1997 
z
" transform="scale(0.015625)"/>
       <path id="DejaVuSans-67" d="M 2906 1791 
Q 2906 2416 2648 2759 
Q 2391 3103 1925 3103 
Q 1463 3103 1205 2759 
Q 947 2416 947 1791 
Q 947 1169 1205 825 
Q 1463 481 1925 481 
Q 2391 481 2648 825 
Q 2906 1169 2906 1791 
z
M 3481 434 
Q 3481 -459 3084 -895 
Q 2688 -1331 1869 -1331 
Q 1566 -1331 1297 -1286 
Q 1028 -1241 775 -1147 
L 775 -588 
Q 1028 -725 1275 -790 
Q 1522 -856 1778 -856 
Q 2344 -856 2625 -561 
Q 2906 -266 2906 331 
L 2906 616 
Q 2728 306 2450 153 
Q 2172 0 1784 0 
Q 1141 0 747 490 
Q 353 981 353 1791 
Q 353 2603 747 3093 
Q 1141 3584 1784 3584 
Q 2172 3584 2450 3431 
Q 2728 3278 2906 2969 
L 2906 3500 
L 3481 3500 
L 3481 434 
z
" transform="scale(0.015625)"/>
       <path id="DejaVuSans-43" d="M 4122 4306 
L 4122 3641 
Q 3803 3938 3442 4084 
Q 3081 4231 2675 4231 
Q 1875 4231 1450 3742 
Q 1025 3253 1025 2328 
Q 1025 1406 1450 917 
Q 1875 428 2675 428 
Q 3081 428 3442 575 
Q 3803 722 4122 1019 
L 4122 359 
Q 3791 134 3420 21 
Q 3050 -91 2638 -91 
Q 1578 -91 968 557 
Q 359 1206 359 2328 
Q 359 3453 968 4101 
Q 1578 4750 2638 4750 
Q 3056 4750 3426 4639 
Q 3797 4528 4122 4306 
z
" transform="scale(0.015625)"/>
       <path id="DejaVuSans-42" d="M 1259 2228 
L 1259 519 
L 2272 519 
Q 2781 519 3026 730 
Q 3272 941 3272 1375 
Q 3272 1813 3026 2020 
Q 2781 2228 2272 2228 
L 1259 2228 
z
M 1259 4147 
L 1259 2741 
L 2194 2741 
Q 2656 2741 2882 2914 
Q 3109 3088 3109 3444 
Q 3109 3797 2882 3972 
Q 2656 4147 2194 4147 
L 1259 4147 
z
M 628 4666 
L 2241 4666 
Q 2963 4666 3353 4366 
Q 3744 4066 3744 3513 
Q 3744 3084 3544 2831 
Q 3344 2578 2956 2516 
Q 3422 2416 3680 2098 
Q 3938 1781 3938 1306 
Q 3938 681 3513 340 
Q 3088 0 2303 0 
L 628 0 
L 628 4666 
z
" transform="scale(0.015625)"/>
      </defs>
      <use xlink:href="#DejaVuSans-54"/>
      <use xlink:href="#DejaVuSans-61" x="44.583984"/>
      <use xlink:href="#DejaVuSans-72" x="105.863281"/>
      <use xlink:href="#DejaVuSans-67" x="145.226562"/>
      <use xlink:href="#DejaVuSans-65" x="208.703125"/>
      <use xlink:href="#DejaVuSans-74" x="270.226562"/>
      <use xlink:href="#DejaVuSans-5f" x="309.435547"/>
      <use xlink:href="#DejaVuSans-43" x="359.435547"/>
      <use xlink:href="#DejaVuSans-75" x="429.259766"/>
      <use xlink:href="#DejaVuSans-6d" x="492.638672"/>
      <use xlink:href="#DejaVuSans-42" x="590.050781"/>
      <use xlink:href="#DejaVuSans-65" x="658.654297"/>
      <use xlink:href="#DejaVuSans-73" x="720.177734"/>
      <use xlink:href="#DejaVuSans-74" x="772.277344"/>
     </g>
    </g>
   </g>
   <g id="line2d_13">
    <path d="M 276.872727 172.685628 
L 412.145455 175.462702 
L 547.418182 226.191842 
L 682.690909 279.182188 
L 817.963636 320.678439 
L 953.236364 377.293259 
L 1088.509091 394.795305 
L 1223.781818 411.094846 
L 1359.054545 419.071247 
L 1494.327273 431.662847 
" clip-path="url(#p342a9aeb8a)" style="fill: none; stroke: #1f77b4; stroke-width: 1.5; stroke-linecap: square"/>
    <defs>
     <path id="ma0047213c7" d="M 0 5 
C 1.326016 5 2.597899 4.473168 3.535534 3.535534 
C 4.473168 2.597899 5 1.326016 5 0 
C 5 -1.326016 4.473168 -2.597899 3.535534 -3.535534 
C 2.597899 -4.473168 1.326016 -5 0 -5 
C -1.326016 -5 -2.597899 -4.473168 -3.535534 -3.535534 
C -4.473168 -2.597899 -5 -1.326016 -5 0 
C -5 1.326016 -4.473168 2.597899 -3.535534 3.535534 
C -2.597899 4.473168 -1.326016 5 0 5 
z
" style="stroke: #ffffff; stroke-width: 0.75"/>
    </defs>
    <g clip-path="url(#p342a9aeb8a)">
     <use xlink:href="#ma0047213c7" x="276.872727" y="172.685628" style="fill: #1f77b4; stroke: #ffffff; stroke-width: 0.75"/>
     <use xlink:href="#ma0047213c7" x="412.145455" y="175.462702" style="fill: #1f77b4; stroke: #ffffff; stroke-width: 0.75"/>
     <use xlink:href="#ma0047213c7" x="547.418182" y="226.191842" style="fill: #1f77b4; stroke: #ffffff; stroke-width: 0.75"/>
     <use xlink:href="#ma0047213c7" x="682.690909" y="279.182188" style="fill: #1f77b4; stroke: #ffffff; stroke-width: 0.75"/>
     <use xlink:href="#ma0047213c7" x="817.963636" y="320.678439" style="fill: #1f77b4; stroke: #ffffff; stroke-width: 0.75"/>
     <use xlink:href="#ma0047213c7" x="953.236364" y="377.293259" style="fill: #1f77b4; stroke: #ffffff; stroke-width: 0.75"/>
     <use xlink:href="#ma0047213c7" x="1088.509091" y="394.795305" style="fill: #1f77b4; stroke: #ffffff; stroke-width: 0.75"/>
     <use xlink:href="#ma0047213c7" x="1223.781818" y="411.094846" style="fill: #1f77b4; stroke: #ffffff; stroke-width: 0.75"/>
     <use xlink:href="#ma0047213c7" x="1359.054545" y="419.071247" style="fill: #1f77b4; stroke: #ffffff; stroke-width: 0.75"/>
     <use xlink:href="#ma0047213c7" x="1494.327273" y="431.662847" style="fill: #1f77b4; stroke: #ffffff; stroke-width: 0.75"/>
    </g>
   </g>
   <g id="line2d_14">
    <path d="M 276.872727 97.981524 
L 412.145455 210.343517 
L 547.418182 230.60716 
L 682.690909 274.887227 
L 817.963636 358.199673 
L 953.236364 387.15412 
L 1088.509091 419.667987 
L 1223.781818 429.109102 
L 1359.054545 440.571093 
L 1494.327273 450.971595 
" clip-path="url(#p342a9aeb8a)" style="fill: none; stroke: #ff7f0e; stroke-width: 1.5; stroke-linecap: square"/>
    <defs>
     <path id="m04e0baf82d" d="M 0 5 
C 1.326016 5 2.597899 4.473168 3.535534 3.535534 
C 4.473168 2.597899 5 1.326016 5 0 
C 5 -1.326016 4.473168 -2.597899 3.535534 -3.535534 
C 2.597899 -4.473168 1.326016 -5 0 -5 
C -1.326016 -5 -2.597899 -4.473168 -3.535534 -3.535534 
C -4.473168 -2.597899 -5 -1.326016 -5 0 
C -5 1.326016 -4.473168 2.597899 -3.535534 3.535534 
C -2.597899 4.473168 -1.326016 5 0 5 
z
" style="stroke: #ffffff; stroke-width: 0.75"/>
    </defs>
    <g clip-path="url(#p342a9aeb8a)">
     <use xlink:href="#m04e0baf82d" x="276.872727" y="97.981524" style="fill: #ff7f0e; stroke: #ffffff; stroke-width: 0.75"/>
     <use xlink:href="#m04e0baf82d" x="412.145455" y="210.343517" style="fill: #ff7f0e; stroke: #ffffff; stroke-width: 0.75"/>
     <use xlink:href="#m04e0baf82d" x="547.418182" y="230.60716" style="fill: #ff7f0e; stroke: #ffffff; stroke-width: 0.75"/>
     <use xlink:href="#m04e0baf82d" x="682.690909" y="274.887227" style="fill: #ff7f0e; stroke: #ffffff; stroke-width: 0.75"/>
     <use xlink:href="#m04e0baf82d" x="817.963636" y="358.199673" style="fill: #ff7f0e; stroke: #ffffff; stroke-width: 0.75"/>
     <use xlink:href="#m04e0baf82d" x="953.236364" y="387.15412" style="fill: #ff7f0e; stroke: #ffffff; stroke-width: 0.75"/>
     <use xlink:href="#m04e0baf82d" x="1088.509091" y="419.667987" style="fill: #ff7f0e; stroke: #ffffff; stroke-width: 0.75"/>
     <use xlink:href="#m04e0baf82d" x="1223.781818" y="429.109102" style="fill: #ff7f0e; stroke: #ffffff; stroke-width: 0.75"/>
     <use xlink:href="#m04e0baf82d" x="1359.054545" y="440.571093" style="fill: #ff7f0e; stroke: #ffffff; stroke-width: 0.75"/>
     <use xlink:href="#m04e0baf82d" x="1494.327273" y="450.971595" style="fill: #ff7f0e; stroke: #ffffff; stroke-width: 0.75"/>
    </g>
   </g>
   <g id="line2d_15">
    <path d="M 276.872727 133.898214 
L 412.145455 250.041811 
L 547.418182 268.414128 
L 682.690909 310.372905 
L 817.963636 356.766826 
L 953.236364 394.253068 
L 1088.509091 401.362149 
L 1223.781818 428.758806 
L 1359.054545 437.4563 
L 1494.327273 443.522013 
" clip-path="url(#p342a9aeb8a)" style="fill: none; stroke: #2ca02c; stroke-width: 1.5; stroke-linecap: square"/>
    <defs>
     <path id="m9415b83062" d="M 0 5 
C 1.326016 5 2.597899 4.473168 3.535534 3.535534 
C 4.473168 2.597899 5 1.326016 5 0 
C 5 -1.326016 4.473168 -2.597899 3.535534 -3.535534 
C 2.597899 -4.473168 1.326016 -5 0 -5 
C -1.326016 -5 -2.597899 -4.473168 -3.535534 -3.535534 
C -4.473168 -2.597899 -5 -1.326016 -5 0 
C -5 1.326016 -4.473168 2.597899 -3.535534 3.535534 
C -2.597899 4.473168 -1.326016 5 0 5 
z
" style="stroke: #ffffff; stroke-width: 0.75"/>
    </defs>
    <g clip-path="url(#p342a9aeb8a)">
     <use xlink:href="#m9415b83062" x="276.872727" y="133.898214" style="fill: #2ca02c; stroke: #ffffff; stroke-width: 0.75"/>
     <use xlink:href="#m9415b83062" x="412.145455" y="250.041811" style="fill: #2ca02c; stroke: #ffffff; stroke-width: 0.75"/>
     <use xlink:href="#m9415b83062" x="547.418182" y="268.414128" style="fill: #2ca02c; stroke: #ffffff; stroke-width: 0.75"/>
     <use xlink:href="#m9415b83062" x="682.690909" y="310.372905" style="fill: #2ca02c; stroke: #ffffff; stroke-width: 0.75"/>
     <use xlink:href="#m9415b83062" x="817.963636" y="356.766826" style="fill: #2ca02c; stroke: #ffffff; stroke-width: 0.75"/>
     <use xlink:href="#m9415b83062" x="953.236364" y="394.253068" style="fill: #2ca02c; stroke: #ffffff; stroke-width: 0.75"/>
     <use xlink:href="#m9415b83062" x="1088.509091" y="401.362149" style="fill: #2ca02c; stroke: #ffffff; stroke-width: 0.75"/>
     <use xlink:href="#m9415b83062" x="1223.781818" y="428.758806" style="fill: #2ca02c; stroke: #ffffff; stroke-width: 0.75"/>
     <use xlink:href="#m9415b83062" x="1359.054545" y="437.4563" style="fill: #2ca02c; stroke: #ffffff; stroke-width: 0.75"/>
     <use xlink:href="#m9415b83062" x="1494.327273" y="443.522013" style="fill: #2ca02c; stroke: #ffffff; stroke-width: 0.75"/>
    </g>
   </g>
   <g id="line2d_16">
    <path d="M 276.872727 95.97639 
L 412.145455 333.973501 
L 547.418182 376.530992 
L 682.690909 392.343651 
L 817.963636 418.519314 
L 953.236364 422.150883 
L 1088.509091 440.917916 
L 1223.781818 454.844585 
L 1359.054545 469.693584 
L 1494.327273 471.822683 
" clip-path="url(#p342a9aeb8a)" style="fill: none; stroke: #d62728; stroke-width: 1.5; stroke-linecap: square"/>
    <defs>
     <path id="m297c4488b6" d="M 0 5 
C 1.326016 5 2.597899 4.473168 3.535534 3.535534 
C 4.473168 2.597899 5 1.326016 5 0 
C 5 -1.326016 4.473168 -2.597899 3.535534 -3.535534 
C 2.597899 -4.473168 1.326016 -5 0 -5 
C -1.326016 -5 -2.597899 -4.473168 -3.535534 -3.535534 
C -4.473168 -2.597899 -5 -1.326016 -5 0 
C -5 1.326016 -4.473168 2.597899 -3.535534 3.535534 
C -2.597899 4.473168 -1.326016 5 0 5 
z
" style="stroke: #ffffff; stroke-width: 0.75"/>
    </defs>
    <g clip-path="url(#p342a9aeb8a)">
     <use xlink:href="#m297c4488b6" x="276.872727" y="95.97639" style="fill: #d62728; stroke: #ffffff; stroke-width: 0.75"/>
     <use xlink:href="#m297c4488b6" x="412.145455" y="333.973501" style="fill: #d62728; stroke: #ffffff; stroke-width: 0.75"/>
     <use xlink:href="#m297c4488b6" x="547.418182" y="376.530992" style="fill: #d62728; stroke: #ffffff; stroke-width: 0.75"/>
     <use xlink:href="#m297c4488b6" x="682.690909" y="392.343651" style="fill: #d62728; stroke: #ffffff; stroke-width: 0.75"/>
     <use xlink:href="#m297c4488b6" x="817.963636" y="418.519314" style="fill: #d62728; stroke: #ffffff; stroke-width: 0.75"/>
     <use xlink:href="#m297c4488b6" x="953.236364" y="422.150883" style="fill: #d62728; stroke: #ffffff; stroke-width: 0.75"/>
     <use xlink:href="#m297c4488b6" x="1088.509091" y="440.917916" style="fill: #d62728; stroke: #ffffff; stroke-width: 0.75"/>
     <use xlink:href="#m297c4488b6" x="1223.781818" y="454.844585" style="fill: #d62728; stroke: #ffffff; stroke-width: 0.75"/>
     <use xlink:href="#m297c4488b6" x="1359.054545" y="469.693584" style="fill: #d62728; stroke: #ffffff; stroke-width: 0.75"/>
     <use xlink:href="#m297c4488b6" x="1494.327273" y="471.822683" style="fill: #d62728; stroke: #ffffff; stroke-width: 0.75"/>
    </g>
   </g>
   <g id="line2d_17">
    <path d="M 276.872727 111.360353 
L 412.145455 408.607257 
L 547.418182 426.295028 
L 682.690909 441.619287 
L 817.963636 447.048439 
L 953.236364 453.985529 
L 1088.509091 474.621334 
L 1223.781818 478.642106 
L 1359.054545 482.856377 
L 1494.327273 484.731255 
" clip-path="url(#p342a9aeb8a)" style="fill: none; stroke: #9467bd; stroke-width: 1.5; stroke-linecap: square"/>
    <defs>
     <path id="meb0d215837" d="M 0 5 
C 1.326016 5 2.597899 4.473168 3.535534 3.535534 
C 4.473168 2.597899 5 1.326016 5 0 
C 5 -1.326016 4.473168 -2.597899 3.535534 -3.535534 
C 2.597899 -4.473168 1.326016 -5 0 -5 
C -1.326016 -5 -2.597899 -4.473168 -3.535534 -3.535534 
C -4.473168 -2.597899 -5 -1.326016 -5 0 
C -5 1.326016 -4.473168 2.597899 -3.535534 3.535534 
C -2.597899 4.473168 -1.326016 5 0 5 
z
" style="stroke: #ffffff; stroke-width: 0.75"/>
    </defs>
    <g clip-path="url(#p342a9aeb8a)">
     <use xlink:href="#meb0d215837" x="276.872727" y="111.360353" style="fill: #9467bd; stroke: #ffffff; stroke-width: 0.75"/>
     <use xlink:href="#meb0d215837" x="412.145455" y="408.607257" style="fill: #9467bd; stroke: #ffffff; stroke-width: 0.75"/>
     <use xlink:href="#meb0d215837" x="547.418182" y="426.295028" style="fill: #9467bd; stroke: #ffffff; stroke-width: 0.75"/>
     <use xlink:href="#meb0d215837" x="682.690909" y="441.619287" style="fill: #9467bd; stroke: #ffffff; stroke-width: 0.75"/>
     <use xlink:href="#meb0d215837" x="817.963636" y="447.048439" style="fill: #9467bd; stroke: #ffffff; stroke-width: 0.75"/>
     <use xlink:href="#meb0d215837" x="953.236364" y="453.985529" style="fill: #9467bd; stroke: #ffffff; stroke-width: 0.75"/>
     <use xlink:href="#meb0d215837" x="1088.509091" y="474.621334" style="fill: #9467bd; stroke: #ffffff; stroke-width: 0.75"/>
     <use xlink:href="#meb0d215837" x="1223.781818" y="478.642106" style="fill: #9467bd; stroke: #ffffff; stroke-width: 0.75"/>
     <use xlink:href="#meb0d215837" x="1359.054545" y="482.856377" style="fill: #9467bd; stroke: #ffffff; stroke-width: 0.75"/>
     <use xlink:href="#meb0d215837" x="1494.327273" y="484.731255" style="fill: #9467bd; stroke: #ffffff; stroke-width: 0.75"/>
    </g>
   </g>
   <g id="line2d_18">
    <path d="M 276.872727 95.202702 
L 412.145455 440.646252 
L 547.418182 455.566328 
L 682.690909 460.559006 
L 817.963636 465.43671 
L 953.236364 471.902276 
L 1088.509091 475.617621 
L 1223.781818 476.103511 
L 1359.054545 486.217642 
L 1494.327273 489.602985 
" clip-path="url(#p342a9aeb8a)" style="fill: none; stroke: #8c564b; stroke-width: 1.5; stroke-linecap: square"/>
    <defs>
     <path id="m2d59880a38" d="M 0 5 
C 1.326016 5 2.597899 4.473168 3.535534 3.535534 
C 4.473168 2.597899 5 1.326016 5 0 
C 5 -1.326016 4.473168 -2.597899 3.535534 -3.535534 
C 2.597899 -4.473168 1.326016 -5 0 -5 
C -1.326016 -5 -2.597899 -4.473168 -3.535534 -3.535534 
C -4.473168 -2.597899 -5 -1.326016 -5 0 
C -5 1.326016 -4.473168 2.597899 -3.535534 3.535534 
C -2.597899 4.473168 -1.326016 5 0 5 
z
" style="stroke: #ffffff; stroke-width: 0.75"/>
    </defs>
    <g clip-path="url(#p342a9aeb8a)">
     <use xlink:href="#m2d59880a38" x="276.872727" y="95.202702" style="fill: #8c564b; stroke: #ffffff; stroke-width: 0.75"/>
     <use xlink:href="#m2d59880a38" x="412.145455" y="440.646252" style="fill: #8c564b; stroke: #ffffff; stroke-width: 0.75"/>
     <use xlink:href="#m2d59880a38" x="547.418182" y="455.566328" style="fill: #8c564b; stroke: #ffffff; stroke-width: 0.75"/>
     <use xlink:href="#m2d59880a38" x="682.690909" y="460.559006" style="fill: #8c564b; stroke: #ffffff; stroke-width: 0.75"/>
     <use xlink:href="#m2d59880a38" x="817.963636" y="465.43671" style="fill: #8c564b; stroke: #ffffff; stroke-width: 0.75"/>
     <use xlink:href="#m2d59880a38" x="953.236364" y="471.902276" style="fill: #8c564b; stroke: #ffffff; stroke-width: 0.75"/>
     <use xlink:href="#m2d59880a38" x="1088.509091" y="475.617621" style="fill: #8c564b; stroke: #ffffff; stroke-width: 0.75"/>
     <use xlink:href="#m2d59880a38" x="1223.781818" y="476.103511" style="fill: #8c564b; stroke: #ffffff; stroke-width: 0.75"/>
     <use xlink:href="#m2d59880a38" x="1359.054545" y="486.217642" style="fill: #8c564b; stroke: #ffffff; stroke-width: 0.75"/>
     <use xlink:href="#m2d59880a38" x="1494.327273" y="489.602985" style="fill: #8c564b; stroke: #ffffff; stroke-width: 0.75"/>
    </g>
   </g>
   <g id="line2d_19"/>
   <g id="line2d_20"/>
   <g id="line2d_21"/>
   <g id="line2d_22"/>
   <g id="line2d_23"/>
   <g id="line2d_24"/>
   <g id="patch_3">
    <path d="M 216 512.64 
L 216 69.12 
" style="fill: none; stroke: #ffffff; stroke-width: 0.8; stroke-linejoin: miter; stroke-linecap: square"/>
   </g>
   <g id="patch_4">
    <path d="M 1555.2 512.64 
L 1555.2 69.12 
" style="fill: none; stroke: #ffffff; stroke-width: 0.8; stroke-linejoin: miter; stroke-linecap: square"/>
   </g>
   <g id="patch_5">
    <path d="M 216 512.64 
L 1555.2 512.64 
" style="fill: none; stroke: #ffffff; stroke-width: 0.8; stroke-linejoin: miter; stroke-linecap: square"/>
   </g>
   <g id="patch_6">
    <path d="M 216 69.12 
L 1555.2 69.12 
" style="fill: none; stroke: #ffffff; stroke-width: 0.8; stroke-linejoin: miter; stroke-linecap: square"/>
   </g>
   <g id="legend_1">
    <g id="patch_7">
     <path d="M 1378.653438 261.163125 
L 1548.2 261.163125 
Q 1550.2 261.163125 1550.2 259.163125 
L 1550.2 76.12 
Q 1550.2 74.12 1548.2 74.12 
L 1378.653438 74.12 
Q 1376.653438 74.12 1376.653438 76.12 
L 1376.653438 259.163125 
Q 1376.653438 261.163125 1378.653438 261.163125 
z
" style="fill: #ffffff; opacity: 0.3; stroke: #cccccc; stroke-linejoin: miter"/>
    </g>
    <g id="text_15">
     <!-- % of data used -->
     <g style="fill: #ffffff" transform="translate(1380.653438 94.836563) scale(0.22 -0.22)">
      <defs>
       <path id="DejaVuSans-25" d="M 4653 2053 
Q 4381 2053 4226 1822 
Q 4072 1591 4072 1178 
Q 4072 772 4226 539 
Q 4381 306 4653 306 
Q 4919 306 5073 539 
Q 5228 772 5228 1178 
Q 5228 1588 5073 1820 
Q 4919 2053 4653 2053 
z
M 4653 2450 
Q 5147 2450 5437 2106 
Q 5728 1763 5728 1178 
Q 5728 594 5436 251 
Q 5144 -91 4653 -91 
Q 4153 -91 3862 251 
Q 3572 594 3572 1178 
Q 3572 1766 3864 2108 
Q 4156 2450 4653 2450 
z
M 1428 4353 
Q 1159 4353 1004 4120 
Q 850 3888 850 3481 
Q 850 3069 1003 2837 
Q 1156 2606 1428 2606 
Q 1700 2606 1854 2837 
Q 2009 3069 2009 3481 
Q 2009 3884 1853 4118 
Q 1697 4353 1428 4353 
z
M 4250 4750 
L 4750 4750 
L 1831 -91 
L 1331 -91 
L 4250 4750 
z
M 1428 4750 
Q 1922 4750 2215 4408 
Q 2509 4066 2509 3481 
Q 2509 2891 2217 2550 
Q 1925 2209 1428 2209 
Q 931 2209 642 2551 
Q 353 2894 353 3481 
Q 353 4063 643 4406 
Q 934 4750 1428 4750 
z
" transform="scale(0.015625)"/>
       <path id="DejaVuSans-20" transform="scale(0.015625)"/>
       <path id="DejaVuSans-6f" d="M 1959 3097 
Q 1497 3097 1228 2736 
Q 959 2375 959 1747 
Q 959 1119 1226 758 
Q 1494 397 1959 397 
Q 2419 397 2687 759 
Q 2956 1122 2956 1747 
Q 2956 2369 2687 2733 
Q 2419 3097 1959 3097 
z
M 1959 3584 
Q 2709 3584 3137 3096 
Q 3566 2609 3566 1747 
Q 3566 888 3137 398 
Q 2709 -91 1959 -91 
Q 1206 -91 779 398 
Q 353 888 353 1747 
Q 353 2609 779 3096 
Q 1206 3584 1959 3584 
z
" transform="scale(0.015625)"/>
       <path id="DejaVuSans-66" d="M 2375 4863 
L 2375 4384 
L 1825 4384 
Q 1516 4384 1395 4259 
Q 1275 4134 1275 3809 
L 1275 3500 
L 2222 3500 
L 2222 3053 
L 1275 3053 
L 1275 0 
L 697 0 
L 697 3053 
L 147 3053 
L 147 3500 
L 697 3500 
L 697 3744 
Q 697 4328 969 4595 
Q 1241 4863 1831 4863 
L 2375 4863 
z
" transform="scale(0.015625)"/>
       <path id="DejaVuSans-64" d="M 2906 2969 
L 2906 4863 
L 3481 4863 
L 3481 0 
L 2906 0 
L 2906 525 
Q 2725 213 2448 61 
Q 2172 -91 1784 -91 
Q 1150 -91 751 415 
Q 353 922 353 1747 
Q 353 2572 751 3078 
Q 1150 3584 1784 3584 
Q 2172 3584 2448 3432 
Q 2725 3281 2906 2969 
z
M 947 1747 
Q 947 1113 1208 752 
Q 1469 391 1925 391 
Q 2381 391 2643 752 
Q 2906 1113 2906 1747 
Q 2906 2381 2643 2742 
Q 2381 3103 1925 3103 
Q 1469 3103 1208 2742 
Q 947 2381 947 1747 
z
" transform="scale(0.015625)"/>
      </defs>
      <use xlink:href="#DejaVuSans-25"/>
      <use xlink:href="#DejaVuSans-20" x="95.019531"/>
      <use xlink:href="#DejaVuSans-6f" x="126.806641"/>
      <use xlink:href="#DejaVuSans-66" x="187.988281"/>
      <use xlink:href="#DejaVuSans-20" x="223.193359"/>
      <use xlink:href="#DejaVuSans-64" x="254.980469"/>
      <use xlink:href="#DejaVuSans-61" x="318.457031"/>
      <use xlink:href="#DejaVuSans-74" x="379.736328"/>
      <use xlink:href="#DejaVuSans-61" x="418.945312"/>
      <use xlink:href="#DejaVuSans-20" x="480.224609"/>
      <use xlink:href="#DejaVuSans-75" x="512.011719"/>
      <use xlink:href="#DejaVuSans-73" x="575.390625"/>
      <use xlink:href="#DejaVuSans-65" x="627.490234"/>
      <use xlink:href="#DejaVuSans-64" x="689.013672"/>
     </g>
    </g>
    <g id="line2d_25">
     <path d="M 1435.429219 117.628438 
L 1445.429219 117.628438 
L 1455.429219 117.628438 
" style="fill: none; stroke: #1f77b4; stroke-width: 1.5; stroke-linecap: square"/>
     <g>
      <use xlink:href="#ma0047213c7" x="1445.429219" y="117.628438" style="fill: #1f77b4; stroke: #ffffff; stroke-width: 0.75"/>
     </g>
    </g>
    <g id="text_16">
     <!-- 0 -->
     <g style="fill: #ffffff" transform="translate(1463.429219 121.128438) scale(0.22 -0.22)">
      <use xlink:href="#DejaVuSans-30"/>
     </g>
    </g>
    <g id="line2d_26">
     <path d="M 1435.429219 143.920313 
L 1445.429219 143.920313 
L 1455.429219 143.920313 
" style="fill: none; stroke: #ff7f0e; stroke-width: 1.5; stroke-linecap: square"/>
     <g>
      <use xlink:href="#m04e0baf82d" x="1445.429219" y="143.920313" style="fill: #ff7f0e; stroke: #ffffff; stroke-width: 0.75"/>
     </g>
    </g>
    <g id="text_17">
     <!-- 1 -->
     <g style="fill: #ffffff" transform="translate(1463.429219 147.420313) scale(0.22 -0.22)">
      <use xlink:href="#DejaVuSans-31"/>
     </g>
    </g>
    <g id="line2d_27">
     <path d="M 1435.429219 170.212188 
L 1445.429219 170.212188 
L 1455.429219 170.212188 
" style="fill: none; stroke: #2ca02c; stroke-width: 1.5; stroke-linecap: square"/>
     <g>
      <use xlink:href="#m9415b83062" x="1445.429219" y="170.212188" style="fill: #2ca02c; stroke: #ffffff; stroke-width: 0.75"/>
     </g>
    </g>
    <g id="text_18">
     <!-- 2 -->
     <g style="fill: #ffffff" transform="translate(1463.429219 173.712188) scale(0.22 -0.22)">
      <use xlink:href="#DejaVuSans-32"/>
     </g>
    </g>
    <g id="line2d_28">
     <path d="M 1435.429219 196.504063 
L 1445.429219 196.504063 
L 1455.429219 196.504063 
" style="fill: none; stroke: #d62728; stroke-width: 1.5; stroke-linecap: square"/>
     <g>
      <use xlink:href="#m297c4488b6" x="1445.429219" y="196.504063" style="fill: #d62728; stroke: #ffffff; stroke-width: 0.75"/>
     </g>
    </g>
    <g id="text_19">
     <!-- 5 -->
     <g style="fill: #ffffff" transform="translate(1463.429219 200.004063) scale(0.22 -0.22)">
      <use xlink:href="#DejaVuSans-35"/>
     </g>
    </g>
    <g id="line2d_29">
     <path d="M 1435.429219 222.795938 
L 1445.429219 222.795938 
L 1455.429219 222.795938 
" style="fill: none; stroke: #9467bd; stroke-width: 1.5; stroke-linecap: square"/>
     <g>
      <use xlink:href="#meb0d215837" x="1445.429219" y="222.795938" style="fill: #9467bd; stroke: #ffffff; stroke-width: 0.75"/>
     </g>
    </g>
    <g id="text_20">
     <!-- 8 -->
     <g style="fill: #ffffff" transform="translate(1463.429219 226.295938) scale(0.22 -0.22)">
      <use xlink:href="#DejaVuSans-38"/>
     </g>
    </g>
    <g id="line2d_30">
     <path d="M 1435.429219 249.087813 
L 1445.429219 249.087813 
L 1455.429219 249.087813 
" style="fill: none; stroke: #8c564b; stroke-width: 1.5; stroke-linecap: square"/>
     <g>
      <use xlink:href="#m2d59880a38" x="1445.429219" y="249.087813" style="fill: #8c564b; stroke: #ffffff; stroke-width: 0.75"/>
     </g>
    </g>
    <g id="text_21">
     <!-- 20 -->
     <g style="fill: #ffffff" transform="translate(1463.429219 252.587813) scale(0.22 -0.22)">
      <use xlink:href="#DejaVuSans-32"/>
      <use xlink:href="#DejaVuSans-30" x="63.623047"/>
     </g>
    </g>
   </g>
  </g>
 </g>
 <defs>
  <clipPath id="p342a9aeb8a">
   <rect x="216" y="69.12" width="1339.2" height="443.52"/>
  </clipPath>
 </defs>
</svg>
