<?xml version="1.0" encoding="UTF-8" standalone="no"?>
<!-- Created with Inkscape (http://www.inkscape.org/) -->

<svg
   width="250.65068mm"
   height="71.00457mm"
   viewBox="-2 -2 167.10045 47.336379"
   version="1.1"
   id="svg1"
   inkscape:version="1.3.1 (91b66b0, 2023-11-16)"
   sodipodi:docname="target_transforms.svg"
   xmlns:inkscape="http://www.inkscape.org/namespaces/inkscape"
   xmlns:sodipodi="http://sodipodi.sourceforge.net/DTD/sodipodi-0.dtd"
   xmlns="http://www.w3.org/2000/svg"
   xmlns:svg="http://www.w3.org/2000/svg">
  <sodipodi:namedview
     id="namedview1"
     pagecolor="#0f69af"
     bordercolor="#000000"
     borderopacity="0.25"
     inkscape:showpageshadow="2"
     inkscape:pageopacity="0.0"
     inkscape:pagecheckerboard="0"
     inkscape:deskcolor="#d1d1d1"
     inkscape:document-units="mm"
     inkscape:zoom="0.84650396"
     inkscape:cx="426.45991"
     inkscape:cy="82.102392"
     inkscape:window-width="1512"
     inkscape:window-height="916"
     inkscape:window-x="0"
     inkscape:window-y="38"
     inkscape:window-maximized="0"
     inkscape:current-layer="layer1"
     inkscape:export-bgcolor="#0f69afff">
    <inkscape:page
       x="0"
       y="0"
       width="167.10045"
       height="47.336376"
       id="page41"
       margin="1.3333334"
       bleed="0"
       inkscape:export-filename="target_transforms.png"
       inkscape:export-xdpi="150"
       inkscape:export-ydpi="150" />
  </sodipodi:namedview>
  <defs
     id="defs1">
    <marker
       style="overflow:visible"
       id="marker41"
       refX="0"
       refY="0"
       orient="auto-start-reverse"
       inkscape:stockid="marker41"
       markerWidth="1"
       markerHeight="1"
       viewBox="0 0 1 1"
       inkscape:isstock="true"
       inkscape:collect="always"
       preserveAspectRatio="xMidYMid">
      <path
         transform="scale(0.7)"
         d="M -2,-4 9,0 -2,4 c 2,-2.33 2,-5.66 0,-8 z"
         style="fill:#ffffff;fill-rule:evenodd;stroke:none"
         id="path41" />
    </marker>
    <marker
       style="overflow:visible"
       id="ConcaveTriangle"
       refX="0"
       refY="0"
       orient="auto-start-reverse"
       inkscape:stockid="ConcaveTriangle"
       markerWidth="1"
       markerHeight="1"
       viewBox="0 0 1 1"
       inkscape:isstock="true"
       inkscape:collect="always"
       preserveAspectRatio="xMidYMid">
      <path
         transform="scale(0.7)"
         d="M -2,-4 9,0 -2,4 c 2,-2.33 2,-5.66 0,-8 z"
         style="fill:#ffffff;fill-rule:evenodd;stroke:none"
         id="path7" />
    </marker>
    <marker
       style="overflow:visible"
       id="ConcaveTriangle-7"
       refX="0"
       refY="0"
       orient="auto-start-reverse"
       inkscape:stockid="ConcaveTriangle-7"
       markerWidth="1"
       markerHeight="1"
       viewBox="0 0 1 1"
       inkscape:isstock="true"
       inkscape:collect="always"
       preserveAspectRatio="xMidYMid">
      <path
         transform="scale(0.7)"
         d="M -2,-4 9,0 -2,4 c 2,-2.33 2,-5.66 0,-8 z"
         style="fill:#ffffff;fill-rule:evenodd;stroke:none"
         id="path7-5" />
    </marker>
  </defs>
  <g
     inkscape:label="Layer 1"
     inkscape:groupmode="layer"
     id="layer1"
     transform="translate(-18.269843,-43.546088)">
    <rect
       style="fill:#0f69af;fill-opacity:1;stroke:#2dbecd;stroke-width:0.0942069;stroke-miterlimit:3.95"
       id="rect1"
       width="164.33957"
       height="44.575508"
       x="17.65028"
       y="42.926525" />
    <g
       id="g16"
       style="stroke-miterlimit:3.95"
       transform="matrix(1.3048411,0,0,1.3048411,-5.3661716,-13.07141)">
      <path
         style="fill:#abdfdb;stroke:#ffffff;stroke-width:0.317333;stroke-miterlimit:3.95;stroke-dasharray:none;stroke-opacity:1;marker-end:url(#ConcaveTriangle)"
         d="M 22.079384,71.406649 V 46.293079"
         id="path1" />
      <path
         style="fill:#abdfdb;stroke:#ffffff;stroke-width:0.3175;stroke-miterlimit:3.95;stroke-dasharray:none;stroke-opacity:1;marker-end:url(#ConcaveTriangle)"
         d="m 21.944784,71.322689 h 33.0286"
         id="path2"
         sodipodi:nodetypes="cc" />
      <path
         style="fill:#abdfdb;stroke:#ffffff;stroke-width:0.3175;stroke-miterlimit:3.95;stroke-dasharray:none;stroke-opacity:1"
         d="m 29.326144,70.893029 v 0.85932"
         id="path6" />
      <path
         style="fill:#abdfdb;stroke:#ffffff;stroke-width:0.3175;stroke-miterlimit:3.95;stroke-dasharray:none;stroke-opacity:1"
         d="m 49.014334,70.893029 v 0.85932"
         id="path8" />
      <path
         style="fill:#abdfdb;stroke:#ffffff;stroke-width:0.3175;stroke-miterlimit:3.95;stroke-dasharray:none;stroke-opacity:1"
         d="m 22.426364,48.782189 h -0.69396"
         id="path9" />
      <path
         d="M 20.269432,49.732483 H 19.24408 v -0.193367 h 0.394366 V 48.269512 H 19.24408 V 48.0965 q 0.08014,0 0.17174,-0.01272 0.0916,-0.01399 0.138664,-0.03944 0.05852,-0.0318 0.0916,-0.08015 0.03435,-0.04961 0.03944,-0.132304 h 0.197183 v 1.707223 h 0.386733 z"
         id="text10"
         style="font-size:2.60536px;fill:#ffdcb9;stroke-width:0.05"
         aria-label="1" />
      <path
         d="m 26.248872,75.264786 h -0.239164 v -1.979463 h 0.239164 z m 1.684324,-0.709859 q 0,0.347296 -0.1781,0.548296 -0.178101,0.200999 -0.477056,0.200999 -0.301499,0 -0.4796,-0.200999 -0.176829,-0.201 -0.176829,-0.548296 0,-0.347297 0.176829,-0.548296 0.178101,-0.202272 0.4796,-0.202272 0.298955,0 0.477056,0.202272 0.1781,0.200999 0.1781,0.548296 z m -0.246796,0 q 0,-0.276056 -0.108133,-0.409632 -0.108133,-0.134848 -0.300227,-0.134848 -0.194639,0 -0.302771,0.134848 -0.106861,0.133576 -0.106861,0.409632 0,0.267151 0.108133,0.405815 0.108132,0.137392 0.301499,0.137392 0.190822,0 0.298955,-0.13612 0.109405,-0.137392 0.109405,-0.407087 z m 2.40436,-0.711131 -0.370195,1.42099 h -0.221354 l -0.365106,-1.09532 -0.362563,1.09532 h -0.220081 l -0.374012,-1.42099 h 0.249341 l 0.26079,1.100408 0.35493,-1.100408 h 0.197183 l 0.363834,1.100408 0.246797,-1.100408 z m 1.534211,0.735302 h -1.046978 q 0,0.131031 0.03944,0.228986 0.03944,0.09668 0.108133,0.159019 0.06615,0.06106 0.156474,0.0916 0.0916,0.03053 0.201,0.03053 0.145025,0 0.291322,-0.05725 0.147569,-0.05852 0.209904,-0.114494 h 0.01272 v 0.260791 q -0.120854,0.05089 -0.246797,0.08523 -0.125943,0.03435 -0.264607,0.03435 -0.353657,0 -0.552112,-0.190823 -0.198455,-0.192094 -0.198455,-0.544479 0,-0.348569 0.18955,-0.553385 0.190822,-0.204816 0.501226,-0.204816 0.287506,0 0.442708,0.167924 0.156474,0.167924 0.156474,0.477056 z m -0.232803,-0.18319 q -0.0013,-0.188278 -0.09541,-0.291322 -0.09287,-0.103044 -0.283689,-0.103044 -0.192095,0 -0.306588,0.113222 -0.113221,0.113221 -0.128487,0.281144 z m 1.482053,-0.291322 H 32.8615 q -0.05343,-0.01272 -0.104316,-0.01781 -0.04961,-0.0064 -0.11831,-0.0064 -0.110677,0 -0.213721,0.04961 -0.103044,0.04834 -0.198455,0.125943 v 1.008814 h -0.239164 v -1.42099 h 0.239164 V 74.0537 q 0.14248,-0.114493 0.250613,-0.161562 0.109405,-0.04834 0.222626,-0.04834 0.06234,0 0.09032,0.0038 0.02799,0.0025 0.08396,0.01145 z"
         id="text11"
         style="font-size:2.60536px;fill:#ffdcb9;stroke-width:0.05"
         aria-label="lower" />
      <path
         d="M 46.762154,75.264786 H 46.52299 v -0.157747 q -0.120854,0.09541 -0.231531,0.146297 -0.110677,0.05089 -0.244253,0.05089 -0.223898,0 -0.348568,-0.13612 -0.124671,-0.137392 -0.124671,-0.401998 V 73.8438 h 0.239164 v 0.809086 q 0,0.108133 0.01018,0.185734 0.01018,0.07633 0.04325,0.131031 0.03435,0.05598 0.08905,0.08142 0.0547,0.02544 0.159018,0.02544 0.09287,0 0.202272,-0.04834 0.110677,-0.04834 0.206088,-0.123398 v -1.060972 h 0.239164 z m 1.721217,-0.727669 q 0,0.173012 -0.04961,0.316765 -0.04961,0.14248 -0.139936,0.241708 -0.08396,0.09414 -0.198456,0.146297 -0.113221,0.05089 -0.240436,0.05089 -0.110677,0 -0.200999,-0.02417 -0.08905,-0.02417 -0.181917,-0.07506 v 0.595366 h -0.239164 v -1.945115 h 0.239164 v 0.148841 q 0.09541,-0.08015 0.213721,-0.133575 0.119582,-0.0547 0.254429,-0.0547 0.256974,0 0.399455,0.194639 0.143753,0.193367 0.143753,0.538119 z m -0.246797,0.0064 q 0,-0.256974 -0.08778,-0.384189 -0.08778,-0.127215 -0.269696,-0.127215 -0.103044,0 -0.20736,0.04453 -0.104316,0.04452 -0.199727,0.117038 v 0.80527 q 0.101772,0.0458 0.174284,0.06233 0.07379,0.01654 0.166651,0.01654 0.199728,0 0.311677,-0.134848 0.111949,-0.134848 0.111949,-0.399454 z m 1.870058,-0.0064 q 0,0.173012 -0.04961,0.316765 -0.04961,0.14248 -0.139936,0.241708 -0.08396,0.09414 -0.198455,0.146297 -0.113221,0.05089 -0.240436,0.05089 -0.110677,0 -0.201,-0.02417 -0.08905,-0.02417 -0.181917,-0.07506 v 0.595366 H 48.85611 v -1.945115 h 0.239164 v 0.148841 q 0.09541,-0.08015 0.213721,-0.133575 0.119582,-0.0547 0.25443,-0.0547 0.256974,0 0.399454,0.194639 0.143753,0.193367 0.143753,0.538119 z m -0.246797,0.0064 q 0,-0.256974 -0.08778,-0.384189 -0.08778,-0.127215 -0.269695,-0.127215 -0.103044,0 -0.20736,0.04453 -0.104317,0.04452 -0.199728,0.117038 v 0.80527 q 0.101772,0.0458 0.174285,0.06233 0.07378,0.01654 0.166651,0.01654 0.199727,0 0.311676,-0.134848 0.111949,-0.134848 0.111949,-0.399454 z m 1.808996,0.03562 h -1.046979 q 0,0.131031 0.03944,0.228986 0.03944,0.09668 0.108133,0.159019 0.06615,0.06106 0.156474,0.0916 0.09159,0.03053 0.200999,0.03053 0.145025,0 0.291322,-0.05725 0.14757,-0.05852 0.209905,-0.114494 h 0.01272 v 0.260791 q -0.120854,0.05089 -0.246797,0.08523 -0.125942,0.03435 -0.264606,0.03435 -0.353658,0 -0.552113,-0.190823 -0.198455,-0.192094 -0.198455,-0.544479 0,-0.348569 0.18955,-0.553385 0.190822,-0.204816 0.501227,-0.204816 0.287505,0 0.442707,0.167924 0.156475,0.167924 0.156475,0.477056 z m -0.232804,-0.18319 q -0.0013,-0.188278 -0.09541,-0.291322 -0.09287,-0.103044 -0.283689,-0.103044 -0.192094,0 -0.306588,0.113222 -0.113221,0.113221 -0.128487,0.281144 z m 1.482053,-0.291322 h -0.01272 q -0.05343,-0.01272 -0.104316,-0.01781 -0.04961,-0.0064 -0.11831,-0.0064 -0.110677,0 -0.213721,0.04961 -0.103044,0.04834 -0.198455,0.125943 v 1.008814 h -0.239164 v -1.42099 h 0.239164 V 74.0537 q 0.14248,-0.114493 0.250613,-0.161562 0.109405,-0.04834 0.222626,-0.04834 0.06233,0 0.09032,0.0038 0.02799,0.0025 0.08396,0.01145 z"
         id="text12"
         style="font-size:2.60536px;fill:#ffdcb9;stroke-width:0.05"
         aria-label="upper" />
      <path
         d="m 51.284068,67.576782 h -0.251885 v -1.632166 l -0.52667,1.110585 H 50.3554 l -0.522853,-1.110585 v 1.632166 h -0.235348 v -1.894229 h 0.34348 l 0.505043,1.054611 0.488505,-1.054611 h 0.349841 z m 1.176738,0 h -0.748024 v -0.193366 h 0.248069 V 65.87592 h -0.248069 v -0.193367 h 0.748024 v 0.193367 h -0.248069 v 1.507496 h 0.248069 z m 1.873874,0 H 54.023004 L 53.124867,65.88228 v 1.694502 H 52.88952 v -1.894229 h 0.390549 l 0.819264,1.546933 v -1.546933 h 0.235347 z"
         id="text12-7"
         style="font-size:2.60536px;fill:#ffdcb9;stroke-width:0.05"
         aria-label="MIN" />
      <path
         d="m 20.269429,68.363895 q 0,0.510131 -0.16029,0.749295 -0.159019,0.237892 -0.494866,0.237892 -0.340936,0 -0.498682,-0.241708 -0.156475,-0.241708 -0.156475,-0.742935 0,-0.505043 0.159019,-0.745479 0.159018,-0.241708 0.496138,-0.241708 0.340936,0 0.49741,0.245525 0.157746,0.244252 0.157746,0.739118 z m -0.334575,0.577555 q 0.04453,-0.103044 0.05979,-0.241708 0.01654,-0.139936 0.01654,-0.335847 0,-0.193367 -0.01654,-0.335847 -0.01527,-0.142481 -0.06106,-0.241708 -0.04453,-0.09796 -0.122126,-0.14757 -0.07633,-0.04961 -0.197183,-0.04961 -0.119582,0 -0.198455,0.04961 -0.0776,0.04961 -0.123399,0.150114 -0.04325,0.09414 -0.05979,0.245524 -0.01527,0.151386 -0.01527,0.332031 0,0.198455 0.01399,0.332031 0.01399,0.133576 0.05979,0.239164 0.04198,0.09923 0.11831,0.151386 0.0776,0.05216 0.204816,0.05216 0.119582,0 0.198455,-0.04961 0.07887,-0.04961 0.122126,-0.150114 z"
         id="text13"
         style="font-size:2.60536px;fill:#ffdcb9;stroke-width:0.05"
         aria-label="0" />
      <path
         style="fill:#abdfdb;stroke:#ffffff;stroke-width:0.3175;stroke-miterlimit:3.95;stroke-dasharray:none;stroke-opacity:1"
         d="m 22.426364,68.365169 h -0.69396"
         id="path14" />
      <path
         style="fill:none;fill-opacity:1;stroke:#2dbecd;stroke-width:0.3175;stroke-miterlimit:3.95;stroke-dasharray:none;stroke-opacity:1"
         d="m 23.984964,68.307649 h 5.82084 l 19.34765,-19.28154 h 5.92016"
         id="path15"
         sodipodi:nodetypes="cccc" />
      <path
         style="fill:none;fill-opacity:1;stroke:#96d7d2;stroke-width:0.3175;stroke-miterlimit:3.95;stroke-dasharray:none;stroke-opacity:1"
         d="m 23.984964,49.026109 h 5.82084 l 19.34765,19.28154 h 5.77984"
         id="path16"
         sodipodi:nodetypes="cccc" />
      <path
         d="m 51.284068,51.627472 h -0.251885 v -1.632167 l -0.52667,1.110586 H 50.3554 l -0.522853,-1.110586 v 1.632167 h -0.235348 v -1.894229 h 0.34348 l 0.505043,1.054611 0.488505,-1.054611 h 0.349841 z m 2.002362,0 H 53.018007 L 52.832273,51.09953 h -0.819264 l -0.185733,0.527942 h -0.255702 l 0.689504,-1.894229 h 0.335847 z m -0.531758,-0.744207 -0.332031,-0.92994 -0.333303,0.92994 z m 2.264424,-1.150022 -0.653884,0.936301 0.652612,0.957928 h -0.291322 l -0.516492,-0.779827 -0.529214,0.779827 h -0.274784 l 0.660245,-0.946479 -0.644979,-0.94775 h 0.290049 l 0.510132,0.76965 0.521581,-0.76965 z"
         id="text16"
         style="font-size:2.60536px;fill:#ffdcb9;stroke-width:0.05"
         aria-label="MAX" />
      <path
         d="m 35.427403,46.435371 h -1.198364 v -1.894229 h 0.251885 v 1.670331 h 0.946479 z m 0.919763,0 h -0.748023 v -0.193366 h 0.248069 v -1.507496 h -0.248069 v -0.193367 h 0.748023 v 0.193367 h -0.248069 v 1.507496 h 0.248069 z m 1.873875,0 H 37.909364 L 37.011228,44.74087 v 1.694501 H 36.77588 v -1.894229 h 0.39055 l 0.819263,1.546933 v -1.546933 h 0.235348 z m 1.751748,0 h -1.247978 v -1.894229 h 1.247978 v 0.223898 h -0.996092 v 0.519037 h 0.996092 v 0.223898 h -0.996092 v 0.703498 h 0.996092 z m 1.892957,0 H 41.597323 L 41.411589,45.90743 h -0.819264 l -0.185733,0.527941 H 40.15089 l 0.689504,-1.894229 h 0.335848 z m -0.531758,-0.744206 -0.332031,-0.929941 -0.333303,0.929941 z m 2.38655,0.744206 h -0.326942 l -0.63353,-0.753111 h -0.354929 v 0.753111 h -0.251885 v -1.894229 h 0.530485 q 0.17174,0 0.286234,0.0229 0.114493,0.02163 0.206088,0.07887 0.103044,0.06488 0.160291,0.164107 0.05852,0.09796 0.05852,0.249341 0,0.204816 -0.103044,0.343481 -0.103044,0.137392 -0.283689,0.20736 z m -0.589004,-1.361198 q 0,-0.08142 -0.02926,-0.143753 -0.02799,-0.06361 -0.09414,-0.106861 -0.0547,-0.03689 -0.129759,-0.05089 -0.07506,-0.01526 -0.176828,-0.01526 h -0.296411 v 0.714947 h 0.25443 q 0.119582,0 0.208632,-0.02035 0.08905,-0.02163 0.151386,-0.07887 0.05725,-0.05343 0.08396,-0.122126 0.02799,-0.06997 0.02799,-0.176828 z"
         id="text16-5"
         style="font-size:2.60536px;fill:#ffdcb9;stroke-width:0.05"
         aria-label="LINEAR" />
      <path
         d="M 62.365786,49.732483 H 61.340434 V 49.539116 H 61.7348 V 48.269512 H 61.340434 V 48.0965 q 0.08014,0 0.17174,-0.01272 0.0916,-0.01399 0.138664,-0.03944 0.05852,-0.0318 0.0916,-0.08015 0.03435,-0.04961 0.03944,-0.132304 h 0.197183 v 1.707223 h 0.386733 z"
         id="path3"
         style="font-size:2.60536px;fill:#ffdcb9;stroke-width:0.05"
         aria-label="1" />
      <path
         d="m 62.365783,68.363895 q 0,0.510131 -0.16029,0.749295 -0.159019,0.237892 -0.494866,0.237892 -0.340936,0 -0.498682,-0.241708 -0.156475,-0.241708 -0.156475,-0.742935 0,-0.505043 0.159019,-0.745479 0.159018,-0.241708 0.496138,-0.241708 0.340936,0 0.49741,0.245525 0.157746,0.244252 0.157746,0.739118 z m -0.334575,0.577555 q 0.04453,-0.103044 0.05979,-0.241708 0.01654,-0.139936 0.01654,-0.335847 0,-0.193367 -0.01654,-0.335847 -0.01527,-0.142481 -0.06106,-0.241708 -0.04453,-0.09796 -0.122126,-0.14757 -0.07633,-0.04961 -0.197183,-0.04961 -0.119582,0 -0.198455,0.04961 -0.0776,0.04961 -0.123399,0.150114 -0.04325,0.09414 -0.05979,0.245524 -0.01527,0.151386 -0.01527,0.332031 0,0.198455 0.01399,0.332031 0.01399,0.133576 0.05979,0.239164 0.04198,0.09923 0.11831,0.151386 0.0776,0.05216 0.204816,0.05216 0.119582,0 0.198455,-0.04961 0.07887,-0.04961 0.122126,-0.150114 z"
         id="path4"
         style="font-size:2.60536px;fill:#ffdcb9;stroke-width:0.05"
         aria-label="0" />
      <path
         d="m 105.62426,49.732483 h -1.02535 v -0.193367 h 0.39436 v -1.269604 h -0.39436 V 48.0965 q 0.0801,0 0.17174,-0.01272 0.0916,-0.01399 0.13866,-0.03944 0.0585,-0.0318 0.0916,-0.08015 0.0343,-0.04961 0.0394,-0.132304 h 0.19718 v 1.707223 h 0.38674 z"
         id="path5"
         style="font-size:2.60536px;fill:#ffdcb9;stroke-width:0.05"
         aria-label="1" />
      <path
         d="m 105.62425,68.363895 q 0,0.510131 -0.16029,0.749295 -0.15901,0.237892 -0.49486,0.237892 -0.34094,0 -0.49868,-0.241708 -0.15648,-0.241708 -0.15648,-0.742935 0,-0.505043 0.15902,-0.745479 0.15902,-0.241708 0.49614,-0.241708 0.34093,0 0.49741,0.245525 0.15774,0.244252 0.15774,0.739118 z m -0.33457,0.577555 q 0.0445,-0.103044 0.0598,-0.241708 0.0165,-0.139936 0.0165,-0.335847 0,-0.193367 -0.0165,-0.335847 -0.0153,-0.142481 -0.0611,-0.241708 -0.0445,-0.09796 -0.12213,-0.14757 -0.0763,-0.04961 -0.19718,-0.04961 -0.11958,0 -0.19845,0.04961 -0.0776,0.04961 -0.1234,0.150114 -0.0433,0.09414 -0.0598,0.245524 -0.0153,0.151386 -0.0153,0.332031 0,0.198455 0.014,0.332031 0.014,0.133576 0.0598,0.239164 0.042,0.09923 0.11831,0.151386 0.0776,0.05216 0.20481,0.05216 0.11958,0 0.19846,-0.04961 0.0789,-0.04961 0.12212,-0.150114 z"
         id="path10"
         style="font-size:2.60536px;fill:#ffdcb9;stroke-width:0.05"
         aria-label="0" />
    </g>
    <path
       style="fill:#abdfdb;stroke:#ffffff;stroke-width:0.414287;stroke-miterlimit:3.95;stroke-dasharray:none;stroke-opacity:1;marker-end:url(#ConcaveTriangle)"
       d="M 78.375639,80.102921 V 47.333702"
       id="path17" />
    <path
       style="fill:#abdfdb;stroke:#ffffff;stroke-width:0.414287;stroke-miterlimit:3.95;stroke-dasharray:none;stroke-opacity:1;marker-end:url(#ConcaveTriangle)"
       d="M 78.200008,79.993367 H 121.29708"
       id="path18"
       sodipodi:nodetypes="cc" />
    <path
       style="fill:#abdfdb;stroke:#ffffff;stroke-width:0.414287;stroke-miterlimit:3.95;stroke-dasharray:none;stroke-opacity:1"
       d="m 85.673765,79.432729 v 1.121276"
       id="path19"
       sodipodi:nodetypes="cc" />
    <path
       style="fill:#abdfdb;stroke:#ffffff;stroke-width:0.414287;stroke-miterlimit:3.95;stroke-dasharray:none;stroke-opacity:1"
       d="m 115.71856,79.432729 v 1.121276"
       id="path20"
       sodipodi:nodetypes="cc" />
    <path
       style="fill:#abdfdb;stroke:#ffffff;stroke-width:0.414287;stroke-miterlimit:3.95;stroke-dasharray:none;stroke-opacity:1"
       d="M 78.828393,50.581595 H 77.922886"
       id="path21" />
    <path
       d="m 82.176278,85.137177 h -0.312071 v -2.582885 h 0.312071 z m 2.197775,-0.926253 q 0,0.453166 -0.232392,0.715439 -0.232394,0.262271 -0.622483,0.262271 -0.393408,0 -0.625802,-0.262271 -0.230733,-0.262273 -0.230733,-0.715439 0,-0.453168 0.230733,-0.71544 0.232394,-0.263932 0.625802,-0.263932 0.390089,0 0.622483,0.263932 0.232392,0.262272 0.232392,0.71544 z m -0.322031,0 q 0,-0.36021 -0.141095,-0.534505 -0.141097,-0.175955 -0.391749,-0.175955 -0.253973,0 -0.395068,0.175955 -0.139436,0.174295 -0.139436,0.534505 0,0.348589 0.141096,0.529524 0.141095,0.179274 0.393408,0.179274 0.248993,0 0.390089,-0.177615 0.142755,-0.179274 0.142755,-0.531183 z m 3.137309,-0.927913 -0.483046,1.854166 h -0.288832 l -0.476406,-1.429219 -0.473086,1.429219 h -0.287172 l -0.488025,-1.854166 h 0.32535 l 0.34029,1.435857 0.463127,-1.435857 h 0.257293 l 0.474745,1.435857 0.322031,-1.435857 z m 2.001902,0.959452 h -1.36614 q 0,0.170975 0.05146,0.29879 0.05146,0.126152 0.141096,0.207495 0.08631,0.07967 0.204174,0.119523 0.11951,0.03984 0.262273,0.03984 0.189234,0 0.380129,-0.0747 0.192554,-0.07636 0.273891,-0.149397 h 0.0166 V 85.0243 q -0.157696,0.0664 -0.322031,0.111212 -0.164336,0.04482 -0.34527,0.04482 -0.461467,0 -0.720419,-0.248994 -0.258953,-0.250652 -0.258953,-0.710458 0,-0.454827 0.247332,-0.72208 0.248994,-0.267252 0.654022,-0.267252 0.375149,0 0.577663,0.219114 0.204174,0.219114 0.204174,0.622482 z m -0.303771,-0.239034 q -0.0017,-0.245673 -0.124495,-0.380129 -0.121181,-0.134456 -0.370171,-0.134456 -0.250652,0 -0.400047,0.147737 -0.147735,0.147735 -0.167655,0.366848 z M 90.821305,83.6233 h -0.0166 q -0.06972,-0.0166 -0.136117,-0.02324 -0.06473,-0.0084 -0.154375,-0.0084 -0.144416,0 -0.278872,0.06473 -0.134456,0.06308 -0.258952,0.164336 v 1.316342 h -0.312071 v -1.854167 h 0.312071 v 0.273948 q 0.185914,-0.149395 0.32701,-0.210813 0.142756,-0.06308 0.290492,-0.06308 0.08134,0 0.117853,0.005 0.03652,0.0033 0.109554,0.01494 z"
       id="text22"
       style="font-size:2.60536px;fill:#ffdcb9;stroke-width:0.0652421;stroke-miterlimit:3.95"
       aria-label="lower" />
    <path
       d="m 112.90188,85.137177 h -0.31207 v -0.205835 q -0.15769,0.124495 -0.30211,0.190894 -0.14441,0.0664 -0.31871,0.0664 -0.29215,0 -0.45483,-0.177615 -0.16267,-0.179275 -0.16267,-0.524544 v -1.203465 h 0.31207 v 1.055728 q 0,0.141097 0.0133,0.242354 0.0133,0.0996 0.0564,0.170974 0.0448,0.07305 0.11619,0.106241 0.0714,0.0332 0.2075,0.0332 0.12118,0 0.26393,-0.06308 0.14442,-0.06308 0.26891,-0.161015 v -1.3844 h 0.31207 z m 2.24592,-0.949493 q 0,0.225754 -0.0647,0.413328 -0.0647,0.185914 -0.1826,0.315391 -0.10955,0.122838 -0.25895,0.190894 -0.14774,0.0664 -0.31373,0.0664 -0.14442,0 -0.26227,-0.03154 -0.1162,-0.03154 -0.23738,-0.09794 v 0.776858 h -0.31207 v -2.538066 h 0.31207 v 0.194214 q 0.1245,-0.104583 0.27887,-0.174294 0.15604,-0.07137 0.33199,-0.07137 0.33531,0 0.52123,0.253973 0.18757,0.252313 0.18757,0.70216 z m -0.32203,0.0084 q 0,-0.33531 -0.11454,-0.501305 -0.11454,-0.165996 -0.35191,-0.165996 -0.13446,0 -0.27057,0.0581 -0.13612,0.05809 -0.26062,0.152716 v 1.050749 q 0.1328,0.05976 0.22742,0.08133 0.0963,0.02158 0.21745,0.02158 0.26062,0 0.40669,-0.175955 0.14608,-0.175955 0.14608,-0.521224 z m 2.44013,-0.0084 q 0,0.225754 -0.0647,0.413328 -0.0647,0.185914 -0.18259,0.315391 -0.10956,0.122838 -0.25895,0.190894 -0.14774,0.0664 -0.31373,0.0664 -0.14442,0 -0.26228,-0.03154 -0.11619,-0.03154 -0.23737,-0.09794 v 0.776858 h -0.31207 v -2.538066 h 0.31207 v 0.194214 q 0.1245,-0.104583 0.27887,-0.174294 0.15604,-0.07137 0.33199,-0.07137 0.33531,0 0.52123,0.253973 0.18757,0.252313 0.18757,0.70216 z m -0.32203,0.0084 q 0,-0.33531 -0.11454,-0.501305 -0.11454,-0.165996 -0.35191,-0.165996 -0.13446,0 -0.27058,0.0581 -0.13611,0.05809 -0.26061,0.152716 v 1.050749 q 0.1328,0.05976 0.22742,0.08133 0.0963,0.02158 0.21745,0.02158 0.26061,0 0.40669,-0.175955 0.14607,-0.175955 0.14607,-0.521224 z m 2.36045,0.04648 h -1.36614 q 0,0.170974 0.0515,0.29879 0.0515,0.126152 0.14109,0.207495 0.0863,0.07967 0.20418,0.119523 0.11951,0.03984 0.26227,0.03984 0.18924,0 0.38013,-0.0747 0.19255,-0.07636 0.27389,-0.149397 h 0.0166 v 0.340291 q -0.15769,0.0664 -0.32203,0.111212 -0.16433,0.04482 -0.34527,0.04482 -0.46147,0 -0.72042,-0.248994 -0.25895,-0.250652 -0.25895,-0.710458 0,-0.454827 0.24733,-0.72208 0.24899,-0.267252 0.65402,-0.267252 0.37515,0 0.57767,0.219114 0.20417,0.219114 0.20417,0.622482 z m -0.30377,-0.239034 q -0.002,-0.245673 -0.1245,-0.380129 -0.12118,-0.134456 -0.37017,-0.134456 -0.25065,0 -0.40005,0.147737 -0.14773,0.147735 -0.16765,0.366848 z m 1.93384,-0.380129 h -0.0166 q -0.0697,-0.0166 -0.13612,-0.02324 -0.0647,-0.0084 -0.15437,-0.0084 -0.14442,0 -0.27887,0.06473 -0.13446,0.06308 -0.25895,0.164336 v 1.316342 h -0.31208 v -1.854167 h 0.31208 v 0.273897 q 0.18591,-0.149395 0.32701,-0.210813 0.14275,-0.06308 0.29049,-0.06308 0.0813,0 0.11785,0.005 0.0365,0.0033 0.10956,0.01494 z"
       id="text23"
       style="font-size:2.60536px;fill:#ffdcb9;stroke-width:0.0652421;stroke-miterlimit:3.95"
       aria-label="upper" />
    <path
       style="fill:#abdfdb;stroke:#ffffff;stroke-width:0.414287;stroke-miterlimit:3.95;stroke-dasharray:none;stroke-opacity:1"
       d="M 78.828393,76.134273 H 77.922886"
       id="path25" />
    <path
       style="fill:none;fill-opacity:1;stroke:#96d7d2;stroke-width:0.414287;stroke-miterlimit:3.95;stroke-dasharray:none;stroke-opacity:1"
       d="m 121.24477,76.059218 h -5.34468 L 100.63128,50.899872 85.695468,76.059218 h -5.614935"
       id="path27"
       sodipodi:nodetypes="cccc" />
    <path
       d="m 92.08594,45.339854 h -0.883094 v 2.179517 h -0.32867 v -2.179517 h -0.883094 v -0.292151 h 2.094858 z m 2.377052,2.179517 h -0.426608 l -0.826656,-0.98269 h -0.463127 v 0.98269 h -0.32867 v -2.471668 h 0.6922 q 0.224093,0 0.373489,0.02988 0.149396,0.02822 0.268912,0.102913 0.134456,0.08466 0.209154,0.214133 0.07636,0.127822 0.07636,0.325351 0,0.267252 -0.134456,0.448188 -0.134456,0.179274 -0.370169,0.270572 z m -0.768558,-1.776147 q 0,-0.10624 -0.03818,-0.187575 -0.03652,-0.083 -0.122838,-0.139437 -0.07138,-0.04814 -0.169316,-0.0664 -0.09794,-0.01991 -0.230732,-0.01991 h -0.38677 v 0.932892 h 0.331991 q 0.156036,0 0.272232,-0.02655 0.116196,-0.02822 0.197534,-0.102913 0.0747,-0.06972 0.109555,-0.159355 0.03652,-0.0913 0.03652,-0.230733 z m 1.958742,1.776147 h -0.976051 v -0.252312 h 0.323691 v -1.967043 h -0.323691 v -0.252313 h 0.976051 v 0.252313 h -0.32369 v 1.967043 h 0.32369 z m 2.508188,0 h -0.350251 l -0.242352,-0.688879 h -1.069009 l -0.242353,0.688879 h -0.333651 l 0.899695,-2.471668 H 97.26167 Z M 97.467503,46.5483 97.034257,45.334875 96.599349,46.5483 Z m 2.954717,0.971071 h -0.40669 l -1.171927,-2.211055 v 2.211055 h -0.307091 v -2.471668 h 0.509606 l 1.069012,2.018502 v -2.018502 h 0.30709 z m 2.719,-0.182594 q -0.20252,0.09296 -0.44321,0.162675 -0.23903,0.06806 -0.46313,0.06806 -0.28883,0 -0.52952,-0.07967 -0.24069,-0.07967 -0.41001,-0.239033 -0.17097,-0.161015 -0.26393,-0.401709 -0.093,-0.242352 -0.093,-0.566043 0,-0.592602 0.34527,-0.934553 0.34693,-0.34361 0.95115,-0.34361 0.21082,0 0.42993,0.05146 0.22078,0.04979 0.47475,0.170974 v 0.390089 h -0.0299 q -0.0515,-0.03984 -0.1494,-0.104583 -0.0979,-0.06473 -0.19255,-0.107897 -0.11454,-0.05146 -0.26062,-0.08466 -0.14441,-0.03487 -0.32867,-0.03487 -0.41499,0 -0.65734,0.267253 -0.24069,0.265592 -0.24069,0.720419 0,0.479727 0.25231,0.746979 0.25231,0.265591 0.68722,0.265591 0.15936,0 0.31705,-0.03154 0.15936,-0.03154 0.27888,-0.08134 v -0.605882 h -0.66233 V 46.27606 h 0.98768 z m 2.43515,-0.810056 q 0,0.268912 -0.0598,0.469766 -0.0581,0.199193 -0.19256,0.331989 -0.12781,0.126153 -0.29879,0.184256 -0.17097,0.0581 -0.39839,0.0581 -0.23239,0 -0.40503,-0.06142 -0.17263,-0.06142 -0.29049,-0.180936 -0.13445,-0.136116 -0.19421,-0.32867 -0.0581,-0.192554 -0.0581,-0.473086 v -1.479018 h 0.32867 v 1.495617 q 0,0.200854 0.0266,0.31705 0.0282,0.116196 0.093,0.210814 0.073,0.107898 0.19753,0.162676 0.12615,0.05478 0.30211,0.05478 0.17762,0 0.30211,-0.05312 0.1245,-0.05478 0.1992,-0.164335 0.0647,-0.09461 0.0913,-0.215794 0.0282,-0.122837 0.0282,-0.303771 v -1.503916 h 0.32867 z m 2.19113,0.99265 h -1.56367 v -2.471668 h 0.32867 v 2.179517 h 1.235 z m 2.27746,0 h -0.35025 l -0.24236,-0.688879 h -1.069 l -0.24236,0.688879 h -0.33365 l 0.8997,-2.471668 h 0.43822 z M 109.3511,46.5483 108.91785,45.334875 108.48294,46.5483 Z m 3.11407,0.971071 h -0.42661 l -0.82666,-0.98269 h -0.46312 v 0.98269 h -0.32867 v -2.471668 h 0.6922 q 0.22409,0 0.37348,0.02988 0.1494,0.02822 0.26892,0.102913 0.13445,0.08466 0.20915,0.214133 0.0764,0.127822 0.0764,0.325351 0,0.267252 -0.13446,0.448188 -0.13445,0.179274 -0.37016,0.270572 z m -0.76856,-1.776147 q 0,-0.10624 -0.0382,-0.187575 -0.0365,-0.083 -0.12284,-0.139437 -0.0714,-0.04814 -0.16931,-0.0664 -0.0979,-0.01991 -0.23074,-0.01991 h -0.38677 v 0.932892 h 0.33199 q 0.15604,0 0.27224,-0.02655 0.11619,-0.02822 0.19753,-0.102913 0.0747,-0.06972 0.10955,-0.159355 0.0365,-0.0913 0.0365,-0.230733 z"
       id="text28"
       style="font-size:2.60536px;fill:#ffdcb9;stroke-width:0.0652421;stroke-miterlimit:3.95"
       aria-label="TRIANGULAR" />
    <path
       style="fill:#abdfdb;stroke:#ffffff;stroke-width:0.414287;stroke-miterlimit:3.95;stroke-dasharray:none;stroke-opacity:1;marker-end:url(#ConcaveTriangle)"
       d="M 134.76309,80.102921 V 47.333702"
       id="path28" />
    <path
       style="fill:#abdfdb;stroke:#ffffff;stroke-width:0.413635;stroke-miterlimit:3.95;stroke-dasharray:0.413635, 0.413635;stroke-dashoffset:0;stroke-opacity:1"
       d="M 149.96553,79.929735 V 62.048957"
       id="path28-3"
       sodipodi:nodetypes="cc" />
    <path
       style="fill:#abdfdb;stroke:#ffffff;stroke-width:0.414287;stroke-miterlimit:3.95;stroke-dasharray:none;stroke-opacity:1;marker-end:url(#ConcaveTriangle)"
       d="m 134.58746,79.993367 h 43.09707"
       id="path29"
       sodipodi:nodetypes="cc" />
    <path
       style="fill:#abdfdb;stroke:#ffffff;stroke-width:0.175038;stroke-miterlimit:3.95;stroke-dasharray:none;stroke-opacity:1;marker-start:url(#marker41);marker-end:url(#ConcaveTriangle-7)"
       d="m 150.99085,67.328421 h 10.81606"
       id="path29-5"
       sodipodi:nodetypes="cc" />
    <path
       style="fill:#abdfdb;stroke:#ffffff;stroke-width:0.414287;stroke-miterlimit:3.95;stroke-dasharray:none;stroke-opacity:1"
       d="m 149.95857,79.432729 v 1.121276"
       id="path30" />
    <path
       style="fill:#abdfdb;stroke:#ffffff;stroke-width:0.414287;stroke-miterlimit:3.95;stroke-dasharray:none;stroke-opacity:1"
       d="m 163.09045,79.432729 v 1.121276"
       id="path31" />
    <path
       style="fill:#abdfdb;stroke:#ffffff;stroke-width:0.414287;stroke-miterlimit:3.95;stroke-dasharray:none;stroke-opacity:1"
       d="m 135.21584,50.581595 h -0.9055"
       id="path32" />
    <path
       d="m 146.24527,85.137177 h -0.31206 v -2.582885 h 0.31206 z m 2.19779,-0.926253 q 0,0.453166 -0.23239,0.715439 -0.2324,0.262271 -0.62249,0.262271 -0.39341,0 -0.6258,-0.262271 -0.23074,-0.262273 -0.23074,-0.715439 0,-0.453168 0.23074,-0.71544 0.23239,-0.263932 0.6258,-0.263932 0.39009,0 0.62249,0.263932 0.23239,0.262272 0.23239,0.71544 z m -0.32204,0 q 0,-0.36021 -0.14109,-0.534505 -0.14109,-0.175955 -0.39175,-0.175955 -0.25398,0 -0.39507,0.175955 -0.13943,0.174295 -0.13943,0.534505 0,0.348589 0.14109,0.529524 0.14109,0.179274 0.39341,0.179274 0.24899,0 0.39009,-0.177615 0.14275,-0.179274 0.14275,-0.531183 z m 3.13731,-0.927913 -0.48304,1.854166 h -0.28884 l -0.4764,-1.429219 -0.47309,1.429219 h -0.28717 l -0.48803,-1.854166 h 0.32535 l 0.34029,1.435857 0.46313,-1.435857 h 0.25729 l 0.47475,1.435857 0.32202,-1.435857 z m 2.0019,0.959452 h -1.36614 q 0,0.170975 0.0514,0.29879 0.0514,0.126152 0.14109,0.207495 0.0864,0.07967 0.20418,0.119523 0.11953,0.03984 0.26228,0.03984 0.18922,0 0.38012,-0.0747 0.19256,-0.07636 0.27389,-0.149397 h 0.0166 V 85.0243 q -0.15769,0.0664 -0.32202,0.111212 -0.16433,0.04482 -0.34528,0.04482 -0.46147,0 -0.72041,-0.248994 -0.25896,-0.250652 -0.25896,-0.710458 0,-0.454827 0.24733,-0.72208 0.24901,-0.267252 0.65403,-0.267252 0.37515,0 0.57766,0.219114 0.20417,0.219114 0.20417,0.622482 z m -0.30377,-0.239034 q -0.001,-0.245673 -0.12448,-0.380129 -0.12122,-0.134456 -0.37017,-0.134456 -0.25066,0 -0.40005,0.147737 -0.14773,0.147735 -0.16766,0.366848 z M 154.8903,83.6233 h -0.0166 q -0.0697,-0.0166 -0.13612,-0.02324 -0.0647,-0.0084 -0.15437,-0.0084 -0.14441,0 -0.27888,0.06473 -0.13445,0.06308 -0.25894,0.164336 v 1.316342 h -0.31208 v -1.854167 h 0.31208 v 0.273948 q 0.18591,-0.149395 0.32701,-0.210813 0.14276,-0.06308 0.29049,-0.06308 0.0813,0 0.11783,0.005 0.0365,0.0033 0.10961,0.01494 z"
       id="text33"
       style="font-size:2.60536px;fill:#ffdcb9;stroke-width:0.0652421;stroke-miterlimit:3.95"
       aria-label="lower" />
    <path
       d="m 160.32431,85.137177 h -0.31206 v -0.205835 q -0.1577,0.124495 -0.30211,0.190894 -0.14442,0.0664 -0.31872,0.0664 -0.29216,0 -0.45483,-0.177615 -0.16267,-0.179275 -0.16267,-0.524544 v -1.203465 h 0.31207 v 1.055728 q 0,0.141097 0.0133,0.242354 0.0133,0.0996 0.0565,0.170974 0.0449,0.07305 0.11626,0.106241 0.0714,0.0332 0.2075,0.0332 0.12122,0 0.26393,-0.06308 0.14442,-0.06308 0.26892,-0.161015 v -1.3844 h 0.31206 z m 2.24592,-0.949493 q 0,0.225754 -0.0647,0.413328 -0.0647,0.185914 -0.18258,0.315391 -0.10961,0.122838 -0.25896,0.190894 -0.14774,0.0664 -0.31373,0.0664 -0.14442,0 -0.26227,-0.03154 -0.11626,-0.03154 -0.23738,-0.09794 v 0.776858 h -0.31206 v -2.538066 h 0.31206 v 0.194214 q 0.12449,-0.104583 0.27888,-0.174294 0.15603,-0.07137 0.33199,-0.07137 0.3353,0 0.52122,0.253973 0.18758,0.252313 0.18758,0.70216 z m -0.32203,0.0084 q 0,-0.33531 -0.11457,-0.501305 -0.11456,-0.165996 -0.3519,-0.165996 -0.13446,0 -0.27057,0.0581 -0.13612,0.05809 -0.26062,0.152716 v 1.050749 q 0.1328,0.05976 0.22741,0.08133 0.0963,0.02158 0.21745,0.02158 0.26062,0 0.4067,-0.175955 0.14607,-0.175955 0.14607,-0.521224 z m 2.44013,-0.0084 q 0,0.225754 -0.0647,0.413328 -0.0647,0.185914 -0.18259,0.315391 -0.1096,0.122838 -0.25896,0.190894 -0.14773,0.0664 -0.31372,0.0664 -0.14442,0 -0.26227,-0.03154 -0.11613,-0.03154 -0.23738,-0.09794 v 0.776858 h -0.31206 v -2.538066 h 0.31206 v 0.194214 q 0.12448,-0.104583 0.27887,-0.174294 0.15603,-0.07137 0.33199,-0.07137 0.33532,0 0.52123,0.253973 0.18758,0.252313 0.18758,0.70216 z m -0.32204,0.0084 q 0,-0.33531 -0.11456,-0.501305 -0.11457,-0.165996 -0.3519,-0.165996 -0.13447,0 -0.27057,0.0581 -0.13613,0.05809 -0.26062,0.152716 v 1.050749 q 0.13279,0.05976 0.22741,0.08133 0.0963,0.02158 0.21746,0.02158 0.2606,0 0.40668,-0.175955 0.14608,-0.175955 0.14608,-0.521224 z m 2.36046,0.04648 h -1.36614 q 0,0.170974 0.0514,0.29879 0.0514,0.126152 0.14109,0.207495 0.0863,0.07967 0.20417,0.119523 0.11952,0.03984 0.26227,0.03984 0.18925,0 0.38013,-0.0747 0.19256,-0.07636 0.2739,-0.149397 h 0.0166 v 0.340291 q -0.15769,0.0664 -0.32203,0.111212 -0.16434,0.04482 -0.34526,0.04482 -0.46147,0 -0.72043,-0.248994 -0.25895,-0.250652 -0.25895,-0.710458 0,-0.454827 0.24733,-0.72208 0.24899,-0.267252 0.65402,-0.267252 0.37515,0 0.57766,0.219114 0.20418,0.219114 0.20418,0.622482 z m -0.30378,-0.239034 q -0.001,-0.245673 -0.12448,-0.380129 -0.12122,-0.134456 -0.37017,-0.134456 -0.25065,0 -0.40004,0.147737 -0.14775,0.147735 -0.16766,0.366848 z m 1.93385,-0.380129 h -0.0166 q -0.0697,-0.0166 -0.13612,-0.02324 -0.0647,-0.0084 -0.15437,-0.0084 -0.14442,0 -0.27887,0.06473 -0.13447,0.06308 -0.25896,0.164336 v 1.316342 h -0.31207 v -1.854167 h 0.31207 v 0.273897 q 0.18591,-0.149395 0.32702,-0.210813 0.14275,-0.06308 0.29048,-0.06308 0.0813,0 0.11783,0.005 0.0365,0.0033 0.1096,0.01494 z"
       id="text34"
       style="font-size:2.60536px;fill:#ffdcb9;stroke-width:0.0652421;stroke-miterlimit:3.95"
       aria-label="upper" />
    <path
       style="fill:#abdfdb;stroke:#ffffff;stroke-width:0.414287;stroke-miterlimit:3.95;stroke-dasharray:none;stroke-opacity:1"
       d="m 135.21584,76.134273 h -0.9055"
       id="path36" />
    <path
       d="m 155.53209,46.759113 q 0,0.184255 -0.0697,0.325352 -0.0697,0.141095 -0.18757,0.232392 -0.13944,0.109554 -0.30709,0.156035 -0.16599,0.04648 -0.42329,0.04648 h -0.87645 v -2.471668 h 0.73204 q 0.27057,0 0.40502,0.01993 0.13445,0.01993 0.25729,0.083 0.13612,0.07137 0.19754,0.184254 0.0615,0.111211 0.0615,0.267252 0,0.175955 -0.0896,0.300452 -0.0897,0.122837 -0.23904,0.197533 v 0.01328 q 0.25066,0.05146 0.39507,0.220773 0.14442,0.167655 0.14442,0.424947 z m -0.55276,-1.113827 q 0,-0.08964 -0.0299,-0.151056 -0.0299,-0.06142 -0.0963,-0.0996 -0.078,-0.04482 -0.18922,-0.05478 -0.11118,-0.01161 -0.27556,-0.01161 h -0.39175 v 0.71378 h 0.42495 q 0.15437,0 0.24567,-0.01494 0.0913,-0.0166 0.16932,-0.0664 0.078,-0.04979 0.1096,-0.127822 0.0333,-0.07967 0.0333,-0.187575 z m 0.21081,1.127108 q 0,-0.149397 -0.0449,-0.237374 -0.0448,-0.08797 -0.16268,-0.149396 -0.0797,-0.04149 -0.19421,-0.05312 -0.11287,-0.01328 -0.27556,-0.01328 h -0.51624 v 0.919613 h 0.43491 q 0.2158,0 0.35356,-0.02158 0.13778,-0.02324 0.22577,-0.083 0.0929,-0.06473 0.1361,-0.147736 0.0432,-0.083 0.0432,-0.214133 z m 2.43681,0.746977 h -1.62842 v -2.471668 h 1.62842 v 0.292151 h -1.29974 v 0.677261 h 1.29974 v 0.292151 h -1.29974 v 0.917954 h 1.29974 z m 2.0849,0 h -1.56367 v -2.471668 h 0.32866 v 2.179517 h 1.23501 z m 1.89234,0 h -1.56367 v -2.471668 h 0.32867 v 2.179517 h 1.235 z"
       id="text39"
       style="font-size:2.60536px;fill:#ffdcb9;stroke-width:0.0652421;stroke-miterlimit:3.95"
       aria-label="BELL" />
    <path
       style="fill:#abdfdb;stroke:#ffffff;stroke-width:0.413635;stroke-miterlimit:3.95;stroke-dasharray:0.413635, 0.413635;stroke-dashoffset:0;stroke-opacity:1"
       d="M 163.08463,79.929735 V 62.048957"
       id="path40"
       sodipodi:nodetypes="cc" />
    <path
       style="fill:none;fill-opacity:1;stroke:#96d7d2;stroke-width:0.414287;stroke-miterlimit:3.95;stroke-dasharray:none;stroke-opacity:1"
       d="m 177.63671,74.960674 c 0,0 -7.01695,-2.255881 -9.6168,-4.699329 -5.40839,-5.083057 -7.88582,-19.361473 -10.99669,-19.361473 -3.78683,0 -5.91766,11.869892 -10.35854,16.676141 -2.86346,3.099054 -10.19221,7.506721 -10.19221,7.506721"
       id="path39"
       sodipodi:nodetypes="casac" />
    <path
       d="m 155.95363,66.383575 h -1.67322 v -0.34693 q 0.17429,-0.149396 0.34859,-0.298792 0.17595,-0.149395 0.327,-0.29713 0.31872,-0.308752 0.43658,-0.489686 0.11782,-0.182596 0.11782,-0.393408 0,-0.192556 -0.12787,-0.300452 -0.12618,-0.109554 -0.35357,-0.109554 -0.15107,0 -0.32702,0.05312 -0.17595,0.05312 -0.34361,0.162674 h -0.0166 v -0.348589 q 0.11783,-0.0581 0.31372,-0.10624 0.19754,-0.04814 0.3818,-0.04814 0.38013,0 0.59592,0.184255 0.2158,0.182595 0.2158,0.496325 0,0.141097 -0.0365,0.263933 -0.0348,0.121181 -0.10452,0.230733 -0.0647,0.102912 -0.15272,0.202513 -0.0862,0.0996 -0.21081,0.220774 -0.17761,0.174296 -0.36685,0.33863 -0.18923,0.162676 -0.35357,0.302111 h 1.32962 z m 2.10814,-0.926253 q 0,0.466446 -0.23405,0.722079 -0.23239,0.255632 -0.61916,0.255632 -0.40005,0 -0.62913,-0.262272 -0.22906,-0.262272 -0.22906,-0.715439 0,-0.456487 0.23405,-0.717099 0.23405,-0.262273 0.62746,-0.262273 0.0913,0 0.17927,0.01825 0.0879,0.01825 0.13612,0.0332 h 0.79678 v 0.273892 h -0.47807 q 0.10295,0.121181 0.15936,0.282192 0.0565,0.161015 0.0565,0.371829 z m -0.32202,0 q 0,-0.35689 -0.13612,-0.534505 -0.13612,-0.177615 -0.39175,-0.177615 -0.26725,0 -0.40337,0.185915 -0.13612,0.185915 -0.13612,0.526205 0,0.34693 0.13778,0.527864 0.13943,0.180935 0.39839,0.180935 0.25232,0 0.39175,-0.177614 0.13944,-0.179275 0.13944,-0.531185 z"
       id="text34-4"
       style="font-size:2.60536px;fill:#ffdcb9;stroke-width:0.0652421;stroke-miterlimit:3.95"
       aria-label="2σ" />
  </g>
</svg>
