<?xml version="1.0" encoding="utf-8" standalone="no"?>
<!DOCTYPE svg PUBLIC "-//W3C//DTD SVG 1.1//EN"
  "http://www.w3.org/Graphics/SVG/1.1/DTD/svg11.dtd">
<svg xmlns:xlink="http://www.w3.org/1999/xlink" width="576pt" height="720pt" viewBox="0 0 576 720" xmlns="http://www.w3.org/2000/svg" version="1.1">
 <metadata>
  <rdf:RDF xmlns:dc="http://purl.org/dc/elements/1.1/" xmlns:cc="http://creativecommons.org/ns#" xmlns:rdf="http://www.w3.org/1999/02/22-rdf-syntax-ns#">
   <cc:Work>
    <dc:type rdf:resource="http://purl.org/dc/dcmitype/StillImage"/>
    <dc:date>2025-09-01T13:58:52.378999</dc:date>
    <dc:format>image/svg+xml</dc:format>
    <dc:creator>
     <cc:Agent>
      <dc:title>Matplotlib v3.10.5, https://matplotlib.org/</dc:title>
     </cc:Agent>
    </dc:creator>
   </cc:Work>
  </rdf:RDF>
 </metadata>
 <defs>
  <style type="text/css">*{stroke-linejoin: round; stroke-linecap: butt}</style>
 </defs>
 <g id="figure_1">
  <g id="patch_1">
   <path d="M 0 720 
L 576 720 
L 576 0 
L 0 0 
z
" style="fill: #ffffff"/>
  </g>
  <g id="axes_1">
   <g id="patch_2">
    <path d="M 72 338.4 
L 518.4 338.4 
L 518.4 86.4 
L 72 86.4 
z
" style="fill: #ffffff"/>
   </g>
   <g id="matplotlib.axis_1">
    <g id="xtick_1">
     <g id="line2d_1">
      <defs>
       <path id="m6e8fdf6765" d="M 0 0 
L 0 3.5 
" style="stroke: #000000; stroke-width: 0.8"/>
      </defs>
      <g>
       <use xlink:href="#m6e8fdf6765" x="92.290909" y="338.4" style="stroke: #000000; stroke-width: 0.8"/>
      </g>
     </g>
     <g id="text_1">
      <!-- 0 -->
      <g style="fill: #1f77b4" transform="translate(89.109659 352.998437) scale(0.1 -0.1)">
       <defs>
        <path id="DejaVuSans-30" d="M 2034 4250 
Q 1547 4250 1301 3770 
Q 1056 3291 1056 2328 
Q 1056 1369 1301 889 
Q 1547 409 2034 409 
Q 2525 409 2770 889 
Q 3016 1369 3016 2328 
Q 3016 3291 2770 3770 
Q 2525 4250 2034 4250 
z
M 2034 4750 
Q 2819 4750 3233 4129 
Q 3647 3509 3647 2328 
Q 3647 1150 3233 529 
Q 2819 -91 2034 -91 
Q 1250 -91 836 529 
Q 422 1150 422 2328 
Q 422 3509 836 4129 
Q 1250 4750 2034 4750 
z
" transform="scale(0.015625)"/>
       </defs>
       <use xlink:href="#DejaVuSans-30"/>
      </g>
     </g>
    </g>
    <g id="xtick_2">
     <g id="line2d_2">
      <g>
       <use xlink:href="#m6e8fdf6765" x="173.454545" y="338.4" style="stroke: #000000; stroke-width: 0.8"/>
      </g>
     </g>
     <g id="text_2">
      <!-- 2 -->
      <g style="fill: #1f77b4" transform="translate(170.273295 352.998437) scale(0.1 -0.1)">
       <defs>
        <path id="DejaVuSans-32" d="M 1228 531 
L 3431 531 
L 3431 0 
L 469 0 
L 469 531 
Q 828 903 1448 1529 
Q 2069 2156 2228 2338 
Q 2531 2678 2651 2914 
Q 2772 3150 2772 3378 
Q 2772 3750 2511 3984 
Q 2250 4219 1831 4219 
Q 1534 4219 1204 4116 
Q 875 4013 500 3803 
L 500 4441 
Q 881 4594 1212 4672 
Q 1544 4750 1819 4750 
Q 2544 4750 2975 4387 
Q 3406 4025 3406 3419 
Q 3406 3131 3298 2873 
Q 3191 2616 2906 2266 
Q 2828 2175 2409 1742 
Q 1991 1309 1228 531 
z
" transform="scale(0.015625)"/>
       </defs>
       <use xlink:href="#DejaVuSans-32"/>
      </g>
     </g>
    </g>
    <g id="xtick_3">
     <g id="line2d_3">
      <g>
       <use xlink:href="#m6e8fdf6765" x="254.618182" y="338.4" style="stroke: #000000; stroke-width: 0.8"/>
      </g>
     </g>
     <g id="text_3">
      <!-- 4 -->
      <g style="fill: #1f77b4" transform="translate(251.436932 352.998437) scale(0.1 -0.1)">
       <defs>
        <path id="DejaVuSans-34" d="M 2419 4116 
L 825 1625 
L 2419 1625 
L 2419 4116 
z
M 2253 4666 
L 3047 4666 
L 3047 1625 
L 3713 1625 
L 3713 1100 
L 3047 1100 
L 3047 0 
L 2419 0 
L 2419 1100 
L 313 1100 
L 313 1709 
L 2253 4666 
z
" transform="scale(0.015625)"/>
       </defs>
       <use xlink:href="#DejaVuSans-34"/>
      </g>
     </g>
    </g>
    <g id="xtick_4">
     <g id="line2d_4">
      <g>
       <use xlink:href="#m6e8fdf6765" x="335.781818" y="338.4" style="stroke: #000000; stroke-width: 0.8"/>
      </g>
     </g>
     <g id="text_4">
      <!-- 6 -->
      <g style="fill: #1f77b4" transform="translate(332.600568 352.998437) scale(0.1 -0.1)">
       <defs>
        <path id="DejaVuSans-36" d="M 2113 2584 
Q 1688 2584 1439 2293 
Q 1191 2003 1191 1497 
Q 1191 994 1439 701 
Q 1688 409 2113 409 
Q 2538 409 2786 701 
Q 3034 994 3034 1497 
Q 3034 2003 2786 2293 
Q 2538 2584 2113 2584 
z
M 3366 4563 
L 3366 3988 
Q 3128 4100 2886 4159 
Q 2644 4219 2406 4219 
Q 1781 4219 1451 3797 
Q 1122 3375 1075 2522 
Q 1259 2794 1537 2939 
Q 1816 3084 2150 3084 
Q 2853 3084 3261 2657 
Q 3669 2231 3669 1497 
Q 3669 778 3244 343 
Q 2819 -91 2113 -91 
Q 1303 -91 875 529 
Q 447 1150 447 2328 
Q 447 3434 972 4092 
Q 1497 4750 2381 4750 
Q 2619 4750 2861 4703 
Q 3103 4656 3366 4563 
z
" transform="scale(0.015625)"/>
       </defs>
       <use xlink:href="#DejaVuSans-36"/>
      </g>
     </g>
    </g>
    <g id="xtick_5">
     <g id="line2d_5">
      <g>
       <use xlink:href="#m6e8fdf6765" x="416.945455" y="338.4" style="stroke: #000000; stroke-width: 0.8"/>
      </g>
     </g>
     <g id="text_5">
      <!-- 8 -->
      <g style="fill: #1f77b4" transform="translate(413.764205 352.998437) scale(0.1 -0.1)">
       <defs>
        <path id="DejaVuSans-38" d="M 2034 2216 
Q 1584 2216 1326 1975 
Q 1069 1734 1069 1313 
Q 1069 891 1326 650 
Q 1584 409 2034 409 
Q 2484 409 2743 651 
Q 3003 894 3003 1313 
Q 3003 1734 2745 1975 
Q 2488 2216 2034 2216 
z
M 1403 2484 
Q 997 2584 770 2862 
Q 544 3141 544 3541 
Q 544 4100 942 4425 
Q 1341 4750 2034 4750 
Q 2731 4750 3128 4425 
Q 3525 4100 3525 3541 
Q 3525 3141 3298 2862 
Q 3072 2584 2669 2484 
Q 3125 2378 3379 2068 
Q 3634 1759 3634 1313 
Q 3634 634 3220 271 
Q 2806 -91 2034 -91 
Q 1263 -91 848 271 
Q 434 634 434 1313 
Q 434 1759 690 2068 
Q 947 2378 1403 2484 
z
M 1172 3481 
Q 1172 3119 1398 2916 
Q 1625 2713 2034 2713 
Q 2441 2713 2670 2916 
Q 2900 3119 2900 3481 
Q 2900 3844 2670 4047 
Q 2441 4250 2034 4250 
Q 1625 4250 1398 4047 
Q 1172 3844 1172 3481 
z
" transform="scale(0.015625)"/>
       </defs>
       <use xlink:href="#DejaVuSans-38"/>
      </g>
     </g>
    </g>
    <g id="xtick_6">
     <g id="line2d_6">
      <g>
       <use xlink:href="#m6e8fdf6765" x="498.109091" y="338.4" style="stroke: #000000; stroke-width: 0.8"/>
      </g>
     </g>
     <g id="text_6">
      <!-- 10 -->
      <g style="fill: #1f77b4" transform="translate(491.746591 352.998437) scale(0.1 -0.1)">
       <defs>
        <path id="DejaVuSans-31" d="M 794 531 
L 1825 531 
L 1825 4091 
L 703 3866 
L 703 4441 
L 1819 4666 
L 2450 4666 
L 2450 531 
L 3481 531 
L 3481 0 
L 794 0 
L 794 531 
z
" transform="scale(0.015625)"/>
       </defs>
       <use xlink:href="#DejaVuSans-31"/>
       <use xlink:href="#DejaVuSans-30" transform="translate(63.623047 0)"/>
      </g>
     </g>
    </g>
    <g id="text_7">
     <!-- Voltage (V) -->
     <g style="fill: #1f77b4" transform="translate(267.532812 366.676562) scale(0.1 -0.1)">
      <defs>
       <path id="DejaVuSans-56" d="M 1831 0 
L 50 4666 
L 709 4666 
L 2188 738 
L 3669 4666 
L 4325 4666 
L 2547 0 
L 1831 0 
z
" transform="scale(0.015625)"/>
       <path id="DejaVuSans-6f" d="M 1959 3097 
Q 1497 3097 1228 2736 
Q 959 2375 959 1747 
Q 959 1119 1226 758 
Q 1494 397 1959 397 
Q 2419 397 2687 759 
Q 2956 1122 2956 1747 
Q 2956 2369 2687 2733 
Q 2419 3097 1959 3097 
z
M 1959 3584 
Q 2709 3584 3137 3096 
Q 3566 2609 3566 1747 
Q 3566 888 3137 398 
Q 2709 -91 1959 -91 
Q 1206 -91 779 398 
Q 353 888 353 1747 
Q 353 2609 779 3096 
Q 1206 3584 1959 3584 
z
" transform="scale(0.015625)"/>
       <path id="DejaVuSans-6c" d="M 603 4863 
L 1178 4863 
L 1178 0 
L 603 0 
L 603 4863 
z
" transform="scale(0.015625)"/>
       <path id="DejaVuSans-74" d="M 1172 4494 
L 1172 3500 
L 2356 3500 
L 2356 3053 
L 1172 3053 
L 1172 1153 
Q 1172 725 1289 603 
Q 1406 481 1766 481 
L 2356 481 
L 2356 0 
L 1766 0 
Q 1100 0 847 248 
Q 594 497 594 1153 
L 594 3053 
L 172 3053 
L 172 3500 
L 594 3500 
L 594 4494 
L 1172 4494 
z
" transform="scale(0.015625)"/>
       <path id="DejaVuSans-61" d="M 2194 1759 
Q 1497 1759 1228 1600 
Q 959 1441 959 1056 
Q 959 750 1161 570 
Q 1363 391 1709 391 
Q 2188 391 2477 730 
Q 2766 1069 2766 1631 
L 2766 1759 
L 2194 1759 
z
M 3341 1997 
L 3341 0 
L 2766 0 
L 2766 531 
Q 2569 213 2275 61 
Q 1981 -91 1556 -91 
Q 1019 -91 701 211 
Q 384 513 384 1019 
Q 384 1609 779 1909 
Q 1175 2209 1959 2209 
L 2766 2209 
L 2766 2266 
Q 2766 2663 2505 2880 
Q 2244 3097 1772 3097 
Q 1472 3097 1187 3025 
Q 903 2953 641 2809 
L 641 3341 
Q 956 3463 1253 3523 
Q 1550 3584 1831 3584 
Q 2591 3584 2966 3190 
Q 3341 2797 3341 1997 
z
" transform="scale(0.015625)"/>
       <path id="DejaVuSans-67" d="M 2906 1791 
Q 2906 2416 2648 2759 
Q 2391 3103 1925 3103 
Q 1463 3103 1205 2759 
Q 947 2416 947 1791 
Q 947 1169 1205 825 
Q 1463 481 1925 481 
Q 2391 481 2648 825 
Q 2906 1169 2906 1791 
z
M 3481 434 
Q 3481 -459 3084 -895 
Q 2688 -1331 1869 -1331 
Q 1566 -1331 1297 -1286 
Q 1028 -1241 775 -1147 
L 775 -588 
Q 1028 -725 1275 -790 
Q 1522 -856 1778 -856 
Q 2344 -856 2625 -561 
Q 2906 -266 2906 331 
L 2906 616 
Q 2728 306 2450 153 
Q 2172 0 1784 0 
Q 1141 0 747 490 
Q 353 981 353 1791 
Q 353 2603 747 3093 
Q 1141 3584 1784 3584 
Q 2172 3584 2450 3431 
Q 2728 3278 2906 2969 
L 2906 3500 
L 3481 3500 
L 3481 434 
z
" transform="scale(0.015625)"/>
       <path id="DejaVuSans-65" d="M 3597 1894 
L 3597 1613 
L 953 1613 
Q 991 1019 1311 708 
Q 1631 397 2203 397 
Q 2534 397 2845 478 
Q 3156 559 3463 722 
L 3463 178 
Q 3153 47 2828 -22 
Q 2503 -91 2169 -91 
Q 1331 -91 842 396 
Q 353 884 353 1716 
Q 353 2575 817 3079 
Q 1281 3584 2069 3584 
Q 2775 3584 3186 3129 
Q 3597 2675 3597 1894 
z
M 3022 2063 
Q 3016 2534 2758 2815 
Q 2500 3097 2075 3097 
Q 1594 3097 1305 2825 
Q 1016 2553 972 2059 
L 3022 2063 
z
" transform="scale(0.015625)"/>
       <path id="DejaVuSans-20" transform="scale(0.015625)"/>
       <path id="DejaVuSans-28" d="M 1984 4856 
Q 1566 4138 1362 3434 
Q 1159 2731 1159 2009 
Q 1159 1288 1364 580 
Q 1569 -128 1984 -844 
L 1484 -844 
Q 1016 -109 783 600 
Q 550 1309 550 2009 
Q 550 2706 781 3412 
Q 1013 4119 1484 4856 
L 1984 4856 
z
" transform="scale(0.015625)"/>
       <path id="DejaVuSans-29" d="M 513 4856 
L 1013 4856 
Q 1481 4119 1714 3412 
Q 1947 2706 1947 2009 
Q 1947 1309 1714 600 
Q 1481 -109 1013 -844 
L 513 -844 
Q 928 -128 1133 580 
Q 1338 1288 1338 2009 
Q 1338 2731 1133 3434 
Q 928 4138 513 4856 
z
" transform="scale(0.015625)"/>
      </defs>
      <use xlink:href="#DejaVuSans-56"/>
      <use xlink:href="#DejaVuSans-6f" transform="translate(60.658203 0)"/>
      <use xlink:href="#DejaVuSans-6c" transform="translate(121.839844 0)"/>
      <use xlink:href="#DejaVuSans-74" transform="translate(149.623047 0)"/>
      <use xlink:href="#DejaVuSans-61" transform="translate(188.832031 0)"/>
      <use xlink:href="#DejaVuSans-67" transform="translate(250.111328 0)"/>
      <use xlink:href="#DejaVuSans-65" transform="translate(313.587891 0)"/>
      <use xlink:href="#DejaVuSans-20" transform="translate(375.111328 0)"/>
      <use xlink:href="#DejaVuSans-28" transform="translate(406.898438 0)"/>
      <use xlink:href="#DejaVuSans-56" transform="translate(445.912109 0)"/>
      <use xlink:href="#DejaVuSans-29" transform="translate(514.320312 0)"/>
     </g>
    </g>
   </g>
   <g id="matplotlib.axis_2">
    <g id="ytick_1">
     <g id="line2d_7">
      <defs>
       <path id="md5751b11c7" d="M 0 0 
L -3.5 0 
" style="stroke: #000000; stroke-width: 0.8"/>
      </defs>
      <g>
       <use xlink:href="#md5751b11c7" x="72" y="305.504828" style="stroke: #000000; stroke-width: 0.8"/>
      </g>
     </g>
     <g id="text_8">
      <!-- 1550.0 -->
      <g style="fill: #1f77b4" transform="translate(30.009375 309.304046) scale(0.1 -0.1)">
       <defs>
        <path id="DejaVuSans-35" d="M 691 4666 
L 3169 4666 
L 3169 4134 
L 1269 4134 
L 1269 2991 
Q 1406 3038 1543 3061 
Q 1681 3084 1819 3084 
Q 2600 3084 3056 2656 
Q 3513 2228 3513 1497 
Q 3513 744 3044 326 
Q 2575 -91 1722 -91 
Q 1428 -91 1123 -41 
Q 819 9 494 109 
L 494 744 
Q 775 591 1075 516 
Q 1375 441 1709 441 
Q 2250 441 2565 725 
Q 2881 1009 2881 1497 
Q 2881 1984 2565 2268 
Q 2250 2553 1709 2553 
Q 1456 2553 1204 2497 
Q 953 2441 691 2322 
L 691 4666 
z
" transform="scale(0.015625)"/>
        <path id="DejaVuSans-2e" d="M 684 794 
L 1344 794 
L 1344 0 
L 684 0 
L 684 794 
z
" transform="scale(0.015625)"/>
       </defs>
       <use xlink:href="#DejaVuSans-31"/>
       <use xlink:href="#DejaVuSans-35" transform="translate(63.623047 0)"/>
       <use xlink:href="#DejaVuSans-35" transform="translate(127.246094 0)"/>
       <use xlink:href="#DejaVuSans-30" transform="translate(190.869141 0)"/>
       <use xlink:href="#DejaVuSans-2e" transform="translate(254.492188 0)"/>
       <use xlink:href="#DejaVuSans-30" transform="translate(286.279297 0)"/>
      </g>
     </g>
    </g>
    <g id="ytick_2">
     <g id="line2d_8">
      <g>
       <use xlink:href="#md5751b11c7" x="72" y="258.952414" style="stroke: #000000; stroke-width: 0.8"/>
      </g>
     </g>
     <g id="text_9">
      <!-- 1550.5 -->
      <g style="fill: #1f77b4" transform="translate(30.009375 262.751633) scale(0.1 -0.1)">
       <use xlink:href="#DejaVuSans-31"/>
       <use xlink:href="#DejaVuSans-35" transform="translate(63.623047 0)"/>
       <use xlink:href="#DejaVuSans-35" transform="translate(127.246094 0)"/>
       <use xlink:href="#DejaVuSans-30" transform="translate(190.869141 0)"/>
       <use xlink:href="#DejaVuSans-2e" transform="translate(254.492188 0)"/>
       <use xlink:href="#DejaVuSans-35" transform="translate(286.279297 0)"/>
      </g>
     </g>
    </g>
    <g id="ytick_3">
     <g id="line2d_9">
      <g>
       <use xlink:href="#md5751b11c7" x="72" y="212.4" style="stroke: #000000; stroke-width: 0.8"/>
      </g>
     </g>
     <g id="text_10">
      <!-- 1551.0 -->
      <g style="fill: #1f77b4" transform="translate(30.009375 216.199219) scale(0.1 -0.1)">
       <use xlink:href="#DejaVuSans-31"/>
       <use xlink:href="#DejaVuSans-35" transform="translate(63.623047 0)"/>
       <use xlink:href="#DejaVuSans-35" transform="translate(127.246094 0)"/>
       <use xlink:href="#DejaVuSans-31" transform="translate(190.869141 0)"/>
       <use xlink:href="#DejaVuSans-2e" transform="translate(254.492188 0)"/>
       <use xlink:href="#DejaVuSans-30" transform="translate(286.279297 0)"/>
      </g>
     </g>
    </g>
    <g id="ytick_4">
     <g id="line2d_10">
      <g>
       <use xlink:href="#md5751b11c7" x="72" y="165.847586" style="stroke: #000000; stroke-width: 0.8"/>
      </g>
     </g>
     <g id="text_11">
      <!-- 1551.5 -->
      <g style="fill: #1f77b4" transform="translate(30.009375 169.646805) scale(0.1 -0.1)">
       <use xlink:href="#DejaVuSans-31"/>
       <use xlink:href="#DejaVuSans-35" transform="translate(63.623047 0)"/>
       <use xlink:href="#DejaVuSans-35" transform="translate(127.246094 0)"/>
       <use xlink:href="#DejaVuSans-31" transform="translate(190.869141 0)"/>
       <use xlink:href="#DejaVuSans-2e" transform="translate(254.492188 0)"/>
       <use xlink:href="#DejaVuSans-35" transform="translate(286.279297 0)"/>
      </g>
     </g>
    </g>
    <g id="ytick_5">
     <g id="line2d_11">
      <g>
       <use xlink:href="#md5751b11c7" x="72" y="119.295172" style="stroke: #000000; stroke-width: 0.8"/>
      </g>
     </g>
     <g id="text_12">
      <!-- 1552.0 -->
      <g style="fill: #1f77b4" transform="translate(30.009375 123.094391) scale(0.1 -0.1)">
       <use xlink:href="#DejaVuSans-31"/>
       <use xlink:href="#DejaVuSans-35" transform="translate(63.623047 0)"/>
       <use xlink:href="#DejaVuSans-35" transform="translate(127.246094 0)"/>
       <use xlink:href="#DejaVuSans-32" transform="translate(190.869141 0)"/>
       <use xlink:href="#DejaVuSans-2e" transform="translate(254.492188 0)"/>
       <use xlink:href="#DejaVuSans-30" transform="translate(286.279297 0)"/>
      </g>
     </g>
    </g>
    <g id="text_13">
     <!-- Wavelength (nm) -->
     <g style="fill: #1f77b4" transform="translate(23.929687 255.592187) rotate(-90) scale(0.1 -0.1)">
      <defs>
       <path id="DejaVuSans-57" d="M 213 4666 
L 850 4666 
L 1831 722 
L 2809 4666 
L 3519 4666 
L 4500 722 
L 5478 4666 
L 6119 4666 
L 4947 0 
L 4153 0 
L 3169 4050 
L 2175 0 
L 1381 0 
L 213 4666 
z
" transform="scale(0.015625)"/>
       <path id="DejaVuSans-76" d="M 191 3500 
L 800 3500 
L 1894 563 
L 2988 3500 
L 3597 3500 
L 2284 0 
L 1503 0 
L 191 3500 
z
" transform="scale(0.015625)"/>
       <path id="DejaVuSans-6e" d="M 3513 2113 
L 3513 0 
L 2938 0 
L 2938 2094 
Q 2938 2591 2744 2837 
Q 2550 3084 2163 3084 
Q 1697 3084 1428 2787 
Q 1159 2491 1159 1978 
L 1159 0 
L 581 0 
L 581 3500 
L 1159 3500 
L 1159 2956 
Q 1366 3272 1645 3428 
Q 1925 3584 2291 3584 
Q 2894 3584 3203 3211 
Q 3513 2838 3513 2113 
z
" transform="scale(0.015625)"/>
       <path id="DejaVuSans-68" d="M 3513 2113 
L 3513 0 
L 2938 0 
L 2938 2094 
Q 2938 2591 2744 2837 
Q 2550 3084 2163 3084 
Q 1697 3084 1428 2787 
Q 1159 2491 1159 1978 
L 1159 0 
L 581 0 
L 581 4863 
L 1159 4863 
L 1159 2956 
Q 1366 3272 1645 3428 
Q 1925 3584 2291 3584 
Q 2894 3584 3203 3211 
Q 3513 2838 3513 2113 
z
" transform="scale(0.015625)"/>
       <path id="DejaVuSans-6d" d="M 3328 2828 
Q 3544 3216 3844 3400 
Q 4144 3584 4550 3584 
Q 5097 3584 5394 3201 
Q 5691 2819 5691 2113 
L 5691 0 
L 5113 0 
L 5113 2094 
Q 5113 2597 4934 2840 
Q 4756 3084 4391 3084 
Q 3944 3084 3684 2787 
Q 3425 2491 3425 1978 
L 3425 0 
L 2847 0 
L 2847 2094 
Q 2847 2600 2669 2842 
Q 2491 3084 2119 3084 
Q 1678 3084 1418 2786 
Q 1159 2488 1159 1978 
L 1159 0 
L 581 0 
L 581 3500 
L 1159 3500 
L 1159 2956 
Q 1356 3278 1631 3431 
Q 1906 3584 2284 3584 
Q 2666 3584 2933 3390 
Q 3200 3197 3328 2828 
z
" transform="scale(0.015625)"/>
      </defs>
      <use xlink:href="#DejaVuSans-57"/>
      <use xlink:href="#DejaVuSans-61" transform="translate(92.501953 0)"/>
      <use xlink:href="#DejaVuSans-76" transform="translate(153.78125 0)"/>
      <use xlink:href="#DejaVuSans-65" transform="translate(212.960938 0)"/>
      <use xlink:href="#DejaVuSans-6c" transform="translate(274.484375 0)"/>
      <use xlink:href="#DejaVuSans-65" transform="translate(302.267578 0)"/>
      <use xlink:href="#DejaVuSans-6e" transform="translate(363.791016 0)"/>
      <use xlink:href="#DejaVuSans-67" transform="translate(427.169922 0)"/>
      <use xlink:href="#DejaVuSans-74" transform="translate(490.646484 0)"/>
      <use xlink:href="#DejaVuSans-68" transform="translate(529.855469 0)"/>
      <use xlink:href="#DejaVuSans-20" transform="translate(593.234375 0)"/>
      <use xlink:href="#DejaVuSans-28" transform="translate(625.021484 0)"/>
      <use xlink:href="#DejaVuSans-6e" transform="translate(664.035156 0)"/>
      <use xlink:href="#DejaVuSans-6d" transform="translate(727.414062 0)"/>
      <use xlink:href="#DejaVuSans-29" transform="translate(824.826172 0)"/>
     </g>
    </g>
   </g>
   <g id="line2d_12">
    <path d="M 92.290909 305.504828 
L 97.978051 283.624062 
L 101.227846 272.040031 
L 103.665192 264.109324 
L 105.696314 258.122833 
L 107.727437 252.787878 
L 109.352334 249.036152 
L 110.977232 245.776573 
L 112.602129 243.034581 
L 113.820803 241.330106 
L 115.039476 239.934769 
L 116.258149 238.853329 
L 117.476822 238.08876 
L 118.695495 237.642231 
L 119.914169 237.513101 
L 121.132842 237.698922 
L 122.351515 238.195451 
L 123.570188 238.996678 
L 124.788862 240.094857 
L 126.007535 241.480552 
L 127.632432 243.756025 
L 129.25733 246.492202 
L 130.882228 249.653854 
L 132.91335 254.143638 
L 135.350696 260.205782 
L 138.194267 268.000179 
L 142.256511 279.943978 
L 148.349877 297.894588 
L 151.193448 305.567952 
L 153.630794 311.488022 
L 155.661916 315.834802 
L 157.286814 318.867545 
L 158.911712 321.463324 
L 160.536609 323.58833 
L 161.755283 324.85548 
L 162.973956 325.83098 
L 164.192629 326.506092 
L 165.411302 326.873789 
L 166.629975 326.928793 
L 167.848649 326.667608 
L 169.067322 326.088536 
L 170.285995 325.191692 
L 171.504668 323.978996 
L 172.723342 322.454172 
L 173.942015 320.622715 
L 175.566912 317.716556 
L 177.19181 314.300209 
L 178.816708 310.400698 
L 180.84783 304.895914 
L 182.878952 298.758643 
L 185.316298 290.675477 
L 188.159869 280.456422 
L 192.222113 264.913809 
L 199.940377 235.199554 
L 202.783948 225.142708 
L 205.221294 217.243306 
L 207.252416 211.287575 
L 209.283538 205.987114 
L 210.908436 202.265306 
L 212.533333 199.037385 
L 214.158231 196.328468 
L 215.376904 194.64953 
L 216.595577 193.280193 
L 217.814251 192.22507 
L 219.032924 191.486985 
L 220.251597 191.066955 
L 221.47027 190.96419 
L 222.688943 191.176089 
L 223.907617 191.698264 
L 225.12629 192.524556 
L 226.344963 193.647078 
L 227.563636 195.056255 
L 229.188534 197.361467 
L 230.813432 200.125315 
L 232.438329 203.31229 
L 234.469451 207.830036 
L 236.906798 213.919747 
L 239.750369 221.737275 
L 243.812613 233.695973 
L 249.905979 251.627583 
L 252.74955 259.275671 
L 255.186896 265.166486 
L 257.218018 269.484034 
L 258.842916 272.490543 
L 260.467813 275.057841 
L 262.092711 277.152408 
L 263.311384 278.395629 
L 264.530057 279.346407 
L 265.748731 279.996145 
L 266.967404 280.337962 
L 268.186077 280.366726 
L 269.40475 280.07909 
L 270.623423 279.473508 
L 271.842097 278.550244 
L 273.06077 277.311371 
L 274.279443 275.760759 
L 275.498116 273.904053 
L 277.123014 270.965313 
L 278.747912 267.517924 
L 280.372809 263.589226 
L 282.403931 258.051013 
L 284.435053 251.884199 
L 286.8724 243.771362 
L 289.715971 233.526501 
L 293.778215 217.964908 
L 301.090254 189.768019 
L 304.340049 178.246558 
L 306.777396 170.378729 
L 308.808518 164.453958 
L 310.83964 159.188164 
L 312.464537 155.496392 
L 314.089435 152.300226 
L 315.714333 149.624461 
L 316.933006 147.971104 
L 318.151679 146.6278 
L 319.370352 145.599014 
L 320.589025 144.887419 
L 321.807699 144.493884 
L 323.026372 144.417464 
L 324.245045 144.655412 
L 325.463718 145.203189 
L 326.682391 146.054492 
L 327.901065 147.201291 
L 329.119738 148.633872 
L 330.744636 150.968703 
L 332.369533 153.760083 
L 333.994431 156.972224 
L 336.025553 161.517717 
L 338.462899 167.63471 
L 341.30647 175.475007 
L 345.368714 187.448058 
L 351.055856 204.216807 
L 353.899427 211.939657 
L 356.336773 217.917399 
L 358.367895 222.322015 
L 359.992793 225.406778 
L 361.61769 228.05912 
L 363.242588 230.244662 
L 364.461261 231.559453 
L 365.679934 232.584214 
L 366.898608 233.309925 
L 368.117281 233.729272 
L 369.335954 233.836683 
L 370.554627 233.628363 
L 371.773301 233.102313 
L 372.991974 232.258346 
L 374.210647 231.098083 
L 375.42932 229.624946 
L 376.647993 227.844138 
L 378.272891 225.003398 
L 379.897789 221.649451 
L 381.522686 217.808687 
L 383.553808 212.371302 
L 385.58493 206.293733 
L 388.022277 198.270732 
L 390.865848 188.104347 
L 394.928092 172.601316 
L 402.646355 142.841173 
L 405.489926 132.728861 
L 407.927273 124.767118 
L 409.958395 118.750066 
L 411.989517 113.380792 
L 413.614414 109.599266 
L 415.239312 106.30813 
L 416.86421 103.533141 
L 418.082883 101.803176 
L 419.301556 100.38187 
L 420.520229 99.274134 
L 421.738903 98.483089 
L 422.957576 98.010056 
L 424.176249 97.854545 
L 425.394922 98.014258 
L 426.613595 98.4851 
L 427.832269 99.261207 
L 429.050942 100.334978 
L 430.269615 101.697114 
L 431.488288 103.336676 
L 433.113186 105.932455 
L 434.738084 108.965198 
L 436.769206 113.311978 
L 438.800328 118.198069 
L 441.237674 124.643305 
L 444.487469 133.939562 
L 454.236855 162.435943 
L 456.674201 168.71058 
L 458.705324 173.417964 
L 460.736446 177.5558 
L 462.361343 180.401823 
L 463.986241 182.795526 
L 465.204914 184.274677 
L 466.423587 185.469826 
L 467.64226 186.370982 
L 468.860934 186.969831 
L 470.079607 187.25978 
L 471.29828 187.235995 
L 472.516953 186.895427 
L 473.735627 186.236831 
L 474.9543 185.260773 
L 476.172973 183.969626 
L 477.391646 182.367559 
L 478.610319 180.460509 
L 480.235217 177.456866 
L 481.860115 173.947716 
L 483.485012 169.961022 
L 485.516134 164.3565 
L 487.547256 158.131222 
L 489.984603 149.959877 
L 492.828174 139.664463 
L 496.890418 124.066538 
L 498.109091 119.295172 
L 498.109091 119.295172 
" clip-path="url(#pfb0969e4d7)" style="fill: none; stroke: #1f77b4; stroke-width: 1.5; stroke-linecap: square"/>
   </g>
   <g id="line2d_13">
    <path d="M 72 258.952414 
L 518.4 258.952414 
" clip-path="url(#pfb0969e4d7)" style="fill: none; stroke: #d62728; stroke-width: 1.5; stroke-linecap: square"/>
   </g>
   <g id="line2d_14">
    <path d="M 72 165.847586 
L 518.4 165.847586 
" clip-path="url(#pfb0969e4d7)" style="fill: none; stroke: #d62728; stroke-width: 1.5; stroke-linecap: square"/>
   </g>
   <g id="patch_3">
    <path d="M 72 338.4 
L 72 86.4 
" style="fill: none; stroke: #000000; stroke-width: 0.8; stroke-linejoin: miter; stroke-linecap: square"/>
   </g>
   <g id="patch_4">
    <path d="M 518.4 338.4 
L 518.4 86.4 
" style="fill: none; stroke: #000000; stroke-width: 0.8; stroke-linejoin: miter; stroke-linecap: square"/>
   </g>
   <g id="patch_5">
    <path d="M 72 338.4 
L 518.4 338.4 
" style="fill: none; stroke: #000000; stroke-width: 0.8; stroke-linejoin: miter; stroke-linecap: square"/>
   </g>
   <g id="patch_6">
    <path d="M 72 86.4 
L 518.4 86.4 
" style="fill: none; stroke: #000000; stroke-width: 0.8; stroke-linejoin: miter; stroke-linecap: square"/>
   </g>
  </g>
  <g id="axes_2">
   <g id="patch_7">
    <path d="M 72 640.8 
L 518.4 640.8 
L 518.4 388.8 
L 72 388.8 
z
" style="fill: #ffffff"/>
   </g>
   <g id="FillBetweenPolyCollection_1"/>
   <g id="FillBetweenPolyCollection_2"/>
   <g id="FillBetweenPolyCollection_3"/>
   <g id="FillBetweenPolyCollection_4"/>
   <g id="FillBetweenPolyCollection_5"/>
   <g id="FillBetweenPolyCollection_6"/>
   <g id="FillBetweenPolyCollection_7"/>
   <g id="FillBetweenPolyCollection_8"/>
   <g id="FillBetweenPolyCollection_9"/>
   <g id="FillBetweenPolyCollection_10"/>
   <g id="FillBetweenPolyCollection_11"/>
   <g id="FillBetweenPolyCollection_12"/>
   <g id="FillBetweenPolyCollection_13"/>
   <g id="FillBetweenPolyCollection_14"/>
   <g id="FillBetweenPolyCollection_15"/>
   <g id="FillBetweenPolyCollection_16"/>
   <g id="FillBetweenPolyCollection_17"/>
   <g id="FillBetweenPolyCollection_18"/>
   <g id="FillBetweenPolyCollection_19"/>
   <g id="FillBetweenPolyCollection_20"/>
   <g id="matplotlib.axis_3">
    <g id="xtick_7">
     <g id="line2d_15">
      <g>
       <use xlink:href="#m6e8fdf6765" x="124.329187" y="640.8" style="stroke: #000000; stroke-width: 0.8"/>
      </g>
     </g>
     <g id="text_14">
      <!-- 2.5 -->
      <g transform="translate(116.377624 655.398438) scale(0.1 -0.1)">
       <use xlink:href="#DejaVuSans-32"/>
       <use xlink:href="#DejaVuSans-2e" transform="translate(63.623047 0)"/>
       <use xlink:href="#DejaVuSans-35" transform="translate(95.410156 0)"/>
      </g>
     </g>
    </g>
    <g id="xtick_8">
     <g id="line2d_16">
      <g>
       <use xlink:href="#m6e8fdf6765" x="177.726316" y="640.8" style="stroke: #000000; stroke-width: 0.8"/>
      </g>
     </g>
     <g id="text_15">
      <!-- 5.0 -->
      <g transform="translate(169.774753 655.398438) scale(0.1 -0.1)">
       <use xlink:href="#DejaVuSans-35"/>
       <use xlink:href="#DejaVuSans-2e" transform="translate(63.623047 0)"/>
       <use xlink:href="#DejaVuSans-30" transform="translate(95.410156 0)"/>
      </g>
     </g>
    </g>
    <g id="xtick_9">
     <g id="line2d_17">
      <g>
       <use xlink:href="#m6e8fdf6765" x="231.123445" y="640.8" style="stroke: #000000; stroke-width: 0.8"/>
      </g>
     </g>
     <g id="text_16">
      <!-- 7.5 -->
      <g transform="translate(223.171882 655.398438) scale(0.1 -0.1)">
       <defs>
        <path id="DejaVuSans-37" d="M 525 4666 
L 3525 4666 
L 3525 4397 
L 1831 0 
L 1172 0 
L 2766 4134 
L 525 4134 
L 525 4666 
z
" transform="scale(0.015625)"/>
       </defs>
       <use xlink:href="#DejaVuSans-37"/>
       <use xlink:href="#DejaVuSans-2e" transform="translate(63.623047 0)"/>
       <use xlink:href="#DejaVuSans-35" transform="translate(95.410156 0)"/>
      </g>
     </g>
    </g>
    <g id="xtick_10">
     <g id="line2d_18">
      <g>
       <use xlink:href="#m6e8fdf6765" x="284.520574" y="640.8" style="stroke: #000000; stroke-width: 0.8"/>
      </g>
     </g>
     <g id="text_17">
      <!-- 10.0 -->
      <g transform="translate(273.387762 655.398438) scale(0.1 -0.1)">
       <use xlink:href="#DejaVuSans-31"/>
       <use xlink:href="#DejaVuSans-30" transform="translate(63.623047 0)"/>
       <use xlink:href="#DejaVuSans-2e" transform="translate(127.246094 0)"/>
       <use xlink:href="#DejaVuSans-30" transform="translate(159.033203 0)"/>
      </g>
     </g>
    </g>
    <g id="xtick_11">
     <g id="line2d_19">
      <g>
       <use xlink:href="#m6e8fdf6765" x="337.917703" y="640.8" style="stroke: #000000; stroke-width: 0.8"/>
      </g>
     </g>
     <g id="text_18">
      <!-- 12.5 -->
      <g transform="translate(326.784891 655.398438) scale(0.1 -0.1)">
       <use xlink:href="#DejaVuSans-31"/>
       <use xlink:href="#DejaVuSans-32" transform="translate(63.623047 0)"/>
       <use xlink:href="#DejaVuSans-2e" transform="translate(127.246094 0)"/>
       <use xlink:href="#DejaVuSans-35" transform="translate(159.033203 0)"/>
      </g>
     </g>
    </g>
    <g id="xtick_12">
     <g id="line2d_20">
      <g>
       <use xlink:href="#m6e8fdf6765" x="391.314833" y="640.8" style="stroke: #000000; stroke-width: 0.8"/>
      </g>
     </g>
     <g id="text_19">
      <!-- 15.0 -->
      <g transform="translate(380.18202 655.398438) scale(0.1 -0.1)">
       <use xlink:href="#DejaVuSans-31"/>
       <use xlink:href="#DejaVuSans-35" transform="translate(63.623047 0)"/>
       <use xlink:href="#DejaVuSans-2e" transform="translate(127.246094 0)"/>
       <use xlink:href="#DejaVuSans-30" transform="translate(159.033203 0)"/>
      </g>
     </g>
    </g>
    <g id="xtick_13">
     <g id="line2d_21">
      <g>
       <use xlink:href="#m6e8fdf6765" x="444.711962" y="640.8" style="stroke: #000000; stroke-width: 0.8"/>
      </g>
     </g>
     <g id="text_20">
      <!-- 17.5 -->
      <g transform="translate(433.579149 655.398438) scale(0.1 -0.1)">
       <use xlink:href="#DejaVuSans-31"/>
       <use xlink:href="#DejaVuSans-37" transform="translate(63.623047 0)"/>
       <use xlink:href="#DejaVuSans-2e" transform="translate(127.246094 0)"/>
       <use xlink:href="#DejaVuSans-35" transform="translate(159.033203 0)"/>
      </g>
     </g>
    </g>
    <g id="xtick_14">
     <g id="line2d_22">
      <g>
       <use xlink:href="#m6e8fdf6765" x="498.109091" y="640.8" style="stroke: #000000; stroke-width: 0.8"/>
      </g>
     </g>
     <g id="text_21">
      <!-- 20.0 -->
      <g transform="translate(486.976278 655.398438) scale(0.1 -0.1)">
       <use xlink:href="#DejaVuSans-32"/>
       <use xlink:href="#DejaVuSans-30" transform="translate(63.623047 0)"/>
       <use xlink:href="#DejaVuSans-2e" transform="translate(127.246094 0)"/>
       <use xlink:href="#DejaVuSans-30" transform="translate(159.033203 0)"/>
      </g>
     </g>
    </g>
    <g id="text_22">
     <!-- # Experiments -->
     <g transform="translate(257.926562 669.076563) scale(0.1 -0.1)">
      <defs>
       <path id="DejaVuSans-23" d="M 3272 2816 
L 2363 2816 
L 2100 1772 
L 3016 1772 
L 3272 2816 
z
M 2803 4594 
L 2478 3297 
L 3391 3297 
L 3719 4594 
L 4219 4594 
L 3897 3297 
L 4872 3297 
L 4872 2816 
L 3775 2816 
L 3519 1772 
L 4513 1772 
L 4513 1294 
L 3397 1294 
L 3072 0 
L 2572 0 
L 2894 1294 
L 1978 1294 
L 1656 0 
L 1153 0 
L 1478 1294 
L 494 1294 
L 494 1772 
L 1594 1772 
L 1856 2816 
L 850 2816 
L 850 3297 
L 1978 3297 
L 2297 4594 
L 2803 4594 
z
" transform="scale(0.015625)"/>
       <path id="DejaVuSans-45" d="M 628 4666 
L 3578 4666 
L 3578 4134 
L 1259 4134 
L 1259 2753 
L 3481 2753 
L 3481 2222 
L 1259 2222 
L 1259 531 
L 3634 531 
L 3634 0 
L 628 0 
L 628 4666 
z
" transform="scale(0.015625)"/>
       <path id="DejaVuSans-78" d="M 3513 3500 
L 2247 1797 
L 3578 0 
L 2900 0 
L 1881 1375 
L 863 0 
L 184 0 
L 1544 1831 
L 300 3500 
L 978 3500 
L 1906 2253 
L 2834 3500 
L 3513 3500 
z
" transform="scale(0.015625)"/>
       <path id="DejaVuSans-70" d="M 1159 525 
L 1159 -1331 
L 581 -1331 
L 581 3500 
L 1159 3500 
L 1159 2969 
Q 1341 3281 1617 3432 
Q 1894 3584 2278 3584 
Q 2916 3584 3314 3078 
Q 3713 2572 3713 1747 
Q 3713 922 3314 415 
Q 2916 -91 2278 -91 
Q 1894 -91 1617 61 
Q 1341 213 1159 525 
z
M 3116 1747 
Q 3116 2381 2855 2742 
Q 2594 3103 2138 3103 
Q 1681 3103 1420 2742 
Q 1159 2381 1159 1747 
Q 1159 1113 1420 752 
Q 1681 391 2138 391 
Q 2594 391 2855 752 
Q 3116 1113 3116 1747 
z
" transform="scale(0.015625)"/>
       <path id="DejaVuSans-72" d="M 2631 2963 
Q 2534 3019 2420 3045 
Q 2306 3072 2169 3072 
Q 1681 3072 1420 2755 
Q 1159 2438 1159 1844 
L 1159 0 
L 581 0 
L 581 3500 
L 1159 3500 
L 1159 2956 
Q 1341 3275 1631 3429 
Q 1922 3584 2338 3584 
Q 2397 3584 2469 3576 
Q 2541 3569 2628 3553 
L 2631 2963 
z
" transform="scale(0.015625)"/>
       <path id="DejaVuSans-69" d="M 603 3500 
L 1178 3500 
L 1178 0 
L 603 0 
L 603 3500 
z
M 603 4863 
L 1178 4863 
L 1178 4134 
L 603 4134 
L 603 4863 
z
" transform="scale(0.015625)"/>
       <path id="DejaVuSans-73" d="M 2834 3397 
L 2834 2853 
Q 2591 2978 2328 3040 
Q 2066 3103 1784 3103 
Q 1356 3103 1142 2972 
Q 928 2841 928 2578 
Q 928 2378 1081 2264 
Q 1234 2150 1697 2047 
L 1894 2003 
Q 2506 1872 2764 1633 
Q 3022 1394 3022 966 
Q 3022 478 2636 193 
Q 2250 -91 1575 -91 
Q 1294 -91 989 -36 
Q 684 19 347 128 
L 347 722 
Q 666 556 975 473 
Q 1284 391 1588 391 
Q 1994 391 2212 530 
Q 2431 669 2431 922 
Q 2431 1156 2273 1281 
Q 2116 1406 1581 1522 
L 1381 1569 
Q 847 1681 609 1914 
Q 372 2147 372 2553 
Q 372 3047 722 3315 
Q 1072 3584 1716 3584 
Q 2034 3584 2315 3537 
Q 2597 3491 2834 3397 
z
" transform="scale(0.015625)"/>
      </defs>
      <use xlink:href="#DejaVuSans-23"/>
      <use xlink:href="#DejaVuSans-20" transform="translate(83.789062 0)"/>
      <use xlink:href="#DejaVuSans-45" transform="translate(115.576172 0)"/>
      <use xlink:href="#DejaVuSans-78" transform="translate(178.759766 0)"/>
      <use xlink:href="#DejaVuSans-70" transform="translate(237.939453 0)"/>
      <use xlink:href="#DejaVuSans-65" transform="translate(301.416016 0)"/>
      <use xlink:href="#DejaVuSans-72" transform="translate(362.939453 0)"/>
      <use xlink:href="#DejaVuSans-69" transform="translate(404.052734 0)"/>
      <use xlink:href="#DejaVuSans-6d" transform="translate(431.835938 0)"/>
      <use xlink:href="#DejaVuSans-65" transform="translate(529.248047 0)"/>
      <use xlink:href="#DejaVuSans-6e" transform="translate(590.771484 0)"/>
      <use xlink:href="#DejaVuSans-74" transform="translate(654.150391 0)"/>
      <use xlink:href="#DejaVuSans-73" transform="translate(693.359375 0)"/>
     </g>
    </g>
   </g>
   <g id="matplotlib.axis_4">
    <g id="ytick_6">
     <g id="line2d_23">
      <g>
       <use xlink:href="#md5751b11c7" x="72" y="606.239086" style="stroke: #000000; stroke-width: 0.8"/>
      </g>
     </g>
     <g id="text_23">
      <!-- 1550.0 -->
      <g transform="translate(30.009375 610.038305) scale(0.1 -0.1)">
       <use xlink:href="#DejaVuSans-31"/>
       <use xlink:href="#DejaVuSans-35" transform="translate(63.623047 0)"/>
       <use xlink:href="#DejaVuSans-35" transform="translate(127.246094 0)"/>
       <use xlink:href="#DejaVuSans-30" transform="translate(190.869141 0)"/>
       <use xlink:href="#DejaVuSans-2e" transform="translate(254.492188 0)"/>
       <use xlink:href="#DejaVuSans-30" transform="translate(286.279297 0)"/>
      </g>
     </g>
    </g>
    <g id="ytick_7">
     <g id="line2d_24">
      <g>
       <use xlink:href="#md5751b11c7" x="72" y="555.192829" style="stroke: #000000; stroke-width: 0.8"/>
      </g>
     </g>
     <g id="text_24">
      <!-- 1550.5 -->
      <g transform="translate(30.009375 558.992048) scale(0.1 -0.1)">
       <use xlink:href="#DejaVuSans-31"/>
       <use xlink:href="#DejaVuSans-35" transform="translate(63.623047 0)"/>
       <use xlink:href="#DejaVuSans-35" transform="translate(127.246094 0)"/>
       <use xlink:href="#DejaVuSans-30" transform="translate(190.869141 0)"/>
       <use xlink:href="#DejaVuSans-2e" transform="translate(254.492188 0)"/>
       <use xlink:href="#DejaVuSans-35" transform="translate(286.279297 0)"/>
      </g>
     </g>
    </g>
    <g id="ytick_8">
     <g id="line2d_25">
      <g>
       <use xlink:href="#md5751b11c7" x="72" y="504.146572" style="stroke: #000000; stroke-width: 0.8"/>
      </g>
     </g>
     <g id="text_25">
      <!-- 1551.0 -->
      <g transform="translate(30.009375 507.945791) scale(0.1 -0.1)">
       <use xlink:href="#DejaVuSans-31"/>
       <use xlink:href="#DejaVuSans-35" transform="translate(63.623047 0)"/>
       <use xlink:href="#DejaVuSans-35" transform="translate(127.246094 0)"/>
       <use xlink:href="#DejaVuSans-31" transform="translate(190.869141 0)"/>
       <use xlink:href="#DejaVuSans-2e" transform="translate(254.492188 0)"/>
       <use xlink:href="#DejaVuSans-30" transform="translate(286.279297 0)"/>
      </g>
     </g>
    </g>
    <g id="ytick_9">
     <g id="line2d_26">
      <g>
       <use xlink:href="#md5751b11c7" x="72" y="453.100316" style="stroke: #000000; stroke-width: 0.8"/>
      </g>
     </g>
     <g id="text_26">
      <!-- 1551.5 -->
      <g transform="translate(30.009375 456.899534) scale(0.1 -0.1)">
       <use xlink:href="#DejaVuSans-31"/>
       <use xlink:href="#DejaVuSans-35" transform="translate(63.623047 0)"/>
       <use xlink:href="#DejaVuSans-35" transform="translate(127.246094 0)"/>
       <use xlink:href="#DejaVuSans-31" transform="translate(190.869141 0)"/>
       <use xlink:href="#DejaVuSans-2e" transform="translate(254.492188 0)"/>
       <use xlink:href="#DejaVuSans-35" transform="translate(286.279297 0)"/>
      </g>
     </g>
    </g>
    <g id="ytick_10">
     <g id="line2d_27">
      <g>
       <use xlink:href="#md5751b11c7" x="72" y="402.054059" style="stroke: #000000; stroke-width: 0.8"/>
      </g>
     </g>
     <g id="text_27">
      <!-- 1552.0 -->
      <g transform="translate(30.009375 405.853278) scale(0.1 -0.1)">
       <use xlink:href="#DejaVuSans-31"/>
       <use xlink:href="#DejaVuSans-35" transform="translate(63.623047 0)"/>
       <use xlink:href="#DejaVuSans-35" transform="translate(127.246094 0)"/>
       <use xlink:href="#DejaVuSans-32" transform="translate(190.869141 0)"/>
       <use xlink:href="#DejaVuSans-2e" transform="translate(254.492188 0)"/>
       <use xlink:href="#DejaVuSans-30" transform="translate(286.279297 0)"/>
      </g>
     </g>
    </g>
    <g id="text_28">
     <!-- Wavelength (nm) -->
     <g transform="translate(23.929687 557.992188) rotate(-90) scale(0.1 -0.1)">
      <use xlink:href="#DejaVuSans-57"/>
      <use xlink:href="#DejaVuSans-61" transform="translate(92.501953 0)"/>
      <use xlink:href="#DejaVuSans-76" transform="translate(153.78125 0)"/>
      <use xlink:href="#DejaVuSans-65" transform="translate(212.960938 0)"/>
      <use xlink:href="#DejaVuSans-6c" transform="translate(274.484375 0)"/>
      <use xlink:href="#DejaVuSans-65" transform="translate(302.267578 0)"/>
      <use xlink:href="#DejaVuSans-6e" transform="translate(363.791016 0)"/>
      <use xlink:href="#DejaVuSans-67" transform="translate(427.169922 0)"/>
      <use xlink:href="#DejaVuSans-74" transform="translate(490.646484 0)"/>
      <use xlink:href="#DejaVuSans-68" transform="translate(529.855469 0)"/>
      <use xlink:href="#DejaVuSans-20" transform="translate(593.234375 0)"/>
      <use xlink:href="#DejaVuSans-28" transform="translate(625.021484 0)"/>
      <use xlink:href="#DejaVuSans-6e" transform="translate(664.035156 0)"/>
      <use xlink:href="#DejaVuSans-6d" transform="translate(727.414062 0)"/>
      <use xlink:href="#DejaVuSans-29" transform="translate(824.826172 0)"/>
     </g>
    </g>
   </g>
   <g id="line2d_28">
    <path d="M 92.290909 560.441331 
L 113.649761 560.441105 
L 135.008612 560.441105 
L 156.367464 560.441105 
L 177.726316 555.493346 
L 199.085167 555.493346 
L 220.444019 555.250374 
L 241.802871 555.250374 
L 263.161722 555.250374 
L 284.520574 555.250374 
L 305.879426 555.250374 
L 327.238278 555.250374 
L 348.597129 555.250374 
L 369.955981 555.250374 
L 391.314833 555.250374 
L 412.673684 555.250374 
L 434.032536 555.250374 
L 455.391388 555.250374 
L 476.750239 555.168024 
L 498.109091 555.168024 
" clip-path="url(#pf1a78f93b3)" style="fill: none; stroke: #edd1cb; stroke-width: 1.5; stroke-linecap: square"/>
   </g>
   <g id="line2d_29">
    <path d="M 92.290909 461.128285 
L 113.649761 461.128274 
L 135.008612 461.128274 
L 156.367464 461.128274 
L 177.726316 453.538313 
L 199.085167 453.538313 
L 220.444019 453.161502 
L 241.802871 453.161502 
L 263.161722 453.161502 
L 284.520574 453.161502 
L 305.879426 453.161502 
L 327.238278 453.161502 
L 348.597129 453.161502 
L 369.955981 453.161502 
L 391.314833 453.161502 
L 412.673684 453.161502 
L 434.032536 453.161502 
L 455.391388 453.161502 
L 476.750239 453.161502 
L 498.109091 453.161502 
" clip-path="url(#pf1a78f93b3)" style="fill: none; stroke: #e9c6c2; stroke-width: 1.5; stroke-linecap: square"/>
   </g>
   <g id="line2d_30">
    <path d="M 92.290909 553.221319 
L 113.649761 553.222493 
L 135.008612 553.222493 
L 156.367464 553.222493 
L 177.726316 555.455716 
L 199.085167 555.455716 
L 220.444019 555.455716 
L 241.802871 555.455716 
L 263.161722 555.455716 
L 284.520574 555.131782 
L 305.879426 555.159734 
L 327.238278 555.159734 
L 348.597129 555.159734 
L 369.955981 555.159734 
L 391.314833 555.159734 
L 412.673684 555.159734 
L 434.032536 555.159734 
L 455.391388 555.159734 
L 476.750239 555.159734 
L 498.109091 555.223667 
" clip-path="url(#pf1a78f93b3)" style="fill: none; stroke: #e5baba; stroke-width: 1.5; stroke-linecap: square"/>
   </g>
   <g id="line2d_31">
    <path d="M 92.290909 432.032542 
L 113.649761 432.032542 
L 135.008612 432.032542 
L 156.367464 455.782115 
L 177.726316 452.733402 
L 199.085167 452.733402 
L 220.444019 452.733402 
L 241.802871 452.733402 
L 263.161722 452.733402 
L 284.520574 453.030219 
L 305.879426 453.030219 
L 327.238278 453.030219 
L 348.597129 453.030219 
L 369.955981 453.030219 
L 391.314833 453.030219 
L 412.673684 453.030219 
L 434.032536 453.149075 
L 455.391388 453.065988 
L 476.750239 453.077087 
L 498.109091 453.077087 
" clip-path="url(#pf1a78f93b3)" style="fill: none; stroke: #dfaeb2; stroke-width: 1.5; stroke-linecap: square"/>
   </g>
   <g id="line2d_32">
    <path d="M 92.290909 537.291411 
L 113.649761 537.291411 
L 135.008612 537.291411 
L 156.367464 537.291411 
L 177.726316 537.291411 
L 199.085167 554.761972 
L 220.444019 554.761972 
L 241.802871 555.292495 
L 263.161722 555.292495 
L 284.520574 555.292495 
L 305.879426 555.107695 
L 327.238278 555.186455 
L 348.597129 555.186455 
L 369.955981 555.186455 
L 391.314833 555.186455 
L 412.673684 555.186455 
L 434.032536 555.186455 
L 455.391388 555.186455 
L 476.750239 555.186455 
L 498.109091 555.186455 
" clip-path="url(#pf1a78f93b3)" style="fill: none; stroke: #daa2ac; stroke-width: 1.5; stroke-linecap: square"/>
   </g>
   <g id="line2d_33">
    <path d="M 92.290909 480.659766 
L 113.649761 480.659766 
L 135.008612 551.594053 
L 156.367464 555.836109 
L 177.726316 555.333945 
L 199.085167 555.333945 
L 220.444019 555.333945 
L 241.802871 555.333945 
L 263.161722 555.333945 
L 284.520574 555.333945 
L 305.879426 555.333945 
L 327.238278 555.219234 
L 348.597129 555.219234 
L 369.955981 555.219234 
L 391.314833 555.219234 
L 412.673684 555.219234 
L 434.032536 555.1701 
L 455.391388 555.1701 
L 476.750239 555.1701 
L 498.109091 555.1701 
" clip-path="url(#pf1a78f93b3)" style="fill: none; stroke: #d396a5; stroke-width: 1.5; stroke-linecap: square"/>
   </g>
   <g id="line2d_34">
    <path d="M 92.290909 578.657752 
L 113.649761 578.657752 
L 135.008612 576.602673 
L 156.367464 546.647299 
L 177.726316 556.504049 
L 199.085167 556.504049 
L 220.444019 556.504049 
L 241.802871 555.236402 
L 263.161722 555.236402 
L 284.520574 555.236402 
L 305.879426 555.236402 
L 327.238278 555.236402 
L 348.597129 555.236402 
L 369.955981 555.236402 
L 391.314833 555.236402 
L 412.673684 555.236402 
L 434.032536 555.236402 
L 455.391388 555.236402 
L 476.750239 555.236402 
L 498.109091 555.236402 
" clip-path="url(#pf1a78f93b3)" style="fill: none; stroke: #cb8ca0; stroke-width: 1.5; stroke-linecap: square"/>
   </g>
   <g id="line2d_35">
    <path d="M 92.290909 541.452781 
L 113.649761 541.452781 
L 135.008612 541.452781 
L 156.367464 557.227976 
L 177.726316 557.227976 
L 199.085167 557.227976 
L 220.444019 556.932605 
L 241.802871 556.932605 
L 263.161722 555.547082 
L 284.520574 555.356687 
L 305.879426 555.288626 
L 327.238278 555.288626 
L 348.597129 555.288626 
L 369.955981 555.288626 
L 391.314833 555.288626 
L 412.673684 555.288626 
L 434.032536 555.288626 
L 455.391388 555.288626 
L 476.750239 453.190524 
L 498.109091 453.190524 
" clip-path="url(#pf1a78f93b3)" style="fill: none; stroke: #c2809b; stroke-width: 1.5; stroke-linecap: square"/>
   </g>
   <g id="line2d_36">
    <path d="M 92.290909 453.218827 
L 113.649761 453.218827 
L 135.008612 453.218827 
L 156.367464 453.208929 
L 177.726316 453.208929 
L 199.085167 453.136831 
L 220.444019 453.136831 
L 241.802871 453.136831 
L 263.161722 453.136831 
L 284.520574 453.136831 
L 305.879426 453.136831 
L 327.238278 453.136831 
L 348.597129 453.136831 
L 369.955981 453.136831 
L 391.314833 453.136831 
L 412.673684 453.136831 
L 434.032536 453.112154 
L 455.391388 453.112154 
L 476.750239 453.112154 
L 498.109091 453.112154 
" clip-path="url(#pf1a78f93b3)" style="fill: none; stroke: #ba7696; stroke-width: 1.5; stroke-linecap: square"/>
   </g>
   <g id="line2d_37">
    <path d="M 92.290909 448.082878 
L 113.649761 448.082878 
L 135.008612 448.082878 
L 156.367464 448.082878 
L 177.726316 452.831478 
L 199.085167 452.831478 
L 220.444019 452.831478 
L 241.802871 453.044852 
L 263.161722 453.044852 
L 284.520574 453.044852 
L 305.879426 453.044852 
L 327.238278 453.044852 
L 348.597129 453.044852 
L 369.955981 453.044852 
L 391.314833 453.044852 
L 412.673684 453.044852 
L 434.032536 453.044852 
L 455.391388 453.044852 
L 476.750239 453.044852 
L 498.109091 453.044852 
" clip-path="url(#pf1a78f93b3)" style="fill: none; stroke: #af6c91; stroke-width: 1.5; stroke-linecap: square"/>
   </g>
   <g id="line2d_38">
    <path d="M 92.290909 599.073465 
L 113.649761 565.115405 
L 135.008612 555.489346 
L 156.367464 555.156424 
L 177.726316 555.156424 
L 199.085167 555.156424 
L 220.444019 555.156424 
L 241.802871 555.156424 
L 263.161722 555.208912 
L 284.520574 555.208912 
L 305.879426 555.208912 
L 327.238278 555.208912 
L 348.597129 555.208912 
L 369.955981 555.208912 
L 391.314833 555.208912 
L 412.673684 555.208912 
L 434.032536 555.208912 
L 455.391388 555.208912 
L 476.750239 555.208912 
L 498.109091 555.208912 
" clip-path="url(#pf1a78f93b3)" style="fill: none; stroke: #a4638d; stroke-width: 1.5; stroke-linecap: square"/>
   </g>
   <g id="line2d_39">
    <path d="M 92.290909 561.3688 
L 113.649761 561.368793 
L 135.008612 561.368793 
L 156.367464 555.631997 
L 177.726316 555.631997 
L 199.085167 555.631997 
L 220.444019 555.631997 
L 241.802871 555.182324 
L 263.161722 555.182324 
L 284.520574 555.182324 
L 305.879426 555.182324 
L 327.238278 555.182324 
L 348.597129 555.182324 
L 369.955981 555.182324 
L 391.314833 555.182324 
L 412.673684 555.182324 
L 434.032536 555.182324 
L 455.391388 555.182324 
L 476.750239 555.182324 
L 498.109091 555.182324 
" clip-path="url(#pf1a78f93b3)" style="fill: none; stroke: #985987; stroke-width: 1.5; stroke-linecap: square"/>
   </g>
   <g id="line2d_40">
    <path d="M 92.290909 428.836757 
L 113.649761 428.836757 
L 135.008612 433.282966 
L 156.367464 468.302869 
L 177.726316 448.97384 
L 199.085167 453.129407 
L 220.444019 453.129407 
L 241.802871 453.129407 
L 263.161722 453.129407 
L 284.520574 453.129407 
L 305.879426 453.129407 
L 327.238278 453.094368 
L 348.597129 453.094368 
L 369.955981 453.094368 
L 391.314833 453.094368 
L 412.673684 453.094368 
L 434.032536 453.094368 
L 455.391388 453.094368 
L 476.750239 453.094368 
L 498.109091 453.094368 
" clip-path="url(#pf1a78f93b3)" style="fill: none; stroke: #8c5181; stroke-width: 1.5; stroke-linecap: square"/>
   </g>
   <g id="line2d_41">
    <path d="M 92.290909 629.345455 
L 113.649761 558.74321 
L 135.008612 554.223994 
L 156.367464 555.047525 
L 177.726316 555.047525 
L 199.085167 555.047525 
L 220.444019 555.047525 
L 241.802871 555.047525 
L 263.161722 555.047525 
L 284.520574 555.172416 
L 305.879426 555.172416 
L 327.238278 555.172416 
L 348.597129 555.172416 
L 369.955981 555.172416 
L 391.314833 555.172416 
L 412.673684 555.172416 
L 434.032536 555.172416 
L 455.391388 555.172416 
L 476.750239 555.172416 
L 498.109091 555.172416 
" clip-path="url(#pf1a78f93b3)" style="fill: none; stroke: #7e497a; stroke-width: 1.5; stroke-linecap: square"/>
   </g>
   <g id="line2d_42">
    <path d="M 92.290909 532.063094 
L 113.649761 532.063098 
L 135.008612 532.063098 
L 156.367464 534.327932 
L 177.726316 539.717448 
L 199.085167 539.717448 
L 220.444019 539.717448 
L 241.802871 554.242198 
L 263.161722 554.242198 
L 284.520574 555.25057 
L 305.879426 555.25057 
L 327.238278 555.147361 
L 348.597129 555.147361 
L 369.955981 555.147361 
L 391.314833 555.147361 
L 412.673684 555.191825 
L 434.032536 555.191825 
L 455.391388 555.191825 
L 476.750239 555.191825 
L 498.109091 555.191825 
" clip-path="url(#pf1a78f93b3)" style="fill: none; stroke: #714173; stroke-width: 1.5; stroke-linecap: square"/>
   </g>
   <g id="line2d_43">
    <path d="M 92.290909 624.187805 
L 113.649761 609.628769 
L 135.008612 535.444726 
L 156.367464 535.444726 
L 177.726316 535.444726 
L 199.085167 551.619336 
L 220.444019 553.908288 
L 241.802871 553.908288 
L 263.161722 553.908288 
L 284.520574 553.908288 
L 305.879426 553.908288 
L 327.238278 553.908288 
L 348.597129 555.111946 
L 369.955981 555.111946 
L 391.314833 555.111946 
L 412.673684 555.111946 
L 434.032536 555.111946 
L 455.391388 555.205362 
L 476.750239 555.205362 
L 498.109091 555.205362 
" clip-path="url(#pf1a78f93b3)" style="fill: none; stroke: #62396a; stroke-width: 1.5; stroke-linecap: square"/>
   </g>
   <g id="line2d_44">
    <path d="M 92.290909 400.254545 
L 113.649761 445.685823 
L 135.008612 451.86773 
L 156.367464 451.86773 
L 177.726316 451.86773 
L 199.085167 451.86773 
L 220.444019 453.258651 
L 241.802871 453.258651 
L 263.161722 453.154491 
L 284.520574 453.154491 
L 305.879426 453.154491 
L 327.238278 453.154491 
L 348.597129 453.154491 
L 369.955981 453.154491 
L 391.314833 453.154491 
L 412.673684 453.154491 
L 434.032536 453.154491 
L 455.391388 453.154491 
L 476.750239 453.154491 
L 498.109091 453.154491 
" clip-path="url(#pf1a78f93b3)" style="fill: none; stroke: #553361; stroke-width: 1.5; stroke-linecap: square"/>
   </g>
   <g id="line2d_45">
    <path d="M 92.290909 577.116597 
L 113.649761 577.116596 
L 135.008612 570.858059 
L 156.367464 548.120184 
L 177.726316 555.948506 
L 199.085167 555.948506 
L 220.444019 555.948506 
L 241.802871 555.253663 
L 263.161722 555.253663 
L 284.520574 555.253663 
L 305.879426 555.253663 
L 327.238278 555.253663 
L 348.597129 555.253663 
L 369.955981 555.193916 
L 391.314833 555.193916 
L 412.673684 555.193916 
L 434.032536 555.193916 
L 455.391388 555.193916 
L 476.750239 555.193916 
L 498.109091 555.193916 
" clip-path="url(#pf1a78f93b3)" style="fill: none; stroke: #462b55; stroke-width: 1.5; stroke-linecap: square"/>
   </g>
   <g id="line2d_46">
    <path d="M 92.290909 523.019683 
L 113.649761 554.034186 
L 135.008612 555.469138 
L 156.367464 555.469138 
L 177.726316 555.157494 
L 199.085167 555.157494 
L 220.444019 555.157494 
L 241.802871 555.157494 
L 263.161722 555.194608 
L 284.520574 555.194608 
L 305.879426 555.194608 
L 327.238278 555.194608 
L 348.597129 555.194608 
L 369.955981 555.194608 
L 391.314833 555.194608 
L 412.673684 555.194608 
L 434.032536 555.194608 
L 455.391388 555.194608 
L 476.750239 555.194608 
L 498.109091 555.194608 
" clip-path="url(#pf1a78f93b3)" style="fill: none; stroke: #39254a; stroke-width: 1.5; stroke-linecap: square"/>
   </g>
   <g id="line2d_47">
    <path d="M 92.290909 550.154987 
L 113.649761 550.154996 
L 135.008612 550.154996 
L 156.367464 554.177234 
L 177.726316 554.177234 
L 199.085167 554.177234 
L 220.444019 554.177234 
L 241.802871 554.177234 
L 263.161722 555.323751 
L 284.520574 555.323751 
L 305.879426 555.323751 
L 327.238278 555.323751 
L 348.597129 555.323751 
L 369.955981 555.323751 
L 391.314833 555.323751 
L 412.673684 555.323751 
L 434.032536 555.114783 
L 455.391388 555.177843 
L 476.750239 555.177843 
L 498.109091 555.177843 
" clip-path="url(#pf1a78f93b3)" style="fill: none; stroke: #2d1e3e; stroke-width: 1.5; stroke-linecap: square"/>
   </g>
   <g id="patch_8">
    <path d="M 72 640.8 
L 72 388.8 
" style="fill: none; stroke: #000000; stroke-width: 0.8; stroke-linejoin: miter; stroke-linecap: square"/>
   </g>
   <g id="patch_9">
    <path d="M 518.4 640.8 
L 518.4 388.8 
" style="fill: none; stroke: #000000; stroke-width: 0.8; stroke-linejoin: miter; stroke-linecap: square"/>
   </g>
   <g id="patch_10">
    <path d="M 72 640.8 
L 518.4 640.8 
" style="fill: none; stroke: #000000; stroke-width: 0.8; stroke-linejoin: miter; stroke-linecap: square"/>
   </g>
   <g id="patch_11">
    <path d="M 72 388.8 
L 518.4 388.8 
" style="fill: none; stroke: #000000; stroke-width: 0.8; stroke-linejoin: miter; stroke-linecap: square"/>
   </g>
  </g>
  <g id="axes_3">
   <g id="matplotlib.axis_5">
    <g id="xtick_15">
     <g id="line2d_48">
      <defs>
       <path id="m917af5cd51" d="M 0 0 
L 0 -3.5 
" style="stroke: #000000; stroke-width: 0.8"/>
      </defs>
      <g>
       <use xlink:href="#m917af5cd51" x="92.290909" y="86.4" style="stroke: #000000; stroke-width: 0.8"/>
      </g>
     </g>
     <g id="text_29">
      <!-- 0.0 -->
      <g style="fill: #ff7f0e" transform="translate(84.339347 77.320312) scale(0.1 -0.1)">
       <use xlink:href="#DejaVuSans-30"/>
       <use xlink:href="#DejaVuSans-2e" transform="translate(63.623047 0)"/>
       <use xlink:href="#DejaVuSans-30" transform="translate(95.410156 0)"/>
      </g>
     </g>
    </g>
    <g id="xtick_16">
     <g id="line2d_49">
      <g>
       <use xlink:href="#m917af5cd51" x="173.478994" y="86.4" style="stroke: #000000; stroke-width: 0.8"/>
      </g>
     </g>
     <g id="text_30">
      <!-- 0.2 -->
      <g style="fill: #ff7f0e" transform="translate(165.527431 77.320312) scale(0.1 -0.1)">
       <use xlink:href="#DejaVuSans-30"/>
       <use xlink:href="#DejaVuSans-2e" transform="translate(63.623047 0)"/>
       <use xlink:href="#DejaVuSans-32" transform="translate(95.410156 0)"/>
      </g>
     </g>
    </g>
    <g id="xtick_17">
     <g id="line2d_50">
      <g>
       <use xlink:href="#m917af5cd51" x="254.667078" y="86.4" style="stroke: #000000; stroke-width: 0.8"/>
      </g>
     </g>
     <g id="text_31">
      <!-- 0.4 -->
      <g style="fill: #ff7f0e" transform="translate(246.715516 77.320312) scale(0.1 -0.1)">
       <use xlink:href="#DejaVuSans-30"/>
       <use xlink:href="#DejaVuSans-2e" transform="translate(63.623047 0)"/>
       <use xlink:href="#DejaVuSans-34" transform="translate(95.410156 0)"/>
      </g>
     </g>
    </g>
    <g id="xtick_18">
     <g id="line2d_51">
      <g>
       <use xlink:href="#m917af5cd51" x="335.855163" y="86.4" style="stroke: #000000; stroke-width: 0.8"/>
      </g>
     </g>
     <g id="text_32">
      <!-- 0.6 -->
      <g style="fill: #ff7f0e" transform="translate(327.9036 77.320312) scale(0.1 -0.1)">
       <use xlink:href="#DejaVuSans-30"/>
       <use xlink:href="#DejaVuSans-2e" transform="translate(63.623047 0)"/>
       <use xlink:href="#DejaVuSans-36" transform="translate(95.410156 0)"/>
      </g>
     </g>
    </g>
    <g id="xtick_19">
     <g id="line2d_52">
      <g>
       <use xlink:href="#m917af5cd51" x="417.043247" y="86.4" style="stroke: #000000; stroke-width: 0.8"/>
      </g>
     </g>
     <g id="text_33">
      <!-- 0.8 -->
      <g style="fill: #ff7f0e" transform="translate(409.091685 77.320312) scale(0.1 -0.1)">
       <use xlink:href="#DejaVuSans-30"/>
       <use xlink:href="#DejaVuSans-2e" transform="translate(63.623047 0)"/>
       <use xlink:href="#DejaVuSans-38" transform="translate(95.410156 0)"/>
      </g>
     </g>
    </g>
    <g id="xtick_20">
     <g id="line2d_53">
      <g>
       <use xlink:href="#m917af5cd51" x="498.231332" y="86.4" style="stroke: #000000; stroke-width: 0.8"/>
      </g>
     </g>
     <g id="text_34">
      <!-- 1.0 -->
      <g style="fill: #ff7f0e" transform="translate(490.279769 77.320312) scale(0.1 -0.1)">
       <use xlink:href="#DejaVuSans-31"/>
       <use xlink:href="#DejaVuSans-2e" transform="translate(63.623047 0)"/>
       <use xlink:href="#DejaVuSans-30" transform="translate(95.410156 0)"/>
      </g>
     </g>
    </g>
    <g id="text_35">
     <!-- Objective Value -->
     <g style="fill: #ff7f0e" transform="translate(256.169531 65.721875) scale(0.1 -0.1)">
      <defs>
       <path id="DejaVuSans-4f" d="M 2522 4238 
Q 1834 4238 1429 3725 
Q 1025 3213 1025 2328 
Q 1025 1447 1429 934 
Q 1834 422 2522 422 
Q 3209 422 3611 934 
Q 4013 1447 4013 2328 
Q 4013 3213 3611 3725 
Q 3209 4238 2522 4238 
z
M 2522 4750 
Q 3503 4750 4090 4092 
Q 4678 3434 4678 2328 
Q 4678 1225 4090 567 
Q 3503 -91 2522 -91 
Q 1538 -91 948 565 
Q 359 1222 359 2328 
Q 359 3434 948 4092 
Q 1538 4750 2522 4750 
z
" transform="scale(0.015625)"/>
       <path id="DejaVuSans-62" d="M 3116 1747 
Q 3116 2381 2855 2742 
Q 2594 3103 2138 3103 
Q 1681 3103 1420 2742 
Q 1159 2381 1159 1747 
Q 1159 1113 1420 752 
Q 1681 391 2138 391 
Q 2594 391 2855 752 
Q 3116 1113 3116 1747 
z
M 1159 2969 
Q 1341 3281 1617 3432 
Q 1894 3584 2278 3584 
Q 2916 3584 3314 3078 
Q 3713 2572 3713 1747 
Q 3713 922 3314 415 
Q 2916 -91 2278 -91 
Q 1894 -91 1617 61 
Q 1341 213 1159 525 
L 1159 0 
L 581 0 
L 581 4863 
L 1159 4863 
L 1159 2969 
z
" transform="scale(0.015625)"/>
       <path id="DejaVuSans-6a" d="M 603 3500 
L 1178 3500 
L 1178 -63 
Q 1178 -731 923 -1031 
Q 669 -1331 103 -1331 
L -116 -1331 
L -116 -844 
L 38 -844 
Q 366 -844 484 -692 
Q 603 -541 603 -63 
L 603 3500 
z
M 603 4863 
L 1178 4863 
L 1178 4134 
L 603 4134 
L 603 4863 
z
" transform="scale(0.015625)"/>
       <path id="DejaVuSans-63" d="M 3122 3366 
L 3122 2828 
Q 2878 2963 2633 3030 
Q 2388 3097 2138 3097 
Q 1578 3097 1268 2742 
Q 959 2388 959 1747 
Q 959 1106 1268 751 
Q 1578 397 2138 397 
Q 2388 397 2633 464 
Q 2878 531 3122 666 
L 3122 134 
Q 2881 22 2623 -34 
Q 2366 -91 2075 -91 
Q 1284 -91 818 406 
Q 353 903 353 1747 
Q 353 2603 823 3093 
Q 1294 3584 2113 3584 
Q 2378 3584 2631 3529 
Q 2884 3475 3122 3366 
z
" transform="scale(0.015625)"/>
       <path id="DejaVuSans-75" d="M 544 1381 
L 544 3500 
L 1119 3500 
L 1119 1403 
Q 1119 906 1312 657 
Q 1506 409 1894 409 
Q 2359 409 2629 706 
Q 2900 1003 2900 1516 
L 2900 3500 
L 3475 3500 
L 3475 0 
L 2900 0 
L 2900 538 
Q 2691 219 2414 64 
Q 2138 -91 1772 -91 
Q 1169 -91 856 284 
Q 544 659 544 1381 
z
M 1991 3584 
L 1991 3584 
z
" transform="scale(0.015625)"/>
      </defs>
      <use xlink:href="#DejaVuSans-4f"/>
      <use xlink:href="#DejaVuSans-62" transform="translate(78.710938 0)"/>
      <use xlink:href="#DejaVuSans-6a" transform="translate(142.1875 0)"/>
      <use xlink:href="#DejaVuSans-65" transform="translate(169.970703 0)"/>
      <use xlink:href="#DejaVuSans-63" transform="translate(231.494141 0)"/>
      <use xlink:href="#DejaVuSans-74" transform="translate(286.474609 0)"/>
      <use xlink:href="#DejaVuSans-69" transform="translate(325.683594 0)"/>
      <use xlink:href="#DejaVuSans-76" transform="translate(353.466797 0)"/>
      <use xlink:href="#DejaVuSans-65" transform="translate(412.646484 0)"/>
      <use xlink:href="#DejaVuSans-20" transform="translate(474.169922 0)"/>
      <use xlink:href="#DejaVuSans-56" transform="translate(505.957031 0)"/>
      <use xlink:href="#DejaVuSans-61" transform="translate(566.615234 0)"/>
      <use xlink:href="#DejaVuSans-6c" transform="translate(627.894531 0)"/>
      <use xlink:href="#DejaVuSans-75" transform="translate(655.677734 0)"/>
      <use xlink:href="#DejaVuSans-65" transform="translate(719.056641 0)"/>
     </g>
    </g>
   </g>
   <g id="line2d_54">
    <path d="M 92.290909 326.945455 
L 92.39615 277.870925 
L 92.625772 276.495004 
L 92.981008 275.577723 
L 93.44803 274.889762 
L 94.189194 274.201802 
L 95.337816 273.513841 
L 97.075804 272.82588 
L 99.642828 272.13792 
L 103.342996 271.449959 
L 108.546512 270.761998 
L 115.683433 270.074038 
L 125.226565 269.386077 
L 137.661117 268.698116 
L 153.440062 268.010156 
L 180.286838 267.092875 
L 214.09809 266.175594 
L 265.461381 265.028993 
L 372.267744 262.965111 
L 438.068666 261.589189 
L 471.463036 260.671908 
L 488.386808 259.983948 
L 495.169001 259.525307 
L 497.127266 259.295987 
L 498.109091 259.066667 
L 498.107342 258.837346 
L 497.122032 258.608026 
L 495.16032 258.378706 
L 488.371445 257.920066 
L 477.935507 257.461425 
L 456.11286 256.773464 
L 417.680503 255.856183 
L 348.184777 254.480262 
L 243.789424 252.41638 
L 196.294916 251.269779 
L 165.978418 250.352498 
L 142.51081 249.435217 
L 125.213651 248.517936 
L 115.673656 247.829975 
L 108.539298 247.142015 
L 103.337806 246.454054 
L 99.639186 245.766093 
L 97.073309 245.078133 
L 95.336149 244.390172 
L 94.188106 243.702211 
L 93.447337 243.014251 
L 92.980577 242.32629 
L 92.625551 241.409009 
L 92.396075 240.033088 
L 92.30349 237.739885 
L 92.290909 226.732514 
L 92.396075 184.766912 
L 92.625551 183.390991 
L 92.980577 182.47371 
L 93.447337 181.785749 
L 94.188106 181.097789 
L 95.336149 180.409828 
L 97.073309 179.721867 
L 99.639186 179.033907 
L 103.337806 178.345946 
L 108.539298 177.657985 
L 115.673656 176.970025 
L 125.213651 176.282064 
L 137.644501 175.594103 
L 153.419247 174.906143 
L 180.259918 173.988862 
L 214.065025 173.071581 
L 265.421833 171.92498 
L 372.225519 169.861097 
L 438.034396 168.485176 
L 471.438527 167.567895 
L 488.371445 166.879934 
L 495.16032 166.421294 
L 497.122032 166.191974 
L 498.107342 165.962654 
L 498.109091 165.733333 
L 497.127266 165.504013 
L 495.169001 165.274693 
L 488.386808 164.816052 
L 477.957113 164.357412 
L 456.14265 163.669451 
L 417.718366 162.75217 
L 348.227788 161.376249 
L 243.826642 159.312367 
L 196.32495 158.165766 
L 166.002238 157.248485 
L 142.528776 156.331204 
L 125.226565 155.413923 
L 115.683433 154.725962 
L 108.546512 154.038002 
L 103.342996 153.350041 
L 99.642828 152.66208 
L 97.075804 151.97412 
L 95.337816 151.286159 
L 94.189194 150.598198 
L 93.44803 149.910238 
L 92.981008 149.222277 
L 92.625772 148.304996 
L 92.39615 146.929075 
L 92.3035 144.635872 
L 92.290909 133.628501 
L 92.290909 97.854545 
L 92.290909 97.854545 
" clip-path="url(#pfb0969e4d7)" style="fill: none; stroke: #ff7f0e; stroke-width: 1.5; stroke-linecap: square"/>
   </g>
   <g id="patch_12">
    <path d="M 72 338.4 
L 72 86.4 
" style="fill: none; stroke: #000000; stroke-width: 0.8; stroke-linejoin: miter; stroke-linecap: square"/>
   </g>
   <g id="patch_13">
    <path d="M 518.4 338.4 
L 518.4 86.4 
" style="fill: none; stroke: #000000; stroke-width: 0.8; stroke-linejoin: miter; stroke-linecap: square"/>
   </g>
   <g id="patch_14">
    <path d="M 72 338.4 
L 518.4 338.4 
" style="fill: none; stroke: #000000; stroke-width: 0.8; stroke-linejoin: miter; stroke-linecap: square"/>
   </g>
   <g id="patch_15">
    <path d="M 72 86.4 
L 518.4 86.4 
" style="fill: none; stroke: #000000; stroke-width: 0.8; stroke-linejoin: miter; stroke-linecap: square"/>
   </g>
  </g>
 </g>
 <defs>
  <clipPath id="pfb0969e4d7">
   <rect x="72" y="86.4" width="446.4" height="252"/>
  </clipPath>
  <clipPath id="pf1a78f93b3">
   <rect x="72" y="388.8" width="446.4" height="252"/>
  </clipPath>
 </defs>
</svg>
