<?xml version="1.0" encoding="UTF-8"?>
<!-- Created with Inkscape (http://www.inkscape.org/) -->
<svg width="298.96mm" height="95.339mm" version="1.1" viewBox="0 0 149.48 47.669" xmlns="http://www.w3.org/2000/svg">
 <defs>
  <marker id="ArrowWide" overflow="visible" markerHeight="1" markerWidth="1" orient="auto-start-reverse" preserveAspectRatio="xMidYMid" viewBox="0 0 1 1">
   <path transform="rotate(180 .125 0)" d="m3-3-3 3 3 3" fill="none" stroke="context-stroke"/>
  </marker>
 </defs>
 <path d="m0 0h149.48v47.669h-149.48z" fill="#0f69af" stroke-width=".99999"/>
 <g fill="none">
  <g transform="matrix(.15498 .15498 -.15498 .15498 27.805 14.844)" stroke="#ffdcb9" stroke-width="1.5969">
   <path d="m59.119 9.3777h6.8287"/>
   <path d="m62.534 5.9634v6.8287"/>
  </g>
  <g transform="matrix(.15498 .15498 -.15498 .15498 -6.3315 9.7592)" stroke="#ffdcb9" stroke-width="1.5969">
   <path d="m59.119 9.3777h6.8287"/>
   <path d="m62.534 5.9634v6.8287"/>
  </g>
  <path d="m23.856 46.359v-39.298" marker-end="url(#ArrowWide)" stroke="#fff" stroke-width=".21167"/>
  <path d="m20.879 43.046h38.305" marker-end="url(#ArrowWide)" stroke="#fff" stroke-width=".21167"/>
 </g>
 <text x="57.179749" y="46.250599" fill="#abdfdb" font-size="3.3759px" stroke="#ffffff" stroke-width=".080564" xml:space="preserve"><tspan x="57.179749" y="46.250599" fill="#abdfdb" font-family="'CMU Concrete'" font-size="3.3759px" stroke="none" stroke-width=".080564"><tspan font-family="'CMU Classical Serif'">x</tspan><tspan baseline-shift="sub" font-size="2.1944px"/></tspan></text>
 <text x="20.966455" y="10.215442" fill="#abdfdb" font-size="3.3759px" stroke="#ffffff" stroke-width=".080564" xml:space="preserve"><tspan x="20.966455" y="10.215442" fill="#abdfdb" font-family="'CMU Concrete'" font-size="3.3759px" stroke="none" stroke-width=".080564"><tspan font-family="'CMU Classical Serif'">y</tspan><tspan baseline-shift="sub" font-size="2.1944px"/></tspan></text>
 <path d="m57.5 9.385-33.61 33.61" fill="none" stroke="#abdfdb" stroke-dasharray="0.211666, 0.423332" stroke-width=".21167"/>
 <circle cx="38.803" cy="14.819" r=".62122" fill="#fff"/>
 <circle cx="40.896" cy="30.842" r=".62122" fill="#fff"/>
 <path d="m67.997 46.359v-39.298" fill="none" marker-end="url(#ArrowWide)" stroke="#fff" stroke-width=".21167"/>
 <path d="m65.02 43.046h38.305" fill="none" marker-end="url(#ArrowWide)" stroke="#fff" stroke-width=".21167"/>
 <text x="101.32055" y="46.250599" fill="#abdfdb" font-size="3.3759px" stroke="#ffffff" stroke-width=".080564" xml:space="preserve"><tspan x="101.32055" y="46.250599" fill="#abdfdb" font-family="'CMU Concrete'" font-size="3.3759px" stroke="none" stroke-width=".080564"><tspan font-family="'CMU Classical Serif'">x</tspan><tspan baseline-shift="sub" font-size="2.1944px"/></tspan></text>
 <text x="65.107254" y="10.215442" fill="#abdfdb" font-size="3.3759px" stroke="#ffffff" stroke-width=".080564" xml:space="preserve"><tspan x="65.107254" y="10.215442" fill="#abdfdb" font-family="'CMU Concrete'" font-size="3.3759px" stroke="none" stroke-width=".080564"><tspan font-family="'CMU Classical Serif'">y</tspan><tspan baseline-shift="sub" font-size="2.1944px"/></tspan></text>
 <g fill="none">
  <path d="m112.47 46.359v-39.298" marker-end="url(#ArrowWide)" stroke="#fff" stroke-width=".21167"/>
  <path d="m109.49 43.046h38.305" marker-end="url(#ArrowWide)" stroke="#fff" stroke-width=".21167"/>
  <path d="m132.58 42.268v1.5561" stroke="#abdfdb" stroke-width=".37042"/>
 </g>
 <text x="145.79344" y="46.250599" fill="#abdfdb" font-size="3.3759px" stroke="#ffffff" stroke-width=".080564" xml:space="preserve"><tspan x="145.79344" y="46.250599" fill="#abdfdb" font-family="'CMU Concrete'" font-size="3.3759px" stroke="none" stroke-width=".080564"><tspan font-family="'CMU Classical Serif'">x</tspan><tspan baseline-shift="sub" font-size="2.1944px"/></tspan></text>
 <text x="109.58015" y="10.215442" fill="#abdfdb" font-size="3.3759px" stroke="#ffffff" stroke-width=".080564" xml:space="preserve"><tspan x="109.58015" y="10.215442" fill="#abdfdb" font-family="'CMU Concrete'" font-size="3.3759px" stroke="none" stroke-width=".080564"><tspan font-family="'CMU Classical Serif'">y</tspan><tspan baseline-shift="sub" font-size="2.1944px"/></tspan></text>
 <path d="m132.58 12.616v30.227" fill="none" stroke="#abdfdb" stroke-dasharray="0.211666, 0.423332" stroke-width=".21167"/>
 <g fill="#fff">
  <circle transform="rotate(-45)" cx="82.362" cy="122.64" r=".62122"/>
  <circle transform="rotate(-45)" cx="76.033" cy="116.31" r=".62122"/>
  <circle transform="rotate(-45)" cx="84.643" cy="120.36" r=".62122"/>
  <circle transform="rotate(-45)" cx="86.925" cy="118.08" r=".62122"/>
  <circle transform="rotate(-45)" cx="80.597" cy="111.75" r=".62122"/>
  <circle transform="rotate(-45)" cx="89.207" cy="115.79" r=".62122"/>
  <circle transform="rotate(-45)" cx="82.879" cy="109.47" r=".62122"/>
  <circle transform="rotate(-45)" cx="91.488" cy="113.51" r=".62122"/>
  <circle transform="rotate(-45)" cx="85.16" cy="107.19" r=".62122"/>
  <circle transform="rotate(-45)" cx="93.77" cy="111.23" r=".62122"/>
  <circle transform="rotate(-45)" cx="87.442" cy="104.9" r=".62122"/>
  <circle transform="rotate(-45)" cx="77.798" cy="127.2" r=".62122"/>
  <circle transform="rotate(-45)" cx="71.47" cy="120.88" r=".62122"/>
  <circle transform="rotate(-45)" cx="69.188" cy="123.16" r=".62122"/>
  <circle transform="rotate(-45)" cx="73.235" cy="131.77" r=".62122"/>
  <circle transform="rotate(-45)" cx="66.907" cy="125.44" r=".62122"/>
  <circle transform="rotate(-45)" cx="80.08" cy="124.92" r=".62122"/>
  <circle transform="rotate(-45)" cx="73.752" cy="118.59" r=".62122"/>
 </g>
 <g fill="#abdfdb" stroke="#ffffff" stroke-width=".080564">
  <text x="122.80878" y="8.2797766" font-size="3.3759px" xml:space="preserve"><tspan x="122.80878" y="8.2797766" fill="#abdfdb" font-family="'CMU Concrete'" font-size="3.3759px" stroke="none" stroke-width=".080564"><tspan font-family="'CMU Classical Serif'" stroke-width=".080564">c(x) = x &lt; p</tspan></tspan></text>
  <text x="131.4955" y="46.250599" font-size="3.3759px" xml:space="preserve"><tspan x="131.4955" y="46.250599" fill="#abdfdb" font-family="'CMU Concrete'" font-size="3.3759px" stroke="none" stroke-width=".080564"><tspan font-family="'CMU Classical Serif'">p</tspan><tspan baseline-shift="sub" font-size="2.1944px"/></tspan></text>
  <text x="80.609848" y="45.925228" font-family="'CMU Concrete'" font-size="2.1166px" xml:space="preserve"><tspan x="80.609848" y="45.925228" font-family="'CMU Concrete'" font-size="2.1166px"><tspan x="80.609848" y="45.925228" fill="#abdfdb" font-family="'CMU Concrete'" font-size="2.1166px" stroke="none" stroke-width=".080564">mirror_point</tspan></tspan></text>
 </g>
 <path d="m87.191 7.4948 2e-6 35.323" fill="none" stroke="#abdfdb" stroke-dasharray="0.211666, 0.423332" stroke-width=".21167"/>
 <circle transform="rotate(-45)" cx="38.471" cy="79.982" r=".62122" fill="#fff"/>
 <circle transform="rotate(-45)" cx="54.494" cy="82.075" r=".62122" fill="#fff"/>
 <path d="m87.191 42.268v1.5561" fill="none" stroke="#abdfdb" stroke-width=".37042"/>
 <g fill="#abdfdb" font-family="'CMU Concrete'" font-size="3.0344px" stroke="#ffffff" stroke-width=".080564">
  <text x="28.539669" y="3.4752836" xml:space="preserve"><tspan x="28.539669" y="3.4752836" font-family="'CMU Concrete'" font-size="3.0344px" stroke-width=".080564"><tspan x="28.539669" y="3.4752836" fill="#abdfdb" font-family="'CMU Concrete'" font-size="3.0344px" stroke="none" stroke-width=".080564">PermutationSymmetry</tspan></tspan></text>
  <text x="75.93174" y="3.4752836" xml:space="preserve"><tspan x="75.93174" y="3.4752836" font-family="'CMU Concrete'" font-size="3.0344px" stroke-width=".080564"><tspan x="75.93174" y="3.4752836" fill="#abdfdb" font-family="'CMU Concrete'" font-size="3.0344px" stroke="none" stroke-width=".080564">MirrorSymmetry</tspan></tspan></text>
  <text x="117.57504" y="3.4752836" xml:space="preserve"><tspan x="117.57504" y="3.4752836" font-family="'CMU Concrete'" font-size="3.0344px" stroke-width=".080564"><tspan x="117.57504" y="3.4752836" fill="#abdfdb" font-family="'CMU Concrete'" font-size="3.0344px" stroke="none" stroke-width=".080564">DependencySymmetry</tspan></tspan></text>
 </g>
 <path d="m3.0459 27.537h-2.2788" fill="none" stroke="#abdfdb" stroke-dasharray="0.211666, 0.423332" stroke-width=".21167"/>
 <text x="3.9775219" y="21.427324" fill="#abdfdb" font-family="'CMU Concrete'" font-size="2.1166px" stroke="#ffffff" stroke-width=".080564" xml:space="preserve"><tspan x="3.9775219" y="21.427324" font-family="'CMU Concrete'" font-size="2.1166px"><tspan x="3.9775219" y="21.427324" fill="#abdfdb" font-family="'CMU Concrete'" font-size="2.1166px" stroke="none" stroke-width=".080564">original points</tspan></tspan></text>
 <circle transform="rotate(-45)" cx="-15.856" cy="18.553" r=".62122" fill="#fff"/>
 <text x="3.9775219" y="24.85441" fill="#abdfdb" font-family="'CMU Concrete'" font-size="2.1166px" stroke="#ffffff" stroke-width=".080564" xml:space="preserve"><tspan x="3.9775219" y="24.85441" font-family="'CMU Concrete'" font-size="2.1166px"><tspan x="3.9775219" y="24.85441" fill="#abdfdb" font-family="'CMU Concrete'" font-size="2.1166px" stroke="none" stroke-width=".080564">augmented points</tspan></tspan></text>
 <text x="3.9775219" y="28.060389" fill="#abdfdb" font-family="'CMU Concrete'" font-size="2.1166px" stroke="#ffffff" stroke-width=".080564" xml:space="preserve"><tspan x="3.9775219" y="28.060389" font-family="'CMU Concrete'" font-size="2.1166px"><tspan x="3.9775219" y="28.060389" fill="#abdfdb" font-family="'CMU Concrete'" font-size="2.1166px" stroke="none" stroke-width=".080564">guide line</tspan></tspan></text>
 <g fill="none" stroke="#ffdcb9" stroke-width="1.5969">
  <g transform="matrix(.15498 .15498 -.15498 .15498 43.828 16.937)">
   <path d="m59.119 9.3777h6.8287"/>
   <path d="m62.534 5.9634v6.8287"/>
  </g>
  <g transform="matrix(.15498 .15498 -.15498 .15498 69.574 8.3582)">
   <path d="m59.119 9.3777h6.8287"/>
   <path d="m62.534 5.9634v6.8287"/>
  </g>
  <g transform="matrix(.15498 .15498 -.15498 .15498 82.384 18.208)">
   <path d="m59.119 9.3777h6.8287"/>
   <path d="m62.534 5.9634v6.8287"/>
  </g>
  <g transform="matrix(.15498 .15498 -.15498 .15498 118.3 10.883)">
   <path d="m59.119 9.3777h6.8287"/>
   <path d="m62.534 5.9634v6.8287"/>
  </g>
  <g transform="matrix(.15498 .15498 -.15498 .15498 112.97 20.563)">
   <path d="m59.119 9.3777h6.8287"/>
   <path d="m62.534 5.9634v6.8287"/>
  </g>
  <g transform="matrix(.15498 .15498 -.15498 .15498 127.77 14.11)">
   <path d="m59.119 9.3777h6.8287"/>
   <path d="m62.534 5.9634v6.8287"/>
  </g>
  <g transform="matrix(.15498 .15498 -.15498 .15498 136.72 27.017)">
   <path d="m59.119 9.3777h6.8287"/>
   <path d="m62.534 5.9634v6.8287"/>
  </g>
 </g>
</svg>
