<?xml version="1.0" encoding="UTF-8" standalone="no"?>
<!-- Created with Inkscape (http://www.inkscape.org/) -->

<svg
   width="412.75mm"
   height="105.83333mm"
   viewBox="0 0 412.75 105.83333"
   version="1.1"
   id="svg1"
   inkscape:version="1.3.1 (91b66b0, 2023-11-16)"
   sodipodi:docname="banner1.svg"
   inkscape:export-filename="banner1.pdf"
   inkscape:export-xdpi="96"
   inkscape:export-ydpi="96"
   xmlns:inkscape="http://www.inkscape.org/namespaces/inkscape"
   xmlns:sodipodi="http://sodipodi.sourceforge.net/DTD/sodipodi-0.dtd"
   xmlns="http://www.w3.org/2000/svg"
   xmlns:svg="http://www.w3.org/2000/svg">
  <sodipodi:namedview
     id="namedview1"
     pagecolor="#ffffff"
     bordercolor="#000000"
     borderopacity="0.25"
     inkscape:showpageshadow="2"
     inkscape:pageopacity="0.0"
     inkscape:pagecheckerboard="0"
     inkscape:deskcolor="#d1d1d1"
     inkscape:document-units="mm"
     inkscape:zoom="0.93820221"
     inkscape:cx="765.82638"
     inkscape:cy="-126.83833"
     inkscape:window-width="2496"
     inkscape:window-height="1387"
     inkscape:window-x="2456"
     inkscape:window-y="25"
     inkscape:window-maximized="0"
     inkscape:current-layer="layer1" />
  <defs
     id="defs1">
    <clipPath
       clipPathUnits="userSpaceOnUse"
       id="clipPath4">
      <path
         d="M 0,0 H 1170 V 300 H 0 Z"
         transform="translate(-634.97711,-88.615802)"
         id="path4" />
    </clipPath>
    <clipPath
       clipPathUnits="userSpaceOnUse"
       id="clipPath6">
      <path
         d="M 634.977,88.616 C 559.593,84.005 516.971,42.052 493.06,0 v 0 h 124.052 c 19.651,27.677 50.425,58.432 92.122,63.564 v 0 c 17.999,7.916 27.183,26.169 -41.303,26.169 v 0 c -9.447,0 -20.371,-0.348 -32.954,-1.117"
         transform="translate(-655.34651,-82)"
         id="path6" />
    </clipPath>
    <clipPath
       clipPathUnits="userSpaceOnUse"
       id="clipPath8">
      <path
         d="M 0,0 H 1170 V 300 H 0 Z"
         transform="translate(-967.72442,-222.01071)"
         id="path8" />
    </clipPath>
    <clipPath
       clipPathUnits="userSpaceOnUse"
       id="clipPath10">
      <path
         d="m 734.604,76.667 c 0,0 69.586,-43.667 149.742,-43.667 v 0 c 111,0 124.053,77 124.053,133.999 v 0 c 0,24.804 6.519,50.008 6.519,50.008 v 0 c 0,0 -12.197,-6.05 -47.194,5.004 v 0 c -19.122,6.04 -36.936,8.708 -53.512,8.707 v 0 C 788.297,230.706 734.604,76.667 734.604,76.667"
         transform="translate(-927.00025,-202)"
         id="path10" />
    </clipPath>
    <clipPath
       clipPathUnits="userSpaceOnUse"
       id="clipPath12">
      <path
         d="M 0,0 H 1170 V 300 H 0 Z"
         transform="translate(-1008.3987,-193.5762)"
         id="path12" />
    </clipPath>
    <clipPath
       clipPathUnits="userSpaceOnUse"
       id="clipPath14">
      <path
         d="m 1024.777,300 c -9.665,-48.823 -16.378,-106.424 -16.378,-106.424 v 0 c 0,0 56.128,-12.437 102.947,58.954 v 0 c 11.75,17.917 25.618,33.856 39.138,47.47 v 0 z"
         transform="translate(-1019.473,-213.7666)"
         id="path14" />
    </clipPath>
    <clipPath
       clipPathUnits="userSpaceOnUse"
       id="clipPath16">
      <path
         d="M 0,0 H 1170 V 300 H 0 Z"
         transform="translate(-539.34622,42.999001)"
         id="path16" />
    </clipPath>
    <clipPath
       clipPathUnits="userSpaceOnUse"
       id="clipPath18">
      <path
         d="M 0,0 H 1170 V 300 H 0 Z"
         transform="translate(-722.69922,-49.538604)"
         id="path18" />
    </clipPath>
    <clipPath
       clipPathUnits="userSpaceOnUse"
       id="clipPath20">
      <path
         d="M 0,0 H 1170 V 300 H 0 Z"
         transform="translate(-1008.5409,-183.7144)"
         id="path20" />
    </clipPath>
  </defs>
  <g
     inkscape:label="Layer 1"
     inkscape:groupmode="layer"
     id="layer1"
     transform="translate(64.558333,-46.566668)">
    <g
       id="g2"
       transform="matrix(0.26458333,0,0,0.26458333,-64.558333,46.566667)">
      <path
         id="path2"
         d="M 0,0 H 1170 V 300 H 0 Z"
         style="fill:#0f69af;fill-opacity:1;fill-rule:nonzero;stroke:none;stroke-opacity:1"
         transform="matrix(1.3333333,0,0,-1.3333333,0,400)" />
      <path
         id="path3"
         d="m 0,0 c -155.709,-9.524 -171.631,-178.348 -171.631,-178.348 l 127.881,43.411 c 0.674,2.132 40.445,100.339 118.007,109.885 C 94.739,-16.044 103.806,6.349 0,0"
         style="fill:#ffdcb9;fill-opacity:1;fill-rule:nonzero;stroke:none"
         transform="matrix(1.3333333,0,0,-1.3333333,860.63613,281.8456)"
         clip-path="url(#clipPath4)" />
      <path
         id="path5"
         d="m 0,0 c -157,1 -150,-148 -150,-148 l 76,44 c 0.653,1.44 16,71.539 125,95.122 C 69,-2.223 93,-2 0,0"
         style="fill:#96d7d2;fill-opacity:1;fill-rule:nonzero;stroke:none"
         transform="matrix(1.3333333,0,0,-1.3333333,887.79533,290.66667)"
         clip-path="url(#clipPath6)" />
      <path
         id="path7"
         d="m 0,0 c 34.996,-11.054 47.194,-5.004 47.194,-5.004 0,0 -6.52,-25.203 -6.52,-50.008 0,-56.999 -13.052,-133.999 -124.052,-133.999 -80.156,0 -149.742,43.667 -149.742,43.667 0,0 68.742,197.266 233.12,145.344"
         style="fill:#ffdcb9;fill-opacity:1;fill-rule:nonzero;stroke:none"
         transform="matrix(1.3333333,0,0,-1.3333333,1304.2992,103.98573)"
         clip-path="url(#clipPath8)" />
      <path
         id="path9"
         d="m 0,0 c 54.627,5 95.728,14.335 95.728,14.335 0,0 -12.366,-11.316 -14.329,-26.243 -7.053,-53.598 -25.025,-99.669 -133.638,-124.091 -78.432,-17.637 -133.845,3.812 -133.845,3.812 0,0 69.363,121.503 186.084,132.187"
         style="fill:#96d7d2;fill-opacity:1;fill-rule:nonzero;stroke:none"
         transform="matrix(1.3333333,0,0,-1.3333333,1250.0003,130.66667)"
         clip-path="url(#clipPath10)" />
      <path
         id="path11"
         d="m 0,0 c 0,0 15.293,131.218 32.948,165.424 32,62 162.704,-2.643 167,-5.999 4.295,-3.358 -58,-41.001 -97,-100.471 C 56.129,-12.438 0,0 0,0"
         style="fill:#ffdcb9;fill-opacity:1;fill-rule:nonzero;stroke:none"
         transform="matrix(1.3333333,0,0,-1.3333333,1358.5316,141.8984)"
         clip-path="url(#clipPath12)" />
      <path
         id="path13"
         d="m 0,0 c 0,0 23.376,120.527 37.08,148.753 24.839,51.159 90.297,-40.515 92.309,-44.694 C 131.4,99.881 92.45,78.835 63.999,31.703 29.845,-24.879 0,0 0,0"
         style="fill:#96d7d2;fill-opacity:1;fill-rule:nonzero;stroke:none"
         transform="matrix(1.3333333,0,0,-1.3333333,1373.2973,114.97787)"
         clip-path="url(#clipPath14)" />
      <path
         id="path15"
         d="M 0,0 C 0,0 -18.41,125.613 210.918,120.593 222.636,120.337 314,131.932 473.129,254.66 500.52,275.784 545.105,370.523 634.253,377.788"
         style="fill:none;stroke:#2dbecd;stroke-width:7.155;stroke-linecap:round;stroke-linejoin:miter;stroke-miterlimit:4;stroke-dasharray:none;stroke-opacity:1"
         transform="matrix(1.3333333,0,0,-1.3333333,733.12827,457.332)"
         clip-path="url(#clipPath16)" />
      <path
         id="path17"
         d="m 0,0 c 14.864,0 26.914,12.05 26.914,26.914 0,14.864 -12.05,26.914 -26.914,26.914 -14.864,0 -26.914,-12.05 -26.914,-26.914 C -26.914,12.05 -14.864,0 0,0"
         style="fill:#2dbecd;fill-opacity:1;fill-rule:nonzero;stroke:none;stroke-opacity:1"
         transform="matrix(1.3333333,0,0,-1.3333333,977.59893,333.94853)"
         clip-path="url(#clipPath18)" />
      <path
         id="path19"
         d="m 0,0 c 14.864,0 26.914,12.05 26.914,26.914 0,14.864 -12.05,26.914 -26.914,26.914 -14.864,0 -26.914,-12.05 -26.914,-26.914 C -26.914,12.05 -14.864,0 0,0"
         style="fill:#2dbecd;fill-opacity:1;fill-rule:nonzero;stroke:none;stroke-opacity:1"
         transform="matrix(1.3333333,0,0,-1.3333333,1358.7212,155.04747)"
         clip-path="url(#clipPath20)" />
    </g>
    <g
       id="g20"
       transform="matrix(0.26458333,0,0,0.26458333,-64.558333,46.566667)">
      <path
         style="font-weight:700;font-size:55.1377px;font-family:Verdana;fill:#ffdcb9;stroke-width:1.33333"
         d="m 94.748175,321.30738 q 0,2.90766 -1.184599,5.19609 -1.157676,2.28843 -3.203801,3.7961 -2.369198,1.7769 -5.223005,2.53073 -2.826884,0.75384 -7.188362,0.75384 H 60.44865 v -40.08791 h 15.561323 q 4.846087,0 7.080671,0.32307 2.261508,0.32307 4.469169,1.42691 2.28843,1.15767 3.392261,3.12303 1.130754,1.93843 1.130754,4.44225 0,2.90765 -1.534594,5.14223 -1.534595,2.20766 -4.334556,3.44611 v 0.21538 q 3.930715,0.78076 6.219145,3.23072 2.315352,2.44997 2.315352,6.46145 z m -13.24597,-16.47669 q 0,-0.99614 -0.511532,-1.99228 -0.484608,-0.99614 -1.749975,-1.48075 -1.130754,-0.43076 -2.826884,-0.45769 -1.669208,-0.0538 -4.711474,-0.0538 h -0.969217 v 8.48065 h 1.615362 q 2.449966,0 4.173019,-0.0808 1.723054,-0.0808 2.719194,-0.53845 1.39998,-0.61922 1.830744,-1.58844 0.430763,-0.99614 0.430763,-2.28843 z m 2.530734,16.31516 q 0,-1.91151 -0.753836,-2.93458 -0.726913,-1.04998 -2.503811,-1.56151 -1.211522,-0.35 -3.338416,-0.37692 -2.126893,-0.0269 -4.442246,-0.0269 h -2.261507 v 9.98832 h 0.753836 q 4.361478,0 6.246067,-0.0269 1.884589,-0.0269 3.473029,-0.69999 1.615362,-0.67307 2.207662,-1.7769 0.619222,-1.13076 0.619222,-2.58458 z m 36.199641,4.54993 v -6.29991 q -1.96536,0.16154 -4.25379,0.45769 -2.28843,0.26922 -3.47303,0.64614 -1.45382,0.45769 -2.23458,1.34614 -0.75384,0.86152 -0.75384,2.28843 0,0.94229 0.16154,1.53459 0.16154,0.5923 0.80768,1.13076 0.61922,0.53845 1.48075,0.80768 0.86153,0.2423 2.69227,0.2423 1.45383,0 2.93458,-0.5923 1.50767,-0.5923 2.63842,-1.56152 z m 0,4.68456 q -0.78076,0.59229 -1.93843,1.4269 -1.15768,0.8346 -2.18074,1.31921 -1.42691,0.64615 -2.9615,0.9423 -1.53459,0.32307 -3.36534,0.32307 -4.30763,0 -7.21528,-2.66535 -2.907656,-2.66535 -2.907656,-6.81144 0,-3.3115 1.480746,-5.41147 1.48075,-2.09997 4.19995,-3.31149 2.69227,-1.21152 6.67683,-1.72305 3.98456,-0.51153 8.26527,-0.75384 v -0.16154 q 0,-2.50381 -2.04613,-3.4461 -2.04612,-0.96922 -6.03069,-0.96922 -2.39612,0 -5.11531,0.86153 -2.71919,0.8346 -3.90379,1.29229 h -0.88845 v -7.29606 q 1.53459,-0.40384 4.9807,-0.94229 3.47303,-0.56538 6.94606,-0.56538 8.26527,0 11.92676,2.55766 3.68841,2.53073 3.68841,7.96912 v 20.56895 h -9.61141 z m 32.17439,-7.48452 6.89221,-19.54588 h 9.9614 l -16.79977,41.32635 h -10.49985 l 4.79224,-11.30753 -11.76522,-30.01882 h 10.17678 z m 52.02135,-2.63842 h -22.18431 q 0.21539,3.5538 2.69227,5.43838 2.50382,1.88459 7.3499,1.88459 3.06919,0 5.94992,-1.10383 2.88073,-1.10383 4.54994,-2.3692 h 1.07691 v 7.78067 q -3.28457,1.31921 -6.19223,1.91151 -2.90765,0.5923 -6.43452,0.5923 -9.09988,0 -13.94596,-4.09225 -4.84609,-4.09225 -4.84609,-11.65753 0,-7.48452 4.57686,-11.84599 4.60378,-4.38841 12.59982,-4.38841 7.37683,0 11.09216,3.74226 3.71533,3.71533 3.71533,10.71524 z m -9.63833,-5.68069 q -0.0808,-3.04227 -1.50767,-4.57686 -1.4269,-1.5346 -4.44224,-1.5346 -2.79996,0 -4.60379,1.45383 -1.80382,1.45383 -2.0192,4.65763 z m 42.74983,9.42294 q 0,4.68455 -4.19994,7.56528 -4.19994,2.85381 -11.496,2.85381 -4.0384,0 -7.32297,-0.75383 -3.28457,-0.75384 -5.27685,-1.66921 v -7.96912 h 0.88845 q 0.72691,0.51153 1.66921,1.13075 0.96921,0.5923 2.71919,1.29229 1.50767,0.61922 3.41918,1.07691 1.91151,0.43076 4.09225,0.43076 2.85381,0 4.22687,-0.61922 1.37306,-0.64615 1.37306,-1.88459 0,-1.10383 -0.80769,-1.58844 -0.80768,-0.51153 -3.06918,-0.96922 -1.07691,-0.2423 -2.93458,-0.51153 -1.83074,-0.29615 -3.33841,-0.69999 -4.11918,-1.07691 -6.11146,-3.33841 -1.99228,-2.28843 -1.99228,-5.68069 0,-4.36148 4.11918,-7.24221 4.14609,-2.90765 11.30753,-2.90765 3.39226,0 6.48837,0.69999 3.12304,0.67306 4.87301,1.45382 v 7.64605 h -0.8346 q -2.15382,-1.48075 -4.92686,-2.39612 -2.74611,-0.9423 -5.573,-0.9423 -2.34227,0 -3.95763,0.64615 -1.58844,0.64614 -1.58844,1.83074 0,1.07691 0.72691,1.64229 0.72691,0.56538 3.41918,1.13075 1.48075,0.29615 3.17688,0.5923 1.72306,0.26923 3.44611,0.69999 3.82302,0.99614 5.65377,3.14996 1.83074,2.12689 1.83074,5.33069 z m 16.1123,9.58449 h -9.69217 v -30.2342 h 9.69217 z m 0.26923,-34.54183 h -10.23063 v -7.3499 h 10.23063 z m 27.20312,26.65347 v -6.29991 q -1.96536,0.16154 -4.25379,0.45769 -2.28842,0.26922 -3.47302,0.64614 -1.45383,0.45769 -2.23459,1.34614 -0.75383,0.86152 -0.75383,2.28843 0,0.94229 0.16153,1.53459 0.16154,0.5923 0.80768,1.13076 0.61923,0.53845 1.48075,0.80768 0.86153,0.2423 2.69227,0.2423 1.45383,0 2.93458,-0.5923 1.50767,-0.5923 2.63842,-1.56152 z m 0,4.68456 q -0.78076,0.59229 -1.93843,1.4269 -1.15768,0.8346 -2.18074,1.31921 -1.4269,0.64615 -2.9615,0.9423 -1.53459,0.32307 -3.36534,0.32307 -4.30763,0 -7.21528,-2.66535 -2.90765,-2.66535 -2.90765,-6.81144 0,-3.3115 1.48074,-5.41147 1.48075,-2.09997 4.19995,-3.31149 2.69227,-1.21152 6.67683,-1.72305 3.98456,-0.51153 8.26527,-0.75384 v -0.16154 q 0,-2.50381 -2.04613,-3.4461 -2.04612,-0.96922 -6.03068,-0.96922 -2.39612,0 -5.11532,0.86153 -2.71919,0.8346 -3.90379,1.29229 h -0.88845 v -7.29606 q 1.5346,-0.40384 4.9807,-0.94229 3.47303,-0.56538 6.94606,-0.56538 8.26527,0 11.92676,2.55766 3.68841,2.53073 3.68841,7.96912 v 20.56895 h -9.61141 z m 48.89341,3.2038 h -9.74602 v -14.99595 q 0,-1.83074 -0.18846,-3.63456 -0.18846,-1.83075 -0.64615,-2.69228 -0.53845,-0.99614 -1.58844,-1.45382 -1.02306,-0.45769 -2.88073,-0.45769 -1.31921,0 -2.69227,0.43077 -1.34613,0.43076 -2.93457,1.37305 v 21.43048 h -9.69218 v -30.2342 h 9.69218 v 3.33842 q 2.58458,-2.01921 4.95378,-3.09612 2.39612,-1.0769 5.30377,-1.0769 4.89993,0 7.64605,2.8538 2.77304,2.85381 2.77304,8.5345 z"
         id="text20"
         aria-label="Bayesian " />
    </g>
    <g
       id="g21"
       transform="matrix(0.26458333,0,0,0.26458333,-64.558333,46.566667)"
       style="fill:#96d7d2;fill-opacity:1;stroke:none;stroke-opacity:1">
      <path
         style="font-weight:700;font-size:55.1377px;font-family:Verdana;stroke-width:1.33333"
         d="m 392.59416,321.30738 q 0,2.90766 -1.1846,5.19609 -1.15767,2.28843 -3.2038,3.7961 -2.3692,1.7769 -5.223,2.53073 -2.82689,0.75384 -7.18837,0.75384 h -17.49975 v -40.08791 h 15.56132 q 4.84609,0 7.08067,0.32307 2.26151,0.32307 4.46917,1.42691 2.28843,1.15767 3.39226,3.12303 1.13075,1.93843 1.13075,4.44225 0,2.90765 -1.53459,5.14223 -1.5346,2.20766 -4.33456,3.44611 v 0.21538 q 3.93072,0.78076 6.21915,3.23072 2.31535,2.44997 2.31535,6.46145 z m -13.24597,-16.47669 q 0,-0.99614 -0.51153,-1.99228 -0.48461,-0.99614 -1.74998,-1.48075 -1.13075,-0.43076 -2.82688,-0.45769 -1.66921,-0.0538 -4.71147,-0.0538 h -0.96922 v 8.48065 h 1.61536 q 2.44997,0 4.17302,-0.0808 1.72305,-0.0808 2.71919,-0.53845 1.39998,-0.61922 1.83075,-1.58844 0.43076,-0.99614 0.43076,-2.28843 z m 2.53073,16.31516 q 0,-1.91151 -0.75383,-2.93458 -0.72691,-1.04998 -2.50381,-1.56151 -1.21152,-0.35 -3.33842,-0.37692 -2.12689,-0.0269 -4.44224,-0.0269 h -2.26151 v 9.98832 h 0.75383 q 4.36148,0 6.24607,-0.0269 1.88459,-0.0269 3.47303,-0.69999 1.61536,-0.67307 2.20766,-1.7769 0.61922,-1.13076 0.61922,-2.58458 z m 36.19965,4.54993 v -6.29991 q -1.96535,0.16154 -4.25378,0.45769 -2.28843,0.26922 -3.47303,0.64614 -1.45383,0.45769 -2.23459,1.34614 -0.75383,0.86152 -0.75383,2.28843 0,0.94229 0.16153,1.53459 0.16154,0.5923 0.80768,1.13076 0.61923,0.53845 1.48075,0.80768 0.86153,0.2423 2.69227,0.2423 1.45383,0 2.93458,-0.5923 1.50767,-0.5923 2.63842,-1.56152 z m 0,4.68456 q -0.78075,0.59229 -1.93843,1.4269 -1.15768,0.8346 -2.18074,1.31921 -1.4269,0.64615 -2.9615,0.9423 -1.53459,0.32307 -3.36534,0.32307 -4.30763,0 -7.21528,-2.66535 -2.90765,-2.66535 -2.90765,-6.81144 0,-3.3115 1.48075,-5.41147 1.48075,-2.09997 4.19994,-3.31149 2.69227,-1.21152 6.67683,-1.72305 3.98456,-0.51153 8.26527,-0.75384 v -0.16154 q 0,-2.50381 -2.04613,-3.4461 -2.04612,-0.96922 -6.03068,-0.96922 -2.39612,0 -5.11532,0.86153 -2.71919,0.8346 -3.90379,1.29229 h -0.88845 v -7.29606 q 1.5346,-0.40384 4.9807,-0.94229 3.47303,-0.56538 6.94606,-0.56538 8.26527,0 11.92676,2.55766 3.68841,2.53073 3.68841,7.96912 v 20.56895 h -9.61141 z m 34.27435,4.01148 q -3.95764,0 -7.24221,-0.9423 -3.25765,-0.94229 -5.68069,-2.90765 -2.39612,-1.96536 -3.71533,-4.95378 -1.31922,-2.98842 -1.31922,-6.9999 0,-4.22686 1.39998,-7.29605 1.42691,-3.06919 3.95764,-5.08839 2.44997,-1.91152 5.65377,-2.79996 3.2038,-0.88845 6.64991,-0.88845 3.09611,0 5.70761,0.67306 2.6115,0.67307 4.87301,1.74998 v 8.26527 h -1.37306 q -0.56537,-0.48461 -1.37306,-1.13075 -0.78075,-0.64615 -1.93843,-1.26537 -1.10383,-0.5923 -2.42304,-0.96922 -1.31922,-0.40384 -3.06919,-0.40384 -3.87687,0 -5.97684,2.47689 -2.07305,2.44997 -2.07305,6.67683 0,4.36148 2.12689,6.62299 2.15382,2.2615 6.08453,2.2615 1.83075,0 3.28457,-0.40384 1.48075,-0.43076 2.44997,-0.99614 0.91537,-0.53845 1.61536,-1.13075 0.69999,-0.5923 1.29229,-1.15768 h 1.37306 v 8.26527 q -2.28843,1.07691 -4.79224,1.69613 -2.47689,0.64615 -5.49223,0.64615 z m 48.76307,-0.80768 h -11.28061 l -8.48066,-13.16521 -2.63842,3.20381 v 9.9614 h -9.69217 v -41.89173 h 9.69217 v 25.01119 l 10.44601,-13.35366 h 11.17292 l -10.87677,13.03059 z m 53.2969,0 h -28.99576 v -40.08791 h 28.99576 v 7.75374 h -18.71128 v 6.91913 h 17.36514 v 7.75374 h -17.36514 v 9.90756 h 18.71128 z m 38.49366,0 h -9.74602 v -14.99595 q 0,-1.83074 -0.18846,-3.63456 -0.18846,-1.83075 -0.64615,-2.69228 -0.53845,-0.99614 -1.58844,-1.45382 -1.02306,-0.45769 -2.88072,-0.45769 -1.31922,0 -2.69228,0.43077 -1.34613,0.43076 -2.93457,1.37305 v 21.43048 h -9.69217 v -30.2342 h 9.69217 v 3.33842 q 2.58458,-2.01921 4.95378,-3.09612 2.39612,-1.0769 5.30377,-1.0769 4.89993,0 7.64605,2.8538 2.77304,2.85381 2.77304,8.5345 z m 38.28884,0 h -9.69218 v -3.14996 q -2.50381,2.04613 -4.68455,3.01534 -2.18074,0.96922 -5.03454,0.96922 -5.51916,0 -8.83065,-4.25379 -3.31149,-4.25378 -3.31149,-11.46907 0,-3.84995 1.10383,-6.81144 1.13075,-2.98842 3.06919,-5.11532 1.83074,-2.0192 4.44224,-3.12303 2.6115,-1.13075 5.22301,-1.13075 2.71919,0 4.44224,0.5923 1.74998,0.56537 3.58072,1.45382 v -12.86905 h 9.69218 z m -9.69218,-8.34604 v -14.83441 q -1.02306,-0.43077 -2.15381,-0.61922 -1.13076,-0.18846 -2.07305,-0.18846 -3.82303,0 -5.73454,2.39612 -1.91151,2.3692 -1.91151,6.59606 0,4.44225 1.53459,6.46145 1.5346,1.99228 4.92686,1.99228 1.31921,0 2.79996,-0.48461 1.48075,-0.51153 2.6115,-1.31921 z"
         id="text21"
         aria-label="Back End" />
    </g>
    <g
       id="g22"
       transform="matrix(0.26458333,0,0,0.26458333,-64.558333,45.066667)"
       style="fill:#96d7d2;fill-opacity:1;stroke:none;stroke-opacity:1">
      <path
         style="font-size:225.495px;font-family:Merck;stroke-width:1.35247"
         d="m 590.59494,216.47957 q -36.4682,0 -60.17252,-14.89118 -23.70433,-14.89118 -23.70433,-42.54623 V 62.705353 q 0,-4.254623 3.64682,-4.254623 h 58.34911 q 20.66531,0 38.59551,5.470229 17.93019,5.166328 29.17455,16.410687 11.54826,10.940458 11.54826,27.655044 0,6.68584 -3.34292,13.06777 -3.34291,6.07803 -8.81314,10.63656 28.87065,12.45996 28.87065,38.5955 0,23.40043 -20.66531,34.94869 -20.66531,11.24436 -53.48668,11.24436 z m 6.68583,-95.42511 q 5.16633,-3.03901 5.16633,-9.72485 0,-8.50924 -9.11705,-12.459965 -9.11705,-4.254623 -21.57701,-4.254623 -10.63656,0 -16.71459,3.039016 -5.77413,2.735112 -5.77413,10.028752 v 9.42095 q 11.85216,-0.3039 24.91993,0.91171 13.06777,0.9117 23.09652,3.03901 z m -3.03901,58.95691 q 11.24436,0 17.62629,-3.03901 6.38193,-3.03902 6.38193,-8.50925 0,-8.50924 -17.93019,-13.97947 -17.62629,-5.47023 -39.20331,-5.47023 -3.95072,0 -11.85216,0.6078 v 4.55853 q 0,25.83163 44.97744,25.83163 z m 152.62236,33.42918 q -19.7536,0 -35.86039,-8.50924 -15.80288,-8.50925 -24.91993,-23.70433 -9.11705,-15.19508 -9.11705,-34.34088 V 62.705353 q 0,-4.254623 3.64682,-4.254623 h 124.29576 q 11.24436,0 17.62629,6.381934 6.38194,6.381934 6.38194,17.626294 v 12.459966 q 0,3.646819 -4.25463,3.646819 H 743.5212 q -9.11705,0 -15.49898,4.558527 -6.07803,4.55852 -7.90144,12.15606 h 75.6715 q 11.24436,0 17.62629,6.38194 6.38194,6.38193 6.38194,17.62629 v 12.45996 q 0,3.64682 -4.25463,3.64682 h -95.4251 q 2.43121,8.20535 8.81315,13.06777 6.68583,4.86243 15.19508,4.86243 h 63.81933 q 11.24436,0 17.6263,6.38193 6.38193,6.38194 6.38193,17.6263 v 12.45996 q 0,3.64682 -4.25462,3.64682 z"
         id="text22"
         transform="scale(0.98585282,1.0143502)"
         aria-label="BE" />
    </g>
    <g
       id="g23"
       transform="matrix(0.26458333,0,0,0.26458333,-64.558333,44.008333)">
      <path
         style="font-size:225.495px;font-family:Merck;fill:#ffdcb9;stroke-width:1.35247"
         d="m 147.74047,220.42299 q -36.46819,0 -60.17252,-14.89118 Q 63.863624,190.64063 63.863624,162.98558 V 66.648773 q 0,-4.254622 3.646819,-4.254622 h 58.349107 q 20.66531,0 38.59551,5.470229 17.93019,5.166327 29.17455,16.410687 11.54826,10.940458 11.54826,27.655043 0,6.68584 -3.34291,13.06777 -3.34292,6.07803 -8.81315,10.63656 28.87065,12.45996 28.87065,38.5955 0,23.40043 -20.66531,34.94869 -20.66531,11.24436 -53.48668,11.24436 z m 6.68583,-95.42511 q 5.16633,-3.03901 5.16633,-9.72485 0,-8.50924 -9.11705,-12.45997 -9.11705,-4.254618 -21.57701,-4.254618 -10.63656,0 -16.71459,3.039018 -5.77413,2.73511 -5.77413,10.02875 v 9.42095 q 11.85216,-0.3039 24.91993,0.91171 13.06777,0.9117 23.09652,3.03901 z m -3.03901,58.95691 q 11.24436,0 17.62629,-3.03901 6.38194,-3.03902 6.38194,-8.50925 0,-8.50924 -17.9302,-13.97947 -17.62629,-5.47023 -39.20331,-5.47023 -3.95072,0 -11.85216,0.6078 v 4.55853 q 0,25.83163 44.97744,25.83163 z"
         id="text23"
         transform="scale(0.98585282,1.0143502)"
         aria-label="B" />
    </g>
    <g
       id="g24"
       transform="matrix(0.26458333,0,0,0.26458333,-64.558333,45.936052)"
       style="fill:#ffdcb9;fill-opacity:1;stroke:none">
      <path
         style="font-size:176.139px;font-family:Merck;stroke-width:1.35247"
         d="m 300.08801,213.44048 q -17.56643,0 -33.23378,-5.22245 -15.42997,-5.22246 -25.16271,-15.66736 -9.49537,-10.4449 -9.49537,-25.4001 0,-16.14211 13.5309,-23.26364 13.76827,-7.35891 36.08238,-7.35891 h 30.85993 q -4.03553,-6.17198 -10.91966,-9.49536 -6.64676,-3.32338 -15.42997,-3.32338 h -31.80947 q -8.78321,0 -13.76828,-4.98506 -4.98507,-4.98507 -4.98507,-13.76828 v -9.73275 q 0,-2.848609 3.32338,-2.848609 h 46.52729 q 20.41503,0 36.08238,9.020599 15.66735,8.78321 24.21318,24.92533 8.54583,15.90473 8.54583,36.55715 v 47.23944 q 0,3.32338 -2.84861,3.32338 z m -4.27292,-31.33471 q 10.68229,0 17.80381,-4.27291 7.35891,-4.5103 7.59629,-13.29351 h -36.79453 q -7.5963,0 -11.63183,1.4243 -4.03553,1.18692 -4.03553,4.98507 0,5.22245 8.30845,8.30844 8.54583,2.84861 18.75334,2.84861 z m 130.34304,74.53861 q -15.42997,0 -30.14779,-5.69722 -14.71781,-5.45983 -25.87486,-15.42996 -2.37384,-2.37384 -0.71216,-4.27292 l 11.86921,-12.81874 q 4.27291,-4.74768 9.25798,-4.74768 3.79815,0 8.07106,2.84861 6.17199,4.03553 13.29351,6.40937 7.35891,2.37384 14.48043,2.37384 11.39444,0 18.27858,-4.98507 6.88414,-4.98506 6.88414,-14.24304 h -14.71782 q -21.36457,0 -38.21884,-9.25798 -16.61689,-9.49537 -25.87487,-25.63749 -9.02059,-16.14211 -9.02059,-35.845 V 95.697958 q 0,-3.323377 2.8486,-3.323377 h 11.63183 q 8.78321,0 13.76827,4.985066 4.98507,4.985063 4.98507,13.768283 v 21.12718 q 0,12.10659 4.74768,21.83934 4.98507,9.73275 13.05613,15.19258 8.30844,5.45984 17.56642,5.45984 19.22812,0 19.22812,-20.17765 V 95.697958 q 0,-3.323377 2.8486,-3.323377 h 11.63183 q 8.78321,0 13.76827,4.985066 4.98507,4.985063 4.98507,13.768283 v 88.54427 q 0,27.53655 -15.90474,42.25437 -15.90473,14.71781 -42.72913,14.71781 z"
         id="text24"
         transform="scale(0.98585252,1.0143505)"
         aria-label="ay" />
    </g>
  </g>
</svg>
