<?xml version="1.0" encoding="UTF-8" standalone="no"?>
<!-- Created with Inkscape (http://www.inkscape.org/) -->

<svg
   width="212.37222mm"
   height="212.21205mm"
   viewBox="0 0 106.18611 106.10603"
   version="1.1"
   id="svg1"
   inkscape:version="1.3.1 (91b66b0, 2023-11-16)"
   sodipodi:docname="logo2.svg"
   inkscape:export-filename="logo.pdf"
   inkscape:export-xdpi="96"
   inkscape:export-ydpi="96"
   xmlns:inkscape="http://www.inkscape.org/namespaces/inkscape"
   xmlns:sodipodi="http://sodipodi.sourceforge.net/DTD/sodipodi-0.dtd"
   xmlns="http://www.w3.org/2000/svg"
   xmlns:svg="http://www.w3.org/2000/svg">
  <sodipodi:namedview
     id="namedview1"
     pagecolor="#ffffff"
     bordercolor="#000000"
     borderopacity="0.25"
     inkscape:showpageshadow="2"
     inkscape:pageopacity="0.0"
     inkscape:pagecheckerboard="0"
     inkscape:deskcolor="#d1d1d1"
     inkscape:document-units="mm"
     inkscape:zoom="0.87681532"
     inkscape:cx="362.67615"
     inkscape:cy="277.13932"
     inkscape:window-width="3440"
     inkscape:window-height="1387"
     inkscape:window-x="1512"
     inkscape:window-y="25"
     inkscape:window-maximized="0"
     inkscape:current-layer="layer1" />
  <defs
     id="defs1">
    <clipPath
       clipPathUnits="userSpaceOnUse"
       id="clipPath28">
      <path
         d="M 0,0 H 301 V 301 H 0 Z"
         transform="translate(2.5000001e-5)"
         id="path28" />
    </clipPath>
    <clipPath
       clipPathUnits="userSpaceOnUse"
       id="clipPath33">
      <path
         d="M 0,0 H 301 V 300.773 H 0 Z"
         transform="matrix(1.3333333,0,0,1.3333333,1581.3333,0)"
         id="path33" />
    </clipPath>
    <clipPath
       clipPathUnits="userSpaceOnUse"
       id="clipPath31">
      <path
         d="M 0,0 H 301 V 301 H 0 Z"
         transform="translate(2.5000001e-5)"
         id="path31" />
    </clipPath>
    <clipPath
       clipPathUnits="userSpaceOnUse"
       id="clipPath36">
      <path
         d="m 80.074,257.926 c -36.07,2.207 -56.062,22.734 -67.051,42.847 h 57.665 c 9.105,-13.281 23.816,-28.671 44.031,-31.16 8.398,-3.695 12.676,-12.211 -19.27,-12.211 -4.406,0 -9.5,0.164 -15.375,0.524"
         transform="matrix(1.3333333,0,0,1.3333333,1581.3333,0)"
         id="path36" />
    </clipPath>
    <clipPath
       clipPathUnits="userSpaceOnUse"
       id="clipPath34">
      <path
         d="M 0,0 H 301 V 301 H 0 Z"
         transform="translate(2.5000001e-5)"
         id="path34" />
    </clipPath>
    <clipPath
       clipPathUnits="userSpaceOnUse"
       id="clipPath39">
      <path
         d="M 0,0 H 301 V 300.773 H 0 Z"
         transform="matrix(1.3333333,0,0,1.3333333,1581.3333,0)"
         id="path39" />
    </clipPath>
    <clipPath
       clipPathUnits="userSpaceOnUse"
       id="clipPath37">
      <path
         d="M 0,0 H 301 V 301 H 0 Z"
         transform="translate(2.5000001e-5)"
         id="path37" />
    </clipPath>
    <clipPath
       clipPathUnits="userSpaceOnUse"
       id="clipPath42">
      <path
         d="m 126.555,263.5 c 0,0 32.465,20.371 69.863,20.371 51.785,0 57.875,-35.922 57.875,-62.516 0,-11.574 3.043,-23.332 3.043,-23.332 0,0 -5.691,2.825 -22.02,-2.332 -8.921,-2.82 -17.23,-4.062 -24.964,-4.062 -58.747,0.004 -83.797,71.871 -83.797,71.871"
         transform="matrix(1.3333333,0,0,1.3333333,1581.3333,0)"
         id="path42" />
    </clipPath>
    <clipPath
       clipPathUnits="userSpaceOnUse"
       id="clipPath40">
      <path
         d="M 0,0 H 301 V 301 H 0 Z"
         transform="translate(2.5000001e-5)"
         id="path40" />
    </clipPath>
    <clipPath
       clipPathUnits="userSpaceOnUse"
       id="clipPath45">
      <path
         d="M 0,0 H 301 V 300.773 H 0 Z"
         transform="matrix(1.3333333,0,0,1.3333333,1581.3333,0)"
         id="path45" />
    </clipPath>
    <clipPath
       clipPathUnits="userSpaceOnUse"
       id="clipPath43">
      <path
         d="M 0,0 H 301 V 301 H 0 Z"
         transform="translate(2.5000001e-5)"
         id="path43" />
    </clipPath>
    <clipPath
       clipPathUnits="userSpaceOnUse"
       id="clipPath48">
      <path
         d="m 269.664,131.777 c -8.234,15.957 -15.371,77.18 -15.371,77.18 0,0 25.145,5.57 46.707,-25.539 v -63.82 c -2.078,-0.2 -4.137,-0.313 -6.152,-0.313 -10.825,0 -20.383,3.195 -25.184,12.492"
         transform="matrix(1.3333333,0,0,1.3333333,1581.3333,0)"
         id="path48" />
    </clipPath>
    <clipPath
       clipPathUnits="userSpaceOnUse"
       id="clipPath46">
      <path
         d="M 0,0 H 301 V 301 H 0 Z"
         transform="translate(2.5000001e-5)"
         id="path46" />
    </clipPath>
    <clipPath
       clipPathUnits="userSpaceOnUse"
       id="clipPath51">
      <path
         d="M 0,0 H 301 V 300.773 H 0 Z"
         transform="matrix(1.3333333,0,0,1.3333333,1581.3333,0)"
         id="path51" />
    </clipPath>
    <clipPath
       clipPathUnits="userSpaceOnUse"
       id="clipPath49">
      <path
         d="M 0,0 H 301 V 301 H 0 Z"
         transform="matrix(1,0,0,-1,2.5000001e-5,0)"
         id="path49" />
    </clipPath>
    <clipPath
       clipPathUnits="userSpaceOnUse"
       id="clipPath54">
      <path
         d="M 0,0 H 301 V 300.773 H 0 Z"
         transform="matrix(1.3333333,0,0,1.3333333,1581.3333,0)"
         id="path54" />
    </clipPath>
    <clipPath
       clipPathUnits="userSpaceOnUse"
       id="clipPath52">
      <path
         d="M 0,0 H 301 V 301 H 0 Z"
         transform="translate(2.5000001e-5)"
         id="path52" />
    </clipPath>
    <clipPath
       clipPathUnits="userSpaceOnUse"
       id="clipPath57">
      <path
         d="M 0,0 H 301 V 300.773 H 0 Z"
         transform="matrix(1.3333333,0,0,1.3333333,1581.3333,0)"
         id="path57" />
    </clipPath>
    <clipPath
       clipPathUnits="userSpaceOnUse"
       id="clipPath55">
      <path
         d="M 0,0 H 301 V 301 H 0 Z"
         transform="translate(2.5000001e-5)"
         id="path55" />
    </clipPath>
  </defs>
  <g
     inkscape:label="Layer 1"
     inkscape:groupmode="layer"
     id="layer1"
     transform="translate(-51.85832,-95.514583)">
    <path
       id="path26"
       d="M 51.85832,95.514583 H 158.04443 V 201.62061 H 51.85832 Z"
       style="fill:#ffdcb9;fill-opacity:1;fill-rule:nonzero;stroke:none;stroke-width:0.352778" />
    <path
       style="font-weight:700;font-size:13.7015px;font-family:Verdana;fill:#0f69af;stroke-width:0.352778"
       d="m 67.317743,139.18173 q 0,0.72254 -0.294368,1.2912 -0.287678,0.56867 -0.796132,0.94332 -0.588736,0.44155 -1.297896,0.62888 -0.702469,0.18732 -1.78628,0.18732 h -4.34862 v -9.96168 h 3.866927 q 1.204233,0 1.759519,0.0803 0.561975,0.0803 1.110571,0.35458 0.568665,0.28768 0.842963,0.77606 0.280988,0.48169 0.280988,1.10388 0,0.72254 -0.381341,1.27783 -0.38134,0.54859 -1.07712,0.85634 v 0.0535 q 0.976767,0.19402 1.545433,0.80282 0.575356,0.60881 0.575356,1.60565 z m -3.291571,-4.0944 q 0,-0.24753 -0.127114,-0.49507 -0.120423,-0.24754 -0.434862,-0.36796 -0.280987,-0.10704 -0.702469,-0.11373 -0.414792,-0.0134 -1.170783,-0.0134 h -0.240846 v 2.10741 h 0.401411 q 0.608807,0 1.036979,-0.0201 0.428171,-0.0201 0.675708,-0.1338 0.34789,-0.15387 0.454933,-0.39472 0.107043,-0.24754 0.107043,-0.56867 z m 0.628877,4.05426 q 0,-0.47501 -0.187325,-0.72923 -0.180635,-0.26092 -0.622187,-0.38803 -0.301058,-0.087 -0.829583,-0.0937 -0.528525,-0.007 -1.103881,-0.007 h -0.561975 v 2.48206 h 0.187325 q 1.08381,0 1.552123,-0.007 0.468313,-0.007 0.863034,-0.17394 0.401411,-0.16726 0.548595,-0.44156 0.153874,-0.28098 0.153874,-0.64225 z m 8.991646,1.13064 v -1.56551 q -0.488384,0.0402 -1.057049,0.11374 -0.568666,0.0669 -0.863034,0.16056 -0.36127,0.11374 -0.555286,0.33451 -0.187325,0.21409 -0.187325,0.56867 0,0.23415 0.04014,0.38134 0.04014,0.14718 0.200706,0.28099 0.153874,0.1338 0.36796,0.2007 0.214086,0.0602 0.669019,0.0602 0.36127,0 0.72923,-0.14718 0.37465,-0.14719 0.655638,-0.38803 z m 0,1.16409 q -0.194015,0.14718 -0.481693,0.35458 -0.287678,0.2074 -0.541905,0.32782 -0.35458,0.16056 -0.735921,0.23416 -0.38134,0.0803 -0.836273,0.0803 -1.07043,0 -1.79297,-0.66233 -0.72254,-0.66233 -0.72254,-1.69262 0,-0.82289 0.36796,-1.34472 0.367961,-0.52184 1.043669,-0.8229 0.669019,-0.30106 1.659166,-0.42817 0.990148,-0.12711 2.053887,-0.18732 v -0.0401 q 0,-0.62218 -0.508454,-0.85634 -0.508454,-0.24085 -1.498601,-0.24085 -0.595427,0 -1.271136,0.21409 -0.675708,0.2074 -0.970077,0.32113 h -0.220776 v -1.81304 q 0.381341,-0.10035 1.237685,-0.23416 0.863034,-0.14049 1.726068,-0.14049 2.053887,0 2.963752,0.63557 0.916555,0.62887 0.916555,1.98029 v 5.1113 h -2.388396 z m 7.994804,-1.85987 1.712688,-4.85708 h 2.475368 l -4.174675,10.26944 h -2.609173 l 1.190853,-2.80988 -2.923611,-7.45956 h 2.52889 z m 12.925466,-0.65564 h -5.512712 q 0.05352,0.88311 0.669018,1.35142 0.622187,0.46831 1.826421,0.46831 0.762681,0 1.478531,-0.2743 0.71585,-0.27429 1.130641,-0.58873 h 0.267608 v 1.93346 q -0.816203,0.32782 -1.538743,0.475 -0.72254,0.14719 -1.598954,0.14719 -2.261283,0 -3.465517,-1.01691 -1.204233,-1.01691 -1.204233,-2.89685 0,-1.85987 1.137332,-2.94368 1.144021,-1.0905 3.131006,-1.0905 1.833111,0 2.756357,0.92993 0.923245,0.92325 0.923245,2.6627 z m -2.395086,-1.41163 q -0.02007,-0.75599 -0.37465,-1.13733 -0.35458,-0.38134 -1.103881,-0.38134 -0.695779,0 -1.144022,0.36127 -0.448242,0.36127 -0.501764,1.1574 z m 10.624051,2.34157 q 0,1.16409 -1.04367,1.87994 -1.04367,0.70916 -2.856711,0.70916 -1.003527,0 -1.81973,-0.18733 -0.816203,-0.18732 -1.311276,-0.41479 v -1.98029 h 0.220776 q 0.180635,0.12711 0.414791,0.28098 0.240847,0.14719 0.675709,0.32113 0.37465,0.15388 0.849653,0.26761 0.475004,0.10704 1.016909,0.10704 0.709159,0 1.050359,-0.15387 0.3412,-0.16057 0.3412,-0.46831 0,-0.2743 -0.20071,-0.39472 -0.200702,-0.12712 -0.762677,-0.24085 -0.267608,-0.0602 -0.729231,-0.12711 -0.454932,-0.0736 -0.829583,-0.17395 -1.023598,-0.26761 -1.518672,-0.82958 -0.495074,-0.56867 -0.495074,-1.41163 0,-1.08381 1.023599,-1.79966 1.030288,-0.72254 2.809878,-0.72254 0.84296,0 1.61233,0.17394 0.77607,0.16726 1.21093,0.36127 v 1.90002 h -0.2074 q -0.53521,-0.36796 -1.2243,-0.59543 -0.6824,-0.23416 -1.38487,-0.23416 -0.582046,0 -0.983457,0.16057 -0.394721,0.16056 -0.394721,0.45493 0,0.26761 0.180635,0.4081 0.180635,0.1405 0.849653,0.28099 0.367961,0.0736 0.78944,0.14718 0.42817,0.0669 0.85635,0.17395 0.95,0.24753 1.40493,0.78275 0.45494,0.52852 0.45494,1.32466 z m 4.00745,2.3817 h -2.40846 v -7.51308 h 2.40846 z m 0.0669,-8.58351 h -2.54227 v -1.82642 h 2.54227 z m 6.7571,6.62329 v -1.56551 q -0.48839,0.0402 -1.05705,0.11374 -0.56867,0.0669 -0.86304,0.16056 -0.36127,0.11374 -0.55528,0.33451 -0.18733,0.21409 -0.18733,0.56867 0,0.23415 0.0401,0.38134 0.0402,0.14718 0.20071,0.28099 0.15387,0.1338 0.36796,0.2007 0.21409,0.0602 0.66902,0.0602 0.36127,0 0.72923,-0.14718 0.37465,-0.14719 0.65564,-0.38803 z m 0,1.16409 q -0.19402,0.14718 -0.4817,0.35458 -0.28767,0.2074 -0.5419,0.32782 -0.35458,0.16056 -0.73592,0.23416 -0.38134,0.0803 -0.83627,0.0803 -1.07043,0 -1.79297,-0.66233 -0.72254,-0.66233 -0.72254,-1.69262 0,-0.82289 0.36796,-1.34472 0.36796,-0.52184 1.04366,-0.8229 0.66902,-0.30106 1.65917,-0.42817 0.99015,-0.12711 2.05389,-0.18732 v -0.0401 q 0,-0.62218 -0.50846,-0.85634 -0.50845,-0.24085 -1.4986,-0.24085 -0.59542,0 -1.27113,0.21409 -0.67571,0.2074 -0.97008,0.32113 h -0.22078 v -1.81304 q 0.38134,-0.10035 1.23769,-0.23416 0.86303,-0.14049 1.72607,-0.14049 2.05388,0 2.96375,0.63557 0.91655,0.62887 0.91655,1.98029 v 5.1113 h -2.38839 z m 12.14941,0.79613 h -2.42184 v -3.72643 q 0,-0.45493 -0.0468,-0.90318 -0.0468,-0.45493 -0.16057,-0.66901 -0.1338,-0.24754 -0.39472,-0.36127 -0.25423,-0.11374 -0.71585,-0.11374 -0.32782,0 -0.66902,0.10705 -0.33451,0.10704 -0.72923,0.34119 v 5.32539 h -2.40846 v -7.51308 h 2.40846 v 0.82959 q 0.64226,-0.50177 1.231,-0.76937 0.59542,-0.26761 1.31796,-0.26761 1.21762,0 1.90002,0.70916 0.68908,0.70916 0.68908,2.12079 z"
       id="text27"
       aria-label="Bayesian" />
    <path
       style="font-weight:700;font-size:13.7015px;font-family:Verdana;fill:#2dbecd;stroke-width:0.352778"
       d="m 67.317743,154.05767 q 0,0.72254 -0.294368,1.29121 -0.287678,0.56867 -0.796132,0.94332 -0.588736,0.44155 -1.297896,0.62887 -0.702469,0.18733 -1.78628,0.18733 h -4.34862 v -9.96169 h 3.866927 q 1.204233,0 1.759519,0.0803 0.561975,0.0803 1.110571,0.35458 0.568665,0.28768 0.842963,0.77607 0.280988,0.48169 0.280988,1.10388 0,0.72254 -0.381341,1.27782 -0.38134,0.5486 -1.07712,0.85635 v 0.0535 q 0.976767,0.19401 1.545433,0.80282 0.575356,0.60881 0.575356,1.60564 z m -3.291571,-4.09439 q 0,-0.24754 -0.127114,-0.49507 -0.120423,-0.24754 -0.434862,-0.36796 -0.280987,-0.10705 -0.702469,-0.11374 -0.414792,-0.0134 -1.170783,-0.0134 h -0.240846 v 2.10741 h 0.401411 q 0.608807,0 1.036979,-0.0201 0.428171,-0.0201 0.675708,-0.1338 0.34789,-0.15388 0.454933,-0.39472 0.107043,-0.24754 0.107043,-0.56867 z m 0.628877,4.05425 q 0,-0.475 -0.187325,-0.72923 -0.180635,-0.26091 -0.622187,-0.38803 -0.301058,-0.087 -0.829583,-0.0937 -0.528525,-0.007 -1.103881,-0.007 h -0.561975 v 2.48206 h 0.187325 q 1.08381,0 1.552123,-0.007 0.468313,-0.007 0.863034,-0.17395 0.401411,-0.16725 0.548595,-0.44155 0.153874,-0.28099 0.153874,-0.64226 z m 8.991646,1.13064 v -1.5655 q -0.488384,0.0401 -1.057049,0.11373 -0.568666,0.0669 -0.863034,0.16057 -0.36127,0.11373 -0.555286,0.33451 -0.187325,0.21408 -0.187325,0.56866 0,0.23416 0.04014,0.38134 0.04014,0.14719 0.200706,0.28099 0.153874,0.13381 0.36796,0.20071 0.214086,0.0602 0.669019,0.0602 0.36127,0 0.72923,-0.14719 0.37465,-0.14718 0.655638,-0.38803 z m 0,1.1641 q -0.194015,0.14718 -0.481693,0.35458 -0.287678,0.20739 -0.541905,0.32782 -0.35458,0.16056 -0.735921,0.23415 -0.38134,0.0803 -0.836273,0.0803 -1.07043,0 -1.79297,-0.66232 -0.72254,-0.66233 -0.72254,-1.69262 0,-0.82289 0.36796,-1.34473 0.367961,-0.52183 1.043669,-0.82289 0.669019,-0.30106 1.659166,-0.42817 0.990148,-0.12712 2.053887,-0.18733 v -0.0401 q 0,-0.62219 -0.508454,-0.85634 -0.508454,-0.24085 -1.498601,-0.24085 -0.595427,0 -1.271136,0.21409 -0.675708,0.20739 -0.970077,0.32112 h -0.220776 v -1.81304 q 0.381341,-0.10035 1.237685,-0.23415 0.863034,-0.1405 1.726068,-0.1405 2.053887,0 2.963752,0.63557 0.916555,0.62888 0.916555,1.9803 v 5.1113 h -2.388396 z m 8.516639,0.99683 q -0.983458,0 -1.79966,-0.23415 -0.809513,-0.23416 -1.411629,-0.72254 -0.595427,-0.48839 -0.923246,-1.231 -0.327819,-0.74261 -0.327819,-1.73944 0,-1.05036 0.34789,-1.81305 0.354579,-0.76268 0.983457,-1.26444 0.608807,-0.475 1.404939,-0.69578 0.796132,-0.22078 1.652476,-0.22078 0.769371,0 1.418319,0.16726 0.648948,0.16725 1.210924,0.43486 v 2.05389 h -0.3412 q -0.140494,-0.12043 -0.341199,-0.28099 -0.194016,-0.16056 -0.481694,-0.31444 -0.274297,-0.14718 -0.602116,-0.24085 -0.327819,-0.10035 -0.762682,-0.10035 -0.963386,0 -1.485221,0.6155 -0.515144,0.60881 -0.515144,1.65917 0,1.08381 0.528525,1.64578 0.535214,0.56198 1.511982,0.56198 0.454932,0 0.816202,-0.10036 0.36796,-0.10704 0.608807,-0.24753 0.227466,-0.13381 0.401411,-0.28099 0.173945,-0.14719 0.321129,-0.28768 h 0.3412 v 2.05389 q -0.568666,0.26761 -1.190853,0.42148 -0.615498,0.16056 -1.364798,0.16056 z m 12.122641,-0.2007 h -2.803187 l -2.107409,-3.2715 -0.655638,0.79613 v 2.47537 h -2.408467 v -10.40993 h 2.408467 v 6.21518 l 2.595792,-3.31833 h 2.776427 l -2.702835,3.23805 z"
       id="text28"
       aria-label="Back " />
    <path
       style="font-weight:700;font-size:13.7015px;font-family:Verdana;fill:#2dbecd;stroke-width:0.352778"
       d="m 106.68963,157.10172 h -7.205329 v -9.96169 h 7.205329 v 1.92677 h -4.64968 v 1.71938 h 4.31517 v 1.92677 h -4.31517 v 2.46199 h 4.64968 z m 9.56698,0 h -2.42185 v -3.72644 q 0,-0.45493 -0.0468,-0.90317 -0.0468,-0.45494 -0.16057,-0.66902 -0.1338,-0.24754 -0.39472,-0.36127 -0.25422,-0.11374 -0.71585,-0.11374 -0.32782,0 -0.66902,0.10705 -0.3345,0.10704 -0.72923,0.3412 v 5.32539 h -2.40846 v -7.51308 h 2.40846 v 0.82958 q 0.64226,-0.50176 1.231,-0.76937 0.59543,-0.26761 1.31797,-0.26761 1.21761,0 1.90001,0.70916 0.68909,0.70916 0.68909,2.12079 z m 9.52018,0 h -2.40846 v -0.78276 q -0.62219,0.50846 -1.1641,0.7493 -0.5419,0.24085 -1.25106,0.24085 -1.37149,0 -2.19438,-1.05705 -0.82289,-1.05705 -0.82289,-2.85002 0,-0.95669 0.27429,-1.69261 0.28099,-0.74262 0.76268,-1.27114 0.45494,-0.50176 1.10388,-0.77606 0.64895,-0.28099 1.2979,-0.28099 0.67571,0 1.10388,0.14719 0.43486,0.14049 0.8898,0.36127 v -3.19791 h 2.40846 z m -2.40846,-2.07396 v -3.68629 q -0.25423,-0.10705 -0.53522,-0.15388 -0.28099,-0.0468 -0.51514,-0.0468 -0.95001,0 -1.42501,0.59543 -0.47501,0.58873 -0.47501,1.63909 0,1.10388 0.38134,1.60565 0.38135,0.49507 1.22431,0.49507 0.32782,0 0.69578,-0.12042 0.36796,-0.12712 0.64895,-0.32782 z"
       id="text28-0"
       aria-label="End" />
    <g
       id="g29"
       transform="matrix(0.26458333,0,0,0.26458333,-365.69104,94.014582)">
      <path
         d="m 199.906,78.488 c 13.992,0 25.672,-4.652 25.672,-16.453 0,-6.172 -3.367,-10.824 -9.996,-13.746 2.527,-2.059 4.211,-5.199 4.211,-8.445 0,-12.559 -14.102,-17.645 -27.461,-17.645 h -20.199 c -0.844,0 -1.262,0.543 -1.262,1.516 v 34.316 c 0,13.746 13.043,20.457 29.035,20.457 M 202.223,44.5 c -4.629,-0.977 -11.258,-1.516 -16.625,-1.41 v -3.356 c 0,-3.679 3.367,-4.652 7.785,-4.652 4.945,0 10.625,1.516 10.625,5.953 0,1.731 -0.735,2.813 -1.785,3.465 m -1.055,21 c -9.68,0 -15.57,-2.598 -15.57,-9.203 v -1.621 c 9.679,-0.977 23.882,1.73 23.882,6.711 0,2.597 -3.156,4.113 -8.312,4.113 m 52.816,11.906 h 27.985 c 0.945,0 1.472,-0.433 1.472,-1.301 v -4.437 c 0,-2.703 -0.738,-4.762 -2.211,-6.277 -1.472,-1.516 -3.468,-2.274 -6.101,-2.274 h -22.094 c -2.101,0 -3.89,-0.648 -5.363,-1.84 -1.473,-1.191 -2.422,-2.707 -2.945,-4.547 h 33.035 c 0.945,0 1.472,-0.433 1.472,-1.296 v -4.442 c 0,-2.703 -0.738,-4.762 -2.211,-6.277 -1.472,-1.516 -3.472,-2.274 -6.101,-2.274 h -26.195 c 0.418,-1.839 1.367,-3.246 2.734,-4.328 1.367,-1.082 3.156,-1.625 5.363,-1.625 h 28.094 c 0.945,0 1.473,-0.433 1.473,-1.3 V 30.75 c 0,-2.703 -0.739,-4.762 -2.211,-6.277 -1.473,-1.516 -3.473,-2.274 -6.102,-2.274 h -43.031 c -0.84,0 -1.262,0.543 -1.262,1.516 v 29.984 c 0,3.356 0.633,6.496 1.789,9.418 1.156,2.922 2.84,5.52 5.051,7.578 2.102,2.059 4.629,3.68 7.68,4.871 2.945,1.192 6.207,1.84 9.679,1.84"
         style="fill:#2dbecd;fill-opacity:1;fill-rule:nonzero;stroke:none"
         transform="matrix(1.3333333,0,0,1.3333333,1581.3333,-2)"
         clip-path="url(#clipPath28)"
         id="path29" />
    </g>
    <path
       id="path30"
       d="m 69.140726,121.17422 c 4.937477,0 9.056511,-1.64112 9.056511,-5.80425 0,-2.17734 -1.188156,-3.81847 -3.525309,-4.84928 0.890412,-0.72637 1.484136,-1.83409 1.484136,-2.97921 0,-4.43054 -4.973108,-6.22476 -9.687277,-6.22476 h -7.126111 c -0.296333,0 -0.444852,0.19155 -0.444852,0.53481 v 12.10592 c 0,4.84928 4.602338,7.21677 10.242902,7.21677 m 0.817033,-11.99021 c -1.633008,-0.34466 -3.971572,-0.53481 -5.86493,-0.49741 v -1.18393 c 0,-1.29786 1.187803,-1.64112 2.747786,-1.64112 1.743428,0 3.748264,0.53481 3.748264,2.10009 0,0.61066 -0.26035,0.99236 -0.63112,1.22237 m -0.370769,7.40834 c -3.414536,0 -5.494161,-0.91652 -5.494161,-3.24662 v -0.57185 c 3.414889,-0.34466 8.425391,0.61031 8.425391,2.36749 0,0.91617 -1.113366,1.45098 -2.93123,1.45098 m 18.159941,4.55044 h 6.292144 c 0.231422,0 0.347133,-0.14887 0.347133,-0.41734 v -5.99581 c 0,-1.22237 -0.202494,-2.35655 -0.579967,-3.43006 -0.376413,-1.0735 -0.927452,-1.99813 -1.652411,-2.80423 -0.724958,-0.80504 -1.62313,-1.43192 -2.638777,-1.87854 -1.043164,-0.44767 -2.232378,-0.68615 -3.536245,-0.68615 h -5.682897 c -0.260349,0 -0.405341,0.11853 -0.405341,0.35701 v 1.22379 c 0,0.74542 0.202847,1.31303 0.609247,1.72931 0.404989,0.41769 0.956381,0.62689 1.681339,0.62689 h 3.942291 c 0.667103,0 1.305278,0.14887 1.854906,0.44803 0.551391,0.29774 0.986719,0.68615 1.304925,1.1631 h -3.768725 c -1.941689,0 -3.449461,0.32773 -4.493683,0.9839 -1.043517,0.65582 -1.565628,1.61078 -1.565628,2.8635 0,1.04457 0.261761,1.93887 0.782814,2.68428 0.493183,0.74719 1.160286,1.34232 1.972028,1.79035 0.811388,0.47802 1.709913,0.8061 2.695222,1.01424 0.957791,0.20919 1.914172,0.32773 2.841625,0.32773 z m -0.522464,-3.937 c -0.985309,0 -1.76777,-0.14887 -2.377017,-0.41769 -0.607483,-0.26846 -0.927453,-0.59655 -0.927453,-0.9839 0,-0.2988 0.144639,-0.50694 0.464609,-0.62688 0.318205,-0.11854 0.782461,-0.17921 1.449564,-0.17921 h 4.493683 c -0.02893,0.77611 -0.348545,1.34373 -0.957439,1.67181 -0.607836,0.35666 -1.332795,0.53587 -2.145947,0.53587 m 15.913793,9.3666 c 4.26085,0 7.16033,-2.44616 7.16033,-7.15892 v -11.12626 c 0,-1.46226 -0.84067,-2.35655 -2.29023,-2.35655 h -1.42099 c -0.23142,0 -0.34713,0.14887 -0.34713,0.41769 v 7.39739 c 0,1.52118 -0.60925,2.53542 -2.34809,2.53542 -2.26166,0 -4.320462,-2.17735 -4.320462,-5.34 v -2.65395 c 0,-1.46226 -0.840316,-2.35655 -2.290233,-2.35655 h -1.420636 c -0.231422,0 -0.347133,0.14887 -0.347133,0.41769 v 4.98157 c 0,4.95124 3.564819,8.88824 8.928094,8.88824 h 1.79846 c 0,1.61113 -1.276,2.41582 -3.07305,2.41582 -1.18921,0 -2.43627,-0.44662 -3.392654,-1.10243 -0.782814,-0.53763 -1.478845,-0.47837 -2.116667,0.23848 l -1.448506,1.61078 c -0.174977,0.1778 -0.08819,0.35701 0.08678,0.53622 1.825977,1.70039 4.347987,2.65536 6.842117,2.65536"
       style="fill:#0f69af;fill-opacity:1;fill-rule:nonzero;stroke:none;stroke-width:0.352778"
       sodipodi:nodetypes="cscssssscccsssccscscsssscccsssscssccscscccsccscsccccsssssssssssssscsccccc" />
    <g
       id="g32"
       clip-path="url(#clipPath33)"
       transform="matrix(0.26458333,0,0,0.26458333,-366.53611,95.514583)">
      <path
         d="M 80.074,257.926 C 7.43,262.367 0,341.133 0,341.133 l 59.664,-20.254 c 0.313,-0.996 18.867,-46.813 55.055,-51.266 9.554,-4.203 13.785,-14.648 -34.645,-11.687"
         style="fill:#96d7d2;fill-opacity:1;fill-rule:nonzero;stroke:none"
         transform="matrix(1.3333333,0,0,1.3333333,1581.3333,0)"
         clip-path="url(#clipPath31)"
         id="path32" />
    </g>
    <g
       id="g36"
       clip-path="url(#clipPath36)"
       transform="matrix(0.26458333,0,0,0.26458333,-366.53611,95.514583)">
      <g
         id="g35">
        <path
           d="m 89.578,261.012 c -73.25,-0.469 -69.984,69.05 -69.984,69.05 l 35.461,-20.531 c 0.3,-0.668 7.465,-33.375 58.316,-44.379 8.399,-3.101 19.594,-3.207 -23.793,-4.14"
           style="fill:#2dbecd;fill-opacity:1;fill-rule:nonzero;stroke:none"
           transform="matrix(1.3333333,0,0,1.3333333,1581.3333,0)"
           clip-path="url(#clipPath34)"
           id="path35" />
      </g>
    </g>
    <g
       id="g38"
       clip-path="url(#clipPath39)"
       transform="matrix(0.26458333,0,0,0.26458333,-366.53611,95.514583)">
      <path
         d="m 235.316,195.691 c 16.329,5.157 22.02,2.332 22.02,2.332 0,0 -3.043,11.758 -3.043,23.332 0,26.594 -6.09,62.516 -57.875,62.516 -37.398,0 -69.863,-20.371 -69.863,-20.371 0,0 33.00678,-77.67103 108.761,-67.809"
         style="fill:#96d7d2;fill-opacity:1;fill-rule:nonzero;stroke:none"
         transform="matrix(1.3333333,0,0,1.3333333,1581.3333,0)"
         clip-path="url(#clipPath37)"
         id="path38"
         sodipodi:nodetypes="ccsscc" />
    </g>
    <g
       id="g42"
       clip-path="url(#clipPath42)"
       transform="matrix(0.26458333,0,0,0.26458333,-366.53611,95.514583)">
      <g
         id="g41">
        <path
           d="m 220.37538,205.65152 c 25.489,-2.336 40.60462,-7.31552 40.60462,-7.31552 0,0 -5.769,5.281 -6.687,12.246 -3.289,25.004 -11.676,46.5 -62.348,57.895 -36.593,8.226 -62.445,-4.27608 -62.445,-4.27608 0,0 36.42238,-53.5644 90.87538,-58.5494"
           style="fill:#2dbecd;fill-opacity:1;fill-rule:nonzero;stroke:none"
           transform="matrix(1.3333333,0,0,1.3333333,1581.3333,0)"
           clip-path="url(#clipPath40)"
           id="path41"
           sodipodi:nodetypes="cccccc" />
      </g>
    </g>
    <g
       id="g44"
       clip-path="url(#clipPath45)"
       transform="matrix(0.26458333,0,0,0.26458333,-366.53611,95.514583)">
      <path
         d="m 254.293,208.957 c 0,0 5.88796,-55.29006 14.12596,-71.24706 14.93,-28.925 103.3849,-27.80519 105.3889,-26.23919 2.004,1.563 -53.28786,42.23625 -71.48386,69.97825 -21.844,33.309 -48.031,27.508 -48.031,27.508"
         style="fill:#96d7d2;fill-opacity:1;fill-rule:nonzero;stroke:none"
         transform="matrix(1.3333333,0,0,1.3333333,1581.3333,0)"
         clip-path="url(#clipPath43)"
         id="path44"
         sodipodi:nodetypes="ccccc" />
    </g>
    <g
       id="g48"
       clip-path="url(#clipPath48)"
       transform="matrix(0.26458333,0,0,0.26458333,-366.53611,95.514583)">
      <g
         id="g47">
        <path
           d="m 261.0223,197.03692 c 0,0 5.78557,-46.25158 15.11518,-57.53212 16.89842,-20.43614 81.56118,-29.87498 62.42613,4.92574 0.938,1.95 -30.03667,20.19702 -49.24361,40.31546 -21.2916,22.30326 -28.2977,12.29092 -28.2977,12.29092"
           style="fill:#2dbecd;fill-opacity:1;fill-rule:nonzero;stroke:none"
           transform="matrix(1.3333333,0,0,1.3333333,1581.3333,0)"
           clip-path="url(#clipPath46)"
           id="path47"
           sodipodi:nodetypes="ccccc" />
      </g>
    </g>
    <g
       id="g50"
       clip-path="url(#clipPath51)"
       transform="matrix(0.26458333,0,0,0.26458333,-366.53611,95.514583)">
      <path
         d="m 35.457,-319.332 c 0,0 -8.59,58.605 98.406,56.266 5.465,-0.122 48.09,5.289 122.332,62.546 12.782,9.856 28.58584,67.79845 70.17584,71.18545"
         style="fill:none;stroke:#0f69af;stroke-width:3.33809;stroke-linecap:round;stroke-linejoin:miter;stroke-miterlimit:4;stroke-dasharray:none;stroke-opacity:1"
         transform="matrix(1.3333333,0,0,-1.3333333,1581.3333,0)"
         clip-path="url(#clipPath49)"
         id="path50"
         sodipodi:nodetypes="cccc" />
    </g>
    <g
       id="g53"
       clip-path="url(#clipPath54)"
       transform="matrix(0.26458333,0,0,0.26458333,-366.53611,95.514583)">
      <path
         d="m 121,276.156 c 6.938,0 12.559,-5.621 12.559,-12.558 0,-6.934 -5.621,-12.555 -12.559,-12.555 -6.934,0 -12.555,5.621 -12.555,12.555 0,6.937 5.621,12.558 12.555,12.558"
         style="fill:#0f69af;fill-opacity:1;fill-rule:nonzero;stroke:none"
         transform="matrix(1.3333333,0,0,1.3333333,1581.3333,0)"
         clip-path="url(#clipPath52)"
         id="path53" />
    </g>
    <g
       id="g56"
       clip-path="url(#clipPath57)"
       transform="matrix(0.26458333,0,0,0.26458333,-366.53611,95.514583)">
      <path
         d="m 254.359,213.559 c 6.938,0 12.559,-5.625 12.559,-12.559 0,-6.934 -5.621,-12.555 -12.559,-12.555 -6.933,0 -12.554,5.621 -12.554,12.555 0,6.934 5.621,12.559 12.554,12.559"
         style="fill:#0f69af;fill-opacity:1;fill-rule:nonzero;stroke:none"
         transform="matrix(1.3333333,0,0,1.3333333,1581.3333,0)"
         clip-path="url(#clipPath55)"
         id="path56" />
    </g>
  </g>
</svg>
