<?xml version="1.0" encoding="UTF-8" standalone="no"?>
<!-- Created with Inkscape (http://www.inkscape.org/) -->

<svg
   width="412.75mm"
   height="105.83333mm"
   viewBox="0 0 412.75 105.83333"
   version="1.1"
   id="svg1"
   inkscape:version="1.3.1 (91b66b0, 2023-11-16)"
   sodipodi:docname="banner_v2.svg"
   xmlns:inkscape="http://www.inkscape.org/namespaces/inkscape"
   xmlns:sodipodi="http://sodipodi.sourceforge.net/DTD/sodipodi-0.dtd"
   xmlns="http://www.w3.org/2000/svg"
   xmlns:svg="http://www.w3.org/2000/svg">
  <sodipodi:namedview
     id="namedview1"
     pagecolor="#ffffff"
     bordercolor="#000000"
     borderopacity="0.25"
     inkscape:showpageshadow="2"
     inkscape:pageopacity="0.0"
     inkscape:pagecheckerboard="0"
     inkscape:deskcolor="#d1d1d1"
     inkscape:document-units="mm"
     inkscape:zoom="0.73453373"
     inkscape:cx="1167.4072"
     inkscape:cy="-159.28472"
     inkscape:window-width="1728"
     inkscape:window-height="1387"
     inkscape:window-x="3232"
     inkscape:window-y="25"
     inkscape:window-maximized="0"
     inkscape:current-layer="layer1" />
  <defs
     id="defs1">
    <clipPath
       clipPathUnits="userSpaceOnUse"
       id="clipPath4">
      <path
         d="M 0,0 H 1170 V 300 H 0 Z"
         transform="translate(-634.97711,-88.615802)"
         id="path4" />
    </clipPath>
    <clipPath
       clipPathUnits="userSpaceOnUse"
       id="clipPath6">
      <path
         d="M 634.977,88.616 C 559.593,84.005 516.971,42.052 493.06,0 v 0 h 124.052 c 19.651,27.677 50.425,58.432 92.122,63.564 v 0 c 17.999,7.916 27.183,26.169 -41.303,26.169 v 0 c -9.447,0 -20.371,-0.348 -32.954,-1.117"
         transform="translate(-655.34651,-82)"
         id="path6" />
    </clipPath>
    <clipPath
       clipPathUnits="userSpaceOnUse"
       id="clipPath8">
      <path
         d="M 0,0 H 1170 V 300 H 0 Z"
         transform="translate(-967.72442,-222.01071)"
         id="path8" />
    </clipPath>
    <clipPath
       clipPathUnits="userSpaceOnUse"
       id="clipPath10">
      <path
         d="m 734.604,76.667 c 0,0 69.586,-43.667 149.742,-43.667 v 0 c 111,0 124.053,77 124.053,133.999 v 0 c 0,24.804 6.519,50.008 6.519,50.008 v 0 c 0,0 -12.197,-6.05 -47.194,5.004 v 0 c -19.122,6.04 -36.936,8.708 -53.512,8.707 v 0 C 788.297,230.706 734.604,76.667 734.604,76.667"
         transform="translate(-927.00025,-202)"
         id="path10" />
    </clipPath>
    <clipPath
       clipPathUnits="userSpaceOnUse"
       id="clipPath12">
      <path
         d="M 0,0 H 1170 V 300 H 0 Z"
         transform="translate(-1008.3987,-193.5762)"
         id="path12" />
    </clipPath>
    <clipPath
       clipPathUnits="userSpaceOnUse"
       id="clipPath14">
      <path
         d="m 1024.777,300 c -9.665,-48.823 -16.378,-106.424 -16.378,-106.424 v 0 c 0,0 56.128,-12.437 102.947,58.954 v 0 c 11.75,17.917 25.618,33.856 39.138,47.47 v 0 z"
         transform="translate(-1019.473,-213.7666)"
         id="path14" />
    </clipPath>
    <clipPath
       clipPathUnits="userSpaceOnUse"
       id="clipPath16">
      <path
         d="M 0,0 H 1170 V 300 H 0 Z"
         transform="translate(-539.34622,42.999001)"
         id="path16" />
    </clipPath>
    <clipPath
       clipPathUnits="userSpaceOnUse"
       id="clipPath18">
      <path
         d="M 0,0 H 1170 V 300 H 0 Z"
         transform="translate(-722.69922,-49.538604)"
         id="path18" />
    </clipPath>
    <clipPath
       clipPathUnits="userSpaceOnUse"
       id="clipPath20">
      <path
         d="M 0,0 H 1170 V 300 H 0 Z"
         transform="translate(-1008.5409,-183.7144)"
         id="path20" />
    </clipPath>
  </defs>
  <g
     inkscape:label="Layer 1"
     inkscape:groupmode="layer"
     id="layer1"
     transform="translate(64.558333,-46.566668)">
    <g
       id="g2"
       transform="matrix(0.26458333,0,0,0.26458333,-64.558333,46.566667)">
      <path
         id="path2"
         d="M 0,0 H 1170 V 300 H 0 Z"
         style="fill:#ffdcb9;fill-opacity:1;fill-rule:nonzero;stroke:none"
         transform="matrix(1.3333333,0,0,-1.3333333,0,400)" />
      <path
         id="path3"
         d="m 0,0 c -155.709,-9.524 -171.631,-178.348 -171.631,-178.348 l 127.881,43.411 c 0.674,2.132 40.445,100.339 118.007,109.885 C 94.739,-16.044 103.806,6.349 0,0"
         style="fill:#96d7d2;fill-opacity:1;fill-rule:nonzero;stroke:none"
         transform="matrix(1.3333333,0,0,-1.3333333,860.63613,281.8456)"
         clip-path="url(#clipPath4)" />
      <path
         id="path5"
         d="m 0,0 c -157,1 -150,-148 -150,-148 l 76,44 c 0.653,1.44 16,71.539 125,95.122 C 69,-2.223 93,-2 0,0"
         style="fill:#2dbecd;fill-opacity:1;fill-rule:nonzero;stroke:none"
         transform="matrix(1.3333333,0,0,-1.3333333,887.79533,290.66667)"
         clip-path="url(#clipPath6)" />
      <path
         id="path7"
         d="m 0,0 c 34.996,-11.054 47.194,-5.004 47.194,-5.004 0,0 -6.52,-25.203 -6.52,-50.008 0,-56.999 -13.052,-133.999 -124.052,-133.999 -80.156,0 -149.742,43.667 -149.742,43.667 0,0 68.742,197.266 233.12,145.344"
         style="fill:#96d7d2;fill-opacity:1;fill-rule:nonzero;stroke:none"
         transform="matrix(1.3333333,0,0,-1.3333333,1304.2992,103.98573)"
         clip-path="url(#clipPath8)" />
      <path
         id="path9"
         d="m 0,0 c 54.627,5 95.728,14.335 95.728,14.335 0,0 -12.366,-11.316 -14.329,-26.243 -7.053,-53.598 -25.025,-99.669 -133.638,-124.091 -78.432,-17.637 -133.845,3.812 -133.845,3.812 0,0 69.363,121.503 186.084,132.187"
         style="fill:#2dbecd;fill-opacity:1;fill-rule:nonzero;stroke:none"
         transform="matrix(1.3333333,0,0,-1.3333333,1250.0003,130.66667)"
         clip-path="url(#clipPath10)" />
      <path
         id="path11"
         d="m 0,0 c 0,0 15.293,131.218 32.948,165.424 32,62 162.704,-2.643 167,-5.999 4.295,-3.358 -58,-41.001 -97,-100.471 C 56.129,-12.438 0,0 0,0"
         style="fill:#96d7d2;fill-opacity:1;fill-rule:nonzero;stroke:none"
         transform="matrix(1.3333333,0,0,-1.3333333,1358.5316,141.8984)"
         clip-path="url(#clipPath12)" />
      <path
         id="path13"
         d="m 0,0 c 0,0 23.376,120.527 37.08,148.753 24.839,51.159 90.297,-40.515 92.309,-44.694 C 131.4,99.881 92.45,78.835 63.999,31.703 29.845,-24.879 0,0 0,0"
         style="fill:#2dbecd;fill-opacity:1;fill-rule:nonzero;stroke:none"
         transform="matrix(1.3333333,0,0,-1.3333333,1373.2973,114.97787)"
         clip-path="url(#clipPath14)" />
      <path
         id="path15"
         d="M 0,0 C 0,0 -18.41,125.613 210.918,120.593 222.636,120.337 314,131.932 473.129,254.66 500.52,275.784 545.105,370.523 634.253,377.788"
         style="fill:none;stroke:#0f69af;stroke-width:7.155;stroke-linecap:round;stroke-linejoin:miter;stroke-miterlimit:4;stroke-dasharray:none;stroke-opacity:1"
         transform="matrix(1.3333333,0,0,-1.3333333,733.12827,457.332)"
         clip-path="url(#clipPath16)" />
      <path
         id="path17"
         d="m 0,0 c 14.864,0 26.914,12.05 26.914,26.914 0,14.864 -12.05,26.914 -26.914,26.914 -14.864,0 -26.914,-12.05 -26.914,-26.914 C -26.914,12.05 -14.864,0 0,0"
         style="fill:#0f69af;fill-opacity:1;fill-rule:nonzero;stroke:none"
         transform="matrix(1.3333333,0,0,-1.3333333,977.59893,333.94853)"
         clip-path="url(#clipPath18)" />
      <path
         id="path19"
         d="m 0,0 c 14.864,0 26.914,12.05 26.914,26.914 0,14.864 -12.05,26.914 -26.914,26.914 -14.864,0 -26.914,-12.05 -26.914,-26.914 C -26.914,12.05 -14.864,0 0,0"
         style="fill:#0f69af;fill-opacity:1;fill-rule:nonzero;stroke:none"
         transform="matrix(1.3333333,0,0,-1.3333333,1358.7212,155.04747)"
         clip-path="url(#clipPath20)" />
    </g>
    <g
       id="g20"
       transform="matrix(0.26458333,0,0,0.26458333,-64.558333,46.566667)">
      <text
         id="text20"
         xml:space="preserve"
         x="55.333336"
         y="333.58414"
         style="font-size:16px;stroke-width:1.33333;fill:#0f69af;fill-opacity:1;stroke:none"><tspan
           style="font-variant:normal;font-weight:700;font-stretch:normal;font-size:55.1377px;font-family:Verdana;writing-mode:lr-tb;fill:#0f69af;fill-opacity:1;fill-rule:nonzero;stroke:none;stroke-width:1.33333"
           x="55.333336 97.348282 134.1803 170.07495 206.6864 239.38309 258.24017 295.0722 334.33026"
           y="333.58414"
           sodipodi:role="line"
           id="tspan20">Bayesian </tspan></text>
    </g>
    <g
       id="g21"
       transform="matrix(0.26458333,0,0,0.26458333,-64.558333,46.566667)">
      <text
         id="text21"
         xml:space="preserve"
         x="353.17932"
         y="333.58414"
         style="font-size:16px;stroke-width:1.33333;fill:#2dbecd;fill-opacity:1"><tspan
           style="font-variant:normal;font-weight:700;font-stretch:normal;font-size:55.1377px;font-family:Verdana;writing-mode:lr-tb;fill:#2dbecd;fill-opacity:1;fill-rule:nonzero;stroke:none;stroke-width:1.33333"
           x="353.17932 395.19427 432.02628 464.44727 501.4447 520.30182 557.96088 597.21893"
           y="333.58414"
           sodipodi:role="line"
           id="tspan21">Back End</tspan></text>
    </g>
    <g
       id="g22"
       transform="matrix(0.26458333,0,0,0.26458333,-64.558333,46.566667)">
      <text
         id="text22"
         xml:space="preserve"
         transform="scale(0.98585282,1.0143502)"
         x="503.67908"
         y="213.44055"
         style="font-size:16.2296px;stroke-width:1.35247;fill:#2dbecd;fill-opacity:1"><tspan
           style="font-variant:normal;font-weight:normal;font-stretch:normal;font-size:225.495px;font-family:Merck;writing-mode:lr-tb;fill:#2dbecd;fill-opacity:1;fill-rule:nonzero;stroke:none;stroke-width:1.35247"
           x="503.67908 673.92773"
           y="213.44055"
           sodipodi:role="line"
           id="tspan22">BE</tspan></text>
    </g>
    <g
       id="g23"
       transform="matrix(0.26458333,0,0,0.26458333,-64.558333,45.508333)">
      <text
         id="text23"
         xml:space="preserve"
         transform="scale(0.98585282,1.0143502)"
         x="60.824608"
         y="217.38397"
         style="font-size:16.2296px;stroke-width:1.35247;fill:#0f69af;fill-opacity:1;stroke:none"><tspan
           style="font-variant:normal;font-weight:normal;font-stretch:normal;font-size:225.495px;font-family:Merck;writing-mode:lr-tb;fill:#0f69af;fill-opacity:1;fill-rule:nonzero;stroke:none;stroke-width:1.35247"
           x="60.824608"
           y="217.38397"
           id="tspan23">B</tspan></text>
    </g>
    <g
       id="g24"
       transform="matrix(0.26458333,0,0,0.26458333,-64.558333,46.566667)"
       style="fill:#0f69af;fill-opacity:1;stroke:none">
      <text
         id="text24"
         xml:space="preserve"
         transform="scale(0.98585252,1.0143505)"
         x="231.00923"
         y="213.44048"
         style="font-size:16.2296px;stroke-width:1.35247;fill:#0f69af;fill-opacity:1;stroke:none"><tspan
           style="font-variant:normal;font-weight:normal;font-stretch:normal;font-size:176.139px;font-family:Merck;writing-mode:lr-tb;fill:#0f69af;fill-opacity:1;fill-rule:nonzero;stroke:none;stroke-width:1.35247"
           x="231.00923 361.35226"
           y="213.44048"
           sodipodi:role="line"
           id="tspan24">ay</tspan></text>
    </g>
  </g>
</svg>
