<?xml version="1.0" encoding="UTF-8" standalone="no"?>
<!-- Created with Inkscape (http://www.inkscape.org/) -->

<svg
   width="212.37222mm"
   height="212.21205mm"
   viewBox="0 0 106.18611 106.10603"
   version="1.1"
   id="svg1"
   inkscape:version="1.3.1 (91b66b0, 2023-11-16)"
   sodipodi:docname="logo_v1.svg"
   inkscape:export-filename="logo_v1.jpg"
   inkscape:export-xdpi="96"
   inkscape:export-ydpi="96"
   xmlns:inkscape="http://www.inkscape.org/namespaces/inkscape"
   xmlns:sodipodi="http://sodipodi.sourceforge.net/DTD/sodipodi-0.dtd"
   xmlns="http://www.w3.org/2000/svg"
   xmlns:svg="http://www.w3.org/2000/svg">
  <sodipodi:namedview
     id="namedview1"
     pagecolor="#ffffff"
     bordercolor="#000000"
     borderopacity="0.25"
     inkscape:showpageshadow="2"
     inkscape:pageopacity="0.0"
     inkscape:pagecheckerboard="0"
     inkscape:deskcolor="#d1d1d1"
     inkscape:document-units="mm"
     inkscape:zoom="0.38312366"
     inkscape:cx="212.72505"
     inkscape:cy="370.63751"
     inkscape:window-width="1728"
     inkscape:window-height="1387"
     inkscape:window-x="1512"
     inkscape:window-y="25"
     inkscape:window-maximized="0"
     inkscape:current-layer="layer1" />
  <defs
     id="defs1">
    <clipPath
       clipPathUnits="userSpaceOnUse"
       id="clipPath28">
      <path
         d="M 0,0 H 301 V 301 H 0 Z"
         transform="translate(2.5000001e-5)"
         id="path28" />
    </clipPath>
    <clipPath
       clipPathUnits="userSpaceOnUse"
       id="clipPath33">
      <path
         d="M 0,0 H 301 V 300.773 H 0 Z"
         transform="matrix(1.3333333,0,0,1.3333333,1581.3333,0)"
         id="path33" />
    </clipPath>
    <clipPath
       clipPathUnits="userSpaceOnUse"
       id="clipPath31">
      <path
         d="M 0,0 H 301 V 301 H 0 Z"
         transform="translate(2.5000001e-5)"
         id="path31" />
    </clipPath>
    <clipPath
       clipPathUnits="userSpaceOnUse"
       id="clipPath36">
      <path
         d="m 80.074,257.926 c -36.07,2.207 -56.062,22.734 -67.051,42.847 h 57.665 c 9.105,-13.281 23.816,-28.671 44.031,-31.16 8.398,-3.695 12.676,-12.211 -19.27,-12.211 -4.406,0 -9.5,0.164 -15.375,0.524"
         transform="matrix(1.3333333,0,0,1.3333333,1581.3333,0)"
         id="path36" />
    </clipPath>
    <clipPath
       clipPathUnits="userSpaceOnUse"
       id="clipPath34">
      <path
         d="M 0,0 H 301 V 301 H 0 Z"
         transform="translate(2.5000001e-5)"
         id="path34" />
    </clipPath>
    <clipPath
       clipPathUnits="userSpaceOnUse"
       id="clipPath39">
      <path
         d="M 0,0 H 301 V 300.773 H 0 Z"
         transform="matrix(1.3333333,0,0,1.3333333,1581.3333,0)"
         id="path39" />
    </clipPath>
    <clipPath
       clipPathUnits="userSpaceOnUse"
       id="clipPath37">
      <path
         d="M 0,0 H 301 V 301 H 0 Z"
         transform="translate(2.5000001e-5)"
         id="path37" />
    </clipPath>
    <clipPath
       clipPathUnits="userSpaceOnUse"
       id="clipPath42">
      <path
         d="m 126.555,263.5 c 0,0 32.465,20.371 69.863,20.371 51.785,0 57.875,-35.922 57.875,-62.516 0,-11.574 3.043,-23.332 3.043,-23.332 0,0 -5.691,2.825 -22.02,-2.332 -8.921,-2.82 -17.23,-4.062 -24.964,-4.062 -58.747,0.004 -83.797,71.871 -83.797,71.871"
         transform="matrix(1.3333333,0,0,1.3333333,1581.3333,0)"
         id="path42" />
    </clipPath>
    <clipPath
       clipPathUnits="userSpaceOnUse"
       id="clipPath40">
      <path
         d="M 0,0 H 301 V 301 H 0 Z"
         transform="translate(2.5000001e-5)"
         id="path40" />
    </clipPath>
    <clipPath
       clipPathUnits="userSpaceOnUse"
       id="clipPath45">
      <path
         d="M 0,0 H 301 V 300.773 H 0 Z"
         transform="matrix(1.3333333,0,0,1.3333333,1581.3333,0)"
         id="path45" />
    </clipPath>
    <clipPath
       clipPathUnits="userSpaceOnUse"
       id="clipPath43">
      <path
         d="M 0,0 H 301 V 301 H 0 Z"
         transform="translate(2.5000001e-5)"
         id="path43" />
    </clipPath>
    <clipPath
       clipPathUnits="userSpaceOnUse"
       id="clipPath48">
      <path
         d="m 269.664,131.777 c -8.234,15.957 -15.371,77.18 -15.371,77.18 0,0 25.145,5.57 46.707,-25.539 v -63.82 c -2.078,-0.2 -4.137,-0.313 -6.152,-0.313 -10.825,0 -20.383,3.195 -25.184,12.492"
         transform="matrix(1.3333333,0,0,1.3333333,1581.3333,0)"
         id="path48" />
    </clipPath>
    <clipPath
       clipPathUnits="userSpaceOnUse"
       id="clipPath46">
      <path
         d="M 0,0 H 301 V 301 H 0 Z"
         transform="translate(2.5000001e-5)"
         id="path46" />
    </clipPath>
    <clipPath
       clipPathUnits="userSpaceOnUse"
       id="clipPath51">
      <path
         d="M 0,0 H 301 V 300.773 H 0 Z"
         transform="matrix(1.3333333,0,0,1.3333333,1581.3333,0)"
         id="path51" />
    </clipPath>
    <clipPath
       clipPathUnits="userSpaceOnUse"
       id="clipPath49">
      <path
         d="M 0,0 H 301 V 301 H 0 Z"
         transform="matrix(1,0,0,-1,2.5000001e-5,0)"
         id="path49" />
    </clipPath>
    <clipPath
       clipPathUnits="userSpaceOnUse"
       id="clipPath54">
      <path
         d="M 0,0 H 301 V 300.773 H 0 Z"
         transform="matrix(1.3333333,0,0,1.3333333,1581.3333,0)"
         id="path54" />
    </clipPath>
    <clipPath
       clipPathUnits="userSpaceOnUse"
       id="clipPath52">
      <path
         d="M 0,0 H 301 V 301 H 0 Z"
         transform="translate(2.5000001e-5)"
         id="path52" />
    </clipPath>
    <clipPath
       clipPathUnits="userSpaceOnUse"
       id="clipPath57">
      <path
         d="M 0,0 H 301 V 300.773 H 0 Z"
         transform="matrix(1.3333333,0,0,1.3333333,1581.3333,0)"
         id="path57" />
    </clipPath>
    <clipPath
       clipPathUnits="userSpaceOnUse"
       id="clipPath55">
      <path
         d="M 0,0 H 301 V 301 H 0 Z"
         transform="translate(2.5000001e-5)"
         id="path55" />
    </clipPath>
  </defs>
  <g
     inkscape:label="Layer 1"
     inkscape:groupmode="layer"
     id="layer1"
     transform="translate(-51.85832,-95.514583)">
    <path
       id="path26"
       d="M 51.85832,95.514583 H 158.04443 V 201.62061 H 51.85832 Z"
       style="fill:#0f69af;fill-opacity:1;fill-rule:nonzero;stroke:none;stroke-width:0.352778" />
    <text
       id="text27"
       xml:space="preserve"
       x="57.523312"
       y="142.23245"
       style="font-size:4.23333px;fill:#ffdcb9;fill-opacity:1;stroke:none;stroke-width:0.352778"><tspan
         style="font-variant:normal;font-weight:700;font-size:13.7015px;font-family:Verdana;writing-mode:lr-tb;fill:#ffdcb9;fill-opacity:1;fill-rule:nonzero;stroke:none;stroke-width:0.352778"
         x="57.523312 67.960037 77.112244 86.030289 95.128975 103.25758 107.94072 117.09293"
         y="142.23245"
         sodipodi:role="line"
         id="tspan27">Bayesian</tspan></text>
    <text
       id="text28"
       xml:space="preserve"
       x="57.523312"
       y="157.1084"
       style="font-size:4.23333px;fill:#abdfdb;fill-opacity:1;stroke:none;stroke-width:0.352778"><tspan
         style="font-variant:normal;font-weight:700;font-size:13.7015px;font-family:Verdana;writing-mode:lr-tb;fill:#abdfdb;fill-opacity:1;fill-rule:nonzero;stroke:none;stroke-width:0.352778"
         x="57.523312 67.960037 77.112244 85.173943 94.366287"
         y="157.1084"
         sodipodi:role="line"
         id="tspan28">Back </tspan></text>
    <text
       id="text28-0"
       xml:space="preserve"
       x="56.687038"
       y="157.10172"
       style="font-size:4.23333px;fill:#abdfdb;fill-opacity:1;stroke:none;stroke-width:0.352778"><tspan
         style="font-variant:normal;font-weight:700;font-size:13.7015px;font-family:Verdana;writing-mode:lr-tb;fill:#abdfdb;fill-opacity:1;fill-rule:nonzero;stroke:none;stroke-width:0.352778"
         x="98.213158 107.57275 117.33378"
         sodipodi:role="line"
         id="tspan28-2">End</tspan></text>
    <g
       id="g29"
       transform="matrix(0.26458333,0,0,0.26458333,-367.06528,94.985416)">
      <path
         d="m 199.906,78.488 c 13.992,0 25.672,-4.652 25.672,-16.453 0,-6.172 -3.367,-10.824 -9.996,-13.746 2.527,-2.059 4.211,-5.199 4.211,-8.445 0,-12.559 -14.102,-17.645 -27.461,-17.645 h -20.199 c -0.844,0 -1.262,0.543 -1.262,1.516 v 34.316 c 0,13.746 13.043,20.457 29.035,20.457 M 202.223,44.5 c -4.629,-0.977 -11.258,-1.516 -16.625,-1.41 v -3.356 c 0,-3.679 3.367,-4.652 7.785,-4.652 4.945,0 10.625,1.516 10.625,5.953 0,1.731 -0.735,2.813 -1.785,3.465 m -1.055,21 c -9.68,0 -15.57,-2.598 -15.57,-9.203 v -1.621 c 9.679,-0.977 23.882,1.73 23.882,6.711 0,2.597 -3.156,4.113 -8.312,4.113 m 52.816,11.906 h 27.985 c 0.945,0 1.472,-0.433 1.472,-1.301 v -4.437 c 0,-2.703 -0.738,-4.762 -2.211,-6.277 -1.472,-1.516 -3.468,-2.274 -6.101,-2.274 h -22.094 c -2.101,0 -3.89,-0.648 -5.363,-1.84 -1.473,-1.191 -2.422,-2.707 -2.945,-4.547 h 33.035 c 0.945,0 1.472,-0.433 1.472,-1.296 v -4.442 c 0,-2.703 -0.738,-4.762 -2.211,-6.277 -1.472,-1.516 -3.472,-2.274 -6.101,-2.274 h -26.195 c 0.418,-1.839 1.367,-3.246 2.734,-4.328 1.367,-1.082 3.156,-1.625 5.363,-1.625 h 28.094 c 0.945,0 1.473,-0.433 1.473,-1.3 V 30.75 c 0,-2.703 -0.739,-4.762 -2.211,-6.277 -1.473,-1.516 -3.473,-2.274 -6.102,-2.274 h -43.031 c -0.84,0 -1.262,0.543 -1.262,1.516 v 29.984 c 0,3.356 0.633,6.496 1.789,9.418 1.156,2.922 2.84,5.52 5.051,7.578 2.102,2.059 4.629,3.68 7.68,4.871 2.945,1.192 6.207,1.84 9.679,1.84"
         style="fill:#abdfdb;fill-opacity:1;fill-rule:nonzero;stroke:none"
         transform="matrix(1.3333333,0,0,1.3333333,1581.3333,-2)"
         clip-path="url(#clipPath28)"
         id="path29" />
    </g>
    <path
       id="path30"
       d="m 67.76648,122.14506 c 4.937477,0 9.056511,-1.64112 9.056511,-5.80425 0,-2.17734 -1.188156,-3.81847 -3.525309,-4.84928 0.890412,-0.72637 1.484136,-1.83409 1.484136,-2.97921 0,-4.43054 -4.973108,-6.22476 -9.687277,-6.22476 H 57.96843 c -0.296333,0 -0.444852,0.19155 -0.444852,0.53481 v 12.10592 c 0,4.84928 4.602338,7.21677 10.242902,7.21677 m 0.817033,-11.99021 c -1.633008,-0.34466 -3.971572,-0.53481 -5.86493,-0.49741 v -1.18393 c 0,-1.29786 1.187803,-1.64112 2.747786,-1.64112 1.743428,0 3.748264,0.53481 3.748264,2.10009 0,0.61066 -0.26035,0.99236 -0.63112,1.22237 m -0.370769,7.40834 c -3.414536,0 -5.494161,-0.91652 -5.494161,-3.24662 v -0.57185 c 3.414889,-0.34466 8.425391,0.61031 8.425391,2.36749 0,0.91617 -1.113366,1.45098 -2.93123,1.45098 m 18.159941,4.20017 h 6.292144 c 0.231422,0 0.347133,-0.14887 0.347133,-0.41734 v -5.99581 c 0,-1.22237 -0.202494,-2.35655 -0.579967,-3.43006 -0.376413,-1.0735 -0.927452,-1.99813 -1.652411,-2.80423 -0.724958,-0.80504 -1.62313,-1.43192 -2.638777,-1.87854 -1.043164,-0.44767 -2.232378,-0.68615 -3.536245,-0.68615 h -5.682897 c -0.260349,0 -0.405341,0.11853 -0.405341,0.35701 v 1.22379 c 0,0.74542 0.202847,1.31303 0.609247,1.72931 0.404989,0.41769 0.956381,0.62689 1.681339,0.62689 h 3.942291 c 0.667103,0 1.305278,0.14887 1.854906,0.44803 0.551391,0.29774 0.986719,0.68615 1.304925,1.1631 h -3.768725 c -1.941689,0 -3.449461,0.32773 -4.493683,0.9839 -1.043517,0.65582 -1.565628,1.61078 -1.565628,2.8635 0,1.04457 0.261761,1.93887 0.782814,2.68428 0.493183,0.74719 1.160286,1.34232 1.972028,1.79035 0.811388,0.47802 1.709913,0.8061 2.695222,1.01424 0.957791,0.20919 1.914172,0.32773 2.841625,0.32773 z m -0.522464,-3.937 c -0.985309,0 -1.76777,-0.14887 -2.377017,-0.41769 -0.607483,-0.26846 -0.927453,-0.59655 -0.927453,-0.9839 0,-0.2988 0.144639,-0.50694 0.464609,-0.62688 0.318205,-0.11854 0.782461,-0.17921 1.449564,-0.17921 h 4.493683 c -0.02893,0.77611 -0.348545,1.34373 -0.957439,1.67181 -0.607836,0.35666 -1.332795,0.53587 -2.145947,0.53587 m 15.913799,9.3666 c 4.26085,0 7.16033,-2.44616 7.16033,-7.15892 v -11.12626 c 0,-1.46226 -0.84067,-2.35655 -2.29023,-2.35655 h -1.42099 c -0.23142,0 -0.34713,0.14887 -0.34713,0.41769 v 7.39739 c 0,1.52118 -0.60925,2.53542 -2.34809,2.53542 -2.26166,0 -4.320468,-2.17735 -4.320468,-5.34 v -2.65395 c 0,-1.46226 -0.840316,-2.35655 -2.290233,-2.35655 h -1.420636 c -0.231422,0 -0.347133,0.14887 -0.347133,0.41769 v 4.98157 c 0,4.95124 3.564819,8.88824 8.9281,8.88824 h 1.79846 c 0,1.61113 -1.276,2.41582 -3.07305,2.41582 -1.18921,0 -2.43628,-0.44662 -3.39266,-1.10243 -0.782814,-0.53763 -1.478845,-0.47837 -2.116667,0.23848 l -1.448506,1.61078 c -0.174977,0.1778 -0.08819,0.35701 0.08678,0.53622 1.825977,1.70039 4.347986,2.65536 6.842123,2.65536"
       style="fill:#ffdcb9;fill-opacity:1;fill-rule:nonzero;stroke:none;stroke-width:0.352778" />
    <g
       id="g32"
       clip-path="url(#clipPath33)"
       transform="matrix(0.26458333,0,0,0.26458333,-366.53611,95.514583)">
      <path
         d="M 80.074,257.926 C 7.43,262.367 0,341.133 0,341.133 l 59.664,-20.254 c 0.313,-0.996 18.867,-46.813 55.055,-51.266 9.554,-4.203 13.785,-14.648 -34.645,-11.687"
         style="fill:#ffdcb9;fill-opacity:1;fill-rule:nonzero;stroke:none"
         transform="matrix(1.3333333,0,0,1.3333333,1581.3333,0)"
         clip-path="url(#clipPath31)"
         id="path32" />
    </g>
    <g
       id="g36"
       clip-path="url(#clipPath36)"
       transform="matrix(0.26458333,0,0,0.26458333,-366.53611,95.514583)">
      <g
         id="g35">
        <path
           d="m 89.578,261.012 c -73.25,-0.469 -69.984,69.05 -69.984,69.05 l 35.461,-20.531 c 0.3,-0.668 7.465,-33.375 58.316,-44.379 8.399,-3.101 19.594,-3.207 -23.793,-4.14"
           style="fill:#abdfdb;fill-opacity:1;fill-rule:nonzero;stroke:none"
           transform="matrix(1.3333333,0,0,1.3333333,1581.3333,0)"
           clip-path="url(#clipPath34)"
           id="path35" />
      </g>
    </g>
    <g
       id="g38"
       clip-path="url(#clipPath39)"
       transform="matrix(0.26458333,0,0,0.26458333,-366.53611,95.514583)">
      <path
         d="m 235.316,195.691 c 16.329,5.157 22.02,2.332 22.02,2.332 0,0 -3.043,11.758 -3.043,23.332 0,26.594 -6.09,62.516 -57.875,62.516 -37.398,0 -69.863,-20.371 -69.863,-20.371 0,0 33.00678,-77.67103 108.761,-67.809"
         style="fill:#ffdcb9;fill-opacity:1;fill-rule:nonzero;stroke:none"
         transform="matrix(1.3333333,0,0,1.3333333,1581.3333,0)"
         clip-path="url(#clipPath37)"
         id="path38"
         sodipodi:nodetypes="ccsscc" />
    </g>
    <g
       id="g42"
       clip-path="url(#clipPath42)"
       transform="matrix(0.26458333,0,0,0.26458333,-366.53611,95.514583)"
       style="fill:#abdfdb;fill-opacity:1;stroke:none">
      <g
         id="g41"
         style="fill:#abdfdb;fill-opacity:1;stroke:none">
        <path
           d="m 220.37538,205.65152 c 25.489,-2.336 40.60462,-7.31552 40.60462,-7.31552 0,0 -5.769,5.281 -6.687,12.246 -3.289,25.004 -11.676,46.5 -62.348,57.895 -36.593,8.226 -62.445,-4.27608 -62.445,-4.27608 0,0 36.42238,-53.5644 90.87538,-58.5494"
           style="fill:#abdfdb;fill-opacity:1;fill-rule:nonzero;stroke:none"
           transform="matrix(1.3333333,0,0,1.3333333,1581.3333,0)"
           clip-path="url(#clipPath40)"
           id="path41"
           sodipodi:nodetypes="cccccc" />
      </g>
    </g>
    <g
       id="g44"
       clip-path="url(#clipPath45)"
       transform="matrix(0.26458333,0,0,0.26458333,-366.53611,95.514583)">
      <path
         d="m 254.293,208.957 c 0,0 5.88796,-55.29006 14.12596,-71.24706 14.93,-28.925 103.3849,-27.80519 105.3889,-26.23919 2.004,1.563 -53.28786,42.23625 -71.48386,69.97825 -21.844,33.309 -48.031,27.508 -48.031,27.508"
         style="fill:#ffdcb9;fill-opacity:1;fill-rule:nonzero;stroke:none"
         transform="matrix(1.3333333,0,0,1.3333333,1581.3333,0)"
         clip-path="url(#clipPath43)"
         id="path44"
         sodipodi:nodetypes="ccccc" />
    </g>
    <g
       id="g48"
       clip-path="url(#clipPath48)"
       transform="matrix(0.26458333,0,0,0.26458333,-366.53611,95.514583)">
      <g
         id="g47">
        <path
           d="m 261.0223,197.03692 c 0,0 5.78557,-46.25158 15.11518,-57.53212 16.89842,-20.43614 81.56118,-29.87498 62.42613,4.92574 0.938,1.95 -30.03667,20.19702 -49.24361,40.31546 -21.2916,22.30326 -28.2977,12.29092 -28.2977,12.29092"
           style="fill:#abdfdb;fill-opacity:1;fill-rule:nonzero;stroke:none"
           transform="matrix(1.3333333,0,0,1.3333333,1581.3333,0)"
           clip-path="url(#clipPath46)"
           id="path47"
           sodipodi:nodetypes="ccccc" />
      </g>
    </g>
    <g
       id="g50"
       clip-path="url(#clipPath51)"
       transform="matrix(0.26458333,0,0,0.26458333,-366.53611,95.514583)"
       style="stroke:#2dbecd;stroke-opacity:1">
      <path
         d="m 35.457,-319.332 c 0,0 -8.59,58.605 98.406,56.266 5.465,-0.122 48.09,5.289 122.332,62.546 12.782,9.856 28.58584,67.79845 70.17584,71.18545"
         style="fill:none;stroke:#2dbecd;stroke-width:3.33809;stroke-linecap:round;stroke-linejoin:miter;stroke-miterlimit:4;stroke-dasharray:none;stroke-opacity:1"
         transform="matrix(1.3333333,0,0,-1.3333333,1581.3333,0)"
         clip-path="url(#clipPath49)"
         id="path50"
         sodipodi:nodetypes="cccc" />
    </g>
    <g
       id="g53"
       clip-path="url(#clipPath54)"
       transform="matrix(0.26458333,0,0,0.26458333,-366.53611,95.514583)">
      <path
         d="m 121,276.156 c 6.938,0 12.559,-5.621 12.559,-12.558 0,-6.934 -5.621,-12.555 -12.559,-12.555 -6.934,0 -12.555,5.621 -12.555,12.555 0,6.937 5.621,12.558 12.555,12.558"
         style="fill:#2dbecd;fill-opacity:1;fill-rule:nonzero;stroke:none"
         transform="matrix(1.3333333,0,0,1.3333333,1581.3333,0)"
         clip-path="url(#clipPath52)"
         id="path53" />
    </g>
    <g
       id="g56"
       clip-path="url(#clipPath57)"
       transform="matrix(0.26458333,0,0,0.26458333,-366.53611,95.514583)"
       style="fill:#2dbecd;fill-opacity:1;stroke:none">
      <path
         d="m 254.359,213.559 c 6.938,0 12.559,-5.625 12.559,-12.559 0,-6.934 -5.621,-12.555 -12.559,-12.555 -6.933,0 -12.554,5.621 -12.554,12.555 0,6.934 5.621,12.559 12.554,12.559"
         style="fill:#2dbecd;fill-opacity:1;fill-rule:nonzero;stroke:none"
         transform="matrix(1.3333333,0,0,1.3333333,1581.3333,0)"
         clip-path="url(#clipPath55)"
         id="path56" />
    </g>
  </g>
</svg>
